<?xml version='1.0' encoding='utf-8'?>
<svg xmlns="http://www.w3.org/2000/svg" width="117" height="116" viewBox="0 0 117.34000000000015 116.29500000000007"><g transform="translate(58.67000000000007, 58.147500000000036) rotate(-98.82233300227942) translate(-1066.955, -630.1245)"><g id="Frame_11">
<g id="Group_253">
<g id="Group_254">
<g id="Group_255">
<line x1="1051" y1="651" x2="1043" y2="657" stroke="#8667A5" stroke-width="2" stroke-linecap="round" id="Vector_363" />
</g>
<g id="Group_256">
<line x1="1052" y1="640" x2="1050" y2="653" stroke="#8667A5" stroke-width="2" stroke-linecap="round" id="Vector_364" />
</g>
<circle cx="1050" cy="650.5" r="4" fill="#8667A5" id="Vector_365" />
<circle cx="1044" cy="655" r="3" fill="#8667A5" id="Vector_366" />
</g>
<g id="Group_257">
<g id="Group_258">
<line x1="1065" y1="633" x2="1065.5" y2="623.5" stroke="#8667A5" stroke-width="2" stroke-linecap="round" id="Vector_367" />
</g>
<g id="Group_259">
<line x1="1065.5" y1="623" x2="1053" y2="626" stroke="#8667A5" stroke-width="2" stroke-linecap="round" id="Vector_368" />
</g>
<g id="Group_260">
<line x1="1071" y1="616" x2="1064.5" y2="623" stroke="#8667A5" stroke-width="2" stroke-linecap="round" id="Vector_369" />
</g>
<g id="Group_261">
<line x1="1066.5" y1="622.5" x2="1075" y2="632" stroke="#8667A5" stroke-width="2" stroke-linecap="round" id="Vector_370" />
</g>
<circle cx="1070.5" cy="616.5" r="3" fill="#8667A5" id="Vector_371" />
<circle cx="1065.5" cy="622.5" r="4" fill="#8667A5" id="Vector_372" />
<circle cx="1065" cy="632" r="3" fill="#8667A5" id="Vector_373" />
</g>
<g id="Group_262">
<g id="Group_263">
<line x1="1076" y1="633" x2="1076.5" y2="623.5" stroke="#8667A5" stroke-width="2" stroke-linecap="round" id="Vector_374" />
</g>
<circle cx="1077" cy="624" r="3" fill="#8667A5" id="Vector_375" />
</g>
<g id="Group_264">
<line x1="1053" y1="627" x2="1055" y2="614" stroke="#8667A5" stroke-width="2" stroke-linecap="round" id="Vector_376" />
</g>
<g id="Group_265">
<line x1="1052" y1="639" x2="1053" y2="625" stroke="#8667A5" stroke-width="2" stroke-linecap="round" id="Vector_377" />
</g>
<g id="Group_266">
<line x1="1043" y1="624" x2="1052" y2="624" stroke="#8667A5" stroke-width="2" stroke-linecap="round" id="Vector_378" />
</g>
<circle cx="1043.5" cy="624" r="3" fill="#8667A5" id="Vector_379" />
<circle cx="1053.5" cy="625" r="4" fill="#8667A5" id="Vector_380" />
<circle cx="1051" cy="641" r="4" fill="#8667A5" id="Vector_381" />
<line x1="1040" y1="638" x2="1048.5" y2="640" stroke="#8667A5" stroke-width="3" stroke-linecap="round" id="Vector_382" />
<line x1="1039" y1="639.5" x2="1048" y2="642" stroke="#8667A5" stroke-width="3" stroke-linecap="round" id="Vector_383" />
<circle cx="1041.5" cy="639" r="4" fill="#8667A5" id="Vector_384" />
<g id="Group_267">
<g id="Group_268">
<g id="Group_269">
<line x1="1052.5" y1="611.5" x2="1046" y2="604" stroke="#8667A5" stroke-width="2" stroke-linecap="round" id="Vector_385" />
</g>
<circle cx="1046.5" cy="605" r="3" fill="#8667A5" id="Vector_386" />
</g>
<g id="Group_270">
<g id="Group_271">
<line x1="1057" y1="612.5" x2="1063" y2="604" stroke="#8667A5" stroke-width="2" stroke-linecap="round" id="Vector_387" />
</g>
<circle cx="1061.5" cy="604" r="3" fill="#8667A5" id="Vector_388" />
</g>
<circle cx="1054.5" cy="612" r="4.5" fill="#8667A5" id="Vector_389" />
</g>
<g id="Group_272">
<g id="Group_273">
<line x1="1075.5" y1="632" x2="1084" y2="627.5" stroke="#8667A5" stroke-width="2" stroke-linecap="round" id="Vector_390" />
</g>
<g id="Group_274">
<line x1="1086" y1="629.5" x2="1087" y2="636" stroke="#8667A5" stroke-width="2" stroke-linecap="round" id="Vector_391" />
</g>
<circle cx="1085" cy="626" r="4" fill="#8667A5" id="Vector_392" />
<circle cx="1088" cy="637" r="3" fill="#8667A5" id="Vector_393" />
<g id="Group_275">
<line x1="1088" y1="615" x2="1086" y2="624" stroke="#8667A5" stroke-width="2" stroke-linecap="round" id="Vector_394" />
</g>
<circle cx="1087.5" cy="618" r="3" fill="#8667A5" id="Vector_395" />
<line x1="1094" y1="629.5" x2="1087" y2="627" stroke="#8667A5" stroke-width="3" stroke-linecap="round" id="Vector_396" />
<circle cx="1093" cy="629" r="3" fill="#8667A5" id="Vector_397" />
</g>
<g id="Group_276">
<g id="Group_277">
<line x1="1076.5" y1="630.5" x2="1079" y2="640" stroke="#8667A5" stroke-width="2" stroke-linecap="round" id="Vector_398" />
</g>
<g id="Group_278">
<line x1="1076" y1="641.5" x2="1069.5" y2="641" stroke="#8667A5" stroke-width="2" stroke-linecap="round" id="Vector_399" />
</g>
<circle cx="1079" cy="641" r="4" fill="#8667A5" id="Vector_400" />
<circle cx="1069" cy="641.5" r="3" fill="#8667A5" id="Vector_401" />
<g id="Group_279">
<line x1="1089" y1="646.5" x2="1081" y2="643" stroke="#8667A5" stroke-width="2" stroke-linecap="round" id="Vector_402" />
</g>
<circle cx="1087" cy="646" r="3" fill="#8667A5" id="Vector_403" />
<circle cx="1076" cy="646" r="3" fill="#8667A5" id="Vector_404" />
<circle cx="1075" cy="648.5" r="3" fill="#8667A5" id="Vector_405" />
</g>
<circle cx="1076.5" cy="631.5" r="4" fill="#8667A5" id="Vector_406" />
</g>
</g>
</g></svg>