<?xml version='1.0' encoding='utf-8'?>
<svg xmlns="http://www.w3.org/2000/svg" width="121" height="102" viewBox="0 0 121.16600000000005 102.30550000000002"><g transform="translate(60.58300000000003, 51.15275000000001) rotate(9.080095614507556) translate(-469.8065, -35.613350000000004)"><g id="Frame_5">
<g id="Group_100">
<g id="Group_101">
<g id="Group_102">
<line x1="457" y1="31" x2="450" y2="37" stroke="#8667A5" stroke-width="2" stroke-linecap="round" id="Vector_148" />
</g>
<circle cx="451.5" cy="35" r="3" fill="#8667A5" id="Vector_149" />
<g id="Group_103">
<line x1="451" y1="25.5" x2="457.5" y2="32.5" stroke="#8667A5" stroke-width="2" stroke-linecap="round" id="Vector_150" />
</g>
<circle cx="452" cy="26.5" r="3" fill="#8667A5" id="Vector_151" />
<g id="Group_104">
<line x1="458" y1="30.5" x2="463" y2="18.5" stroke="#8667A5" stroke-width="2" stroke-linecap="round" id="Vector_152" />
</g>
<g id="Group_105">
<line x1="453" y1="43" x2="465" y2="41" stroke="#8667A5" stroke-width="2" stroke-linecap="round" id="Vector_153" />
</g>
<g id="Group_106">
<line x1="462.5" y1="20" x2="471.5" y2="17.5" stroke="#8667A5" stroke-width="2" stroke-linecap="round" id="Vector_154" />
</g>
<g id="Group_107">
<line x1="457" y1="31.5" x2="465" y2="42" stroke="#8667A5" stroke-width="2" stroke-linecap="round" id="Vector_155" />
</g>
<g id="Group_108">
<line x1="477" y1="38.5" x2="465" y2="41" stroke="#8667A5" stroke-width="2" stroke-linecap="round" id="Vector_156" />
</g>
<circle cx="462.5" cy="20" r="4" fill="#8667A5" id="Vector_157" />
<circle cx="470.5" cy="17.5" r="3" fill="#8667A5" id="Vector_158" />
<g id="Group_109">
<line x1="464" y1="42.5" x2="466" y2="51" stroke="#8667A5" stroke-width="2" stroke-linecap="round" id="Vector_159" />
</g>
<circle cx="465.5" cy="50.5" r="3" fill="#8667A5" id="Vector_160" />
<circle cx="464" cy="41" r="3" fill="#8667A5" id="Vector_161" />
<g id="Group_110">
<line x1="490.5" y1="35" x2="498" y2="41" stroke="#8667A5" stroke-width="2" stroke-linecap="round" id="Vector_162" />
</g>
<g id="Group_111">
<line x1="479" y1="38.5" x2="491.5" y2="36" stroke="#8667A5" stroke-width="2" stroke-linecap="round" id="Vector_163" />
</g>
<circle cx="490.5" cy="36.5" r="4" fill="#8667A5" id="Vector_164" />
<circle cx="479" cy="38.5" r="3" fill="#8667A5" id="Vector_165" />
<line x1="479" y1="49.5" x2="479" y2="41" stroke="#8667A5" stroke-width="2.5" stroke-linecap="round" id="Vector_166" />
<line x1="480" y1="49" x2="480.5" y2="40" stroke="#8667A5" stroke-width="2.5" stroke-linecap="round" id="Vector_167" />
<circle cx="480" cy="48" r="4" fill="#8667A5" id="Vector_168" />
<g id="Group_112">
<g id="Group_113">
<g id="Group_114">
<line x1="446.5" y1="54.5" x2="452" y2="46" stroke="#8667A5" stroke-width="2" stroke-linecap="round" id="Vector_169" />
</g>
<circle cx="447" cy="53.5" r="3" fill="#8667A5" id="Vector_170" />
</g>
<g id="Group_115">
<g id="Group_116">
<line x1="451" y1="43" x2="441.5" y2="39.5" stroke="#8667A5" stroke-width="2" stroke-linecap="round" id="Vector_171" />
</g>
<circle cx="442.5" cy="40" r="3" fill="#8667A5" id="Vector_172" />
</g>
<circle cx="451" cy="44" r="4" fill="#8667A5" id="Vector_173" />
</g>
<circle cx="458" cy="31" r="3" fill="#8667A5" id="Vector_174" />
<circle cx="497" cy="40.5" r="3" fill="#8667A5" id="Vector_175" />
</g>
</g>
</g>
</g></svg>