<?xml version='1.0' encoding='utf-8'?>
<svg xmlns="http://www.w3.org/2000/svg" width="119.5" height="126" viewBox="0 0 119.41400000000002 126.30799999999999"><g transform="translate(59.70700000000001, 63.153999999999996) rotate(45.01137286244989) translate(-187.71800000000002, -186.022)"><g id="Frame_3">
<g id="Group_59">
<g id="Group_60">
<g id="Group_61">
<line x1="182" y1="182" x2="176.5" y2="189.5" stroke="#8667A5" stroke-width="2" stroke-linecap="round" id="Vector_82" />
</g>
<g id="Group_62">
<line x1="178" y1="202.5" x2="187" y2="194" stroke="#8667A5" stroke-width="2" stroke-linecap="round" id="Vector_83" />
</g>
<g id="Group_63">
<line x1="188" y1="195" x2="175" y2="190" stroke="#8667A5" stroke-width="2" stroke-linecap="round" id="Vector_84" />
</g>
<g id="Group_64">
<line x1="187" y1="194" x2="195.5" y2="184" stroke="#8667A5" stroke-width="2" stroke-linecap="round" id="Vector_85" />
</g>
<g id="Group_65">
<line x1="194" y1="202" x2="187" y2="196" stroke="#8667A5" stroke-width="2" stroke-linecap="round" id="Vector_86" />
</g>
<circle cx="193" cy="201.5" r="3" fill="#8667A5" id="Vector_87" />
<circle cx="186" cy="194.5" r="4" fill="#8667A5" id="Vector_88" />
<g id="Group_66">
<line x1="204.5" y1="174" x2="214" y2="174.5" stroke="#8667A5" stroke-width="2" stroke-linecap="round" id="Vector_89" />
</g>
<g id="Group_67">
<line x1="197" y1="184" x2="206" y2="174.5" stroke="#8667A5" stroke-width="2" stroke-linecap="round" id="Vector_90" />
</g>
<circle cx="205" cy="175.5" r="4" fill="#8667A5" id="Vector_91" />
<circle cx="212" cy="174.5" r="3" fill="#8667A5" id="Vector_92" />
<circle cx="197" cy="184" r="4" fill="#8667A5" id="Vector_93" />
<circle cx="201" cy="189" r="3" fill="#8667A5" id="Vector_94" />
<circle cx="202" cy="188" r="3" fill="#8667A5" id="Vector_95" />
<circle cx="203.5" cy="190.5" r="4" fill="#8667A5" id="Vector_96" />
<g id="Group_68">
<g id="Group_69">
<g id="Group_70">
<line x1="179.5" y1="206" x2="180" y2="216" stroke="#8667A5" stroke-width="2" stroke-linecap="round" id="Vector_97" />
</g>
<circle cx="180" cy="214.5" r="2" fill="#8667A5" id="Vector_98" />
</g>
<g id="Group_71">
<g id="Group_72">
<line x1="167" y1="206.5" x2="176.5" y2="204" stroke="#8667A5" stroke-width="2" stroke-linecap="round" id="Vector_99" />
</g>
<circle cx="168" cy="206.5" r="2" fill="#8667A5" id="Vector_100" />
</g>
<circle cx="177" cy="205" r="4.5" fill="#8667A5" id="Vector_101" />
</g>
<g id="Group_73">
<line x1="174.5" y1="190.5" x2="166" y2="192.5" stroke="#8667A5" stroke-width="2" stroke-linecap="round" id="Vector_102" />
</g>
<g id="Group_74">
<line x1="173.5" y1="177" x2="175" y2="190" stroke="#8667A5" stroke-width="2" stroke-linecap="round" id="Vector_103" />
</g>
<circle cx="169" cy="192" r="3" fill="#8667A5" id="Vector_104" />
<circle cx="176" cy="190.5" r="4" fill="#8667A5" id="Vector_105" />
<circle cx="182" cy="183" r="3" fill="#8667A5" id="Vector_106" />
<g id="Group_75">
<g id="Group_76">
<line x1="173" y1="177.5" x2="174.5" y2="165" stroke="#8667A5" stroke-width="2" stroke-linecap="round" id="Vector_107" />
</g>
<circle cx="173" cy="178" r="4" fill="#8667A5" id="Vector_108" />
<line x1="162" y1="178" x2="169" y2="178" stroke="#8667A5" stroke-width="2" stroke-linecap="round" id="Vector_109" />
<line x1="162" y1="175" x2="170" y2="176" stroke="#8667A5" stroke-width="2" stroke-linecap="round" id="Vector_110" />
<circle cx="163.5" cy="177" r="4" fill="#8667A5" id="Vector_111" />
</g>
<g id="Group_77">
<g id="Group_78">
<g id="Group_79">
<line x1="173.5" y1="166" x2="170.5" y2="156.5" stroke="#8667A5" stroke-width="2" stroke-linecap="round" id="Vector_112" />
</g>
<circle cx="171" cy="157.5" r="2" fill="#8667A5" id="Vector_113" />
</g>
<g id="Group_80">
<g id="Group_81">
<line x1="177" y1="167" x2="185" y2="162" stroke="#8667A5" stroke-width="2" stroke-linecap="round" id="Vector_114" />
</g>
<circle cx="184" cy="163" r="2" fill="#8667A5" id="Vector_115" />
</g>
<circle cx="175" cy="166.5" r="4.5" fill="#8667A5" id="Vector_116" />
</g>
</g>
</g>
</g>
</g></svg>