<?xml version='1.0' encoding='utf-8'?>
<svg xmlns="http://www.w3.org/2000/svg" width="115.5" height="96" viewBox="0 0 115.44799999999998 96.9940000000002"><g transform="translate(57.72399999999999, 48.4970000000001) rotate(-189.05628773126813) translate(-469.794, -1066.255)"><g id="Frame_16">
<g id="Group_414">
<g id="Group_415">
<line x1="477" y1="1073" x2="468" y2="1073" stroke="#8667A5" stroke-width="2" stroke-linecap="round" id="Vector_581" />
</g>
<g id="Group_416">
<line x1="487" y1="1064" x2="474" y2="1062" stroke="#8667A5" stroke-width="2" stroke-linecap="round" id="Vector_582" />
</g>
<g id="Group_417">
<line x1="475" y1="1060.5" x2="478" y2="1073" stroke="#8667A5" stroke-width="2" stroke-linecap="round" id="Vector_583" />
</g>
<g id="Group_418">
<line x1="462.5" y1="1060" x2="474" y2="1061.5" stroke="#8667A5" stroke-width="2" stroke-linecap="round" id="Vector_584" />
</g>
<g id="Group_419">
<line x1="477" y1="1051.5" x2="475" y2="1060.5" stroke="#8667A5" stroke-width="2" stroke-linecap="round" id="Vector_585" />
</g>
<circle cx="476" cy="1052" r="3" fill="#8667A5" id="Vector_586" />
<circle cx="475.5" cy="1061" r="3" fill="#8667A5" id="Vector_587" />
<g id="Group_420">
<line x1="443" y1="1051" x2="448.5" y2="1059" stroke="#8667A5" stroke-width="2" stroke-linecap="round" id="Vector_588" />
</g>
<g id="Group_421">
<line x1="460" y1="1059.5" x2="448" y2="1057" stroke="#8667A5" stroke-width="2" stroke-linecap="round" id="Vector_589" />
</g>
<circle cx="449" cy="1058" r="4" fill="#8667A5" id="Vector_590" />
<circle cx="444" cy="1052" r="3" fill="#8667A5" id="Vector_591" />
<circle cx="461" cy="1060" r="3" fill="#8667A5" id="Vector_592" />
<line x1="464" y1="1049" x2="461.5" y2="1057" stroke="#8667A5" stroke-width="3" stroke-linecap="round" id="Vector_593" />
<line x1="461" y1="1049" x2="460" y2="1057" stroke="#8667A5" stroke-width="3" stroke-linecap="round" id="Vector_594" />
<circle cx="462" cy="1050.5" r="4" fill="#8667A5" id="Vector_595" />
<g id="Group_422">
<g id="Group_423">
<g id="Group_424">
<line x1="489" y1="1061" x2="496" y2="1054.5" stroke="#8667A5" stroke-width="2" stroke-linecap="round" id="Vector_596" />
</g>
<circle cx="495.5" cy="1055" r="3" fill="#8667A5" id="Vector_597" />
</g>
<g id="Group_425">
<g id="Group_426">
<line x1="487" y1="1065" x2="495" y2="1071" stroke="#8667A5" stroke-width="2" stroke-linecap="round" id="Vector_598" />
</g>
<circle cx="496" cy="1070" r="3" fill="#8667A5" id="Vector_599" />
</g>
<circle cx="488.5" cy="1063" r="4" fill="#8667A5" id="Vector_600" />
</g>
<g id="Group_427">
<line x1="485" y1="1078" x2="478" y2="1071" stroke="#8667A5" stroke-width="2" stroke-linecap="round" id="Vector_601" />
</g>
<g id="Group_428">
<line x1="478.5" y1="1074" x2="469" y2="1082.5" stroke="#8667A5" stroke-width="2" stroke-linecap="round" id="Vector_602" />
</g>
<circle cx="484" cy="1078" r="3" fill="#8667A5" id="Vector_603" />
<circle cx="478.5" cy="1073" r="3" fill="#8667A5" id="Vector_604" />
<circle cx="469" cy="1072.5" r="3" fill="#8667A5" id="Vector_605" />
<g id="Group_429">
<line x1="471.5" y1="1082" x2="462" y2="1083" stroke="#8667A5" stroke-width="2" stroke-linecap="round" id="Vector_606" />
</g>
<circle cx="471" cy="1081" r="4" fill="#8667A5" id="Vector_607" />
<circle cx="463" cy="1083" r="3" fill="#8667A5" id="Vector_608" />
</g>
</g>
</g></svg>