<?xml version='1.0' encoding='utf-8'?>
<svg xmlns="http://www.w3.org/2000/svg" width="108.5" height="107" viewBox="0 0 108.41599999999994 107.19000000000005"><g transform="translate(54.20799999999997, 53.59500000000003) rotate(-206.56826525346716) translate(-318.274, -1017.6890000000001)"><g id="Frame_17">
<g id="Group_430">
<g id="Group_431">
<g id="Group_432">
<line x1="296.5" y1="1002.5" x2="294" y2="993" stroke="#8667A5" stroke-width="2" stroke-linecap="round" id="Vector_609" />
</g>
<g id="Group_433">
<line x1="308" y1="1007" x2="296" y2="1001" stroke="#8667A5" stroke-width="2" stroke-linecap="round" id="Vector_610" />
</g>
<circle cx="297.5" cy="1001.5" r="4" fill="#8667A5" id="Vector_611" />
<circle cx="294" cy="994" r="3" fill="#8667A5" id="Vector_612" />
</g>
<g id="Group_434">
<g id="Group_435">
<line x1="319" y1="1024" x2="328" y2="1024" stroke="#8667A5" stroke-width="2" stroke-linecap="round" id="Vector_613" />
</g>
<circle cx="327" cy="1024.5" r="3" fill="#8667A5" id="Vector_614" />
</g>
<g id="Group_436">
<line x1="324.5" y1="1031.5" x2="320" y2="1024" stroke="#8667A5" stroke-width="2" stroke-linecap="round" id="Vector_615" />
</g>
<g id="Group_437">
<line x1="331" y1="1018.5" x2="319.5" y2="1012.5" stroke="#8667A5" stroke-width="2" stroke-linecap="round" id="Vector_616" />
</g>
<g id="Group_438">
<line x1="320" y1="1024.5" x2="321" y2="1012" stroke="#8667A5" stroke-width="2" stroke-linecap="round" id="Vector_617" />
</g>
<g id="Group_439">
<line x1="320" y1="1013" x2="308.5" y2="1007.5" stroke="#8667A5" stroke-width="2" stroke-linecap="round" id="Vector_618" />
</g>
<g id="Group_440">
<line x1="325" y1="1003.5" x2="321.5" y2="1012" stroke="#8667A5" stroke-width="2" stroke-linecap="round" id="Vector_619" />
</g>
<circle cx="325" cy="1004" r="3" fill="#8667A5" id="Vector_620" />
<circle cx="321" cy="1013" r="4" fill="#8667A5" id="Vector_621" />
<g id="Group_441">
<g id="Group_442">
<line x1="303.5" y1="1017" x2="309" y2="1025" stroke="#8667A5" stroke-width="2" stroke-linecap="round" id="Vector_622" />
</g>
<g id="Group_443">
<line x1="321" y1="1025" x2="308.5" y2="1024" stroke="#8667A5" stroke-width="2" stroke-linecap="round" id="Vector_623" />
</g>
<circle cx="309.5" cy="1023.5" r="4" fill="#8667A5" id="Vector_624" />
<circle cx="304" cy="1018" r="3" fill="#8667A5" id="Vector_625" />
</g>
<circle cx="307" cy="1006.5" r="4" fill="#8667A5" id="Vector_626" />
<circle cx="311" cy="1000.5" r="3" fill="#8667A5" id="Vector_627" />
<circle cx="309.5" cy="1000" r="3" fill="#8667A5" id="Vector_628" />
<circle cx="311.5" cy="998" r="4" fill="#8667A5" id="Vector_629" />
<g id="Group_444">
<g id="Group_445">
<g id="Group_446">
<line x1="343" y1="1012.5" x2="333" y2="1016" stroke="#8667A5" stroke-width="2" stroke-linecap="round" id="Vector_630" />
</g>
<circle cx="342" cy="1013" r="3" fill="#8667A5" id="Vector_631" />
</g>
<g id="Group_447">
<g id="Group_448">
<line x1="333" y1="1020" x2="338.5" y2="1028" stroke="#8667A5" stroke-width="2" stroke-linecap="round" id="Vector_632" />
</g>
<circle cx="337" cy="1027" r="3" fill="#8667A5" id="Vector_633" />
</g>
<circle cx="333" cy="1018" r="5" fill="#8667A5" id="Vector_634" />
</g>
<g id="Group_449">
<line x1="316.5" y1="1036" x2="322.5" y2="1033" stroke="#8667A5" stroke-width="2" stroke-linecap="round" id="Vector_635" />
</g>
<circle cx="325" cy="1033" r="4" fill="#8667A5" id="Vector_636" />
<circle cx="316" cy="1036.5" r="3" fill="#8667A5" id="Vector_637" />
<g id="Group_450">
<line x1="328" y1="1033.5" x2="336" y2="1035" stroke="#8667A5" stroke-width="2" stroke-linecap="round" id="Vector_638" />
</g>
<circle cx="334.5" cy="1034.5" r="3" fill="#8667A5" id="Vector_639" />
<line x1="324" y1="1041" x2="325" y2="1034.5" stroke="#8667A5" stroke-width="3" stroke-linecap="round" id="Vector_640" />
<circle cx="324" cy="1041" r="3" fill="#8667A5" id="Vector_641" />
<circle cx="320" cy="1025" r="4" fill="#8667A5" id="Vector_642" />
</g>
</g>
</g></svg>