<?xml version='1.0' encoding='utf-8'?>
<svg xmlns="http://www.w3.org/2000/svg" width="120" height="120.5" viewBox="0 0 119.94000000000005 120.47000000000025"><g transform="translate(59.97000000000003, 60.23500000000013) rotate(-152.60471818065832) translate(-793.0765, -1015.2925)"><g id="Frame_14">
<g id="Group_342">
<g id="Group_343">
<g id="Group_344">
<g id="Group_345">
<g id="Group_346">
<line x1="799.5" y1="987" x2="797" y2="993.5" stroke="#8667A5" stroke-width="1" stroke-linecap="round" id="Vector_496" />
</g>
<g id="Group_347">
<line x1="802" y1="1001" x2="797.5" y2="992.5" stroke="#8667A5" stroke-width="1" stroke-linecap="round" id="Vector_497" />
</g>
<circle cx="797" cy="993" r="3" fill="#8667A5" id="Vector_498" />
<circle cx="799" cy="987.5" r="2" fill="#8667A5" id="Vector_499" />
</g>
<g id="Group_348">
<g id="Group_349">
<line x1="771.5" y1="1030" x2="765" y2="1034" stroke="#8667A5" stroke-width="1.5" stroke-linecap="round" id="Vector_500" />
</g>
<circle cx="765.5" cy="1033.5" r="2.5" fill="#8667A5" id="Vector_501" />
</g>
<g id="Group_350">
<g id="Group_351">
<line x1="805" y1="1024" x2="803" y2="1018" stroke="#8667A5" stroke-width="1" stroke-linecap="round" id="Vector_502" />
</g>
<circle cx="805" cy="1024" r="2" fill="#8667A5" id="Vector_503" />
</g>
<g id="Group_352">
<g id="Group_353">
<line x1="801.5" y1="1017" x2="798" y2="1013" stroke="#8667A5" stroke-width="1" stroke-linecap="round" id="Vector_504" />
</g>
<circle cx="798" cy="1013" r="2" fill="#8667A5" id="Vector_505" />
</g>
<g id="Group_354">
<g id="Group_355">
<g id="Group_356">
<line x1="784" y1="1014" x2="792.5" y2="1019" stroke="#8667A5" stroke-width="1" stroke-linecap="round" id="Vector_506" />
</g>
<g id="Group_357">
<line x1="784" y1="1012" x2="793.5" y2="1017.5" stroke="#8667A5" stroke-width="1" stroke-linecap="round" id="Vector_507" />
</g>
</g>
<g id="Group_358">
<g id="Group_359">
<line x1="770" y1="1029" x2="770.5" y2="1019" stroke="#8667A5" stroke-width="1" stroke-linecap="round" id="Vector_508" />
</g>
<g id="Group_360">
<line x1="772" y1="1029" x2="772.5" y2="1019" stroke="#8667A5" stroke-width="1" stroke-linecap="round" id="Vector_509" />
</g>
</g>
<g id="Group_361">
<line x1="793" y1="1030" x2="794" y2="1020" stroke="#8667A5" stroke-width="1.5" stroke-linecap="round" id="Vector_510" />
</g>
<g id="Group_362">
<line x1="772.5" y1="1017" x2="781.5" y2="1012" stroke="#8667A5" stroke-width="1.5" stroke-linecap="round" id="Vector_511" />
</g>
<g id="Group_363">
<line x1="772" y1="1031" x2="780" y2="1036" stroke="#8667A5" stroke-width="1.5" stroke-linecap="round" id="Vector_512" />
</g>
<g id="Group_364">
<g id="Group_365">
<line x1="791" y1="1030.5" x2="782" y2="1035" stroke="#8667A5" stroke-width="1" stroke-linecap="round" id="Vector_513" />
</g>
<g id="Group_366">
<line x1="792" y1="1032.5" x2="783" y2="1037" stroke="#8667A5" stroke-width="1" stroke-linecap="round" id="Vector_514" />
</g>
</g>
<g id="Group_367">
<g id="Group_368">
<g id="Group_369">
<line x1="782" y1="1012.5" x2="783.5" y2="1005" stroke="#8667A5" stroke-width="1.5" stroke-linecap="round" id="Vector_515" />
</g>
<circle cx="784" cy="1006" r="2.5" fill="#8667A5" id="Vector_516" />
</g>
<circle cx="783" cy="1012" r="3" fill="#8667A5" id="Vector_517" />
</g>
<g id="Group_370">
<g id="Group_371">
<line x1="801" y1="1018.5" x2="793.5" y2="1018.5" stroke="#8667A5" stroke-width="1.5" stroke-linecap="round" id="Vector_518" />
</g>
<circle cx="793" cy="1019" r="3" fill="#8667A5" id="Vector_519" />
</g>
<g id="Group_372">
<g id="Group_373">
<g id="Group_374">
<line x1="793" y1="1031" x2="799" y2="1034" stroke="#8667A5" stroke-width="1.5" stroke-linecap="round" id="Vector_520" />
</g>
<circle cx="798.5" cy="1034" r="2.5" fill="#8667A5" id="Vector_521" />
</g>
<circle cx="793" cy="1031" r="3" fill="#8667A5" id="Vector_522" />
</g>
<g id="Group_375">
<g id="Group_376">
<g id="Group_377">
<line x1="782.5" y1="1043.5" x2="782" y2="1036.5" stroke="#8667A5" stroke-width="1.5" stroke-linecap="round" id="Vector_523" />
</g>
<circle cx="782" cy="1043" r="2.5" fill="#8667A5" id="Vector_524" />
</g>
<circle cx="782" cy="1037" r="3" fill="#8667A5" id="Vector_525" />
</g>
<g id="Group_378">
<g id="Group_379">
<g id="Group_380">
<line x1="772.5" y1="1018" x2="766.5" y2="1014" stroke="#8667A5" stroke-width="1.5" stroke-linecap="round" id="Vector_526" />
</g>
<circle cx="767" cy="1013" r="2.5" fill="#8667A5" id="Vector_527" />
</g>
<circle cx="772" cy="1017.5" r="3" fill="#8667A5" id="Vector_528" />
</g>
<circle cx="771.5" cy="1030" r="3" fill="#8667A5" id="Vector_529" />
</g>
<g id="Group_381">
<g id="Group_382">
<line x1="811.5" y1="1018.5" x2="807" y2="1010" stroke="#8667A5" stroke-width="1" stroke-linecap="round" id="Vector_530" />
</g>
<g id="Group_383">
<line x1="802" y1="1017" x2="808" y2="1009" stroke="#8667A5" stroke-width="1" stroke-linecap="round" id="Vector_531" />
</g>
<g id="Group_384">
<line x1="803" y1="1002" x2="807.5" y2="1010.5" stroke="#8667A5" stroke-width="1" stroke-linecap="round" id="Vector_532" />
</g>
<g id="Group_385">
<line x1="808.5" y1="1010.5" x2="814.5" y2="1006" stroke="#8667A5" stroke-width="1" stroke-linecap="round" id="Vector_533" />
</g>
<circle cx="814" cy="1007.5" r="2" fill="#8667A5" id="Vector_534" />
<circle cx="807.5" cy="1011" r="3" fill="#8667A5" id="Vector_535" />
<circle cx="802" cy="1001" r="3" fill="#8667A5" id="Vector_536" />
<circle cx="807" cy="999" r="2" fill="#8667A5" id="Vector_537" />
<circle cx="806.5" cy="998" r="2" fill="#8667A5" id="Vector_538" />
<circle cx="809" cy="997.5" r="3" fill="#8667A5" id="Vector_539" />
<g id="Group_386">
<g id="Group_387">
<g id="Group_388">
<line x1="821.5" y1="1020" x2="814" y2="1018.5" stroke="#8667A5" stroke-width="1.5" stroke-linecap="round" id="Vector_540" />
</g>
<circle cx="820.5" cy="1019" r="2.5" fill="#8667A5" id="Vector_541" />
</g>
<g id="Group_389">
<g id="Group_390">
<line x1="812" y1="1027.5" x2="812" y2="1020" stroke="#8667A5" stroke-width="1.5" stroke-linecap="round" id="Vector_542" />
</g>
<circle cx="812" cy="1027" r="2.5" fill="#8667A5" id="Vector_543" />
</g>
<circle cx="813" cy="1019" r="3.5" fill="#8667A5" id="Vector_544" />
</g>
<circle cx="802" cy="1017.5" r="3" fill="#8667A5" id="Vector_545" />
</g>
</g>
</g>
</g>
</g>
</g></svg>