<?xml version='1.0' encoding='utf-8'?>
<svg xmlns="http://www.w3.org/2000/svg" width="109.5" height="126.5" viewBox="0 0 109.481 126.46199999999999"><g transform="translate(54.7405, 63.230999999999995) rotate(-81.01211594624128) translate(-1064.375, -469.1735)"><g id="Frame_10">
<g id="Group_226">
<g id="Group_227">
<g id="Group_228">
<line x1="1061" y1="492" x2="1056" y2="498" stroke="#8667A5" stroke-width="2" stroke-linecap="round" id="Vector_319" />
</g>
<g id="Group_229">
<line x1="1058" y1="481" x2="1060.5" y2="493" stroke="#8667A5" stroke-width="2" stroke-linecap="round" id="Vector_320" />
</g>
<circle cx="1060" cy="492" r="3.5" fill="#8667A5" id="Vector_321" />
<circle cx="1056" cy="498" r="3" fill="#8667A5" id="Vector_322" />
</g>
<g id="Group_230">
<g id="Group_231">
<line x1="1072.5" y1="467.5" x2="1066" y2="462" stroke="#8667A5" stroke-width="2" stroke-linecap="round" id="Vector_323" />
</g>
<g id="Group_232">
<line x1="1071" y1="470" x2="1066.5" y2="473.5" stroke="#8667A5" stroke-width="2" stroke-linecap="round" id="Vector_324" />
</g>
<circle cx="1073" cy="468.5" r="4" fill="#8667A5" id="Vector_325" />
<circle cx="1066" cy="474.5" r="3" fill="#8667A5" id="Vector_326" />
<g id="Group_233">
<line x1="1083.5" y1="466" x2="1076" y2="468" stroke="#8667A5" stroke-width="2" stroke-linecap="round" id="Vector_327" />
</g>
<circle cx="1082" cy="467" r="3" fill="#8667A5" id="Vector_328" />
<line x1="1075" y1="476.5" x2="1073" y2="470" stroke="#8667A5" stroke-width="2.5" stroke-linecap="round" id="Vector_329" />
<circle cx="1074.5" cy="476" r="3" fill="#8667A5" id="Vector_330" />
</g>
<g id="Group_234">
<line x1="1065.5" y1="462" x2="1055.5" y2="468" stroke="#8667A5" stroke-width="2" stroke-linecap="round" id="Vector_331" />
</g>
<g id="Group_235">
<line x1="1061" y1="455" x2="1066" y2="463" stroke="#8667A5" stroke-width="2" stroke-linecap="round" id="Vector_332" />
</g>
<g id="Group_236">
<line x1="1074.5" y1="457" x2="1064" y2="463" stroke="#8667A5" stroke-width="2" stroke-linecap="round" id="Vector_333" />
</g>
<circle cx="1062" cy="456" r="3" fill="#8667A5" id="Vector_334" />
<circle cx="1065.5" cy="462" r="4" fill="#8667A5" id="Vector_335" />
<g id="Group_237">
<g id="Group_238">
<line x1="1081" y1="458.5" x2="1072" y2="455" stroke="#8667A5" stroke-width="2" stroke-linecap="round" id="Vector_336" />
</g>
<circle cx="1080" cy="458.5" r="3" fill="#8667A5" id="Vector_337" />
</g>
<g id="Group_239">
<g id="Group_240">
<line x1="1069" y1="450.5" x2="1074" y2="457.5" stroke="#8667A5" stroke-width="2" stroke-linecap="round" id="Vector_338" />
</g>
<circle cx="1070" cy="451" r="3" fill="#8667A5" id="Vector_339" />
</g>
<g id="Group_241">
<line x1="1056" y1="469" x2="1054" y2="456" stroke="#8667A5" stroke-width="2" stroke-linecap="round" id="Vector_340" />
</g>
<g id="Group_242">
<line x1="1058" y1="480" x2="1056" y2="468" stroke="#8667A5" stroke-width="2" stroke-linecap="round" id="Vector_341" />
</g>
<g id="Group_243">
<line x1="1054.5" y1="467.5" x2="1046" y2="469.5" stroke="#8667A5" stroke-width="2" stroke-linecap="round" id="Vector_342" />
</g>
<circle cx="1047" cy="469" r="3" fill="#8667A5" id="Vector_343" />
<circle cx="1055" cy="467.5" r="4" fill="#8667A5" id="Vector_344" />
<circle cx="1058" cy="482" r="4" fill="#8667A5" id="Vector_345" />
<line x1="1048" y1="482" x2="1056" y2="482" stroke="#8667A5" stroke-width="2.5" stroke-linecap="round" id="Vector_346" />
<line x1="1048" y1="484" x2="1055" y2="483" stroke="#8667A5" stroke-width="2.5" stroke-linecap="round" id="Vector_347" />
<circle cx="1049.5" cy="483" r="3.5" fill="#8667A5" id="Vector_348" />
<g id="Group_244">
<g id="Group_245">
<g id="Group_246">
<line x1="1051" y1="456" x2="1043" y2="451" stroke="#8667A5" stroke-width="2" stroke-linecap="round" id="Vector_349" />
</g>
<circle cx="1044" cy="452" r="3" fill="#8667A5" id="Vector_350" />
</g>
<g id="Group_247">
<g id="Group_248">
<line x1="1057.5" y1="446" x2="1054" y2="455" stroke="#8667A5" stroke-width="2" stroke-linecap="round" id="Vector_351" />
</g>
<circle cx="1057" cy="447" r="3" fill="#8667A5" id="Vector_352" />
</g>
<circle cx="1053" cy="455.5" r="4" fill="#8667A5" id="Vector_353" />
</g>
<g id="Group_249">
<g id="Group_250">
<line x1="1073" y1="457" x2="1076.5" y2="449" stroke="#8667A5" stroke-width="2" stroke-linecap="round" id="Vector_354" />
</g>
<g id="Group_251">
<line x1="1084" y1="453" x2="1079.5" y2="449.5" stroke="#8667A5" stroke-width="2" stroke-linecap="round" id="Vector_355" />
</g>
<circle cx="1077" cy="448" r="4" fill="#8667A5" id="Vector_356" />
<circle cx="1085" cy="453" r="3" fill="#8667A5" id="Vector_357" />
<g id="Group_252">
<line x1="1073" y1="438.5" x2="1076.5" y2="445.5" stroke="#8667A5" stroke-width="2" stroke-linecap="round" id="Vector_358" />
</g>
<circle cx="1074" cy="440" r="3" fill="#8667A5" id="Vector_359" />
<circle cx="1082" cy="446" r="2.5" fill="#8667A5" id="Vector_360" />
<circle cx="1084" cy="444" r="3" fill="#8667A5" id="Vector_361" />
</g>
<circle cx="1074" cy="456" r="4" fill="#8667A5" id="Vector_362" />
</g>
</g>
</g></svg>