<?xml version='1.0' encoding='utf-8'?>
<svg xmlns="http://www.w3.org/2000/svg" width="116" height="113" viewBox="0 0 116.952 113.2986"><g transform="translate(58.476, 56.6493) rotate(26.928215607835597) translate(-317.702, -88.8497)"><g id="Frame_4">
<g id="Group_82">
<g id="Group_83">
<g id="Group_84">
<line x1="304.5" y1="88" x2="312" y2="83" stroke="#8667A5" stroke-width="2" stroke-linecap="round" id="Vector_117" />
</g>
<g id="Group_85">
<line x1="313.5" y1="95.5" x2="302.5" y2="101" stroke="#8667A5" stroke-width="2" stroke-linecap="round" id="Vector_118" />
</g>
<g id="Group_86">
<line x1="304" y1="89" x2="313.5" y2="97" stroke="#8667A5" stroke-width="2" stroke-linecap="round" id="Vector_119" />
</g>
<g id="Group_87">
<line x1="324" y1="90" x2="313" y2="96" stroke="#8667A5" stroke-width="2" stroke-linecap="round" id="Vector_120" />
</g>
<g id="Group_88">
<line x1="313" y1="97" x2="317.5" y2="105" stroke="#8667A5" stroke-width="2" stroke-linecap="round" id="Vector_121" />
</g>
<circle cx="316" cy="104.5" r="3" fill="#8667A5" id="Vector_122" />
<circle cx="312.5" cy="96" r="4" fill="#8667A5" id="Vector_123" />
<g id="Group_89">
<line x1="336" y1="82" x2="344" y2="85.5" stroke="#8667A5" stroke-width="2" stroke-linecap="round" id="Vector_124" />
</g>
<g id="Group_90">
<line x1="326" y1="89" x2="337" y2="83" stroke="#8667A5" stroke-width="2" stroke-linecap="round" id="Vector_125" />
</g>
<circle cx="336" cy="83.5" r="3" fill="#8667A5" id="Vector_126" />
<circle cx="344" cy="85" r="3" fill="#8667A5" id="Vector_127" />
<circle cx="326" cy="89" r="4" fill="#8667A5" id="Vector_128" />
<circle cx="328" cy="95.5" r="3" fill="#8667A5" id="Vector_129" />
<circle cx="330" cy="95" r="3" fill="#8667A5" id="Vector_130" />
<circle cx="330" cy="97.5" r="3" fill="#8667A5" id="Vector_131" />
<g id="Group_91">
<g id="Group_92">
<g id="Group_93">
<line x1="300" y1="114" x2="302.5" y2="105" stroke="#8667A5" stroke-width="2" stroke-linecap="round" id="Vector_132" />
</g>
<circle cx="300.5" cy="113" r="3" fill="#8667A5" id="Vector_133" />
</g>
<g id="Group_94">
<g id="Group_95">
<line x1="300" y1="102" x2="290.5" y2="101.5" stroke="#8667A5" stroke-width="2" stroke-linecap="round" id="Vector_134" />
</g>
<circle cx="291.5" cy="101.5" r="3" fill="#8667A5" id="Vector_135" />
</g>
<circle cx="301.5" cy="102" r="4.5" fill="#8667A5" id="Vector_136" />
</g>
<g id="Group_96">
<line x1="305" y1="89" x2="296" y2="88.5" stroke="#8667A5" stroke-width="2" stroke-linecap="round" id="Vector_137" />
</g>
<g id="Group_97">
<line x1="303" y1="88" x2="305.5" y2="76" stroke="#8667A5" stroke-width="2" stroke-linecap="round" id="Vector_138" />
</g>
<circle cx="296.5" cy="88" r="3" fill="#8667A5" id="Vector_139" />
<circle cx="304" cy="89" r="4" fill="#8667A5" id="Vector_140" />
<circle cx="311.5" cy="83.5" r="3" fill="#8667A5" id="Vector_141" />
<g id="Group_98">
<g id="Group_99">
<line x1="310.5" y1="64" x2="305" y2="75.5" stroke="#8667A5" stroke-width="2" stroke-linecap="round" id="Vector_142" />
</g>
<circle cx="305" cy="76" r="4" fill="#8667A5" id="Vector_143" />
<circle cx="298" cy="74" r="2" fill="#8667A5" id="Vector_144" />
<circle cx="299" cy="72" r="2" fill="#8667A5" id="Vector_145" />
<circle cx="296" cy="72" r="3" fill="#8667A5" id="Vector_146" />
<circle cx="310" cy="65.5" r="3" fill="#8667A5" id="Vector_147" />
</g>
</g>
</g>
</g>
</g></svg>