<?xml version='1.0' encoding='utf-8'?>
<svg xmlns="http://www.w3.org/2000/svg" width="118" height="115" viewBox="0 0 118.25999999999999 114.77099999999996"><g transform="translate(59.129999999999995, 57.38549999999998) rotate(-224.6110346847208) translate(-185.077, -922.1945000000001)"><g id="Frame_18">
<g id="Group_451">
<g id="Group_452">
<g id="Group_453">
<g id="Group_454">
<g id="Group_455">
<line x1="207.5" y1="923.5" x2="213.5" y2="923.5" stroke="#8667A5" stroke-width="1" stroke-linecap="round" id="Vector_643" />
</g>
<g id="Group_456">
<line x1="203.5" y1="928.5" x2="208" y2="923" stroke="#8667A5" stroke-width="1" stroke-linecap="round" id="Vector_644" />
</g>
<circle cx="208" cy="924" r="2.5" fill="#8667A5" id="Vector_645" />
<circle cx="213" cy="923.5" r="2" fill="#8667A5" id="Vector_646" />
</g>
<g id="Group_457">
<g id="Group_458">
<line x1="190" y1="933.5" x2="185.5" y2="937" stroke="#8667A5" stroke-width="1" stroke-linecap="round" id="Vector_647" />
</g>
<circle cx="185.5" cy="937" r="2" fill="#8667A5" id="Vector_648" />
</g>
<g id="Group_459">
<g id="Group_460">
<line x1="191" y1="932" x2="193.5" y2="929" stroke="#8667A5" stroke-width="1" stroke-linecap="round" id="Vector_649" />
</g>
<circle cx="192.5" cy="929" r="2" fill="#8667A5" id="Vector_650" />
</g>
<g id="Group_461">
<g id="Group_462">
<line x1="197" y1="935" x2="191.5" y2="941" stroke="#8667A5" stroke-width="1" stroke-linecap="round" id="Vector_651" />
</g>
<g id="Group_463">
<line x1="197" y1="936" x2="190" y2="932" stroke="#8667A5" stroke-width="1" stroke-linecap="round" id="Vector_652" />
</g>
<g id="Group_464">
<line x1="202" y1="930" x2="197" y2="935.5" stroke="#8667A5" stroke-width="1" stroke-linecap="round" id="Vector_653" />
</g>
<g id="Group_465">
<line x1="201" y1="940" x2="197" y2="936.5" stroke="#8667A5" stroke-width="1" stroke-linecap="round" id="Vector_654" />
</g>
<circle cx="201" cy="940" r="2" fill="#8667A5" id="Vector_655" />
<circle cx="196" cy="936" r="2.5" fill="#8667A5" id="Vector_656" />
<circle cx="203" cy="928" r="2.5" fill="#8667A5" id="Vector_657" />
<circle cx="205.5" cy="932.5" r="1" fill="#8667A5" id="Vector_658" />
<circle cx="206" cy="931.5" r="1" fill="#8667A5" id="Vector_659" />
<circle cx="207" cy="933" r="2.5" fill="#8667A5" id="Vector_660" />
<g id="Group_466">
<g id="Group_467">
<g id="Group_468">
<line x1="192" y1="943" x2="192.5" y2="949" stroke="#8667A5" stroke-width="1" stroke-linecap="round" id="Vector_661" />
</g>
<circle cx="192.5" cy="948" r="2" fill="#8667A5" id="Vector_662" />
</g>
<g id="Group_469">
<g id="Group_470">
<line x1="184.5" y1="943" x2="190" y2="941.5" stroke="#8667A5" stroke-width="1" stroke-linecap="round" id="Vector_663" />
</g>
<circle cx="185" cy="943" r="2" fill="#8667A5" id="Vector_664" />
</g>
<circle cx="191" cy="941" r="3" fill="#8667A5" id="Vector_665" />
</g>
</g>
<g id="Group_471">
<g id="Group_472">
<g id="Group_473">
<line x1="182" y1="928.5" x2="175.5" y2="933" stroke="#8667A5" stroke-width="1" stroke-linecap="round" id="Vector_666" />
</g>
<g id="Group_474">
<line x1="176" y1="935" x2="184" y2="930" stroke="#8667A5" stroke-width="0" stroke-linecap="round" id="Vector_667" />
</g>
</g>
<g id="Group_475">
<line x1="180" y1="919.5" x2="184" y2="928" stroke="#8667A5" stroke-width="1" stroke-linecap="round" id="Vector_668" />
</g>
<g id="Group_476">
<line x1="168" y1="930.5" x2="176" y2="935" stroke="#8667A5" stroke-width="1" stroke-linecap="round" id="Vector_669" />
</g>
<g id="Group_477">
<line x1="168.5" y1="921" x2="168" y2="929.5" stroke="#8667A5" stroke-width="1" stroke-linecap="round" id="Vector_670" />
</g>
<g id="Group_478">
<g id="Group_479">
<g id="Group_480">
<line x1="175.5" y1="934" x2="172" y2="939.5" stroke="#8667A5" stroke-width="1" stroke-linecap="round" id="Vector_671" />
</g>
<circle cx="173.5" cy="939" r="2" fill="#8667A5" id="Vector_672" />
</g>
<circle cx="175.5" cy="934.5" r="2.5" fill="#8667A5" id="Vector_673" />
</g>
<g id="Group_481">
<g id="Group_482">
<line x1="184" y1="929" x2="189" y2="932" stroke="#8667A5" stroke-width="1" stroke-linecap="round" id="Vector_674" />
</g>
<circle cx="184" cy="929" r="2.5" fill="#8667A5" id="Vector_675" />
</g>
<g id="Group_483">
<g id="Group_484">
<line x1="164" y1="933" x2="168.5" y2="929.5" stroke="#8667A5" stroke-width="1" stroke-linecap="round" id="Vector_676" />
</g>
<circle cx="164" cy="933" r="2" fill="#8667A5" id="Vector_677" />
</g>
<circle cx="169" cy="930" r="3" fill="#8667A5" id="Vector_678" />
</g>
<g id="Group_485">
<g id="Group_486">
<g id="Group_487">
<line x1="179" y1="917" x2="170.5" y2="919" stroke="#8667A5" stroke-width="0" stroke-linecap="round" id="Vector_679" />
</g>
<g id="Group_488">
<line x1="170" y1="921.5" x2="178" y2="919.5" stroke="#8667A5" stroke-width="0" stroke-linecap="round" id="Vector_680" />
</g>
</g>
<g id="Group_489">
<g id="Group_490">
<line x1="182" y1="907" x2="176" y2="901" stroke="#8667A5" stroke-width="0" stroke-linecap="round" id="Vector_681" />
</g>
<g id="Group_491">
<line x1="175" y1="902" x2="180" y2="908" stroke="#8667A5" stroke-width="0" stroke-linecap="round" id="Vector_682" />
</g>
</g>
<g id="Group_492">
<line x1="163" y1="914" x2="168.5" y2="920" stroke="#8667A5" stroke-width="1" stroke-linecap="round" id="Vector_683" />
</g>
<g id="Group_493">
<line x1="182" y1="909.5" x2="180" y2="917.5" stroke="#8667A5" stroke-width="1" stroke-linecap="round" id="Vector_684" />
</g>
<g id="Group_494">
<line x1="166.5" y1="902" x2="174.5" y2="900" stroke="#8667A5" stroke-width="1" stroke-linecap="round" id="Vector_685" />
</g>
<g id="Group_495">
<g id="Group_496">
<line x1="166" y1="904.5" x2="163.5" y2="912.5" stroke="#8667A5" stroke-width="0" stroke-linecap="round" id="Vector_686" />
</g>
<g id="Group_497">
<line x1="161" y1="912" x2="164" y2="904" stroke="#8667A5" stroke-width="0" stroke-linecap="round" id="Vector_687" />
</g>
</g>
<g id="Group_498">
<g id="Group_499">
<g id="Group_500">
<line x1="178" y1="918" x2="185" y2="920" stroke="#8667A5" stroke-width="1" stroke-linecap="round" id="Vector_688" />
</g>
<circle cx="184" cy="920" r="2" fill="#8667A5" id="Vector_689" />
</g>
<circle cx="179.5" cy="918.5" r="2.5" fill="#8667A5" id="Vector_690" />
</g>
<circle cx="169" cy="921" r="2.5" fill="#8667A5" id="Vector_691" />
<g id="Group_501">
<g id="Group_502">
<g id="Group_503">
<line x1="157" y1="915" x2="163" y2="913.5" stroke="#8667A5" stroke-width="1" stroke-linecap="round" id="Vector_692" />
</g>
<circle cx="157.5" cy="914" r="2" fill="#8667A5" id="Vector_693" />
</g>
<circle cx="162" cy="913.5" r="2.5" fill="#8667A5" id="Vector_694" />
</g>
<g id="Group_504">
<g id="Group_505">
<g id="Group_506">
<line x1="165" y1="904" x2="161" y2="900" stroke="#8667A5" stroke-width="1" stroke-linecap="round" id="Vector_695" />
</g>
<circle cx="161.5" cy="900" r="2" fill="#8667A5" id="Vector_696" />
</g>
<circle cx="165" cy="904" r="2.5" fill="#8667A5" id="Vector_697" />
</g>
<g id="Group_507">
<g id="Group_508">
<g id="Group_509">
<line x1="182" y1="908.5" x2="187.5" y2="907.5" stroke="#8667A5" stroke-width="1" stroke-linecap="round" id="Vector_698" />
</g>
<circle cx="187" cy="908" r="2" fill="#8667A5" id="Vector_699" />
</g>
<circle cx="182" cy="908.5" r="2.5" fill="#8667A5" id="Vector_700" />
</g>
<g id="Group_510">
<g id="Group_511">
<g id="Group_512">
<line x1="175" y1="901.5" x2="177" y2="895.5" stroke="#8667A5" stroke-width="1" stroke-linecap="round" id="Vector_701" />
</g>
<circle cx="177" cy="896" r="2" fill="#8667A5" id="Vector_702" />
</g>
<circle cx="175" cy="901" r="2.5" fill="#8667A5" id="Vector_703" />
</g>
</g>
</g>
<circle cx="189" cy="932" r="2.5" fill="#8667A5" id="Vector_704" />
</g>
</g>
</g>
</g></svg>