<?xml version='1.0' encoding='utf-8'?>
<svg xmlns="http://www.w3.org/2000/svg" width="125" height="112" viewBox="0 0 125.34799999999996 112.27659999999997"><g transform="translate(62.67399999999998, 56.13829999999999) rotate(-26.198802737229606) translate(-785.797, -75.1408)"><g id="Frame_7">
<g id="Group_143">
<g id="Group_144">
<g id="Group_145">
<g id="Group_146">
<line x1="791.5" y1="82" x2="785" y2="73" stroke="#8667A5" stroke-width="1.5" stroke-linecap="round" id="Vector_213" />
</g>
<g id="Group_147">
<line x1="773.5" y1="73" x2="779" y2="63" stroke="#8667A5" stroke-width="1.5" stroke-linecap="round" id="Vector_214" />
</g>
<g id="Group_148">
<line x1="773" y1="72" x2="784" y2="72.5" stroke="#8667A5" stroke-width="1.5" stroke-linecap="round" id="Vector_215" />
</g>
<g id="Group_149">
<line x1="774" y1="72" x2="769" y2="82" stroke="#8667A5" stroke-width="1.5" stroke-linecap="round" id="Vector_216" />
</g>
<g id="Group_150">
<line x1="773" y1="70" x2="766" y2="68" stroke="#8667A5" stroke-width="1.5" stroke-linecap="round" id="Vector_217" />
</g>
<circle cx="766.5" cy="68" r="3" fill="#8667A5" id="Vector_218" />
<circle cx="774" cy="71.5" r="4" fill="#8667A5" id="Vector_219" />
<g id="Group_151">
<line x1="756" y1="96" x2="764" y2="94" stroke="#8667A5" stroke-width="1.5" stroke-linecap="round" id="Vector_220" />
</g>
<g id="Group_152">
<line x1="768" y1="84" x2="763" y2="94" stroke="#8667A5" stroke-width="1.5" stroke-linecap="round" id="Vector_221" />
</g>
<circle cx="763.5" cy="93" r="3.5" fill="#8667A5" id="Vector_222" />
<circle cx="757" cy="96" r="3" fill="#8667A5" id="Vector_223" />
<circle cx="768" cy="83.5" r="4" fill="#8667A5" id="Vector_224" />
<circle cx="763" cy="80" r="3" fill="#8667A5" id="Vector_225" />
<circle cx="762.5" cy="81.5" r="3" fill="#8667A5" id="Vector_226" />
<circle cx="761" cy="80" r="3.5" fill="#8667A5" id="Vector_227" />
<g id="Group_153">
<g id="Group_154">
<g id="Group_155">
<line x1="773.5" y1="52" x2="777" y2="60" stroke="#8667A5" stroke-width="1.5" stroke-linecap="round" id="Vector_228" />
</g>
<circle cx="774" cy="53" r="3" fill="#8667A5" id="Vector_229" />
</g>
<g id="Group_156">
<g id="Group_157">
<line x1="780" y1="61" x2="787" y2="56" stroke="#8667A5" stroke-width="1.5" stroke-linecap="round" id="Vector_230" />
</g>
<circle cx="786" cy="57" r="3" fill="#8667A5" id="Vector_231" />
</g>
<circle cx="778.5" cy="61" r="4" fill="#8667A5" id="Vector_232" />
</g>
<g id="Group_158">
<g id="Group_159">
<line x1="784" y1="73" x2="781" y2="81" stroke="#8667A5" stroke-width="1.5" stroke-linecap="round" id="Vector_233" />
</g>
<g id="Group_160">
<line x1="792" y1="67.5" x2="785" y2="72" stroke="#8667A5" stroke-width="1.5" stroke-linecap="round" id="Vector_234" />
</g>
<circle cx="790" cy="69" r="3" fill="#8667A5" id="Vector_235" />
<circle cx="784" cy="72" r="4" fill="#8667A5" id="Vector_236" />
<circle cx="781" cy="80" r="3" fill="#8667A5" id="Vector_237" />
</g>
<g id="Group_161">
<g id="Group_162">
<line x1="802" y1="80.5" x2="791" y2="80" stroke="#8667A5" stroke-width="1.5" stroke-linecap="round" id="Vector_238" />
</g>
<g id="Group_163">
<g id="Group_164">
<line x1="807.5" y1="90" x2="802" y2="81" stroke="#8667A5" stroke-width="1.5" stroke-linecap="round" id="Vector_239" />
</g>
<circle cx="801.5" cy="80.5" r="4" fill="#8667A5" id="Vector_240" />
<circle cx="806" cy="76.5" r="3" fill="#8667A5" id="Vector_241" />
<circle cx="807" cy="78" r="3" fill="#8667A5" id="Vector_242" />
<circle cx="808.5" cy="76" r="3.5" fill="#8667A5" id="Vector_243" />
</g>
<g id="Group_165">
<g id="Group_166">
<g id="Group_167">
<line x1="808" y1="88" x2="815" y2="94" stroke="#8667A5" stroke-width="1.5" stroke-linecap="round" id="Vector_244" />
</g>
<circle cx="814.5" cy="93" r="3" fill="#8667A5" id="Vector_245" />
</g>
<g id="Group_168">
<g id="Group_169">
<line x1="805" y1="90" x2="802" y2="98" stroke="#8667A5" stroke-width="1.5" stroke-linecap="round" id="Vector_246" />
</g>
<circle cx="802" cy="97" r="3" fill="#8667A5" id="Vector_247" />
</g>
<circle cx="806" cy="89.5" r="4" fill="#8667A5" id="Vector_248" />
</g>
</g>
<g id="Group_170">
<g id="Group_171">
<line x1="790" y1="81.5" x2="790" y2="89.5" stroke="#8667A5" stroke-width="1.5" stroke-linecap="round" id="Vector_249" />
</g>
<g id="Group_172">
<line x1="789.5" y1="81" x2="795" y2="75" stroke="#8667A5" stroke-width="1.5" stroke-linecap="round" id="Vector_250" />
</g>
<circle cx="795" cy="75.5" r="3" fill="#8667A5" id="Vector_251" />
<circle cx="790" cy="80.5" r="4" fill="#8667A5" id="Vector_252" />
<circle cx="790" cy="89" r="3" fill="#8667A5" id="Vector_253" />
</g>
</g>
</g>
</g>
</g>
</g></svg>