<?xml version='1.0' encoding='utf-8'?>
<svg xmlns="http://www.w3.org/2000/svg" width="115" height="123" viewBox="0 0 115.15830000000003 123.15200000000004"><g transform="translate(57.57915000000001, 61.57600000000002) rotate(-242.59601673271254) translate(-87.21985, -791.192)"><g id="Frame_19">
<g id="Group_513">
<g id="Group_514">
<g id="Group_515">
<g id="Group_516">
<g id="Group_517">
<line x1="106.5" y1="799" x2="113" y2="801" stroke="#8667A5" stroke-width="1" stroke-linecap="round" id="Vector_705" />
</g>
<g id="Group_518">
<line x1="107.5" y1="799.5" x2="100" y2="804" stroke="#8667A5" stroke-width="1" stroke-linecap="round" id="Vector_706" />
</g>
<circle cx="107" cy="799" r="3" fill="#8667A5" id="Vector_707" />
<circle cx="111" cy="801" r="2" fill="#8667A5" id="Vector_708" />
</g>
<g id="Group_519">
<g id="Group_520">
<line x1="85.5" y1="804" x2="79.5" y2="806" stroke="#8667A5" stroke-width="1" stroke-linecap="round" id="Vector_709" />
</g>
<circle cx="79" cy="806" r="2" fill="#8667A5" id="Vector_710" />
</g>
<g id="Group_521">
<g id="Group_522">
<line x1="89.5" y1="800.5" x2="86" y2="802.5" stroke="#8667A5" stroke-width="1" stroke-linecap="round" id="Vector_711" />
</g>
<circle cx="90" cy="800" r="2" fill="#8667A5" id="Vector_712" />
</g>
<g id="Group_523">
<g id="Group_524">
<g id="Group_525">
<line x1="83" y1="794.5" x2="89" y2="787" stroke="#8667A5" stroke-width="1" stroke-linecap="round" id="Vector_713" />
</g>
<g id="Group_526">
<line x1="90" y1="788" x2="85.5" y2="795.5" stroke="#8667A5" stroke-width="1" stroke-linecap="round" id="Vector_714" />
</g>
</g>
<g id="Group_527">
<g id="Group_528">
<line x1="74" y1="774.5" x2="83" y2="774" stroke="#8667A5" stroke-width="1" stroke-linecap="round" id="Vector_715" />
</g>
<g id="Group_529">
<line x1="84" y1="777" x2="75" y2="776.5" stroke="#8667A5" stroke-width="1" stroke-linecap="round" id="Vector_716" />
</g>
</g>
<g id="Group_530">
<line x1="74" y1="795" x2="83" y2="796" stroke="#8667A5" stroke-width="1.5" stroke-linecap="round" id="Vector_717" />
</g>
<g id="Group_531">
<line x1="86" y1="776.5" x2="90" y2="784.5" stroke="#8667A5" stroke-width="1.5" stroke-linecap="round" id="Vector_718" />
</g>
<g id="Group_532">
<line x1="73.5" y1="776" x2="69" y2="783.5" stroke="#8667A5" stroke-width="1.5" stroke-linecap="round" id="Vector_719" />
</g>
<g id="Group_533">
<g id="Group_534">
<line x1="69.5" y1="785" x2="74" y2="793" stroke="#8667A5" stroke-width="1" stroke-linecap="round" id="Vector_720" />
</g>
<g id="Group_535">
<line x1="68" y1="786" x2="72" y2="794" stroke="#8667A5" stroke-width="1" stroke-linecap="round" id="Vector_721" />
</g>
</g>
<g id="Group_536">
<g id="Group_537">
<g id="Group_538">
<line x1="96.5" y1="786.5" x2="90" y2="786" stroke="#8667A5" stroke-width="1" stroke-linecap="round" id="Vector_722" />
</g>
<circle cx="96" cy="787" r="2" fill="#8667A5" id="Vector_723" />
</g>
<circle cx="90.5" cy="786" r="3" fill="#8667A5" id="Vector_724" />
</g>
<g id="Group_539">
<g id="Group_540">
<line x1="84.5" y1="795.5" x2="84.5" y2="802" stroke="#8667A5" stroke-width="1" stroke-linecap="round" id="Vector_725" />
</g>
<circle cx="84" cy="796" r="3" fill="#8667A5" id="Vector_726" />
</g>
<g id="Group_541">
<g id="Group_542">
<g id="Group_543">
<line x1="73.5" y1="795" x2="70.5" y2="800.5" stroke="#8667A5" stroke-width="1" stroke-linecap="round" id="Vector_727" />
</g>
<circle cx="70.5" cy="799" r="2" fill="#8667A5" id="Vector_728" />
</g>
<circle cx="73" cy="795" r="3" fill="#8667A5" id="Vector_729" />
</g>
<g id="Group_544">
<g id="Group_545">
<g id="Group_546">
<line x1="62" y1="786" x2="68.5" y2="785.5" stroke="#8667A5" stroke-width="1" stroke-linecap="round" id="Vector_730" />
</g>
<circle cx="62.5" cy="785.5" r="2" fill="#8667A5" id="Vector_731" />
</g>
<circle cx="68" cy="785" r="3" fill="#8667A5" id="Vector_732" />
</g>
<g id="Group_547">
<g id="Group_548">
<g id="Group_549">
<line x1="84" y1="776.5" x2="89" y2="771" stroke="#8667A5" stroke-width="1" stroke-linecap="round" id="Vector_733" />
</g>
<circle cx="89" cy="772" r="2" fill="#8667A5" id="Vector_734" />
</g>
<circle cx="85.5" cy="776" r="3" fill="#8667A5" id="Vector_735" />
</g>
<g id="Group_550">
<g id="Group_551">
<line x1="71" y1="768" x2="74" y2="762" stroke="#8667A5" stroke-width="1" stroke-linecap="round" id="Vector_736" />
</g>
<g id="Group_552">
<line x1="74" y1="776" x2="70" y2="767.5" stroke="#8667A5" stroke-width="1" stroke-linecap="round" id="Vector_737" />
</g>
<circle cx="74" cy="776" r="3" fill="#8667A5" id="Vector_738" />
<circle cx="71" cy="768" r="3" fill="#8667A5" id="Vector_739" />
<circle cx="73.5" cy="762.5" r="2" fill="#8667A5" id="Vector_740" />
</g>
</g>
<g id="Group_553">
<g id="Group_554">
<line x1="92" y1="808" x2="84.5" y2="812" stroke="#8667A5" stroke-width="1" stroke-linecap="round" id="Vector_741" />
</g>
<g id="Group_555">
<line x1="86" y1="803" x2="92" y2="809" stroke="#8667A5" stroke-width="1" stroke-linecap="round" id="Vector_742" />
</g>
<g id="Group_556">
<line x1="99.5" y1="804" x2="92" y2="808" stroke="#8667A5" stroke-width="1" stroke-linecap="round" id="Vector_743" />
</g>
<g id="Group_557">
<line x1="95" y1="814.5" x2="92" y2="809" stroke="#8667A5" stroke-width="1" stroke-linecap="round" id="Vector_744" />
</g>
<circle cx="94.5" cy="814" r="2" fill="#8667A5" id="Vector_745" />
<circle cx="91.5" cy="808" r="3" fill="#8667A5" id="Vector_746" />
<circle cx="100.5" cy="803.5" r="3" fill="#8667A5" id="Vector_747" />
<circle cx="102" cy="808" r="2" fill="#8667A5" id="Vector_748" />
<circle cx="103" cy="807" r="2" fill="#8667A5" id="Vector_749" />
<circle cx="103.5" cy="809" r="3" fill="#8667A5" id="Vector_750" />
<g id="Group_558">
<g id="Group_559">
<g id="Group_560">
<line x1="83" y1="820.5" x2="84.5" y2="814" stroke="#8667A5" stroke-width="1" stroke-linecap="round" id="Vector_751" />
</g>
<circle cx="83" cy="820" r="2" fill="#8667A5" id="Vector_752" />
</g>
<g id="Group_561">
<g id="Group_562">
<line x1="83" y1="812" x2="76.5" y2="812" stroke="#8667A5" stroke-width="1" stroke-linecap="round" id="Vector_753" />
</g>
<circle cx="77" cy="811" r="2" fill="#8667A5" id="Vector_754" />
</g>
<circle cx="84" cy="813" r="3" fill="#8667A5" id="Vector_755" />
</g>
<circle cx="85.5" cy="803" r="3" fill="#8667A5" id="Vector_756" />
</g>
</g>
</g>
</g>
</g>
</g></svg>