<?xml version='1.0' encoding='utf-8'?>
<svg xmlns="http://www.w3.org/2000/svg" width="120" height="117.5" viewBox="0 0 119.80400000000009 117.62543000000005"><g transform="translate(59.902000000000044, 58.812715000000026) rotate(-8.800711682239822) translate(-632.36, -31.463984999999997)"><g id="Frame_6">
<g id="Group_117">
<g id="Group_118">
<g id="Group_119">
<g id="Group_120">
<line x1="629.5" y1="23" x2="640" y2="31" stroke="#8667A5" stroke-width="2" stroke-linecap="round" id="Vector_176" />
</g>
<g id="Group_121">
<line x1="619.5" y1="14.5" x2="617.5" y2="26" stroke="#8667A5" stroke-width="2" stroke-linecap="round" id="Vector_177" />
</g>
<g id="Group_122">
<line x1="628.5" y1="23" x2="616.5" y2="26" stroke="#8667A5" stroke-width="2" stroke-linecap="round" id="Vector_178" />
</g>
<g id="Group_123">
<line x1="617" y1="26" x2="615" y2="39" stroke="#8667A5" stroke-width="2" stroke-linecap="round" id="Vector_179" />
</g>
<g id="Group_124">
<line x1="607" y1="24.5" x2="616.5" y2="25" stroke="#8667A5" stroke-width="2" stroke-linecap="round" id="Vector_180" />
</g>
<circle cx="608" cy="24" r="3" fill="#8667A5" id="Vector_181" />
<circle cx="618" cy="25.5" r="3" fill="#8667A5" id="Vector_182" />
<g id="Group_125">
<line x1="607" y1="58" x2="615" y2="53" stroke="#8667A5" stroke-width="2" stroke-linecap="round" id="Vector_183" />
</g>
<g id="Group_126">
<line x1="614" y1="53.5" x2="615" y2="41" stroke="#8667A5" stroke-width="2" stroke-linecap="round" id="Vector_184" />
</g>
<circle cx="614" cy="52" r="4" fill="#8667A5" id="Vector_185" />
<circle cx="608" cy="57.5" r="3" fill="#8667A5" id="Vector_186" />
<circle cx="615.5" cy="40.5" r="3" fill="#8667A5" id="Vector_187" />
<line x1="605" y1="37.5" x2="613" y2="40" stroke="#8667A5" stroke-width="3" stroke-linecap="round" id="Vector_188" />
<line x1="605" y1="39" x2="612.5" y2="41.5" stroke="#8667A5" stroke-width="3" stroke-linecap="round" id="Vector_189" />
<circle cx="606" cy="39" r="4" fill="#8667A5" id="Vector_190" />
<g id="Group_127">
<g id="Group_128">
<g id="Group_129">
<line x1="616.5" y1="12.5" x2="610" y2="5" stroke="#8667A5" stroke-width="2" stroke-linecap="round" id="Vector_191" />
</g>
<circle cx="611" cy="6" r="3" fill="#8667A5" id="Vector_192" />
</g>
<g id="Group_130">
<g id="Group_131">
<line x1="620" y1="12.5" x2="626" y2="5" stroke="#8667A5" stroke-width="2" stroke-linecap="round" id="Vector_193" />
</g>
<circle cx="625.5" cy="5.5" r="3" fill="#8667A5" id="Vector_194" />
</g>
<circle cx="618.5" cy="12.5" r="4" fill="#8667A5" id="Vector_195" />
</g>
<g id="Group_132">
<g id="Group_133">
<line x1="628.5" y1="33" x2="629" y2="24" stroke="#8667A5" stroke-width="2" stroke-linecap="round" id="Vector_196" />
</g>
<g id="Group_134">
<line x1="629" y1="21" x2="634.5" y2="14" stroke="#8667A5" stroke-width="2" stroke-linecap="round" id="Vector_197" />
</g>
<g id="Group_135">
<circle cx="633" cy="15.5" r="3" fill="#8667A5" id="Vector_198" />
</g>
<circle cx="628.5" cy="23" r="3" fill="#8667A5" id="Vector_199" />
<circle cx="628" cy="32" r="3" fill="#8667A5" id="Vector_200" />
</g>
<g id="Group_136">
<g id="Group_137">
<line x1="638.5" y1="29" x2="651" y2="25.5" stroke="#8667A5" stroke-width="2" stroke-linecap="round" id="Vector_201" />
</g>
<g id="Group_138">
<g id="Group_139">
<line x1="650" y1="24" x2="659" y2="32" stroke="#8667A5" stroke-width="2" stroke-linecap="round" id="Vector_202" />
</g>
<circle cx="650" cy="26" r="3" fill="#8667A5" id="Vector_203" />
<circle cx="653.5" cy="20" r="3" fill="#8667A5" id="Vector_204" />
<circle cx="655" cy="21" r="3" fill="#8667A5" id="Vector_205" />
<circle cx="656" cy="18" r="4" fill="#8667A5" id="Vector_206" />
<circle cx="658.5" cy="33" r="4" fill="#8667A5" id="Vector_207" />
</g>
</g>
<g id="Group_140">
<g id="Group_141">
<line x1="638.5" y1="30.5" x2="640" y2="39" stroke="#8667A5" stroke-width="2" stroke-linecap="round" id="Vector_208" />
</g>
<g id="Group_142">
<line x1="641" y1="22" x2="637.5" y2="30" stroke="#8667A5" stroke-width="2" stroke-linecap="round" id="Vector_209" />
</g>
<circle cx="641" cy="23" r="3" fill="#8667A5" id="Vector_210" />
<circle cx="638" cy="29.5" r="3" fill="#8667A5" id="Vector_211" />
<circle cx="640.5" cy="38.5" r="3" fill="#8667A5" id="Vector_212" />
</g>
</g>
</g>
</g>
</g>
</g></svg>