<?xml version='1.0' encoding='utf-8'?>
<svg xmlns="http://www.w3.org/2000/svg" width="112" height="125.5" viewBox="0 0 112.14299999999992 125.36799999999994"><g transform="translate(56.07149999999996, 62.68399999999997) rotate(-116.57674586350969) translate(-1024.2705, -786.439)"><g id="Frame_12">
<g id="Group_280">
<g id="Group_281">
<g id="Group_282">
<g id="Group_283">
<g id="Group_284">
<line x1="1024.5" y1="797.5" x2="1018.5" y2="806" stroke="#8667A5" stroke-width="1.5" stroke-linecap="round" id="Vector_407" />
</g>
<g id="Group_285">
<g id="Group_286">
<line x1="1018.5" y1="805.5" x2="1008.5" y2="807.5" stroke="#8667A5" stroke-width="1.5" stroke-linecap="round" id="Vector_408" />
</g>
<g id="Group_287">
<g id="Group_288">
<line x1="1017" y1="813" x2="1018" y2="807" stroke="#8667A5" stroke-width="1.5" stroke-linecap="round" id="Vector_409" />
</g>
<g id="Group_289">
<line x1="1025" y1="808" x2="1017.5" y2="806.5" stroke="#8667A5" stroke-width="1.5" stroke-linecap="round" id="Vector_410" />
</g>
<circle cx="1024" cy="808" r="2.5" fill="#8667A5" id="Vector_411" />
<circle cx="1018" cy="807" r="3.5" fill="#8667A5" id="Vector_412" />
<circle cx="1016" cy="813.5" r="2.5" fill="#8667A5" id="Vector_413" />
</g>
</g>
<g id="Group_290">
<g id="Group_291">
<g id="Group_292">
<line x1="1008.5" y1="807.5" x2="1001" y2="811" stroke="#8667A5" stroke-width="1.5" stroke-linecap="round" id="Vector_414" />
</g>
<circle cx="1002" cy="810.5" r="2.5" fill="#8667A5" id="Vector_415" />
</g>
<g id="Group_293">
<g id="Group_294">
<line x1="1009.5" y1="816" x2="1009.5" y2="808" stroke="#8667A5" stroke-width="1.5" stroke-linecap="round" id="Vector_416" />
</g>
<circle cx="1009.5" cy="815" r="2.5" fill="#8667A5" id="Vector_417" />
</g>
<g id="Group_295">
<g id="Group_296">
<line x1="1009.5" y1="807" x2="1007" y2="798" stroke="#8667A5" stroke-width="1.5" stroke-linecap="round" id="Vector_418" />
</g>
<circle cx="1008" cy="800" r="2.5" fill="#8667A5" id="Vector_419" />
</g>
<circle cx="1010" cy="807.5" r="4" fill="#8667A5" id="Vector_420" />
</g>
</g>
<g id="Group_297">
<line x1="1022.5" y1="788" x2="1024" y2="798" stroke="#8667A5" stroke-width="1.5" stroke-linecap="round" id="Vector_421" />
</g>
<g id="Group_298">
<g id="Group_299">
<line x1="1016" y1="797" x2="1023" y2="798" stroke="#8667A5" stroke-width="1.5" stroke-linecap="round" id="Vector_422" />
</g>
<g id="Group_300">
<line x1="1028.5" y1="802" x2="1023.5" y2="797.5" stroke="#8667A5" stroke-width="1.5" stroke-linecap="round" id="Vector_423" />
</g>
<circle cx="1028" cy="803" r="2.5" fill="#8667A5" id="Vector_424" />
<circle cx="1023" cy="798" r="3.5" fill="#8667A5" id="Vector_425" />
<circle cx="1016.5" cy="797" r="2.5" fill="#8667A5" id="Vector_426" />
</g>
<g id="Group_301">
<line x1="1028.5" y1="783" x2="1020" y2="788.5" stroke="#8667A5" stroke-width="1.5" stroke-linecap="round" id="Vector_427" />
</g>
<g id="Group_302">
<line x1="1029" y1="772.5" x2="1038" y2="777" stroke="#8667A5" stroke-width="1.5" stroke-linecap="round" id="Vector_428" />
</g>
<g id="Group_303">
<line x1="1029" y1="782" x2="1029.5" y2="772" stroke="#8667A5" stroke-width="1.5" stroke-linecap="round" id="Vector_429" />
</g>
<g id="Group_304">
<line x1="1029" y1="772.5" x2="1020" y2="768.5" stroke="#8667A5" stroke-width="1.5" stroke-linecap="round" id="Vector_430" />
</g>
<g id="Group_305">
<line x1="1030" y1="771" x2="1033" y2="765" stroke="#8667A5" stroke-width="1.5" stroke-linecap="round" id="Vector_431" />
</g>
<circle cx="1033" cy="766" r="2.5" fill="#8667A5" id="Vector_432" />
<circle cx="1030" cy="772" r="3.5" fill="#8667A5" id="Vector_433" />
<g id="Group_306">
<line x1="1009.5" y1="764" x2="1007.5" y2="757" stroke="#8667A5" stroke-width="1.5" stroke-linecap="round" id="Vector_434" />
</g>
<g id="Group_307">
<line x1="1018.5" y1="767" x2="1009.5" y2="762" stroke="#8667A5" stroke-width="1.5" stroke-linecap="round" id="Vector_435" />
</g>
<circle cx="1010" cy="763" r="3" fill="#8667A5" id="Vector_436" />
<circle cx="1008" cy="757.5" r="2.5" fill="#8667A5" id="Vector_437" />
<circle cx="1019" cy="767.5" r="3.5" fill="#8667A5" id="Vector_438" />
<circle cx="1022" cy="763" r="2.5" fill="#8667A5" id="Vector_439" />
<circle cx="1021" cy="762" r="2.5" fill="#8667A5" id="Vector_440" />
<circle cx="1022" cy="761" r="3" fill="#8667A5" id="Vector_441" />
<g id="Group_308">
<g id="Group_309">
<g id="Group_310">
<line x1="1047" y1="772.5" x2="1040" y2="775.5" stroke="#8667A5" stroke-width="1.5" stroke-linecap="round" id="Vector_442" />
</g>
<circle cx="1046.5" cy="772.5" r="2.5" fill="#8667A5" id="Vector_443" />
</g>
<g id="Group_311">
<g id="Group_312">
<line x1="1043.5" y1="785" x2="1039" y2="778" stroke="#8667A5" stroke-width="1.5" stroke-linecap="round" id="Vector_444" />
</g>
<circle cx="1043" cy="784" r="2.5" fill="#8667A5" id="Vector_445" />
</g>
<circle cx="1039.5" cy="777" r="4" fill="#8667A5" id="Vector_446" />
</g>
<g id="Group_313">
<g id="Group_314">
<line x1="1028" y1="782" x2="1021" y2="779.5" stroke="#8667A5" stroke-width="1.5" stroke-linecap="round" id="Vector_447" />
</g>
<g id="Group_315">
<line x1="1033" y1="787.5" x2="1029" y2="781" stroke="#8667A5" stroke-width="1.5" stroke-linecap="round" id="Vector_448" />
</g>
<circle cx="1032" cy="787" r="2.5" fill="#8667A5" id="Vector_449" />
<circle cx="1029" cy="782" r="3.5" fill="#8667A5" id="Vector_450" />
<circle cx="1021" cy="779" r="2.5" fill="#8667A5" id="Vector_451" />
</g>
<g id="Group_316">
<g id="Group_317">
<line x1="1013.5" y1="787.5" x2="1021" y2="787.5" stroke="#8667A5" stroke-width="1.5" stroke-linecap="round" id="Vector_452" />
</g>
<g id="Group_318">
<line x1="1027" y1="792" x2="1021" y2="787" stroke="#8667A5" stroke-width="1.5" stroke-linecap="round" id="Vector_453" />
</g>
<circle cx="1026" cy="791.5" r="2.5" fill="#8667A5" id="Vector_454" />
<circle cx="1022" cy="787.5" r="3.5" fill="#8667A5" id="Vector_455" />
<circle cx="1014" cy="787" r="2.5" fill="#8667A5" id="Vector_456" />
</g>
</g>
</g>
</g>
</g>
</g></svg>