<?xml version='1.0' encoding='utf-8'?>
<svg xmlns="http://www.w3.org/2000/svg" width="126" height="104" viewBox="0 0 125.75999999999999 104.97000000000014"><g transform="translate(62.879999999999995, 52.48500000000007) rotate(-171.1351870410865) translate(-632.364, -1065.165)"><g id="Frame_15">
<g id="Group_391">
<g id="Group_392">
<line x1="656" y1="1068.5" x2="660" y2="1073" stroke="#8667A5" stroke-width="2" stroke-linecap="round" id="Vector_546" />
<g id="Group_393">
<circle cx="661" cy="1073" r="3" fill="#8667A5" id="Vector_547" />
</g>
</g>
<g id="Group_394">
<g id="Group_395">
<line x1="659" y1="1059" x2="656" y2="1066" stroke="#8667A5" stroke-width="2" stroke-linecap="round" id="Vector_548" />
</g>
<circle cx="658" cy="1060.5" r="3" fill="#8667A5" id="Vector_549" />
</g>
<g id="Group_396">
<line x1="646" y1="1057" x2="633" y2="1059" stroke="#8667A5" stroke-width="2" stroke-linecap="round" id="Vector_550" />
</g>
<g id="Group_397">
<line x1="635" y1="1072.5" x2="643" y2="1076.5" stroke="#8667A5" stroke-width="2" stroke-linecap="round" id="Vector_551" />
</g>
<g id="Group_398">
<line x1="635.5" y1="1058.5" x2="633" y2="1070" stroke="#8667A5" stroke-width="2" stroke-linecap="round" id="Vector_552" />
</g>
<g id="Group_399">
<line x1="647.5" y1="1055" x2="654" y2="1065.5" stroke="#8667A5" stroke-width="2" stroke-linecap="round" id="Vector_553" />
</g>
<g id="Group_400">
<line x1="634.5" y1="1059" x2="623" y2="1061" stroke="#8667A5" stroke-width="2" stroke-linecap="round" id="Vector_554" />
</g>
<g id="Group_401">
<line x1="633" y1="1049" x2="635" y2="1057.5" stroke="#8667A5" stroke-width="2" stroke-linecap="round" id="Vector_555" />
</g>
<circle cx="634" cy="1050" r="3" fill="#8667A5" id="Vector_556" />
<circle cx="635" cy="1059" r="4" fill="#8667A5" id="Vector_557" />
<g id="Group_402">
<line x1="610" y1="1064" x2="603" y2="1059" stroke="#8667A5" stroke-width="2" stroke-linecap="round" id="Vector_558" />
</g>
<g id="Group_403">
<line x1="621" y1="1061" x2="608" y2="1063.5" stroke="#8667A5" stroke-width="2" stroke-linecap="round" id="Vector_559" />
</g>
<circle cx="609" cy="1063" r="3.5" fill="#8667A5" id="Vector_560" />
<circle cx="603.5" cy="1059" r="3" fill="#8667A5" id="Vector_561" />
<circle cx="621" cy="1061" r="4" fill="#8667A5" id="Vector_562" />
<line x1="621" y1="1051" x2="621" y2="1058.5" stroke="#8667A5" stroke-width="2.5" stroke-linecap="round" id="Vector_563" />
<line x1="619" y1="1051" x2="619.5" y2="1059" stroke="#8667A5" stroke-width="2.5" stroke-linecap="round" id="Vector_564" />
<circle cx="620" cy="1052.5" r="3.5" fill="#8667A5" id="Vector_565" />
<g id="Group_404">
<g id="Group_405">
<g id="Group_406">
<line x1="652" y1="1046" x2="647" y2="1053" stroke="#8667A5" stroke-width="2" stroke-linecap="round" id="Vector_566" />
</g>
<circle cx="651" cy="1047" r="3" fill="#8667A5" id="Vector_567" />
</g>
<circle cx="647" cy="1056" r="4" fill="#8667A5" id="Vector_568" />
</g>
<g id="Group_407">
<line x1="647" y1="1075" x2="656" y2="1066" stroke="#8667A5" stroke-width="2" stroke-linecap="round" id="Vector_569" />
</g>
<circle cx="654" cy="1067.5" r="4" fill="#8667A5" id="Vector_570" />
<g id="Group_408">
<g id="Group_409">
<line x1="633.5" y1="1072.5" x2="626" y2="1069" stroke="#8667A5" stroke-width="2" stroke-linecap="round" id="Vector_571" />
</g>
<g id="Group_410">
<line x1="632.5" y1="1071.5" x2="636" y2="1079" stroke="#8667A5" stroke-width="2" stroke-linecap="round" id="Vector_572" />
</g>
<circle cx="636" cy="1079" r="3" fill="#8667A5" id="Vector_573" />
<circle cx="633" cy="1072" r="4" fill="#8667A5" id="Vector_574" />
<circle cx="626.5" cy="1069" r="3" fill="#8667A5" id="Vector_575" />
</g>
<g id="Group_411">
<g id="Group_412">
<line x1="646.5" y1="1077" x2="642" y2="1084" stroke="#8667A5" stroke-width="2" stroke-linecap="round" id="Vector_576" />
</g>
<g id="Group_413">
<line x1="645" y1="1077" x2="653" y2="1080" stroke="#8667A5" stroke-width="2" stroke-linecap="round" id="Vector_577" />
</g>
<circle cx="651" cy="1081" r="3" fill="#8667A5" id="Vector_578" />
<circle cx="646" cy="1078" r="4" fill="#8667A5" id="Vector_579" />
<circle cx="642" cy="1083.5" r="3" fill="#8667A5" id="Vector_580" />
</g>
</g>
</g>
</g></svg>