<?xml version='1.0' encoding='utf-8'?>
<svg xmlns="http://www.w3.org/2000/svg" width="107.5" height="124" viewBox="0 0 107.64669999999998 123.78999999999996"><g transform="translate(53.82334999999999, 61.89499999999998) rotate(-261.0066908862101) translate(-36.06175, -631.8695)"><g id="Frame_20">
<g id="Group_563">
<g id="Group_564">
<g id="Group_565">
<line x1="43" y1="603" x2="37.5" y2="611" stroke="#8667A5" stroke-width="2" stroke-linecap="round" id="Vector_757" />
</g>
<g id="Group_566">
<line x1="41" y1="622.5" x2="38" y2="609.5" stroke="#8667A5" stroke-width="2" stroke-linecap="round" id="Vector_758" />
</g>
<circle cx="39" cy="611" r="4" fill="#8667A5" id="Vector_759" />
<circle cx="43" cy="604" r="3" fill="#8667A5" id="Vector_760" />
</g>
<g id="Group_567">
<g id="Group_568">
<line x1="38" y1="648.5" x2="33" y2="641" stroke="#8667A5" stroke-width="2" stroke-linecap="round" id="Vector_761" />
</g>
<circle cx="37.5" cy="648" r="3" fill="#8667A5" id="Vector_762" />
</g>
<g id="Group_569">
<line x1="45" y1="648" x2="43" y2="635" stroke="#8667A5" stroke-width="2" stroke-linecap="round" id="Vector_763" />
</g>
<g id="Group_570">
<line x1="44" y1="635" x2="33" y2="642" stroke="#8667A5" stroke-width="2" stroke-linecap="round" id="Vector_764" />
</g>
<g id="Group_571">
<line x1="43" y1="635.5" x2="40.5" y2="623" stroke="#8667A5" stroke-width="2" stroke-linecap="round" id="Vector_765" />
</g>
<g id="Group_572">
<line x1="44.5" y1="636" x2="53.5" y2="634" stroke="#8667A5" stroke-width="2" stroke-linecap="round" id="Vector_766" />
</g>
<circle cx="53" cy="634.5" r="3" fill="#8667A5" id="Vector_767" />
<circle cx="43" cy="636" r="4" fill="#8667A5" id="Vector_768" />
<circle cx="40.5" cy="621" r="4" fill="#8667A5" id="Vector_769" />
<line x1="52" y1="620.5" x2="43" y2="621" stroke="#8667A5" stroke-width="2.5" stroke-linecap="round" id="Vector_770" />
<line x1="51.5" y1="619" x2="43" y2="619" stroke="#8667A5" stroke-width="2.5" stroke-linecap="round" id="Vector_771" />
<circle cx="49" cy="619.5" r="4" fill="#8667A5" id="Vector_772" />
<g id="Group_573">
<g id="Group_574">
<g id="Group_575">
<line x1="57" y1="654" x2="48" y2="649" stroke="#8667A5" stroke-width="2" stroke-linecap="round" id="Vector_773" />
</g>
<circle cx="56" cy="653.5" r="3" fill="#8667A5" id="Vector_774" />
</g>
<g id="Group_576">
<g id="Group_577">
<line x1="41" y1="659.5" x2="45" y2="650" stroke="#8667A5" stroke-width="2" stroke-linecap="round" id="Vector_775" />
</g>
<circle cx="42" cy="658.5" r="3" fill="#8667A5" id="Vector_776" />
</g>
<circle cx="46" cy="649" r="4.5" fill="#8667A5" id="Vector_777" />
</g>
<g id="Group_578">
<g id="Group_579">
<line x1="29.5" y1="651" x2="33" y2="642.5" stroke="#8667A5" stroke-width="2" stroke-linecap="round" id="Vector_778" />
</g>
<g id="Group_580">
<line x1="27" y1="649" x2="22" y2="646" stroke="#8667A5" stroke-width="2" stroke-linecap="round" id="Vector_779" />
</g>
<circle cx="29.5" cy="651.5" r="4" fill="#8667A5" id="Vector_780" />
<circle cx="21" cy="645" r="3" fill="#8667A5" id="Vector_781" />
<g id="Group_581">
<line x1="30.5" y1="654" x2="34.5" y2="661.5" stroke="#8667A5" stroke-width="2" stroke-linecap="round" id="Vector_782" />
</g>
<circle cx="33.5" cy="660" r="3" fill="#8667A5" id="Vector_783" />
<circle cx="25" cy="653" r="3" fill="#8667A5" id="Vector_784" />
<circle cx="22" cy="655" r="3" fill="#8667A5" id="Vector_785" />
</g>
<g id="Group_582">
<g id="Group_583">
<line x1="34" y1="643" x2="26" y2="638" stroke="#8667A5" stroke-width="2" stroke-linecap="round" id="Vector_786" />
</g>
<g id="Group_584">
<line x1="27" y1="635" x2="32.5" y2="631" stroke="#8667A5" stroke-width="2" stroke-linecap="round" id="Vector_787" />
</g>
<circle cx="25" cy="636.5" r="4" fill="#8667A5" id="Vector_788" />
<circle cx="33" cy="630" r="3" fill="#8667A5" id="Vector_789" />
<g id="Group_585">
<line x1="14" y1="639" x2="22.5" y2="637" stroke="#8667A5" stroke-width="2" stroke-linecap="round" id="Vector_790" />
</g>
<circle cx="16" cy="638.5" r="3" fill="#8667A5" id="Vector_791" />
<line x1="23" y1="628" x2="25" y2="635" stroke="#8667A5" stroke-width="3" stroke-linecap="round" id="Vector_792" />
<circle cx="24" cy="628.5" r="3" fill="#8667A5" id="Vector_793" />
</g>
<circle cx="33" cy="642.5" r="4" fill="#8667A5" id="Vector_794" />
</g>
</g>
</g></svg>