<?xml version='1.0' encoding='utf-8'?>
<svg xmlns="http://www.w3.org/2000/svg" width="129" height="135" viewBox="0 0 129.137 134.74599999999998"><g transform="translate(64.5685, 67.37299999999999) rotate(-62.54190067218795) translate(-1013.6279999999999, -310.35249999999996)"><g id="Frame_9">
<g id="Group_187">
<g id="Group_188">
<g id="Group_189">
<g id="Group_190">
<g id="Group_191">
<line x1="984.5" y1="303.5" x2="992" y2="306" stroke="#8667A5" stroke-width="1.5" stroke-linecap="round" id="Vector_274" />
</g>
<g id="Group_192">
<line x1="991" y1="306" x2="1001" y2="300.5" stroke="#8667A5" stroke-width="1.5" stroke-linecap="round" id="Vector_275" />
</g>
<circle cx="992" cy="305" r="3.5" fill="#8667A5" id="Vector_276" />
<circle cx="985.5" cy="304" r="2.5" fill="#8667A5" id="Vector_277" />
</g>
<g id="Group_193">
<line x1="1020.5" y1="303" x2="1021" y2="311.5" stroke="#8667A5" stroke-width="1.5" stroke-linecap="round" id="Vector_278" />
</g>
<g id="Group_194">
<line x1="1012.5" y1="323" x2="1021.5" y2="334.5" stroke="#8667A5" stroke-width="2" stroke-linecap="round" id="Vector_279" />
</g>
<g id="Group_195">
<g id="Group_196">
<line x1="1033" y1="329" x2="1022" y2="333" stroke="#8667A5" stroke-width="1" stroke-linecap="round" id="Vector_280" />
</g>
<g id="Group_197">
<line x1="1023" y1="335" x2="1034" y2="331" stroke="#8667A5" stroke-width="1" stroke-linecap="round" id="Vector_281" />
</g>
</g>
<g id="Group_198">
<g id="Group_199">
<line x1="1018" y1="315" x2="1012" y2="324.5" stroke="#8667A5" stroke-width="1" stroke-linecap="round" id="Vector_282" />
</g>
<g id="Group_200">
<line x1="1014" y1="326" x2="1019" y2="316" stroke="#8667A5" stroke-width="1" stroke-linecap="round" id="Vector_283" />
</g>
</g>
<g id="Group_201">
<g id="Group_202">
<line x1="1028" y1="297" x2="1020.5" y2="300" stroke="#8667A5" stroke-width="1.5" stroke-linecap="round" id="Vector_284" />
</g>
<circle cx="1027.5" cy="297.5" r="2.5" fill="#8667A5" id="Vector_285" />
</g>
<g id="Group_203">
<g id="Group_204">
<line x1="1018" y1="303" x2="1013" y2="305.5" stroke="#8667A5" stroke-width="1.5" stroke-linecap="round" id="Vector_286" />
</g>
<circle cx="1015" cy="305" r="2.5" fill="#8667A5" id="Vector_287" />
</g>
<g id="Group_205">
<line x1="1012" y1="295" x2="1021.5" y2="290" stroke="#8667A5" stroke-width="1.5" stroke-linecap="round" id="Vector_288" />
</g>
<g id="Group_206">
<line x1="1020" y1="301" x2="1012" y2="294" stroke="#8667A5" stroke-width="1.5" stroke-linecap="round" id="Vector_289" />
</g>
<g id="Group_207">
<line x1="1012" y1="294.5" x2="1002.5" y2="299" stroke="#8667A5" stroke-width="1.5" stroke-linecap="round" id="Vector_290" />
</g>
<g id="Group_208">
<line x1="1008" y1="286.5" x2="1012" y2="293" stroke="#8667A5" stroke-width="1.5" stroke-linecap="round" id="Vector_291" />
</g>
<circle cx="1009" cy="287" r="2.5" fill="#8667A5" id="Vector_292" />
<circle cx="1013" cy="294.5" r="4" fill="#8667A5" id="Vector_293" />
<circle cx="1001" cy="300.5" r="4" fill="#8667A5" id="Vector_294" />
<circle cx="998" cy="295" r="3" fill="#8667A5" id="Vector_295" />
<circle cx="998" cy="295.5" r="3" fill="#8667A5" id="Vector_296" />
<circle cx="997" cy="293" r="3.5" fill="#8667A5" id="Vector_297" />
<g id="Group_209">
<g id="Group_210">
<g id="Group_211">
<line x1="1023.5" y1="278.5" x2="1021.5" y2="287" stroke="#8667A5" stroke-width="1.5" stroke-linecap="round" id="Vector_298" />
</g>
<circle cx="1023" cy="279.5" r="3" fill="#8667A5" id="Vector_299" />
</g>
<g id="Group_212">
<g id="Group_213">
<line x1="1023.5" y1="289.5" x2="1032" y2="289.5" stroke="#8667A5" stroke-width="1.5" stroke-linecap="round" id="Vector_300" />
</g>
<circle cx="1031" cy="289.5" r="3" fill="#8667A5" id="Vector_301" />
</g>
<circle cx="1022.5" cy="288" r="4" fill="#8667A5" id="Vector_302" />
</g>
<circle cx="1020.5" cy="301" r="4" fill="#8667A5" id="Vector_303" />
<g id="Group_214">
<line x1="1020" y1="313.5" x2="1034" y2="318" stroke="#8667A5" stroke-width="2" stroke-linecap="round" id="Vector_304" />
</g>
<g id="Group_215">
<line x1="1032" y1="317" x2="1034.5" y2="328.5" stroke="#8667A5" stroke-width="2" stroke-linecap="round" id="Vector_305" />
</g>
<g id="Group_216">
<g id="Group_217">
<line x1="1037" y1="311" x2="1031" y2="317" stroke="#8667A5" stroke-width="1.5" stroke-linecap="round" id="Vector_306" />
</g>
<circle cx="1036" cy="311.5" r="3" fill="#8667A5" id="Vector_307" />
</g>
<g id="Group_218">
<g id="Group_219">
<line x1="1022" y1="333.5" x2="1021.5" y2="342" stroke="#8667A5" stroke-width="1.5" stroke-linecap="round" id="Vector_308" />
</g>
<circle cx="1022" cy="341" r="3" fill="#8667A5" id="Vector_309" />
</g>
<circle cx="1031" cy="317" r="4" fill="#8667A5" id="Vector_310" />
<g id="Group_220">
<g id="Group_221">
<g id="Group_222">
<line x1="1014" y1="324" x2="1007" y2="320" stroke="#8667A5" stroke-width="1.5" stroke-linecap="round" id="Vector_311" />
</g>
<circle cx="1007.5" cy="319" r="3" fill="#8667A5" id="Vector_312" />
</g>
<circle cx="1013.5" cy="324" r="4" fill="#8667A5" id="Vector_313" />
</g>
<g id="Group_223">
<g id="Group_224">
<g id="Group_225">
<line x1="1034" y1="328" x2="1042.5" y2="330" stroke="#8667A5" stroke-width="1.5" stroke-linecap="round" id="Vector_314" />
</g>
<circle cx="1042" cy="330" r="3" fill="#8667A5" id="Vector_315" />
</g>
<circle cx="1035" cy="329" r="4" fill="#8667A5" id="Vector_316" />
</g>
<circle cx="1022" cy="334" r="4" fill="#8667A5" id="Vector_317" />
<circle cx="1020" cy="313" r="4" fill="#8667A5" id="Vector_318" />
</g>
</g>
</g>
</g>
</g></svg>