<?xml version='1.0' encoding='utf-8'?>
<svg xmlns="http://www.w3.org/2000/svg" width="97" height="101" viewBox="0 0 96.87099999999995 100.93"><g transform="translate(48.435499999999976, 50.465) rotate(-44.60417018269746) translate(-916.9, -180.2785)"><g id="Frame_8">
<g id="Group_173">
<g id="Group_174">
<g id="Group_175">
<line x1="937" y1="193" x2="937" y2="204" stroke="#8667A5" stroke-width="2" stroke-linecap="round" id="Vector_254" />
</g>
<g id="Group_176">
<line x1="937" y1="195" x2="928" y2="186.5" stroke="#8667A5" stroke-width="2" stroke-linecap="round" id="Vector_255" />
</g>
<circle cx="936" cy="195" r="4" fill="#8667A5" id="Vector_256" />
<circle cx="936" cy="202.5" r="3" fill="#8667A5" id="Vector_257" />
</g>
<g id="Group_177">
<g id="Group_178">
<line x1="918" y1="175" x2="925" y2="169" stroke="#8667A5" stroke-width="2" stroke-linecap="round" id="Vector_258" />
</g>
<circle cx="923.5" cy="170" r="3" fill="#8667A5" id="Vector_259" />
</g>
<g id="Group_179">
<line x1="909" y1="168.5" x2="918" y2="177.5" stroke="#8667A5" stroke-width="2" stroke-linecap="round" id="Vector_260" />
</g>
<g id="Group_180">
<line x1="927" y1="186" x2="917.5" y2="177" stroke="#8667A5" stroke-width="2" stroke-linecap="round" id="Vector_261" />
</g>
<g id="Group_181">
<line x1="916" y1="177.5" x2="909.5" y2="184" stroke="#8667A5" stroke-width="2" stroke-linecap="round" id="Vector_262" />
</g>
<circle cx="910" cy="183" r="3" fill="#8667A5" id="Vector_263" />
<circle cx="917" cy="176.5" r="4" fill="#8667A5" id="Vector_264" />
<circle cx="928" cy="187" r="4" fill="#8667A5" id="Vector_265" />
<circle cx="922.5" cy="191.5" r="3" fill="#8667A5" id="Vector_266" />
<circle cx="924" cy="193" r="3" fill="#8667A5" id="Vector_267" />
<circle cx="921" cy="194" r="4" fill="#8667A5" id="Vector_268" />
<g id="Group_182">
<g id="Group_183">
<g id="Group_184">
<line x1="905.5" y1="169.5" x2="895.5" y2="170" stroke="#8667A5" stroke-width="2" stroke-linecap="round" id="Vector_269" />
</g>
<circle cx="897" cy="170" r="3" fill="#8667A5" id="Vector_270" />
</g>
<g id="Group_185">
<g id="Group_186">
<line x1="908" y1="166.5" x2="905" y2="156" stroke="#8667A5" stroke-width="2" stroke-linecap="round" id="Vector_271" />
</g>
<circle cx="905" cy="158" r="3" fill="#8667A5" id="Vector_272" />
</g>
<circle cx="907" cy="168" r="4.5" fill="#8667A5" id="Vector_273" />
</g>
</g>
</g>
</g></svg>