<?xml version='1.0' encoding='utf-8'?>
<svg xmlns="http://www.w3.org/2000/svg" width="127" height="134.5" viewBox="0 0 126.726 134.42399999999998"><g transform="translate(63.363, 67.21199999999999) rotate(-134.25725014234627) translate(-928.99, -917.501)"><g id="Frame_13">
<g id="Group_319">
<g id="Group_320">
<g id="Group_321">
<g id="Group_322">
<line x1="931" y1="921.5" x2="925" y2="916" stroke="#8667A5" stroke-width="2" stroke-linecap="round" id="Vector_457" />
</g>
<g id="Group_323">
<line x1="944.5" y1="920" x2="936" y2="911" stroke="#8667A5" stroke-width="2" stroke-linecap="round" id="Vector_458" />
</g>
<g id="Group_324">
<line x1="920" y1="935.5" x2="919" y2="926.5" stroke="#8667A5" stroke-width="2" stroke-linecap="round" id="Vector_459" />
</g>
<g id="Group_325">
<line x1="933" y1="922" x2="937" y2="911" stroke="#8667A5" stroke-width="2" stroke-linecap="round" id="Vector_460" />
</g>
<g id="Group_326">
<line x1="927.5" y1="903.5" x2="936.5" y2="911.5" stroke="#8667A5" stroke-width="2" stroke-linecap="round" id="Vector_461" />
</g>
<g id="Group_327">
<line x1="938" y1="911" x2="943.5" y2="905" stroke="#8667A5" stroke-width="2" stroke-linecap="round" id="Vector_462" />
</g>
<circle cx="943" cy="905.5" r="3" fill="#8667A5" id="Vector_463" />
<circle cx="937" cy="912" r="4" fill="#8667A5" id="Vector_464" />
<g id="Group_328">
<g id="Group_329">
<line x1="917.5" y1="895" x2="918" y2="885.5" stroke="#8667A5" stroke-width="2" stroke-linecap="round" id="Vector_465" />
</g>
<g id="Group_330">
<line x1="925" y1="901.5" x2="916" y2="893.5" stroke="#8667A5" stroke-width="2" stroke-linecap="round" id="Vector_466" />
</g>
<circle cx="918.5" cy="894" r="4" fill="#8667A5" id="Vector_467" />
<circle cx="918" cy="886.5" r="3" fill="#8667A5" id="Vector_468" />
</g>
<circle cx="926.5" cy="902" r="4" fill="#8667A5" id="Vector_469" />
<circle cx="932" cy="898" r="3" fill="#8667A5" id="Vector_470" />
<circle cx="930.5" cy="897" r="3" fill="#8667A5" id="Vector_471" />
<circle cx="933" cy="895.5" r="4" fill="#8667A5" id="Vector_472" />
<g id="Group_331">
<g id="Group_332">
<g id="Group_333">
<line x1="947.5" y1="918.5" x2="957" y2="918" stroke="#8667A5" stroke-width="2" stroke-linecap="round" id="Vector_473" />
</g>
<circle cx="956" cy="918" r="3" fill="#8667A5" id="Vector_474" />
</g>
<g id="Group_334">
<g id="Group_335">
<line x1="948" y1="930.5" x2="945.5" y2="921.5" stroke="#8667A5" stroke-width="2" stroke-linecap="round" id="Vector_475" />
</g>
<circle cx="948" cy="929.5" r="3" fill="#8667A5" id="Vector_476" />
</g>
<circle cx="946.5" cy="920" r="4" fill="#8667A5" id="Vector_477" />
</g>
<g id="Group_336">
<line x1="908" y1="938" x2="905" y2="933" stroke="#8667A5" stroke-width="2" stroke-linecap="round" id="Vector_478" />
</g>
<g id="Group_337">
<line x1="921" y1="935.5" x2="909.5" y2="940" stroke="#8667A5" stroke-width="2" stroke-linecap="round" id="Vector_479" />
</g>
<circle cx="910" cy="940" r="4" fill="#8667A5" id="Vector_480" />
<circle cx="904" cy="932" r="3" fill="#8667A5" id="Vector_481" />
<g id="Group_338">
<line x1="911" y1="950" x2="910" y2="942" stroke="#8667A5" stroke-width="2" stroke-linecap="round" id="Vector_482" />
</g>
<circle cx="910.5" cy="948.5" r="3" fill="#8667A5" id="Vector_483" />
<line x1="901" y1="941" x2="907" y2="939.5" stroke="#8667A5" stroke-width="2" stroke-linecap="round" id="Vector_484" />
<circle cx="901" cy="940.5" r="3" fill="#8667A5" id="Vector_485" />
<g id="Group_339">
<line x1="933" y1="921" x2="935" y2="929.5" stroke="#8667A5" stroke-width="2" stroke-linecap="round" id="Vector_486" />
</g>
<g id="Group_340">
<line x1="920.5" y1="924" x2="932" y2="923" stroke="#8667A5" stroke-width="2" stroke-linecap="round" id="Vector_487" />
</g>
<circle cx="934.5" cy="929" r="3" fill="#8667A5" id="Vector_488" />
<circle cx="933" cy="922" r="4" fill="#8667A5" id="Vector_489" />
<circle cx="920" cy="935.5" r="4" fill="#8667A5" id="Vector_490" />
<circle cx="926" cy="916.5" r="3" fill="#8667A5" id="Vector_491" />
<g id="Group_341">
<line x1="918" y1="925" x2="909" y2="926" stroke="#8667A5" stroke-width="2" stroke-linecap="round" id="Vector_492" />
</g>
<circle cx="910" cy="925.5" r="3" fill="#8667A5" id="Vector_493" />
<circle cx="916.5" cy="919.5" r="3" fill="#8667A5" id="Vector_494" />
<circle cx="918" cy="924" r="4" fill="#8667A5" id="Vector_495" />
</g>
</g>
</g>
</g>
</g></svg>