<?xml version='1.0' encoding='utf-8'?>
<svg xmlns="http://www.w3.org/2000/svg" width="103" height="128" viewBox="0 0 102.73060000000001 128.32600000000002"><g transform="translate(51.365300000000005, 64.16300000000001) rotate(63.5966200458428) translate(-76.1622, -313.9405)"><g id="Frame_2">
<g id="Group_17">
<g id="Group_18">
<g id="Group_19">
<g id="Group_20">
<line x1="84" y1="302" x2="79" y2="308" stroke="#8667A5" stroke-width="1" stroke-linecap="round" id="Vector_27" />
</g>
<g id="Group_21">
<line x1="82" y1="296" x2="84" y2="304.5" stroke="#8667A5" stroke-width="1" stroke-linecap="round" id="Vector_28" />
</g>
<g id="Group_22">
<line x1="88" y1="289.5" x2="83" y2="296" stroke="#8667A5" stroke-width="1" stroke-linecap="round" id="Vector_29" />
</g>
<g id="Group_23">
<circle cx="79" cy="294.5" r="2" fill="#8667A5" id="Vector_30" />
<circle cx="80" cy="293.5" r="2" fill="#8667A5" id="Vector_31" />
<circle cx="83" cy="295.5" r="3" fill="#8667A5" id="Vector_32" />
</g>
<g id="Group_24">
<g id="Group_25">
<g id="Group_26">
<line x1="89" y1="283" x2="87.5" y2="290" stroke="#8667A5" stroke-width="1" stroke-linecap="round" id="Vector_33" />
</g>
<circle cx="88.5" cy="283" r="2" fill="#8667A5" id="Vector_34" />
</g>
<g id="Group_27">
<g id="Group_28">
<line x1="88.5" y1="291" x2="94" y2="295" stroke="#8667A5" stroke-width="1" stroke-linecap="round" id="Vector_35" />
</g>
<circle cx="93" cy="294.5" r="2" fill="#8667A5" id="Vector_36" />
</g>
<circle cx="88" cy="291" r="3" fill="#8667A5" id="Vector_37" />
</g>
<g id="Group_29">
<g id="Group_30">
<g id="Group_31">
<line x1="69" y1="296.5" x2="76" y2="293.5" stroke="#8667A5" stroke-width="1" stroke-linecap="round" id="Vector_38" />
</g>
<circle cx="71" cy="296" r="2" fill="#8667A5" id="Vector_39" />
</g>
<g id="Group_32">
<g id="Group_33">
<line x1="76" y1="285" x2="76.5" y2="292" stroke="#8667A5" stroke-width="1" stroke-linecap="round" id="Vector_40" />
</g>
<circle cx="76" cy="286" r="2" fill="#8667A5" id="Vector_41" />
</g>
<circle cx="76.5" cy="292.5" r="3" fill="#8667A5" id="Vector_42" />
</g>
<g id="Group_34">
<line x1="78" y1="309.5" x2="79" y2="318" stroke="#8667A5" stroke-width="1" stroke-linecap="round" id="Vector_43" />
</g>
<g id="Group_35">
<g id="Group_36">
<line x1="79" y1="310" x2="85" y2="310.5" stroke="#8667A5" stroke-width="1" stroke-linecap="round" id="Vector_44" />
</g>
<g id="Group_37">
<line x1="74" y1="306" x2="78" y2="310" stroke="#8667A5" stroke-width="1" stroke-linecap="round" id="Vector_45" />
</g>
<circle cx="74.5" cy="306" r="2" fill="#8667A5" id="Vector_46" />
<circle cx="77" cy="309.5" r="3" fill="#8667A5" id="Vector_47" />
<circle cx="84" cy="310.5" r="2" fill="#8667A5" id="Vector_48" />
</g>
<g id="Group_38">
<line x1="74" y1="323" x2="81" y2="318" stroke="#8667A5" stroke-width="1" stroke-linecap="round" id="Vector_49" />
</g>
<g id="Group_39">
<line x1="73" y1="331.5" x2="66" y2="327.5" stroke="#8667A5" stroke-width="1" stroke-linecap="round" id="Vector_50" />
</g>
<g id="Group_40">
<line x1="73" y1="331" x2="74" y2="323.5" stroke="#8667A5" stroke-width="1" stroke-linecap="round" id="Vector_51" />
</g>
<g id="Group_41">
<line x1="73.5" y1="331" x2="81" y2="335" stroke="#8667A5" stroke-width="1" stroke-linecap="round" id="Vector_52" />
</g>
<g id="Group_42">
<line x1="70" y1="337.5" x2="72.5" y2="332" stroke="#8667A5" stroke-width="1" stroke-linecap="round" id="Vector_53" />
</g>
<circle cx="70" cy="337" r="2" fill="#8667A5" id="Vector_54" />
<circle cx="73" cy="330" r="3" fill="#8667A5" id="Vector_55" />
<g id="Group_43">
<line x1="90" y1="338.5" x2="92" y2="345" stroke="#8667A5" stroke-width="1" stroke-linecap="round" id="Vector_56" />
</g>
<g id="Group_44">
<line x1="90" y1="339.5" x2="82.5" y2="336" stroke="#8667A5" stroke-width="1" stroke-linecap="round" id="Vector_57" />
</g>
<circle cx="89.5" cy="339" r="3" fill="#8667A5" id="Vector_58" />
<circle cx="91.5" cy="343" r="2" fill="#8667A5" id="Vector_59" />
<circle cx="82" cy="335.5" r="3" fill="#8667A5" id="Vector_60" />
<circle cx="80" cy="339.5" r="2" fill="#8667A5" id="Vector_61" />
<circle cx="81" cy="340" r="2" fill="#8667A5" id="Vector_62" />
<circle cx="79.5" cy="341" r="3" fill="#8667A5" id="Vector_63" />
<g id="Group_45">
<g id="Group_46">
<g id="Group_47">
<line x1="64.5" y1="329" x2="58" y2="331.5" stroke="#8667A5" stroke-width="1" stroke-linecap="round" id="Vector_64" />
</g>
<circle cx="58" cy="331" r="2" fill="#8667A5" id="Vector_65" />
</g>
<g id="Group_48">
<g id="Group_49">
<line x1="65" y1="326.5" x2="61.5" y2="321" stroke="#8667A5" stroke-width="1" stroke-linecap="round" id="Vector_66" />
</g>
<circle cx="62" cy="322" r="2" fill="#8667A5" id="Vector_67" />
</g>
<circle cx="65" cy="328" r="3" fill="#8667A5" id="Vector_68" />
</g>
<g id="Group_50">
<g id="Group_51">
<line x1="74.5" y1="323.5" x2="80" y2="325.5" stroke="#8667A5" stroke-width="1" stroke-linecap="round" id="Vector_69" />
</g>
<g id="Group_52">
<line x1="70.5" y1="319" x2="74" y2="324" stroke="#8667A5" stroke-width="1" stroke-linecap="round" id="Vector_70" />
</g>
<circle cx="71" cy="319" r="2" fill="#8667A5" id="Vector_71" />
<circle cx="74" cy="323.5" r="3" fill="#8667A5" id="Vector_72" />
<circle cx="80" cy="325.5" r="2" fill="#8667A5" id="Vector_73" />
</g>
<g id="Group_53">
<g id="Group_54">
<line x1="87" y1="319" x2="80.5" y2="318.5" stroke="#8667A5" stroke-width="1" stroke-linecap="round" id="Vector_74" />
</g>
<g id="Group_55">
<line x1="80" y1="319" x2="75.5" y2="315" stroke="#8667A5" stroke-width="1" stroke-linecap="round" id="Vector_75" />
</g>
<circle cx="76" cy="315" r="2" fill="#8667A5" id="Vector_76" />
<circle cx="80" cy="318.5" r="3" fill="#8667A5" id="Vector_77" />
<circle cx="86" cy="319" r="2" fill="#8667A5" id="Vector_78" />
</g>
<g id="Group_56">
<g id="Group_57">
<g id="Group_58">
<line x1="91.5" y1="304" x2="84" y2="303" stroke="#8667A5" stroke-width="1" stroke-linecap="round" id="Vector_79" />
</g>
<circle cx="91" cy="304" r="2" fill="#8667A5" id="Vector_80" />
</g>
<circle cx="84.5" cy="302" r="3" fill="#8667A5" id="Vector_81" />
</g>
</g>
</g>
</g>
</g>
</g></svg>