<?xml version='1.0' encoding='utf-8'?>
<svg xmlns="http://www.w3.org/2000/svg" width="96" height="115" viewBox="0 0 95.87649999999998 115.33399999999995"><g transform="translate(47.93824999999999, 57.66699999999997) rotate(81.14713634356195) translate(-34.42315, -469.5855)"><g id="Frame">
<g id="Group">
<g id="Group_2">
<g id="Group_3">
<line x1="40.5" y1="448.5" x2="48.5" y2="442" stroke="#8667A5" stroke-width="2" stroke-linecap="round" id="Vector" />
</g>
<g id="Group_4">
<line x1="40" y1="461" x2="41.5" y2="448" stroke="#8667A5" stroke-width="2" stroke-linecap="round" id="Vector_2" />
</g>
<circle cx="42" cy="449" r="4" fill="#8667A5" id="Vector_3" />
<circle cx="48" cy="444" r="3" fill="#8667A5" id="Vector_4" />
</g>
<g id="Group_5">
<line x1="36" y1="486" x2="38" y2="473" stroke="#8667A5" stroke-width="2" stroke-linecap="round" id="Vector_5" />
</g>
<g id="Group_6">
<line x1="26.5" y1="472.5" x2="39.5" y2="474.5" stroke="#8667A5" stroke-width="2" stroke-linecap="round" id="Vector_6" />
</g>
<g id="Group_7">
<line x1="38" y1="474" x2="39.5" y2="461" stroke="#8667A5" stroke-width="2" stroke-linecap="round" id="Vector_7" />
</g>
<g id="Group_8">
<line x1="48.5" y1="476.5" x2="39" y2="475" stroke="#8667A5" stroke-width="2" stroke-linecap="round" id="Vector_8" />
</g>
<circle cx="47.5" cy="476.5" r="3" fill="#8667A5" id="Vector_9" />
<circle cx="38" cy="474.5" r="4" fill="#8667A5" id="Vector_10" />
<circle cx="39" cy="459" r="4" fill="#8667A5" id="Vector_11" />
<line x1="51" y1="462" x2="43" y2="459" stroke="#8667A5" stroke-width="3" stroke-linecap="round" id="Vector_12" />
<line x1="51" y1="460.5" x2="43" y2="458" stroke="#8667A5" stroke-width="3" stroke-linecap="round" id="Vector_13" />
<circle cx="50" cy="461" r="4" fill="#8667A5" id="Vector_14" />
<g id="Group_9">
<g id="Group_10">
<g id="Group_11">
<line x1="39" y1="488" x2="45.5" y2="496" stroke="#8667A5" stroke-width="2" stroke-linecap="round" id="Vector_15" />
</g>
<circle cx="45" cy="495" r="3" fill="#8667A5" id="Vector_16" />
</g>
<g id="Group_12">
<g id="Group_13">
<line x1="29" y1="496" x2="35" y2="488" stroke="#8667A5" stroke-width="2" stroke-linecap="round" id="Vector_17" />
</g>
<circle cx="30" cy="495.5" r="3" fill="#8667A5" id="Vector_18" />
</g>
<circle cx="37" cy="488" r="4.5" fill="#8667A5" id="Vector_19" />
</g>
<g id="Group_14">
<g id="Group_15">
<line x1="26.5" y1="483" x2="26.5" y2="475.5" stroke="#8667A5" stroke-width="2" stroke-linecap="round" id="Vector_20" />
</g>
<g id="Group_16">
<line x1="25" y1="470" x2="22.5" y2="464.5" stroke="#8667A5" stroke-width="2" stroke-linecap="round" id="Vector_21" />
</g>
<circle cx="26.5" cy="473" r="4" fill="#8667A5" id="Vector_22" />
<circle cx="21.5" cy="464" r="3" fill="#8667A5" id="Vector_23" />
<circle cx="26.5" cy="482" r="3" fill="#8667A5" id="Vector_24" />
<line x1="17.5" y1="473" x2="25" y2="472.5" stroke="#8667A5" stroke-width="2" stroke-linecap="round" id="Vector_25" />
<circle cx="18" cy="472.5" r="3" fill="#8667A5" id="Vector_26" />
</g>
</g>
</g>
</g></svg>