<?xml version='1.0' encoding='utf-8'?>
<svg xmlns="http://www.w3.org/2000/svg" width="120" height="120" viewBox="0 0 120 120">
    <path d="M10 50 L22 31.5 C22.5 31 23 31 23.5 30.5 C24 30 24.5 30 25 30 C25.5 30 26 30 26.5 30.5 C27 30.5 27.5 31 28 31.5 L40 48.5 C40 49 40.5 49 41 49.5 C41.5 50 42 50 42.5 50 C43 50 43.5 50 44 49.5 C44.5 49 45 49 45 48.5 L57 31 C57.5 31 58 30.5 58.5 30 C59 30 59.5 30 60 30 C60.5 30 61 30 61.5 30 C62 30.5 62.5 31 63 31 L75 48.5 C75 49 75.5 49 76 49.5 C76.5 50 77 50 77.5 50 C78 50 78.5 50 79 49.5 C79.5 49 80 49 80 48.5 L92 31.5 C92.5 31 93 30.5 93.5 30.5 C94 30 94.5 30 95 30 C95.5 30 96 30 96.5 30.5 C97 31 97 31 98 31.5 L110 50 M10 90 L22 71.5 C22.5 71 23 71 23.5 70.5 C24 70 24.5 70 25 70 C25.5 70 26 70 26.5 70.5 C27 71 27.5 71 28 71.5 L40 88.5 C40 89 40.5 89 41 89.5 C41.5 90 42 90 42.5 90 C43 90 43.5 90 44 89.5 C44.5 89 45 89 45 88.5 L57 71 C57.5 71 58 70.5 58.5 70.5 C59 70 59.5 70 60 70 C60.5 70 61 70 61.5 70.5 C62 70.5 62.5 71 63 71 L75 88.5 C75 89 75.5 89 76 89.5 C76.5 90 77 90 77.5 90 C78 90 78.5 90 79 89.5 C79.5 89 80 89 80 88.5 L92 71.5 C92.5 71 93 71 93.5 70.5 C94 70 94.5 70 95 70 C95.5 70 96 70 96.5 70.5 C97 71 97 71 98 71.5 L110 90" fill="none" stroke="#8667A5" stroke-width="2" stroke-linecap="round" stroke-linejoin="round"/>
</svg>