<?xml version='1.0' encoding='utf-8'?>
<svg xmlns="http://www.w3.org/2000/svg" width="120" height="120" viewBox="0 0 120 120">
    <path d="M60 35 C60 30 61.5 25 64 21 C67 17 70.5 14 75 12 C79 10 84 9.5 89 10 C94 11 98 13 102 16.5 C105 19.5 108 24 109 28.5 C110 33 110 38 109 42.5 C107 47 104.5 51 101 54.5 C97 57.5 92.5 59 88 60 M60 35 C60 30 58.5 25 56 21 C53 17 49.5 14 45 12 C40.5 10 36 9.5 31 10 C26 11 22 13 18 16.5 C14.5 19.5 12 24 11 28.5 C9.5 33 10 38 11 42.5 C12.5 47 15.5 51 19 54.5 C23 57.5 27.5 59 32 60 M60 35 V110" fill="none" stroke="#8667A5" stroke-width="2" stroke-linecap="round" stroke-linejoin="round"/>
</svg>