<?xml version='1.0' encoding='utf-8'?>
<svg xmlns="http://www.w3.org/2000/svg" width="120" height="120" viewBox="0 0 120 120">
    <path d="M54.5 24 C54.5 20 56 16.5 58.5 14 C61 11.5 64.5 10 68 10 C72 10 75.5 11.5 78 14 C81 16.5 82 20 82 24 V82 C82 89.5 85 96.5 90 102 C95.5 107 102.5 110 110 110 M54.5 24 C54.5 20 53 16.5 50 14 C48 11.5 44 10 40.5 10 C37 10 33 11.5 31 14 C28 16.5 26.5 20 26.5 24 M54.5 24 V99 M82 57 C82 53.5 83.5 50 86 47.5 C89 45 92.5 43 96 43 C100 43 103 45 106 47.5 C108.5 50 110 53.5 110 57 V82 C110 89.5 107 96.5 102 102 C96.5 107 89.5 110 82 110 M26.5 99 V26.5 C26.5 22 25 18 22 15 C18.5 12 14.5 10 10 10" fill="none" stroke="#8667A5" stroke-width="2" stroke-linecap="round" stroke-linejoin="round"/>
</svg>