<svg width="530" height="530" viewBox="0 0 530 530" fill="none" xmlns="http://www.w3.org/2000/svg">
<path d="M121.122 333.834C123.486 339.8 124.013 346.336 122.633 352.603L105.505 405.518C104.953 408.201 105.095 410.981 105.919 413.594C106.743 416.207 108.221 418.566 110.212 420.447C112.203 422.329 114.642 423.671 117.297 424.346C119.952 425.02 122.736 425.006 125.384 424.303L180.276 408.252C186.19 407.079 192.315 407.591 197.952 409.731C232.296 425.77 271.201 429.163 307.803 419.313C344.405 409.462 376.352 387 398.007 355.89C419.662 324.781 429.634 287.022 426.163 249.277C422.692 211.531 406.001 176.225 379.035 149.587C352.069 122.948 316.561 106.69 278.777 103.68C240.992 100.67 203.358 111.102 172.515 133.136C141.672 155.169 119.602 187.388 110.199 224.108C100.796 260.828 104.665 299.688 121.122 333.834Z" stroke="#041822" stroke-width="7" stroke-linecap="round" stroke-linejoin="round"/>
<line x1="184" y1="215.5" x2="348" y2="215.5" stroke="#041822" stroke-width="7"/>
<line x1="184" y1="256.5" x2="348" y2="256.5" stroke="#041822" stroke-width="7"/>
<line x1="184" y1="304.5" x2="275" y2="304.5" stroke="#041822" stroke-width="7"/>
</svg>
