<svg width="530" height="530" viewBox="0 0 530 530" fill="none" xmlns="http://www.w3.org/2000/svg">
<g clip-path="url(#clip0_15751_913)">
<path d="M698.739 263.316L402.814 286.7C398.237 286.7 393.79 288.231 390.167 291.055L384.91 294.534M207.54 243.568L207.567 243.542C205.566 243.385 203.552 243.084 201.564 242.639C201.067 242.535 200.57 242.404 200.073 242.273C199.576 242.142 199.079 241.998 198.582 241.855C197.588 241.554 196.607 241.24 195.626 240.861L193.586 240.089C186.759 237.512 183.882 229.43 187.544 223.113L237.202 137.633C237.935 136.39 238.759 135.187 239.661 134.075C244.186 128.569 250.765 125.025 257.971 124.371L328.424 117.858C333.865 117.361 339.332 118.512 344.079 121.193L380.829 141.87C385.956 144.76 391.854 145.924 397.674 145.205L614.567 114" stroke="#041822" stroke-width="9.15488" stroke-miterlimit="10" stroke-linejoin="round"/>
<path d="M239.583 134.154C234.103 132.637 228.623 131.12 223.143 129.603C215.649 127.523 208.351 124.528 200.74 122.88C194.632 121.56 187.936 121.507 182.496 124.581C171.967 130.531 171.706 145.951 159.948 150.254C151.46 153.366 141.743 150.371 133.347 148.423C128.521 147.298 123.708 146.186 118.882 145.061C115.364 144.251 111.846 143.427 108.328 142.603L-1.81847 117.021C-5.16655 116.25 -8.50154 115.465 -11.8496 114.693M2.6805 290.363L102.926 294.548L145.981 296.352L146.072 296.431M254.78 388.699C262.719 395.552 269.127 391.668 276.32 384.187C276.568 383.925 276.817 383.651 277.065 383.363L285.409 373.685C288.104 370.572 292.459 369.526 296.304 371.03C297.886 371.645 299.521 372.05 301.182 372.233C307.447 372.966 313.947 370.69 318.393 365.55C321.296 362.179 324.014 358.164 327.352 355.218C330.059 352.59 334.087 351.805 337.645 353.204C339.026 353.722 340.422 354.112 341.882 354.342C343.538 354.549 345.216 354.593 346.878 354.46C348.247 354.304 349.627 354.048 350.932 353.597C354.228 352.524 357.275 350.562 359.708 347.751C362.644 344.342 365.42 340.652 368.601 337.471C371.918 334.186 376.006 334.533 380.071 335.784C387.369 338.151 395.687 336.098 401.009 329.925L404.593 325.753C410.112 319.344 409.406 309.692 402.997 304.173L384.91 296.352L324.096 238.951" stroke="#041822" stroke-width="9.15488" stroke-miterlimit="10" stroke-linejoin="round"/>
<path d="M146.332 294.703L140.853 301.935C134.889 309.809 136.432 321.043 144.318 327.007C152.191 332.97 163.426 331.427 169.39 323.541L174.869 316.309C180.833 308.435 179.29 297.201 171.404 291.237C163.53 285.274 152.296 286.817 146.332 294.703Z" stroke="#041822" stroke-width="9.15488" stroke-miterlimit="10" stroke-linejoin="round"/>
<path d="M179.695 309.926L169.376 323.553C163.412 331.427 164.955 342.661 172.842 348.625C180.715 354.588 191.949 353.045 197.913 345.159L208.232 331.531C214.196 323.658 212.652 312.424 204.766 306.46C196.893 300.496 185.659 302.039 179.695 309.926Z" stroke="#041822" stroke-width="9.15488" stroke-miterlimit="10" stroke-linejoin="round"/>
<path d="M211.972 326.588L197.913 345.159C191.949 353.032 193.493 364.267 201.379 370.23C209.252 376.194 220.486 374.651 226.45 366.765L240.509 348.193C246.473 340.32 244.93 329.086 237.044 323.122C229.17 317.158 217.936 318.702 211.972 326.588Z" stroke="#041822" stroke-width="9.15488" stroke-miterlimit="10" stroke-linejoin="round"/>
<path d="M241.322 347.109L226.438 366.753C220.475 374.626 222.018 385.861 229.904 391.824C237.777 397.788 249.012 396.245 254.976 388.359L269.859 368.715C275.823 360.842 274.279 349.607 266.393 343.644C258.52 337.68 247.285 339.223 241.322 347.109Z" stroke="#041822" stroke-width="9.15488" stroke-miterlimit="10" stroke-linejoin="round"/>
<path d="M328.346 117.924L257.893 124.437C249.235 125.235 241.492 130.178 237.124 137.698L187.465 223.166C183.803 229.483 186.681 237.565 193.508 240.155L195.535 240.926C213.74 247.806 234.299 241.946 246.148 226.527L265.177 201.77C265.177 201.77 328.346 207.342 361.518 166.217" stroke="#041822" stroke-width="9.15488" stroke-miterlimit="10" stroke-linejoin="round"/>
<path d="M379.956 340.64C382.307 341.571 384.967 340.42 385.897 338.069C386.828 335.719 385.677 333.059 383.326 332.128L381.641 336.384L379.956 340.64ZM363.829 329.332L361.007 332.937C361.353 333.207 361.736 333.427 362.144 333.588L363.829 329.332ZM381.641 336.384L383.326 332.128L365.514 325.076L363.829 329.332L362.144 333.588L379.956 340.64L381.641 336.384ZM363.829 329.332L366.651 325.728L296.414 270.739L293.592 274.344L290.77 277.948L361.007 332.937L363.829 329.332Z" fill="#041822"/>
<path d="M336.521 352.733L321.48 348.155L264.48 309.463" stroke="#041822" stroke-width="9.15488" stroke-linejoin="round"/>
<path d="M297.285 371.043L282.245 366.466L273.744 358.619M242.355 330.5L252.818 340.309" stroke="#041822" stroke-width="9.15488" stroke-linejoin="round"/>
<path d="M457.492 278.999C449.761 385.309 357.312 465.223 251.001 457.492M278.999 72.5085C213.594 67.7519 153.435 96.17 115.023 143.5" stroke="#041822" stroke-width="7"/>
</g>
<defs>
<clipPath id="clip0_15751_913">
<rect width="530" height="530" rx="265" fill="white"/>
</clipPath>
</defs>
</svg>
