<svg width="530" height="530" viewBox="0 0 530 530" fill="none" xmlns="http://www.w3.org/2000/svg">
<path d="M213.646 110.954C227.978 100.149 245.814 93.7422 265.146 93.7422C309.271 93.7422 345.6 127.117 350.268 170M193.146 133.002C184.522 146.366 179.518 162.284 179.518 179.371C179.518 185.06 180.072 190.62 181.131 196M350.482 186.5C346.86 230.455 310.037 264.999 265.146 264.999C229.027 264.999 198.13 242.636 185.549 211" stroke="#041822" stroke-width="7"/>
<path d="M323.147 106.803C312.91 69.0999 290.787 43 265.147 43C239.506 43 217.384 69.0999 207.147 106.803C205.906 111.373 204.839 116.114 203.963 121C203.203 125.23 202.586 129.569 202.121 134C201.44 140.488 201.084 147.172 201.084 154C201.084 161.18 201.477 168.2 202.229 175M328.173 134C328.854 140.488 329.21 147.172 329.21 154C329.21 171.193 326.954 187.473 322.927 202M204.729 191C213.524 234.112 237.253 265 265.147 265C286.772 265 305.895 246.434 317.495 218" stroke="#041822" stroke-width="4"/>
<path d="M316.354 419.046C302.022 429.851 284.186 436.258 264.854 436.258C220.729 436.258 184.4 402.883 179.732 360M336.854 396.998C345.478 383.634 350.482 367.716 350.482 350.629C350.482 344.94 349.928 339.38 348.869 334M179.518 343.5C183.141 299.545 219.963 265.001 264.854 265.001C300.973 265.001 331.87 287.364 344.452 319" stroke="#041822" stroke-width="7"/>
<path d="M206.853 423.197C217.09 460.9 239.213 487 264.853 487C290.494 487 312.616 460.9 322.853 423.197C324.094 418.627 325.161 413.886 326.037 409C326.797 404.77 327.414 400.431 327.879 396C328.56 389.512 328.916 382.828 328.916 376C328.916 368.82 328.523 361.8 327.771 355M201.827 396C201.146 389.512 200.79 382.828 200.79 376C200.79 358.807 203.046 342.527 207.073 328M325.271 339C316.476 295.888 292.747 265 264.853 265C243.228 265 224.105 283.566 212.505 312" stroke="#041822" stroke-width="4"/>
<path d="M419.046 213.648C429.851 227.98 436.258 245.816 436.258 265.148C436.258 309.273 402.883 345.602 360 350.27M396.998 193.148C383.634 184.524 367.716 179.52 350.629 179.52C344.94 179.52 339.38 180.074 334 181.133M343.5 350.484C299.545 346.861 265.001 310.039 265.001 265.148C265.001 229.028 287.364 198.132 319 185.55" stroke="#041822" stroke-width="4"/>
<path d="M423.197 323.149C460.9 312.912 487 290.789 487 265.149C487 239.508 460.9 217.386 423.197 207.149C418.627 205.908 413.886 204.841 409 203.965C404.77 203.205 400.431 202.588 396 202.123C389.512 201.442 382.828 201.086 376 201.086C368.82 201.086 361.8 201.479 355 202.231M396 328.175C389.512 328.856 382.828 329.212 376 329.212C358.807 329.212 342.527 326.956 328 322.929M339 204.731C295.888 213.526 265 237.255 265 265.149C265 286.774 283.566 305.897 312 317.497" stroke="#041822" stroke-width="7"/>
<path d="M110.954 316.352C100.149 302.02 93.7422 284.184 93.7422 264.852C93.7422 220.727 127.117 184.398 170 179.73M133.002 336.852C146.366 345.476 162.284 350.48 179.371 350.48C185.06 350.48 190.62 349.926 196 348.867M186.5 179.516C230.455 183.139 264.999 219.961 264.999 264.852C264.999 300.972 242.636 331.868 211 344.45" stroke="#041822" stroke-width="4"/>
<path d="M106.803 206.851C69.0999 217.088 43 239.211 43 264.851C43 290.492 69.0999 312.614 106.803 322.851C111.373 324.092 116.114 325.159 121 326.035C125.23 326.795 129.569 327.412 134 327.877C140.488 328.558 147.172 328.914 154 328.914C161.18 328.914 168.2 328.521 175 327.769M134 201.825C140.488 201.144 147.172 200.788 154 200.788C171.193 200.788 187.473 203.044 202 207.071M191 325.269C234.112 316.474 265 292.745 265 264.851C265 243.226 246.434 224.103 218 212.503" stroke="#041822" stroke-width="7"/>
<circle cx="265.518" cy="265" r="21" fill="#041822"/>
</svg>
