<svg width="530" height="530" viewBox="0 0 530 530" fill="none" xmlns="http://www.w3.org/2000/svg">
<path d="M343 108H186.333C143.071 108 108 143.071 108 186.333V343C108 386.262 143.071 421.333 186.333 421.333H343C386.262 421.333 421.333 386.262 421.333 343V186.333C421.333 143.071 386.262 108 343 108Z" stroke="#041822" stroke-width="7" stroke-linecap="round" stroke-linejoin="round"/>
<path d="M265 165.998C260.036 165.998 256.016 161.972 256.016 156.999C256.016 152.026 260.036 148 265 148C269.965 148 273.984 152.026 273.984 156.999C273.984 161.972 269.965 165.998 265 165.998ZM273.984 185.2C273.984 180.227 269.965 176.201 265 176.201C260.036 176.201 256.016 180.227 256.016 185.2C256.016 190.173 260.036 194.199 265 194.199C269.965 194.199 273.984 190.173 273.984 185.2ZM246.07 186.955C244.369 182.275 239.215 179.866 234.543 181.569C229.87 183.273 227.465 188.435 229.166 193.115C230.867 197.795 236.02 200.204 240.693 198.5C245.365 196.797 247.77 191.635 246.07 186.955ZM220.422 198.156C217.227 194.354 211.558 193.855 207.762 197.055C203.966 200.256 203.467 205.934 206.663 209.736C209.858 213.539 215.527 214.038 219.323 210.837C223.119 207.637 223.618 201.959 220.422 198.156ZM200.169 217.479C195.875 215.001 190.378 216.464 187.887 220.783C185.413 225.084 186.873 230.59 191.185 233.085C195.497 235.58 200.977 234.1 203.467 229.782C205.958 225.463 204.481 219.974 200.169 217.479ZM187.732 242.583C182.836 241.723 178.181 244.992 177.322 249.878C176.463 254.782 179.727 259.445 184.606 260.305C189.501 261.166 194.157 257.897 195.016 253.01C195.875 248.106 192.611 243.443 187.732 242.583ZM184.606 270.423C179.71 271.283 176.446 275.963 177.322 280.85C178.198 285.736 182.853 289.023 187.732 288.145C192.611 287.268 195.892 282.605 195.016 277.718C194.157 272.814 189.484 269.545 184.606 270.423ZM191.185 297.66C186.89 300.138 185.413 305.644 187.887 309.963C190.36 314.264 195.857 315.744 200.169 313.266C204.481 310.789 205.941 305.283 203.467 300.964C200.994 296.662 195.497 295.183 191.185 297.66ZM206.663 321.009C203.467 324.812 203.966 330.49 207.762 333.69C211.558 336.891 217.227 336.392 220.422 332.589C223.618 328.787 223.119 323.109 219.323 319.908C215.527 316.708 209.858 317.207 206.663 321.009ZM229.166 337.631C227.465 342.311 229.87 347.473 234.543 349.176C239.215 350.879 244.369 348.471 246.07 343.79C247.77 339.11 245.365 333.948 240.693 332.245C236.02 330.542 230.867 332.95 229.166 337.631ZM256.016 345.546C256.016 350.518 260.036 354.544 265 354.544C269.965 354.544 273.984 350.518 273.984 345.546C273.984 340.573 269.965 336.547 265 336.547C260.036 336.547 256.016 340.573 256.016 345.546ZM283.931 343.79C285.631 348.471 290.785 350.879 295.457 349.176C300.13 347.473 302.535 342.311 300.834 337.631C299.133 332.95 293.98 330.542 289.307 332.245C284.635 333.948 282.23 339.11 283.931 343.79ZM309.561 332.572C312.756 336.375 318.425 336.874 322.221 333.673C326.017 330.473 326.516 324.795 323.32 320.992C320.125 317.19 314.456 316.691 310.66 319.891C306.864 323.091 306.365 328.769 309.561 332.572ZM329.831 313.249C334.126 315.727 339.623 314.264 342.113 309.946C344.587 305.644 343.127 300.138 338.815 297.643C334.503 295.148 329.024 296.628 326.533 300.947C324.059 305.248 325.519 310.754 329.831 313.249ZM342.268 288.162C347.164 289.023 351.819 285.754 352.678 280.867C353.537 275.963 350.273 271.3 345.394 270.44C340.516 269.58 335.843 272.849 334.984 277.735C334.126 282.639 337.389 287.302 342.268 288.162ZM345.394 260.323C350.29 259.462 353.554 254.782 352.678 249.896C351.819 244.992 347.147 241.723 342.268 242.6C337.389 243.478 334.108 248.141 334.984 253.027C335.843 257.931 340.516 261.2 345.394 260.323ZM338.815 233.085C343.11 230.607 344.587 225.101 342.113 220.783C339.64 216.481 334.143 215.001 329.831 217.479C325.519 219.957 324.059 225.463 326.533 229.782C329.006 234.083 334.503 235.563 338.815 233.085ZM323.338 209.736C326.533 205.934 326.035 200.256 322.238 197.055C318.442 193.855 312.773 194.354 309.578 198.156C306.383 201.959 306.881 207.637 310.677 210.837C314.474 214.038 320.142 213.539 323.338 209.736ZM300.817 193.115C302.517 188.435 300.112 183.273 295.44 181.569C290.768 179.866 285.614 182.275 283.913 186.955C282.213 191.635 284.618 196.797 289.29 198.5C293.963 200.204 299.116 197.795 300.817 193.115ZM273.984 211.921C273.984 206.949 269.965 202.923 265 202.923C260.036 202.923 256.016 206.949 256.016 211.921C256.016 216.894 260.036 220.92 265 220.92C269.965 220.92 273.984 216.894 273.984 211.921ZM246.104 214.571C243.63 210.27 238.133 208.79 233.821 211.268C229.51 213.745 228.05 219.251 230.523 223.57C232.997 227.889 238.494 229.351 242.806 226.874C247.117 224.396 248.578 218.89 246.104 214.571ZM223.274 230.848C218.979 228.371 213.482 229.833 210.991 234.152C208.501 238.471 209.978 243.96 214.29 246.454C218.584 248.932 224.081 247.47 226.572 243.151C229.063 238.832 227.586 233.343 223.274 230.848ZM211.627 256.365C206.663 256.365 202.643 260.392 202.643 265.364C202.643 270.337 206.663 274.363 211.627 274.363C216.592 274.363 220.611 270.337 220.611 265.364C220.611 260.392 216.592 256.365 211.627 256.365ZM214.29 284.308C209.995 286.786 208.518 292.292 210.991 296.611C213.465 300.93 218.962 302.392 223.274 299.914C227.586 297.437 229.046 291.931 226.572 287.612C224.099 283.293 218.601 281.831 214.29 284.308ZM230.523 307.158C228.05 311.46 229.51 316.966 233.821 319.461C238.116 321.938 243.613 320.476 246.104 316.157C248.578 311.856 247.117 306.35 242.806 303.855C238.494 301.36 233.014 302.839 230.523 307.158ZM256.016 318.824C256.016 323.797 260.036 327.823 265 327.823C269.965 327.823 273.984 323.797 273.984 318.824C273.984 313.851 269.965 309.825 265 309.825C260.036 309.825 256.016 313.851 256.016 318.824ZM283.896 316.157C286.37 320.459 291.867 321.938 296.179 319.461C300.473 316.983 301.951 311.477 299.477 307.158C297.003 302.857 291.506 301.377 287.194 303.855C282.883 306.332 281.423 311.838 283.896 316.157ZM306.709 299.897C311.004 302.375 316.501 300.912 318.991 296.594C321.482 292.275 320.005 286.786 315.693 284.291C311.399 281.813 305.902 283.276 303.411 287.595C300.92 291.913 302.397 297.402 306.709 299.897ZM318.356 274.38C323.32 274.38 327.34 270.354 327.34 265.381C327.34 260.409 323.32 256.382 318.356 256.382C313.391 256.382 309.372 260.409 309.372 265.381C309.372 270.354 313.391 274.38 318.356 274.38ZM315.71 246.437C320.005 243.96 321.482 238.454 319.009 234.135C316.535 229.816 311.038 228.353 306.726 230.831C302.432 233.309 300.954 238.815 303.428 243.134C305.902 247.452 311.399 248.915 315.71 246.437ZM299.46 223.587C301.933 219.286 300.473 213.78 296.161 211.285C291.85 208.79 286.37 210.27 283.879 214.588C281.405 218.89 282.865 224.396 287.177 226.891C291.472 229.369 296.969 227.906 299.46 223.587ZM273.984 238.643C273.984 233.67 269.965 229.644 265 229.644C260.036 229.644 256.016 233.67 256.016 238.643C256.016 243.615 260.036 247.642 265 247.642C269.965 247.642 273.984 243.615 273.984 238.643ZM246.379 244.218C242.084 241.74 236.587 243.202 234.096 247.521C231.623 251.823 233.083 257.329 237.395 259.824C241.689 262.301 247.186 260.839 249.677 256.52C252.168 252.201 250.691 246.713 246.379 244.218ZM237.395 270.939C233.1 273.417 231.623 278.923 234.096 283.242C236.57 287.56 242.067 289.023 246.379 286.545C250.673 284.067 252.151 278.561 249.677 274.243C247.203 269.941 241.706 268.461 237.395 270.939ZM256.016 292.103C256.016 297.075 260.036 301.102 265 301.102C269.965 301.102 273.984 297.075 273.984 292.103C273.984 287.13 269.965 283.104 265 283.104C260.036 283.104 256.016 287.13 256.016 292.103ZM283.604 286.528C287.899 289.006 293.396 287.543 295.887 283.224C298.36 278.923 296.9 273.417 292.588 270.922C288.294 268.444 282.797 269.907 280.306 274.225C277.815 278.544 279.292 284.033 283.604 286.528ZM292.606 259.807C296.9 257.329 298.377 251.823 295.904 247.504C293.43 243.202 287.933 241.723 283.621 244.2C279.327 246.678 277.849 252.184 280.323 256.503C282.797 260.822 288.294 262.284 292.606 259.807ZM273.984 265.364C273.984 260.392 269.965 256.365 265 256.365C260.036 256.365 256.016 260.392 256.016 265.364C256.016 270.337 260.036 274.363 265 274.363C269.965 274.363 273.984 270.337 273.984 265.364ZM265 165.998C260.036 165.998 256.016 161.972 256.016 156.999C256.016 152.026 260.036 148 265 148C269.965 148 273.984 152.026 273.984 156.999C273.984 161.972 269.965 165.998 265 165.998ZM242.119 168.682C237.291 169.835 232.447 166.841 231.296 162.006C230.145 157.171 233.134 152.319 237.961 151.166C242.789 150.013 247.633 153.007 248.784 157.842C249.935 162.677 246.946 167.529 242.119 168.682ZM242.119 168.682C237.291 169.835 232.447 166.841 231.296 162.006C230.145 157.171 233.134 152.319 237.961 151.166C242.789 150.013 247.633 153.007 248.784 157.842C249.935 162.677 246.946 167.529 242.119 168.682ZM220.474 176.58C216.042 178.816 210.631 177.01 208.415 172.571C206.199 168.131 207.985 162.711 212.417 160.492C216.849 158.272 222.26 160.062 224.476 164.501C226.692 168.94 224.906 174.36 220.474 176.58ZM220.474 176.58C216.042 178.816 210.631 177.01 208.415 172.571C206.199 168.131 207.985 162.711 212.417 160.492C216.849 158.272 222.26 160.062 224.476 164.501C226.692 168.94 224.906 174.36 220.474 176.58ZM201.234 189.261C197.438 192.461 191.769 191.962 188.574 188.16C185.379 184.357 185.877 178.679 189.673 175.478C193.47 172.278 199.138 172.777 202.334 176.58C205.529 180.382 205.031 186.06 201.234 189.261ZM201.234 189.261C197.438 192.461 191.769 191.962 188.574 188.16C185.379 184.357 185.877 178.679 189.673 175.478C193.47 172.278 199.138 172.777 202.334 176.58C205.529 180.382 205.031 186.06 201.234 189.261ZM185.43 206.037C182.458 210.029 176.841 210.855 172.856 207.878C168.87 204.901 168.046 199.275 171.018 195.283C173.989 191.291 179.607 190.465 183.592 193.442C187.577 196.419 188.402 202.045 185.43 206.037ZM185.43 206.037C182.458 210.029 176.841 210.855 172.856 207.878C168.87 204.901 168.046 199.275 171.018 195.283C173.989 191.291 179.607 190.465 183.592 193.442C187.577 196.419 188.402 202.045 185.43 206.037ZM173.904 226.013C171.945 230.573 166.654 232.689 162.085 230.711C157.515 228.732 155.42 223.45 157.395 218.873C159.371 214.296 164.644 212.197 169.214 214.175C173.766 216.137 175.879 221.436 173.904 226.013ZM173.904 226.013C171.945 230.573 166.654 232.689 162.085 230.711C157.515 228.732 155.42 223.45 157.395 218.873C159.371 214.296 164.644 212.197 169.214 214.175C173.766 216.137 175.879 221.436 173.904 226.013ZM167.307 248.123C166.448 253.027 161.776 256.296 156.897 255.419C152.001 254.559 148.737 249.878 149.613 244.992C150.472 240.088 155.145 236.819 160.023 237.696C164.902 238.574 168.183 243.237 167.307 248.123ZM167.307 248.123C166.448 253.027 161.776 256.296 156.897 255.419C152.001 254.559 148.737 249.878 149.613 244.992C150.472 240.088 155.145 236.819 160.023 237.696C164.902 238.574 168.183 243.237 167.307 248.123ZM165.967 271.145C166.259 276.101 162.48 280.368 157.515 280.661C152.551 280.953 148.308 277.168 148.016 272.195C147.724 267.24 151.503 262.972 156.468 262.68C161.415 262.387 165.675 266.173 165.967 271.145ZM165.967 271.145C166.259 276.101 162.48 280.368 157.515 280.661C152.551 280.953 148.308 277.168 148.016 272.195C147.724 267.24 151.503 262.972 156.468 262.68C161.415 262.387 165.675 266.173 165.967 271.145ZM169.953 293.875C171.378 298.641 168.681 303.648 163.923 305.076C159.165 306.504 154.166 303.803 152.74 299.037C151.314 294.271 154.011 289.264 158.769 287.836C163.528 286.407 168.527 289.109 169.953 293.875ZM169.953 293.875C171.378 298.641 168.681 303.648 163.923 305.076C159.165 306.504 154.166 303.803 152.74 299.037C151.314 294.271 154.011 289.264 158.769 287.836C163.528 286.407 168.527 289.109 169.953 293.875ZM179.074 315.056C181.548 319.358 180.088 324.864 175.776 327.358C171.464 329.853 165.984 328.374 163.493 324.055C161.02 319.753 162.48 314.247 166.792 311.752C171.086 309.275 176.583 310.737 179.074 315.056ZM179.074 315.056C181.548 319.358 180.088 324.864 175.776 327.358C171.464 329.853 165.984 328.374 163.493 324.055C161.02 319.753 162.48 314.247 166.792 311.752C171.086 309.275 176.583 310.737 179.074 315.056ZM192.834 333.553C196.235 337.166 196.081 342.861 192.456 346.285C188.831 349.709 183.163 349.537 179.744 345.907C176.343 342.294 176.497 336.598 180.122 333.174C183.73 329.767 189.416 329.922 192.834 333.553ZM192.834 333.553C196.235 337.166 196.081 342.861 192.456 346.285C188.831 349.709 183.163 349.537 179.744 345.907C176.343 342.294 176.497 336.598 180.122 333.174C183.73 329.767 189.416 329.922 192.834 333.553ZM210.476 348.385C214.616 351.12 215.767 356.695 213.053 360.859C210.339 365.023 204.756 366.159 200.599 363.44C196.459 360.704 195.308 355.129 198.022 350.965C200.753 346.819 206.319 345.666 210.476 348.385ZM210.476 348.385C214.616 351.12 215.767 356.695 213.053 360.859C210.339 365.023 204.756 366.159 200.599 363.44C196.459 360.704 195.308 355.129 198.022 350.965C200.753 346.819 206.319 345.666 210.476 348.385ZM231.073 358.743C235.745 360.446 238.15 365.608 236.45 370.288C234.749 374.968 229.596 377.377 224.923 375.674C220.251 373.97 217.846 368.808 219.546 364.128C221.247 359.448 226.4 357.039 231.073 358.743ZM231.073 358.743C235.745 360.446 238.15 365.608 236.45 370.288C234.749 374.968 229.596 377.377 224.923 375.674C220.251 373.97 217.846 368.808 219.546 364.128C221.247 359.448 226.4 357.039 231.073 358.743ZM253.473 364.059C258.404 364.645 261.942 369.101 261.358 374.039C260.774 378.977 256.325 382.522 251.395 381.937C246.465 381.352 242.926 376.895 243.51 371.957C244.094 367.019 248.543 363.474 253.473 364.059ZM253.473 364.059C258.404 364.645 261.942 369.101 261.358 374.039C260.774 378.977 256.325 382.522 251.395 381.937C246.465 381.352 242.926 376.895 243.51 371.957C244.094 367.019 248.543 363.474 253.473 364.059ZM276.51 364.059C281.44 363.474 285.906 367.019 286.473 371.957C287.057 376.895 283.518 381.369 278.588 381.937C273.658 382.522 269.192 378.977 268.625 374.039C268.041 369.101 271.579 364.627 276.51 364.059ZM276.51 364.059C281.44 363.474 285.906 367.019 286.473 371.957C287.057 376.895 283.518 381.369 278.588 381.937C273.658 382.522 269.192 378.977 268.625 374.039C268.041 369.101 271.579 364.627 276.51 364.059ZM298.927 358.743C303.6 357.039 308.753 359.448 310.454 364.128C312.154 368.808 309.75 373.97 305.077 375.674C300.405 377.377 295.251 374.968 293.55 370.288C291.85 365.608 294.255 360.446 298.927 358.743ZM298.927 358.743C303.6 357.039 308.753 359.448 310.454 364.128C312.154 368.808 309.75 373.97 305.077 375.674C300.405 377.377 295.251 374.968 293.55 370.288C291.85 365.608 294.255 360.446 298.927 358.743ZM319.507 348.385C323.647 345.649 329.23 346.802 331.961 350.965C334.692 355.112 333.541 360.704 329.384 363.44C325.244 366.176 319.661 365.023 316.93 360.859C314.199 356.712 315.35 351.12 319.507 348.385ZM319.507 348.385C323.647 345.649 329.23 346.802 331.961 350.965C334.692 355.112 333.541 360.704 329.384 363.44C325.244 366.176 319.661 365.023 316.93 360.859C314.199 356.712 315.35 351.12 319.507 348.385ZM337.149 333.553C340.55 329.939 346.236 329.767 349.861 333.174C353.485 336.581 353.64 342.276 350.239 345.907C346.837 349.52 341.151 349.692 337.527 346.285C333.919 342.879 333.748 337.183 337.149 333.553ZM337.149 333.553C340.55 329.939 346.236 329.767 349.861 333.174C353.485 336.581 353.64 342.276 350.239 345.907C346.837 349.52 341.151 349.692 337.527 346.285C333.919 342.879 333.748 337.183 337.149 333.553ZM350.909 315.056C353.382 310.754 358.879 309.275 363.191 311.752C367.486 314.23 368.963 319.736 366.489 324.055C364.016 328.356 358.519 329.836 354.207 327.358C349.912 324.881 348.435 319.375 350.909 315.056ZM350.909 315.056C353.382 310.754 358.879 309.275 363.191 311.752C367.486 314.23 368.963 319.736 366.489 324.055C364.016 328.356 358.519 329.836 354.207 327.358C349.912 324.881 348.435 319.375 350.909 315.056ZM360.03 293.875C361.456 289.109 366.455 286.407 371.213 287.836C375.972 289.264 378.669 294.271 377.243 299.037C375.817 303.803 370.818 306.504 366.06 305.076C361.302 303.648 358.605 298.641 360.03 293.875ZM360.03 293.875C361.456 289.109 366.455 286.407 371.213 287.836C375.972 289.264 378.669 294.271 377.243 299.037C375.817 303.803 370.818 306.504 366.06 305.076C361.302 303.648 358.605 298.641 360.03 293.875ZM364.033 271.145C364.325 266.19 368.568 262.387 373.533 262.68C378.48 262.972 382.276 267.222 381.984 272.195C381.692 277.168 377.449 280.953 372.485 280.661C367.537 280.368 363.741 276.118 364.033 271.145ZM364.033 271.145C364.325 266.19 368.568 262.387 373.533 262.68C378.48 262.972 382.276 267.222 381.984 272.195C381.692 277.168 377.449 280.953 372.485 280.661C367.537 280.368 363.741 276.118 364.033 271.145ZM362.693 248.123C361.834 243.22 365.098 238.557 369.977 237.696C374.872 236.836 379.528 240.105 380.387 244.992C381.246 249.896 377.982 254.559 373.103 255.419C368.224 256.279 363.552 253.01 362.693 248.123ZM362.693 248.123C361.834 243.22 365.098 238.557 369.977 237.696C374.872 236.836 379.528 240.105 380.387 244.992C381.246 249.896 377.982 254.559 373.103 255.419C368.224 256.279 363.552 253.01 362.693 248.123ZM356.079 226.013C354.121 221.454 356.217 216.154 360.769 214.175C365.321 212.214 370.612 214.313 372.588 218.873C374.546 223.432 372.45 228.732 367.898 230.711C363.346 232.672 358.055 230.573 356.079 226.013ZM356.079 226.013C354.121 221.454 356.217 216.154 360.769 214.175C365.321 212.214 370.612 214.313 372.588 218.873C374.546 223.432 372.45 228.732 367.898 230.711C363.346 232.672 358.055 230.573 356.079 226.013ZM344.57 206.037C341.598 202.045 342.423 196.401 346.408 193.442C350.393 190.465 356.028 191.291 358.982 195.283C361.937 199.275 361.13 204.918 357.144 207.878C353.159 210.855 347.525 210.029 344.57 206.037ZM344.57 206.037C341.598 202.045 342.423 196.401 346.408 193.442C350.393 190.465 356.028 191.291 358.982 195.283C361.937 199.275 361.13 204.918 357.144 207.878C353.159 210.855 347.525 210.029 344.57 206.037ZM328.766 189.261C324.969 186.06 324.471 180.382 327.666 176.58C330.862 172.777 336.53 172.278 340.327 175.478C344.123 178.679 344.621 184.357 341.426 188.16C338.231 191.962 332.562 192.461 328.766 189.261ZM328.766 189.261C324.969 186.06 324.471 180.382 327.666 176.58C330.862 172.777 336.53 172.278 340.327 175.478C344.123 178.679 344.621 184.357 341.426 188.16C338.231 191.962 332.562 192.461 328.766 189.261ZM309.526 176.58C305.094 174.343 303.308 168.94 305.524 164.501C307.757 160.062 313.151 158.272 317.583 160.492C322.015 162.711 323.801 168.131 321.585 172.571C319.352 177.01 313.958 178.799 309.526 176.58ZM309.526 176.58C305.094 174.343 303.308 168.94 305.524 164.501C307.757 160.062 313.151 158.272 317.583 160.492C322.015 162.711 323.801 168.131 321.585 172.571C319.352 177.01 313.958 178.799 309.526 176.58ZM287.882 168.682C283.054 167.529 280.065 162.677 281.216 157.842C282.367 153.007 287.212 150.013 292.039 151.166C296.866 152.319 299.855 157.171 298.704 162.006C297.553 166.841 292.709 169.835 287.882 168.682ZM287.882 168.682C283.054 167.529 280.065 162.677 281.216 157.842C282.367 153.007 287.212 150.013 292.039 151.166C296.866 152.319 299.855 157.171 298.704 162.006C297.553 166.841 292.709 169.835 287.882 168.682ZM273.984 185.2C273.984 180.227 269.965 176.201 265 176.201C260.036 176.201 256.016 180.227 256.016 185.2C256.016 190.173 260.036 194.199 265 194.199C269.965 194.199 273.984 190.173 273.984 185.2ZM246.07 186.955C244.369 182.275 239.215 179.866 234.543 181.569C229.87 183.273 227.465 188.435 229.166 193.115C230.867 197.795 236.02 200.204 240.693 198.5C245.365 196.797 247.77 191.635 246.07 186.955ZM220.422 198.156C217.227 194.354 211.558 193.855 207.762 197.055C203.966 200.256 203.467 205.934 206.663 209.736C209.858 213.539 215.527 214.038 219.323 210.837C223.119 207.637 223.618 201.959 220.422 198.156ZM200.169 217.479C195.875 215.001 190.378 216.464 187.887 220.783C185.413 225.084 186.873 230.59 191.185 233.085C195.497 235.58 200.977 234.1 203.467 229.782C205.958 225.463 204.481 219.974 200.169 217.479ZM187.732 242.583C182.836 241.723 178.181 244.992 177.322 249.878C176.463 254.782 179.727 259.445 184.606 260.305C189.501 261.166 194.157 257.897 195.016 253.01C195.875 248.106 192.611 243.443 187.732 242.583ZM184.606 270.423C179.71 271.283 176.446 275.963 177.322 280.85C178.198 285.736 182.853 289.023 187.732 288.145C192.611 287.268 195.892 282.605 195.016 277.718C194.157 272.814 189.484 269.545 184.606 270.423ZM191.185 297.66C186.89 300.138 185.413 305.644 187.887 309.963C190.36 314.264 195.857 315.744 200.169 313.266C204.481 310.789 205.941 305.283 203.467 300.964C200.994 296.662 195.497 295.183 191.185 297.66ZM206.663 321.009C203.467 324.812 203.966 330.49 207.762 333.69C211.558 336.891 217.227 336.392 220.422 332.589C223.618 328.787 223.119 323.109 219.323 319.908C215.527 316.708 209.858 317.207 206.663 321.009ZM229.166 337.631C227.465 342.311 229.87 347.473 234.543 349.176C239.215 350.879 244.369 348.471 246.07 343.79C247.77 339.11 245.365 333.948 240.693 332.245C236.02 330.542 230.867 332.95 229.166 337.631ZM256.016 345.546C256.016 350.518 260.036 354.544 265 354.544C269.965 354.544 273.984 350.518 273.984 345.546C273.984 340.573 269.965 336.547 265 336.547C260.036 336.547 256.016 340.573 256.016 345.546ZM283.931 343.79C285.631 348.471 290.785 350.879 295.457 349.176C300.13 347.473 302.535 342.311 300.834 337.631C299.133 332.95 293.98 330.542 289.307 332.245C284.635 333.948 282.23 339.11 283.931 343.79ZM309.561 332.572C312.756 336.375 318.425 336.874 322.221 333.673C326.017 330.473 326.516 324.795 323.32 320.992C320.125 317.19 314.456 316.691 310.66 319.891C306.864 323.091 306.365 328.769 309.561 332.572ZM329.831 313.249C334.126 315.727 339.623 314.264 342.113 309.946C344.587 305.644 343.127 300.138 338.815 297.643C334.503 295.148 329.024 296.628 326.533 300.947C324.059 305.248 325.519 310.754 329.831 313.249ZM342.268 288.162C347.164 289.023 351.819 285.754 352.678 280.867C353.537 275.963 350.273 271.3 345.394 270.44C340.516 269.58 335.843 272.849 334.984 277.735C334.126 282.639 337.389 287.302 342.268 288.162ZM345.394 260.323C350.29 259.462 353.554 254.782 352.678 249.896C351.819 244.992 347.147 241.723 342.268 242.6C337.389 243.478 334.108 248.141 334.984 253.027C335.843 257.931 340.516 261.2 345.394 260.323ZM338.815 233.085C343.11 230.607 344.587 225.101 342.113 220.783C339.64 216.481 334.143 215.001 329.831 217.479C325.519 219.957 324.059 225.463 326.533 229.782C329.006 234.083 334.503 235.563 338.815 233.085ZM323.338 209.736C326.533 205.934 326.035 200.256 322.238 197.055C318.442 193.855 312.773 194.354 309.578 198.156C306.383 201.959 306.881 207.637 310.677 210.837C314.474 214.038 320.142 213.539 323.338 209.736ZM300.817 193.115C302.517 188.435 300.112 183.273 295.44 181.569C290.768 179.866 285.614 182.275 283.913 186.955C282.213 191.635 284.618 196.797 289.29 198.5C293.963 200.204 299.116 197.795 300.817 193.115ZM273.984 211.921C273.984 206.949 269.965 202.923 265 202.923C260.036 202.923 256.016 206.949 256.016 211.921C256.016 216.894 260.036 220.92 265 220.92C269.965 220.92 273.984 216.894 273.984 211.921ZM246.104 214.571C243.63 210.27 238.133 208.79 233.821 211.268C229.51 213.745 228.05 219.251 230.523 223.57C232.997 227.889 238.494 229.351 242.806 226.874C247.117 224.396 248.578 218.89 246.104 214.571ZM223.274 230.848C218.979 228.371 213.482 229.833 210.991 234.152C208.501 238.471 209.978 243.96 214.29 246.454C218.584 248.932 224.081 247.47 226.572 243.151C229.063 238.832 227.586 233.343 223.274 230.848ZM211.627 256.365C206.663 256.365 202.643 260.392 202.643 265.364C202.643 270.337 206.663 274.363 211.627 274.363C216.592 274.363 220.611 270.337 220.611 265.364C220.611 260.392 216.592 256.365 211.627 256.365ZM214.29 284.308C209.995 286.786 208.518 292.292 210.991 296.611C213.465 300.93 218.962 302.392 223.274 299.914C227.586 297.437 229.046 291.931 226.572 287.612C224.099 283.293 218.601 281.831 214.29 284.308ZM230.523 307.158C228.05 311.46 229.51 316.966 233.821 319.461C238.116 321.938 243.613 320.476 246.104 316.157C248.578 311.856 247.117 306.35 242.806 303.855C238.494 301.36 233.014 302.839 230.523 307.158ZM256.016 318.824C256.016 323.797 260.036 327.823 265 327.823C269.965 327.823 273.984 323.797 273.984 318.824C273.984 313.851 269.965 309.825 265 309.825C260.036 309.825 256.016 313.851 256.016 318.824ZM283.896 316.157C286.37 320.459 291.867 321.938 296.179 319.461C300.473 316.983 301.951 311.477 299.477 307.158C297.003 302.857 291.506 301.377 287.194 303.855C282.883 306.332 281.423 311.838 283.896 316.157ZM306.709 299.897C311.004 302.375 316.501 300.912 318.991 296.594C321.482 292.275 320.005 286.786 315.693 284.291C311.399 281.813 305.902 283.276 303.411 287.595C300.92 291.913 302.397 297.402 306.709 299.897ZM318.356 274.38C323.32 274.38 327.34 270.354 327.34 265.381C327.34 260.409 323.32 256.382 318.356 256.382C313.391 256.382 309.372 260.409 309.372 265.381C309.372 270.354 313.391 274.38 318.356 274.38ZM315.71 246.437C320.005 243.96 321.482 238.454 319.009 234.135C316.535 229.816 311.038 228.353 306.726 230.831C302.432 233.309 300.954 238.815 303.428 243.134C305.902 247.452 311.399 248.915 315.71 246.437ZM299.46 223.587C301.933 219.286 300.473 213.78 296.161 211.285C291.85 208.79 286.37 210.27 283.879 214.588C281.405 218.89 282.865 224.396 287.177 226.891C291.472 229.369 296.969 227.906 299.46 223.587ZM273.984 238.643C273.984 233.67 269.965 229.644 265 229.644C260.036 229.644 256.016 233.67 256.016 238.643C256.016 243.615 260.036 247.642 265 247.642C269.965 247.642 273.984 243.615 273.984 238.643ZM246.379 244.218C242.084 241.74 236.587 243.202 234.096 247.521C231.623 251.823 233.083 257.329 237.395 259.824C241.689 262.301 247.186 260.839 249.677 256.52C252.168 252.201 250.691 246.713 246.379 244.218ZM237.395 270.939C233.1 273.417 231.623 278.923 234.096 283.242C236.57 287.56 242.067 289.023 246.379 286.545C250.673 284.067 252.151 278.561 249.677 274.243C247.203 269.941 241.706 268.461 237.395 270.939ZM256.016 292.103C256.016 297.075 260.036 301.102 265 301.102C269.965 301.102 273.984 297.075 273.984 292.103C273.984 287.13 269.965 283.104 265 283.104C260.036 283.104 256.016 287.13 256.016 292.103ZM283.604 286.528C287.899 289.006 293.396 287.543 295.887 283.224C298.36 278.923 296.9 273.417 292.588 270.922C288.294 268.444 282.797 269.907 280.306 274.225C277.815 278.544 279.292 284.033 283.604 286.528ZM292.606 259.807C296.9 257.329 298.377 251.823 295.904 247.504C293.43 243.202 287.933 241.723 283.621 244.2C279.327 246.678 277.849 252.184 280.323 256.503C282.797 260.822 288.294 262.284 292.606 259.807ZM273.984 265.364C273.984 260.392 269.965 256.365 265 256.365C260.036 256.365 256.016 260.392 256.016 265.364C256.016 270.337 260.036 274.363 265 274.363C269.965 274.363 273.984 270.337 273.984 265.364Z" fill="#041822"/>
<path d="M265 165.998C260.036 165.998 256.016 161.972 256.016 156.999C256.016 152.026 260.036 148 265 148C269.965 148 273.984 152.026 273.984 156.999C273.984 161.972 269.965 165.998 265 165.998ZM273.984 185.2C273.984 180.227 269.965 176.201 265 176.201C260.036 176.201 256.016 180.227 256.016 185.2C256.016 190.173 260.036 194.199 265 194.199C269.965 194.199 273.984 190.173 273.984 185.2ZM246.07 186.955C244.369 182.275 239.215 179.866 234.543 181.569C229.87 183.273 227.465 188.435 229.166 193.115C230.867 197.795 236.02 200.204 240.693 198.5C245.365 196.797 247.77 191.635 246.07 186.955ZM220.422 198.156C217.227 194.354 211.558 193.855 207.762 197.055C203.966 200.256 203.467 205.934 206.663 209.736C209.858 213.539 215.527 214.038 219.323 210.837C223.119 207.637 223.618 201.959 220.422 198.156ZM200.169 217.479C195.875 215.001 190.378 216.464 187.887 220.783C185.413 225.084 186.873 230.59 191.185 233.085C195.497 235.58 200.977 234.1 203.467 229.782C205.958 225.463 204.481 219.974 200.169 217.479ZM187.732 242.583C182.836 241.723 178.181 244.992 177.322 249.878C176.463 254.782 179.727 259.445 184.606 260.305C189.501 261.166 194.157 257.897 195.016 253.01C195.875 248.106 192.611 243.443 187.732 242.583ZM184.606 270.423C179.71 271.283 176.446 275.963 177.322 280.85C178.198 285.736 182.853 289.023 187.732 288.145C192.611 287.268 195.892 282.605 195.016 277.718C194.157 272.814 189.484 269.545 184.606 270.423ZM191.185 297.66C186.89 300.138 185.413 305.644 187.887 309.963C190.36 314.264 195.857 315.744 200.169 313.266C204.481 310.789 205.941 305.283 203.467 300.964C200.994 296.662 195.497 295.183 191.185 297.66ZM206.663 321.009C203.467 324.812 203.966 330.49 207.762 333.69C211.558 336.891 217.227 336.392 220.422 332.589C223.618 328.787 223.119 323.109 219.323 319.908C215.527 316.708 209.858 317.207 206.663 321.009ZM229.166 337.631C227.465 342.311 229.87 347.473 234.543 349.176C239.215 350.879 244.369 348.471 246.07 343.79C247.77 339.11 245.365 333.948 240.693 332.245C236.02 330.542 230.867 332.95 229.166 337.631ZM256.016 345.546C256.016 350.518 260.036 354.544 265 354.544C269.965 354.544 273.984 350.518 273.984 345.546C273.984 340.573 269.965 336.547 265 336.547C260.036 336.547 256.016 340.573 256.016 345.546ZM283.931 343.79C285.631 348.471 290.785 350.879 295.457 349.176C300.13 347.473 302.535 342.311 300.834 337.631C299.133 332.95 293.98 330.542 289.307 332.245C284.635 333.948 282.23 339.11 283.931 343.79ZM309.561 332.572C312.756 336.375 318.425 336.874 322.221 333.673C326.017 330.473 326.516 324.795 323.32 320.992C320.125 317.19 314.456 316.691 310.66 319.891C306.864 323.091 306.365 328.769 309.561 332.572ZM329.831 313.249C334.126 315.727 339.623 314.264 342.113 309.946C344.587 305.644 343.127 300.138 338.815 297.643C334.503 295.148 329.024 296.628 326.533 300.947C324.059 305.248 325.519 310.754 329.831 313.249ZM342.268 288.162C347.164 289.023 351.819 285.754 352.678 280.867C353.537 275.963 350.273 271.3 345.394 270.44C340.516 269.58 335.843 272.849 334.984 277.735C334.126 282.639 337.389 287.302 342.268 288.162ZM345.394 260.323C350.29 259.462 353.554 254.782 352.678 249.896C351.819 244.992 347.147 241.723 342.268 242.6C337.389 243.478 334.108 248.141 334.984 253.027C335.843 257.931 340.516 261.2 345.394 260.323ZM338.815 233.085C343.11 230.607 344.587 225.101 342.113 220.783C339.64 216.481 334.143 215.001 329.831 217.479C325.519 219.957 324.059 225.463 326.533 229.782C329.006 234.083 334.503 235.563 338.815 233.085ZM323.338 209.736C326.533 205.934 326.035 200.256 322.238 197.055C318.442 193.855 312.773 194.354 309.578 198.156C306.383 201.959 306.881 207.637 310.677 210.837C314.474 214.038 320.142 213.539 323.338 209.736ZM300.817 193.115C302.517 188.435 300.112 183.273 295.44 181.569C290.768 179.866 285.614 182.275 283.913 186.955C282.213 191.635 284.618 196.797 289.29 198.5C293.963 200.204 299.116 197.795 300.817 193.115ZM273.984 211.921C273.984 206.949 269.965 202.923 265 202.923C260.036 202.923 256.016 206.949 256.016 211.921C256.016 216.894 260.036 220.92 265 220.92C269.965 220.92 273.984 216.894 273.984 211.921ZM246.104 214.571C243.63 210.27 238.133 208.79 233.821 211.268C229.51 213.745 228.05 219.251 230.523 223.57C232.997 227.889 238.494 229.351 242.806 226.874C247.117 224.396 248.578 218.89 246.104 214.571ZM223.274 230.848C218.979 228.371 213.482 229.833 210.991 234.152C208.501 238.471 209.978 243.96 214.29 246.454C218.584 248.932 224.081 247.47 226.572 243.151C229.063 238.832 227.586 233.343 223.274 230.848ZM211.627 256.365C206.663 256.365 202.643 260.392 202.643 265.364C202.643 270.337 206.663 274.363 211.627 274.363C216.592 274.363 220.611 270.337 220.611 265.364C220.611 260.392 216.592 256.365 211.627 256.365ZM214.29 284.308C209.995 286.786 208.518 292.292 210.991 296.611C213.465 300.93 218.962 302.392 223.274 299.914C227.586 297.437 229.046 291.931 226.572 287.612C224.099 283.293 218.601 281.831 214.29 284.308ZM230.523 307.158C228.05 311.46 229.51 316.966 233.821 319.461C238.116 321.938 243.613 320.476 246.104 316.157C248.578 311.856 247.117 306.35 242.806 303.855C238.494 301.36 233.014 302.839 230.523 307.158ZM256.016 318.824C256.016 323.797 260.036 327.823 265 327.823C269.965 327.823 273.984 323.797 273.984 318.824C273.984 313.851 269.965 309.825 265 309.825C260.036 309.825 256.016 313.851 256.016 318.824ZM283.896 316.157C286.37 320.459 291.867 321.938 296.179 319.461C300.473 316.983 301.951 311.477 299.477 307.158C297.003 302.857 291.506 301.377 287.194 303.855C282.883 306.332 281.423 311.838 283.896 316.157ZM306.709 299.897C311.004 302.375 316.501 300.912 318.991 296.594C321.482 292.275 320.005 286.786 315.693 284.291C311.399 281.813 305.902 283.276 303.411 287.595C300.92 291.913 302.397 297.402 306.709 299.897ZM318.356 274.38C323.32 274.38 327.34 270.354 327.34 265.381C327.34 260.409 323.32 256.382 318.356 256.382C313.391 256.382 309.372 260.409 309.372 265.381C309.372 270.354 313.391 274.38 318.356 274.38ZM315.71 246.437C320.005 243.96 321.482 238.454 319.009 234.135C316.535 229.816 311.038 228.353 306.726 230.831C302.432 233.309 300.954 238.815 303.428 243.134C305.902 247.452 311.399 248.915 315.71 246.437ZM299.46 223.587C301.933 219.286 300.473 213.78 296.161 211.285C291.85 208.79 286.37 210.27 283.879 214.588C281.405 218.89 282.865 224.396 287.177 226.891C291.472 229.369 296.969 227.906 299.46 223.587ZM273.984 238.643C273.984 233.67 269.965 229.644 265 229.644C260.036 229.644 256.016 233.67 256.016 238.643C256.016 243.615 260.036 247.642 265 247.642C269.965 247.642 273.984 243.615 273.984 238.643ZM246.379 244.218C242.084 241.74 236.587 243.202 234.096 247.521C231.623 251.823 233.083 257.329 237.395 259.824C241.689 262.301 247.186 260.839 249.677 256.52C252.168 252.201 250.691 246.713 246.379 244.218ZM237.395 270.939C233.1 273.417 231.623 278.923 234.096 283.242C236.57 287.56 242.067 289.023 246.379 286.545C250.673 284.067 252.151 278.561 249.677 274.243C247.203 269.941 241.706 268.461 237.395 270.939ZM256.016 292.103C256.016 297.075 260.036 301.102 265 301.102C269.965 301.102 273.984 297.075 273.984 292.103C273.984 287.13 269.965 283.104 265 283.104C260.036 283.104 256.016 287.13 256.016 292.103ZM283.604 286.528C287.899 289.006 293.396 287.543 295.887 283.224C298.36 278.923 296.9 273.417 292.588 270.922C288.294 268.444 282.797 269.907 280.306 274.225C277.815 278.544 279.292 284.033 283.604 286.528ZM292.606 259.807C296.9 257.329 298.377 251.823 295.904 247.504C293.43 243.202 287.933 241.723 283.621 244.2C279.327 246.678 277.849 252.184 280.323 256.503C282.797 260.822 288.294 262.284 292.606 259.807ZM273.984 265.364C273.984 260.392 269.965 256.365 265 256.365C260.036 256.365 256.016 260.392 256.016 265.364C256.016 270.337 260.036 274.363 265 274.363C269.965 274.363 273.984 270.337 273.984 265.364ZM242.119 168.682C237.291 169.835 232.447 166.841 231.296 162.006C230.145 157.171 233.134 152.319 237.961 151.166C242.789 150.013 247.633 153.007 248.784 157.842C249.935 162.677 246.946 167.529 242.119 168.682ZM220.474 176.58C216.042 178.816 210.631 177.01 208.415 172.571C206.199 168.131 207.985 162.711 212.417 160.492C216.849 158.272 222.26 160.062 224.476 164.501C226.692 168.94 224.906 174.36 220.474 176.58ZM201.234 189.261C197.438 192.461 191.769 191.962 188.574 188.16C185.379 184.357 185.877 178.679 189.673 175.478C193.47 172.278 199.138 172.777 202.334 176.58C205.529 180.382 205.031 186.06 201.234 189.261ZM185.43 206.037C182.458 210.029 176.841 210.855 172.856 207.878C168.87 204.901 168.046 199.275 171.018 195.283C173.989 191.291 179.607 190.465 183.592 193.442C187.577 196.419 188.402 202.045 185.43 206.037ZM173.904 226.013C171.945 230.573 166.654 232.689 162.085 230.711C157.515 228.732 155.42 223.45 157.395 218.873C159.371 214.296 164.644 212.197 169.214 214.175C173.766 216.137 175.879 221.436 173.904 226.013ZM167.307 248.123C166.448 253.027 161.776 256.296 156.897 255.419C152.001 254.559 148.737 249.878 149.613 244.992C150.472 240.088 155.145 236.819 160.023 237.696C164.902 238.574 168.183 243.237 167.307 248.123ZM165.967 271.145C166.259 276.101 162.48 280.368 157.515 280.661C152.551 280.953 148.308 277.168 148.016 272.195C147.724 267.24 151.503 262.972 156.468 262.68C161.415 262.387 165.675 266.173 165.967 271.145ZM169.953 293.875C171.378 298.641 168.681 303.648 163.923 305.076C159.165 306.504 154.166 303.803 152.74 299.037C151.314 294.271 154.011 289.264 158.769 287.836C163.528 286.407 168.527 289.109 169.953 293.875ZM179.074 315.056C181.548 319.358 180.088 324.864 175.776 327.358C171.464 329.853 165.984 328.374 163.493 324.055C161.02 319.753 162.48 314.247 166.792 311.752C171.086 309.275 176.583 310.737 179.074 315.056ZM192.834 333.553C196.235 337.166 196.081 342.861 192.456 346.285C188.831 349.709 183.163 349.537 179.744 345.907C176.343 342.294 176.497 336.598 180.122 333.174C183.73 329.767 189.416 329.922 192.834 333.553ZM210.476 348.385C214.616 351.12 215.767 356.695 213.053 360.859C210.339 365.023 204.756 366.159 200.599 363.44C196.459 360.704 195.308 355.129 198.022 350.965C200.753 346.819 206.319 345.666 210.476 348.385ZM231.073 358.743C235.745 360.446 238.15 365.608 236.45 370.288C234.749 374.968 229.596 377.377 224.923 375.674C220.251 373.97 217.846 368.808 219.546 364.128C221.247 359.448 226.4 357.039 231.073 358.743ZM253.473 364.059C258.404 364.645 261.942 369.101 261.358 374.039C260.774 378.977 256.325 382.522 251.395 381.937C246.465 381.352 242.926 376.895 243.51 371.957C244.094 367.019 248.543 363.474 253.473 364.059ZM276.51 364.059C281.44 363.474 285.906 367.019 286.473 371.957C287.057 376.895 283.518 381.369 278.588 381.937C273.658 382.522 269.192 378.977 268.625 374.039C268.041 369.101 271.579 364.627 276.51 364.059ZM298.927 358.743C303.6 357.039 308.753 359.448 310.454 364.128C312.154 368.808 309.75 373.97 305.077 375.674C300.405 377.377 295.251 374.968 293.55 370.288C291.85 365.608 294.255 360.446 298.927 358.743ZM319.507 348.385C323.647 345.649 329.23 346.802 331.961 350.965C334.692 355.112 333.541 360.704 329.384 363.44C325.244 366.176 319.661 365.023 316.93 360.859C314.199 356.712 315.35 351.12 319.507 348.385ZM337.149 333.553C340.55 329.939 346.236 329.767 349.861 333.174C353.485 336.581 353.64 342.276 350.239 345.907C346.837 349.52 341.151 349.692 337.527 346.285C333.919 342.879 333.748 337.183 337.149 333.553ZM350.909 315.056C353.382 310.754 358.879 309.275 363.191 311.752C367.486 314.23 368.963 319.736 366.489 324.055C364.016 328.356 358.519 329.836 354.207 327.358C349.912 324.881 348.435 319.375 350.909 315.056ZM360.03 293.875C361.456 289.109 366.455 286.407 371.213 287.836C375.972 289.264 378.669 294.271 377.243 299.037C375.817 303.803 370.818 306.504 366.06 305.076C361.302 303.648 358.605 298.641 360.03 293.875ZM364.033 271.145C364.325 266.19 368.568 262.387 373.533 262.68C378.48 262.972 382.276 267.222 381.984 272.195C381.692 277.168 377.449 280.953 372.485 280.661C367.537 280.368 363.741 276.118 364.033 271.145ZM362.693 248.123C361.834 243.22 365.098 238.557 369.977 237.696C374.872 236.836 379.528 240.105 380.387 244.992C381.246 249.896 377.982 254.559 373.103 255.419C368.224 256.279 363.552 253.01 362.693 248.123ZM356.079 226.013C354.121 221.454 356.217 216.154 360.769 214.175C365.321 212.214 370.612 214.313 372.588 218.873C374.546 223.432 372.45 228.732 367.898 230.711C363.346 232.672 358.055 230.573 356.079 226.013ZM344.57 206.037C341.598 202.045 342.423 196.401 346.408 193.442C350.393 190.465 356.028 191.291 358.982 195.283C361.937 199.275 361.13 204.918 357.144 207.878C353.159 210.855 347.525 210.029 344.57 206.037ZM328.766 189.261C324.969 186.06 324.471 180.382 327.666 176.58C330.862 172.777 336.53 172.278 340.327 175.478C344.123 178.679 344.621 184.357 341.426 188.16C338.231 191.962 332.562 192.461 328.766 189.261ZM309.526 176.58C305.094 174.343 303.308 168.94 305.524 164.501C307.757 160.062 313.151 158.272 317.583 160.492C322.015 162.711 323.801 168.131 321.585 172.571C319.352 177.01 313.958 178.799 309.526 176.58ZM287.882 168.682C283.054 167.529 280.065 162.677 281.216 157.842C282.367 153.007 287.212 150.013 292.039 151.166C296.866 152.319 299.855 157.171 298.704 162.006C297.553 166.841 292.709 169.835 287.882 168.682Z" stroke="#041822"/>
</svg>
