<svg width="530" height="530" viewBox="0 0 530 530" fill="none" xmlns="http://www.w3.org/2000/svg">
<circle cx="266" cy="264" r="196.5" stroke="#041822" stroke-width="7"/>
<path d="M406 128.5C406 150.868 343.32 169 266 169C188.68 169 126 150.868 126 128.5" stroke="#041822" stroke-width="7"/>
<path d="M426 374C426 400.51 354.366 422 266 422C177.634 422 106 400.51 106 374" stroke="#041822" stroke-width="7"/>
<path d="M462 252C462 283.48 374.248 309 266 309C157.752 309 70 283.48 70 252" stroke="#041822" stroke-width="7"/>
<path d="M319.5 264C319.5 318.997 313.087 368.656 302.795 404.454C297.642 422.377 291.573 436.627 284.987 446.315C278.321 456.122 271.673 460.5 265.5 460.5C259.327 460.5 252.679 456.122 246.013 446.315C239.427 436.627 233.358 422.377 228.205 404.454C217.913 368.656 211.5 318.997 211.5 264C211.5 209.003 217.913 159.344 228.205 123.546C233.358 105.623 239.427 91.3733 246.013 81.6846C252.679 71.8779 259.327 67.5 265.5 67.5C271.673 67.5 278.321 71.8779 284.987 81.6846C291.573 91.3734 297.642 105.623 302.795 123.546C313.087 159.344 319.5 209.003 319.5 264Z" stroke="#041822" stroke-width="7"/>
<path d="M402.5 264C402.5 318.59 386.839 367.864 361.698 403.399C336.551 438.943 302.135 460.5 264.5 460.5C226.865 460.5 192.449 438.943 167.302 403.399C142.161 367.864 126.5 318.59 126.5 264C126.5 209.41 142.161 160.136 167.302 124.601C192.449 89.0567 226.865 67.5 264.5 67.5C302.135 67.5 336.551 89.0567 361.698 124.601C386.839 160.136 402.5 209.41 402.5 264Z" stroke="#041822" stroke-width="7"/>
</svg>
