<svg width="530" height="530" viewBox="0 0 530 530" fill="none" xmlns="http://www.w3.org/2000/svg">
<path d="M264.389 41.1289L291.777 88.5674H237L264.389 41.1289Z" fill="#041822"/>
<path d="M264.611 151.82L237.223 104.382L292 104.382L264.611 151.82Z" fill="#041822"/>
<path d="M183.193 369.385L135.755 396.773L135.755 341.996L183.193 369.385Z" fill="#041822"/>
<path d="M348.51 369.607L395.948 342.219L395.948 396.996L348.51 369.607Z" fill="#041822"/>
<path d="M315.446 288.383L342.759 317.133H288.133L315.446 288.383Z" fill="#041822"/>
<path d="M278.07 223.695L312.571 299.884L302.508 307.072L265.132 275.446H203.318" stroke="#041822" stroke-width="2"/>
<path d="M309.697 311.383L154.443 366.009L173.131 370.322L247.883 404.822H280.946L364.323 370.322L315.447 308.508" stroke="#041822" stroke-width="2"/>
<path d="M165.943 334.387L247.883 386.138" stroke="#041822" stroke-width="2"/>
<rect x="242" y="371.762" width="43.1259" height="43.1259" fill="#041822"/>
<rect x="264" y="245.258" width="43.1259" height="43.1259" transform="rotate(45 264 245.258)" fill="#041822"/>
<rect x="285.562" y="254.191" width="43.1259" height="43.1259" transform="rotate(90 285.562 254.191)" fill="#041822"/>
<rect x="242" y="435.012" width="43.1259" height="43.1259" fill="#041822"/>
<path d="M253.633 85.6915V446.512H262.258V82.8164H272.321L270.883 449.387" stroke="#041822" stroke-width="2"/>
<path d="M145.201 388.276L248.138 468.509L253.848 461.183L150.091 380.311L156.753 371.763L260.379 454.496" stroke="#041822" stroke-width="2"/>
<path d="M384.137 391.151L281.2 471.384L275.489 464.058L379.247 383.186L372.585 374.638L268.959 457.371" stroke="#041822" stroke-width="2"/>
<rect x="239.258" y="179.133" width="48.8761" height="48.8761" fill="#041822"/>
<path d="M377.863 355.254L274.936 193.578L284.077 187.758L386.512 351.544" stroke="#041822" stroke-width="2"/>
<path d="M151.461 355.254L254.389 193.578L245.247 187.758L142.812 351.544" stroke="#041822" stroke-width="2"/>
</svg>
