<svg width="530" height="530" viewBox="0 0 530 530" fill="none" xmlns="http://www.w3.org/2000/svg">
<path d="M343 108H186.333C143.071 108 108 143.071 108 186.333V343C108 386.262 143.071 421.333 186.333 421.333H343C386.262 421.333 421.333 386.262 421.333 343V186.333C421.333 143.071 386.262 108 343 108Z" stroke="#041822" stroke-width="7" stroke-linecap="round" stroke-linejoin="round"/>
<path d="M327.333 254.797C329.267 267.835 327.04 281.151 320.969 292.851C314.898 304.551 305.293 314.039 293.519 319.965C281.745 325.891 268.402 327.954 255.389 325.86C242.375 323.766 230.353 317.621 221.032 308.301C211.712 298.98 205.568 286.958 203.474 273.945C201.38 260.931 203.442 247.588 209.368 235.815C215.295 224.041 224.782 214.435 236.482 208.364C248.182 202.294 261.498 200.067 274.537 202C287.836 203.972 300.149 210.17 309.657 219.677C319.164 229.184 325.361 241.497 327.333 254.797Z" stroke="#041822" stroke-width="7" stroke-linecap="round" stroke-linejoin="round"/>
<circle cx="351" cy="179" r="9.5" stroke="#041822" stroke-width="7"/>
</svg>
