<svg width="530" height="530" viewBox="0 0 530 530" fill="none" xmlns="http://www.w3.org/2000/svg">
<g clip-path="url(#clip0_15751_495)">
<rect x="191.5" y="67.5" width="146" height="249" rx="73" stroke="#041822" stroke-width="7"/>
<path d="M163 257.5C163 313.557 208.443 359 264.5 359C320.557 359 366 313.557 366 257.5" stroke="#041822" stroke-width="4"/>
<path d="M265 361V467.5" stroke="#041822" stroke-width="7"/>
<path d="M433.41 255.843C436.69 351.332 361.94 431.4 266.451 434.68M94.7785 212.006C110.738 158.847 151.66 116.166 204.34 98.107" stroke="#041822" stroke-width="2"/>
<path d="M163.306 442.409C63.173 387.564 26.4598 261.93 81.3046 161.797M414.806 121.126C459.708 169.936 478.622 238.012 465.065 303.16" stroke="#041822" stroke-width="2"/>
<path d="M338 171C338 182.598 305.093 192 264.5 192C223.907 192 191 182.598 191 171" stroke="#041822" stroke-width="4"/>
<path d="M338 211C338 222.598 305.093 232 264.5 232C223.907 232 191 222.598 191 211" stroke="#041822" stroke-width="4"/>
<path d="M372 257H360.667C357.537 257 355 248.493 355 238C355 227.507 357.537 219 360.667 219H372" stroke="#041822" stroke-width="4"/>
<path d="M376.857 228.5C375.944 222.821 374.237 219 372.282 219C369.365 219 367 227.507 367 238C367 248.493 369.365 257 372.282 257C374.344 257 376.13 252.749 377 246.55" stroke="#041822" stroke-width="4"/>
<path d="M173.857 228.5C172.944 222.821 171.237 219 169.282 219C166.365 219 164 227.507 164 238C164 248.493 166.365 257 169.282 257C171.344 257 173.13 252.749 174 246.55" stroke="#041822" stroke-width="4"/>
<ellipse cx="381.5" cy="237.5" rx="2.5" ry="9.5" stroke="#041822" stroke-width="4"/>
<path d="M172.5 247C171.119 247 170 242.747 170 237.5C170 232.253 171.119 228 172.5 228" stroke="#041822" stroke-width="4"/>
<path d="M335.5 247C334.119 247 333 242.747 333 237.5C333 232.253 334.119 228 335.5 228" stroke="#041822" stroke-width="4"/>
<path d="M372 257H360.667C357.537 257 355 248.493 355 238C355 227.507 357.537 219 360.667 219H372" stroke="#041822" stroke-width="4"/>
<path d="M382 247H376C374.343 247 373 242.747 373 237.5C373 232.253 374.343 228 376 228H382" stroke="#041822" stroke-width="4"/>
<path d="M152 247H146C144.343 247 143 242.747 143 237.5C143 232.253 144.343 228 146 228H152" stroke="#041822" stroke-width="4"/>
<path d="M169 257L157.667 257C154.537 257 152 248.493 152 238C152 227.507 154.537 219 157.667 219L169 219" stroke="#041822" stroke-width="4"/>
<path d="M172 229H191V246H172" stroke="#041822" stroke-width="4"/>
<path d="M357 246L334 246M334 229L357 229" stroke="#041822" stroke-width="4"/>
<path d="M261 466C286.853 466 310.193 467.618 327.011 470.212C335.443 471.513 342.101 473.039 346.585 474.675C348.844 475.499 350.375 476.288 351.284 476.974C351.584 477.2 351.765 477.377 351.875 477.5C351.765 477.623 351.584 477.8 351.284 478.026C350.375 478.712 348.844 479.501 346.585 480.325C342.101 481.961 335.443 483.487 327.011 484.788C310.193 487.382 286.853 489 261 489C235.147 489 211.807 487.382 194.989 484.788C186.557 483.487 179.899 481.961 175.415 480.325C173.156 479.501 171.625 478.712 170.716 478.026C170.416 477.8 170.234 477.623 170.124 477.5C170.234 477.377 170.416 477.2 170.716 476.974C171.625 476.288 173.156 475.499 175.415 474.675C179.899 473.039 186.557 471.513 194.989 470.212C211.807 467.618 235.147 466 261 466Z" stroke="#041822" stroke-width="6"/>
</g>
<defs>
<clipPath id="clip0_15751_495">
<rect width="530" height="530" rx="265" fill="white"/>
</clipPath>
</defs>
</svg>
