<svg width="530" height="530" viewBox="0 0 530 530" fill="none" xmlns="http://www.w3.org/2000/svg">
<g clip-path="url(#clip0_15751_872)">
<path d="M298.499 274.5C312 274.499 327.5 285.002 333.507 305.502L333.507 371.473M367.999 379.503C368 310 346.687 307.271 332.493 302.505M219.5 565C210.46 537.5 177.013 449.701 187.013 424.501C197.013 399.301 200.647 378.268 201.213 370.902L201.631 310.329L200.422 246.02L198.213 181.71C197.768 171.291 205.854 162.484 216.274 162.039C226.693 161.594 235.5 169.68 235.945 180.1L240.869 240.79L249.012 348.5C249.346 349.667 252.412 351.3 262.012 348.5M301 360.5L297.164 286.142C297.164 261.5 292.435 258.947 286 253.501C279.5 248.001 264.998 242.505 243.001 258.502M205 524.001L190.308 501.902L168.873 443.279C164.751 432.009 157.638 428.732 163.587 411.117L170.448 388.53L161.983 357.371C164.231 356.052 169.923 353.425 174.703 353.464C189.994 352.562 196.258 361.035 200.999 374.001M346 588.41C346 465.998 385.008 462.903 371.087 400.181L367.5 378.5M347.306 586.813C336.865 593.979 322.414 600.078 305.91 603.635C270.057 611.363 231.578 605.602 228 589.001L218.999 563.5" stroke="#041822" stroke-width="7"/>
<path d="M200.339 244.493C161.408 236.397 136.411 198.273 144.508 159.341C152.604 120.41 190.728 95.4132 229.66 103.51C268.591 111.606 293.588 149.73 285.491 188.662C280.363 213.322 263.186 232.391 241.388 241" stroke="#041822" stroke-width="7"/>
<rect x="366" y="211" width="95" height="95" stroke="#041822" stroke-width="4"/>
<path d="M136.243 319.25H74.7568L105.5 266L136.243 319.25Z" stroke="#041822" stroke-width="4"/>
<path d="M381.708 66.9043V104.095L349.5 122.689L317.292 104.095V66.9043L349.5 48.3096L381.708 66.9043Z" stroke="#041822" stroke-width="4"/>
<path d="M273.5 131.5L318.5 104" stroke="#041822" stroke-width="4"/>
<path d="M274 209L365 255" stroke="#041822" stroke-width="4"/>
<path d="M167.5 225L122 291" stroke="#041822" stroke-width="4"/>
</g>
<defs>
<clipPath id="clip0_15751_872">
<rect width="530" height="530" rx="265" fill="white"/>
</clipPath>
</defs>
</svg>
