<svg width="530" height="530" viewBox="0 0 530 530" fill="none" xmlns="http://www.w3.org/2000/svg">
<circle cx="265" cy="265" r="198" stroke="#041822" stroke-width="4"/>
<path d="M405 129.5C405 151.868 342.32 170 265 170C187.68 170 125 151.868 125 129.5" stroke="#041822" stroke-width="4"/>
<path d="M425 375C425 401.51 353.366 423 265 423C176.634 423 105 401.51 105 375" stroke="#041822" stroke-width="4"/>
<path d="M461 253C461 273.675 423.149 291.779 366.5 301.771M69 253C69 273.185 105.076 290.919 159.5 301.047" stroke="#041822" stroke-width="4"/>
<path d="M314.876 168.5C305.085 106.795 286.196 65 264.5 65C242.804 65 223.914 106.795 214.123 168.5M316.078 353.5C306.691 419.565 287.121 465 264.5 465C241.879 465 222.309 419.565 212.921 353.5" stroke="#041822" stroke-width="4"/>
<path d="M403 265C403 319.864 387.263 369.45 361.923 405.267C336.579 441.088 301.752 463 263.5 463C225.248 463 190.421 441.088 165.077 405.267C139.737 369.45 124 319.864 124 265C124 210.136 139.737 160.55 165.077 124.733C190.421 88.9115 225.248 67 263.5 67C301.752 67 336.579 88.9115 361.923 124.733C387.263 160.55 403 210.136 403 265Z" stroke="#041822" stroke-width="4"/>
<path d="M157.642 191.544C174.514 174.689 195.576 166.584 217.385 168.884L217.408 168.887L217.43 168.888V168.889H217.437C217.446 168.89 217.462 168.891 217.484 168.894C217.531 168.898 217.605 168.907 217.706 168.918C217.909 168.941 218.222 168.977 218.635 169.032C219.461 169.142 220.693 169.323 222.27 169.605C225.424 170.171 229.955 171.14 235.391 172.75C245.858 175.85 253.559 181.113 261.604 188.695L263.946 190.903L266.342 188.753C296.021 162.115 341.723 163.056 370.271 191.575C399.206 220.481 399.782 266.989 371.999 296.596L359.188 308.601L359.144 308.643L359.099 308.688L263.902 404.501L237.402 378.027L220.885 360.884L220.837 360.835L220.788 360.787L208.36 348.858L156.619 297.33L155.562 296.188C128.137 266.566 128.83 220.327 157.642 191.544Z" stroke="#041822" stroke-width="7"/>
</svg>
