<svg width="530" height="530" viewBox="0 0 530 530" fill="none" xmlns="http://www.w3.org/2000/svg">
<circle cx="265" cy="183" r="72.5" stroke="#041822" stroke-width="7"/>
<path d="M412 420C412 380.748 396.407 343.104 368.652 315.348C340.896 287.593 303.252 272 264 272C224.748 272 187.104 287.593 159.348 315.348C131.593 343.104 116 380.748 116 420" stroke="#041822" stroke-width="7"/>
<path d="M415.5 99.5C437.63 99.5 455.5 117.223 455.5 139C455.5 160.777 437.63 178.5 415.5 178.5C393.37 178.5 375.5 160.777 375.5 139C375.5 117.223 393.37 99.5 415.5 99.5Z" stroke="#041822" stroke-width="7"/>
<path d="M112.5 99.5C134.63 99.5 152.5 117.223 152.5 139C152.5 160.777 134.63 178.5 112.5 178.5C90.3704 178.5 72.5 160.777 72.5 139C72.5 117.223 90.3704 99.5 112.5 99.5Z" stroke="#041822" stroke-width="7"/>
<path d="M524 286C524 260.539 513.728 236.121 495.443 218.118C477.158 200.114 452.359 190 426.5 190C400.641 190 375.842 200.114 357.557 218.118C339.272 236.121 329 260.539 329 286" stroke="#041822" stroke-width="7"/>
<path d="M199 286C199 260.539 188.728 236.121 170.443 218.118C152.158 200.114 127.359 190 101.5 190C75.6414 190 50.8419 200.114 32.5571 218.118C14.2723 236.121 4 260.539 4 286" stroke="#041822" stroke-width="7"/>
</svg>
