<svg width="530" height="530" viewBox="0 0 530 530" fill="none" xmlns="http://www.w3.org/2000/svg">
<path d="M265 129.612C258.211 129.612 252.714 124.106 252.714 117.306C252.714 110.506 258.211 105 265 105C271.789 105 277.286 110.506 277.286 117.306C277.286 124.106 271.789 129.612 265 129.612ZM277.286 155.872C277.286 149.072 271.789 143.566 265 143.566C258.211 143.566 252.714 149.072 252.714 155.872C252.714 162.672 258.211 168.178 265 168.178C271.789 168.178 277.286 162.672 277.286 155.872ZM239.112 158.272C236.787 151.872 229.739 148.578 223.349 150.907C216.96 153.236 213.671 160.295 215.996 166.696C218.322 173.096 225.37 176.39 231.759 174.06C238.149 171.731 241.438 164.672 239.112 158.272ZM204.039 173.59C199.67 168.39 191.917 167.707 186.726 172.084C181.534 176.461 180.853 184.225 185.222 189.426C189.592 194.626 197.344 195.308 202.536 190.931C207.727 186.555 208.409 178.79 204.039 173.59ZM176.342 200.014C170.47 196.626 162.952 198.626 159.546 204.532C156.163 210.414 158.16 217.944 164.056 221.356C169.953 224.768 177.447 222.744 180.853 216.838C184.259 210.932 182.239 203.426 176.342 200.014ZM159.334 234.344C152.639 233.168 146.273 237.639 145.098 244.321C143.924 251.027 148.387 257.404 155.059 258.58C161.754 259.757 168.12 255.286 169.295 248.603C170.47 241.897 166.006 235.521 159.334 234.344ZM155.059 272.416C148.364 273.592 143.9 279.992 145.098 286.675C146.297 293.357 152.663 297.852 159.334 296.652C166.006 295.452 170.493 289.075 169.295 282.393C168.12 275.686 161.731 271.216 155.059 272.416ZM164.056 309.664C158.183 313.052 156.163 320.582 159.546 326.488C162.929 332.37 170.446 334.394 176.342 331.005C182.239 327.617 184.236 320.088 180.853 314.182C177.47 308.299 169.953 306.275 164.056 309.664ZM185.222 341.594C180.853 346.794 181.534 354.559 186.726 358.936C191.917 363.312 199.67 362.63 204.039 357.43C208.409 352.23 207.727 344.465 202.536 340.088C197.344 335.711 189.592 336.394 185.222 341.594ZM215.996 364.324C213.671 370.724 216.96 377.783 223.349 380.113C229.739 382.442 236.787 379.148 239.112 372.748C241.438 366.347 238.149 359.288 231.759 356.959C225.37 354.63 218.322 357.924 215.996 364.324ZM252.714 375.148C252.714 381.948 258.211 387.454 265 387.454C271.789 387.454 277.286 381.948 277.286 375.148C277.286 368.348 271.789 362.842 265 362.842C258.211 362.842 252.714 368.348 252.714 375.148ZM290.888 372.748C293.214 379.148 300.261 382.442 306.651 380.113C313.041 377.783 316.329 370.724 314.004 364.324C311.678 357.924 304.631 354.63 298.241 356.959C291.851 359.288 288.562 366.347 290.888 372.748ZM325.938 357.406C330.307 362.606 338.059 363.289 343.251 358.912C348.443 354.535 349.124 346.771 344.754 341.57C340.385 336.37 332.633 335.688 327.441 340.064C322.249 344.441 321.568 352.206 325.938 357.406ZM353.658 330.982C359.531 334.37 367.048 332.37 370.454 326.464C373.837 320.582 371.84 313.052 365.944 309.64C360.047 306.228 352.554 308.252 349.147 314.158C345.764 320.04 347.761 327.57 353.658 330.982ZM370.666 296.675C377.361 297.852 383.727 293.381 384.902 286.699C386.076 279.992 381.613 273.616 374.941 272.439C368.27 271.263 361.88 275.734 360.705 282.416C359.531 289.122 363.994 295.499 370.666 296.675ZM374.941 258.604C381.636 257.427 386.1 251.027 384.902 244.345C383.727 237.638 377.337 233.168 370.666 234.368C363.994 235.568 359.507 241.944 360.705 248.627C361.88 255.333 368.27 259.804 374.941 258.604ZM365.944 221.356C371.817 217.967 373.837 210.438 370.454 204.532C367.071 198.649 359.554 196.626 353.658 200.014C347.761 203.402 345.764 210.932 349.147 216.838C352.53 222.72 360.047 224.744 365.944 221.356ZM344.778 189.426C349.147 184.225 348.466 176.461 343.274 172.084C338.083 167.707 330.33 168.39 325.961 173.59C321.592 178.79 322.273 186.555 327.464 190.931C332.656 195.308 340.408 194.626 344.778 189.426ZM313.98 166.696C316.306 160.295 313.017 153.236 306.627 150.907C300.238 148.578 293.19 151.872 290.864 158.272C288.539 164.672 291.828 171.731 298.217 174.06C304.607 176.39 311.655 173.096 313.98 166.696ZM277.286 192.414C277.286 185.614 271.789 180.108 265 180.108C258.211 180.108 252.714 185.614 252.714 192.414C252.714 199.214 258.211 204.72 265 204.72C271.789 204.72 277.286 199.214 277.286 192.414ZM239.159 196.037C235.776 190.155 228.259 188.131 222.363 191.52C216.466 194.908 214.469 202.438 217.852 208.344C221.235 214.25 228.752 216.25 234.649 212.861C240.545 209.473 242.542 201.944 239.159 196.037ZM207.939 218.297C202.066 214.909 194.548 216.909 191.142 222.815C187.736 228.721 189.756 236.227 195.653 239.639C201.526 243.027 209.043 241.027 212.449 235.121C215.855 229.215 213.835 221.709 207.939 218.297ZM192.011 253.192C185.222 253.192 179.725 258.698 179.725 265.498C179.725 272.298 185.222 277.804 192.011 277.804C198.8 277.804 204.298 272.298 204.298 265.498C204.298 258.698 198.8 253.192 192.011 253.192ZM195.653 291.405C189.78 294.793 187.759 302.322 191.142 308.228C194.525 314.134 202.042 316.135 207.939 312.746C213.835 309.358 215.832 301.828 212.449 295.922C209.066 290.016 201.549 288.016 195.653 291.405ZM217.852 322.652C214.469 328.535 216.466 336.064 222.363 339.476C228.236 342.865 235.753 340.865 239.159 334.959C242.542 329.076 240.545 321.546 234.649 318.135C228.752 314.723 221.259 316.746 217.852 322.652ZM252.714 338.606C252.714 345.406 258.211 350.912 265 350.912C271.789 350.912 277.286 345.406 277.286 338.606C277.286 331.805 271.789 326.299 265 326.299C258.211 326.299 252.714 331.805 252.714 338.606ZM290.841 334.959C294.224 340.841 301.741 342.865 307.637 339.476C313.51 336.088 315.531 328.558 312.148 322.652C308.765 316.77 301.248 314.746 295.351 318.135C289.455 321.523 287.458 329.052 290.841 334.959ZM322.038 312.723C327.911 316.111 335.428 314.111 338.834 308.205C342.241 302.299 340.22 294.793 334.324 291.381C328.451 287.993 320.934 289.993 317.527 295.899C314.121 301.805 316.141 309.311 322.038 312.723ZM337.965 277.828C344.754 277.828 350.251 272.322 350.251 265.522C350.251 258.721 344.754 253.215 337.965 253.215C331.176 253.215 325.679 258.721 325.679 265.522C325.679 272.322 331.176 277.828 337.965 277.828ZM334.348 239.615C340.22 236.227 342.241 228.697 338.858 222.791C335.475 216.885 327.958 214.885 322.061 218.273C316.188 221.662 314.168 229.191 317.551 235.097C320.934 241.003 328.451 243.003 334.348 239.615ZM312.124 208.367C315.507 202.485 313.51 194.955 307.614 191.543C301.718 188.131 294.224 190.155 290.817 196.061C287.435 201.944 289.431 209.473 295.328 212.885C301.201 216.273 308.718 214.273 312.124 208.367ZM277.286 228.956C277.286 222.156 271.789 216.65 265 216.65C258.211 216.65 252.714 222.156 252.714 228.956C252.714 235.756 258.211 241.262 265 241.262C271.789 241.262 277.286 235.756 277.286 228.956ZM239.535 236.58C233.662 233.191 226.145 235.191 222.739 241.097C219.356 246.98 221.353 254.509 227.249 257.921C233.122 261.31 240.639 259.31 244.045 253.404C247.452 247.498 245.431 239.991 239.535 236.58ZM227.249 273.122C221.376 276.51 219.356 284.04 222.739 289.946C226.121 295.852 233.639 297.852 239.535 294.463C245.408 291.075 247.428 283.545 244.045 277.639C240.663 271.757 233.145 269.733 227.249 273.122ZM252.714 302.064C252.714 308.864 258.211 314.37 265 314.37C271.789 314.37 277.286 308.864 277.286 302.064C277.286 295.263 271.789 289.757 265 289.757C258.211 289.757 252.714 295.263 252.714 302.064ZM290.442 294.44C296.314 297.828 303.832 295.828 307.238 289.922C310.621 284.04 308.624 276.51 302.728 273.098C296.855 269.71 289.337 271.71 285.931 277.616C282.525 283.522 284.545 291.028 290.442 294.44ZM302.751 257.898C308.624 254.509 310.644 246.98 307.262 241.074C303.879 235.191 296.361 233.168 290.465 236.556C284.592 239.944 282.572 247.474 285.955 253.38C289.337 259.286 296.855 261.286 302.751 257.898ZM277.286 265.498C277.286 258.698 271.789 253.192 265 253.192C258.211 253.192 252.714 258.698 252.714 265.498C252.714 272.298 258.211 277.804 265 277.804C271.789 277.804 277.286 272.298 277.286 265.498ZM265 129.612C258.211 129.612 252.714 124.106 252.714 117.306C252.714 110.506 258.211 105 265 105C271.789 105 277.286 110.506 277.286 117.306C277.286 124.106 271.789 129.612 265 129.612ZM233.709 133.283C227.108 134.86 220.483 130.765 218.909 124.153C217.335 117.541 221.423 110.906 228.024 109.33C234.625 107.753 241.25 111.847 242.824 118.459C244.398 125.071 240.31 131.707 233.709 133.283ZM233.709 133.283C227.108 134.86 220.483 130.765 218.909 124.153C217.335 117.541 221.423 110.906 228.024 109.33C234.625 107.753 241.25 111.847 242.824 118.459C244.398 125.071 240.31 131.707 233.709 133.283ZM204.11 144.083C198.049 147.142 190.649 144.672 187.618 138.601C184.588 132.53 187.031 125.118 193.092 122.083C199.153 119.047 206.553 121.495 209.583 127.565C212.614 133.636 210.17 141.048 204.11 144.083ZM204.11 144.083C198.049 147.142 190.649 144.672 187.618 138.601C184.588 132.53 187.031 125.118 193.092 122.083C199.153 119.047 206.553 121.495 209.583 127.565C212.614 133.636 210.17 141.048 204.11 144.083ZM177.799 161.425C172.607 165.801 164.855 165.119 160.486 159.919C156.116 154.719 156.797 146.954 161.989 142.577C167.181 138.201 174.933 138.883 179.302 144.083C183.672 149.283 182.991 157.048 177.799 161.425ZM177.799 161.425C172.607 165.801 164.855 165.119 160.486 159.919C156.116 154.719 156.797 146.954 161.989 142.577C167.181 138.201 174.933 138.883 179.302 144.083C183.672 149.283 182.991 157.048 177.799 161.425ZM156.187 184.367C152.123 189.826 144.441 190.955 138.991 186.884C133.541 182.814 132.413 175.119 136.477 169.66C140.541 164.201 148.223 163.072 153.673 167.143C159.123 171.213 160.251 178.908 156.187 184.367ZM156.187 184.367C152.123 189.826 144.441 190.955 138.991 186.884C133.541 182.814 132.413 175.119 136.477 169.66C140.541 164.201 148.223 163.072 153.673 167.143C159.123 171.213 160.251 178.908 156.187 184.367ZM140.424 211.685C137.746 217.92 130.51 220.815 124.261 218.109C118.013 215.403 115.147 208.179 117.848 201.92C120.55 195.661 127.762 192.79 134.01 195.496C140.236 198.179 143.125 205.426 140.424 211.685ZM140.424 211.685C137.746 217.92 130.51 220.815 124.261 218.109C118.013 215.403 115.147 208.179 117.848 201.92C120.55 195.661 127.762 192.79 134.01 195.496C140.236 198.179 143.125 205.426 140.424 211.685ZM131.403 241.921C130.228 248.627 123.839 253.098 117.167 251.898C110.472 250.721 106.008 244.321 107.206 237.638C108.381 230.932 114.771 226.462 121.442 227.662C128.114 228.862 132.601 235.238 131.403 241.921ZM131.403 241.921C130.228 248.627 123.839 253.098 117.167 251.898C110.472 250.721 106.008 244.321 107.206 237.638C108.381 230.932 114.771 226.462 121.442 227.662C128.114 228.862 132.601 235.238 131.403 241.921ZM129.57 273.404C129.97 280.181 124.802 286.016 118.013 286.416C111.223 286.816 105.421 281.64 105.022 274.839C104.622 268.063 109.79 262.227 116.58 261.827C123.345 261.427 129.171 266.604 129.57 273.404ZM129.57 273.404C129.97 280.181 124.802 286.016 118.013 286.416C111.223 286.816 105.421 281.64 105.022 274.839C104.622 268.063 109.79 262.227 116.58 261.827C123.345 261.427 129.171 266.604 129.57 273.404ZM135.021 304.487C136.97 311.005 133.282 317.852 126.775 319.805C120.268 321.758 113.432 318.064 111.482 311.546C109.532 305.028 113.22 298.181 119.727 296.228C126.235 294.275 133.071 297.969 135.021 304.487ZM135.021 304.487C136.97 311.005 133.282 317.852 126.775 319.805C120.268 321.758 113.432 318.064 111.482 311.546C109.532 305.028 113.22 298.181 119.727 296.228C126.235 294.275 133.071 297.969 135.021 304.487ZM147.495 333.453C150.877 339.335 148.881 346.865 142.984 350.277C137.088 353.688 129.594 351.665 126.188 345.759C122.805 339.876 124.802 332.347 130.698 328.935C136.571 325.546 144.088 327.547 147.495 333.453ZM147.495 333.453C150.877 339.335 148.881 346.865 142.984 350.277C137.088 353.688 129.594 351.665 126.188 345.759C122.805 339.876 124.802 332.347 130.698 328.935C136.571 325.546 144.088 327.547 147.495 333.453ZM166.311 358.747C170.963 363.689 170.751 371.477 165.795 376.159C160.838 380.842 153.086 380.607 148.411 375.642C143.759 370.701 143.971 362.912 148.928 358.23C153.861 353.571 161.637 353.782 166.311 358.747ZM166.311 358.747C170.963 363.689 170.751 371.477 165.795 376.159C160.838 380.842 153.086 380.607 148.411 375.642C143.759 370.701 143.971 362.912 148.928 358.23C153.861 353.571 161.637 353.782 166.311 358.747ZM190.437 379.03C196.099 382.771 197.673 390.395 193.961 396.089C190.25 401.784 182.615 403.337 176.93 399.619C171.268 395.878 169.694 388.254 173.406 382.56C177.141 376.889 184.752 375.312 190.437 379.03ZM190.437 379.03C196.099 382.771 197.673 390.395 193.961 396.089C190.25 401.784 182.615 403.337 176.93 399.619C171.268 395.878 169.694 388.254 173.406 382.56C177.141 376.889 184.752 375.312 190.437 379.03ZM218.604 393.195C224.994 395.525 228.283 402.584 225.957 408.984C223.631 415.384 216.584 418.678 210.194 416.349C203.804 414.019 200.515 406.96 202.841 400.56C205.167 394.16 212.214 390.866 218.604 393.195ZM218.604 393.195C224.994 395.525 228.283 402.584 225.957 408.984C223.631 415.384 216.584 418.678 210.194 416.349C203.804 414.019 200.515 406.96 202.841 400.56C205.167 394.16 212.214 390.866 218.604 393.195ZM249.237 400.466C255.979 401.266 260.819 407.36 260.02 414.113C259.221 420.866 253.137 425.714 246.395 424.914C239.653 424.114 234.813 418.019 235.612 411.266C236.411 404.513 242.495 399.666 249.237 400.466ZM249.237 400.466C255.979 401.266 260.819 407.36 260.02 414.113C259.221 420.866 253.137 425.714 246.395 424.914C239.653 424.114 234.813 418.019 235.612 411.266C236.411 404.513 242.495 399.666 249.237 400.466ZM280.74 400.466C287.482 399.666 293.589 404.513 294.365 411.266C295.163 418.019 290.324 424.137 283.582 424.914C276.84 425.714 270.732 420.866 269.957 414.113C269.158 407.36 273.997 401.242 280.74 400.466ZM280.74 400.466C287.482 399.666 293.589 404.513 294.365 411.266C295.163 418.019 290.324 424.137 283.582 424.914C276.84 425.714 270.732 420.866 269.957 414.113C269.158 407.36 273.997 401.242 280.74 400.466ZM311.396 393.195C317.786 390.866 324.833 394.16 327.159 400.56C329.485 406.96 326.196 414.019 319.806 416.349C313.416 418.678 306.369 415.384 304.043 408.984C301.718 402.584 305.006 395.525 311.396 393.195ZM311.396 393.195C317.786 390.866 324.833 394.16 327.159 400.56C329.485 406.96 326.196 414.019 319.806 416.349C313.416 418.678 306.369 415.384 304.043 408.984C301.718 402.584 305.006 395.525 311.396 393.195ZM339.539 379.03C345.201 375.289 352.835 376.865 356.571 382.56C360.306 388.23 358.732 395.878 353.047 399.619C347.385 403.36 339.751 401.784 336.015 396.089C332.28 390.419 333.854 382.771 339.539 379.03ZM339.539 379.03C345.201 375.289 352.835 376.865 356.571 382.56C360.306 388.23 358.732 395.878 353.047 399.619C347.385 403.36 339.751 401.784 336.015 396.089C332.28 390.419 333.854 382.771 339.539 379.03ZM363.665 358.747C368.317 353.806 376.092 353.571 381.049 358.23C386.006 362.889 386.217 370.677 381.566 375.642C376.914 380.583 369.139 380.818 364.182 376.159C359.249 371.501 359.014 363.712 363.665 358.747ZM363.665 358.747C368.317 353.806 376.092 353.571 381.049 358.23C386.006 362.889 386.217 370.677 381.566 375.642C376.914 380.583 369.139 380.818 364.182 376.159C359.249 371.501 359.014 363.712 363.665 358.747ZM382.482 333.453C385.865 327.57 393.382 325.546 399.279 328.935C405.151 332.323 407.172 339.853 403.789 345.759C400.406 351.641 392.889 353.665 386.992 350.277C381.119 346.888 379.099 339.359 382.482 333.453ZM382.482 333.453C385.865 327.57 393.382 325.546 399.279 328.935C405.151 332.323 407.172 339.853 403.789 345.759C400.406 351.641 392.889 353.665 386.992 350.277C381.119 346.888 379.099 339.359 382.482 333.453ZM394.956 304.487C396.906 297.969 403.742 294.275 410.249 296.228C416.756 298.181 420.445 305.028 418.495 311.546C416.545 318.064 409.709 321.758 403.202 319.805C396.694 317.852 393.006 311.005 394.956 304.487ZM394.956 304.487C396.906 297.969 403.742 294.275 410.249 296.228C416.756 298.181 420.445 305.028 418.495 311.546C416.545 318.064 409.709 321.758 403.202 319.805C396.694 317.852 393.006 311.005 394.956 304.487ZM400.43 273.404C400.829 266.627 406.631 261.427 413.421 261.827C420.186 262.227 425.378 268.039 424.978 274.839C424.579 281.64 418.777 286.816 411.988 286.416C405.222 286.016 400.03 280.204 400.43 273.404ZM400.43 273.404C400.829 266.627 406.631 261.427 413.421 261.827C420.186 262.227 425.378 268.039 424.978 274.839C424.579 281.64 418.777 286.816 411.988 286.416C405.222 286.016 400.03 280.204 400.43 273.404ZM398.597 241.921C397.423 235.215 401.886 228.838 408.558 227.662C415.253 226.485 421.619 230.956 422.794 237.638C423.968 244.345 419.505 250.721 412.833 251.898C406.162 253.074 399.772 248.603 398.597 241.921ZM398.597 241.921C397.423 235.215 401.886 228.838 408.558 227.662C415.253 226.485 421.619 230.956 422.794 237.638C423.968 244.345 419.505 250.721 412.833 251.898C406.162 253.074 399.772 248.603 398.597 241.921ZM389.553 211.685C386.875 205.449 389.741 198.202 395.966 195.496C402.192 192.814 409.427 195.685 412.129 201.92C414.807 208.155 411.941 215.403 405.715 218.109C399.49 220.791 392.255 217.92 389.553 211.685ZM389.553 211.685C386.875 205.449 389.741 198.202 395.966 195.496C402.192 192.814 409.427 195.685 412.129 201.92C414.807 208.155 411.941 215.403 405.715 218.109C399.49 220.791 392.255 217.92 389.553 211.685ZM373.814 184.367C369.75 178.908 370.877 171.19 376.327 167.143C381.777 163.072 389.483 164.201 393.523 169.66C397.564 175.119 396.46 182.837 391.009 186.884C385.559 190.955 377.854 189.826 373.814 184.367ZM373.814 184.367C369.75 178.908 370.877 171.19 376.327 167.143C381.777 163.072 389.483 164.201 393.523 169.66C397.564 175.119 396.46 182.837 391.009 186.884C385.559 190.955 377.854 189.826 373.814 184.367ZM352.201 161.425C347.01 157.048 346.328 149.283 350.698 144.083C355.067 138.883 362.819 138.201 368.011 142.577C373.203 146.954 373.884 154.719 369.515 159.919C365.145 165.119 357.393 165.801 352.201 161.425ZM352.201 161.425C347.01 157.048 346.328 149.283 350.698 144.083C355.067 138.883 362.819 138.201 368.011 142.577C373.203 146.954 373.884 154.719 369.515 159.919C365.145 165.119 357.393 165.801 352.201 161.425ZM325.891 144.083C319.83 141.024 317.387 133.636 320.417 127.565C323.471 121.495 330.847 119.047 336.908 122.083C342.969 125.118 345.412 132.53 342.382 138.601C339.328 144.672 331.951 147.119 325.891 144.083ZM325.891 144.083C319.83 141.024 317.387 133.636 320.417 127.565C323.471 121.495 330.847 119.047 336.908 122.083C342.969 125.118 345.412 132.53 342.382 138.601C339.328 144.672 331.951 147.119 325.891 144.083ZM296.291 133.283C289.69 131.707 285.602 125.071 287.176 118.459C288.75 111.847 295.375 107.753 301.976 109.33C308.577 110.906 312.665 117.541 311.091 124.153C309.517 130.765 302.892 134.86 296.291 133.283ZM296.291 133.283C289.69 131.707 285.602 125.071 287.176 118.459C288.75 111.847 295.375 107.753 301.976 109.33C308.577 110.906 312.665 117.541 311.091 124.153C309.517 130.765 302.892 134.86 296.291 133.283ZM277.286 155.872C277.286 149.072 271.789 143.566 265 143.566C258.211 143.566 252.714 149.072 252.714 155.872C252.714 162.672 258.211 168.178 265 168.178C271.789 168.178 277.286 162.672 277.286 155.872ZM239.112 158.272C236.787 151.872 229.739 148.578 223.349 150.907C216.96 153.236 213.671 160.295 215.996 166.696C218.322 173.096 225.37 176.39 231.759 174.06C238.149 171.731 241.438 164.672 239.112 158.272ZM204.039 173.59C199.67 168.39 191.917 167.707 186.726 172.084C181.534 176.461 180.853 184.225 185.222 189.426C189.592 194.626 197.344 195.308 202.536 190.931C207.727 186.555 208.409 178.79 204.039 173.59ZM176.342 200.014C170.47 196.626 162.952 198.626 159.546 204.532C156.163 210.414 158.16 217.944 164.056 221.356C169.953 224.768 177.447 222.744 180.853 216.838C184.259 210.932 182.239 203.426 176.342 200.014ZM159.334 234.344C152.639 233.168 146.273 237.639 145.098 244.321C143.924 251.027 148.387 257.404 155.059 258.58C161.754 259.757 168.12 255.286 169.295 248.603C170.47 241.897 166.006 235.521 159.334 234.344ZM155.059 272.416C148.364 273.592 143.9 279.992 145.098 286.675C146.297 293.357 152.663 297.852 159.334 296.652C166.006 295.452 170.493 289.075 169.295 282.393C168.12 275.686 161.731 271.216 155.059 272.416ZM164.056 309.664C158.183 313.052 156.163 320.582 159.546 326.488C162.929 332.37 170.446 334.394 176.342 331.005C182.239 327.617 184.236 320.088 180.853 314.182C177.47 308.299 169.953 306.275 164.056 309.664ZM185.222 341.594C180.853 346.794 181.534 354.559 186.726 358.936C191.917 363.312 199.67 362.63 204.039 357.43C208.409 352.23 207.727 344.465 202.536 340.088C197.344 335.711 189.592 336.394 185.222 341.594ZM215.996 364.324C213.671 370.724 216.96 377.783 223.349 380.113C229.739 382.442 236.787 379.148 239.112 372.748C241.438 366.347 238.149 359.288 231.759 356.959C225.37 354.63 218.322 357.924 215.996 364.324ZM252.714 375.148C252.714 381.948 258.211 387.454 265 387.454C271.789 387.454 277.286 381.948 277.286 375.148C277.286 368.348 271.789 362.842 265 362.842C258.211 362.842 252.714 368.348 252.714 375.148ZM290.888 372.748C293.214 379.148 300.261 382.442 306.651 380.113C313.041 377.783 316.329 370.724 314.004 364.324C311.678 357.924 304.631 354.63 298.241 356.959C291.851 359.288 288.562 366.347 290.888 372.748ZM325.938 357.406C330.307 362.606 338.059 363.289 343.251 358.912C348.443 354.535 349.124 346.771 344.754 341.57C340.385 336.37 332.633 335.688 327.441 340.064C322.249 344.441 321.568 352.206 325.938 357.406ZM353.658 330.982C359.531 334.37 367.048 332.37 370.454 326.464C373.837 320.582 371.84 313.052 365.944 309.64C360.047 306.228 352.554 308.252 349.147 314.158C345.764 320.04 347.761 327.57 353.658 330.982ZM370.666 296.675C377.361 297.852 383.727 293.381 384.902 286.699C386.076 279.992 381.613 273.616 374.941 272.439C368.27 271.263 361.88 275.734 360.705 282.416C359.531 289.122 363.994 295.499 370.666 296.675ZM374.941 258.604C381.636 257.427 386.1 251.027 384.902 244.345C383.727 237.638 377.337 233.168 370.666 234.368C363.994 235.568 359.507 241.944 360.705 248.627C361.88 255.333 368.27 259.804 374.941 258.604ZM365.944 221.356C371.817 217.967 373.837 210.438 370.454 204.532C367.071 198.649 359.554 196.626 353.658 200.014C347.761 203.402 345.764 210.932 349.147 216.838C352.53 222.72 360.047 224.744 365.944 221.356ZM344.778 189.426C349.147 184.225 348.466 176.461 343.274 172.084C338.083 167.707 330.33 168.39 325.961 173.59C321.592 178.79 322.273 186.555 327.464 190.931C332.656 195.308 340.408 194.626 344.778 189.426ZM313.98 166.696C316.306 160.295 313.017 153.236 306.627 150.907C300.238 148.578 293.19 151.872 290.864 158.272C288.539 164.672 291.828 171.731 298.217 174.06C304.607 176.39 311.655 173.096 313.98 166.696ZM277.286 192.414C277.286 185.614 271.789 180.108 265 180.108C258.211 180.108 252.714 185.614 252.714 192.414C252.714 199.214 258.211 204.72 265 204.72C271.789 204.72 277.286 199.214 277.286 192.414ZM239.159 196.037C235.776 190.155 228.259 188.131 222.363 191.52C216.466 194.908 214.469 202.438 217.852 208.344C221.235 214.25 228.752 216.25 234.649 212.861C240.545 209.473 242.542 201.944 239.159 196.037ZM207.939 218.297C202.066 214.909 194.548 216.909 191.142 222.815C187.736 228.721 189.756 236.227 195.653 239.639C201.526 243.027 209.043 241.027 212.449 235.121C215.855 229.215 213.835 221.709 207.939 218.297ZM192.011 253.192C185.222 253.192 179.725 258.698 179.725 265.498C179.725 272.298 185.222 277.804 192.011 277.804C198.8 277.804 204.298 272.298 204.298 265.498C204.298 258.698 198.8 253.192 192.011 253.192ZM195.653 291.405C189.78 294.793 187.759 302.322 191.142 308.228C194.525 314.134 202.042 316.135 207.939 312.746C213.835 309.358 215.832 301.828 212.449 295.922C209.066 290.016 201.549 288.016 195.653 291.405ZM217.852 322.652C214.469 328.535 216.466 336.064 222.363 339.476C228.236 342.865 235.753 340.865 239.159 334.959C242.542 329.076 240.545 321.546 234.649 318.135C228.752 314.723 221.259 316.746 217.852 322.652ZM252.714 338.606C252.714 345.406 258.211 350.912 265 350.912C271.789 350.912 277.286 345.406 277.286 338.606C277.286 331.805 271.789 326.299 265 326.299C258.211 326.299 252.714 331.805 252.714 338.606ZM290.841 334.959C294.224 340.841 301.741 342.865 307.637 339.476C313.51 336.088 315.531 328.558 312.148 322.652C308.765 316.77 301.248 314.746 295.351 318.135C289.455 321.523 287.458 329.052 290.841 334.959ZM322.038 312.723C327.911 316.111 335.428 314.111 338.834 308.205C342.241 302.299 340.22 294.793 334.324 291.381C328.451 287.993 320.934 289.993 317.527 295.899C314.121 301.805 316.141 309.311 322.038 312.723ZM337.965 277.828C344.754 277.828 350.251 272.322 350.251 265.522C350.251 258.721 344.754 253.215 337.965 253.215C331.176 253.215 325.679 258.721 325.679 265.522C325.679 272.322 331.176 277.828 337.965 277.828ZM334.348 239.615C340.22 236.227 342.241 228.697 338.858 222.791C335.475 216.885 327.958 214.885 322.061 218.273C316.188 221.662 314.168 229.191 317.551 235.097C320.934 241.003 328.451 243.003 334.348 239.615ZM312.124 208.367C315.507 202.485 313.51 194.955 307.614 191.543C301.718 188.131 294.224 190.155 290.817 196.061C287.435 201.944 289.431 209.473 295.328 212.885C301.201 216.273 308.718 214.273 312.124 208.367ZM277.286 228.956C277.286 222.156 271.789 216.65 265 216.65C258.211 216.65 252.714 222.156 252.714 228.956C252.714 235.756 258.211 241.262 265 241.262C271.789 241.262 277.286 235.756 277.286 228.956ZM239.535 236.58C233.662 233.191 226.145 235.191 222.739 241.097C219.356 246.98 221.353 254.509 227.249 257.921C233.122 261.31 240.639 259.31 244.045 253.404C247.452 247.498 245.431 239.991 239.535 236.58ZM227.249 273.122C221.376 276.51 219.356 284.04 222.739 289.946C226.121 295.852 233.639 297.852 239.535 294.463C245.408 291.075 247.428 283.545 244.045 277.639C240.663 271.757 233.145 269.733 227.249 273.122ZM252.714 302.064C252.714 308.864 258.211 314.37 265 314.37C271.789 314.37 277.286 308.864 277.286 302.064C277.286 295.263 271.789 289.757 265 289.757C258.211 289.757 252.714 295.263 252.714 302.064ZM290.442 294.44C296.314 297.828 303.832 295.828 307.238 289.922C310.621 284.04 308.624 276.51 302.728 273.098C296.855 269.71 289.337 271.71 285.931 277.616C282.525 283.522 284.545 291.028 290.442 294.44ZM302.751 257.898C308.624 254.509 310.644 246.98 307.262 241.074C303.879 235.191 296.361 233.168 290.465 236.556C284.592 239.944 282.572 247.474 285.955 253.38C289.337 259.286 296.855 261.286 302.751 257.898ZM277.286 265.498C277.286 258.698 271.789 253.192 265 253.192C258.211 253.192 252.714 258.698 252.714 265.498C252.714 272.298 258.211 277.804 265 277.804C271.789 277.804 277.286 272.298 277.286 265.498Z" fill="#041822"/>
<path d="M265 129.612C258.211 129.612 252.714 124.106 252.714 117.306C252.714 110.506 258.211 105 265 105C271.789 105 277.286 110.506 277.286 117.306C277.286 124.106 271.789 129.612 265 129.612ZM277.286 155.872C277.286 149.072 271.789 143.566 265 143.566C258.211 143.566 252.714 149.072 252.714 155.872C252.714 162.672 258.211 168.178 265 168.178C271.789 168.178 277.286 162.672 277.286 155.872ZM239.112 158.272C236.787 151.872 229.739 148.578 223.349 150.907C216.96 153.236 213.671 160.295 215.996 166.696C218.322 173.096 225.37 176.39 231.759 174.06C238.149 171.731 241.438 164.672 239.112 158.272ZM204.039 173.59C199.67 168.39 191.917 167.707 186.726 172.084C181.534 176.461 180.853 184.225 185.222 189.426C189.592 194.626 197.344 195.308 202.536 190.931C207.727 186.555 208.409 178.79 204.039 173.59ZM176.342 200.014C170.47 196.626 162.952 198.626 159.546 204.532C156.163 210.414 158.16 217.944 164.056 221.356C169.953 224.768 177.447 222.744 180.853 216.838C184.259 210.932 182.239 203.426 176.342 200.014ZM159.334 234.344C152.639 233.168 146.273 237.639 145.098 244.321C143.924 251.027 148.387 257.404 155.059 258.58C161.754 259.757 168.12 255.286 169.295 248.603C170.47 241.897 166.006 235.521 159.334 234.344ZM155.059 272.416C148.364 273.592 143.9 279.992 145.098 286.675C146.297 293.357 152.663 297.852 159.334 296.652C166.006 295.452 170.493 289.075 169.295 282.393C168.12 275.686 161.731 271.216 155.059 272.416ZM164.056 309.664C158.183 313.052 156.163 320.582 159.546 326.488C162.929 332.37 170.446 334.394 176.342 331.005C182.239 327.617 184.236 320.088 180.853 314.182C177.47 308.299 169.953 306.275 164.056 309.664ZM185.222 341.594C180.853 346.794 181.534 354.559 186.726 358.936C191.917 363.312 199.67 362.63 204.039 357.43C208.409 352.23 207.727 344.465 202.536 340.088C197.344 335.711 189.592 336.394 185.222 341.594ZM215.996 364.324C213.671 370.724 216.96 377.783 223.349 380.113C229.739 382.442 236.787 379.148 239.112 372.748C241.438 366.347 238.149 359.288 231.759 356.959C225.37 354.63 218.322 357.924 215.996 364.324ZM252.714 375.148C252.714 381.948 258.211 387.454 265 387.454C271.789 387.454 277.286 381.948 277.286 375.148C277.286 368.348 271.789 362.842 265 362.842C258.211 362.842 252.714 368.348 252.714 375.148ZM290.888 372.748C293.214 379.148 300.261 382.442 306.651 380.113C313.041 377.783 316.329 370.724 314.004 364.324C311.678 357.924 304.631 354.63 298.241 356.959C291.851 359.288 288.562 366.347 290.888 372.748ZM325.938 357.406C330.307 362.606 338.059 363.289 343.251 358.912C348.443 354.535 349.124 346.771 344.754 341.57C340.385 336.37 332.633 335.688 327.441 340.064C322.249 344.441 321.568 352.206 325.938 357.406ZM353.658 330.982C359.531 334.37 367.048 332.37 370.454 326.464C373.837 320.582 371.84 313.052 365.944 309.64C360.047 306.228 352.554 308.252 349.147 314.158C345.764 320.04 347.761 327.57 353.658 330.982ZM370.666 296.675C377.361 297.852 383.727 293.381 384.902 286.699C386.076 279.992 381.613 273.616 374.941 272.439C368.27 271.263 361.88 275.734 360.705 282.416C359.531 289.122 363.994 295.499 370.666 296.675ZM374.941 258.604C381.636 257.427 386.1 251.027 384.902 244.345C383.727 237.638 377.337 233.168 370.666 234.368C363.994 235.568 359.507 241.944 360.705 248.627C361.88 255.333 368.27 259.804 374.941 258.604ZM365.944 221.356C371.817 217.967 373.837 210.438 370.454 204.532C367.071 198.649 359.554 196.626 353.658 200.014C347.761 203.402 345.764 210.932 349.147 216.838C352.53 222.72 360.047 224.744 365.944 221.356ZM344.778 189.426C349.147 184.225 348.466 176.461 343.274 172.084C338.083 167.707 330.33 168.39 325.961 173.59C321.592 178.79 322.273 186.555 327.464 190.931C332.656 195.308 340.408 194.626 344.778 189.426ZM313.98 166.696C316.306 160.295 313.017 153.236 306.627 150.907C300.238 148.578 293.19 151.872 290.864 158.272C288.539 164.672 291.828 171.731 298.217 174.06C304.607 176.39 311.655 173.096 313.98 166.696ZM277.286 192.414C277.286 185.614 271.789 180.108 265 180.108C258.211 180.108 252.714 185.614 252.714 192.414C252.714 199.214 258.211 204.72 265 204.72C271.789 204.72 277.286 199.214 277.286 192.414ZM239.159 196.037C235.776 190.155 228.259 188.131 222.363 191.52C216.466 194.908 214.469 202.438 217.852 208.344C221.235 214.25 228.752 216.25 234.649 212.861C240.545 209.473 242.542 201.944 239.159 196.037ZM207.939 218.297C202.066 214.909 194.548 216.909 191.142 222.815C187.736 228.721 189.756 236.227 195.653 239.639C201.526 243.027 209.043 241.027 212.449 235.121C215.855 229.215 213.835 221.709 207.939 218.297ZM192.011 253.192C185.222 253.192 179.725 258.698 179.725 265.498C179.725 272.298 185.222 277.804 192.011 277.804C198.8 277.804 204.298 272.298 204.298 265.498C204.298 258.698 198.8 253.192 192.011 253.192ZM195.653 291.405C189.78 294.793 187.759 302.322 191.142 308.228C194.525 314.134 202.042 316.135 207.939 312.746C213.835 309.358 215.832 301.828 212.449 295.922C209.066 290.016 201.549 288.016 195.653 291.405ZM217.852 322.652C214.469 328.535 216.466 336.064 222.363 339.476C228.236 342.865 235.753 340.865 239.159 334.959C242.542 329.076 240.545 321.546 234.649 318.135C228.752 314.723 221.259 316.746 217.852 322.652ZM252.714 338.606C252.714 345.406 258.211 350.912 265 350.912C271.789 350.912 277.286 345.406 277.286 338.606C277.286 331.805 271.789 326.299 265 326.299C258.211 326.299 252.714 331.805 252.714 338.606ZM290.841 334.959C294.224 340.841 301.741 342.865 307.637 339.476C313.51 336.088 315.531 328.558 312.148 322.652C308.765 316.77 301.248 314.746 295.351 318.135C289.455 321.523 287.458 329.052 290.841 334.959ZM322.038 312.723C327.911 316.111 335.428 314.111 338.834 308.205C342.241 302.299 340.22 294.793 334.324 291.381C328.451 287.993 320.934 289.993 317.527 295.899C314.121 301.805 316.141 309.311 322.038 312.723ZM337.965 277.828C344.754 277.828 350.251 272.322 350.251 265.522C350.251 258.721 344.754 253.215 337.965 253.215C331.176 253.215 325.679 258.721 325.679 265.522C325.679 272.322 331.176 277.828 337.965 277.828ZM334.348 239.615C340.22 236.227 342.241 228.697 338.858 222.791C335.475 216.885 327.958 214.885 322.061 218.273C316.188 221.662 314.168 229.191 317.551 235.097C320.934 241.003 328.451 243.003 334.348 239.615ZM312.124 208.367C315.507 202.485 313.51 194.955 307.614 191.543C301.718 188.131 294.224 190.155 290.817 196.061C287.435 201.944 289.431 209.473 295.328 212.885C301.201 216.273 308.718 214.273 312.124 208.367ZM277.286 228.956C277.286 222.156 271.789 216.65 265 216.65C258.211 216.65 252.714 222.156 252.714 228.956C252.714 235.756 258.211 241.262 265 241.262C271.789 241.262 277.286 235.756 277.286 228.956ZM239.535 236.58C233.662 233.191 226.145 235.191 222.739 241.097C219.356 246.98 221.353 254.509 227.249 257.921C233.122 261.31 240.639 259.31 244.045 253.404C247.452 247.498 245.431 239.991 239.535 236.58ZM227.249 273.122C221.376 276.51 219.356 284.04 222.739 289.946C226.121 295.852 233.639 297.852 239.535 294.463C245.408 291.075 247.428 283.545 244.045 277.639C240.663 271.757 233.145 269.733 227.249 273.122ZM252.714 302.064C252.714 308.864 258.211 314.37 265 314.37C271.789 314.37 277.286 308.864 277.286 302.064C277.286 295.263 271.789 289.757 265 289.757C258.211 289.757 252.714 295.263 252.714 302.064ZM290.442 294.44C296.314 297.828 303.832 295.828 307.238 289.922C310.621 284.04 308.624 276.51 302.728 273.098C296.855 269.71 289.337 271.71 285.931 277.616C282.525 283.522 284.545 291.028 290.442 294.44ZM302.751 257.898C308.624 254.509 310.644 246.98 307.262 241.074C303.879 235.191 296.361 233.168 290.465 236.556C284.592 239.944 282.572 247.474 285.955 253.38C289.337 259.286 296.855 261.286 302.751 257.898ZM277.286 265.498C277.286 258.698 271.789 253.192 265 253.192C258.211 253.192 252.714 258.698 252.714 265.498C252.714 272.298 258.211 277.804 265 277.804C271.789 277.804 277.286 272.298 277.286 265.498ZM233.709 133.283C227.108 134.86 220.483 130.765 218.909 124.153C217.335 117.541 221.423 110.906 228.024 109.33C234.625 107.753 241.25 111.847 242.824 118.459C244.398 125.071 240.31 131.707 233.709 133.283ZM204.11 144.083C198.049 147.142 190.649 144.672 187.618 138.601C184.588 132.53 187.031 125.118 193.092 122.083C199.153 119.047 206.553 121.495 209.583 127.565C212.614 133.636 210.17 141.048 204.11 144.083ZM177.799 161.425C172.607 165.801 164.855 165.119 160.486 159.919C156.116 154.719 156.797 146.954 161.989 142.577C167.181 138.201 174.933 138.883 179.302 144.083C183.672 149.283 182.991 157.048 177.799 161.425ZM156.187 184.367C152.123 189.826 144.441 190.955 138.991 186.884C133.541 182.814 132.413 175.119 136.477 169.66C140.541 164.201 148.223 163.072 153.673 167.143C159.123 171.213 160.251 178.908 156.187 184.367ZM140.424 211.685C137.746 217.92 130.51 220.815 124.261 218.109C118.013 215.403 115.147 208.179 117.848 201.92C120.55 195.661 127.762 192.79 134.01 195.496C140.236 198.179 143.125 205.426 140.424 211.685ZM131.403 241.921C130.228 248.627 123.839 253.098 117.167 251.898C110.472 250.721 106.008 244.321 107.206 237.638C108.381 230.932 114.771 226.462 121.442 227.662C128.114 228.862 132.601 235.238 131.403 241.921ZM129.57 273.404C129.97 280.181 124.802 286.016 118.013 286.416C111.223 286.816 105.421 281.64 105.022 274.839C104.622 268.063 109.79 262.227 116.58 261.827C123.345 261.427 129.171 266.604 129.57 273.404ZM135.021 304.487C136.97 311.005 133.282 317.852 126.775 319.805C120.268 321.758 113.432 318.064 111.482 311.546C109.532 305.028 113.22 298.181 119.727 296.228C126.235 294.275 133.071 297.969 135.021 304.487ZM147.495 333.453C150.877 339.335 148.881 346.865 142.984 350.277C137.088 353.688 129.594 351.665 126.188 345.759C122.805 339.876 124.802 332.347 130.698 328.935C136.571 325.546 144.088 327.547 147.495 333.453ZM166.311 358.747C170.963 363.689 170.751 371.477 165.795 376.159C160.838 380.842 153.086 380.607 148.411 375.642C143.759 370.701 143.971 362.912 148.928 358.23C153.861 353.571 161.637 353.782 166.311 358.747ZM190.437 379.03C196.099 382.771 197.673 390.395 193.961 396.089C190.25 401.784 182.615 403.337 176.93 399.619C171.268 395.878 169.694 388.254 173.406 382.56C177.141 376.889 184.752 375.312 190.437 379.03ZM218.604 393.195C224.994 395.525 228.283 402.584 225.957 408.984C223.631 415.384 216.584 418.678 210.194 416.349C203.804 414.019 200.515 406.96 202.841 400.56C205.167 394.16 212.214 390.866 218.604 393.195ZM249.237 400.466C255.979 401.266 260.819 407.36 260.02 414.113C259.221 420.866 253.137 425.714 246.395 424.914C239.653 424.114 234.813 418.019 235.612 411.266C236.411 404.513 242.495 399.666 249.237 400.466ZM280.74 400.466C287.482 399.666 293.589 404.513 294.365 411.266C295.163 418.019 290.324 424.137 283.582 424.914C276.84 425.714 270.732 420.866 269.957 414.113C269.158 407.36 273.997 401.242 280.74 400.466ZM311.396 393.195C317.786 390.866 324.833 394.16 327.159 400.56C329.485 406.96 326.196 414.019 319.806 416.349C313.416 418.678 306.369 415.384 304.043 408.984C301.718 402.584 305.006 395.525 311.396 393.195ZM339.539 379.03C345.201 375.289 352.835 376.865 356.571 382.56C360.306 388.23 358.732 395.878 353.047 399.619C347.385 403.36 339.751 401.784 336.015 396.089C332.28 390.419 333.854 382.771 339.539 379.03ZM363.665 358.747C368.317 353.806 376.092 353.571 381.049 358.23C386.006 362.889 386.217 370.677 381.566 375.642C376.914 380.583 369.139 380.818 364.182 376.159C359.249 371.501 359.014 363.712 363.665 358.747ZM382.482 333.453C385.865 327.57 393.382 325.546 399.279 328.935C405.151 332.323 407.172 339.853 403.789 345.759C400.406 351.641 392.889 353.665 386.992 350.277C381.119 346.888 379.099 339.359 382.482 333.453ZM394.956 304.487C396.906 297.969 403.742 294.275 410.249 296.228C416.756 298.181 420.445 305.028 418.495 311.546C416.545 318.064 409.709 321.758 403.202 319.805C396.694 317.852 393.006 311.005 394.956 304.487ZM400.43 273.404C400.829 266.627 406.631 261.427 413.421 261.827C420.186 262.227 425.378 268.039 424.978 274.839C424.579 281.64 418.777 286.816 411.988 286.416C405.222 286.016 400.03 280.204 400.43 273.404ZM398.597 241.921C397.423 235.215 401.886 228.838 408.558 227.662C415.253 226.485 421.619 230.956 422.794 237.638C423.968 244.345 419.505 250.721 412.833 251.898C406.162 253.074 399.772 248.603 398.597 241.921ZM389.553 211.685C386.875 205.449 389.741 198.202 395.966 195.496C402.192 192.814 409.427 195.685 412.129 201.92C414.807 208.155 411.941 215.403 405.715 218.109C399.49 220.791 392.255 217.92 389.553 211.685ZM373.814 184.367C369.75 178.908 370.877 171.19 376.327 167.143C381.777 163.072 389.483 164.201 393.523 169.66C397.564 175.119 396.46 182.837 391.009 186.884C385.559 190.955 377.854 189.826 373.814 184.367ZM352.201 161.425C347.01 157.048 346.328 149.283 350.698 144.083C355.067 138.883 362.819 138.201 368.011 142.577C373.203 146.954 373.884 154.719 369.515 159.919C365.145 165.119 357.393 165.801 352.201 161.425ZM325.891 144.083C319.83 141.024 317.387 133.636 320.417 127.565C323.471 121.495 330.847 119.047 336.908 122.083C342.969 125.118 345.412 132.53 342.382 138.601C339.328 144.672 331.951 147.119 325.891 144.083ZM296.291 133.283C289.69 131.707 285.602 125.071 287.176 118.459C288.75 111.847 295.375 107.753 301.976 109.33C308.577 110.906 312.665 117.541 311.091 124.153C309.517 130.765 302.892 134.86 296.291 133.283Z" stroke="#041822"/>
</svg>
