<svg width="530" height="530" viewBox="0 0 530 530" fill="none" xmlns="http://www.w3.org/2000/svg">
<g clip-path="url(#clip0_15751_430)">
<path d="M262 178C273.41 162.554 278.666 155.008 284.309 147.594C289.004 140.181 286 142 286 142C276.704 150.153 267.196 160.168 257.649 171.5M247.5 198C241.981 206.485 215.278 245.252 209.47 254.148C206.587 258.597 203.704 263.086 200.779 267.617L196.413 274.413L192.336 281.415C186.94 290.765 181.544 300.073 176.231 309.258C170.959 318.484 165.769 327.546 160.786 336.319C158.273 340.726 155.843 345.009 153.454 349.252C151.106 353.494 149.006 357.778 146.864 361.855C142.622 370.093 138.626 377.878 134.961 385.044C120.256 413.794 110.824 433.152 110.824 433.152C109.877 435.088 109.753 436.983 110.577 437.601C111.483 438.301 113.254 437.147 114.49 435.047C114.49 435.047 122.892 420.713 135.62 398.142C179.155 388.628 223.68 373.512 246.004 335.454C253.583 322.521 252.594 312.965 252.594 312.965C252.594 312.965 242.215 313.624 235.46 313.748C253.802 293.802 271.033 272.84 287.064 251M300.899 231.5C328.269 191.574 351.725 148.971 370.763 104.47C377.271 89.2308 383.161 71.2316 375.088 56.7746H375.046C366.232 40.9995 343.743 37.4573 327.021 44.3769C310.299 51.2965 298.148 65.8771 286.986 80.1283C270.271 101.521 254.265 123.47 239 145.923M242 191.154C194.24 254.273 147.832 342.924 124.293 388.587C121.574 345.051 136.773 300.485 165.934 267.988C183.729 233.946 203.118 200.735 224.012 168.5" stroke="#041822" stroke-width="4"/>
<path d="M7.9762 229.418C40.8022 239.431 135.434 271.448 101.16 273.203C92.8112 273.63 44.8119 267.69 64.6879 285.579C67.1383 287.784 79.2795 293.303 135.001 316.001M412.501 429.501C410.688 427.952 405.924 425.747 404.486 424.693C403.048 423.638 401.965 423.051 346.009 400.69C315.765 388.605 272.852 371.474 231.001 354.699" stroke="#041822" stroke-width="2" stroke-linecap="round"/>
<path d="M522 236.316C489.174 246.329 384.524 281.03 418.798 282.784C427.147 283.211 475.146 277.271 455.27 295.16C452.82 297.366 428.721 305.303 373 328M110.461 438.382C112.275 436.832 114.035 435.328 115.473 434.274C116.91 433.22 117.993 432.633 173.95 410.272C204.193 398.186 307.149 354.775 349 338" stroke="#041822" stroke-width="2" stroke-linecap="round"/>
<path d="M392.356 367.165C397.855 371.639 409.056 389.132 409.866 423.316L402.979 418.562C401.77 411.966 396.183 396.585 383.51 387.838C370.837 379.09 372.801 362.593 375.367 355.438" stroke="#041822" stroke-width="7"/>
<path d="M176.283 54.6742C175.366 53.3353 173.347 52.2827 169.97 52.4339C166.654 52.5824 162.583 53.9194 158.682 56.5912C154.78 59.263 152.061 62.5756 150.724 65.6132C149.362 68.707 149.615 70.9691 150.532 72.308C150.836 72.753 151.233 73.1389 151.734 73.4643L152.241 73.7927L152.608 74.273L360.152 345.512L361.307 347.022L360.669 348.814C359.98 350.748 360.232 352.005 360.71 352.719C361.13 353.347 361.976 353.954 363.551 354.176L367.878 354.786L366.429 358.633C366.82 358.623 367.334 358.567 367.976 358.429C370.119 357.968 372.978 356.749 375.928 354.775C378.878 352.8 381.095 350.621 382.338 348.816C382.717 348.265 382.967 347.804 383.125 347.443L379.295 347.131L380.475 343.024C380.952 341.366 380.707 340.28 380.269 339.626L380.271 339.625C379.833 338.972 378.922 338.333 377.21 338.141L375.649 337.967L374.742 336.685L177.568 57.9263L177.097 57.2607L176.969 56.4544C176.859 55.7633 176.626 55.1759 176.283 54.6742Z" stroke="#041822" stroke-width="7"/>
</g>
<defs>
<clipPath id="clip0_15751_430">
<rect width="530" height="530" rx="265" fill="white"/>
</clipPath>
</defs>
</svg>
