<svg width="530" height="530" viewBox="0 0 530 530" fill="none" xmlns="http://www.w3.org/2000/svg">
<g clip-path="url(#clip0_15751_607)">
<circle cx="266.065" cy="263.247" r="36.5674" stroke="#041822" stroke-width="7"/>
<circle cx="267.835" cy="61.6763" r="11.733" stroke="#041822" stroke-width="2"/>
<circle cx="369.71" cy="88.9729" r="8.54973" transform="rotate(30 369.71 88.9729)" stroke="#041822" stroke-width="2"/>
<circle cx="369.709" cy="441.833" r="8.54973" transform="rotate(150 369.709 441.833)" stroke="#041822" stroke-width="2"/>
<circle cx="267.863" cy="469.132" r="11.733" transform="rotate(-180 267.863 469.132)" stroke="#041822" stroke-width="2"/>
<circle cx="165.98" cy="441.835" r="10.733" transform="rotate(-150 165.98 441.835)" stroke="#041822" stroke-width="4"/>
<circle cx="91.3961" cy="367.264" r="13.9162" transform="rotate(-120 91.3961 367.264)" stroke="#041822" stroke-width="4"/>
<circle cx="64.0995" cy="265.404" r="15.5995" transform="rotate(-90 64.0995 265.404)" stroke="#041822" stroke-width="7"/>
<circle cx="91.4744" cy="163.538" r="13.9162" transform="rotate(-60 91.4744 163.538)" stroke="#041822" stroke-width="4"/>
<circle cx="166.013" cy="88.9692" r="10.733" transform="rotate(-30 166.013 88.9692)" stroke="#041822" stroke-width="4"/>
<mask id="path-12-inside-1_15751_607" fill="white">
<path d="M137.699 180.521C184.331 102.298 285.313 75.8164 364.435 121.497C444.245 167.576 471.59 269.628 425.512 349.438C379.433 429.248 277.381 456.594 197.57 410.516C170.17 394.696 148.954 372.277 134.769 346.427C161.201 386.978 206.953 413.785 258.967 413.785C340.787 413.785 407.115 347.456 407.115 265.636C407.115 183.817 340.787 117.489 258.968 117.489C208.826 117.489 164.504 142.401 137.699 180.521Z"/>
</mask>
<path d="M137.699 180.521C184.331 102.298 285.313 75.8164 364.435 121.497C444.245 167.576 471.59 269.628 425.512 349.438C379.433 429.248 277.381 456.594 197.57 410.516C170.17 394.696 148.954 372.277 134.769 346.427C161.201 386.978 206.953 413.785 258.967 413.785C340.787 413.785 407.115 347.456 407.115 265.636C407.115 183.817 340.787 117.489 258.968 117.489C208.826 117.489 164.504 142.401 137.699 180.521Z" fill="#041822"/>
<path d="M137.699 180.521L131.686 176.937L143.425 184.548L137.699 180.521ZM364.435 121.497L367.935 115.435L367.935 115.435L364.435 121.497ZM425.512 349.438L431.574 352.938L431.574 352.938L425.512 349.438ZM197.57 410.516L194.07 416.578L194.071 416.578L197.57 410.516ZM134.769 346.427L140.633 342.605L128.632 349.795L134.769 346.427ZM258.967 413.785L258.967 420.785L258.967 420.785L258.967 413.785ZM407.115 265.636L414.115 265.636L414.115 265.636L407.115 265.636ZM258.968 117.489L258.968 110.489L258.967 110.489L258.968 117.489ZM137.699 180.521L143.711 184.106C188.386 109.166 285.133 83.7952 360.935 127.56L364.435 121.497L367.935 115.435C285.494 67.8376 180.276 95.4304 131.686 176.937L137.699 180.521ZM364.435 121.497L360.935 127.56C437.397 171.705 463.595 269.476 419.45 345.938L425.512 349.438L431.574 352.938C479.585 269.78 451.093 163.447 367.935 115.435L364.435 121.497ZM425.512 349.438L419.45 345.938C375.304 422.4 277.532 448.599 201.07 404.453L197.57 410.516L194.071 416.578C277.229 464.589 383.563 436.096 431.574 352.938L425.512 349.438ZM197.57 410.516L201.07 404.453C174.81 389.292 154.492 367.819 140.906 343.06L134.769 346.427L128.632 349.795C143.415 376.735 165.53 400.1 194.07 416.578L197.57 410.516ZM134.769 346.427L128.905 350.25C156.574 392.698 204.488 420.785 258.967 420.785L258.967 413.785L258.967 406.785C209.418 406.785 165.828 381.257 140.633 342.605L134.769 346.427ZM258.967 413.785L258.967 420.785C344.653 420.785 414.115 351.322 414.115 265.636L407.115 265.636L400.115 265.637C400.115 343.59 336.921 406.785 258.967 406.785L258.967 413.785ZM407.115 265.636L414.115 265.636C414.115 179.951 344.653 110.489 258.968 110.489L258.968 117.489L258.967 124.489C336.921 124.489 400.115 187.683 400.115 265.637L407.115 265.636ZM258.968 117.489L258.967 110.489C206.451 110.489 160.032 136.59 131.973 176.495L137.699 180.521L143.425 184.548C168.976 148.211 211.201 124.489 258.968 124.489L258.968 117.489Z" fill="#041822" mask="url(#path-12-inside-1_15751_607)"/>
<mask id="path-14-inside-2_15751_607" fill="white">
<path d="M357.137 326.955C323.897 382.702 251.926 401.573 195.535 369.015C138.649 336.172 119.158 263.433 152.001 206.547C184.844 149.661 257.584 130.171 314.47 163.014C333.999 174.289 349.121 190.266 359.231 208.69C340.391 179.788 307.781 160.683 270.709 160.683C212.39 160.683 165.114 207.96 165.114 266.278C165.114 324.596 212.39 371.871 270.708 371.871C306.443 371.871 338.031 354.12 357.137 326.955Z"/>
</mask>
<path d="M357.137 326.955C323.897 382.702 251.926 401.573 195.535 369.015C138.649 336.172 119.158 263.433 152.001 206.547C184.844 149.661 257.584 130.171 314.47 163.014C333.999 174.289 349.121 190.266 359.231 208.69C340.391 179.788 307.781 160.683 270.709 160.683C212.39 160.683 165.114 207.96 165.114 266.278C165.114 324.596 212.39 371.871 270.708 371.871C306.443 371.871 338.031 354.12 357.137 326.955Z" fill="#041822"/>
<path d="M357.137 326.955L363.15 330.54L351.412 322.928L357.137 326.955ZM195.535 369.015L192.035 375.077L192.035 375.077L195.535 369.015ZM152.001 206.547L145.938 203.047L145.938 203.047L152.001 206.547ZM314.47 163.014L317.97 156.951L317.97 156.951L314.47 163.014ZM359.231 208.69L353.367 212.512L365.368 205.322L359.231 208.69ZM270.709 160.683L270.709 153.683L270.709 153.683L270.709 160.683ZM165.114 266.278L158.114 266.278L158.114 266.278L165.114 266.278ZM270.708 371.871L270.708 378.871L270.708 378.871L270.708 371.871ZM357.137 326.955L351.125 323.37C319.842 375.834 252.107 393.594 199.035 362.953L195.535 369.015L192.035 375.077C251.746 409.552 327.952 389.57 363.15 330.54L357.137 326.955ZM195.535 369.015L199.035 362.953C145.497 332.043 127.153 263.585 158.063 210.047L152.001 206.547L145.938 203.047C111.163 263.281 131.801 340.301 192.035 375.077L195.535 369.015ZM152.001 206.547L158.063 210.047C188.973 156.509 257.432 138.166 310.97 169.076L314.47 163.014L317.97 156.951C257.736 122.175 180.714 142.813 145.938 203.047L152.001 206.547ZM314.47 163.014L310.97 169.076C329.359 179.693 343.583 194.724 353.094 212.057L359.231 208.69L365.368 205.322C354.659 185.808 338.638 168.885 317.97 156.951L314.47 163.014ZM359.231 208.69L365.095 204.867C345.018 174.068 310.246 153.683 270.709 153.683L270.709 160.683L270.708 167.683C305.316 167.683 335.764 185.509 353.367 212.512L359.231 208.69ZM270.709 160.683L270.709 153.683C208.524 153.683 158.114 204.094 158.114 266.278L165.114 266.278L172.114 266.278C172.114 211.826 216.256 167.683 270.709 167.683L270.709 160.683ZM165.114 266.278L158.114 266.278C158.114 328.462 208.524 378.871 270.708 378.871L270.708 371.871L270.708 364.871C216.256 364.871 172.114 320.73 172.114 266.278L165.114 266.278ZM270.708 371.871L270.708 378.871C308.818 378.871 342.502 359.931 362.863 330.982L357.137 326.955L351.412 322.928C333.56 348.309 304.068 364.871 270.708 364.871L270.708 371.871Z" fill="#041822" mask="url(#path-14-inside-2_15751_607)"/>
</g>
<defs>
<clipPath id="clip0_15751_607">
<rect width="530" height="530" rx="265" fill="white"/>
</clipPath>
</defs>
</svg>
