<svg width="530" height="530" viewBox="0 0 530 530" fill="none" xmlns="http://www.w3.org/2000/svg">
<path d="M264.184 182.699C269.652 182.699 274.086 178.266 274.086 172.797C274.086 167.328 269.652 162.895 264.184 162.895C258.715 162.895 254.281 167.328 254.281 172.797C254.281 178.266 258.715 182.699 264.184 182.699Z" fill="#041822"/>
<path d="M264.184 151.327C267.932 151.327 270.97 148.289 270.97 144.542C270.97 140.794 267.932 137.756 264.184 137.756C260.437 137.756 257.398 140.794 257.398 144.542C257.398 148.289 260.437 151.327 264.184 151.327Z" fill="#041822"/>
<path d="M264.183 125.179C266.856 125.179 269.023 123.012 269.023 120.339C269.023 117.667 266.856 115.5 264.183 115.5C261.51 115.5 259.344 117.667 259.344 120.339C259.344 123.012 261.51 125.179 264.183 125.179Z" fill="#041822"/>
<path d="M264.184 346.609C258.715 346.609 254.281 351.043 254.281 356.512C254.281 361.981 258.715 366.414 264.184 366.414C269.653 366.414 274.086 361.981 274.086 356.512C274.086 351.043 269.653 346.609 264.184 346.609Z" fill="#041822"/>
<path d="M264.183 377.981C260.435 377.981 257.397 381.019 257.397 384.767C257.397 388.515 260.435 391.553 264.183 391.553C267.931 391.553 270.969 388.515 270.969 384.767C270.969 381.019 267.931 377.981 264.183 377.981Z" fill="#041822"/>
<path d="M264.184 404.13C261.511 404.13 259.345 406.296 259.345 408.969C259.345 411.642 261.511 413.809 264.184 413.809C266.857 413.809 269.023 411.642 269.023 408.969C269.023 406.296 266.857 404.13 264.184 404.13Z" fill="#041822"/>
<path d="M380.842 130.436C434.296 179.173 479.103 216.983 479.103 274.29C479.103 331.597 432.647 378.054 375.339 378.054C359.909 378.054 345.266 374.686 332.104 368.645C300.471 354.127 265.287 309.664 265.287 309.664C237.165 273.507 211.427 219.97 165.454 209.806C99.5048 195.227 55.7515 279.576 103.636 327.46C131.265 355.089 176.06 355.089 203.689 327.46L239.501 297.5M148.16 415C94.7055 366.262 49.8984 328.453 49.8984 271.146C49.8984 213.838 96.355 167.382 153.662 167.382C169.092 167.382 183.735 170.75 196.897 176.79C228.53 191.309 263.715 235.772 263.715 235.772C291.836 271.928 317.574 325.466 363.548 335.629C429.497 350.209 473.25 265.86 425.366 217.976C397.737 190.347 352.942 190.347 325.313 217.976L290.001 248" stroke="#041822" stroke-width="11.0052"/>
</svg>
