<svg width="530" height="530" viewBox="0 0 530 530" fill="none" xmlns="http://www.w3.org/2000/svg">
<path d="M333.057 259.244C309.028 290.279 302.349 329.258 311.536 364.513" stroke="#041822" stroke-width="7"/>
<path d="M355.869 189.671C355.869 172.676 342.091 158.898 325.096 158.898C308.101 158.898 294.324 172.676 294.324 189.671" stroke="#041822" stroke-width="7"/>
<path d="M251 243L254 182.5L256.558 65.8829C256.558 55.4542 265.013 47 275.441 47C285.87 47 294.324 55.4542 294.324 65.8829L297.5 175.5" stroke="#041822" stroke-width="7"/>
<path d="M288.854 247.55L294.501 188.001" stroke="#041822" stroke-width="7"/>
<path d="M220.191 249.817L227.185 79.8706C227.185 69.4418 235.639 60.9877 246.068 60.9877C249.545 60.6586 256.5 62.3003 256.5 71.5003" stroke="#041822" stroke-width="7"/>
<path d="M241.221 384.095C241.221 412.678 264.391 435.849 292.974 435.849C311.158 435.849 327.151 426.471 336.381 412.288L381.001 343L382.446 334.44V272.022C382.446 260.021 388.001 254.5 376.365 240L362.164 221.143L359.414 188.972C356.849 188.506 350.602 187.993 346.126 189.671C331.455 194.075 325.098 215.03 325.098 228.836C325.098 249.806 337.57 267.863 355.501 275.994" stroke="#041822" stroke-width="7"/>
<path d="M330.001 205.5C319.572 205.5 308.312 196.603 308.312 186.174" stroke="#041822" stroke-width="7"/>
<path d="M215.343 475.013C176.902 420.465 161.468 351.005 175.389 288.282L178.976 266.601L196.414 129.525C196.414 121.028 203.302 114.139 211.8 114.139C214.7 113.926 221.301 116 224.501 126" stroke="#041822" stroke-width="7"/>
<path d="M212.546 473.004C224.446 477.338 239.961 479.638 256.83 478.965C293.478 477.502 322.638 462.561 321.961 445.592L319.501 429.001" stroke="#041822" stroke-width="7"/>
<path d="M292.178 94.1488C386.537 109.159 450.863 197.82 435.853 292.178M94.1489 237.823C82.185 313.034 120.624 384.624 184.501 418.184" stroke="#041822" stroke-width="7"/>
</svg>
