<svg width="530" height="530" viewBox="0 0 530 530" fill="none" xmlns="http://www.w3.org/2000/svg">
<circle cx="264.999" cy="265.001" r="158.829" stroke="#041822" stroke-width="2"/>
<path d="M133.543 257.433C135.397 224.723 149.191 195.207 170.636 173.173M133.543 272.568C135.397 305.278 149.191 334.794 170.636 356.827M396.458 272.946C394.52 305.505 380.749 334.879 359.386 356.827M396.458 257.055C394.52 224.495 380.749 195.122 359.386 173.173M273.336 133.588C305.738 135.609 334.964 149.347 356.827 170.615M257.443 133.543C224.729 135.396 195.209 149.191 173.173 170.636M272.958 396.436C305.511 394.498 334.879 380.736 356.827 359.386M257.443 396.458C224.729 394.604 195.209 380.81 173.173 359.364" stroke="#041822" stroke-width="7"/>
<path d="M178.074 275.676L163.795 274.705L135.236 272.764L21 265L135.236 257.236L163.795 255.295L170.935 254.81M252.869 199.494L253.354 192.354L257.236 135.236L265 21L272.764 135.236L276.646 192.354L277.131 199.494M359.065 254.81L366.205 255.295L394.764 257.236L509 265L394.764 272.764L366.205 274.705L351.926 275.676M254.391 355.932L254.81 359.065L255.295 366.205L257.236 394.764L265 509L272.764 394.764L274.705 366.205L275.19 359.065L275.609 355.174" stroke="#041822" stroke-width="7"/>
<path d="M203.408 197.312L196.564 191.34L182.877 179.395L155.503 155.505L179.393 182.879L191.338 196.566L195.286 201.349M335.676 199.988L338.662 196.566L350.607 182.879L374.497 155.505L347.123 179.395L333.436 191.34L326.592 197.312M209.256 312.907L203.283 319.75L155.503 374.499L210.252 326.718L217.095 320.746M312.905 320.746L319.748 326.718L374.497 374.499L326.717 319.75L320.744 312.907" stroke="#041822" stroke-width="2"/>
<mask id="path-6-inside-1_15751_149" fill="white">
<path d="M183.409 206.899C205.82 184.488 242.064 184.342 264.655 206.46C287.248 184.366 323.475 184.52 345.878 206.923C368.436 229.481 368.435 266.055 345.877 288.613C345.81 288.68 345.742 288.747 345.675 288.814L345.677 288.815L264.685 369.806L264.631 369.752L264.601 369.782L183.609 288.791L183.611 288.789C183.544 288.723 183.476 288.657 183.409 288.59C160.851 266.032 160.851 229.457 183.409 206.899Z"/>
</mask>
<path fill-rule="evenodd" clip-rule="evenodd" d="M183.409 206.899L178.459 201.949L178.459 201.949L183.409 206.899ZM264.655 206.46L259.758 211.462L264.652 216.254L269.549 211.465L264.655 206.46ZM345.878 206.923L350.828 201.973L350.827 201.973L345.878 206.923ZM345.877 288.613L350.826 293.563L350.826 293.563L345.877 288.613ZM345.675 288.814L340.749 283.84L333.813 290.709L342.544 295.075L345.675 288.814ZM345.677 288.815L350.626 293.764L357.494 286.897L348.807 282.554L345.677 288.815ZM264.685 369.806L259.78 374.8L264.73 379.661L269.635 374.756L264.685 369.806ZM264.631 369.752L269.536 364.758L264.504 359.817L259.6 364.884L264.631 369.752ZM264.601 369.782L259.652 374.732L264.683 379.764L269.632 374.65L264.601 369.782ZM183.609 288.791L178.659 283.841L173.71 288.791L178.659 293.741L183.609 288.791ZM183.611 288.789L188.561 293.739L193.535 288.765L188.537 283.816L183.611 288.789ZM183.409 288.59L178.459 293.54L178.459 293.54L183.409 288.59ZM183.409 206.899L188.359 211.848C208.053 192.154 239.905 192.026 259.758 211.462L264.655 206.46L269.552 201.458C244.222 176.659 203.586 176.822 178.459 201.949L183.409 206.899ZM264.655 206.46L269.549 211.465C289.403 192.049 321.24 192.185 340.928 211.873L345.878 206.923L350.827 201.973C325.709 176.855 285.093 176.683 259.761 201.455L264.655 206.46ZM345.878 206.923L340.928 211.873C360.752 231.697 360.752 263.839 340.927 283.664L345.877 288.613L350.826 293.563C376.118 268.271 376.119 227.265 350.828 201.973L345.878 206.923ZM345.877 288.613L340.927 283.663C340.874 283.717 340.851 283.739 340.749 283.84L345.675 288.814L350.6 293.787C350.633 293.755 350.746 293.644 350.826 293.563L345.877 288.613ZM345.675 288.814L342.544 295.075L342.546 295.076L345.677 288.815L348.807 282.554L348.805 282.553L345.675 288.814ZM345.677 288.815L340.727 283.865L259.736 364.856L264.685 369.806L269.635 374.756L350.626 293.764L345.677 288.815ZM264.685 369.806L269.59 364.812L269.536 364.758L264.631 369.752L259.726 374.746L259.78 374.8L264.685 369.806ZM264.631 369.752L259.6 364.884L259.571 364.914L264.601 369.782L269.632 374.65L269.661 374.62L264.631 369.752ZM264.601 369.782L269.551 364.833L188.559 283.841L183.609 288.791L178.659 293.741L259.652 374.732L264.601 369.782ZM183.609 288.791L188.559 293.741L188.561 293.739L183.611 288.789L178.661 283.839L178.659 283.841L183.609 288.791ZM183.611 288.789L188.537 283.816C188.356 283.636 188.443 283.724 188.359 283.64L183.409 288.59L178.459 293.54C178.519 293.599 178.573 293.653 178.609 293.687C178.651 293.729 178.667 293.745 178.685 293.763L183.611 288.789ZM183.409 288.59L188.359 283.64C168.534 263.816 168.534 231.673 188.359 211.848L183.409 206.899L178.459 201.949C153.167 227.241 153.167 268.248 178.459 293.54L183.409 288.59Z" fill="#041822" mask="url(#path-6-inside-1_15751_149)"/>
<path d="M225.523 247.375L303.53 247.375L264.527 299.491L225.523 247.375Z" stroke="#041822" stroke-width="4"/>
</svg>
