<svg width="530" height="530" viewBox="0 0 530 530" fill="none" xmlns="http://www.w3.org/2000/svg">
<path opacity="0.5" d="M240 254L103 254" stroke="#041822" stroke-width="3.25384" stroke-miterlimit="10" stroke-linejoin="round"/>
<path opacity="0.5" d="M437 254L291 254" stroke="#041822" stroke-width="3.25384" stroke-miterlimit="10" stroke-linejoin="round"/>
<path d="M437.999 254C437.999 268.359 449.632 280 463.981 280C478.33 280 489.963 268.359 489.963 254C489.963 239.641 478.33 228 463.981 228C449.632 228 437.999 239.641 437.999 254Z" fill="#041822" stroke="#041822" stroke-width="6.50768" stroke-miterlimit="10" stroke-linejoin="round"/>
<path d="M320.999 212C320.999 226.359 332.632 238 346.981 238C361.33 238 372.963 226.359 372.963 212C372.963 197.641 361.33 186 346.981 186C332.632 186 320.999 197.641 320.999 212Z" fill="#041822" stroke="#041822" stroke-width="6.50768" stroke-miterlimit="10" stroke-linejoin="round"/>
<path d="M239.999 68C239.999 82.3594 251.632 94 265.981 94C280.33 94 291.963 82.3594 291.963 68C291.963 53.6406 280.33 42 265.981 42C251.632 42 239.999 53.6406 239.999 68Z" fill="#041822" stroke="#041822" stroke-width="6.50768" stroke-miterlimit="10" stroke-linejoin="round"/>
<path d="M239.999 166C239.999 180.359 251.632 192 265.981 192C280.33 192 291.963 180.359 291.963 166C291.963 151.641 280.33 140 265.981 140C251.632 140 239.999 151.641 239.999 166Z" fill="#041822" stroke="#041822" stroke-width="6.50768" stroke-miterlimit="10" stroke-linejoin="round"/>
<path d="M159.999 212C159.999 226.359 171.632 238 185.981 238C200.33 238 211.963 226.359 211.963 212C211.963 197.641 200.33 186 185.981 186C171.632 186 159.999 197.641 159.999 212Z" fill="#041822" stroke="#041822" stroke-width="6.50768" stroke-miterlimit="10" stroke-linejoin="round"/>
<path d="M89 270L253 436" stroke="#041822" stroke-width="3.25384" stroke-miterlimit="10" stroke-linejoin="round"/>
<path d="M285 86L449 238" stroke="#041822" stroke-width="3.25384" stroke-miterlimit="10" stroke-linejoin="round"/>
<path d="M207.506 212.66L323.999 212" stroke="#041822" stroke-width="3.25384" stroke-miterlimit="10" stroke-linejoin="round"/>
<path d="M251 89L222.792 140.322L195 192" stroke="#041822" stroke-width="3.25384" stroke-miterlimit="10" stroke-linejoin="round"/>
<path d="M278 90L336 192" stroke="#041822" stroke-width="3.25384" stroke-miterlimit="10" stroke-linejoin="round"/>
<path opacity="0.5" d="M267 96L265.797 141" stroke="#041822" stroke-width="3.25384" stroke-miterlimit="10" stroke-linejoin="round"/>
<path opacity="0.5" d="M204 201L246 176" stroke="#041822" stroke-width="3.25384" stroke-miterlimit="10" stroke-linejoin="round"/>
<path opacity="0.5" d="M329 202L285 176" stroke="#041822" stroke-width="3.25384" stroke-miterlimit="10" stroke-linejoin="round"/>
<path d="M266 280C280.359 280 292 268.359 292 254C292 239.641 280.359 228 266 228C251.641 228 240 239.641 240 254C240 268.359 251.641 280 266 280Z" fill="#041822" stroke="#041822" stroke-width="6.50768" stroke-miterlimit="10" stroke-linejoin="round"/>
<path d="M266 379C280.359 379 292 367.359 292 353C292 338.641 280.359 327 266 327C251.641 327 240 338.641 240 353C240 367.359 251.641 379 266 379Z" fill="#041822" stroke="#041822" stroke-width="6.50768" stroke-miterlimit="10" stroke-linejoin="round"/>
<path d="M350 333C364.359 333 376 321.359 376 307C376 292.641 364.359 281 350 281C335.641 281 324 292.641 324 307C324 321.359 335.641 333 350 333Z" fill="#041822" stroke="#041822" stroke-width="6.50768" stroke-miterlimit="10" stroke-linejoin="round"/>
<path d="M77 280C91.3594 280 103 268.359 103 254C103 239.641 91.3594 228 77 228C62.6406 228 51 239.641 51 254C51 268.359 62.6406 280 77 280Z" fill="#041822" stroke="#041822" stroke-width="6.50768" stroke-miterlimit="10" stroke-linejoin="round"/>
<path d="M186 333C200.359 333 212 321.359 212 307C212 292.641 200.359 281 186 281C171.641 281 160 292.641 160 307C160 321.359 171.641 333 186 333Z" fill="#041822" stroke="#041822" stroke-width="6.50768" stroke-miterlimit="10" stroke-linejoin="round"/>
<path d="M266 473C280.359 473 292 461.359 292 447C292 432.641 280.359 421 266 421C251.641 421 240 432.641 240 447C240 461.359 251.641 473 266 473Z" fill="#041822" stroke="#041822" stroke-width="6.50768" stroke-miterlimit="10" stroke-linejoin="round"/>
<path d="M201 305H331" stroke="#041822" stroke-width="3.25384" stroke-miterlimit="10" stroke-linejoin="round"/>
<path d="M246 342L204 318" stroke="#041822" stroke-width="3.25384" stroke-miterlimit="10" stroke-linejoin="round"/>
<path d="M331 298L206 222" stroke="#041822" stroke-width="3.25384" stroke-miterlimit="10" stroke-linejoin="round"/>
<path d="M266 377L266 421" stroke="#041822" stroke-width="3.25384" stroke-miterlimit="10" stroke-linejoin="round"/>
</svg>
