<svg width="530" height="530" viewBox="0 0 530 530" fill="none" xmlns="http://www.w3.org/2000/svg" xmlns:xlink="http://www.w3.org/1999/xlink">
<g clip-path="url(#clip0_15751_635)">
<g id="Repeat group 2_inner" data-figma-trr="r4u1-0f">
<path d="M125.011 235.643C127.18 234.51 129.303 233.341 131.366 232.138C147.698 247.524 175.944 248.105 197.888 234.141L201.647 240.046C177.308 255.534 144.652 255.353 125.562 236.264L125.492 236.193L125.426 236.119C125.286 235.962 125.149 235.801 125.011 235.643Z" fill="#041822"/>
<path d="M119.567 228.326C121.688 227.241 123.752 226.129 125.747 224.991C126.994 226.944 128.391 228.833 129.947 230.65C127.916 231.825 125.826 232.969 123.688 234.079C122.172 232.216 120.801 230.295 119.567 228.326Z" fill="#041822"/>
<path d="M159.635 90.2219C184.63 65.2279 214.854 57.1373 247.108 56.8167L247.177 63.8159C216.123 64.1246 187.896 71.8612 164.585 95.1717C148.87 110.887 131.915 135.902 123.226 161.694C115.745 183.903 114.598 205.959 124.703 223.284C122.716 224.417 120.653 225.526 118.531 226.609C107.107 206.875 108.851 182.439 116.592 159.458C125.662 132.537 143.241 106.617 159.635 90.2219Z" fill="#041822"/>
<path d="M199.745 232.203C199.755 232.195 199.772 232.181 199.793 232.165C199.836 232.13 199.903 232.078 199.991 232.008C200.168 231.868 200.432 231.657 200.774 231.38C201.458 230.826 202.456 230.007 203.695 228.96C206.175 226.864 209.616 223.859 213.448 220.23C217.987 215.932 223.016 210.812 227.636 205.335C228.965 206.482 230.263 207.686 231.525 208.948C231.928 209.351 232.323 209.759 232.714 210.169C227.922 215.818 222.798 221.017 218.261 225.312C214.315 229.049 210.772 232.144 208.213 234.307C206.933 235.388 205.897 236.238 205.178 236.82C204.818 237.111 204.538 237.336 204.346 237.489C204.25 237.565 204.175 237.624 204.124 237.664C204.099 237.684 204.079 237.699 204.065 237.71C204.059 237.715 204.053 237.72 204.049 237.723C204.047 237.724 204.044 237.727 204.044 237.728L204.042 237.728L199.733 232.212L199.735 232.21C199.737 232.209 199.741 232.206 199.745 232.203ZM233.196 198.246C234.804 199.619 236.369 201.065 237.889 202.584C238.045 202.74 238.199 202.899 238.354 203.056C236.967 204.944 235.507 206.806 234.006 208.626C233.655 208.259 233.3 207.895 232.939 207.534C231.633 206.228 230.29 204.983 228.913 203.797C230.405 201.975 231.843 200.12 233.196 198.246ZM144.113 123.935C148.426 122.039 152.803 120.326 157.206 118.842C184.043 109.802 212.867 108.939 233.867 127.676L233.941 127.742L234.012 127.812C252.79 146.591 255.929 175.566 242.328 197.233C241.449 198.634 240.514 200.027 239.539 201.41C239.46 201.33 239.382 201.249 239.303 201.17C237.702 199.569 236.05 198.049 234.354 196.608C235.065 195.578 235.75 194.546 236.4 193.511C248.226 174.67 245.567 149.332 229.129 132.832C210.913 116.643 185.281 116.772 159.442 125.476C151.995 127.985 144.613 131.183 137.501 134.841C139.6 131.099 141.817 127.453 144.113 123.935ZM87.97 161.886C97.7874 152.068 111.021 141.827 125.84 133.241C123.79 137.091 121.862 141.025 120.09 145.016C109.589 151.917 100.244 159.511 92.9197 166.835C70.4189 189.336 62.4296 216.418 61.624 246.202C61.6201 246.203 61.6162 246.203 61.6123 246.204C61.5817 247.216 61.5652 248.002 61.5798 248.249C61.5735 248.641 61.5679 249.034 61.5639 249.427L54.4549 249.467L54.593 247.384C55.2218 215.872 63.4866 186.369 87.97 161.886ZM129.126 131.378C132.924 129.275 136.813 127.287 140.766 125.448C138.505 129.035 136.333 132.742 134.285 136.537C130.49 138.585 126.783 140.757 123.196 143.018C125.035 139.065 127.023 135.176 129.126 131.378Z" fill="#041822"/>
<path d="M254.13 265.592C256.471 265.675 258.816 265.661 261.156 265.545C261.095 266.336 261.024 267.126 260.94 267.915L253.98 267.171C254.036 266.645 254.085 266.118 254.13 265.592ZM254.344 256.595C256.678 256.681 259.014 256.657 261.346 256.522C261.427 258.86 261.409 261.201 261.287 263.537C258.951 263.659 256.61 263.678 254.272 263.596C254.407 261.264 254.431 258.928 254.344 256.595ZM193.789 183.518C195.971 183.292 198.759 183.176 201.746 183.35C205.849 183.59 210.608 184.393 214.743 186.429C223.13 190.294 230.986 195.68 237.89 202.583C252.338 217.031 260.122 235.62 261.251 254.524C258.917 254.66 256.578 254.682 254.242 254.589C253.137 237.449 246.036 220.63 232.94 207.533C226.617 201.21 219.431 196.288 211.765 192.762L211.72 192.742L211.676 192.72C208.704 191.251 204.969 190.551 201.338 190.339C197.756 190.13 194.548 190.41 192.769 190.711C192.318 190.797 191.868 190.889 191.418 190.984C192.069 188.462 192.858 185.969 193.789 183.518ZM183.527 185.777C185.685 185.131 187.865 184.576 190.061 184.115L191.489 183.829L191.522 183.822L191.545 183.819C190.631 186.337 189.86 188.895 189.231 191.481C186.645 192.11 184.087 192.881 181.568 193.795L181.572 193.772L181.579 193.739L181.865 192.311C182.326 190.115 182.881 187.935 183.527 185.777ZM54.5736 249.44C67.2271 247.642 84.9057 242.964 101.89 236.256C118.948 229.519 134.86 220.907 144.322 211.445L149.86 205.906C158.983 196.783 169.763 190.316 181.231 186.503C180.86 187.824 180.522 189.152 180.218 190.486L179.908 191.9L179.906 191.91L179.904 191.919L179.622 193.331L179.615 193.364L179.607 193.404L179.6 193.443L179.595 193.469L179.518 193.943C179.485 194.156 179.455 194.38 179.424 194.612C170.465 198.187 162.067 203.599 154.81 210.856L149.271 216.395C138.784 226.882 121.797 235.92 104.462 242.767C87.0536 249.642 68.8417 254.483 55.5597 256.37L54.5736 249.44Z" fill="#041822"/>
<path d="M221.733 129.73C223.683 130.979 225.562 132.385 227.366 133.951C223.298 140.751 218.869 146.797 214.144 151.521L208.606 157.06C197.835 167.831 191.123 181.113 188.461 195.02C188.16 196.799 187.88 200.006 188.089 203.588C188.301 207.22 189 210.954 190.47 213.926L190.492 213.97L190.512 214.015C192.999 219.421 196.179 224.588 200.056 229.383C202.159 231.87 203.849 233.716 207.606 237.417C223.644 252.126 244.642 258.398 264.921 256.23L265.665 263.19C242.376 265.679 218.192 257.998 200.333 240.14C193.43 233.236 188.044 225.38 184.179 216.993C182.143 212.858 181.34 208.099 181.1 203.996C180.859 199.855 181.175 196.096 181.566 193.806L181.572 193.772L181.579 193.739L181.865 192.311C184.956 177.579 192.222 163.544 203.656 152.11L209.195 146.572C213.592 142.174 217.805 136.382 221.733 129.73Z" fill="#041822"/>
<path d="M199.735 232.21C199.737 232.208 199.741 232.205 199.745 232.202L199.793 232.164L199.991 232.007L200.774 231.38L201.334 230.92C202.583 232.382 203.899 233.807 205.283 235.19C205.567 235.474 205.852 235.754 206.139 236.032C205.774 236.332 205.453 236.597 205.178 236.82C204.819 237.11 204.538 237.336 204.346 237.489C204.25 237.565 204.175 237.623 204.124 237.663C204.099 237.683 204.079 237.699 204.065 237.71C204.059 237.715 204.053 237.719 204.049 237.722L204.044 237.727L204.042 237.728L199.733 232.212L199.735 232.21Z" fill="#041822"/>
<path d="M226.073 121.815C228.043 123.05 229.964 124.421 231.827 125.938C230.717 128.076 229.573 130.166 228.398 132.196C226.581 130.641 224.692 129.244 222.738 127.997C223.876 126.002 224.989 123.937 226.073 121.815Z" fill="#041822"/>
<path d="M254.12 57.8098C252.232 71.0918 247.392 89.3037 240.517 106.712C238.176 112.637 235.579 118.522 232.756 124.12C230.881 122.615 228.954 121.251 226.979 120.021C229.491 114.962 231.846 109.61 234.006 104.14C240.714 87.1558 245.392 69.4771 247.19 56.8237L254.12 57.8098Z" fill="#041822"/>
</g>
<use xlink:href="#Repeat%20group%202_inner" transform="translate(528.855 2.25015) rotate(90)"/>
<use xlink:href="#Repeat%20group%202_inner" transform="translate(526.605 531.106) rotate(-180)"/>
<use xlink:href="#Repeat%20group%202_inner" transform="translate(-2.25014 528.855) rotate(-90)"/>
</g>
<defs>
<clipPath id="clip0_15751_635">
<rect width="530" height="530" rx="265" fill="white"/>
</clipPath>
</defs>
</svg>
