<svg width="530" height="530" viewBox="0 0 530 530" fill="none" xmlns="http://www.w3.org/2000/svg">
<g clip-path="url(#clip0_15751_700)">
<g clip-path="url(#clip1_15751_700)">
<path d="M123.514 382.724L120.768 379.816L82.1544 416.298L84.9012 419.205L123.514 382.724Z" fill="#041822"/>
<path d="M119.281 388L116.686 317.555L112.69 317.702L115.285 388.147L119.281 388Z" fill="#041822"/>
<path d="M97.7984 382.009C97.799 392.771 106.523 401.495 117.284 401.495C128.045 401.495 136.767 392.771 136.767 382.009C136.766 371.247 128.042 362.523 117.282 362.523C106.521 362.523 97.7978 371.247 97.7984 382.009Z" fill="#041822"/>
<path d="M74.9247 415.53C74.9252 423.642 81.5005 430.217 89.6111 430.217C97.7216 430.217 104.296 423.642 104.296 415.53C104.295 407.419 97.72 400.844 89.6094 400.844C81.4988 400.844 74.9242 407.419 74.9247 415.53Z" fill="#041822"/>
<path d="M176.648 160.968L172.664 160.613L168.165 211.161L172.149 211.516L176.648 160.968Z" fill="#041822"/>
<path d="M160.411 165.206C160.411 173.317 166.987 179.893 175.097 179.893C183.208 179.893 189.783 173.317 189.782 165.206C189.782 157.095 183.206 150.52 175.096 150.52C166.985 150.52 160.411 157.095 160.411 165.206Z" fill="#041822"/>
<path d="M182.857 252.962L174.941 219.391L171.048 220.308L178.964 253.88L182.857 252.962Z" fill="#041822"/>
<path d="M167.184 258.265C167.185 266.376 173.76 272.951 181.871 272.951C189.981 272.951 196.556 266.376 196.556 258.265C196.555 250.153 189.98 243.578 181.869 243.578C173.759 243.578 167.184 250.153 167.184 258.265Z" fill="#041822"/>
<path d="M241.604 235.88L238.152 237.902L275.576 301.791L279.028 299.769L241.604 235.88Z" fill="#041822"/>
<path d="M229.319 243.107L225.867 245.129L263.291 309.018L266.743 306.996L229.319 243.107Z" fill="#041822"/>
<path d="M420.124 243.872L416.625 241.934L380.746 306.699L384.245 308.638L420.124 243.872Z" fill="#041822"/>
<path d="M407.677 236.954L404.178 235.016L368.299 299.781L371.798 301.72L407.677 236.954Z" fill="#041822"/>
<path d="M274.206 160.376L270.754 158.355L233.359 222.257L236.811 224.278L274.206 160.376Z" fill="#041822"/>
<path d="M365.464 317.214L365.424 313.215L291.387 313.956L291.427 317.956L365.464 317.214Z" fill="#041822"/>
<path d="M413.253 227.644L416.701 225.617L379.177 161.787L375.729 163.814L413.253 227.644Z" fill="#041822"/>
<path d="M365.62 164.765L365.58 160.766L291.543 161.506L291.583 165.506L365.62 164.765Z" fill="#041822"/>
<path d="M362.903 149.348L362.871 145.348L288.836 145.929L288.868 149.929L362.903 149.348Z" fill="#041822"/>
<path d="M279.684 311.827L276.275 309.734L248.491 355.011L251.9 357.104L279.684 311.827Z" fill="#041822"/>
<path d="M238.218 353.126C238.219 361.624 245.108 368.513 253.606 368.513C262.103 368.513 268.992 361.624 268.991 353.126C268.991 344.627 262.102 337.738 253.604 337.738C245.106 337.738 238.218 344.627 238.218 353.126Z" fill="#041822"/>
<path d="M255.921 315.249C255.922 327.163 265.58 336.822 277.494 336.822C289.407 336.822 299.064 327.163 299.064 315.249C299.063 303.334 289.405 293.676 277.491 293.676C265.578 293.676 255.92 303.334 255.921 315.249Z" fill="#041822"/>
<path d="M227.773 226.481L176.064 214.305L175.148 218.198L226.856 230.375L227.773 226.481Z" fill="#041822"/>
<path d="M209.009 232.538C209.01 244.452 218.668 254.111 230.582 254.111C242.495 254.111 252.152 244.452 252.152 232.538C252.151 220.623 242.493 210.965 230.579 210.965C218.666 210.965 209.009 220.623 209.009 232.538Z" fill="#041822"/>
<path d="M279.824 156.305L250.557 111.969L247.219 114.173L276.486 158.508L279.824 156.305Z" fill="#041822"/>
<path d="M236.629 117.278C236.629 125.776 243.518 132.666 252.016 132.666C260.514 132.666 267.402 125.776 267.401 117.278C267.401 108.78 260.512 101.891 252.014 101.891C243.517 101.891 236.628 108.78 236.629 117.278Z" fill="#041822"/>
<path d="M254.659 154.944C254.66 166.858 264.318 176.517 276.232 176.517C288.145 176.517 297.803 166.858 297.802 154.944C297.801 143.03 288.143 133.371 276.229 133.371C264.316 133.371 254.659 143.03 254.659 154.944Z" fill="#041822"/>
<path d="M391.877 108.663L388.246 106.988L366.013 155.235L369.644 156.909L391.877 108.663Z" fill="#041822"/>
<path d="M372.603 113.794C372.604 122.292 379.493 129.181 387.991 129.181C396.488 129.181 403.376 122.292 403.376 113.794C403.375 105.295 396.486 98.4062 387.989 98.4062C379.491 98.4062 372.603 105.295 372.603 113.794Z" fill="#041822"/>
<path d="M347.189 154.229C347.189 166.144 356.848 175.802 368.761 175.802C380.675 175.802 390.332 166.144 390.331 154.229C390.331 142.315 380.672 132.656 368.759 132.656C356.845 132.656 347.188 142.315 347.189 154.229Z" fill="#041822"/>
<path d="M391.908 355.467L368.082 307.984L364.509 309.778L388.334 357.261L391.908 355.467Z" fill="#041822"/>
<path d="M374.218 354.751C374.219 363.249 381.108 370.138 389.606 370.138C398.103 370.138 404.992 363.249 404.991 354.751C404.991 346.253 398.101 339.363 389.604 339.363C381.106 339.363 374.218 346.253 374.218 354.751Z" fill="#041822"/>
<path d="M348.431 314.51C348.432 326.425 358.09 336.083 370.003 336.083C381.917 336.083 391.574 326.425 391.573 314.51C391.573 302.596 381.914 292.938 370.001 292.938C358.088 292.938 348.43 302.596 348.431 314.51Z" fill="#041822"/>
<path d="M520.459 280.06L488.459 234.562L485.187 236.864L517.187 282.361L520.459 280.06Z" fill="#041822"/>
<path d="M489.622 233.061L415.84 231.773L415.77 235.773L489.552 237.061L489.622 233.061Z" fill="#041822"/>
<path d="M394.08 234.014C394.08 245.929 403.739 255.587 415.652 255.587C427.566 255.587 437.223 245.929 437.222 234.014C437.221 222.1 427.563 212.441 415.65 212.441C403.736 212.441 394.079 222.1 394.08 234.014Z" fill="#041822"/>
<path d="M464.791 237.607C464.791 248.873 473.924 258.007 485.19 258.007C496.456 258.007 505.588 248.873 505.587 237.607C505.586 226.34 496.453 217.207 485.188 217.207C473.922 217.207 464.79 226.34 464.791 237.607Z" fill="#041822"/>
<path d="M498.904 277.751C498.905 286.249 505.794 293.138 514.291 293.138C522.789 293.138 529.677 286.249 529.677 277.751C529.676 269.252 522.787 262.363 514.29 262.363C505.792 262.363 498.904 269.252 498.904 277.751Z" fill="#041822"/>
<path d="M116.679 246.887L109.879 176.723L105.898 177.108L112.698 247.272L116.679 246.887Z" fill="#041822"/>
<path d="M172.017 215.438L170.439 211.762L105.663 239.554L107.24 243.23L172.017 215.438Z" fill="#041822"/>
<path d="M117.504 313.666L113.975 243.262L109.981 243.462L113.51 313.867L117.504 313.666Z" fill="#041822"/>
<path d="M106.578 241.099L106.295 237.109L55.6782 240.702L55.9616 244.692L106.578 241.099Z" fill="#041822"/>
<path d="M45.2784 240.589C45.2789 248.7 51.854 255.276 59.9646 255.276C68.0752 255.276 74.6497 248.7 74.6493 240.589C74.6488 232.478 68.0735 225.902 59.9629 225.902C51.8523 225.902 45.2779 232.478 45.2784 240.589Z" fill="#041822"/>
<path d="M93.9826 239.692C93.9832 251.067 103.205 260.289 114.58 260.289C125.955 260.289 135.176 251.067 135.175 239.692C135.174 228.316 125.953 219.094 114.578 219.094C103.203 219.094 93.9819 228.316 93.9826 239.692Z" fill="#041822"/>
<path d="M94.6601 324.059C94.6608 335.435 103.883 344.657 115.258 344.657C126.633 344.657 135.853 335.435 135.853 324.059C135.852 312.683 126.63 303.461 115.255 303.461C103.88 303.461 94.6595 312.683 94.6601 324.059Z" fill="#041822"/>
<path d="M99.6544 317.317C99.4868 316.246 97.5673 315.405 95.2822 315.401L58.1723 315.194C58.1114 315.192 58.0505 315.191 58.0048 315.191C55.9177 315.191 54.2116 315.995 54.2117 316.972C54.2117 317.004 54.2117 317.035 54.2117 317.067C54.3945 318.135 56.2988 318.971 58.5839 318.983L95.709 319.19C95.7547 319.191 95.8156 319.191 95.8613 319.191C97.9483 319.191 99.6545 318.388 99.6544 317.411C99.6544 317.38 99.6544 317.348 99.6544 317.317Z" fill="#041822"/>
<path d="M99.9689 326.784C99.786 325.717 97.8817 324.882 95.5966 324.871L58.5325 324.642C58.4716 324.641 58.4259 324.641 58.3802 324.641C56.2932 324.641 54.5871 325.443 54.5871 326.418C54.5871 326.452 54.5871 326.486 54.5871 326.52C54.77 327.586 56.6743 328.421 58.9593 328.433L96.0844 328.64C96.1149 328.64 96.13 328.641 96.1605 328.641C98.2475 328.641 99.9689 327.835 99.9689 326.856C99.9689 326.832 99.9689 326.807 99.9689 326.784Z" fill="#041822"/>
<path d="M42.9918 324.091C42.9924 334.853 51.7161 343.577 62.4769 343.577C73.2378 343.577 81.9607 334.853 81.9601 324.091C81.9595 313.329 73.2356 304.605 62.4747 304.605C51.7139 304.605 42.9912 313.329 42.9918 324.091Z" fill="#041822"/>
<path d="M102.45 163.628L55.8164 134.934L53.7205 138.341L100.354 167.035L102.45 163.628Z" fill="#041822"/>
<path d="M44.3447 136.823C44.3452 145.187 51.1252 151.967 59.4882 151.967C67.8512 151.967 74.6302 145.187 74.6298 136.823C74.6293 128.46 67.8495 121.68 59.4865 121.68C51.1235 121.68 44.3442 128.46 44.3447 136.823Z" fill="#041822"/>
<path d="M143.76 117.657L140.412 115.469L110.469 161.308L113.817 163.497L143.76 117.657Z" fill="#041822"/>
<path d="M124.347 121.964C124.347 130.328 131.127 137.108 139.49 137.108C147.853 137.108 154.632 130.328 154.632 121.964C154.631 113.6 147.851 106.82 139.488 106.82C131.125 106.82 124.346 113.6 124.347 121.964Z" fill="#041822"/>
<path d="M85.2936 167.232C85.2943 179.6 95.321 189.627 107.689 189.627C120.057 189.627 130.082 179.6 130.081 167.232C130.081 154.863 120.054 144.836 107.686 144.836C95.3185 144.836 85.2929 154.863 85.2936 167.232Z" fill="#041822"/>
<path d="M151.67 214.891C151.671 226.267 160.893 235.489 172.268 235.489C183.643 235.489 192.863 226.267 192.862 214.891C192.862 203.515 183.64 194.293 172.265 194.293C160.89 194.293 151.669 203.515 151.67 214.891Z" fill="#041822"/>
</g>
</g>
<defs>
<clipPath id="clip0_15751_700">
<rect width="530" height="530" rx="265" fill="white"/>
</clipPath>
<clipPath id="clip1_15751_700">
<rect width="486.742" height="486.742" fill="white" transform="matrix(0.999961 0 5.6752e-05 1.00004 43 21)"/>
</clipPath>
</defs>
</svg>
