<svg width="530" height="530" viewBox="0 0 530 530" fill="none" xmlns="http://www.w3.org/2000/svg">
<path d="M255.467 71.1533C289.73 117.703 301.354 148.83 302.817 170.938C304.372 194.42 294.535 208.196 286.679 220.561C282.863 226.565 277.179 233.972 270.436 242.646C263.728 251.273 256.033 261.079 248.337 271.74C232.963 293.039 217.406 317.988 209.436 344.398C201.232 371.58 211.883 399.762 224.06 420.7C229.981 430.882 236.358 439.512 241.365 445.714C187.155 421.124 151.241 392.511 147.741 343.779C146.813 330.856 150.453 315.415 156.942 298.93C163.411 282.495 172.601 265.294 182.49 248.938C202.308 216.159 224.606 187.274 233.217 174.764C241.666 162.487 250.126 150.412 254.679 132.811C258.637 117.509 259.6 98.2419 255.467 71.1533Z" stroke="#041822" stroke-width="6.21531" stroke-linejoin="round"/>
<path d="M269.337 418.6C269.337 418.6 253.648 388.657 283.717 350.899C313.786 313.144 329.476 298.821 338.629 268.878C347.779 238.935 339.935 203.781 322.94 186.857" stroke="#041822" stroke-width="3.55161" stroke-linejoin="round"/>
<path d="M366.087 257.594C367.096 259.256 368.167 261.078 369.256 263.031C374.527 272.486 380.14 284.761 381.995 296.552C385.779 320.593 377.16 341.839 364.322 359.827C351.462 377.846 334.571 392.309 322.271 402.703C309.692 413.331 301.404 424.303 296.251 432.642C295.219 434.311 294.314 435.876 293.523 437.312C291.538 414.625 299.356 396.292 311.062 377.697C317.805 366.985 325.694 356.4 333.781 344.741C341.818 333.155 349.925 320.676 356.817 306.515C363.952 291.855 365.934 276.44 366.162 264.782C366.213 262.193 366.173 259.781 366.087 257.594Z" stroke="#041822" stroke-width="6.21531" stroke-linejoin="round"/>
<path d="M438 265.001C438 188.127 387.86 122.965 318.5 100.432M92 265.001C92 188.127 142.14 122.965 211.5 100.432" stroke="#041822" stroke-width="4"/>
<path d="M92 264.912C92 341.785 142.14 406.948 211.5 429.48M438 264.912C438 341.785 387.86 406.948 318.5 429.48" stroke="#041822" stroke-width="4"/>
</svg>
