<svg width="530" height="530" viewBox="0 0 530 530" fill="none" xmlns="http://www.w3.org/2000/svg">
<path opacity="0.5" d="M234 261L97 261" stroke="#041822" stroke-width="3.25384" stroke-miterlimit="10" stroke-linejoin="round"/>
<path opacity="0.5" d="M431 261L285 261" stroke="#041822" stroke-width="3.25384" stroke-miterlimit="10" stroke-linejoin="round"/>
<path d="M431.999 261C431.999 275.359 443.632 287 457.981 287C472.33 287 483.963 275.359 483.963 261C483.963 246.641 472.33 235 457.981 235C443.632 235 431.999 246.641 431.999 261Z" fill="#041822" stroke="#041822" stroke-width="6.50768" stroke-miterlimit="10" stroke-linejoin="round"/>
<path d="M314.999 219C314.999 233.359 326.632 245 340.981 245C355.33 245 366.963 233.359 366.963 219C366.963 204.641 355.33 193 340.981 193C326.632 193 314.999 204.641 314.999 219Z" fill="#041822" stroke="#041822" stroke-width="6.50768" stroke-miterlimit="10" stroke-linejoin="round"/>
<path d="M233.999 75C233.999 89.3594 245.632 101 259.981 101C274.33 101 285.963 89.3594 285.963 75C285.963 60.6406 274.33 49 259.981 49C245.632 49 233.999 60.6406 233.999 75Z" fill="#041822" stroke="#041822" stroke-width="6.50768" stroke-miterlimit="10" stroke-linejoin="round"/>
<path d="M233.999 173C233.999 187.359 245.632 199 259.981 199C274.33 199 285.963 187.359 285.963 173C285.963 158.641 274.33 147 259.981 147C245.632 147 233.999 158.641 233.999 173Z" fill="#041822" stroke="#041822" stroke-width="6.50768" stroke-miterlimit="10" stroke-linejoin="round"/>
<path d="M153.999 219C153.999 233.359 165.632 245 179.981 245C194.33 245 205.963 233.359 205.963 219C205.963 204.641 194.33 193 179.981 193C165.632 193 153.999 204.641 153.999 219Z" fill="#041822" stroke="#041822" stroke-width="6.50768" stroke-miterlimit="10" stroke-linejoin="round"/>
<path d="M83 277L247 443" stroke="#041822" stroke-width="3.25384" stroke-miterlimit="10" stroke-linejoin="round"/>
<path d="M279 93L443 245" stroke="#041822" stroke-width="3.25384" stroke-miterlimit="10" stroke-linejoin="round"/>
<path d="M201.506 219.66L317.999 219" stroke="#041822" stroke-width="3.25384" stroke-miterlimit="10" stroke-linejoin="round"/>
<path d="M245 96L216.792 147.322L189 199" stroke="#041822" stroke-width="3.25384" stroke-miterlimit="10" stroke-linejoin="round"/>
<path d="M272 97L330 199" stroke="#041822" stroke-width="3.25384" stroke-miterlimit="10" stroke-linejoin="round"/>
<path opacity="0.5" d="M261 103L259.797 148" stroke="#041822" stroke-width="3.25384" stroke-miterlimit="10" stroke-linejoin="round"/>
<path opacity="0.5" d="M198 208L240 183" stroke="#041822" stroke-width="3.25384" stroke-miterlimit="10" stroke-linejoin="round"/>
<path opacity="0.5" d="M323 209L279 183" stroke="#041822" stroke-width="3.25384" stroke-miterlimit="10" stroke-linejoin="round"/>
<path d="M272 97L330 199" stroke="#041822" stroke-width="3.25384" stroke-miterlimit="10" stroke-linejoin="round"/>
<path d="M286.964 261C286.964 246.641 275.331 235 260.982 235C246.632 235 235 246.641 235 261C235 275.359 246.632 287 260.982 287C275.331 287 286.964 275.359 286.964 261Z" fill="#041822" stroke="#041822" stroke-width="6.50768" stroke-miterlimit="10" stroke-linejoin="round"/>
<path d="M205.964 117C205.964 102.641 194.331 91 179.982 91C165.632 91 154 102.641 154 117C154 131.359 165.632 143 179.982 143C194.331 143 205.964 131.359 205.964 117Z" fill="#041822" stroke="#041822" stroke-width="6.50768" stroke-miterlimit="10" stroke-linejoin="round"/>
<path d="M366.964 117C366.964 102.641 355.331 91 340.982 91C326.632 91 315 102.641 315 117C315 131.359 326.632 143 340.982 143C355.331 143 366.964 131.359 366.964 117Z" fill="#041822" stroke="#041822" stroke-width="6.50768" stroke-miterlimit="10" stroke-linejoin="round"/>
<path d="M319.494 116.34L203.001 117" stroke="#041822" stroke-width="3.25384" stroke-miterlimit="10" stroke-linejoin="round"/>
<path d="M276 240L304.208 188.678L332 137" stroke="#041822" stroke-width="3.25384" stroke-miterlimit="10" stroke-linejoin="round"/>
<path d="M249 239L191 137" stroke="#041822" stroke-width="3.25384" stroke-miterlimit="10" stroke-linejoin="round"/>
<path opacity="0.5" d="M260 233L261.203 188" stroke="#041822" stroke-width="3.25384" stroke-miterlimit="10" stroke-linejoin="round"/>
<path opacity="0.5" d="M323 128L281 153" stroke="#041822" stroke-width="3.25384" stroke-miterlimit="10" stroke-linejoin="round"/>
<path opacity="0.5" d="M198 127L242 153" stroke="#041822" stroke-width="3.25384" stroke-miterlimit="10" stroke-linejoin="round"/>
<path d="M260 386C274.359 386 286 374.359 286 360C286 345.641 274.359 334 260 334C245.641 334 234 345.641 234 360C234 374.359 245.641 386 260 386Z" fill="#041822" stroke="#041822" stroke-width="6.50768" stroke-miterlimit="10" stroke-linejoin="round"/>
<path d="M344 340C358.359 340 370 328.359 370 314C370 299.641 358.359 288 344 288C329.641 288 318 299.641 318 314C318 328.359 329.641 340 344 340Z" fill="#041822" stroke="#041822" stroke-width="6.50768" stroke-miterlimit="10" stroke-linejoin="round"/>
<path d="M71 287C85.3594 287 97 275.359 97 261C97 246.641 85.3594 235 71 235C56.6406 235 45 246.641 45 261C45 275.359 56.6406 287 71 287Z" fill="#041822" stroke="#041822" stroke-width="6.50768" stroke-miterlimit="10" stroke-linejoin="round"/>
<path d="M180 340C194.359 340 206 328.359 206 314C206 299.641 194.359 288 180 288C165.641 288 154 299.641 154 314C154 328.359 165.641 340 180 340Z" fill="#041822" stroke="#041822" stroke-width="6.50768" stroke-miterlimit="10" stroke-linejoin="round"/>
<path d="M260 480C274.359 480 286 468.359 286 454C286 439.641 274.359 428 260 428C245.641 428 234 439.641 234 454C234 468.359 245.641 480 260 480Z" fill="#041822" stroke="#041822" stroke-width="6.50768" stroke-miterlimit="10" stroke-linejoin="round"/>
<path d="M195 312H325" stroke="#041822" stroke-width="3.25384" stroke-miterlimit="10" stroke-linejoin="round"/>
<path d="M240 349L198 325" stroke="#041822" stroke-width="3.25384" stroke-miterlimit="10" stroke-linejoin="round"/>
<path d="M325 305L200 229" stroke="#041822" stroke-width="3.25384" stroke-miterlimit="10" stroke-linejoin="round"/>
<path d="M260 384L260 428" stroke="#041822" stroke-width="3.25384" stroke-miterlimit="10" stroke-linejoin="round"/>
</svg>
