<svg width="530" height="530" viewBox="0 0 530 530" fill="none" xmlns="http://www.w3.org/2000/svg">
<circle cx="265.548" cy="287.144" r="29.5481" stroke="#041822" stroke-width="4"/>
<circle cx="265.548" cy="208.101" r="7.72979" stroke="#041822" stroke-width="4"/>
<circle cx="265.548" cy="175.669" r="7.72979" stroke="#041822" stroke-width="4"/>
<circle cx="265.548" cy="139.109" r="7.72979" stroke="#041822" stroke-width="4"/>
<circle cx="265.548" cy="109.034" r="7.72979" stroke="#041822" stroke-width="4"/>
<mask id="path-7-inside-1_15751_447" fill="white">
<path d="M227.185 80.3885C324.561 60.1546 421.956 119.275 448.023 216.555C475.038 317.377 415.206 421.009 314.385 448.024C213.563 475.039 109.93 415.207 82.915 314.385C72.6365 276.026 74.9315 237.259 87.271 202.461C80.1363 229.431 79.7345 258.573 87.4725 287.452C111.122 375.712 201.843 428.09 290.103 404.441C378.364 380.792 430.741 290.071 407.092 201.81C385.471 121.121 307.792 70.4223 227.185 80.3885Z"/>
</mask>
<path d="M227.185 80.3885C324.561 60.1546 421.956 119.275 448.023 216.555C475.038 317.377 415.206 421.009 314.385 448.024C213.563 475.039 109.93 415.207 82.915 314.385C72.6365 276.026 74.9315 237.259 87.271 202.461C80.1363 229.431 79.7345 258.573 87.4725 287.452C111.122 375.712 201.843 428.09 290.103 404.441C378.364 380.792 430.741 290.071 407.092 201.81C385.471 121.121 307.792 70.4223 227.185 80.3885Z" fill="#041822"/>
<path d="M227.185 80.3885L225.761 73.5349L228.044 87.3356L227.185 80.3885ZM448.023 216.555L454.784 214.743V214.743L448.023 216.555ZM314.385 448.024L316.196 454.786L316.196 454.786L314.385 448.024ZM82.915 314.385L76.1535 316.197V316.197L82.915 314.385ZM87.271 202.461L94.0382 204.251L80.6735 200.121L87.271 202.461ZM87.4725 287.452L80.711 289.264L80.711 289.264L87.4725 287.452ZM290.103 404.441L291.915 411.202V411.202L290.103 404.441ZM407.092 201.81L413.854 199.998L413.854 199.998L407.092 201.81ZM227.185 80.3885L228.609 87.2421C322.373 67.7589 416.161 124.692 441.261 218.367L448.023 216.555L454.784 214.743C427.752 113.857 326.75 52.5503 225.761 73.5349L227.185 80.3885ZM448.023 216.555L441.261 218.367C467.276 315.454 409.66 415.248 312.573 441.263L314.385 448.024L316.196 454.786C420.752 426.77 482.8 319.299 454.784 214.743L448.023 216.555ZM314.385 448.024L312.573 441.263C215.485 467.277 115.691 409.661 89.6765 312.573L82.915 314.385L76.1535 316.197C104.169 420.753 211.64 482.801 316.196 454.786L314.385 448.024ZM82.915 314.385L89.6765 312.573C79.7763 275.626 81.9872 238.307 93.8685 204.8L87.271 202.461L80.6735 200.121C67.8757 236.212 65.4968 276.425 76.1535 316.197L82.915 314.385ZM87.271 202.461L80.5038 200.67C73.0651 228.79 72.6486 259.174 80.711 289.264L87.4725 287.452L94.234 285.64C86.8203 257.972 87.2075 230.072 94.0382 204.251L87.271 202.461ZM87.4725 287.452L80.711 289.264C105.361 381.258 199.92 435.852 291.915 411.202L290.103 404.441L288.291 397.679C203.765 420.328 116.883 370.166 94.234 285.64L87.4725 287.452ZM290.103 404.441L291.915 411.202C383.91 386.552 438.503 291.993 413.854 199.998L407.092 201.81L400.331 203.622C422.979 288.148 372.818 375.031 288.291 397.679L290.103 404.441ZM407.092 201.81L413.854 199.998C391.316 115.89 310.351 63.0527 226.326 73.4414L227.185 80.3885L228.044 87.3356C305.234 77.7919 379.626 126.352 400.331 203.622L407.092 201.81Z" fill="#041822" mask="url(#path-7-inside-1_15751_447)"/>
</svg>
