<svg width="530" height="530" viewBox="0 0 530 530" fill="none" xmlns="http://www.w3.org/2000/svg">
<g clip-path="url(#clip0_15751_490)">
<mask id="path-2-inside-1_15751_490" fill="white">
<path d="M372.721 83.9302C471.456 142.793 504.881 270.256 447.221 370.127C389.059 470.867 260.241 505.384 159.501 447.221C58.7605 389.059 24.2447 260.242 82.4072 159.501C102.378 124.912 130.677 98.1285 163.31 80.2244C112.121 113.587 78.2803 171.34 78.2801 236.999C78.2801 340.276 162.003 424 265.28 424C368.557 424 452.28 340.276 452.28 236.999C452.28 173.709 420.837 117.765 372.721 83.9302Z"/>
</mask>
<path d="M372.721 83.9302C471.456 142.793 504.881 270.256 447.221 370.127C389.059 470.867 260.241 505.384 159.501 447.221C58.7605 389.059 24.2447 260.242 82.4072 159.501C102.378 124.912 130.677 98.1285 163.31 80.2244C112.121 113.587 78.2803 171.34 78.2801 236.999C78.2801 340.276 162.003 424 265.28 424C368.557 424 452.28 340.276 452.28 236.999C452.28 173.709 420.837 117.765 372.721 83.9302Z" fill="#041822"/>
<path d="M372.721 83.9302L376.306 77.9176L368.695 89.6562L372.721 83.9302ZM447.221 370.127L453.283 373.627L453.283 373.627L447.221 370.127ZM159.501 447.221L156.001 453.283L156.001 453.283L159.501 447.221ZM82.4072 159.501L76.345 156.001L76.345 156.001L82.4072 159.501ZM163.31 80.2244L167.133 86.0888L159.943 74.0874L163.31 80.2244ZM78.2801 236.999L71.2801 236.999L71.2801 236.999L78.2801 236.999ZM265.28 424L265.28 431V431L265.28 424ZM452.28 236.999L459.28 236.999L459.28 236.999L452.28 236.999ZM372.721 83.9302L369.137 89.9428C464.588 146.848 496.903 270.076 441.159 366.627L447.221 370.127L453.283 373.627C512.86 270.437 478.324 138.738 376.306 77.9176L372.721 83.9302ZM447.221 370.127L441.159 366.627C384.929 464.019 260.393 497.389 163.001 441.159L159.501 447.221L156.001 453.283C260.089 513.379 393.188 477.715 453.283 373.627L447.221 370.127ZM159.501 447.221L163.001 441.159C65.6086 384.929 32.2398 260.394 88.4694 163.001L82.4072 159.501L76.345 156.001C16.2495 260.09 51.9124 393.188 156.001 453.283L159.501 447.221ZM82.4072 159.501L88.4694 163.001C107.782 129.551 135.135 103.667 166.677 86.3614L163.31 80.2244L159.943 74.0874C126.219 92.5901 96.9736 120.272 76.345 156.001L82.4072 159.501ZM163.31 80.2244L159.488 74.36C106.4 108.96 71.2803 168.875 71.2801 236.999L78.2801 236.999L85.2801 236.999C85.2803 173.806 117.841 118.215 167.133 86.0888L163.31 80.2244ZM78.2801 236.999L71.2801 236.999C71.2801 344.142 158.137 431 265.28 431L265.28 424L265.28 417C165.869 417 85.2801 336.41 85.2801 236.999L78.2801 236.999ZM265.28 424L265.28 431C372.423 431 459.28 344.142 459.28 236.999L452.28 236.999L445.28 236.999C445.28 336.41 364.691 417 265.28 417L265.28 424ZM452.28 236.999L459.28 236.999C459.28 171.334 426.647 113.294 376.748 78.2042L372.721 83.9302L368.695 89.6562C415.026 122.237 445.28 176.085 445.28 236.999L452.28 236.999Z" fill="#041822" mask="url(#path-2-inside-1_15751_490)"/>
</g>
<defs>
<clipPath id="clip0_15751_490">
<rect width="530" height="530" rx="265" fill="white"/>
</clipPath>
</defs>
</svg>
