<svg width="530" height="530" viewBox="0 0 530 530" fill="none" xmlns="http://www.w3.org/2000/svg">
<path d="M165.054 409.136C132.13 407.569 120.633 381.053 119 367.992L203.241 363.408M373.5 399.824C387.681 389.722 402.976 370.076 411 334.684L310.5 358.501L224.741 362.343M203.241 363.408L197.58 64.1641H203.241L224.741 362.343M203.241 363.408L224.741 362.343M228.5 354.502C231.925 313.69 253.062 214.422 205.567 99.6641C260.11 110.845 362.261 146.05 411 280.502C373.9 281.043 279.828 304.38 228.5 354.502Z" stroke="#041822" stroke-width="7"/>
<path d="M69 408.571C80.73 418.357 92.46 428.143 117.875 428.143C166.75 428.143 166.75 389 215.625 389C266.455 389 262.545 428.143 313.375 428.143C362.25 428.143 362.25 389 411.125 389C436.54 389 448.27 398.786 460 408.571" stroke="#041822" stroke-width="7" stroke-linejoin="round"/>
<path d="M472.224 189.223L467.03 192.8L470.519 187.737L460 186.004L470.626 184.254L467.03 179.034L472.25 182.63L474 172.004L475.733 182.523L480.796 179.034L477.219 184.228L488 186.004L477.326 187.762L480.796 192.8L475.758 189.33L474 200.004L472.224 189.223Z" fill="#041822"/>
<path d="M53.2242 300.219L48.0304 303.797L51.5188 298.733L41 297L51.6258 295.25L48.0304 290.03L53.2498 293.626L55 283L56.7326 293.519L61.7964 290.03L58.2187 295.224L69 297L58.3257 298.758L61.7964 303.797L56.7582 300.326L55 311L53.2242 300.219Z" fill="#041822"/>
<path d="M102.785 67.2654L84.6063 79.7878L96.8159 62.0642L60 56L97.1904 49.8744L84.6063 31.6066L102.874 44.1911L109 6.99999L115.064 43.8159L132.788 31.6066L120.265 49.7847L158 56L120.64 62.1541L132.788 79.7878L115.154 67.6406L109 105L102.785 67.2654Z" fill="#041822"/>
<circle cx="375" cy="147" r="4" transform="rotate(-180 375 147)" fill="#041822"/>
<circle cx="158" cy="200" r="4" transform="rotate(-180 158 200)" fill="#041822"/>
<circle cx="50.5" cy="143.5" r="9.5" transform="rotate(-180 50.5 143.5)" fill="#041822"/>
<circle cx="275.5" cy="16.5" r="9.5" transform="rotate(-180 275.5 16.5)" fill="#041822"/>
<circle cx="318" cy="94" r="4" transform="rotate(-180 318 94)" fill="#041822"/>
<circle cx="477" cy="337" r="4" transform="rotate(-180 477 337)" fill="#041822"/>
</svg>
