<svg width="530" height="530" viewBox="0 0 530 530" fill="none" xmlns="http://www.w3.org/2000/svg">
<path d="M109.043 347.082C97.5743 292.961 97.5743 237.037 109.043 182.916C110.549 177.42 113.461 172.41 117.491 168.38C121.521 164.351 126.53 161.439 132.026 159.932C220.076 145.345 309.926 145.345 397.976 159.932C403.472 161.439 408.481 164.351 412.511 168.38C416.541 172.41 419.452 177.42 420.959 182.916C432.428 237.037 432.428 292.961 420.959 347.082C419.452 352.578 416.541 357.588 412.511 361.618C408.481 365.647 403.472 368.559 397.976 370.066C309.926 384.656 220.076 384.656 132.026 370.066C126.53 368.559 121.521 365.647 117.491 361.618C113.461 357.588 110.549 352.578 109.043 347.082Z" stroke="#041822" stroke-width="7" stroke-linecap="round" stroke-linejoin="round"/>
<path d="M232.168 314.249L314.251 264.999L232.168 215.749V314.249Z" stroke="#041822" stroke-width="7" stroke-linecap="round" stroke-linejoin="round"/>
</svg>
