<?xml version='1.0' encoding='utf-8'?>
<svg xmlns="http://www.w3.org/2000/svg" width="120" height="120" viewBox="0 0 120 120">
    <path d="M54.5 110 C59 110 63 108 66 105 C69 102 71 98 71 93 V29.5 C71 24 69 19 65.5 15.5 C62 12 57 10 51.5 10 C46.5 10 41.5 12 38 15.5 C34 19 32 24 32 29.5 M32 99 V26.5 C32 22 30.5 18 27 15 C24 12 20 10 15.5 10 M104.5 88 C104.5 97 97 104.5 88 104.5 C78.5 104.5 71 97 71 88 C71 78.5 78.5 71 88 71 C97 71 104.5 78.5 104.5 88 Z" fill="none" stroke="#8667A5" stroke-width="2" stroke-linecap="round" stroke-linejoin="round"/>
</svg>