<svg width="530" height="530" viewBox="0 0 530 530" fill="none" xmlns="http://www.w3.org/2000/svg">
<circle cx="265" cy="265" r="39.5" transform="rotate(90 265 265)" stroke="#041822" stroke-width="7"/>
<circle cx="265" cy="93" r="39.5" transform="rotate(90 265 93)" stroke="#041822" stroke-width="7"/>
<circle cx="265" cy="93" r="39.5" transform="rotate(90 265 93)" stroke="#041822" stroke-width="7"/>
<circle cx="265" cy="437" r="39.5" transform="rotate(90 265 437)" stroke="#041822" stroke-width="7"/>
<circle cx="93" cy="265" r="39.5" stroke="#041822" stroke-width="7"/>
<circle cx="437" cy="265" r="39.5" stroke="#041822" stroke-width="7"/>
<path d="M265 133.5V225" stroke="#041822" stroke-width="7"/>
<path d="M265 305V396.5" stroke="#041822" stroke-width="7"/>
<path d="M396.5 265L305 265" stroke="#041822" stroke-width="7"/>
<path d="M225 265L133.5 265" stroke="#041822" stroke-width="7"/>
<path d="M410.5 181C387 140.5 349.5 113.5 307.5 102.5" stroke="#041822" stroke-width="7"/>
<path d="M349 410.5C389.5 387 416.5 349.5 427.5 307.5" stroke="#041822" stroke-width="7"/>
<path d="M181 119.5C140.5 143 113.5 180.5 102.5 222.5" stroke="#041822" stroke-width="7"/>
<path d="M119.5 349C143 389.5 180.5 416.5 222.5 427.5" stroke="#041822" stroke-width="7"/>
</svg>
