<svg width="530" height="530" viewBox="0 0 530 530" fill="none" xmlns="http://www.w3.org/2000/svg">
<circle cx="268.5" cy="264.5" r="82" stroke="#041822" stroke-width="7"/>
<path d="M354.5 372C379.5 352.5 397.5 324 404 290C418 215.5 369 143 294 129C219 114.5 147 163.5 132.5 238.5C118.5 313.5 167.5 386 242.5 400C266.5 404.5 290 402.5 312 395.5" stroke="#041822" stroke-width="2"/>
<circle cx="272" cy="66.5" r="5.5" transform="rotate(1 272 66.5)" fill="#041822"/>
<circle cx="327.5" cy="75.5" r="5.5" transform="rotate(17 327.5 75.5)" fill="#041822"/>
<circle cx="378.5" cy="99.5" r="5.5" transform="rotate(33.5 378.5 99.5)" fill="#041822"/>
<circle cx="421" cy="137" r="5.5" transform="rotate(50 421 137)" fill="#041822"/>
<circle cx="451" cy="185" r="5.5" transform="rotate(66 451 185)" fill="#041822"/>
<circle cx="466" cy="239.5" r="5.5" transform="rotate(82.5 466 239.5)" fill="#041822"/>
<circle cx="465.5" cy="296" r="5.5" transform="rotate(99 465.5 296)" fill="#041822"/>
<circle cx="448.5" cy="350" r="5.5" transform="rotate(115.5 448.5 350)" fill="#041822"/>
<circle cx="417.5" cy="397" r="5.5" transform="rotate(131.5 417.5 397)" fill="#041822"/>
<circle cx="374.5" cy="433.5" r="5.5" transform="rotate(148 374.5 433.5)" fill="#041822"/>
<circle cx="322.5" cy="456.5" r="5.5" transform="rotate(164.5 322.5 456.5)" fill="#041822"/>
<circle cx="266.5" cy="463.5" r="5.5" transform="rotate(-179 266.5 463.5)" fill="#041822"/>
<circle cx="210.5" cy="455" r="5.5" transform="rotate(-163 210.5 455)" fill="#041822"/>
<circle cx="159.5" cy="431" r="5.5" transform="rotate(-146.5 159.5 431)" fill="#041822"/>
<circle cx="117.5" cy="393" r="5.5" transform="rotate(-130 117.5 393)" fill="#041822"/>
<circle cx="87.5" cy="345.5" r="5.5" transform="rotate(-114 87.5 345.5)" fill="#041822"/>
<circle cx="72.5" cy="291" r="5.5" transform="rotate(-97.5 72.5 291)" fill="#041822"/>
<circle cx="73" cy="234.5" r="5.5" transform="rotate(-81 73 234.5)" fill="#041822"/>
<circle cx="89.5" cy="180.5" r="5.5" transform="rotate(-64.5 89.5 180.5)" fill="#041822"/>
<circle cx="121" cy="133" r="5.5" transform="rotate(-48.5 121 133)" fill="#041822"/>
<circle cx="216" cy="74" r="5.5" transform="rotate(-15.5 216 74)" fill="#041822"/>
<path d="M337.5 357.5C351.5 360.5 360.5 374 358 388C355.5 401.5 342 411 328 408C314 405.5 305 392 307.5 378C310 364 323.5 355 337.5 357.5Z" stroke="#041822" stroke-width="7"/>
<circle cx="165" cy="93.5" r="29" stroke="#041822" stroke-width="7"/>
<path d="M326 207.5C418.5 171.5 488 153 493 164.5C499.5 179.5 402.5 236.5 276 292C150 347.5 42 380 35.5 365.5C30.5 353 94.5 313 187 268" stroke="#041822" stroke-width="2"/>
</svg>
