<svg width="530" height="530" viewBox="0 0 530 530" fill="none" xmlns="http://www.w3.org/2000/svg">
<path d="M398 265L265 36L198.5 150.5M145.5 241.5L132 265L265 494L331.5 379.5" stroke="#041822"/>
<path d="M398 265L265 36L198.5 150.5M145.5 241.5L132 265L265 494L331.5 379.5" stroke="#041822"/>
<path d="M398 265L265 36L198.5 150.5M145.5 241.5L132 265L265 494L331.5 379.5" stroke="#041822"/>
<path d="M265 132L279.5 140.5M265 398L36 265L93 232L122 215L139.5 205M322 165L379.5 198.5L494 265L379.5 331.5" stroke="#041822"/>
<path d="M265 132L279.5 140.5M265 398L36 265L93 232L122 215L139.5 205M322 165L379.5 198.5L494 265L379.5 331.5" stroke="#041822"/>
<path d="M265 132L279.5 140.5M265 398L36 265L93 232L122 215L139.5 205M322 165L379.5 198.5L494 265L379.5 331.5" stroke="#041822"/>
<path d="M265 132.5L379.5 66.5L380 199L380 232L380 248.5M150 265L150 331L150.5 463.5L265 397.5" stroke="#041822"/>
<path d="M265 132.5L379.5 66.5L380 199L380 232L380 248.5M150 265L150 331L150.5 463.5L265 397.5" stroke="#041822"/>
<path d="M265 132.5L379.5 66.5L380 199L380 232L380 248.5M150 265L150 331L150.5 463.5L265 397.5" stroke="#041822"/>
<path d="M146 240.5L132.5 264.5L66.5 379.5L199 379.5L232 379.5L241.5 379.5M184 174.5L198.5 149.5L211.5 149.5M309.5 150L463.5 150L397.5 265" stroke="#041822"/>
<path d="M146 240.5L132.5 264.5L66.5 379.5L199 379.5L232 379.5L241.5 379.5M184 174.5L198.5 149.5L211.5 149.5M309.5 150L463.5 150L397.5 265" stroke="#041822"/>
<path d="M146 240.5L132.5 264.5L66.5 379.5L199 379.5L232 379.5L241.5 379.5M184 174.5L198.5 149.5L211.5 149.5M309.5 150L463.5 150L397.5 265" stroke="#041822"/>
<path d="M150 265L150 331.5L265 397.5M150 166L150 132.5L150.5 66.5L265 132.5M322.5 165.5L380 198.5L380 231.5L380 248.5M380 331L379.5 463.5L322.5 430.5L293.5 414" stroke="#041822"/>
<path d="M150 265L150 331.5L265 397.5M150 166L150 132.5L150.5 66.5L265 132.5M322.5 165.5L380 198.5L380 231.5L380 248.5M380 331L379.5 463.5L322.5 430.5L293.5 414" stroke="#041822"/>
<path d="M150 265L150 331.5L265 397.5M150 166L150 132.5L150.5 66.5L265 132.5M322.5 165.5L380 198.5L380 231.5L380 248.5M380 331L379.5 463.5L322.5 430.5L293.5 414" stroke="#041822"/>
<path d="M211 150L199 150L66.5 150.5L198.5 380L240.5 380M310 150L331.5 150L463.5 379.5L331 380" stroke="#041822"/>
<path d="M211 150L199 150L66.5 150.5L198.5 380L240.5 380M310 150L331.5 150L463.5 379.5L331 380" stroke="#041822"/>
<path d="M211 150L199 150L66.5 150.5L198.5 380L240.5 380M310 150L331.5 150L463.5 379.5L331 380" stroke="#041822"/>
<rect x="265" y="52.5" width="17" height="17" rx="8.5" transform="rotate(45 265 52.5)" fill="#041822"/>
<rect x="415.5" y="114.5" width="17" height="17" transform="rotate(90 415.5 114.5)" fill="#041822"/>
<rect x="478" y="265" width="17" height="17" rx="8.5" transform="rotate(135 478 265)" fill="#041822"/>
<rect x="415.5" y="415.5" width="17" height="17" transform="rotate(-180 415.5 415.5)" fill="#041822"/>
<rect x="265" y="478" width="17" height="17" rx="8.5" transform="rotate(-135 265 478)" fill="#041822"/>
<rect x="114.5" y="415.5" width="17" height="17" transform="rotate(-90 114.5 415.5)" fill="#041822"/>
<rect x="52.5" y="265" width="17" height="17" rx="8.5" transform="rotate(-45 52.5 265)" fill="#041822"/>
<rect x="114.5" y="114.5" width="17" height="17" fill="#041822"/>
<path fill-rule="evenodd" clip-rule="evenodd" d="M229 128.5C230.5 127.5 232.5 128 233.5 129.5L241.5 141.5C241.5 141.5 242.5 142 243 141.5C248.5 137.5 254.5 134.5 261 131.5L261 131C262.5 130.5 264 131 265 132.5L271 142.5C271 143 272 143 272.5 143C276.5 140.5 281 138.5 285 136.5C286.5 136 288 136.5 288.5 137.5L293 142C293 142 293 142 293.5 142C294 142 294 142 294.5 142L298 137.5L298.5 137.5C299 136.5 300 136.5 300.5 136.5C301.5 136.5 302.5 137 303 137.5L413.5 288C414 289 414 290.5 413.5 291.5L317 405.5C309.5 414.5 299 417 291 417C282.5 417 276 414.5 275.5 414.5C275.5 414.5 275 414 274.5 413.5L274.5 413.5L252.5 391C252.5 391 252 390.5 252 390.5L252 390.5C251.5 390.5 251.5 390.5 251.5 390.5C249.5 390.5 247 390 245.5 388.5L245.5 388L226.5 367.5C226.5 367.5 226.5 367.5 226.5 367.5C225.5 367 225.5 366.5 225 366C224.5 365.5 224.5 364.5 225 363.5C225.5 363 225 362.5 225 362.5L200 336.5C199.5 336 199.5 336 199 336L199 336C198.5 336 198.5 336 198.5 336.5C198 336.5 197.5 336.5 197 336.5C195 336.5 192.5 335.5 191 333.5L172 313.5L172 313.5L172 313C171.5 312.5 171 312 171 312C170 310.5 170.5 309 171.5 308C171.5 308 171.5 307 171.5 307L152.5 287C152.5 287 152.5 287 152.5 287C147.5 283 147 277.5 147 276.5L147 276.5L129 155C129 154 129.5 153 130 152C131 151.5 132.5 151.5 133.5 152L143 156C143.5 156.5 144 156 144 156C144.5 156 144.5 155.5 144.5 155L144 151.5C143.5 150 144 149 145 148.5C146 147.5 147 147.5 148.5 148L149.5 148.5C155 151.5 174 162 189.5 176C189.5 176.5 190 176.5 190.5 176.5C190.5 176.5 191 176 191 176C193 172 195 168 197 164.5C206 148 217 136 229 128.5ZM284.5 374C284 374 283.5 373.5 283 374L283 374C279.5 377 275.5 379.5 270 381C264 383.5 261 385.5 259 387C258.5 387 258.5 387.5 258.5 387.5C258.5 388 258.5 388 258.5 388.5L278.5 408.5C278.5 409 278.5 409 279 409C280.5 409.5 285.5 411 291.5 411C297 410.5 304 409 310 404C310 403.5 310 403 310 402.5L284.5 374ZM300.5 145C300 145 300 145 299.5 145.5L299.5 145.5L195 263.5C194.5 264 194.5 264.5 195 265L218 291C218.5 291 218.5 291 219 291C219.5 291 219.5 291 220 290.5C224.5 283.5 226 276.5 226 276.5C226 275 227 274.5 228 274L228 274C229.5 273.5 230.5 274 231 275L231 275L244.5 289.5L244.5 289.5C245 290.5 245.5 291 245.5 292L245.5 292C245 293 243.5 301.5 237 311C237 311 237 311.5 237 312L270 348.5C270 349 270.5 349 271 349C271 349 271.5 349 271.5 348.5C278.5 340.5 280 331.5 280 330.5C280.5 329.5 281 328.5 282.5 328.5C283.5 328 284.5 328.5 285.5 329L299 344L299 344C299.5 344.5 300 345.5 299.5 346.5C299.5 347 297.5 358.5 289 368.5C288.5 369 288.5 369.5 289 370L314 398L314 398C314 398 314 398 314 398L314 398C314.5 398 315 398 315.5 398C315.5 398 315.5 397.5 315.5 397.5L406.5 290C406.5 289.5 406.5 289 406.5 289L301 145.5C301 145 300.5 145 300.5 145ZM285 338.5C284.5 338.5 284.5 338.5 284 339L284 339C281 347.5 273.5 360.5 256.5 366.5C250 369 244.5 370 240 370.5C239.5 370.5 239 371 239 371C239 371.5 239 372 239 372.5L250 384L250 384C250.5 384.5 251 384.5 251.5 384.5C252 384.5 252 384.5 252 384.5C252 384 252.5 384 252.5 384C252.5 384 252.5 384 252.5 384C253 383.5 253 383.5 253.5 383.5C255.5 381.5 258.5 378.5 268 375.5C286 369 291.5 353 293 347.5C293 347 293 346.5 293 346.5L286 338.5C285.5 338.5 285 338.5 285 338.5ZM232.5 316.5C232.5 316.5 232 317 232 317C228 320.5 223 324 216.5 326.5L216 327C210.5 328.5 207.5 330.5 205.5 331.5C205.5 332 205 332 205 332.5C205 333 205.5 333 205.5 333.5L235.5 364C235.5 364.5 236 364.5 236 364.5C240 364.5 246 364 254.5 360.5L254.5 360.5C259 359 262.5 357 265.5 354.5C265.5 354.5 266 354 266 354C266 353.5 266 353.5 265.5 353L233.5 317C233 317 233 316.5 232.5 316.5ZM230.5 284C230 284 230 284.5 230 284.5L230 284.5C226.5 293 219 306.5 202.5 312C196 314.5 190 316 185.5 316.5C185 316.5 185 316.5 184.5 317C184.5 317.5 184.5 317.5 185 318L195.5 329.5L195.5 329.5C196 330 197 330 197.5 330C197.5 330 197.5 330 197.5 330C198 330 198 330 198 330C198 330 198 329.5 198.5 329.5C198.5 329.5 199 329 199 329C199 329 199 329 199 329C201 327.5 204.5 324.5 214 321C221 318.5 226 314.5 230 310C230 310 230 310 230 310C230 309.5 230 309.5 230.5 309.5C230.5 309.5 230.5 309.5 230.5 309C235.5 303 238 296.5 238.5 293C239 293 238.5 292.5 238.5 292L231.5 284.5C231 284 231 284 230.5 284ZM193 272C193 272 192.5 272 192 272C192 272 191.5 272 191.5 272.5L191.5 272.5C188.5 280.5 182.5 289 170.5 291L170 291C169 291 168 291.5 167.5 291.5C167 291.5 166.5 292 166.5 292.5C166.5 292.5 166.5 293 166.5 293L183 310C183 310 183.5 310 183.5 310C187.5 310 193 309 200 306.5C206 304 211 301 214.5 297.5C215 297 215 296.5 214.5 296L193 272ZM180.5 276.5C176 276.5 167.5 277 159 282.5C158.5 282.5 158.5 283 158.5 283V283C158.5 283.5 158.5 284 159 284C161.5 285.5 165 285.5 169 285C175 284 178.5 281.5 181.5 278C181.5 278 181.5 277.5 181.5 277C181.5 277 181 276.5 180.5 276.5ZM137.5 160.5C137.5 160.5 137 160.5 136.5 160.5C136.5 161 136 161 136.5 161.5L153 275.5C153 276 153 276 153 276C153 276 153 276 153 276L153 276V276C153 276 153 276 153 276C153 276 153 276 153 276C153 276 153 276 153 276.5C153 276.5 153 276.5 153 277C153.5 277.5 153.5 277.5 154 277.5C154 278 154.5 278 155 277.5C158.5 275.5 161.5 273.5 165 272.5C165.5 272.5 166 272 165.5 271.5L146.5 165C146 164.5 146 164 145.5 164L137.5 160.5ZM285.5 143.5C285 143.5 285 143.5 285 143.5C260.5 154.5 234 179.5 208.5 216.5C192.5 239.5 181.5 260.5 177 269C177 269 177 269.5 177 270C177.5 270 177.5 270.5 178 270.5C181 270.5 183 270.5 184.5 270.5C185 271 185.5 270.5 186 270C187 267 187 264.5 187 264C187 264 187 264 187 264C187 263.5 187.5 262.5 188 262L289 148C289 147.5 289 147 289 146.5L286 143.5C286 143.5 285.5 143.5 285.5 143.5H285.5ZM153 157.5C152.5 157.5 152 157.5 152 158C151.5 158 151.5 158.5 151.5 159L168 250.5C168.5 251 168.5 251.5 169 251.5C169.5 251.5 170 251 170 250.5C171.5 240 174 226 178.5 210.5C181 201 184 192 187.5 183.5C187.5 183.5 187.5 183 187 182.5C187 182.5 187 182.5 187 182.5C187 182.5 187 182.5 187 182.5C187 182.5 187 182.5 187 182.5L187 182.5C175.5 171.5 161.5 162.5 153 157.5ZM260.5 138.5C260.5 138.5 260.5 138.5 260 138.5C221 158.5 200 193.5 188.5 219.5C184 230 181 240.5 178.5 249C178.5 249.5 178.5 250 179 250C179.5 250.5 180 250.5 180.5 250C186 239.5 194 226.5 203 213C224 183 245 161 265.5 147C266 147 266 146.5 265.5 146L261.5 139C261.5 138.5 261 138.5 260.5 138.5ZM230.5 136C230 135.5 229.5 135.5 229 136C208 150.5 195 177.5 187 203.5C187 204 187 204.5 187.5 204.5C188 204.5 188.5 204.5 189 204C195.5 191.5 202.5 180 211 170L211 170C218.5 161 227 153 236 146.5C236.5 146 236.5 145.5 236.5 145L230.5 136C230.5 136 230.5 136 230.5 136L230.5 136L230.5 136Z" fill="#041822"/>
</svg>
