<svg width="530" height="530" viewBox="0 0 530 530" fill="none" xmlns="http://www.w3.org/2000/svg">
<path d="M196.5 141C159 147 133 186 124 221C114.5 257 108.5 294 123.5 330C141.5 372.5 193 353.5 225 344.5C244 339 257.5 326.5 275 319C287.5 313.5 249 332 241 343C224.5 364 224.5 390 217.5 414.5C216 420.5 210.5 430 203 441.5C196.5 452.5 195.5 462 208 468C209.5 468.5 214 469 214.5 471M304.5 473.5C306.5 467.5 306 461 303 458C300.5 455 294.5 456.5 287 455C275.5 453.5 268.5 448.5 261 441.5C247.5 427.5 258.5 418.5 268 408C278 396.5 288 385.5 298.5 375C309.5 363.5 319 351 326.5 337C336 319 344 291.5 321.5 279.5C314.5 275.5 310 276 293.5 274C279.5 272 251 271.5 229 274C208 276.5 176 286.5 177.5 285.5C193.5 276.5 214 266 225 252" stroke="#041822" stroke-width="6"/>
<path d="M154 254.5C204.5 225.5 179 212 229.5 249C245.5 261 298.5 284 315 269C325.5 259.5 333.5 245 336.5 231C340.5 211.5 338.5 188 334.5 169C332.5 160 312.5 150.5 302 149C295 148 290 154.5 285.5 157.5C282 160 267.5 175.5 276 180C284.5 185 293.5 172 302.5 175.5C305.5 176.5 310.5 180.5 315 184.5C327.5 195.5 296.5 240 288 226C276 206.5 243.5 159.5 227 147.5C216 141.5 206.5 139 194.5 141" stroke="#041822" stroke-width="6"/>
<path d="M335.5 311.5C334.5 326 329 350.5 322.5 363C313 381 299.5 399 293 418C287 435.5 318 441.5 327 442.5C351 445 337 467 304 460.5" stroke="#041822" stroke-width="4"/>
<path d="M177 356C145.5 356.5 121 378.5 106.5 406.5" stroke="#041822" stroke-width="6"/>
<path d="M325 255C330.5 257 359 263.5 360 269C363 283 362.5 297 359.5 306C357 313 324.5 338 335 317.5" stroke="#041822" stroke-width="4"/>
<path d="M258.5 138.5C260 146 272 157.5 277.5 160.5C275.5 161.5 270.5 156 263 151C255 153 253 168.5 258.5 180M189 144C201.5 139.5 213 134.5 223 126C234 116.5 245 107.5 252 94.5C256.5 86.5 261 79 265 75C280.5 58.5 302 58.5 321.5 69.5C333.5 76.5 339 94.5 337.5 107C336.5 118 328 128 322.5 137C318 144 322 145.5 315.5 153" stroke="#041822" stroke-width="4"/>
<path d="M109 408.5C50 344.5 34.5 247 77.5 165.5C132.5 62 261 23 364.5 77.5C468 132.5 507 261 452.5 364.5C405 453.5 303 495 209.5 469.5" stroke="#041822" stroke-width="4"/>
<line x1="266.5" y1="54" x2="266.5" y2="74" stroke="#041822"/>
<path d="M321 61L319 68" stroke="#041822"/>
<path d="M372 82L326 161" stroke="#041822"/>
<path d="M415.5 115.5L340.5 190.5" stroke="#041822"/>
<path d="M449 159.5L341 222" stroke="#041822"/>
<path d="M470 210.5L329 248.5" stroke="#041822"/>
<line x1="477" y1="265" x2="356.5" y2="265" stroke="#041822"/>
<path d="M469.5 320L361.5 291" stroke="#041822"/>
<path d="M448.5 371L351.5 315" stroke="#041822"/>
<line x1="415" y1="414.5" x2="329.5" y2="329" stroke="#041822"/>
<path d="M371 448L322.5 364" stroke="#041822"/>
<path d="M320 469L318 461.5M301 399L312 438.5" stroke="#041822"/>
<path d="M82.5 370L130 342.5" stroke="#041822"/>
<path d="M61.5 319L116 304.5" stroke="#041822"/>
<path d="M54.5 264L115 264" stroke="#041822"/>
<path d="M62 209.5L122 226" stroke="#041822"/>
<path d="M83 158.5L135.5 189" stroke="#041822"/>
<path d="M116.5 115L159.5 157.5" stroke="#041822"/>
<path d="M160.5 81.5L193.5 140" stroke="#041822"/>
<path d="M211.5 60.5L227.5 122.5" stroke="#041822"/>
<path d="M240.5 55.5L246 103" stroke="#041822"/>
<path d="M295.5 55.5L294.5 63" stroke="#041822"/>
<path d="M348.5 70L336.5 97" stroke="#041822"/>
<path d="M396 98L336 175" stroke="#041822"/>
<path d="M435 137.5L340.5 208.5" stroke="#041822"/>
<path d="M462 185.5L333 238" stroke="#041822"/>
<path d="M476 239L331.5 256" stroke="#041822"/>
<path d="M475.5 294L362 278.5" stroke="#041822"/>
<path d="M460.5 347L359 305" stroke="#041822"/>
<path d="M433 394.5L340.5 323" stroke="#041822"/>
<path d="M393.5 433.5L329 346.5" stroke="#041822"/>
<path d="M345.5 460.5L342.5 453L313.5 380.5" stroke="#041822"/>
<path d="M97.5 392L144 356" stroke="#041822"/>
<path d="M70.5 344L122.5 323" stroke="#041822"/>
<path d="M56.5 290.5L116.5 283" stroke="#041822"/>
<path d="M57 235.5L118.5 244.5" stroke="#041822"/>
<path d="M71.5 182.5L127.5 206" stroke="#041822"/>
<path d="M99.5 135L147.5 172" stroke="#041822"/>
<path d="M139 96L179 150" stroke="#041822"/>
<path d="M187 69L212 132.5" stroke="#041822"/>
</svg>
