<svg width="530" height="530" viewBox="0 0 530 530" fill="none" xmlns="http://www.w3.org/2000/svg">
<path opacity="0.5" d="M240 262L103 262" stroke="#041822" stroke-width="3.5" stroke-miterlimit="10" stroke-linejoin="round"/>
<path opacity="0.5" d="M437 262L291 262" stroke="#041822" stroke-width="3.5" stroke-miterlimit="10" stroke-linejoin="round"/>
<circle cx="464" cy="262" r="26" stroke="#041822" stroke-width="6.5" stroke-miterlimit="10" stroke-linejoin="round"/>
<circle cx="347" cy="220" r="26" stroke="#041822" stroke-width="6.5" stroke-miterlimit="10" stroke-linejoin="round"/>
<circle cx="266" cy="76" r="26" stroke="#041822" stroke-width="6.5" stroke-miterlimit="10" stroke-linejoin="round"/>
<circle cx="266" cy="174" r="26" stroke="#041822" stroke-width="6.5" stroke-miterlimit="10" stroke-linejoin="round"/>
<circle cx="186" cy="220" r="26" stroke="#041822" stroke-width="6.5" stroke-miterlimit="10" stroke-linejoin="round"/>
<path d="M93 282.5L245 439.5" stroke="#041822" stroke-width="3.5" stroke-miterlimit="10" stroke-linejoin="round"/>
<path d="M285 94L447.5 243" stroke="#041822" stroke-width="3.5" stroke-miterlimit="10" stroke-linejoin="round"/>
<path d="M212 220L322 220" stroke="#041822" stroke-width="3.5" stroke-miterlimit="10" stroke-linejoin="round"/>
<path d="M251 97L223 148.5L196 196.5" stroke="#041822" stroke-width="3.5" stroke-miterlimit="10" stroke-linejoin="round"/>
<path d="M278 98L336 200" stroke="#041822" stroke-width="3.5" stroke-miterlimit="10" stroke-linejoin="round"/>
<path opacity="0.5" d="M267 104L266 149" stroke="#041822" stroke-width="3.5" stroke-miterlimit="10" stroke-linejoin="round"/>
<path opacity="0.5" d="M208 206.5L244 185.5" stroke="#041822" stroke-width="3.5" stroke-miterlimit="10" stroke-linejoin="round"/>
<path opacity="0.5" d="M325.5 207L289 185.5" stroke="#041822" stroke-width="3.5" stroke-miterlimit="10" stroke-linejoin="round"/>
<circle cx="266" cy="262" r="26" stroke="#041822" stroke-width="6.5" stroke-miterlimit="10" stroke-linejoin="round"/>
<circle cx="266" cy="361" r="26" stroke="#041822" stroke-width="6.5" stroke-miterlimit="10" stroke-linejoin="round"/>
<circle cx="350" cy="315" r="26" stroke="#041822" stroke-width="6.5" stroke-miterlimit="10" stroke-linejoin="round"/>
<circle cx="77" cy="262" r="26" stroke="#041822" stroke-width="6.5" stroke-miterlimit="10" stroke-linejoin="round"/>
<circle cx="186" cy="315" r="26" stroke="#041822" stroke-width="6.5" stroke-miterlimit="10" stroke-linejoin="round"/>
<circle cx="266" cy="455" r="26" stroke="#041822" stroke-width="6.5" stroke-miterlimit="10" stroke-linejoin="round"/>
<path d="M212 313H324" stroke="#041822" stroke-width="3.5" stroke-miterlimit="10" stroke-linejoin="round"/>
<path d="M243.5 349L206.5 328" stroke="#041822" stroke-width="3.5" stroke-miterlimit="10" stroke-linejoin="round"/>
<path d="M328.5 303L287.5 278.5M207.5 231L241.5 252" stroke="#041822" stroke-width="3.5" stroke-miterlimit="10" stroke-linejoin="round"/>
<path d="M266 385L266 429" stroke="#041822" stroke-width="3.5" stroke-miterlimit="10" stroke-linejoin="round"/>
</svg>
