<svg width="530" height="530" viewBox="0 0 530 530" fill="none" xmlns="http://www.w3.org/2000/svg">
<path d="M278 100H400L420 205C396.5 202 372 200 347.5 200C323.5 200 289.5 201.5 268 206.5M213 278.5C213 241.5 240 211 275 205M392 430C302 430 214 361 213 278.5" stroke="#041822" stroke-width="7"/>
<path d="M252 100H130L110 205C133.5 202 158 200 182.5 200C206.5 200 240.5 201.5 262 206.5M317 278.5C317 241.5 290 211 255 205M138 430C228 430 316 361 317 278.5" stroke="#041822" stroke-width="7"/>
</svg>
