<svg width="530" height="530" viewBox="0 0 530 530" fill="none" xmlns="http://www.w3.org/2000/svg">
<path d="M277 236L278 241.5L282.5 238.5L313.5 217L293 247L289.5 251.5L295 252.5L368.5 264.5L294 276.5L288.5 277.5L292 282L313.5 313.5L282 292L277.5 288.5L276.5 294L264.5 368.5L252.5 295L251.5 289.5L247 293L217 313.5L238.5 282.5L241.5 278L236 277L160.5 264.5L235.5 252L240.5 251.5L237.5 247L217 217L247 237.5L251.5 240.5L252 235.5L264.5 160.5L277 236Z" stroke="#041822" stroke-width="7"/>
<path d="M161 99L161 160.5L100 160.5" stroke="#041822" stroke-width="4"/>
<path d="M430 160L369 160L369 99" stroke="#041822" stroke-width="4"/>
<path d="M369 430.5L369 369L430 369" stroke="#041822" stroke-width="4"/>
<path d="M100 369L161.5 369L161.5 430" stroke="#041822" stroke-width="4"/>
<path d="M74.5 221L117.5 264.5L74.5 307.5" stroke="#041822" stroke-width="4"/>
<path d="M308 74L264.5 117.5L221.5 74" stroke="#041822" stroke-width="4"/>
<path d="M456 308L412.5 265L455.5 221.5" stroke="#041822" stroke-width="4"/>
<path d="M222 455L265.5 412L308.5 455" stroke="#041822" stroke-width="4"/>
</svg>
