<svg width="530" height="530" viewBox="0 0 530 530" fill="none" xmlns="http://www.w3.org/2000/svg">
<path d="M283.5 224.5L284.5 230L289 227L338.5 192.5L305.5 240.5L302.5 245L308 246L419.5 264.5L306.5 283L301 284L304 288.5L338.5 338.5L288.5 304L284 301L283 306.5L264.5 419.5L246 308L245 302.5L240.5 305.5L192.5 338.5L227 289L230 284.5L224.5 283.5L109.5 264.5L223 246L228.5 245L225.5 240.5L192.5 192.5L240.5 225.5L245 228.5L246 223L264.5 109.5L283.5 224.5Z" stroke="#041822" stroke-width="7"/>
<path d="M418 153.5L427.5 146.5L421 156L441 159.5L421 163L427.5 172.5L418 166L414.5 186L411 166L401.5 172.5L408.5 163L388 159.5L408 156L401.5 146.5L411 153L414.5 133L418 153.5Z" fill="#041822"/>
<path d="M48 330L53 326L49.5 331.5L60 333L49.5 335L53 340L48 336.5L46 347L44.5 336.5L39 340L43 335L32 333L42.5 331L39 326L44 329.5L46 319L48 330Z" fill="#041822"/>
<path d="M417 451.5L435.5 439L423 457L460 463L423 469L435.5 487.5L417 475L411 512L405 475L387 487.5L399.5 469L362 463L399.5 457L387 439L405 451.5L411 414L417 451.5Z" fill="#041822"/>
<path d="M146 104.5L155.5 97.5L149 107L169 110.5L149 114L155.5 123.5L146 117L142.5 137L139 117L129.5 123.5L136.5 114L116 110.5L136 107L129.5 97.5L139 104L142.5 84L146 104.5Z" fill="#041822"/>
<circle cx="145" cy="372" r="4" fill="#041822"/>
<circle cx="159" cy="213" r="4" fill="#041822"/>
<circle cx="377" cy="190" r="4" fill="#041822"/>
<circle cx="317" cy="88" r="4" fill="#041822"/>
<circle cx="362" cy="319" r="4" fill="#041822"/>
<circle cx="469.5" cy="375.5" r="9.5" fill="#041822"/>
<circle cx="244.5" cy="502.5" r="9.5" fill="#041822"/>
<circle cx="215.5" cy="16.5" r="9.5" fill="#041822"/>
<circle cx="202" cy="425" r="4" fill="#041822"/>
<circle cx="43" cy="182" r="4" fill="#041822"/>
</svg>
