<svg width="530" height="530" viewBox="0 0 530 530" fill="none" xmlns="http://www.w3.org/2000/svg">
<path d="M222.5 203.5C222.5 203.5 223 203.5 223 203.5C223 203.5 223.5 204 223.5 204C224 205.5 224.5 206.5 225.5 208C228 213 230 218.5 230.5 224C231 229 232 233 233 237.5L233 237.5L233 237.5C234 244 235.5 250 235 256C234.5 261.5 234.5 265 234 268L234 268.5C234 272 234 275.5 233 279.5V279.5C233 282 232 283.5 231.5 285L231.5 285C231 286.5 230.5 287.5 230 290C229.5 291.5 229.5 292.5 229 293.5L229 293.5L229 293.5C227 300.5 225 308.5 225 332.5L225 333.5C225 336 225 339 225 341.5L225 341.5V341.5C225 350 224.5 359 226.5 370.5C227 373.5 227 376 227 378V378C227 379.5 227 381 227 382C227.5 384.5 227.5 386 227.5 387C227 388.5 227 389.5 226.5 390.5L226.5 390.5V390.5L226.5 390.5C226.5 392 226 394 225.5 397.5V397.5C225.5 398.5 225.5 400.5 225.5 402.5L225.5 402.5C225.5 405.5 225 409 225 411V411C222 431.5 227.5 446.5 232 459V459L232 459L232 459L233 461C234.5 465.5 236 469.5 236.5 473.5C237 475.5 237.5 477.5 237.5 479L237.5 479C238 481 238.5 483 238.5 484C238.5 485.5 238 487 237 488C237 488 237 488.5 237 488.5C237 488.5 237 488.5 237 488.5C237 488.5 237 489 237 489C237 489.5 237 490 236.5 490.5V490.5C236.5 492 236 494.5 235 496L234.5 496.5C234 497.5 233 498.5 233 499.5C232.5 500 232.5 500.5 232 500.5C232 501 232 501 232 501L232 501C232 501.5 232 502 232 502L232 502C232 502.5 232 503 232 503C232 503.5 232 503.5 232 503.5L232 503.5C232 504 233 504.5 235.5 504.5C238 504.5 239.5 504.5 241 504.5L241.5 504.5H241.5C243 504.5 243.5 504.5 244.5 504.5C245 504.5 245 504.5 245 504C246.5 503.5 248 503.5 249 504.5C249 504.5 249 504.5 249 504.5C249.5 504.5 249.5 504.5 250 504.5C250.5 504.5 251.5 504.5 252 504.5H252C252 504.5 252.5 504 252.5 503.5C253 503 253 502 253 501C253 501 253 501 253 500.5C253 500.5 253 500 252.5 499.5V499.5L252.5 499C252 498 252 496.5 252 494.5C252 494 252 493.5 252 493C252 492.5 251.5 491.5 251.5 491H251.5C251 489 250 486.5 250.5 484L250.5 483.5C251 482 250.5 481 250 478.5V478.5C249.5 476 248.5 472 248 464.5L248 463C247.5 457 248 451 248 446L248.5 444L248.5 444C249 438 249 433 248.5 429V429C247 420.5 246.5 416 247 407C247 404 248 401 249 397.5L249 397.5C250.5 391 252.5 383.5 252 370L252 369.5C252 367.5 252 365 253 362C253.5 359 254.5 355 255 351L255.5 351V351L255.5 351C258 339.5 261.5 325 262 308C262 307 263 306 264 306L264.5 306C265.5 306 266 307 266 308L266 308C266 325.5 262 341 259 352C258.5 356 257.5 359.5 257 362.5C256.5 365.5 256 368 256 370V370C256.5 384 254.5 392 253 398.5C252 402 251.5 404.5 251 407.5V407.5C251 416.5 251 420.5 252.5 428C253.5 432.5 253 438 252.5 444L252.5 444.5L252.5 444.5C252 450 251.5 456 252 462.5C252.5 471 253.5 475 254 477.5L254 477.5V477.5C254.5 480 255 482 254.5 484.5V484.5C254.5 486 254.5 487.5 255 489L255.5 490V490L255.5 490C256 491.5 256.5 493 256 495C256 496 256.5 497.5 256.5 498.5V498.5C257 499 257 500 257 500.5L257 501L257 501.5C257 502.5 257 504 256.5 505.5C255.5 507 254.5 508 253 508.5L253 508.5C252 508.5 251.5 508.5 251 508.5C251 508.5 250.5 508.5 250.5 508.5C250 508.5 249 508.5 248 508.5C247.5 508.5 247 508 247 508C245.5 508.5 244.5 508.5 242.5 508.5L241 508.5H241C240 508.5 238 508.5 235.5 508.5C232.5 508.5 230 508 228.5 506V506C227 504.5 227.5 502.5 228 501.5V501.5L228 501.5L228 501H228C228 501 228 501 228 501L228 501C228 500.5 228 500 228.5 499.5C228.5 499 228.5 498.5 229 498C229.5 496.5 230.5 495.5 231.5 494L231.5 494C231.5 493.5 232 493 232 492C232.5 491.5 232.5 490.5 232.5 489.5V489.5L232.5 489.5C233 489 233 488.5 233 488C233 487.5 233.5 487 233.5 486.5L233.5 486C234 485.5 234 485 234 484C234 483 234 482 233.5 480C233.5 478.5 233 476.5 232.5 474V474C232 470.5 230.5 466 228.5 460.5L228.5 460.5C224 448.5 217.5 432 221 410.5V410.5C221 408.5 221 405.5 221.5 402.5V402.5C221.5 400.5 221.5 398.5 221.5 397V397C222 393.5 222.5 391.5 222.5 390L223 389C223 388.5 223 387.5 223 387C223.5 386 223 384.5 223 382.5L223 382C223 380.5 223 379.5 223 378L223 378L223 378C223 376 223 374 222.5 371.5L222.5 370C220.5 359 220.5 350 221 341.5L221 341.5C221 338.5 221 335.5 221 332.5C221 308 223 300 225 292.5V292.5C225.5 291.5 225.5 290.5 226 289L226 288C226.5 286 227.5 284.5 228 283.5L228 283.5V283.5C228.5 282 229 281 229 279L229.5 278C230 274.5 230 272 230 268L230 268L230 268C230 265 230.5 261.5 231 256L231 255.5C231 250 230 244.5 229 238.5C228 234 227 229.5 226.5 224.5V224.5C226 219.5 224.5 214.5 221.5 210V210C221 208.5 220.5 207 219.5 205.5L219.5 205.5C219.5 205.5 219.5 205 219.5 205C220 204.5 220 204.5 220.5 204.5L222 203.5L222.5 203.5Z" fill="#041822" stroke="#041822" stroke-width="2" stroke-linejoin="round"/>
<path d="M246.5 119.5L246.5 119.5C247.5 120 248.5 120.5 248.5 122L248.5 122C248.5 124.5 248.5 127 248.5 129C248.5 130 248.5 131 248.5 131.5L248.5 132L248.5 132C248.5 132.5 248.5 132.5 248.5 133L248.5 133C248.5 133 248.5 133.5 248 134C247.5 134.5 247 134.5 246 134.5C246 135 246 135 246 135.5C246.5 136 246.5 137 247 138.5L247 138.5C247 139 247 139.5 247 139.5L247 140.5C247 141 247.5 141 247.5 141.5C247.5 141.5 247.5 141.5 248.5 142L248.5 142C248.5 142.5 248.5 142.5 249 142.5C249 142.5 249.5 143 250 143.5C250.5 144 251 145 251 145.5C251.5 146 251.5 147 251.5 147.5V147.5C251.5 148 252 148.5 252 149C252.5 151.5 254 153.5 256 154.5C256.5 155.5 257 156.5 256 157.5C255.5 158 255 158.5 254.5 158.5C254.5 158.5 254.5 158.5 254.5 158.5C254 158.5 253.5 158 253 158C251 156 249 153.5 248 150L248 150C248 149.5 247.5 149 247.5 148.5C247.5 148 247.5 147.5 247.5 147C247.5 147 247 146.5 247 146.5C247 146.5 247 146.5 247 146.5C247 146.5 247 146 246.5 146V146C246.5 146 246 145.5 246 145.5C245 144.5 244 144 243.5 143C243.5 142.5 243 142 243 141L243 140.5C243 140 243 140 243 139.5L243 139.5C242.5 138 242 136.5 242 135.5C242 134 242 132.5 243 131.5V131.5C243.5 131 244 131 244.5 131C244.5 129 244 125.5 244 122V122C244 120.5 245 119.5 246.5 119.5H246.5Z" fill="#041822" stroke="#041822" stroke-width="2" stroke-linejoin="round"/>
<path d="M253 155C253.5 154 255 154 256 154.5L256 154.5C256 155 256.5 155 256.5 155.5H256.5C257 155.5 257.5 156 258 156.5L258 156.5C259 157 260 157.5 261 158C263.5 159.5 266.5 159.5 269 158C270 157.5 271 157 272 156.5L272 156.5C272.5 156 273 155.5 273.5 155.5C273.5 155 274 155 274 154.5V154.5C275 154 276.5 154 277 155L277 155L277 155C278 156 277.5 157.5 277 158L277 158C276.5 158 276 158.5 276 158.5L275.5 159L274 160C273 160.5 272 161 271 161.5C269 162.5 267 163 265 163C265 163 265 163 265 163C263 163 261 162.5 259 161.5C258 161 257 160.5 256 160V160C255.5 159.5 255 159 254.5 159V159C254 158.5 253.5 158.5 253 158L253 158C252.5 157 252 156 253 155Z" fill="#041822" stroke="#041822" stroke-width="2" stroke-linejoin="round"/>
<path d="M220.5 203C220 203 219.5 203 219.5 202.5C216 193.5 214 191 212 188C211.5 187.5 211 186.5 210.5 185.5C209 183.5 203 181.5 197.5 179C193.5 177.5 189.5 176.5 187 175C184.5 173.5 183 172.5 181 172C180 171.5 179 171 177.5 170.5C176 169.5 174.5 169 173 168C170.5 166.5 168 165 165 164.5C156.5 163 146 158.5 136.5 152C128 146.5 121 143 116 140.5C114.5 139.5 113 139 111.5 138C110.5 137.5 109 137 108 137C107 136.5 105.5 136.5 104.5 136C97.5 133 96 131.5 94 129.5C93 128.5 92.5 127.5 91.5 127C85.5 121.5 84 120 84 118C84.5 117 84.5 117 85 116.5C84 116 83.5 115.5 83 115C81 113 81.5 111.5 81.5 111C82 111 82 110.5 82.5 110C82 110 82 109.5 81.5 109C81.5 108 81.5 107 82 106.5C82.5 105.5 83.5 105 84 105C85 105 86 105.5 86.5 106C87 106 87 105.5 87.5 105.5C89 104.5 91.5 105.5 93.5 106.5C93.5 106.5 94 107 94 107C95.5 107.5 98 109 100.5 110C100.5 110 100.5 110 100.5 109.5C100.5 108.5 101 108 102 107.5C103.5 106.5 106 108 110 111C111.5 112 112.5 112.5 113.5 113C116 114.5 118.5 118.5 120 122C120 123 120 123.5 120.5 123.5C120.5 125 120.5 125.5 125.5 127C129 127.5 132.5 128.5 136 129C142 130.5 148 131.5 153.5 133.5C162 136.5 167.5 141 171.5 144C173.5 145.5 175 147 176.5 147.5C178 148.5 180 148.5 182.5 149C187.5 150 194.5 151.5 203 156.5C205.5 158 205.5 158 207.5 157.5C222.5 154 233.5 160.5 239 164L239.5 164C239.5 164 239.5 164.5 240 164.5C240.5 165 242 165.5 242 165.5H242C243 165.5 243.5 165.5 243.5 166.5C244 167 243.5 167.5 243 167.5C241.5 168 240.5 167.5 239 166C238.5 166 238.5 166 238 166L238 165.5C232.5 162.5 222 156.5 208 159.5C205.5 160 204.5 160 202 158.5C193.5 153.5 187 152 182 151C179.5 151 177.5 150.5 175.5 149.5C174 149 172 147.5 170 145.5C166 142.5 160.5 138.5 152.5 135.5C147 133.5 141.5 132.5 135.5 131.5C132 130.5 128.5 129.5 125 129C119.5 127 119 126.5 118 124C118 124 118 123.5 118 123C116 118.5 114 115.5 112.5 115C111.5 114.5 110.5 113.5 109 112.5C107.5 111.5 104 109 103 109C102.5 109.5 102.5 109.5 102.5 110C102.5 110 102.5 111 103.5 112C104 112.5 104 113 103.5 113.5C103.5 114 103 114 102.5 113.5C102.5 113.5 95 109.5 93.5 109C93 109 93 108.5 92.5 108.5C91.5 108 89 107 88.5 107C88.5 107.5 88.5 107.5 88.5 108C88.5 108.5 88 109 87.5 109C87 109 87 109 86.5 108.5C86 108 84.5 107 84 107C84 107 84 107 84 107.5C83.5 108 83.5 108 83.5 108C84 109 85 109.5 85.5 109.5C86 110 86 110.5 86 111C86 111.5 85 111.5 84.5 111.5C84.5 111.5 83.5 112 83.5 112C83.5 112.5 84 113 84 113C87 115.5 88 116.5 88 116.5C88.5 117 88.5 117.5 88.5 118C88 118.5 87.5 118.5 87 118.5C86.5 118.5 86.5 118 86.5 118C86 119.5 87.5 120.5 92.5 125C94 126 95 127 95.5 128C97.5 130 98.5 131.5 105.5 134C106.5 134.5 107.5 134.5 108.5 134.5C109.5 135 111 135.5 113 136.5C114 137 115.5 137.5 117 138.5C122 141 129 144.5 137.5 150.5C147 156.5 157 161 165.5 162.5C168.5 163 171.5 164.5 174 166C175.5 167 177 168 178 168.5C179.5 169 181 169.5 182 170C183.5 170.5 185 171.5 188 173C190.5 174.5 194.5 176 198 177C204.5 179.5 210.5 182 212.5 184.5C213 185.5 213.5 186 214 187C216 189.5 218 192.5 221.5 201.5C221.5 202.5 221.5 203 221 203C220.5 203 220.5 203 220.5 203L220.5 203Z" fill="#041822"/>
<path d="M109 118C108.5 118 108.5 118 108 117.5C105.5 115 102.5 114 102.5 114C102 113.5 101.5 113 102 112.5C102 112 102.5 111.5 103.5 112C103.5 112 106.5 113.5 109.5 116C110 116.5 110 117.5 109.5 117.5C109.5 118 109 118 109 118L109 118Z" fill="#041822"/>
<path d="M99 117C99 117 99 116.5 98.5 116.5C92 112 87 109 86.5 109C86 108.5 86 108 86.5 107.5C86.5 107 87.5 107 88 107C88 107 93 110 100 115C100.5 115 100.5 116 100 116.5C100 116.5 99.5 117 99 117L99 117Z" fill="#041822"/>
<path d="M97 120C96.5 120 96.5 120 96 120C89.5 115.5 84.5 111.5 84.5 111.5C84 111 83.5 110.5 84 110C84.5 109.5 85 109.5 85.5 109.5C85.5 109.5 91 113.5 97.5 118C98 118.5 98 119 97.5 119.5C97.5 120 97 120 97 120H97Z" fill="#041822"/>
<path d="M96 124.5C95.5 124.5 95.5 124 95 124C89 119 87 118.5 87 118.5C86.5 118.5 86.5 118 86.5 117C86.5 116.5 87 116.5 88 116.5C88 116.5 90 117.5 96.5 122.5C97 122.5 97 123.5 96.5 124C96.5 124 96 124.5 96 124.5Z" fill="#041822"/>
<path d="M312 200.5C311.5 200.5 311.5 200.5 311.5 200.5C311 200 310.5 199.5 311 199C311 198.5 315 186 320.5 183C323 181.5 326.5 180 330.5 178.5C335 177 339.5 175 343 173C346 171 347.5 170.5 349.5 169.5C350.5 169.5 351 169 352 168.5C353.5 168 355 167 356 166C359 164.5 361.5 163 365 162.5C373.5 161 383.5 157 393 150.5C401.5 144.5 408.5 141 413 138.5C415 137.5 416.5 137 417.5 136.5C419 135.5 420.5 135 422 134.5C423 134.5 424 134.5 425 134C431.5 131.5 433 130 435 128C435.5 127 436.5 126 437.5 125C443 120 444 119 444 118C444 118 443.5 118.5 443.5 118.5C443 118.5 442.5 118.5 442 118C441.5 117.5 441.5 117 442 117C442 117 443.5 115.5 446 113C446.5 113 447 112.5 447 112C446.5 112 446 111.5 445.5 111.5C445 111.5 444.5 111.5 444.5 111C444 110.5 444.5 110 445 109.5C445.5 109.5 446.5 109 446.5 108C446.5 108 446.5 108 446.5 107.5C446.5 107 446 107 446 107C445.5 107 444.5 108 444 108.5C443.5 109 443 109 442.5 109C442.5 109 442 108.5 442 108C442 107.5 442 107.5 442 107C441 107 439 108 438 108.5C437.5 108.5 437 109 437 109C435 109.5 428 113.5 428 113.5C427.5 114 427 114 426.5 113.5C426.5 113 426.5 112.5 426.5 112C428 111 428 110 428 110C428 110 428 109.5 427.5 109C426.5 109 423 111.5 421.5 112.5C420 113.5 418.5 114.5 418 115C416.5 115.5 414.5 118.5 412.5 123C412.5 123.5 412 124 412 124C411.5 126.5 411 127 405 129C402 129.5 398.5 130.5 394.5 131.5C389 132.5 383 134 377.5 135.5C369.5 138.5 364 142.5 360.5 145.5C358 147.5 356.5 149 354.5 149.5C353 150.5 351 151 348.5 151C343.5 152 337 153.5 328.5 158.5C325.5 160 325 160 322.5 159.5C308.5 156.5 297.5 162.5 292.5 165.5L292 166C291 166.5 287 167 285.5 166.5C285 166.5 284.5 165.5 285 165C285 164.5 285.5 164.5 286 164.5C287 164.5 290.5 164.5 291 164L291.5 164C297 160.5 308 154 323 157.5C325 158 325 158 327 157C336 151.5 343 150 348 149C350.5 148.5 352.5 148.5 354 147.5C355.5 147 357 146 359 144C363 141 368.5 136.5 377 133.5C382.5 131.5 388.5 130.5 394.5 129C398 128.5 401.5 127.5 404.5 127C409.5 125.5 410 125 410 123.5C410 123.5 410.5 123 410.5 122C412 118.5 414.5 114.5 417 113C417.5 112.5 419 112 420 111C424 108 427 106.5 428.5 107.5C429.5 108 430 108.5 430 109.5C430 110 430 110 430 110C432 109 435 107.5 436 107C436.5 107 436.5 106.5 437 106.5C439 105.5 441.5 104.5 443 105.5C443 105.5 443.5 106 443.5 106C444.5 105.5 445.5 105 446.5 105C447 105 447.5 105.5 448.5 106.5C449 107 449 108 448.5 109C448.5 109.5 448 110 448 110C448 110.5 448.5 111 448.5 111C449 111.5 449.5 113 447.5 115C447 115.5 446 116 445.5 116.5C446 117 446 117 446 118C446.5 120 445 121.5 439 127C438 127.5 437 128.5 436.5 129.5C434.5 131.5 433 133 426 136C424.5 136.5 423.5 136.5 422.5 137C421 137 420 137.5 418.5 138C417.5 139 416 139.5 414 140.5C409.5 143 402.5 146.5 394 152C384.5 158.5 374 163 365 164.5C362.5 165 360 166.5 357 168C356 169 354.5 169.5 353 170.5C352 171 351 171 350.5 171.5C348 172.5 347 173 344 175C340.5 177 335.5 178.5 331 180.5C327.5 182 324 183.5 321.5 184.5C318 187 314 196.5 313 199.5C312.5 200 312.5 200.5 312 200.5L312 200.5Z" fill="#041822"/>
<path d="M421.5 118C421 118 421 118 420.5 117.5C420.5 117.5 420.5 116.5 420.5 116C423.5 113.5 427 112 427 112C427.5 111.5 428 112 428.5 112.5C428.5 113 428.5 113.5 428 114C428 114 425 115 422 117.5C422 118 421.5 118 421.5 118V118Z" fill="#041822"/>
<path d="M431 117C431 117 430.5 116.5 430 116.5C430 116 430 115 430.5 115C437 110 442.5 107 442.5 107C443 107 443.5 107 444 107.5C444.5 108 444 108.5 443.5 109C443.5 109 438.5 112 431.5 116.5C431.5 116.5 431.5 117 431 117L431 117Z" fill="#041822"/>
<path d="M433.5 120C433 120 433 120 432.5 119.5C432.5 119 432.5 118.5 433 118C439.5 113.5 445 109.5 445 109.5C445.5 109.5 446 109.5 446 110C446.5 110.5 446.5 111 446 111.5C446 111.5 440.5 115.5 434 120C434 120 434 120 433.5 120H433.5Z" fill="#041822"/>
<path d="M434.5 124.5C434 124.5 434 124 433.5 124C433.5 123.5 433.5 122.5 434 122.5C440.5 117.5 442 116.5 442.5 116.5C443 116.5 443.5 116.5 444 117C444 118 443.5 118.5 443 118.5C443 118.5 441.5 119.5 435 124C435 124 434.5 124.5 434.5 124.5Z" fill="#041822"/>
<path d="M147.5 476C147 476 146.5 476 146 476C144 475 143 474 142.5 473C141 473 140 472.5 137.5 470.5C136 470 134.5 469 132.5 467.5C129.5 466 128 464.5 128 463C127.5 461.5 128.5 461 129 460.5C129.5 460 129.5 460 129.5 460C130.5 458.5 138 453 141 451.5C143.5 450.5 145 448.5 148.5 440C150 436 151 430.5 152.5 424C154 417.5 155.5 409.5 158 402.5C162 390.5 167.5 384.5 173 377.5C174 376.5 175 375.5 176 374.5C178 372 179.5 369 181 366.5C182 364.5 183 362.5 184.5 360.5C185.5 359 186.5 357.5 187.5 356.5C189.5 354 192 351.5 193 348C197.5 331.5 202.5 320 208 310.5C213 303 216 300 219 296.5C220 295.5 221 294.5 222.5 293C227.5 287 230 279 230 279C230.5 278.5 231 278 231.5 278.5C232 278.5 232.5 279 232 279.5C232 280 229 288 224 294C222.5 295.5 221.5 297 220.5 298C217.5 301.5 214.5 304.5 210 311.5C204.5 320.5 199.5 332 195 348.5C193.5 352.5 191.5 355 189 358C188 359 187 360.5 186.5 361.5C185 363.5 184 365.5 183 367.5C181.5 370 179.5 373 177.5 376C176.5 377 175.5 378 174.5 379C169 385.5 164 391.5 160 403C157.5 410 156 418 154.5 424.5C153 431 152 436.5 150.5 440.5C147 449 145 452 142 453.5C139 455 132 460 131.5 461C131 461.5 131 461.5 130.5 462C130 462 130 462.5 130 462.5C130 463 130.5 464 133.5 466C135.5 467 137.5 468 138.5 469C141 470.5 141.5 471 142.5 471C143.5 471 144.5 471.5 144.5 472.5C144.5 472.5 145 473 146.5 474C147.5 474 148.5 474 150 472C150.5 471 152 469 153.5 467C154 466 154.5 464.5 155.5 463C156 461.5 157 459.5 158.5 457.5C159.5 456 159.5 455 160 453.5C161 451 162 447.5 167.5 439C170.5 434 174.5 429.5 178 425.5C182.5 420 186.5 415 188 411L189 408.5C192 400.5 195.5 390.5 199 385.5C200 384.5 201 383 202.5 381C205.5 378 208.5 374 212.5 368.5C213.5 367 214.5 366 216 364.5C218 362.5 219.5 361 221 358.5C223.5 353 228 347 234 339.5C239.5 332 246.5 323.5 254 312C258 306.5 264 307 264.5 307C265 307 265.5 307.5 265 308C265 308.5 264.5 309 264 309C264 309 259 308.5 256 313.5C248 325 241 333.5 236 340.5C229.5 348.5 225.5 354 222.5 359.5C221.5 362 219.5 364 217.5 366C216 367 215 368.5 214 369.5C210.5 375 207 379 204 382.5C203 384 201.5 385.5 200.5 387C197.5 391.5 193.5 401.5 191 409L190 411.5C188.5 416.5 184 421.5 179.5 427C176 431 172.5 435.5 169 440.5C164 448 163 452 162 454C161.5 456 161.5 457 160 459C158.5 460.5 158 462 157 464C156.5 465.5 156 467 155 468C153.5 470 152.5 472 151.5 473C150.5 475.5 149 476 147.5 476H147.5Z" fill="#041822"/>
<path d="M248.5 122C248.5 123 247.5 124 246.5 124H246.5C245 124 244 123 244 122V122C244 117 245.5 112.5 249 109.5C253.5 105 261 104 265 104C269.5 104 274 105.5 278 108.5C282 111 285 115 285 119.5C285.5 124 285.5 128.5 285.5 131C286 131 286.5 131 287 131.5H287C288 132.5 288 134 288 135.5C288 136.5 287.5 138 287 139.5V139.5C287 140 287 140 287 140.5C287 141.5 287 142.5 286.5 143C286 144 285.5 144.5 284 145.5L284 145.5C284 145.5 283.5 146 283.5 146L283.5 146C283 146 283 146.5 283 146.5C283 146.5 283 146.5 283 146.5C283 146.5 282.5 147 282.5 147C282.5 147.5 282.5 148 282.5 148.5C282.5 149 282 149.5 282 149.5L282 149.5C282 150 282 150 282 150L282 150C281.5 151 281.5 152 281 152.5C281 152.5 281 152.5 281 152.5C281 152.5 281 152.5 281 152.5L281 152.5C280 155 278.5 156.5 277 158L277 158C276.5 158 276 158.5 275.5 158.5C275.5 158.5 275.5 158.5 275.5 158.5C275 158.5 274.5 158 274 157.5C273 156.5 273.5 155.5 274 154.5L274 154.5C275.5 153.5 276.5 152.5 277.5 151C277.5 151 277.5 151 277.5 151C277.5 151 277.5 151 277.5 151C277.5 150 278 149.5 278 149L278 149C278 149 278 149 278 149C278 149 278 149 278 149C278 149 278 149 278 149C278 149 278 149 278 149C278 148.5 278.5 148 278.5 147.5L278.5 147.5C278.5 147 278.5 146 279 145.5C279 145 279.5 144 280 143.5L280 143.5C280.5 143 281 143 281 142.5L281.5 142.5C281.5 142.5 281.5 142.5 282 142C282.5 141.5 282.5 141.5 282.5 141.5C283 141 283 141 283 140C283 139.5 283 139 283 138.5C283.5 137 283.5 136 284 135.5C284 135 284 135 284 134.5C283 134.5 282.5 134.5 282 134C281.5 133.5 281.5 133 281.5 133C281.5 133 281.5 133 281.5 133C281.5 132.5 281.5 132.5 281.5 132.5L281.5 132.5C281.5 132.5 281.5 132 281.5 131C281.5 130.5 281.5 129.5 281.5 128.5C281.5 126 281.5 123 281 119.5V119.5C281 116.5 278.5 114 275.5 111.5C272.5 109.5 268.5 108 265 108C263.5 108 261 108.5 258.5 109C256 109.5 253.5 110.5 251.5 112.5C249.5 114.5 248.5 118 248.5 122V122Z" fill="#041822" stroke="#041822" stroke-width="2" stroke-linejoin="round"/>
<path d="M302.5 222H302.5C303.5 222 304.5 223 304.5 224.5V224.5C304 228 303 231.5 302.5 235L301.5 238C300 244.5 298.5 250.5 299 256L299 256C300 262 299.5 265.5 299.5 269V269C299.5 272.5 299.5 275 300 279V279C302 290 301.5 294 301 297.5C300.5 300 300.5 302 300.5 306H300.5L301 307C302 317 304 336.5 298 359.5C295 369.5 294 375 293 379C292.5 382.5 292.5 384.5 293 388C294 391.5 294 394 293.5 396.5C293 398.5 292.5 400.5 291.5 402L290.5 404L290 405.5L290 405.5L289.5 407C288.5 409.5 287.5 411 287.5 413.5C287 415.5 287.5 419 288.5 424.5L288.5 426C289.5 433 289 436.5 288.5 442.5C288 446 287.5 451 287 458C287 459 287 460.5 287 461.5L286.5 465C286 472 286 476.5 286 479.5C286.5 481 286.5 482.5 287 483C287.5 484 288.5 485 289 485.5C290.5 486 292 487 293 488L294 489L294 489C298 491.5 301.5 494 307 494.5H307C310.5 495 313.5 495.5 315.5 496C317.5 496.5 319 497 319.5 498.5C320.5 499.5 320.5 500.5 320.5 502C320 504.5 318 506 315.5 506.5C313 507.5 309.5 507.5 305.5 507.5L305.5 507.5C302.5 507.5 299.5 507 297 506.5L295.5 506.5C290.5 505.5 285.5 505 280.5 506L280.5 506C276.5 507 272.5 508 269.5 508C269.5 508 269.5 508 269.5 508C267.5 508 265.5 507.5 264 506.5L264 506.5C262.5 505 261.5 503 261.5 501V501C261.5 498.5 262.5 496 263 494L263.5 492C263.5 490.5 264 488.5 264 487.5V487.5C263 473.5 260.5 464 258.5 455.5C255.5 443 253 433 257 416L257 415.5L257 415.5C258.5 410 260.5 402 260.5 396.5C260.5 394.5 260 393 260 391.5C259.5 389.5 259 387.5 259 385L259 384.5C259.5 382.5 259.5 380.5 260 379C260.5 377 261 375.5 261 373.5C261 368 260 362.5 259.5 357V357C258.5 352 258 347 258 341V341C258 340 258.5 339 260 339H260C261 339 262 339.5 262 340.5L262 341V341C262 346.5 262.5 351.5 263.5 356.5C264 362 265 367.5 265 373.5C265 375.5 264.5 377 264.5 378.5L264 380C263.5 381.5 263.5 383.5 263.5 385C263.5 387 263.5 388 263.5 389.5L264 390.5C264 392 264.5 394 264.5 396.5C264.5 402.5 262.5 411 261 416.5L261 417L261 417C257 433 259.5 442.5 262.5 454.5L263.5 458C265 465.5 267 474 268 486L268 487C268 489.5 267.5 491.5 267 494L267 495C266.5 497 265.5 499 265.5 501C265.5 502 266 503 266.5 503L266.5 503C267 503.5 267.5 503.5 268.5 504C269 504 270 504 271 504C273.5 503.5 276.5 503 279.5 502C285.5 500.5 291 501.5 296.5 502.5C299.5 503 302.5 503.5 305.5 503.5C309.5 503.5 312.5 503 314 503C316 502.5 316.5 501.5 316.5 501C316.5 501 316.5 501 316.5 501C316.5 501 316.5 501 316.5 501L316.5 501C316.5 500.5 316 500.5 315 500C314.5 500 313.5 499.5 312.5 499.5C310 499 308 499 307 499C300 498.5 296 495 292 492L290.5 491C289.5 490.5 288.5 489.5 287 489C285.5 488 284.5 487 283.5 485.5C283 484 282.5 482.5 282 480.5C281.5 477 282 471.5 282.5 465C282.5 462.5 282.5 460 283 457.5C283.5 450.5 284 446 284.5 442C285 436 285.5 432.5 284.5 425C283.5 419 283 415.5 283.5 413C283.5 410 284.5 408 285.5 405.5C286 405 286 404.5 286.5 404H286.5L287 402.5V402.5C288 400 289 398 289.5 396C289.5 394 289.5 392 289 388.5L289 387.5C288.5 384.5 288.5 382 289 378.5C289.5 374.5 291 368.5 294 358.5C300 336 298 318 297 307.5L296.5 306.5C296 302 296.5 299.5 297 297C297.5 293.5 298 290 296 279.5L296 279C295.5 275 295.5 272 295.5 269C295.5 265.5 295.5 262 295 256C294.5 250 296 243.5 297.5 237.5L298.5 234C299 230.5 300 227.5 300.5 224V224C300.5 222.5 301.5 222 302.5 222Z" fill="#041822" stroke="#041822" stroke-width="2" stroke-linejoin="round"/>
<path d="M357 489C356.5 489 356 489 356 489C354 488.5 352 487 351 485C350 483 349.5 480.5 349.5 478.5C349 476 348.5 473.5 347.5 472C341 460 334.5 452.5 329 445.5C320.5 435 313.5 427 310 409.5L310 409C308.5 403.5 306.5 395.5 304 390.5C303 388.5 302.5 387 301.5 385.5C300.5 384.5 299.5 383 298 380.5C297.5 378.5 297 376 296.5 373.5C296 371 295.5 368 294.5 366.5C292 361 289 357.5 286 353.5C283 350 280 346.5 277.5 341.5C274.5 336 272.5 329 270.5 323C268.5 316 266.5 309 264 309C263.5 309 263 308.5 263 308C263 307.5 263.5 307 264 307C268 307 270 313.5 272.5 322C274.5 328.5 276.5 335 279.5 340.5C282 345.5 285 349 287.5 352.5C290.5 356 294 360 296.5 365.5C297.5 367.5 298 370.5 298.5 373C299 375.5 299.5 378 300 379.5C301 382 302 383 303 384.5C304 386 305 387 306 389.5C308.5 395 310.5 403 312 408.5L312 409C315.5 426 322.5 434 330.5 444C336.5 451 342.5 459 349.5 471C350.5 473 351 475.5 351.5 478C351.5 480 352 482.5 353 484C353.5 485.5 355 486.5 356 487C359 487 362.5 485 366.5 480.5C370 476.5 373 476 376.5 475.5C380 474.5 384.5 474 392 469.5C397.5 466 397.5 465.5 397 464C396.5 463.5 396.5 463.5 396.5 463C396.5 462 394 462.5 391.5 463C390 463.5 388.5 463.5 386.5 464C381 464 377.5 463.5 374.5 463C372.5 463 370.5 462.5 368.5 462.5C362 462 359.5 456.5 354.5 444C353.5 441.5 352.5 439.5 351.5 437C348.5 430 347 425 346 421.5C344 415.5 342.5 411.5 338 405C331 395 330.5 391 330 383.5L330 382C329.5 376.5 329.5 373.5 325.5 368.5C322 363 321.5 362.5 319 349.5C319 347 318.5 344.5 317.5 342C315 328 310.5 316.5 305 308C300 300.5 298.5 293.5 298 289C298 288.5 298.5 288 299 288C300 288 300.5 288 300.5 289C300.5 292 302 299 307 306.5C312.5 315.5 317 327.5 320 341.5C320.5 344.5 321 347 321.5 349C323.5 362 324 362 327.5 367C331.5 372.5 331.5 376 332 382L332 383.5C332.5 390 332.5 393.5 340 404C344.5 410.5 346 414.5 348 420.5C349 424.5 350.5 429.5 353.5 436C354.5 438.5 355.5 441 356.5 443C361.5 455 363.5 460 368.5 460.5C371 460.5 372.5 461 374.5 461C378 461.5 381 462 386.5 461.5C388 461.5 389.5 461.5 391.5 461C394.5 460.5 398 459.5 398.5 462.5C398.5 463 398.5 463 399 463.5C399.5 466 399.5 467.5 393 471C385.5 476 380.5 477 377 477.5C373.5 478 371 478.5 368.5 482C364 486.5 360 489 357 489L357 489Z" fill="#041822"/>
<path d="M229.5 200C230.5 200 231.5 200.5 231.5 201.5L231.5 201.5C232 204.5 234.5 207.5 238 209H238C241 210.5 244.5 211 249 210C252.5 209.5 256.5 208 260 206.5L260 206.5C260.5 206 261.5 206.5 262 207.5C262.5 208 262 209 261 209.5C257.5 210.5 254 212 250 213L249.5 213C248 213.5 246 213.5 244.5 213.5L244.5 213.5H244.5C241.5 213.5 239 213 236.5 212C232 210 229 206.5 228.5 202C228.5 201 229 200.5 229.5 200Z" fill="#041822" stroke="#041822"/>
<path d="M298.5 201.5C298.5 200.5 299.5 200 300.5 200L300.5 200C301 200.5 301.5 201 301.5 202V202C301 206.5 298 210 293.5 212C291 213 288.5 213.5 285.5 213.5H285V213.5C283.5 213.5 282 213.5 280.5 213H280.5C276.5 212.5 272.5 211 269 209.5C268 209 267.5 208 268 207.5H268C268.5 206.5 269.5 206 270 206.5H270C273.5 208 277.5 209.5 281 210H281C285.5 211 289 210.5 292 209L292.5 209C295.5 207.5 298 204.5 298.5 201.5Z" fill="#041822" stroke="#041822"/>
<path d="M264 274C265 274 265.5 275 265.5 276V280.5C265.5 281 265 282 264 282C263 282 262.5 281 262.5 280.5V276C262.5 275 263 274 264 274Z" fill="#041822" stroke="#041822"/>
<path d="M265 508C260.5 508 256.5 508 252 507.5C251.5 507.5 251 507 251 506.5C251 506 251.5 505.5 252 505.5C267 506.5 282.5 505.5 297.5 503.5C298 503.5 298.5 504 298.5 504.5C298.5 505 298.5 505.5 297.5 506C287 507.5 276 508 265 508V508ZM229.5 505.5C229.5 505.5 229.5 505.5 229.5 505.5C172.5 497 120 468.5 81.5 424.5C43 380.5 22 323.5 22 265C22 131 131 22 265 22C399 22 508 131 508 265C508 320.5 489 374.5 454 418C419.5 460 371.5 490 318.5 502C318 502 317.5 502 317.5 501C317.5 500.5 317.5 500 318.5 500C427 475.5 506 376.5 506 265C506 132 398 24 265 24C132 24 24 132 24 265C24 383.5 112.5 486 230 503.5C230.5 503.5 231 504 230.5 504.5C230.5 505 230 505.5 229.5 505.5V505.5Z" fill="#041822"/>
<path d="M277.5 154C278.5 154 279.5 154.5 280 155.5L280 156L280 156C281.5 160.5 282.5 163.5 286 165.5L286.5 166C291.5 169 295.5 169 299.5 169H299.5C301 169 303 169 304.5 169.5C306 169.5 306.5 170 307.5 170L307.5 170C308 170.5 308.5 170.5 309 170.5C310 170.5 311.5 170.5 314.5 170.5C322 170.5 330 172 337.5 173L337.5 173H337.5L337.5 173.5C339 173.5 340.5 174 342 174L343.5 174.5C350 175.5 354.5 176 358 176C362 176 364.5 175 367.5 174.5L367.5 174.5C369 174.5 371 174 373 173.5C382 172.5 385 172.5 391 173.5L393 173.5C398 174 404.5 174.5 416 175C417.5 175 419 174.5 421 174L421 174H421C422.5 173.5 423.5 173 424.5 172C425.5 171 426.5 170 427 169L427.5 168.5V168.5L427.5 168.5V168.5C428.5 166.5 429.5 164.5 432.5 163.5C434 163 435.5 161.5 437 160.5H437C438 159.5 439 159 439.5 158.5C440.5 158 441.5 157.5 442.5 158H442.5C444 158.5 444.5 159.5 445 160.5L445 161C445.5 162.5 445 163.5 444.5 165C444 166 443 167.5 441.5 168.5L441.5 168.5L441 168.5L441 169C440.5 169 440 169.5 439.5 169.5C439.5 169.5 440 170 440 170H440C444.5 170.5 446.5 170.5 449 170H449L450 170C450.5 169.5 451 169.5 451.5 169.5L451.5 169.5C454.5 169 457.5 169 460 169C461 169 462 169.5 463 169.5C464 170 464.5 171 465 172H465L466 175C466 175 466 175 466 175C466.5 175 467 175.5 467 176C467.5 176 468 176.5 468.5 177C469 177 469 177.5 469.5 178C469.5 178.5 469.5 179 469.5 179C469.5 179.5 469.5 179.5 469.5 180C469.5 180.5 469 181.5 468.5 182C468.5 182.5 468 183.5 467.5 184C467.5 184 467 184.5 467 184.5C466.5 185 466 185 465.5 185H464.5C464.5 185.5 464 186 464 186.5C463 187.5 462.5 188.5 461 188.5C460.5 188.5 460.5 188.5 460 188.5C460 188.5 460 188.5 460 189C459.5 189 459.5 189 459 189.5C458.5 190 458.5 190 457.5 190.5C457 191 456.5 191.5 455.5 191.5C455 191.5 454 192 452.5 192C450.5 192.5 448 192.5 445 192.5C442 192.5 439.5 192.5 437 192.5C434.5 192 432.5 192 431 191.5C428 190.5 424.5 190.5 423.5 191C423.5 191 423.5 191 423.5 191C418 191.5 413.5 193 409 194.5C399 198 387.5 201.5 363.5 200C356.5 199.5 349.5 200 340.5 201C330.5 202.5 326.5 201.5 323.5 200.5H323.5L323.5 200.5C321.5 200 320 200 318.5 200H318.5C316.5 200 315 201 314 202.5C313 204 312 206 311 208V208L311 208C310.5 209.5 310 211 309 212.5V212.5C306.5 217 305 222 304.5 227C304 228 303.5 228.5 302.5 228.5C302 228.5 302 228.5 302 228.5C302 228.5 302 228.5 302 228.5V228.5C302 228.5 302 228.5 302 228.5C302 228.5 302 228.5 302 228.5V228.5C301 228.5 300 227.5 300.5 226.5V226.5C301 221 302.5 215.5 305.5 210.5C306 209.5 306.5 208 307 206.5C308 204.5 309 201.5 311 199.5C312.5 197.5 315 196 318 196L318.5 196C321 196 322.5 196 324 196.5L324.5 196.5H324.5L324.5 196.5H324.5C327 197.5 331 198 340 197C349 195.5 356.5 195.5 363.5 196C387 197.5 398 194 407.5 190.5L407.5 190.5L409.5 190C413.5 188.5 418 187.5 423 187L423 187C424 186.5 425.5 186.5 427 186.5C428.5 186.5 430 186.5 431.5 187C431.5 187 432 187 433 187C433.5 187 434.5 187.5 436 187.5C438 187.5 441 187.5 444 187.5C447 188 449.5 188 452 187.5C453 187.5 454 187.5 455 187.5C455 187.5 455.5 187.5 455.5 187.5C456 187 456 187 456 187C457 186.5 457 186 457.5 185.5C458 185.5 458 185 458.5 185C459 184.5 459.5 184.5 460 184.5C460.5 184.5 460.5 184.5 460.5 184C461 183.5 461 183 461 183C461 182.5 461 182.5 461.5 182C462 182 462.5 181.5 463 181.5C463.5 181 464 181 465 181C465 181 465 181 465 181C465 180.5 465.5 180.5 465.5 180C465.5 179.5 465.5 179 465.5 179C465 179 464 178.5 463.5 178C463 178 462.5 178 462 177.5C462 177 461.5 176.5 461.5 176C461.5 175.5 461.5 175 461.5 174.5C461 174 461 173.5 461 173.5C461 173 460.5 173 460 173C458.5 173 456 173 452 173.5L452 173.5L452 173.5L452 173.5C451 174 450.5 174 450 174H450C447 174.5 444.5 175 440 174L439 174C438.5 173.5 437.5 173.5 436.5 173C436 172.5 435 172 435 170.5C434.5 169 435 168 436 167.5C437 166.5 438 166 438.5 165.5L439 165C440.5 164 441 163.5 441 163C441 163 441 162.5 441 162.5C440.5 162.5 440 163 439.5 163.5L439.5 163.5C438 165 436 166.5 434 167H434C432.5 167.5 432 168.5 431 170.5L431 170.5C431 170.5 431 171 430.5 171C430 172.5 428.5 174 427 175C426 176.5 424 177.5 422.5 178L422.5 178L422 178H422C420 178.5 418 179 415.5 179H415.5C402.5 179 395.5 178 390.5 177.5L390.5 177.5H390.5C385 177 382 176.5 373.5 177.5H373.5C371.5 178 370 178.5 368.5 178.5L368 178.5C365 179.5 362 180 358 180C354.5 180 349.5 179.5 342.5 178.5L341.5 178C339.5 178 338 177.5 336.5 177.5L336.5 177.5C329.5 176 322.5 174.5 315.5 174.5L314.5 174.5C311.5 174.5 310 174.5 309 174.5C307.5 174.5 307 174 306 174V174C305.5 173.5 305 173.5 304 173.5H304C302.5 173 301 173 299.5 173H299.5C295.5 173 290 173 283.5 169H283.5C279 166 277.5 161.5 276 157L276 157V157L276 156.5L276 156.5C276 155.5 276.5 154.5 277.5 154V154Z" fill="#041822" stroke="#041822" stroke-width="2" stroke-linejoin="round"/>
<path d="M253 153C252 153 251 153.5 250.5 154.5L250.5 155L250.5 155C249 159.5 248 162.5 244.5 164.5L244 165C239 168 235 168 231.5 168H231.5C229.5 168 227.5 168 226 168.5C224.5 168.5 224 169 223.5 169L223.5 169C222.5 169.5 222.5 169.5 221.5 169.5C220.5 169.5 219 169.5 216 169.5C208.5 169.5 200.5 171 193.5 172L193 172H193L193 172.5C191.5 172.5 190 173 188.5 173L187 173.5C180.5 174.5 176 175 172.5 175C169 175 166 174 163 173.5L163 173.5C161.5 173.5 160 173 157.5 172.5C149 171.5 145.5 171.5 139.5 172.5L137.5 172.5C133 173 126.5 173.5 115 174C113.5 174 111.5 173.5 110 173L109.5 173H109.5C108.5 172.5 107 172 106 171C105 170 104 169 103.5 168L103 167.5V167.5L103 167.5V167.5C102 165.5 101 163.5 98 162.5C96.5 162 95 160.5 93.5 159.5H93.5C92.5 158.5 92 158 91 157.5C90 157 89 156.5 88 157H88C87 157.5 86 158.5 85.5 159.5L85.5 160C85.5 161.5 85.5 162.5 86 164C86.5 165 87.5 166.5 89 167.5L89 167.5L89.5 167.5L89.5 168C90 168 90.5 168.5 91 168.5C91 168.5 90.5 169 90.5 169H90.5C86.5 169.5 84 169.5 81.5 169H81.5L80.5 169C80 168.5 79.5 168.5 79.5 168.5L79 168.5C76 168 73 168 70.5 168C69.5 168 68.5 168.5 67.5 168.5C67 169 66 170 66 171H66L64.5 174C64.5 174 64.5 174 64.5 174C64 174 64 174.5 63.5 175C63 175 62.5 175.5 62 176C62 176 61.5 176.5 61 177C61 177.5 61 178 61 178C61 178.5 61 178.5 61 179C61.5 179.5 61.5 180.5 62 181C62 181.5 62.5 182.5 63 183C63.5 183 63.5 183.5 64 183.5C64 184 64.5 184 65 184H66C66 184.5 66.5 185 67 185.5C67.5 186.5 68.5 187.5 69.5 187.5C70 187.5 70.5 187.5 70.5 187.5C70.5 187.5 70.5 187.5 71 188C71 188 71 188 71.5 188.5C72 189 72.5 189 73 189.5C73.5 190 74 190.5 75 190.5C76 190.5 77 191 78 191C80 191.5 83 191.5 85.5 191.5C88.5 191.5 91 191.5 93.5 191.5C96 191 98 191 99.5 190.5C103 189.5 106 189.5 107 190C107 190 107 190 107 190C112.5 190.5 117 192 121.5 193.5C131.5 197 143 200.5 167 199C174 198.5 181.5 199 190 200C200 201.5 204 200.5 207.5 199.5H207.5L207.5 199.5C209 199 210.5 199 212.5 199H212.5C214 199 215.5 200 216.5 201.5C218 203 218.5 205 219.5 207V207L219.5 207C220 208.5 221 210 221.5 211.5V211.5C224 216 226 221 226 226C226.5 227 227 227.5 228.5 227.5C228.5 227.5 228.5 227.5 228.5 227.5C228.5 227.5 228.5 227.5 228.5 227.5V227.5C228.5 227.5 228.5 227.5 228.5 227.5C228.5 227.5 228.5 227.5 228.5 227.5V227.5C229.5 227.5 230.5 226.5 230.5 225.5V225.5C230 220 228 214.5 225 209.5C224.5 208.5 224 207 223.5 205.5C222.5 203.5 221.5 200.5 219.5 198.5C218 196.5 216 195 212.5 195L212 195C209.5 195 208 195 206.5 195.5L206.5 195.5H206.5L206.5 195.5H206.5C203.5 196.5 200 197 190.5 196C181.5 194.5 174 194.5 167 195C143.5 196.5 132.5 193 123 189.5L123 189.5L121 189C117 187.5 112.5 186.5 107.5 186L107.5 186C106.5 185.5 105 185.5 103.5 185.5C102 185.5 100.5 185.5 99.5 186C99 186 98.5 186 97.5 186C97 186 96 186.5 94.5 186.5C92.5 186.5 89.5 186.5 86.5 186.5C83.5 187 81 187 78.5 186.5C77.5 186.5 76.5 186.5 76 186.5C75.5 186.5 75 186.5 75 186.5C74.5 186 74.5 186 74.5 186C74 185.5 73.5 185 73 184.5C73 184.5 72.5 184 72 184C71.5 183.5 71 183.5 70.5 183.5C70.5 183.5 70 183.5 70 183C69.5 182.5 69.5 182 69.5 182C69.5 181.5 69.5 181.5 69 181C69 181 68.5 180.5 67.5 180.5C67 180 66.5 180 65.5 180C65.5 180 65.5 180 65.5 180C65.5 179.5 65 179.5 65 179C65 178.5 65 178 65 178C65.5 178 66.5 177.5 67 177C67.5 177 68 177 68.5 176.5C68.5 176 69 175.5 69 175C69 174.5 69 174 69.5 173.5C69.5 173 69.5 172.5 69.5 172.5C70 172 70 172 70.5 172C72 172 74.5 172 78.5 172.5L78.5 172.5L79 172.5L79 172.5C79.5 173 80 173 80.5 173H80.5C83.5 173.5 86 174 90.5 173L91.5 173C92 172.5 93 172.5 94 172C95 171.5 95.5 171 96 169.5C96 168 95.5 167 94.5 166.5C94 165.5 93 165 92 164.5L91.5 164C90.5 163 90 162.5 89.5 162C89.5 162 89.5 161.5 89.5 161.5C90 161.5 90.5 162 91 162.5L91 162.5C92.5 164 94.5 165.5 96.5 166H96.5C98 166.5 98.5 167.5 99.5 169.5L99.5 169.5C99.5 169.5 99.5 170 100 170C100.5 171.5 102 173 103.5 174C105 175.5 106.5 176.5 108.5 177L108.5 177L108.5 177H108.5C110.5 177.5 112.5 178 115 178H115C128 178 135 177 140 176.5L140 176.5H140C145.5 176 148.5 175.5 157 176.5H157C159 177 160.5 177.5 162 177.5L162.5 177.5C165.5 178.5 168.5 179 172.5 179C176 179 181 178.5 188 177.5L189.5 177C191 177 192.5 176.5 194 176.5L194 176.5C201 175 208 173.5 215.5 173.5L216 173.5C219 173.5 220.5 173.5 222 173.5C223 173.5 224 173 224.5 173V173C225 172.5 226 172.5 227 172.5H227C228 172 229.5 172 231 172H231.5C235.5 172 240.5 172 247 168H247C252 165 253 160.5 254.5 156L254.5 156V156L254.5 155.5L254.5 155.5C255 154.5 254 153.5 253 153V153Z" fill="#041822" stroke="#041822" stroke-width="2" stroke-linejoin="round"/>
<path d="M467 425V105H64V425" stroke="#041822" stroke-width="2"/>
<path opacity="0.5" d="M399 463.5H127.5L264.5 60.5L399 463.5Z" stroke="#041822"/>
</svg>
