<svg width="530" height="530" viewBox="0 0 530 530" fill="none" xmlns="http://www.w3.org/2000/svg">
<path d="M147 208C147 187 167.5 169.5 188.5 169.5" stroke="#041822" stroke-width="7"/>
<path d="M252 228.5C233 219 203.5 224.5 194.5 243.5C185 262.5 175 272 159 290" stroke="#041822" stroke-width="7"/>
<path d="M249.5 227C244 247.5 223 259.5 203 254" stroke="#041822" stroke-width="7"/>
<path d="M272 206C272 218 262.5 228 251 228" stroke="#041822" stroke-width="7"/>
<path d="M132.5 369C111 369 94 352 94 331C94 324.5 98 307 116.5 286C135 265.5 150 252.5 147.5 225" stroke="#041822" stroke-width="7"/>
<path d="M438 122C438 99 419 80 395.5 80C372 80 353 99 353 122" stroke="#041822" stroke-width="7"/>
<path d="M307 99C302 84.5 283 68 269 68C255 68 244 79.5 244 93" stroke="#041822" stroke-width="7"/>
<path d="M364 94C290 94 234 121.5 186 170.5" stroke="#041822" stroke-width="7"/>
<path d="M97 326C97 329.5 104.5 348 140.5 332M150 332C146 335.5 101 373 172 401.5" stroke="#041822" stroke-width="7"/>
<path d="M239 231C239 240.5 231.5 248 222 248C212.5 248 205 240.5 205 231" stroke="#041822" stroke-width="7"/>
<path d="M438 265C438 360.5 360.5 438 265 438M92 265C92 169.5 169.5 92 265 92" stroke="#041822" stroke-width="7"/>
<path d="M126 383C126 411.5 149 435 177 435C226 437.5 270.5 368 369 347C406.5 339 387.5 289.5 393.5 247" stroke="#041822" stroke-width="7"/>
</svg>
