<svg width="530" height="530" viewBox="0 0 530 530" fill="none" xmlns="http://www.w3.org/2000/svg">
<path d="M270.5 123.5L270.5 212.5" stroke="#041822" stroke-width="7"/>
<path d="M385.5 68L296.5 221.5" stroke="#041822" stroke-width="7"/>
<path d="M598 95C593.5 85.5 582 82 573 87C563.5 91.5 560 103 565 112C569.5 121.5 581 125 590 120C599 115.5 603 104 598 95ZM581.5 103.5L580 100.5L313 239L315 242L316.5 245.5L583 106.5L581.5 103.5Z" fill="#041822"/>
<path d="M479 269L320.5 269" stroke="#041822" stroke-width="7"/>
<path d="M348 314.5L311.5 295.5" stroke="#041822" stroke-width="7"/>
<path d="M379.5 467L290.5 313.5" stroke="#041822" stroke-width="7"/>
<path d="M264 469L264 319" stroke="#041822" stroke-width="7"/>
<path d="M-5 648.5C3.5 654.5 15 652.5 21 644C27 636 25 624 17 618C8.5 612 -3 614 -9 622.5C-15 631 -13 642.5 -5 648.5ZM6 633.5L9 635.5L240.5 311.5L237.5 309.5L235 307.5L3 631.5L6 633.5Z" fill="#041822"/>
<path d="M113.5 339L220 289" stroke="#041822" stroke-width="7"/>
<path d="M37 262L214 262" stroke="#041822" stroke-width="7"/>
<path d="M14 122.5C9 131.5 12.5 143 21.5 147.5C30.5 152.5 42 149.5 47 140.5C52 131 48.5 120 39.5 115C30.5 110 19 113.5 14 122.5ZM30.5 131.5L29 134.5L221 239L223 236L224.5 233L32 128L30.5 131.5Z" fill="#041822"/>
<path d="M171 81.5L243.5 218" stroke="#041822" stroke-width="7"/>
<path d="M267 233C265 233 264 232 264 230.5C264 228.5 265 227.5 267 227.5C268.5 227.5 270 228.5 270 230.5C270 232 268.5 233 267 233ZM270 239.5C270 238 268.5 236.5 267 236.5C265 236.5 264 238 264 239.5C264 241 265 242.5 267 242.5C268.5 242.5 270 241 270 239.5ZM260.5 240C260 238.5 258.5 237.5 257 238.5C255.5 239 254.5 240.5 255 242C256 243.5 257.5 244.5 259 244C260.5 243 261 241.5 260.5 240ZM252.5 243.5C251.5 242.5 249.5 242.5 248.5 243.5C247 244.5 247 246 248 247.5C249 248.5 251 249 252 248C253 247 253.5 245 252.5 243.5ZM246 250C244.5 249 242.5 249.5 242 251C241 252.5 241.5 254 243 255C244.5 256 246 255.5 247 254C247.5 252.5 247 251 246 250ZM242 258C240 258 238.5 259 238.5 260.5C238 262 239 263.5 240.5 264C242.5 264 244 263 244 261.5C244.5 260 243.5 258.5 242 258ZM240.5 267C239 267.5 238 269 238.5 270.5C238.5 272 240 273 242 273C243.5 272.5 244.5 271 244 269.5C244 268 242.5 267 240.5 267ZM243 276C241.5 277 241 278.5 242 280C242.5 281.5 244.5 282 246 281C247 280.5 247.5 278.5 247 277C246 275.5 244.5 275 243 276ZM248 283.5C247 285 247 286.5 248.5 287.5C249.5 288.5 251.5 288.5 252.5 287.5C253.5 286 253 284.5 252 283C251 282 249 282.5 248 283.5ZM255 289C254.5 290.5 255.5 292 257 292.5C258.5 293.5 260 292.5 260.5 291C261 289.5 260.5 288 259 287C257.5 286.5 256 287.5 255 289ZM264 291.5C264 293 265 294.5 267 294.5C268.5 294.5 270 293 270 291.5C270 290 268.5 288.5 267 288.5C265 288.5 264 290 264 291.5ZM273 291C273.5 292.5 275 293.5 276.5 292.5C278.5 292 279 290.5 278.5 289C278 287.5 276.5 286.5 274.5 287C273 288 272.5 289.5 273 291ZM281.5 287.5C282.5 288.5 284 288.5 285.5 287.5C286.5 286.5 287 285 286 283.5C285 282.5 283 282 281.5 283C280.5 284.5 280.5 286 281.5 287.5ZM288 281C289.5 282 291 281.5 292 280C292.5 278.5 292 277 291 276C289.5 275 287.5 275.5 287 277C286 278.5 286.5 280.5 288 281ZM292 273C293.5 273 295 272 295.5 270.5C295.5 269 294.5 267.5 293 267C291.5 267 290 268 289.5 269.5C289.5 271 290.5 272.5 292 273ZM293 264C294.5 263.5 295.5 262 295.5 260.5C295 259 293.5 258 292 258C290.5 258.5 289.5 260 289.5 261.5C290 263 291.5 264 293 264ZM291 255C292 254 292.5 252.5 292 251C291 249.5 289.5 249 288 250C286.5 251 286 252.5 287 254C287.5 255.5 289.5 256 291 255ZM286 247.5C287 246 286.5 244.5 285.5 243.5C284 242.5 282.5 242.5 281.5 243.5C280.5 245 280.5 247 281.5 248C283 249 285 248.5 286 247.5ZM278.5 242C279 240.5 278 239 276.5 238.5C275 237.5 273.5 238.5 273 240C272.5 241.5 273 243 274.5 244C276.5 244.5 278 243.5 278.5 242ZM270 248C270 246.5 268.5 245 267 245C265 245 264 246.5 264 248C264 250 265 251 267 251C268.5 251 270 250 270 248ZM260.5 249C260 247.5 258 247 256.5 248C255.5 248.5 255 250.5 255.5 252C256.5 253.5 258 254 259.5 253C261 252 261.5 250.5 260.5 249ZM253.5 254.5C252 253.5 250 254 249.5 255.5C248.5 257 249 258.5 250.5 259.5C252 260 253.5 259.5 254.5 258.5C255 257 254.5 255 253.5 254.5ZM249.5 262.5C248 262.5 246.5 264 246.5 265.5C246.5 267 248 268.5 249.5 268.5C251 268.5 252.5 267 252.5 265.5C252.5 264 251 262.5 249.5 262.5ZM250.5 271.5C249 272.5 248.5 274.5 249.5 275.5C250 277 252 277.5 253.5 276.5C254.5 276 255 274 254.5 272.5C253.5 271.5 252 271 250.5 271.5ZM255.5 279C255 280.5 255.5 282.5 256.5 283C258 284 260 283.5 260.5 282C261.5 280.5 261 279 259.5 278C258 277 256.5 277.5 255.5 279ZM264 283C264 284.5 265 286 267 286C268.5 286 270 284.5 270 283C270 281.5 268.5 280 267 280C265 280 264 281.5 264 283ZM273 282C274 283.5 275.5 284 277 283C278.5 282.5 279 280.5 278 279C277 277.5 275.5 277 274 278C272.5 279 272 280.5 273 282ZM280.5 276.5C282 277.5 283.5 277 284.5 275.5C285 274.5 284.5 272.5 283.5 271.5C282 271 280 271.5 279.5 272.5C278.5 274 279 276 280.5 276.5ZM284 268.5C286 268.5 287 267 287 265.5C287 264 286 262.5 284 262.5C282.5 262.5 281.5 264 281.5 265.5C281.5 267 282.5 268.5 284 268.5ZM283.5 259.5C284.5 258.5 285 257 284.5 255.5C283.5 254 282 253.5 280.5 254.5C279 255 278.5 257 279.5 258.5C280 259.5 282 260 283.5 259.5ZM278 252C279 250.5 278.5 249 277 248C275.5 247 274 247.5 273 249C272 250.5 272.5 252 274 253C275.5 254 277 253.5 278 252ZM270 257C270 255 268.5 254 267 254C265 254 264 255 264 257C264 258.5 265 260 267 260C268.5 260 270 258.5 270 257ZM261 258.5C259.5 258 257.5 258.5 257 259.5C256 261 256.5 263 258 263.5C259.5 264.5 261 264 262 262.5C262.5 261 262 259.5 261 258.5ZM258 267.5C256.5 268 256 270 257 271.5C257.5 272.5 259.5 273 261 272.5C262 271.5 262.5 270 262 268.5C261 267 259.5 266.5 258 267.5ZM264 274C264 276 265 277 267 277C268.5 277 270 276 270 274C270 272.5 268.5 271.5 267 271.5C265 271.5 264 272.5 264 274ZM273 272.5C274.5 273 276 272.5 277 271.5C277.5 270 277 268 276 267.5C274.5 266.5 272.5 267 272 268.5C271 270 271.5 271.5 273 272.5ZM276 263.5C277 263 277.5 261 277 259.5C276 258.5 274.5 258 273 258.5C271.5 259.5 271 261 272 262.5C272.5 264 274.5 264.5 276 263.5ZM270 265.5C270 264 268.5 262.5 267 262.5C265 262.5 264 264 264 265.5C264 267 265 268.5 267 268.5C268.5 268.5 270 267 270 265.5ZM267 233C265 233 264 232 264 230.5C264 228.5 265 227.5 267 227.5C268.5 227.5 270 228.5 270 230.5C270 232 268.5 233 267 233ZM259.5 234C258 234.5 256.5 233.5 256 232C255.5 230.5 256.5 229 258 228.5C259.5 228 261 229 261.5 230.5C262 232 261 233.5 259.5 234ZM259.5 234C258 234.5 256.5 233.5 256 232C255.5 230.5 256.5 229 258 228.5C259.5 228 261 229 261.5 230.5C262 232 261 233.5 259.5 234ZM252.5 236.5C251 237.5 249 237 248.5 235.5C247.5 234 248.5 232 250 231.5C251 230.5 253 231.5 253.5 233C254.5 234 254 236 252.5 236.5ZM252.5 236.5C251 237.5 249 237 248.5 235.5C247.5 234 248.5 232 250 231.5C251 230.5 253 231.5 253.5 233C254.5 234 254 236 252.5 236.5ZM246 241C245 242 243 241.5 242 240.5C241 239 241 237.5 242.5 236.5C243.5 235.5 245.5 235.5 246.5 236.5C247.5 238 247.5 240 246 241ZM246 241C245 242 243 241.5 242 240.5C241 239 241 237.5 242.5 236.5C243.5 235.5 245.5 235.5 246.5 236.5C247.5 238 247.5 240 246 241ZM241 246C240 247.5 238 248 237 247C235.5 246 235.5 244 236.5 243C237.5 241.5 239 241 240.5 242C241.5 243 242 245 241 246ZM241 246C240 247.5 238 248 237 247C235.5 246 235.5 244 236.5 243C237.5 241.5 239 241 240.5 242C241.5 243 242 245 241 246ZM237.5 252.5C236.5 254 235 255 233.5 254.5C232 253.5 231.5 252 232 250.5C232.5 249 234.5 248 235.5 249C237 249.5 238 251 237.5 252.5ZM237.5 252.5C236.5 254 235 255 233.5 254.5C232 253.5 231.5 252 232 250.5C232.5 249 234.5 248 235.5 249C237 249.5 238 251 237.5 252.5ZM235 260C235 261.5 233.5 262.5 231.5 262.5C230 262 229 260.5 229.5 259C229.5 257.5 231 256 233 256.5C234.5 257 235.5 258.5 235 260ZM235 260C235 261.5 233.5 262.5 231.5 262.5C230 262 229 260.5 229.5 259C229.5 257.5 231 256 233 256.5C234.5 257 235.5 258.5 235 260ZM234.5 267.5C235 269 233.5 270.5 232 270.5C230.5 270.5 229 269.5 229 267.5C229 266 230 264.5 231.5 264.5C233 264.5 234.5 266 234.5 267.5ZM234.5 267.5C235 269 233.5 270.5 232 270.5C230.5 270.5 229 269.5 229 267.5C229 266 230 264.5 231.5 264.5C233 264.5 234.5 266 234.5 267.5ZM236 275C236.5 276.5 235.5 278 234 278.5C232.5 279 231 278 230.5 276.5C230 275 231 273.5 232.5 273C234 272.5 235.5 273 236 275ZM236 275C236.5 276.5 235.5 278 234 278.5C232.5 279 231 278 230.5 276.5C230 275 231 273.5 232.5 273C234 272.5 235.5 273 236 275ZM239 281.5C239.5 283 239.5 285 238 285.5C236.5 286.5 234.5 286 234 284.5C233 283 233.5 281.5 235 280.5C236.5 280 238 280 239 281.5ZM239 281.5C239.5 283 239.5 285 238 285.5C236.5 286.5 234.5 286 234 284.5C233 283 233.5 281.5 235 280.5C236.5 280 238 280 239 281.5ZM243.5 287.5C244.5 289 244.5 290.5 243.5 292C242 293 240.5 293 239 291.5C238 290.5 238 288.5 239.5 287.5C240.5 286.5 242.5 286.5 243.5 287.5ZM243.5 287.5C244.5 289 244.5 290.5 243.5 292C242 293 240.5 293 239 291.5C238 290.5 238 288.5 239.5 287.5C240.5 286.5 242.5 286.5 243.5 287.5ZM249 292.5C250.5 293.5 251 295 250 296.5C249 298 247.5 298 246 297.5C244.5 296.5 244 294.5 245 293.5C246 292 248 291.5 249 292.5ZM249 292.5C250.5 293.5 251 295 250 296.5C249 298 247.5 298 246 297.5C244.5 296.5 244 294.5 245 293.5C246 292 248 291.5 249 292.5ZM256 296C257.5 296.5 258 298 257.5 299.5C257 301 255.5 302 254 301.5C252.5 301 251.5 299 252 297.5C252.5 296 254.5 295.5 256 296ZM256 296C257.5 296.5 258 298 257.5 299.5C257 301 255.5 302 254 301.5C252.5 301 251.5 299 252 297.5C252.5 296 254.5 295.5 256 296ZM263 297.5C264.5 298 266 299 265.5 301C265.5 302.5 264 303.5 262.5 303.5C261 303 259.5 301.5 260 300C260 298.5 261.5 297.5 263 297.5ZM263 297.5C264.5 298 266 299 265.5 301C265.5 302.5 264 303.5 262.5 303.5C261 303 259.5 301.5 260 300C260 298.5 261.5 297.5 263 297.5ZM270.5 297.5C272 297.5 273.5 298.5 274 300C274 301.5 273 303 271.5 303.5C269.5 303.5 268 302.5 268 301C268 299 269 298 270.5 297.5ZM270.5 297.5C272 297.5 273.5 298.5 274 300C274 301.5 273 303 271.5 303.5C269.5 303.5 268 302.5 268 301C268 299 269 298 270.5 297.5ZM278 296C279.5 295.5 281 296 281.5 297.5C282 299 281.5 301 280 301.5C278.5 302 276.5 301 276 299.5C275.5 298 276.5 296.5 278 296ZM278 296C279.5 295.5 281 296 281.5 297.5C282 299 281.5 301 280 301.5C278.5 302 276.5 301 276 299.5C275.5 298 276.5 296.5 278 296ZM284.5 292.5C286 291.5 287.5 292 288.5 293.5C289.5 294.5 289 296.5 288 297.5C286.5 298.5 284.5 298 283.5 296.5C283 295 283 293.5 284.5 292.5ZM284.5 292.5C286 291.5 287.5 292 288.5 293.5C289.5 294.5 289 296.5 288 297.5C286.5 298.5 284.5 298 283.5 296.5C283 295 283 293.5 284.5 292.5ZM290.5 287.5C291.5 286.5 293 286.5 294.5 287.5C295.5 288.5 295.5 290.5 294.5 291.5C293.5 293 291.5 293 290.5 292C289 290.5 289 289 290.5 287.5ZM290.5 287.5C291.5 286.5 293 286.5 294.5 287.5C295.5 288.5 295.5 290.5 294.5 291.5C293.5 293 291.5 293 290.5 292C289 290.5 289 289 290.5 287.5ZM294.5 281.5C295.5 280.5 297.5 280 298.5 280.5C300 281.5 300.5 283 300 284.5C299 286 297 286.5 296 285.5C294.5 285 294 283 294.5 281.5ZM294.5 281.5C295.5 280.5 297.5 280 298.5 280.5C300 281.5 300.5 283 300 284.5C299 286 297 286.5 296 285.5C294.5 285 294 283 294.5 281.5ZM297.5 275C298 273 300 272.5 301.5 273C303 273.5 304 275 303.5 276.5C303 278 301 279 299.5 278.5C298 278 297 276.5 297.5 275ZM297.5 275C298 273 300 272.5 301.5 273C303 273.5 304 275 303.5 276.5C303 278 301 279 299.5 278.5C298 278 297 276.5 297.5 275ZM299 267.5C299 266 300.5 264.5 302 264.5C303.5 264.5 305 266 305 267.5C304.5 269.5 303.5 270.5 302 270.5C300 270.5 299 269 299 267.5ZM299 267.5C299 266 300.5 264.5 302 264.5C303.5 264.5 305 266 305 267.5C304.5 269.5 303.5 270.5 302 270.5C300 270.5 299 269 299 267.5ZM298.5 260C298.5 258.5 299.5 257 301 256.5C302.5 256 304 257.5 304.5 259C304.5 260.5 303.5 262 302 262.5C300.5 262.5 299 261.5 298.5 260ZM298.5 260C298.5 258.5 299.5 257 301 256.5C302.5 256 304 257.5 304.5 259C304.5 260.5 303.5 262 302 262.5C300.5 262.5 299 261.5 298.5 260ZM296.5 252.5C296 251.5 296.5 249.5 298 249C299.5 248 301 249 302 250.5C302.5 252 301.5 253.5 300.5 254.5C299 255 297 254 296.5 252.5ZM296.5 252.5C296 251.5 296.5 249.5 298 249C299.5 248 301 249 302 250.5C302.5 252 301.5 253.5 300.5 254.5C299 255 297 254 296.5 252.5ZM292.5 246C291.5 245 292 243 293.5 242C294.5 241 296.5 241.5 297.5 243C298.5 244 298 246 297 247C295.5 248 293.5 247.5 292.5 246ZM292.5 246C291.5 245 292 243 293.5 242C294.5 241 296.5 241.5 297.5 243C298.5 244 298 246 297 247C295.5 248 293.5 247.5 292.5 246ZM287.5 241C286.5 240 286 238 287 236.5C288 235.5 290 235.5 291.5 236.5C292.5 237.5 292.5 239 291.5 240.5C290.5 241.5 289 242 287.5 241ZM287.5 241C286.5 240 286 238 287 236.5C288 235.5 290 235.5 291.5 236.5C292.5 237.5 292.5 239 291.5 240.5C290.5 241.5 289 242 287.5 241ZM281.5 236.5C280 236 279.5 234 280 233C280.5 231.5 282.5 230.5 284 231.5C285.5 232 286 234 285 235.5C284.5 237 282.5 237.5 281.5 236.5ZM281.5 236.5C280 236 279.5 234 280 233C280.5 231.5 282.5 230.5 284 231.5C285.5 232 286 234 285 235.5C284.5 237 282.5 237.5 281.5 236.5ZM274.5 234C272.5 233.5 271.5 232 272 230.5C272.5 229 274 228 275.5 228.5C277 229 278 230.5 278 232C277.5 233.5 276 234.5 274.5 234ZM274.5 234C272.5 233.5 271.5 232 272 230.5C272.5 229 274 228 275.5 228.5C277 229 278 230.5 278 232C277.5 233.5 276 234.5 274.5 234ZM270 239.5C270 238 268.5 236.5 267 236.5C265 236.5 264 238 264 239.5C264 241 265 242.5 267 242.5C268.5 242.5 270 241 270 239.5ZM260.5 240C260 238.5 258.5 237.5 257 238.5C255.5 239 254.5 240.5 255 242C256 243.5 257.5 244.5 259 244C260.5 243 261 241.5 260.5 240ZM252.5 243.5C251.5 242.5 249.5 242.5 248.5 243.5C247 244.5 247 246 248 247.5C249 248.5 251 249 252 248C253 247 253.5 245 252.5 243.5ZM246 250C244.5 249 242.5 249.5 242 251C241 252.5 241.5 254 243 255C244.5 256 246 255.5 247 254C247.5 252.5 247 251 246 250ZM242 258C240 258 238.5 259 238.5 260.5C238 262 239 263.5 240.5 264C242.5 264 244 263 244 261.5C244.5 260 243.5 258.5 242 258ZM240.5 267C239 267.5 238 269 238.5 270.5C238.5 272 240 273 242 273C243.5 272.5 244.5 271 244 269.5C244 268 242.5 267 240.5 267ZM243 276C241.5 277 241 278.5 242 280C242.5 281.5 244.5 282 246 281C247 280.5 247.5 278.5 247 277C246 275.5 244.5 275 243 276ZM248 283.5C247 285 247 286.5 248.5 287.5C249.5 288.5 251.5 288.5 252.5 287.5C253.5 286 253 284.5 252 283C251 282 249 282.5 248 283.5ZM255 289C254.5 290.5 255.5 292 257 292.5C258.5 293.5 260 292.5 260.5 291C261 289.5 260.5 288 259 287C257.5 286.5 256 287.5 255 289ZM264 291.5C264 293 265 294.5 267 294.5C268.5 294.5 270 293 270 291.5C270 290 268.5 288.5 267 288.5C265 288.5 264 290 264 291.5ZM273 291C273.5 292.5 275 293.5 276.5 292.5C278.5 292 279 290.5 278.5 289C278 287.5 276.5 286.5 274.5 287C273 288 272.5 289.5 273 291ZM281.5 287.5C282.5 288.5 284 288.5 285.5 287.5C286.5 286.5 287 285 286 283.5C285 282.5 283 282 281.5 283C280.5 284.5 280.5 286 281.5 287.5ZM288 281C289.5 282 291 281.5 292 280C292.5 278.5 292 277 291 276C289.5 275 287.5 275.5 287 277C286 278.5 286.5 280.5 288 281ZM292 273C293.5 273 295 272 295.5 270.5C295.5 269 294.5 267.5 293 267C291.5 267 290 268 289.5 269.5C289.5 271 290.5 272.5 292 273ZM293 264C294.5 263.5 295.5 262 295.5 260.5C295 259 293.5 258 292 258C290.5 258.5 289.5 260 289.5 261.5C290 263 291.5 264 293 264ZM291 255C292 254 292.5 252.5 292 251C291 249.5 289.5 249 288 250C286.5 251 286 252.5 287 254C287.5 255.5 289.5 256 291 255ZM286 247.5C287 246 286.5 244.5 285.5 243.5C284 242.5 282.5 242.5 281.5 243.5C280.5 245 280.5 247 281.5 248C283 249 285 248.5 286 247.5ZM278.5 242C279 240.5 278 239 276.5 238.5C275 237.5 273.5 238.5 273 240C272.5 241.5 273 243 274.5 244C276.5 244.5 278 243.5 278.5 242ZM270 248C270 246.5 268.5 245 267 245C265 245 264 246.5 264 248C264 250 265 251 267 251C268.5 251 270 250 270 248ZM260.5 249C260 247.5 258 247 256.5 248C255.5 248.5 255 250.5 255.5 252C256.5 253.5 258 254 259.5 253C261 252 261.5 250.5 260.5 249ZM253.5 254.5C252 253.5 250 254 249.5 255.5C248.5 257 249 258.5 250.5 259.5C252 260 253.5 259.5 254.5 258.5C255 257 254.5 255 253.5 254.5ZM249.5 262.5C248 262.5 246.5 264 246.5 265.5C246.5 267 248 268.5 249.5 268.5C251 268.5 252.5 267 252.5 265.5C252.5 264 251 262.5 249.5 262.5ZM250.5 271.5C249 272.5 248.5 274.5 249.5 275.5C250 277 252 277.5 253.5 276.5C254.5 276 255 274 254.5 272.5C253.5 271.5 252 271 250.5 271.5ZM255.5 279C255 280.5 255.5 282.5 256.5 283C258 284 260 283.5 260.5 282C261.5 280.5 261 279 259.5 278C258 277 256.5 277.5 255.5 279ZM264 283C264 284.5 265 286 267 286C268.5 286 270 284.5 270 283C270 281.5 268.5 280 267 280C265 280 264 281.5 264 283ZM273 282C274 283.5 275.5 284 277 283C278.5 282.5 279 280.5 278 279C277 277.5 275.5 277 274 278C272.5 279 272 280.5 273 282ZM280.5 276.5C282 277.5 283.5 277 284.5 275.5C285 274.5 284.5 272.5 283.5 271.5C282 271 280 271.5 279.5 272.5C278.5 274 279 276 280.5 276.5ZM284 268.5C286 268.5 287 267 287 265.5C287 264 286 262.5 284 262.5C282.5 262.5 281.5 264 281.5 265.5C281.5 267 282.5 268.5 284 268.5ZM283.5 259.5C284.5 258.5 285 257 284.5 255.5C283.5 254 282 253.5 280.5 254.5C279 255 278.5 257 279.5 258.5C280 259.5 282 260 283.5 259.5ZM278 252C279 250.5 278.5 249 277 248C275.5 247 274 247.5 273 249C272 250.5 272.5 252 274 253C275.5 254 277 253.5 278 252ZM270 257C270 255 268.5 254 267 254C265 254 264 255 264 257C264 258.5 265 260 267 260C268.5 260 270 258.5 270 257ZM261 258.5C259.5 258 257.5 258.5 257 259.5C256 261 256.5 263 258 263.5C259.5 264.5 261 264 262 262.5C262.5 261 262 259.5 261 258.5ZM258 267.5C256.5 268 256 270 257 271.5C257.5 272.5 259.5 273 261 272.5C262 271.5 262.5 270 262 268.5C261 267 259.5 266.5 258 267.5ZM264 274C264 276 265 277 267 277C268.5 277 270 276 270 274C270 272.5 268.5 271.5 267 271.5C265 271.5 264 272.5 264 274ZM273 272.5C274.5 273 276 272.5 277 271.5C277.5 270 277 268 276 267.5C274.5 266.5 272.5 267 272 268.5C271 270 271.5 271.5 273 272.5ZM276 263.5C277 263 277.5 261 277 259.5C276 258.5 274.5 258 273 258.5C271.5 259.5 271 261 272 262.5C272.5 264 274.5 264.5 276 263.5ZM270 265.5C270 264 268.5 262.5 267 262.5C265 262.5 264 264 264 265.5C264 267 265 268.5 267 268.5C268.5 268.5 270 267 270 265.5Z" fill="#041822"/>
<path d="M308 114.5L288 188.5M376.5 154.5L322.5 209M415.5 223.5L341.5 243.5M487.5 322.5L341 283M376.5 373L321 317.5M295.5 373L286 336.5M229.5 394L246.5 336M94.5 422.5L212.5 316M137 295.5L193 281M85.5 215.5L193.5 241.5M185.5 180.5L214 207.5M214 38.5L248.5 188" stroke="#041822" stroke-width="2"/>
<circle cx="493" cy="269" r="14.5" stroke="#041822" stroke-width="7"/>
<circle cx="360" cy="321" r="14.5" stroke="#041822" stroke-width="7"/>
<circle cx="386" cy="478" r="14.5" stroke="#041822" stroke-width="7"/>
<circle cx="264" cy="482" r="14.5" stroke="#041822" stroke-width="7"/>
<circle cx="101" cy="345" r="14.5" stroke="#041822" stroke-width="7"/>
<circle cx="25" cy="262" r="14.5" stroke="#041822" stroke-width="7"/>
<circle cx="166" cy="72" r="14.5" stroke="#041822" stroke-width="7"/>
<circle cx="270" cy="111" r="14.5" stroke="#041822" stroke-width="7"/>
<circle cx="390" cy="58" r="14.5" stroke="#041822" stroke-width="7"/>
</svg>
