<svg width="530" height="530" viewBox="0 0 530 530" fill="none" xmlns="http://www.w3.org/2000/svg">
<path d="M426.5 215.5C418.5 190 416 185 408 160C405.5 152.5 403.5 144.5 399.5 137.5C386.5 113.5 373 89.5 359.5 65C357.5 62 356 58.5 353.5 55.5C350.5 51 345.5 50 340.5 52C334 55 330.5 61.5 331 69C331.5 78 335 85.5 340 92.5C346.5 102.5 352 113.5 357.5 124C362.5 135.5 369 146 372.5 158C374 165 374 162 376 168.5C379 176.5 383.5 190.5 376.5 184C376 182 376 181 375.5 179.5C369.5 164.5 367 159 361.5 144C360 140 358.5 135.5 356 132C341 110.5 325 90 306 71.5C304.5 70 302.5 68 300 66.5C296 64 292 64.5 288 67C281 72.5 279 81.5 283.5 90C286.5 95.5 290 101 294.5 105.5H294.5C302 112.5 308 120.5 313.5 129C315.5 132.5 318 135.5 320 139C323.5 143.5 326.5 147.5 329 152.5C333 159.5 335.5 167 338.5 174M413.5 223.5C409 221 404.5 218 400 215C384 203.5 367.5 192.5 351.5 181C350 180 348.5 179.5 346 180C330 183 313.5 186.5 297.5 190C296 190 295 191 294.5 191.5C285 204 276 216 267 228.5C263 234.5 265.5 240.5 272.5 242.5C280.5 244.5 288 242.5 294 237C298 233.5 302 229.5 305 225C308 220.5 311 217.5 316.5 218.5C317 218.5 317.5 218.5 318 218.5C324.5 217.5 331 216.5 337.5 215.5C343 224.5 351 231.5 360.5 237.5C365.5 240.5 368.5 244.5 370 250.5C372.5 262 378.5 271.5 385.5 280.5C387 282.5 387.5 284.5 387.5 287.5C387.5 295.5 386 303.5 382 311C377.5 318.5 373.5 326.5 369 334C367.5 336.5 365.5 339 364 342C358.5 352 350 358 340 361.5L338.5 362C328.5 365.5 318.5 368.5 309 372.5C296 378 285 385.5 276.5 396.5C270.5 404 266.5 412 265.5 422C265 427 265.5 431.5 269 436C272 439.5 276 440 280 437C282.5 434.5 284.5 432.5 287 430C295 421 304.5 414 316 409.5C332 403 348 398.5 365 395C368 394 371.5 393.5 374 394C391 398.5 407.5 401 425 402L439 409.5M439 409.5L450.5 408.5C447 409 443 409.5 439 409.5ZM439 409.5C451 422 462.5 434.5 474.5 446.5C482 454.5 490 454.5 497.5 447C515.5 430 530 411 539.5 387.5V379C538 372.5 533.5 367.5 529 363L529 363C523 357.5 517.5 352 512 346.5L511.5 346C501 336 490.5 326 483 314C467.5 289.5 451.5 268 438.5 242.5C436 238 436.5 228.5 436.5 224.5C437.5 210.5 440 196 440.5 181.5C441 173.5 442.5 165 439.5 156.5C438.5 153.5 438 149.5 437 146.5C434 136 431 125.5 427 115.5C423.5 107 421 98.5 418.5 89.5C417 86 415 84.5 411 84.5C404 84.5 398.5 90 398 97.5C397.5 104.5 399 111.5 401.5 117.5C406 127 409 135.5 412.5 145.5" stroke="#041822" stroke-width="7"/>
<path d="M104 215.5C112 190 114 185 122.5 160C125 152.5 127 144.5 131 137.5C144 113.5 157.5 89.5 171 65C173 62 174.5 58.5 176.5 55.5C180 51 185 50 190 52C196.5 55 200 61.5 199.5 69C199 78 195.5 85.5 190.5 92.5C184 102.5 178.5 113.5 173 124C168 135.5 161.5 146 158 158C156 165 156.5 162 154.5 168.5C151.5 176.5 147 190.5 154 184C154.5 182 154.5 181 155 179.5C161 164.5 163.5 159 169 144C170.5 140 172 135.5 174.5 132C189.5 110.5 205.5 90 224.5 71.5C226 70 228 68 230.5 66.5C234.5 64 238.5 64.5 242.5 67C249.5 72.5 251.5 81.5 247 90C244 95.5 240.5 101 236 105.5H236C228.5 112.5 222.5 120.5 217 129C215 132.5 212.5 135.5 210 139C207 143.5 203.5 147.5 201.5 152.5C197.5 159.5 195 167 192 174M117 223.5C121.5 221 126 218 130.5 215C146.5 203.5 163 192.5 179 181C180.5 180 182 179.5 184.5 180C200.5 183 217 186.5 233 190C234.5 190 235.5 191 236 191.5C245.5 204 254.5 216 263.5 228.5C267.5 234.5 265 240.5 258 242.5C250 244.5 242.5 242.5 236.5 237C232.5 233.5 228.5 229.5 225.5 225C222.5 220.5 219.5 217.5 214 218.5C213.5 218.5 213 218.5 212.5 218.5C206 217.5 199.5 216.5 193 215.5C187.5 224.5 179.5 231.5 170 237.5C165 240.5 162 244.5 160.5 250.5C158 262 152 271.5 145 280.5C143.5 282.5 143 284.5 143 287.5C143 295.5 144.5 303.5 148.5 311C153 318.5 157 326.5 161.5 334C163 336.5 165 339 166.5 342C172 352 180.5 358 190.5 361.5L192 362C202 365.5 212 368.5 221.5 372.5C234.5 378 245.5 385.5 254 396.5C260 404 264 412 265 422C265.5 427 265 431.5 261.5 436C258 439.5 254.5 440 250.5 437C248 434.5 246 432.5 243.5 430C235.5 421 226 414 214.5 409.5C198.5 403 182.5 398.5 165.5 395C162.5 394 159 393.5 156.5 394C139.5 398.5 122.5 401 105.5 402L91.5 409.5M91.5 409.5L80 408.5C83.5 409 87.5 409.5 91.5 409.5ZM91.5 409.5C79.5 422 68 434.5 56 446.5C48.5 454.5 40.5 454.5 33 447C15 430 0.5 411 -9 387.5V379C-7.5 372.5 -3 367.5 1.5 363L1.5 363C7.5 357.5 13 352 18.5 346.5L19 346C29.5 336 40 326 47.5 314C63 289.5 79 268 92 242.5C94.5 238 94 228.5 94 224.5C93 210.5 90.5 196 90 181.5C89.5 173.5 88 165 91 156.5C92 153.5 92.5 149.5 93.5 146.5C96.5 136 99.5 125.5 103.5 115.5C107 107 109.5 98.5 112 89.5C113.5 86 115.5 84.5 119.5 84.5C126.5 84.5 132 90 132.5 97.5C133 104.5 131.5 111.5 129 117.5C124.5 127 121.5 135.5 118 145.5" stroke="#041822" stroke-width="7"/>
<circle cx="264.5" cy="45" r="8" fill="#041822"/>
<circle cx="473.5" cy="197" r="8" transform="rotate(72 473.5 197)" fill="#041822"/>
<circle cx="484.5" cy="264.5" r="8" transform="rotate(90 484.5 264.5)" fill="#041822"/>
<circle cx="394" cy="442.5" r="8" transform="rotate(144 394 442.5)" fill="#041822"/>
<circle cx="332.5" cy="473.5" r="8" transform="rotate(162 332.5 473.5)" fill="#041822"/>
<circle cx="264.5" cy="484.5" r="8" transform="rotate(-180 264.5 484.5)" fill="#041822"/>
<circle cx="197" cy="473.5" r="8" transform="rotate(-162 197 473.5)" fill="#041822"/>
<circle cx="135.5" cy="442.5" r="8" transform="rotate(-144 135.5 442.5)" fill="#041822"/>
<circle cx="45" cy="264.5" r="8" transform="rotate(-90 45 264.5)" fill="#041822"/>
<circle cx="56" cy="197" r="8" transform="rotate(-72 56 197)" fill="#041822"/>
</svg>
