<svg width="530" height="530" viewBox="0 0 530 530" fill="none" xmlns="http://www.w3.org/2000/svg">
<path d="M299.5 472.5C299 472.5 298.5 472.5 298 472.5C299 472.5 300 472.5 301 472L299.5 472.5ZM215 67.5C245.5 59.5 277 59 307.5 65L310.5 65.5L310.5 65.5L318.5 67.5L318.5 67.5L321.5 68.5C351.5 76.5 379.5 92 402.5 112.5L405 114.5L405 114.5L411 120.5L411 120.5L413 122.5C435 144.5 451.5 171.5 461.5 201L462.5 204L462.5 204L465 213L465 213.5L465.5 215C473.5 245 474 277 468 307.5L467.5 310L467.5 310L465.5 318.5L465.5 318.5L464.5 321.5C456.5 351.5 441 379 420.5 402.5L418.5 404.5L418.5 405L412.5 411L412.5 411L410.5 413C388.5 435 361.5 451.5 332 461.5L329 462.5L329 462.5L321 464.5L321 464.5L318 465.5C287 473.5 255.5 474 225.5 468L223 467.5L223 467.5L214.5 465.5L214.5 465.5L211.5 464.5C181.5 456 154 441 130.5 420.5L128.5 418.5L128.5 418.5L122 412.5L122 412.5L120 410.5C98 388.5 81.5 361.5 72 332L71 329L71 329L68.5 321L68.5 321L67.5 318C57.5 279.5 60 247.5 68 214.5L76 216.5C58.5 293.5 81 358.5 126 404L128 406.5L168 364L166.5 362C148 342.5 139.5 324 132.5 301.5L141 299.5C146 316 151.5 327.5 158 337.5C164 347 171.5 355 180.5 363.5L134.5 412.5L136.5 414.5C185.5 457.5 252.5 473.5 315.5 457L318.5 456.5L302 400.5L299 401C273 407.5 252.5 405.5 230 400L232 391.5C253 396.5 271.5 398.5 296.5 393L299.5 392L282.5 336L280 336.5C259 340.5 238.5 335 223 323L220.5 321L220.5 321L214.5 315.5L214.5 315L212.5 313C199.5 297.5 193 277 196 256.5L196.5 254L131 238.5L133 230L133 230L134 227.5C139.5 208.5 148.5 191.5 161.5 176.5L163 174.5L163 174.5L169 168L169 168L171 166C185.5 153 202 142.5 220.5 136L223 135L223 135L231.5 132.5L231.5 132.5L234 132C260 125.5 280.5 127.5 303 133L301 141C280 136.5 261.5 134.5 237 140L234 141L250.5 197L253 196.5C273 192.5 294 197.5 310.5 210L312.5 212L312.5 211.5L319 217.5L318.5 217.5L320.5 220C334 235.5 340 256 337.5 276L337 279L394 292.5L394.5 289.5C399 264.5 395.5 246 390 225.5L398 223C404.5 246 407.5 265.5 402.5 291.5L402 294.5L402 294.5L400 303L326.5 285.5C329 273.5 330 262.5 327.5 252C325.5 240.5 319.5 230 310 221L310 221C300 211.5 289.5 206.5 278 205C267.5 203 256.5 204.5 244.5 207.5L225.5 143.5L222.5 144.5C183 158.5 154 190.5 142.5 229L141.5 232L206.5 247.5C200.5 276.5 208.5 299.5 224.5 313.5C240.5 327 264 332 288.5 325.5L326.5 454L329.5 453C357.5 443.5 383 428 404.5 407L406.5 405L358 359L364 352.5L412.5 399L414.5 396.5C482.5 319 479.5 202.5 407.5 129L405 126.5L359 175L353 169.5L399 120.5L396.5 118.5C322 53 204 48.5 121 134L114.5 128C138.5 103 164 84 201.5 71.5L204 70.5L204 70.5L212.5 68L212.5 68L215 67.5ZM308.5 470.5C307.5 471 307 471 306 471C306.5 471 306.5 471 307 471L308.5 470.5ZM206.5 466C207 466.5 207.5 466.5 208 466.5L209.5 467C208.5 466.5 207.5 466.5 206.5 466ZM262 460.5C263 460.5 264 460.5 265 460.5L263.5 460.5C263 460.5 262.5 460.5 262 460.5ZM240 458.5C245.5 459.5 250.5 460 256 460C254.5 460 253 460 251.5 460C251 460 250.5 459.5 250 459.5C247.5 459.5 244.5 459 241.5 458.5L240 458.5ZM310.5 455.5C301 457.5 292 459 282.5 459.5C291.5 459 300 457.5 309 455.5L310.5 455.5ZM228.5 456.5C229 456.5 229.5 457 230 457L231.5 457C231 457 230.5 457 230 457L228.5 456.5ZM356 455C355.5 455 355 455.5 354.5 455.5C354.5 455.5 354.5 455.5 355 455.5L356 455ZM328.5 450C331 449.5 333 448.5 335 448L336.5 447.5C334.5 448 333 448.5 331.5 449.5C331 449.5 330.5 449.5 330 449.5C329.5 450 329 450 328.5 450ZM357.5 438C354.5 439.5 351.5 440.5 349 442C348.5 442 348 442.5 347.5 442.5C345 444 342 445 339 446.5L337.5 447C344 444.5 350 441.5 356 438.5L357.5 438ZM373.5 428C372 429.5 370 430.5 368 431.5C367.5 432 367 432 367 432.5C365 433.5 363 435 361 436C365 433.5 369 431.5 372.5 429L373.5 428ZM397.5 429C397 429 396.5 429.5 396 430L395 431C396 430 396.5 429.5 397.5 429ZM383.5 421C383 421.5 382 422 381.5 422.5C380.5 423.5 379.5 424.5 378 425C377.5 425.5 376.5 426 376 426.5L375 427.5C377.5 425.5 380 424 382.5 422L383.5 421ZM389 417C388 417.5 387 418.5 386 419.5L384.5 420C386 419 387.5 418 389 417ZM398 409C397.5 409.5 397 410 396 410.5C396 411 395.5 411.5 395 411.5C394 412.5 393 413.5 392 414.5L391 415C393 413.5 395 411.5 397 410L398 409ZM401 406C401 406.5 400.5 406.5 400 407L399 408C399.5 407.5 400 407.5 400 407L401 406ZM286 406.5C285.5 406.5 285 406.5 285 407L283.5 407C284.5 407 285 406.5 286 406.5ZM122 395.5C124 397.5 126 400 128 402C126 400.5 124.5 398.5 123 396.5L122 395.5ZM110.5 381.5C113 385.5 116 389 119 392L120 393.5C118 391 116 388.5 114 386.5C113.5 385.5 113 385 112.5 384C112 383.5 112 383.5 111.5 383L110.5 381.5ZM101.5 368C103.5 372 106 375.5 109 379.5L109.5 380.5C107 377 104.5 373 102 369.5L101.5 368ZM88.5 343C88.5 343.5 88.5 344 89 344.5L89.5 345.5C89 345 88.5 344 88.5 343ZM448 335.5C447.5 336.5 447 337 447 337.5L446 340C446.5 338.5 447 337 448 335.5ZM261.5 325C263 325 264.5 325 265.5 325L264.5 325C264 325 263 325 262.5 325L261.5 325ZM274.5 325C274 325 273 325 272.5 325C271 325 270 325 269 325C271 325 272.5 325 274.5 325ZM254 324C255 324 255.5 324.5 256 324.5C256 324.5 255.5 324.5 255 324L254 324ZM289.5 322C286.5 323 283.5 323.5 280.5 324C283 323.5 285.5 323 288.5 322.5L289.5 322ZM246 322C248 322.5 250 323 252 323.5C251.5 323.5 251 323.5 250 323C250 323 249.5 323 249 323C248 322.5 247 322.5 246 322ZM393 278.5C393 279.5 392.5 280 392.5 281C392.5 280.5 392.5 280 392.5 279.5L393 278.5ZM326 270.5C325.5 271 325.5 271 325.5 271.5C325.5 272 325.5 272 325.5 272.5C325.5 273 325.5 273.5 325.5 273.5L325.5 275C325.5 273.5 325.5 272 326 270.5ZM325.5 259.5C326 261 326 262.5 326 264L326 265C326 263.5 326 262 326 260.5L325.5 259.5ZM336.5 241.5C337 243 337.5 244 338 245.5L338 246.5C338 245.5 337.5 245 337.5 244.5C337.5 244 337.5 244 337 243.5C337 243 337 242 336.5 241.5ZM60 240C60.5 236.5 61 233.5 61.5 230C61.5 231.5 61 232.5 61 233.5C61 234.5 60.5 235.5 60.5 236.5C60.5 237.5 60 239 60 240ZM333 233.5C333.5 234.5 334 235 334.5 236C334 235.5 334 235 333.5 234.5L333 233.5ZM323 218C326.5 222 329.5 226 332 231L332.5 231.5C330 227 327 222.5 323.5 218.5L323 218ZM296 198C299 199.5 302 201 305 202.5C304 202 303 201.5 302 201C301.5 201 301 200.5 300.5 200.5C300 200 299.5 199.5 298.5 199.5C298.5 199.5 298 199 298 199C297 199 296.5 198.5 296 198ZM463 196C463 197 463.5 198 464 199L463.5 197.5C463 197 463 196.5 463 196ZM459.5 187.5C460 189 461 190.5 461.5 192C461 191 460.5 190 460 189L459.5 187.5ZM273.5 192.5C274 192.5 274.5 192.5 275 192.5C275 192.5 274.5 192.5 274 192.5L273.5 192.5ZM267.5 192C268.5 192 270 192 271.5 192.5C270.5 192.5 270 192 269.5 192C268.5 192 268 192 267.5 192ZM457.5 182.5C457.5 182.5 457.5 183 458 183.5L458.5 185C458 184 457.5 183 457.5 182.5ZM450 167.5C452 170.5 453.5 174 455 177C454 175.5 453.5 174 453 173C452 171 451 169.5 450 167.5ZM420.5 148.5C421.5 150 422.5 151 423.5 152.5C424.5 154 426 156 427.5 158C428 158.5 428 159.5 428.5 160L430 162C427 157.5 424 153 420.5 148.5ZM202.5 140.5C202 141 201.5 141 200.5 141.5C199 142 197.5 143 196 144C195.5 144.5 195 144.5 194 145C193 145.5 192 146 191 147C194.5 144.5 198.5 142.5 202.5 140.5ZM218 149.5C216.5 150 214.5 151 213 151.5L211 152.5C213.5 151.5 216 150 218 149.5ZM252 140.5C248.5 141 244 141.5 240 142.5C241.5 142 243 142 244.5 141.5C246.5 141 248 141 250 140.5C251 140.5 251.5 140.5 252 140.5ZM284.5 126.5C287.5 126.5 290.5 127 293.5 127.5L295.5 128C294 128 292.5 127.5 291 127.5C290.5 127 289.5 127 289 127C287.5 126.5 286 126.5 284.5 126.5ZM198.5 69.5C197.5 70 196 70 195 70.5C191.5 72 188 73.5 184.5 74.5C184 75 183.5 75 183 75.5C179 77 175.5 79 172 80.5C171 81 170 81.5 169 82C168 82.5 167 83.5 166 84L164.5 84.5C174.5 79 186 73.5 198.5 69.5ZM270 58C272 58 274 58 276 58C275 58 274 58 273 58C272 58 271 58 270 58Z" fill="#041822"/>
</svg>
