<svg width="530" height="530" viewBox="0 0 530 530" fill="none" xmlns="http://www.w3.org/2000/svg">
<path d="M387.5 387.5C320 455 210 455 142.5 387.5M387.5 142.5C347.5 102.5 292.5 86.5 240.5 93.5" stroke="#041822" stroke-width="7"/>
<path d="M345.5 224C373 170 249 141.5 236.5 85C223.5 91 201 110.5 213.5 143" stroke="#041822" stroke-width="7"/>
<path d="M199.5 258C140.5 258 92 210 92 150.5L92 133.5C111 151.5 137 162.5 165.5 162.5H199.5C259 162.5 307 211 307 270" stroke="#041822" stroke-width="7"/>
<path d="M95 287.5C127.5 287.5 156 301 176 323.5C194.5 341.5 226 378.5 278 378.5H279.5C339 378.5 387 330.5 387 271C387 235.5 424 254.5 436.5 239.5C428 239 417.5 234.5 411.5 224C404 213.5 392 207 378.5 207C356 207 338 225 338 247.5" stroke="#041822" stroke-width="7"/>
</svg>
