<svg width="530" height="530" viewBox="0 0 530 530" fill="none" xmlns="http://www.w3.org/2000/svg">
<path d="M265 437C265 423.5 270.5 410.5 280 401C289.5 391.5 302.5 386 316 386H418C422.5 386 427 384 430 381C433 378 435 373.5 435 369V148C435 143.5 433 139 430 136C427 133 422.5 131 418 131H375.5H354H343.5M265 437C265 423.5 259.5 410.5 250 401C240.5 391.5 227.5 386 214 386H112C107.5 386 103 384 100 381C97 378 95 373.5 95 369V148C95 143.5 97 139 100 136C103 133 107.5 131 112 131H197C213 131 228.5 136.5 240.5 146.5M265 437V318V263" stroke="#041822" stroke-width="7" stroke-linejoin="round"/>
<path d="M318.5 118V144.5M331.5 131.5H305M259 123.5C259 122 260 120.5 261 119.5C262 118.5 263.5 118 265.5 118C267 118 268.5 118.5 269.5 119.5C270.5 120.5 271.5 122 272 123.5L278.5 160C279 163 280.5 165.5 282.5 167C284.5 169 286.5 170.5 289.5 171L326 178C327.5 178 329 179 330 180C331 181 331.5 182.5 331.5 184.5C331.5 186 331 187.5 330 188.5C329 189.5 327.5 190.5 326 191L289.5 197.5C286.5 198 284.5 199.5 282.5 201.5C280.5 203.5 279 205.5 278.5 208.5L272 245C271.5 246.5 270.5 248 269.5 249C268.5 250 267 250.5 265.5 250.5C263.5 250.5 262 250 261 249C260 248 259 246.5 259 245L252 208.5C251.5 205.5 250 203.5 248 201.5C246.5 199.5 244 198 241 197.5L204.5 191C203 190.5 201.5 189.5 200.5 188.5C199.5 187.5 199 186 199 184.5C199 182.5 199.5 181 200.5 180C201.5 179 203 178 204.5 178L241 171C244 170.5 246.5 169 248 167C250 165.5 251.5 163 252 160L259 123.5ZM225.5 237.5C225.5 244.5 219.5 250.5 212.5 250.5C205 250.5 199 244.5 199 237.5C199 230 205 224 212.5 224C219.5 224 225.5 230 225.5 237.5Z" stroke="#041822" stroke-width="7" stroke-linejoin="round"/>
</svg>
