<svg width="530" height="530" viewBox="0 0 530 530" fill="none" xmlns="http://www.w3.org/2000/svg">
<path d="M109.5 41.5C152 41.5 191 66.5 219 106.5C247 147 264.5 203 264.5 264.5C264.5 326 247 382 219 422.5C191 462.5 152 487.5 109.5 487.5C67 487.5 28 462.5 0 422.5C-28 382 -45.5 326 -45.5 264.5C-45.5 203 -28 147 0 106.5C28 66.5 67 41.5 109.5 41.5Z" stroke="#041822" stroke-opacity="0.5"/>
<path d="M255 41.5C255 41.5 255 41.5 255 41.5C255.5 42 255.5 42 255.5 42.5C256 43 256 44 256.5 45.5C257 48.5 258 53 258.5 58.5C259.5 70 260.5 86.5 261.5 106.5C263.5 147 264.5 203 264.5 264.5C264.5 326 263.5 382 261.5 422.5C260.5 442.5 259.5 459 258.5 470.5C258 476 257 480.5 256.5 483.5C256 485 256 486 255.5 486.5C255.5 487 255.5 487 255 487.5C255 487.5 255 487.5 255 487.5C255 487.5 255 487.5 255 487.5C254.5 487 254.5 487 254.5 486.5C254 486 254 485 253.5 483.5C253 480.5 252 476 251.5 470.5C250.5 459 249.5 442.5 248.5 422.5C246.5 382 245.5 326 245.5 264.5C245.5 203 246.5 147 248.5 106.5C249.5 86.5 250.5 70 251.5 58.5C252 53 253 48.5 253.5 45.5C254 44 254 43 254.5 42.5C254.5 42 254.5 42 255 41.5C255 41.5 255 41.5 255 41.5Z" stroke="#041822" stroke-opacity="0.5"/>
<path d="M236 41.5C237.5 41.5 239.5 43 241.5 46C243.5 48.5 245 53 247 58.5C250.5 70 253.5 86.5 256 106.5C261.5 147 264.5 203 264.5 264.5C264.5 326 261.5 382 256 422.5C253.5 442.5 250.5 459 247 470.5C245 476 243.5 480.5 241.5 483C239.5 486 237.5 487.5 236 487.5C234.5 487.5 232.5 486 230.5 483C228.5 480.5 227 476 225 470.5C221.5 459 218.5 442.5 216 422.5C210.5 382 207.5 326 207.5 264.5C207.5 203 210.5 147 216 106.5C218.5 86.5 221.5 70 225 58.5C227 53 228.5 48.5 230.5 46C232.5 43 234.5 41.5 236 41.5Z" stroke="#041822" stroke-opacity="0.5"/>
<path d="M219.5 41.5C222.5 41.5 225.5 43 228.5 46C231 49 234 53 237 59C242 70 247 86.5 251 106.5C259.5 147 264.5 203 264.5 264.5C264.5 326 259.5 382 251 422.5C247 442.5 242 459 237 470C234 476 231 480 228.5 483C225.5 486 222.5 487.5 219.5 487.5C216.5 487.5 213.5 486 210.5 483C208 480 205 476 202 470C197 459 192 442.5 188 422.5C179.5 382 174.5 326 174.5 264.5C174.5 203 179.5 147 188 106.5C192 86.5 197 70 202 59C205 53 208 49 210.5 46C213.5 43 216.5 41.5 219.5 41.5Z" stroke="#041822" stroke-opacity="0.5"/>
<path d="M203 41.5C211.5 41.5 219.5 47.5 226.5 59C234 70 241 86.5 246.5 106.5C257.5 147 264.5 203 264.5 264.5C264.5 326 257.5 382 246.5 422.5C241 442.5 234 459 226.5 470C219.5 481.5 211.5 487.5 203 487.5C194.5 487.5 186.5 481.5 179.5 470C172 459 165 442.5 159.5 422.5C148.5 382 141.5 326 141.5 264.5C141.5 203 148.5 147 159.5 106.5C165 86.5 172 70 179.5 59C186.5 47.5 194.5 41.5 203 41.5Z" stroke="#041822" stroke-opacity="0.5"/>
<path d="M185 41.5C196 41.5 206 47.5 216 59C225.5 70 234 86.5 241 106.5C255.5 147 264.5 203 264.5 264.5C264.5 326 255.5 382 241 422.5C234 442.5 225.5 459 216 470C206 481.5 196 487.5 185 487.5C174 487.5 164 481.5 154 470C144.5 459 136 442.5 129 422.5C114.5 382 105.5 326 105.5 264.5C105.5 203 114.5 147 129 106.5C136 86.5 144.5 70 154 59C164 47.5 174 41.5 185 41.5Z" stroke="#041822" stroke-opacity="0.5"/>
<path d="M167 41.5C180.5 41.5 193 47.5 205 59C216.5 70 227 86.5 236 106.5C253.5 147 264.5 203 264.5 264.5C264.5 326 253.5 382 236 422.5C227 442.5 216.5 459 205 470C193 481.5 180.5 487.5 167 487.5C153.5 487.5 141 481.5 129 470C117.5 459 107 442.5 98 422.5C80.5 382 69.5 326 69.5 264.5C69.5 203 80.5 147 98 106.5C107 86.5 117.5 70 129 59C141 47.5 153.5 41.5 167 41.5Z" stroke="#041822" stroke-opacity="0.5"/>
<path d="M147.5 41.5C179.5 41.5 209 66.5 230 106.5C251.5 147 264.5 203 264.5 264.5C264.5 326 251.5 382 230 422.5C209 462.5 179.5 487.5 147.5 487.5C115.5 487.5 86 462.5 65 422.5C43.5 382 30.5 326 30.5 264.5C30.5 203 43.5 147 65 106.5C86 66.5 115.5 41.5 147.5 41.5Z" stroke="#041822" stroke-opacity="0.5"/>
<path d="M127 41.5C165 41.5 199 66.5 224 106.5C249 147 264.5 203 264.5 264.5C264.5 326 249 382 224 422.5C199 462.5 165 487.5 127 487.5C89 487.5 55 462.5 30 422.5C5 382 -10.5 326 -10.5 264.5C-10.5 203 5 147 30 106.5C55 66.5 89 41.5 127 41.5Z" stroke="#041822" stroke-opacity="0.5"/>
<path d="M420.5 41.5C378 41.5 339 66.5 311 106.5C283 147 265.5 203 265.5 264.5C265.5 326 283 382 311 422.5C339 462.5 378 487.5 420.5 487.5C463 487.5 502 462.5 530 422.5C558 382 575.5 326 575.5 264.5C575.5 203 558 147 530 106.5C502 66.5 463 41.5 420.5 41.5Z" stroke="#041822" stroke-opacity="0.5"/>
<path d="M275 41.5C275 41.5 275 41.5 275 41.5C274.5 42 274.5 42 274.5 42.5C274 43 274 44 273.5 45.5C273 48.5 272 53 271.5 58.5C270.5 70 269.5 86.5 268.5 106.5C266.5 147 265.5 203 265.5 264.5C265.5 326 266.5 382 268.5 422.5C269.5 442.5 270.5 459 271.5 470.5C272 476 273 480.5 273.5 483.5C274 485 274 486 274.5 486.5C274.5 487 274.5 487 275 487.5C275 487.5 275 487.5 275 487.5C275 487.5 275 487.5 275 487.5C275.5 487 275.5 487 275.5 486.5C276 486 276 485 276.5 483.5C277 480.5 278 476 278.5 470.5C279.5 459 280.5 442.5 281.5 422.5C283.5 382 284.5 326 284.5 264.5C284.5 203 283.5 147 281.5 106.5C280.5 86.5 279.5 70 278.5 58.5C278 53 277 48.5 276.5 45.5C276 44 276 43 275.5 42.5C275.5 42 275.5 42 275 41.5C275 41.5 275 41.5 275 41.5Z" stroke="#041822" stroke-opacity="0.5"/>
<path d="M294 41.5C292.5 41.5 290.5 43 288.5 46C286.5 48.5 285 53 283 58.5C279.5 70 276.5 86.5 274 106.5C268.5 147 265.5 203 265.5 264.5C265.5 326 268.5 382 274 422.5C276.5 442.5 279.5 459 283 470.5C285 476 286.5 480.5 288.5 483C290.5 486 292.5 487.5 294 487.5C295.5 487.5 297.5 486 299.5 483C301.5 480.5 303 476 305 470.5C308.5 459 311.5 442.5 314 422.5C319.5 382 322.5 326 322.5 264.5C322.5 203 319.5 147 314 106.5C311.5 86.5 308.5 70 305 58.5C303 53 301.5 48.5 299.5 46C297.5 43 295.5 41.5 294 41.5Z" stroke="#041822" stroke-opacity="0.5"/>
<path d="M310.5 41.5C307.5 41.5 304.5 43 301.5 46C299 49 296 53 293 59C288 70 283 86.5 279 106.5C270.5 147 265.5 203 265.5 264.5C265.5 326 270.5 382 279 422.5C283 442.5 288 459 293 470C296 476 299 480 301.5 483C304.5 486 307.5 487.5 310.5 487.5C313.5 487.5 316.5 486 319.5 483C322 480 325 476 328 470C333 459 338 442.5 342 422.5C350.5 382 355.5 326 355.5 264.5C355.5 203 350.5 147 342 106.5C338 86.5 333 70 328 59C325 53 322 49 319.5 46C316.5 43 313.5 41.5 310.5 41.5Z" stroke="#041822" stroke-opacity="0.5"/>
<path d="M327 41.5C318.5 41.5 310.5 47.5 303.5 59C296 70 289 86.5 283.5 106.5C272.5 147 265.5 203 265.5 264.5C265.5 326 272.5 382 283.5 422.5C289 442.5 296 459 303.5 470C310.5 481.5 318.5 487.5 327 487.5C335.5 487.5 343.5 481.5 350.5 470C358 459 365 442.5 370.5 422.5C381.5 382 388.5 326 388.5 264.5C388.5 203 381.5 147 370.5 106.5C365 86.5 358 70 350.5 59C343.5 47.5 335.5 41.5 327 41.5Z" stroke="#041822" stroke-opacity="0.5"/>
<path d="M345 41.5C334 41.5 324 47.5 314 59C304.5 70 296 86.5 289 106.5C274.5 147 265.5 203 265.5 264.5C265.5 326 274.5 382 289 422.5C296 442.5 304.5 459 314 470C324 481.5 334 487.5 345 487.5C356 487.5 366 481.5 376 470C385.5 459 394 442.5 401 422.5C415.5 382 424.5 326 424.5 264.5C424.5 203 415.5 147 401 106.5C394 86.5 385.5 70 376 59C366 47.5 356 41.5 345 41.5Z" stroke="#041822" stroke-opacity="0.5"/>
<path d="M363 41.5C349.5 41.5 337 47.5 325 59C313.5 70 303 86.5 294 106.5C276.5 147 265.5 203 265.5 264.5C265.5 326 276.5 382 294 422.5C303 442.5 313.5 459 325 470C337 481.5 349.5 487.5 363 487.5C376.5 487.5 389 481.5 401 470C412.5 459 423 442.5 432 422.5C449.5 382 460.5 326 460.5 264.5C460.5 203 449.5 147 432 106.5C423 86.5 412.5 70 401 59C389 47.5 376.5 41.5 363 41.5Z" stroke="#041822" stroke-opacity="0.5"/>
<path d="M382.5 41.5C350.5 41.5 321 66.5 300 106.5C278.5 147 265.5 203 265.5 264.5C265.5 326 278.5 382 300 422.5C321 462.5 350.5 487.5 382.5 487.5C414.5 487.5 444 462.5 465 422.5C486.5 382 499.5 326 499.5 264.5C499.5 203 486.5 147 465 106.5C444 66.5 414.5 41.5 382.5 41.5Z" stroke="#041822" stroke-opacity="0.5"/>
<path d="M403 41.5C365 41.5 331 66.5 306 106.5C281 147 265.5 203 265.5 264.5C265.5 326 281 382 306 422.5C331 462.5 365 487.5 403 487.5C441 487.5 475 462.5 500 422.5C525 382 540.5 326 540.5 264.5C540.5 203 525 147 500 106.5C475 66.5 441 41.5 403 41.5Z" stroke="#041822" stroke-opacity="0.5"/>
<path d="M391 140C391 205 329.5 268 264.5 268C199.5 268 139.5 205 139.5 140" stroke="#041822" stroke-width="7"/>
<path d="M258.5 313.5C258.5 340.5 244 362.5 225.5 380" stroke="#041822" stroke-width="7"/>
<path d="M337.5 391C339.5 391.5 340.5 393.5 340 395.5C339.5 397.5 337.5 398.5 335.5 398L336.5 394.5L337.5 391ZM272.5 311.5L276 311.5C276 332.5 282 349.5 292.5 362.5C303 376 318.5 385.5 337.5 391L336.5 394.5L335.5 398C315.5 392 298.5 381.5 287 367C275.5 352.5 269 334 269 311.5L272.5 311.5Z" fill="#041822"/>
<path d="M302.5 262C308 283 295.5 305 274.5 310.5C253.5 316 231.5 303.5 226 282.5" stroke="#041822" stroke-width="7"/>
<path d="M224 120C174 122.5 138 129.5 138 138C138 148.5 194.5 157 264.5 157C334.5 157 391 148.5 391 138C391 129.5 355 122.5 305 120" stroke="#041822" stroke-width="7"/>
<path d="M337 394.5C361.5 397.5 377 402.5 377 407.5C377 417 326.5 424.5 264.5 424.5C202.5 424.5 152 417 152 407.5C152 402 170.5 397 199 393.5" stroke="#041822" stroke-width="7"/>
<circle cx="265" cy="194" r="23.5" stroke="#041822" stroke-width="4"/>
<circle cx="247.5" cy="225" r="23.5" stroke="#041822" stroke-width="4"/>
<circle cx="282.5" cy="225" r="23.5" stroke="#041822" stroke-width="4"/>
</svg>
