<svg width="530" height="530" viewBox="0 0 530 530" fill="none" xmlns="http://www.w3.org/2000/svg">
<path d="M162 314V266.5V242.5V216.5M162 76V28V-67H543V314H448H400H376.5H371" stroke="#041822" stroke-width="3" stroke-linecap="round" stroke-linejoin="round"/>
<path d="M262 377H162V568H262V377Z" stroke="#041822" stroke-width="3" stroke-linecap="round" stroke-linejoin="round"/>
<path d="M224 314.5H161.5V376.5H224V314.5Z" stroke="#041822" stroke-width="3" stroke-linecap="round" stroke-linejoin="round"/>
<path d="M261.5 314.5H224V352H261.5V314.5Z" stroke="#041822" stroke-width="3" stroke-linecap="round" stroke-linejoin="round"/>
<path d="M261.5 352H237V377H261.5V352Z" stroke="#041822" stroke-width="3" stroke-linecap="round" stroke-linejoin="round"/>
<path d="M237 364H224V376.5H237V364Z" stroke="#041822" stroke-width="3" stroke-linecap="round" stroke-linejoin="round"/>
<path d="M-262.5 477C-262.5 242 -72.5 52 162.5 52H161.5C306.5 52 423.5 169 423.5 314C423.5 404 350.5 477 260.5 477H261.5C206 477 161.5 432.5 161.5 377C161.5 342 189.5 314 224.5 314H223.5C244.5 314 261.5 331 261.5 352C261.5 366 250.5 377 236.5 377C230 377 224.5 371 224.5 364" stroke="#041822" stroke-width="3" stroke-linecap="round" stroke-linejoin="round"/>
<path d="M416 363.5L393.5 338L392.5 337C381 324.5 369.5 312 358 299C351.5 292 345 284.5 338.5 277C342.5 277.5 350 279 353.5 277.5C354.5 277.5 355.5 276.5 356 275.5C356.5 274 355.5 271.5 355 270C351.5 264.5 346 257.5 342 252.5C330.5 237 318 222.5 305.5 207.5C297.5 198.5 290 189 282 179.5C270.5 166.5 259 153 248 139C245.5 136 240 130.5 238.5 127.5C236.5 124 236 119.5 235 115.5C234.5 112.5 233 109.5 232 106C227 93.5 218.5 82.5 205.5 76.5C192 70.5 175 71.5 161.5 77C153 80.5 148 98 144.5 106C137 109.5 111.5 113 111.5 115.5C124 117 138.5 115.5 147.5 122.5C152.5 132 156.5 143.5 156.5 155C156.5 158 155 161 154.5 164C154 166.5 153.5 168.5 153 171C149.5 190 155 206.5 175 226.5C194.5 246.5 248 277.5 255.5 286.5C249 291.5 231.5 298 224.5 302C222 303.5 220 305.5 217 306.5C213 306 209 306 205 306.5C200 307.5 196.5 309.5 193.5 313.5H302.5C302.5 313.5 320.5 317 349.5 348.5H349.5C356 356.5 362.5 364 369.5 372C371 373.5 375 377 379 376.5C383 376 383 373.5 382.5 372L402.5 392" stroke="#041822" stroke-width="7"/>
<path d="M382.5 373L323.5 302.5" stroke="#041822" stroke-width="2"/>
<path d="M338.5 274.5C316 271 263.5 260.5 228.5 234.5C188.5 205 185.5 152 218 140" stroke="#041822" stroke-width="2"/>
</svg>
