<svg width="530" height="530" viewBox="0 0 530 530" fill="none" xmlns="http://www.w3.org/2000/svg">
<path d="M280.5 237C290.5 254.5 285 277 267.5 287.5C250.5 297.5 228 292 217.5 275C207 257.5 213.5 236.5 231 226M280.5 237L243.5 177M280.5 237L281 238M243.5 177C237.5 167 241 154 251 148C261 142 274 145 280 155.5C286 165.5 282.5 178 272.5 184" stroke="#041822" stroke-width="7"/>
<path d="M230 279C240.5 261.5 263.5 256.5 280.5 267.5C297.5 278 303 300.5 292 318C281.5 335 259.5 338.5 242.5 328M230 279L193 339M230 279L230.5 278M193 339C187 348.5 174 351.5 164 345.5C154 339.5 151 326 157 316.5C163.5 306.5 176.5 304 186 310" stroke="#041822" stroke-width="7"/>
<path d="M290 303.5C269.5 302.5 254 285 255 265C256 245 273.5 229 293.5 230.5C313.5 231.5 327.5 248.5 326.5 268.5M290 303.5L360 306.5M290 303.5L288.5 303.5M360 306.5C371.5 307 380.5 317 380 328.5C379.5 340.5 369.5 349.5 358 349C346 348 337.5 338 338 326.5" stroke="#041822" stroke-width="7"/>
<path d="M68 105H461L373.5 501.5L18 320.5L264.5 10L515.5 320.5L148 496L68 105Z" stroke="#041822" stroke-width="4"/>
<circle cx="265" cy="265" r="147.5" stroke="#041822" stroke-width="7"/>
</svg>
