<svg width="530" height="530" viewBox="0 0 530 530" fill="none" xmlns="http://www.w3.org/2000/svg">
<path d="M256.5 475L189.5 476L192 469.5L256.5 468.5V475ZM345.5 474L275.5 475V468L342.5 467.5L345.5 474ZM175 461L172 467.5L120.5 417.5L125.5 413L175 461ZM469.5 356L362.5 466L359.5 459L462.5 353.5L469.5 356ZM256.5 435.5L206 436.5L208.5 429.5L256.5 429V435.5ZM328 434.5L275.5 435.5V428.5L325 428L328 434.5ZM191 421.5L188.5 428.5L148.5 389.5L153.5 385L191 421.5ZM381 390L345.5 426.5L342.5 420L376.5 385.5L381 390ZM111.5 399.5L107 404L63.5 361.5L70 359L111.5 399.5ZM256.5 389.5L225 390L228 383L256.5 383V389.5ZM308 389L275.5 389V382.5L305 382L308 389ZM210 376L207.5 382.5L149 325.5L155.5 322.5L210 376ZM347.5 358.5L325.5 381L322.5 374.5L342.5 354L347.5 358.5ZM429.5 340.5L394.5 376.5L389.5 372L422.5 338L429.5 340.5ZM139.5 371.5L135 376.5L103 345L109.5 342L139.5 371.5ZM383 322.5L361 345L356 340.5L376 319.5L383 322.5ZM60.5 191.5L62.5 341.5L56 344L54 189L60.5 191.5ZM476 338L469 335.5L468.5 273.5H475L476 338ZM102 324.5L95.5 327.5L94.5 275.5H101.5L102 324.5ZM436.5 322.5L429.5 320L428 205L434.5 202L436.5 322.5ZM147 227.5L148 305L141 308L140 225L147 227.5ZM390 304.5L383 302L383 273.5H389.5L390 304.5ZM100.5 208L101 256.5H94.5L93.5 205.5L100.5 208ZM475 254.5H468L467.5 187.5L474 184.5L475 254.5ZM389 254.5H382.5L382 225L389 222L389 254.5ZM207.5 155L154.5 210L147.5 207L205 148.5L207.5 155ZM381 204.5L374.5 207.5L356 189.5L360.5 184.5L381 204.5ZM188 109L108.5 191L102 188L185.5 102.5L188 109ZM427 184.5L420 187.5L338.5 108L341.5 101.5L427 184.5ZM347 171.5L342 176L320 154.5L322.5 147.5L347 171.5ZM112.5 130L69.5 174.5L62.5 171.5L108 125.5L112.5 130ZM465.5 167.5L459 170.5L354.5 68.5L357.5 62L465.5 167.5ZM302.5 147L225.5 148L222.5 141L305 140L302.5 147ZM171.5 69.5L126 116.5L121.5 111.5L168.5 63L171.5 69.5ZM321 100.5L206 102L203 95.5L324 93.5L321 100.5ZM337 60.5L189.5 62.5L186.5 56L340 54L337 60.5Z" fill="#041822"/>
<path d="M264 187L264 187C269 187 274.5 187.5 279.5 188.5C284.5 189.5 289 191 293.5 193C298.5 195 302.5 197.5 306.5 200C311 203 314.5 206 318 209.5C321.5 213 324.5 217 327.5 221C330 225 332.5 229.5 334.5 234C336.5 238.5 338 243 339 247.5H339L339 248C340 253.5 340.5 258.5 340.5 263.5C340.5 269 340 274 339 279C338 284 336.5 289 334.5 293.5C332.5 298 330 302.5 327.5 306.5C324.5 310.5 321.5 314.5 318 318C314.5 321.5 311 324.5 306.5 327C302.5 330 298.5 332.5 293.5 334.5C289 336.5 284.5 338 279.5 339C274.5 340 269 340.5 264 340.5L264 340.5C264 340.5 264 340.5 263.5 340.5C263.5 340.5 263.5 340.5 263.5 340.5V340.5C258 340.5 253 340 248 339C243 338 238.5 336.5 233.5 334.5C229 332.5 224.5 330 220.5 327C216.5 324.5 213 321.5 209.5 318C206 314.5 202.5 310.5 200 306.5C197 302.5 195 298 193 293.5C191 289 189.5 284 188.5 279C187.5 274 187 269 187 263.5C187 258.5 187.5 253.5 188.5 248.5L188.5 247.5C189.5 242.5 191 238 193 234C195 229.5 197 225 200 221C202.5 217 206 213 209.5 209.5C213 206 216.5 203 220.5 200C224.5 197.5 229 195 233.5 193C238.5 191 243 189.5 248 188.5C253 187.5 258 187 263.5 187V187C263.5 187 264 187 264 187ZM282.5 192C283.5 192.5 284 192.5 285 193C287 194.5 289.5 196.5 291.5 198.5C292 199.5 293 200.5 294 201C295.5 203 296.5 205 297.5 207L298 207.5L298.5 208.5C299 209 299.5 210 299.5 211C300.5 212.5 301 214.5 301.5 216.5H301.5L301.5 217V217C301.5 217 301.5 217.5 302 217.5L302 218L302 218.5C302 219 302 219.5 302 220C302.5 221 302.5 222 302.5 223C302.5 224 302.5 225 302.5 226C302.5 231 301.5 236.5 299.5 241C297.5 245.5 295 250 291.5 253.5C287.5 257 283.5 260 279 262C278.5 262 278 262.5 277.5 262.5C273 264 268.5 265 263.5 265C258 265 252.5 266 248 268.5V268.5C247.5 268.5 247.5 268.5 247.5 269L247.5 269C247 269 247 269 247 269V269C235.5 275 227.5 287 227 300.5C227 301 227 301 227 301.5C227 301.5 227 302 227 302C227 304 227.5 305.5 227.5 307.5L228 308.5C228.5 310.5 229 312.5 229.5 314.5L230 315.5V315.5L230 315.5V315.5C230 316 230 316 230.5 316.5L230.5 316.5L230.5 316.5C230.5 316.5 230.5 317 230.5 317L231 317.5L231 317.5C236 328.5 246.5 336 259 337.5H259L259 337.5C259 337.5 259 337.5 259 337.5H259C260 338 261 338 262 338H262C262 338 262 338 262 338H262C262.5 338 262.5 338 263 338C263 338 263.5 338 263.5 338H264L264.5 338L264.5 338C305 337.5 338 304.5 338 263.5C338 229.5 314.5 200 282.5 192ZM263.5 216C258.5 216 254 220.5 254 226C254 231.5 258.5 235.5 263.5 235.5C269 235.5 273.5 231.5 273.5 226C273.5 220.5 269 216 263.5 216Z" fill="#041822" stroke="#041822" stroke-width="1.5"/>
<path d="M256.5 294.5C260.5 290 267 290 271.5 294.5C275.5 298.5 275.5 305 271.5 309.5C267 313.5 260.5 313.5 256.5 309.5C252 305 252 298.5 256.5 294.5Z" fill="#041822" stroke="#041822" stroke-width="0"/>
</svg>
