<svg width="530" height="530" viewBox="0 0 530 530" fill="none" xmlns="http://www.w3.org/2000/svg">
<path d="M448.5 265.5C448.5 184 395.5 115 322 91M82 265.5C82 184 135 115 208.5 91M173.5 424C200.5 439.5 232 448.5 265.5 448.5C298.5 448.5 330 439.5 357 424" stroke="#041822" stroke-width="4"/>
<path d="M208.5 169.5L249.5 101M320.5 169.5L280 101" stroke="#041822" stroke-width="7"/>
<path d="M292 100H236.5L264 52L292 100Z" stroke="#041822" stroke-width="8"/>
<path d="M229.5 209.5H174L202 162L229.5 209.5Z" stroke="#041822" stroke-width="8"/>
<path d="M181 293H126L153.5 245.5L181 293Z" stroke="#041822" stroke-width="8"/>
<path d="M125.5 390H70.5L98 342L125.5 390Z" stroke="#041822" stroke-width="8"/>
<path d="M459 390H404L431.5 342L459 390Z" stroke="#041822" stroke-width="8"/>
<path d="M403.5 293H348.5L376 245.5L403.5 293Z" stroke="#041822" stroke-width="8"/>
<path d="M355.5 209.5H300.5L328 162L355.5 209.5Z" stroke="#041822" stroke-width="8"/>
<path d="M226 204.5L412 369.5" stroke="#041822" stroke-width="7"/>
<path d="M303.5 207.5L171 274" stroke="#041822" stroke-width="7"/>
<path d="M171.5 274.5L358 274.5" stroke="#041822" stroke-width="7"/>
<path d="M357.5 275L114.5 368.5" stroke="#041822" stroke-width="7"/>
<path d="M116 369.5H413" stroke="#041822" stroke-width="7"/>
</svg>
