<svg width="530" height="530" viewBox="0 0 530 530" fill="none" xmlns="http://www.w3.org/2000/svg">
<circle cx="265" cy="265" r="198.5" stroke="#041822" stroke-width="7"/>
<path d="M138.5 416.5V110.5C170.5 111 231 127 220 185C210.5 235.5 127 281 71 304" stroke="#041822" stroke-width="7"/>
<path d="M146.5 266.5C174 297 240.5 363 287.5 385C327 403.5 375 417.5 410 400.5M452.5 328.5C450.5 303.5 428 284.5 400 271" stroke="#041822" stroke-width="7"/>
<circle cx="274" cy="233" r="39.5" stroke="#041822" stroke-width="7"/>
<path d="M247 173L302 173L274.5 220L247 173Z" stroke="#041822" stroke-width="7"/>
<path d="M247 224L302 224L274.5 271L247 224Z" stroke="#041822" stroke-width="7"/>
<path d="M274 273.5V461.5" stroke="#041822" stroke-width="7"/>
<path d="M220 289L274 326.5L328.5 289" stroke="#041822" stroke-width="7"/>
</svg>
