<svg width="530" height="530" viewBox="0 0 530 530" fill="none" xmlns="http://www.w3.org/2000/svg">
<circle cx="265" cy="265" r="39.5" transform="rotate(90 265 265)" fill="#041822" stroke="#041822" stroke-width="7"/>
<line x1="269" y1="35" x2="269" y2="212" stroke="#041822" stroke-width="7"/>
<g transform="translate(168 -97) rotate(30)"><line x1="269" y1="35" x2="269" y2="212" stroke="#041822" stroke-width="7"/></g>
<g transform="translate(362.5 -97) rotate(60)"><line x1="269" y1="35" x2="269" y2="212" stroke="#041822" stroke-width="7"/></g>
<g transform="translate(530.5 0) rotate(90)"><line x1="269" y1="35" x2="269" y2="212" stroke="#041822" stroke-width="7"/></g>
<g transform="translate(627.5 168) rotate(120)"><line x1="269" y1="35" x2="269" y2="212" stroke="#041822" stroke-width="7"/></g>
<g transform="translate(627.5 362.5) rotate(150)"><line x1="269" y1="35" x2="269" y2="212" stroke="#041822" stroke-width="7"/></g>
<g transform="translate(530.5 530.5) rotate(-180)"><line x1="269" y1="35" x2="269" y2="212" stroke="#041822" stroke-width="7"/></g>
<g transform="translate(362.5 627.5) rotate(-150)"><line x1="269" y1="35" x2="269" y2="212" stroke="#041822" stroke-width="7"/></g>
<g transform="translate(168 627.5) rotate(-120)"><line x1="269" y1="35" x2="269" y2="212" stroke="#041822" stroke-width="7"/></g>
<g transform="translate(0 530.5) rotate(-90)"><line x1="269" y1="35" x2="269" y2="212" stroke="#041822" stroke-width="7"/></g>
<g transform="translate(-97 362.5) rotate(-60)"><line x1="269" y1="35" x2="269" y2="212" stroke="#041822" stroke-width="7"/></g>
<g transform="translate(-97 168) rotate(-30)"><line x1="269" y1="35" x2="269" y2="212" stroke="#041822" stroke-width="7"/></g>
<path d="M306 117.5L286 191.5M374.5 157.5L320.5 212M413.5 226.5L339.5 246.5M413 306L339 286M373 374.5L319 320.5M304 413.5L284 339.5M225 413L244.5 339M156.5 373L210.5 319M117 304L191 284M117.5 225L191.5 244.5M157.5 156.5L212 210.5M226.5 117L246.5 191" stroke="#041822" stroke-width="2"/>
</svg>
