<svg width="530" height="530" viewBox="0 0 530 530" fill="none" xmlns="http://www.w3.org/2000/svg">
<path d="M358 374L328 344L320.5 336.5L315.5 331.5M266 466L146.5 346.5L131.5 331.5M120.5 320.5L116.5 316.5L86.5 287L73 273C47.5 247.5 47.5 206.5 73 181C98.5 155.5 139.5 155.5 165 181L178.5 195L208.5 224.5L212.5 228.5M305 321L298 314L238.5 254.5L223.5 239.5" stroke="#041822" stroke-width="7"/>
<path d="M395 321.5L325.5 252.5L317 243.5L312.5 239.5M263 373.5L227 337.5L221.5 332M210.5 321L164.5 275C140 250.5 139 212 161 186.5M170.5 177.5C196 157.5 233 159.5 256.5 183L291 217.5L299.5 226.5L304 230.5" stroke="#041822" stroke-width="7"/>
<path d="M263.5 463.5L323 404L351 376.5M177 366L179 364.5L186.5 357L201.5 342L231 312L259.5 284M360.5 366.5L368 359.5L383 344.5L456 271C481.5 245.5 481.5 204.5 456 179L454.5 177.5C430 153 390.5 153 365.5 177.5M268.5 275L276 267.5L291 252.5L350.5 192.5L356.5 187" stroke="#041822" stroke-width="7"/>
<path d="M260.5 376L333.5 302.5L350 286M124.5 328L148.5 304L160 292L166 286M177 275.5L184 268.5L196 256.5L220 232.5L243.5 208.5L255.5 196.5L258.5 193.5M267.5 185L269.5 183C294.5 157.5 336 157.5 361 183C386.5 208.5 386.5 249.5 361 275L359 277" stroke="#041822" stroke-width="7"/>
<path d="M355 371L366.5 383L375.5 392.5C386 402.5 402 402.5 412 392.5L420.5 384C431 373.5 431 357.5 420.5 347.5L411.5 338L407 333.5L406 332.5" stroke="#041822" stroke-width="7"/>
<path d="M131.5 321L105.5 347.5C95.5 357.5 95.5 373.5 105.5 383.5L114 392.5C124.5 402.5 140.5 402.5 150.5 392.5L160 383L164.5 378.5L166.5 376.5" stroke="#041822" stroke-width="7"/>
<path d="M331.5 118L262 49L193 118" stroke="#041822" stroke-width="7"/>
</svg>
