<svg width="530" height="530" viewBox="0 0 530 530" fill="none" xmlns="http://www.w3.org/2000/svg">
<path d="M197 417L266 486.5L335.5 417" stroke="#041822" stroke-width="7"/>
<path d="M362.5 299L264.5 397.5L235.5 368.5L235.5 368.5L219 351L224.5 346.5L240.5 363.5L264.5 387.5L356 295.5L362.5 299ZM156 177C173.5 159.5 195.5 152 218.5 154L218 161C197.5 159 177 166 161 182C132.5 210 132.5 255.5 161 283.5C161 284 161 284 161 284L163.5 286.5L163.5 286.5L212 334.5L206.5 339L153.5 286.5L153.5 286.5C125 255.5 125.5 207 156 177ZM264.5 174C296 146 343.5 147 373.5 177C404 207 404.5 256 375 287L368.5 283C395 255 396 209.5 368.5 182C340.5 154 295.5 153.5 267 181.5L264.5 183.5L262.5 181.5C253.5 172.5 247.5 167 236.5 164L237 157C248.5 160.5 256.5 166 264.5 174Z" fill="#041822"/>
<path d="M261.5 42L264.5 38L267.5 42L264.5 44L261.5 42ZM231 165.5C231 204.5 243.5 240 254.5 261.5L246.5 262C235.5 240 224 206 224 165.5C224 131.5 233.5 100.5 242.5 78.5C247.5 67.5 252 58 255.5 52C257.5 49 259 46.5 260 45C260.5 44 261 43.5 261 43C261.5 42.5 261.5 42.5 261.5 42.5C261.5 42.5 261.5 42.5 261.5 42.5C261.5 42 261.5 42 261.5 42C261.5 42 261.5 42 261.5 42L261.5 42C261.5 42 261.5 42 264.5 44C267.5 42 267.5 42 267.5 42L267.5 42C267.5 42 267.5 42 267.5 42C267.5 42 267.5 42 267.5 42.5C267.5 42.5 267.5 42.5 267.5 42.5C267.5 42.5 267.5 42.5 268 43C268 43 268.5 43.5 269 44.5C270 46 271 48 272.5 50.5C276 56 280 64 284.5 73.5C293 93 302 119 304.5 149.5L298 151.5C295.5 122 286.5 95.5 278 76.5C273.5 67 269.5 59.5 266.5 54C266 53 265 51.5 264.5 50.5C264 52 263 53.5 262 55.5C258.5 61.5 254 70.5 249 81C240 103 231 132.5 231 165.5ZM267.5 276C277 260 297.5 220.5 298.5 169.5L305.5 168C304.5 221 282 266 271.5 282L267.5 276ZM262 290L262 290C262 290 262 290 262 290C262 290 262 290 262 290C262 290 262 290 262 290C262 289.5 261.5 289.5 261.5 289C261 288.5 260.5 287.5 259.5 286C258 283.5 256 280 254 276L261.5 275.5C264 279.5 264 280 265.5 282.5C266.5 283.5 267 284.5 267.5 285.5C267.5 285.5 268 286 268 286C268 286 268 286 268 286C268 286.5 268 286.5 268 286.5C268 286.5 268 286.5 268 286.5L268 286.5C268 286.5 268 286.5 265 288L262 290L262 290Z" fill="#041822"/>
<path d="M467.5 389L470 393.5L464.5 394L464.5 390.5L467.5 389ZM339 365C338 364.5 337.5 364 337 363.5C329.5 359.5 323 355 316.5 350L321.5 344.5C327.5 349.5 333.5 353.5 340.5 357.5C341 358 341.5 358.5 342.5 359C346.5 361.5 351 363.5 355 365.5C382 378.5 409 383.5 430 386C440 387 448.5 387 455 387C456.5 387 457.5 387 459 387C458 385.5 457 384 456 382.5C452.5 376.5 447 368 440 358.5C426 339.5 404.5 317 376 300.5C343 281 306.5 275 282 273L285 266C310 268 345.5 274.5 379.5 294.5C409 311.5 431 335 445.5 354.5C453 364 458.5 372.5 462 378.5C464 382 465.5 384.5 466 386C466.5 387 467 387.5 467 388C467.5 388.5 467.5 388.5 467.5 388.5C467.5 388.5 467.5 388.5 467.5 389C467.5 389 467.5 389 467.5 389C467.5 389 467.5 389 467.5 389L467.5 389L464.5 390.5L464.5 394L464.5 394C464.5 394 464.5 394 464.5 394C464.5 394 464.5 394 464.5 394C464.5 394 464.5 394 464.5 394C464.5 394 464 394 464 394C463.5 394 463 394 462 394C460.5 394 458 394 455 394C448.5 394 439.5 394 429 392.5C408 390.5 379.5 385 352 372C347.5 369.5 343 367.5 339 365ZM267 285C275.5 298 290.5 317.5 310 335L304.5 340C284.5 322 270 302.5 261.5 289L267 285Z" fill="#041822"/>
<path d="M64.5 394L59.5 393.5L61.5 389L64.5 390.5L64.5 394ZM149.5 294.5C150 294 152 293 152.5 292.5L157.5 297.5C157 298 153.5 300 153 300.5C149 303 145 305.5 141 308C116.5 325 98 346 86 362.5C80 371 75.5 378.5 72.5 383.5C71.5 385 71 386 70.5 387C72 387 74 387 76 387C83 387 93 386.5 104.5 385C128 382.5 158.5 375.5 187 359C220 339.5 243.5 311.5 257.5 291.5L261.5 297C247.5 317.5 225 345 190.5 365C160.5 382 129.5 389 105.5 392C93.5 393.5 83 394 76 394C72.5 394 69.5 394 67.5 394C66.5 394 66 394 65.5 394C65 394 65 394 64.5 394C64.5 394 64.5 394 64.5 394C64.5 394 64.5 394 64.5 394C64.5 394 64.5 394 64.5 394L64.5 394L64.5 390.5L61.5 389L61.5 389C61.5 389 61.5 389 61.5 389C61.5 389 61.5 389 61.5 389C61.5 388.5 61.5 388.5 61.5 388.5C61.5 388.5 62 388.5 62 388C62 388 62.5 387 63 386.5C63.5 385 64.5 383 66.5 380C69.5 374.5 74 367 80.5 358.5C93 341 111.5 319.5 137 302C141 299.5 145 297 149.5 294.5ZM264.5 271.5C249 271.5 214 272 173 290L168 284.5C210 265 242.5 265 268.5 265L264.5 271.5Z" fill="#041822"/>
</svg>
