<svg width="530" height="530" viewBox="0 0 530 530" fill="none" xmlns="http://www.w3.org/2000/svg">
<path d="M121 334C123.5 340 124 346.5 122.5 352.5L105.5 405.5C105 408 105 411 106 413.5C106.5 416 108 418.5 110 420.5C112 422.5 114.5 423.5 117.5 424.5C120 425 122.5 425 125.5 424.5L180.5 408.5C186 407 192.5 407.5 198 409.5C232.5 426 271 429 308 419.5C344.5 409.5 376.5 387 398 356C419.5 325 429.5 287 426 249.5C422.5 211.5 406 176 379 149.5C352 123 316.5 106.5 279 103.5C241 100.5 203.5 111 172.5 133C141.5 155 119.5 187.5 110 224C101 261 104.5 299.5 121 334Z" stroke="#041822" stroke-width="7" stroke-linecap="round" stroke-linejoin="round"/>
<line x1="184" y1="215.5" x2="348" y2="215.5" stroke="#041822" stroke-width="7"/>
<line x1="184" y1="256.5" x2="348" y2="256.5" stroke="#041822" stroke-width="7"/>
<line x1="184" y1="304.5" x2="275" y2="304.5" stroke="#041822" stroke-width="7"/>
</svg>
