<svg width="530" height="530" viewBox="0 0 530 530" fill="none" xmlns="http://www.w3.org/2000/svg">
<path d="M698.5 263.5L403 286.5C398 286.5 394 288 390 291L385 294.5M207.5 243.5L207.5 243.5C205.5 243.5 203.5 243 201.5 242.5C201 242.5 200.5 242.5 200 242.5C199.5 242 199 242 198.5 242C197.5 241.5 196.5 241 195.5 241L193.5 240C187 237.5 184 229.5 187.5 223L237 137.5C238 136.5 239 135 239.5 134C244 128.5 251 125 258 124.5L328.5 118C334 117.5 339.5 118.5 344 121L381 142C386 145 392 146 397.5 145L614.5 114" stroke="#041822" stroke-width="9" stroke-miterlimit="10" stroke-linejoin="round"/>
<path d="M239.5 134C234 132.5 228.5 131 223 129.5C215.5 127.5 208.5 124.5 200.5 123C194.5 121.5 188 121.5 182.5 124.5C172 130.5 171.5 146 160 150.5C151.5 153.5 141.5 150.5 133.5 148.5C128.5 147.5 123.5 146 119 145C115.5 144.5 112 143.5 108.5 142.5L-2 117C-5 116 -8.5 115.5 -12 114.5M2.5 290.5L103 294.5L146 296.5L146 296.5M255 388.5C262.5 395.5 269 391.5 276.5 384C276.5 384 277 383.5 277 383.5L285.5 373.5C288 370.5 292.5 369.5 296.5 371C298 371.5 299.5 372 301 372C307.5 373 314 370.5 318.5 365.5C321.5 362 324 358 327.5 355C330 352.5 334 352 337.5 353C339 353.5 340.5 354 342 354.5C343.5 354.5 345 354.5 347 354.5C348 354.5 349.5 354 351 353.5C354 352.5 357.5 350.5 359.5 348C362.5 344.5 365.5 340.5 368.5 337.5C372 334 376 334.5 380 336C387.5 338 395.5 336 401 330L404.5 326C410 319.5 409.5 309.5 403 304L385 296.5L324 239" stroke="#041822" stroke-width="9" stroke-miterlimit="10" stroke-linejoin="round"/>
<path d="M146.5 294.5L141 302C135 310 136.5 321 144.5 327C152 333 163.5 331.5 169.5 323.5L175 316.5C181 308.5 179.5 297 171.5 291C163.5 285.5 152.5 287 146.5 294.5Z" stroke="#041822" stroke-width="9" stroke-miterlimit="10" stroke-linejoin="round"/>
<path d="M179.5 310L169.5 323.5C163.5 331.5 165 342.5 173 348.5C180.5 354.5 192 353 198 345L208 331.5C214 323.5 212.5 312.5 205 306.5C197 300.5 185.5 302 179.5 310Z" stroke="#041822" stroke-width="9" stroke-miterlimit="10" stroke-linejoin="round"/>
<path d="M212 326.5L198 345C192 353 193.5 364.5 201.5 370C209.5 376 220.5 374.5 226.5 367L240.5 348C246.5 340.5 245 329 237 323C229 317 218 318.5 212 326.5Z" stroke="#041822" stroke-width="9" stroke-miterlimit="10" stroke-linejoin="round"/>
<path d="M241.5 347L226.5 367C220.5 374.5 222 386 230 392C238 398 249 396 255 388.5L270 368.5C276 361 274.5 349.5 266.5 343.5C258.5 337.5 247.5 339 241.5 347Z" stroke="#041822" stroke-width="9" stroke-miterlimit="10" stroke-linejoin="round"/>
<path d="M328.5 118L258 124.5C249 125 241.5 130 237 137.5L187.5 223C184 229.5 186.5 237.5 193.5 240L195.5 241C213.5 248 234.5 242 246 226.5L265 202C265 202 328.5 207.5 361.5 166" stroke="#041822" stroke-width="9" stroke-miterlimit="10" stroke-linejoin="round"/>
<path d="M380 340.5C382.5 341.5 385 340.5 386 338C387 335.5 385.5 333 383.5 332L381.5 336.5L380 340.5ZM364 329.5L361 333C361.5 333 361.5 333.5 362 333.5L364 329.5ZM381.5 336.5L383.5 332L365.5 325L364 329.5L362 333.5L380 340.5L381.5 336.5ZM364 329.5L366.5 325.5L296.5 270.5L293.5 274.5L291 278L361 333L364 329.5Z" fill="#041822"/>
<path d="M336.5 352.5L321.5 348L264.5 309.5" stroke="#041822" stroke-width="9" stroke-linejoin="round"/>
<path d="M297.5 371L282 366.5L273.5 358.5M242.5 330.5L253 340.5" stroke="#041822" stroke-width="9" stroke-linejoin="round"/>
<path d="M457.5 279C450 385.5 357.5 465 251 457.5M279 72.5C213.5 68 153.5 96 115 143.5" stroke="#041822" stroke-width="7"/>
</svg>
