<svg width="530" height="530" viewBox="0 0 530 530" fill="none" xmlns="http://www.w3.org/2000/svg">
<path d="M213.5 111C228 100 246 93.5 265 93.5C309.5 93.5 345.5 127 350.5 170M193 133C184.5 146.5 179.5 162.5 179.5 179.5C179.5 185 180 190.5 181 196M350.5 186.5C347 230.5 310 265 265 265C229 265 198 242.5 185.5 211" stroke="#041822" stroke-width="7"/>
<path d="M323 107C313 69 291 43 265 43C239.5 43 217.5 69 207 107C206 111.5 205 116 204 121C203 125 202.5 129.5 202 134C201.5 140.5 201 147 201 154C201 161 201.5 168 202 175M328 134C329 140.5 329 147 329 154C329 171 327 187.5 323 202M204.5 191C213.5 234 237.5 265 265 265C287 265 306 246.5 317.5 218" stroke="#041822" stroke-width="4"/>
<path d="M316.5 419C302 430 284 436.5 265 436.5C220.5 436.5 184.5 403 179.5 360M337 397C345.5 383.5 350.5 367.5 350.5 350.5C350.5 345 350 339.5 349 334M179.5 343.5C183 299.5 220 265 265 265C301 265 332 287.5 344.5 319" stroke="#041822" stroke-width="7"/>
<path d="M207 423C217 461 239 487 265 487C290.5 487 312.5 461 323 423C324 418.5 325 414 326 409C327 405 327.5 400.5 328 396C328.5 389.5 329 383 329 376C329 369 328.5 362 328 355M202 396C201 389.5 201 383 201 376C201 359 203 342.5 207 328M325.5 339C316.5 296 292.5 265 265 265C243 265 224 283.5 212.5 312" stroke="#041822" stroke-width="4"/>
<path d="M419 213.5C430 228 436.5 246 436.5 265C436.5 309.5 403 345.5 360 350.5M397 193C383.5 184.5 367.5 179.5 350.5 179.5C345 179.5 339.5 180 334 181M343.5 350.5C299.5 347 265 310 265 265C265 229 287.5 198 319 185.5" stroke="#041822" stroke-width="4"/>
<path d="M423 323C461 313 487 291 487 265C487 239.5 461 217.5 423 207C418.5 206 414 205 409 204C405 203 400.5 202.5 396 202C389.5 201.5 383 201 376 201C369 201 362 201.5 355 202M396 328C389.5 329 383 329 376 329C359 329 342.5 327 328 323M339 204.5C296 213.5 265 237.5 265 265C265 287 283.5 306 312 317.5" stroke="#041822" stroke-width="7"/>
<path d="M111 316.5C100 302 93.5 284 93.5 265C93.5 220.5 127 184.5 170 179.5M133 337C146.5 345.5 162.5 350.5 179.5 350.5C185 350.5 190.5 350 196 349M186.5 179.5C230.5 183 265 220 265 265C265 301 242.5 332 211 344.5" stroke="#041822" stroke-width="4"/>
<path d="M107 207C69 217 43 239 43 265C43 290.5 69 312.5 107 323C111.5 324 116 325 121 326C125 327 129.5 327.5 134 328C140.5 328.5 147 329 154 329C161 329 168 328.5 175 328M134 202C140.5 201 147 201 154 201C171 201 187.5 203 202 207M191 325.5C234 316.5 265 292.5 265 265C265 243 246.5 224 218 212.5" stroke="#041822" stroke-width="7"/>
<circle cx="265.5" cy="265" r="21" fill="#041822"/>
</svg>
