<svg width="530" height="530" viewBox="0 0 530 530" fill="none" xmlns="http://www.w3.org/2000/svg">
<path d="M343 108H186.5C143 108 108 143 108 186.5V343C108 386.5 143 421.5 186.5 421.5H343C386.5 421.5 421.5 386.5 421.5 343V186.5C421.5 143 386.5 108 343 108Z" stroke="#041822" stroke-width="7" stroke-linecap="round" stroke-linejoin="round"/>
<path d="M265 166C260 166 256 162 256 157C256 152 260 148 265 148C270 148 274 152 274 157C274 162 270 166 265 166ZM274 185C274 180 270 176 265 176C260 176 256 180 256 185C256 190 260 194 265 194C270 194 274 190 274 185ZM246 187C244.5 182.5 239 180 234.5 181.5C230 183.5 227.5 188.5 229 193C231 198 236 200 240.5 198.5C245.5 197 248 191.5 246 187ZM220.5 198C217 194.5 211.5 194 208 197C204 200.5 203.5 206 206.5 209.5C210 213.5 215.5 214 219.5 211C223 207.5 223.5 202 220.5 198ZM200 217.5C196 215 190.5 216.5 188 221C185.5 225 187 230.5 191 233C195.5 235.5 201 234 203.5 230C206 225.5 204.5 220 200 217.5ZM187.5 242.5C183 241.5 178 245 177.5 250C176.5 255 179.5 259.5 184.5 260.5C189.5 261 194 258 195 253C196 248 192.5 243.5 187.5 242.5ZM184.5 270.5C179.5 271.5 176.5 276 177.5 281C178 285.5 183 289 187.5 288C192.5 287.5 196 282.5 195 277.5C194 273 189.5 269.5 184.5 270.5ZM191 297.5C187 300 185.5 305.5 188 310C190.5 314.5 196 315.5 200 313.5C204.5 311 206 305.5 203.5 301C201 296.5 195.5 295 191 297.5ZM206.5 321C203.5 325 204 330.5 208 333.5C211.5 337 217 336.5 220.5 332.5C223.5 329 223 323 219.5 320C215.5 316.5 210 317 206.5 321ZM229 337.5C227.5 342.5 230 347.5 234.5 349C239 351 244.5 348.5 246 344C248 339 245.5 334 240.5 332C236 330.5 231 333 229 337.5ZM256 345.5C256 350.5 260 354.5 265 354.5C270 354.5 274 350.5 274 345.5C274 340.5 270 336.5 265 336.5C260 336.5 256 340.5 256 345.5ZM284 344C285.5 348.5 291 351 295.5 349C300 347.5 302.5 342.5 301 337.5C299 333 294 330.5 289.5 332C284.5 334 282 339 284 344ZM309.5 332.5C313 336.5 318.5 337 322 333.5C326 330.5 326.5 325 323.5 321C320 317 314.5 316.5 310.5 320C307 323 306.5 329 309.5 332.5ZM330 313C334 315.5 339.5 314.5 342 310C344.5 305.5 343 300 339 297.5C334.5 295 329 296.5 326.5 301C324 305 325.5 311 330 313ZM342.5 288C347 289 352 286 352.5 281C353.5 276 350.5 271.5 345.5 270.5C340.5 269.5 336 273 335 277.5C334 282.5 337.5 287.5 342.5 288ZM345.5 260.5C350.5 259.5 353.5 255 352.5 250C352 245 347 241.5 342.5 242.5C337.5 243.5 334 248 335 253C336 258 340.5 261 345.5 260.5ZM339 233C343 230.5 344.5 225 342 221C339.5 216.5 334 215 330 217.5C325.5 220 324 225.5 326.5 230C329 234 334.5 235.5 339 233ZM323.5 209.5C326.5 206 326 200.5 322 197C318.5 194 313 194.5 309.5 198C306.5 202 307 207.5 310.5 211C314.5 214 320 213.5 323.5 209.5ZM301 193C302.5 188.5 300 183.5 295.5 181.5C291 180 285.5 182.5 284 187C282 191.5 284.5 197 289.5 198.5C294 200 299 198 301 193ZM274 212C274 207 270 203 265 203C260 203 256 207 256 212C256 217 260 221 265 221C270 221 274 217 274 212ZM246 214.5C243.5 210.5 238 209 234 211.5C229.5 213.5 228 219.5 230.5 223.5C233 228 238.5 229.5 243 227C247 224.5 248.5 219 246 214.5ZM223.5 231C219 228.5 213.5 230 211 234C208.5 238.5 210 244 214.5 246.5C218.5 249 224 247.5 226.5 243C229 239 227.5 233.5 223.5 231ZM211.5 256.5C206.5 256.5 202.5 260.5 202.5 265.5C202.5 270.5 206.5 274.5 211.5 274.5C216.5 274.5 220.5 270.5 220.5 265.5C220.5 260.5 216.5 256.5 211.5 256.5ZM214.5 284.5C210 287 208.5 292.5 211 296.5C213.5 301 219 302.5 223.5 300C227.5 297.5 229 292 226.5 287.5C224 283.5 218.5 282 214.5 284.5ZM230.5 307C228 311.5 229.5 317 234 319.5C238 322 243.5 320.5 246 316C248.5 312 247 306.5 243 304C238.5 301.5 233 303 230.5 307ZM256 319C256 324 260 328 265 328C270 328 274 324 274 319C274 314 270 310 265 310C260 310 256 314 256 319ZM284 316C286.5 320.5 292 322 296 319.5C300.5 317 302 311.5 299.5 307C297 303 291.5 301.5 287 304C283 306.5 281.5 312 284 316ZM306.5 300C311 302.5 316.5 301 319 296.5C321.5 292.5 320 287 315.5 284.5C311.5 282 306 283.5 303.5 287.5C301 292 302.5 297.5 306.5 300ZM318.5 274.5C323.5 274.5 327.5 270.5 327.5 265.5C327.5 260.5 323.5 256.5 318.5 256.5C313.5 256.5 309.5 260.5 309.5 265.5C309.5 270.5 313.5 274.5 318.5 274.5ZM315.5 246.5C320 244 321.5 238.5 319 234C316.5 230 311 228.5 306.5 231C302.5 233.5 301 239 303.5 243C306 247.5 311.5 249 315.5 246.5ZM299.5 223.5C302 219.5 300.5 214 296 211.5C292 209 286.5 210.5 284 214.5C281.5 219 283 224.5 287 227C291.5 229.5 297 228 299.5 223.5ZM274 238.5C274 233.5 270 229.5 265 229.5C260 229.5 256 233.5 256 238.5C256 243.5 260 247.5 265 247.5C270 247.5 274 243.5 274 238.5ZM246.5 244C242 241.5 236.5 243 234 247.5C231.5 252 233 257.5 237.5 260C241.5 262.5 247 261 249.5 256.5C252 252 250.5 246.5 246.5 244ZM237.5 271C233 273.5 231.5 279 234 283C236.5 287.5 242 289 246.5 286.5C250.5 284 252 278.5 249.5 274C247 270 241.5 268.5 237.5 271ZM256 292C256 297 260 301 265 301C270 301 274 297 274 292C274 287 270 283 265 283C260 283 256 287 256 292ZM283.5 286.5C288 289 293.5 287.5 296 283C298.5 279 297 273.5 292.5 271C288.5 268.5 283 270 280.5 274C278 278.5 279.5 284 283.5 286.5ZM292.5 260C297 257.5 298.5 252 296 247.5C293.5 243 288 241.5 283.5 244C279.5 246.5 278 252 280.5 256.5C283 261 288.5 262.5 292.5 260ZM274 265.5C274 260.5 270 256.5 265 256.5C260 256.5 256 260.5 256 265.5C256 270.5 260 274.5 265 274.5C270 274.5 274 270.5 274 265.5ZM265 166C260 166 256 162 256 157C256 152 260 148 265 148C270 148 274 152 274 157C274 162 270 166 265 166ZM242 168.5C237.5 170 232.5 167 231.5 162C230 157 233 152.5 238 151C243 150 247.5 153 249 158C250 162.5 247 167.5 242 168.5ZM242 168.5C237.5 170 232.5 167 231.5 162C230 157 233 152.5 238 151C243 150 247.5 153 249 158C250 162.5 247 167.5 242 168.5ZM220.5 176.5C216 179 210.5 177 208.5 172.5C206 168 208 162.5 212.5 160.5C217 158.5 222.5 160 224.5 164.5C226.5 169 225 174.5 220.5 176.5ZM220.5 176.5C216 179 210.5 177 208.5 172.5C206 168 208 162.5 212.5 160.5C217 158.5 222.5 160 224.5 164.5C226.5 169 225 174.5 220.5 176.5ZM201 189.5C197.5 192.5 192 192 188.5 188C185.5 184.5 186 178.5 189.5 175.5C193.5 172.5 199 173 202.5 176.5C205.5 180.5 205 186 201 189.5ZM201 189.5C197.5 192.5 192 192 188.5 188C185.5 184.5 186 178.5 189.5 175.5C193.5 172.5 199 173 202.5 176.5C205.5 180.5 205 186 201 189.5ZM185.5 206C182.5 210 177 211 173 208C169 205 168 199.5 171 195.5C174 191.5 179.5 190.5 183.5 193.5C187.5 196.5 188.5 202 185.5 206ZM185.5 206C182.5 210 177 211 173 208C169 205 168 199.5 171 195.5C174 191.5 179.5 190.5 183.5 193.5C187.5 196.5 188.5 202 185.5 206ZM174 226C172 230.5 166.5 232.5 162 230.5C157.5 228.5 155.5 223.5 157.5 219C159.5 214.5 164.5 212 169 214C174 216 176 221.5 174 226ZM174 226C172 230.5 166.5 232.5 162 230.5C157.5 228.5 155.5 223.5 157.5 219C159.5 214.5 164.5 212 169 214C174 216 176 221.5 174 226ZM167.5 248C166.5 253 162 256.5 157 255.5C152 254.5 148.5 250 149.5 245C150.5 240 155 237 160 237.5C165 238.5 168 243 167.5 248ZM167.5 248C166.5 253 162 256.5 157 255.5C152 254.5 148.5 250 149.5 245C150.5 240 155 237 160 237.5C165 238.5 168 243 167.5 248ZM166 271C166.5 276 162.5 280.5 157.5 280.5C152.5 281 148.5 277 148 272C147.5 267 151.5 263 156.5 262.5C161.5 262.5 165.5 266 166 271ZM166 271C166.5 276 162.5 280.5 157.5 280.5C152.5 281 148.5 277 148 272C147.5 267 151.5 263 156.5 262.5C161.5 262.5 165.5 266 166 271ZM170 294C171.5 298.5 168.5 303.5 164 305C159 306.5 154 304 152.5 299C151.5 294.5 154 289.5 159 288C163.5 286.5 168.5 289 170 294ZM170 294C171.5 298.5 168.5 303.5 164 305C159 306.5 154 304 152.5 299C151.5 294.5 154 289.5 159 288C163.5 286.5 168.5 289 170 294ZM179 315C181.5 319.5 180 325 176 327.5C171.5 330 166 328.5 163.5 324C161 320 162.5 314 167 312C171 309.5 176.5 310.5 179 315ZM179 315C181.5 319.5 180 325 176 327.5C171.5 330 166 328.5 163.5 324C161 320 162.5 314 167 312C171 309.5 176.5 310.5 179 315ZM193 333.5C196 337 196 343 192.5 346.5C189 349.5 183 349.5 179.5 346C176.5 342.5 176.5 336.5 180 333C183.5 330 189.5 330 193 333.5ZM193 333.5C196 337 196 343 192.5 346.5C189 349.5 183 349.5 179.5 346C176.5 342.5 176.5 336.5 180 333C183.5 330 189.5 330 193 333.5ZM210.5 348.5C214.5 351 216 356.5 213 361C210.5 365 205 366 200.5 363.5C196.5 360.5 195.5 355 198 351C201 347 206.5 345.5 210.5 348.5ZM210.5 348.5C214.5 351 216 356.5 213 361C210.5 365 205 366 200.5 363.5C196.5 360.5 195.5 355 198 351C201 347 206.5 345.5 210.5 348.5ZM231 358.5C235.5 360.5 238 365.5 236.5 370.5C234.5 375 229.5 377.5 225 375.5C220.5 374 218 369 219.5 364C221 359.5 226.5 357 231 358.5ZM231 358.5C235.5 360.5 238 365.5 236.5 370.5C234.5 375 229.5 377.5 225 375.5C220.5 374 218 369 219.5 364C221 359.5 226.5 357 231 358.5ZM253.5 364C258.5 364.5 262 369 261.5 374C261 379 256.5 382.5 251.5 382C246.5 381.5 243 377 243.5 372C244 367 248.5 363.5 253.5 364ZM253.5 364C258.5 364.5 262 369 261.5 374C261 379 256.5 382.5 251.5 382C246.5 381.5 243 377 243.5 372C244 367 248.5 363.5 253.5 364ZM276.5 364C281.5 363.5 286 367 286.5 372C287 377 283.5 381.5 278.5 382C273.5 382.5 269 379 268.5 374C268 369 271.5 364.5 276.5 364ZM276.5 364C281.5 363.5 286 367 286.5 372C287 377 283.5 381.5 278.5 382C273.5 382.5 269 379 268.5 374C268 369 271.5 364.5 276.5 364ZM299 358.5C303.5 357 309 359.5 310.5 364C312 369 310 374 305 375.5C300.5 377.5 295.5 375 293.5 370.5C292 365.5 294.5 360.5 299 358.5ZM299 358.5C303.5 357 309 359.5 310.5 364C312 369 310 374 305 375.5C300.5 377.5 295.5 375 293.5 370.5C292 365.5 294.5 360.5 299 358.5ZM319.5 348.5C323.5 345.5 329 347 332 351C334.5 355 333.5 360.5 329.5 363.5C325 366 319.5 365 317 361C314 356.5 315.5 351 319.5 348.5ZM319.5 348.5C323.5 345.5 329 347 332 351C334.5 355 333.5 360.5 329.5 363.5C325 366 319.5 365 317 361C314 356.5 315.5 351 319.5 348.5ZM337 333.5C340.5 330 346 330 350 333C353.5 336.5 353.5 342.5 350 346C347 349.5 341 349.5 337.5 346.5C334 343 333.5 337 337 333.5ZM337 333.5C340.5 330 346 330 350 333C353.5 336.5 353.5 342.5 350 346C347 349.5 341 349.5 337.5 346.5C334 343 333.5 337 337 333.5ZM351 315C353.5 311 359 309.5 363 312C367.5 314 369 319.5 366.5 324C364 328.5 358.5 330 354 327.5C350 325 348.5 319.5 351 315ZM351 315C353.5 311 359 309.5 363 312C367.5 314 369 319.5 366.5 324C364 328.5 358.5 330 354 327.5C350 325 348.5 319.5 351 315ZM360 294C361.5 289 366.5 286.5 371 288C376 289.5 378.5 294.5 377 299C376 304 371 306.5 366 305C361.5 303.5 358.5 298.5 360 294ZM360 294C361.5 289 366.5 286.5 371 288C376 289.5 378.5 294.5 377 299C376 304 371 306.5 366 305C361.5 303.5 358.5 298.5 360 294ZM364 271C364.5 266 368.5 262.5 373.5 262.5C378.5 263 382.5 267 382 272C381.5 277 377.5 281 372.5 280.5C367.5 280.5 363.5 276 364 271ZM364 271C364.5 266 368.5 262.5 373.5 262.5C378.5 263 382.5 267 382 272C381.5 277 377.5 281 372.5 280.5C367.5 280.5 363.5 276 364 271ZM362.5 248C362 243 365 238.5 370 237.5C375 237 379.5 240 380.5 245C381 250 378 254.5 373 255.5C368 256.5 363.5 253 362.5 248ZM362.5 248C362 243 365 238.5 370 237.5C375 237 379.5 240 380.5 245C381 250 378 254.5 373 255.5C368 256.5 363.5 253 362.5 248ZM356 226C354 221.5 356 216 361 214C365.5 212 370.5 214.5 372.5 219C374.5 223.5 372.5 228.5 368 230.5C363.5 232.5 358 230.5 356 226ZM356 226C354 221.5 356 216 361 214C365.5 212 370.5 214.5 372.5 219C374.5 223.5 372.5 228.5 368 230.5C363.5 232.5 358 230.5 356 226ZM344.5 206C341.5 202 342.5 196.5 346.5 193.5C350.5 190.5 356 191.5 359 195.5C362 199.5 361 205 357 208C353 211 347.5 210 344.5 206ZM344.5 206C341.5 202 342.5 196.5 346.5 193.5C350.5 190.5 356 191.5 359 195.5C362 199.5 361 205 357 208C353 211 347.5 210 344.5 206ZM329 189.5C325 186 324.5 180.5 327.5 176.5C331 173 336.5 172.5 340.5 175.5C344 178.5 344.5 184.5 341.5 188C338 192 332.5 192.5 329 189.5ZM329 189.5C325 186 324.5 180.5 327.5 176.5C331 173 336.5 172.5 340.5 175.5C344 178.5 344.5 184.5 341.5 188C338 192 332.5 192.5 329 189.5ZM309.5 176.5C305 174.5 303.5 169 305.5 164.5C308 160 313 158.5 317.5 160.5C322 162.5 324 168 321.5 172.5C319.5 177 314 179 309.5 176.5ZM309.5 176.5C305 174.5 303.5 169 305.5 164.5C308 160 313 158.5 317.5 160.5C322 162.5 324 168 321.5 172.5C319.5 177 314 179 309.5 176.5ZM288 168.5C283 167.5 280 162.5 281 158C282.5 153 287 150 292 151C297 152.5 300 157 298.5 162C297.5 167 292.5 170 288 168.5ZM288 168.5C283 167.5 280 162.5 281 158C282.5 153 287 150 292 151C297 152.5 300 157 298.5 162C297.5 167 292.5 170 288 168.5ZM274 185C274 180 270 176 265 176C260 176 256 180 256 185C256 190 260 194 265 194C270 194 274 190 274 185ZM246 187C244.5 182.5 239 180 234.5 181.5C230 183.5 227.5 188.5 229 193C231 198 236 200 240.5 198.5C245.5 197 248 191.5 246 187ZM220.5 198C217 194.5 211.5 194 208 197C204 200.5 203.5 206 206.5 209.5C210 213.5 215.5 214 219.5 211C223 207.5 223.5 202 220.5 198ZM200 217.5C196 215 190.5 216.5 188 221C185.5 225 187 230.5 191 233C195.5 235.5 201 234 203.5 230C206 225.5 204.5 220 200 217.5ZM187.5 242.5C183 241.5 178 245 177.5 250C176.5 255 179.5 259.5 184.5 260.5C189.5 261 194 258 195 253C196 248 192.5 243.5 187.5 242.5ZM184.5 270.5C179.5 271.5 176.5 276 177.5 281C178 285.5 183 289 187.5 288C192.5 287.5 196 282.5 195 277.5C194 273 189.5 269.5 184.5 270.5ZM191 297.5C187 300 185.5 305.5 188 310C190.5 314.5 196 315.5 200 313.5C204.5 311 206 305.5 203.5 301C201 296.5 195.5 295 191 297.5ZM206.5 321C203.5 325 204 330.5 208 333.5C211.5 337 217 336.5 220.5 332.5C223.5 329 223 323 219.5 320C215.5 316.5 210 317 206.5 321ZM229 337.5C227.5 342.5 230 347.5 234.5 349C239 351 244.5 348.5 246 344C248 339 245.5 334 240.5 332C236 330.5 231 333 229 337.5ZM256 345.5C256 350.5 260 354.5 265 354.5C270 354.5 274 350.5 274 345.5C274 340.5 270 336.5 265 336.5C260 336.5 256 340.5 256 345.5ZM284 344C285.5 348.5 291 351 295.5 349C300 347.5 302.5 342.5 301 337.5C299 333 294 330.5 289.5 332C284.5 334 282 339 284 344ZM309.5 332.5C313 336.5 318.5 337 322 333.5C326 330.5 326.5 325 323.5 321C320 317 314.5 316.5 310.5 320C307 323 306.5 329 309.5 332.5ZM330 313C334 315.5 339.5 314.5 342 310C344.5 305.5 343 300 339 297.5C334.5 295 329 296.5 326.5 301C324 305 325.5 311 330 313ZM342.5 288C347 289 352 286 352.5 281C353.5 276 350.5 271.5 345.5 270.5C340.5 269.5 336 273 335 277.5C334 282.5 337.5 287.5 342.5 288ZM345.5 260.5C350.5 259.5 353.5 255 352.5 250C352 245 347 241.5 342.5 242.5C337.5 243.5 334 248 335 253C336 258 340.5 261 345.5 260.5ZM339 233C343 230.5 344.5 225 342 221C339.5 216.5 334 215 330 217.5C325.5 220 324 225.5 326.5 230C329 234 334.5 235.5 339 233ZM323.5 209.5C326.5 206 326 200.5 322 197C318.5 194 313 194.5 309.5 198C306.5 202 307 207.5 310.5 211C314.5 214 320 213.5 323.5 209.5ZM301 193C302.5 188.5 300 183.5 295.5 181.5C291 180 285.5 182.5 284 187C282 191.5 284.5 197 289.5 198.5C294 200 299 198 301 193ZM274 212C274 207 270 203 265 203C260 203 256 207 256 212C256 217 260 221 265 221C270 221 274 217 274 212ZM246 214.5C243.5 210.5 238 209 234 211.5C229.5 213.5 228 219.5 230.5 223.5C233 228 238.5 229.5 243 227C247 224.5 248.5 219 246 214.5ZM223.5 231C219 228.5 213.5 230 211 234C208.5 238.5 210 244 214.5 246.5C218.5 249 224 247.5 226.5 243C229 239 227.5 233.5 223.5 231ZM211.5 256.5C206.5 256.5 202.5 260.5 202.5 265.5C202.5 270.5 206.5 274.5 211.5 274.5C216.5 274.5 220.5 270.5 220.5 265.5C220.5 260.5 216.5 256.5 211.5 256.5ZM214.5 284.5C210 287 208.5 292.5 211 296.5C213.5 301 219 302.5 223.5 300C227.5 297.5 229 292 226.5 287.5C224 283.5 218.5 282 214.5 284.5ZM230.5 307C228 311.5 229.5 317 234 319.5C238 322 243.5 320.5 246 316C248.5 312 247 306.5 243 304C238.5 301.5 233 303 230.5 307ZM256 319C256 324 260 328 265 328C270 328 274 324 274 319C274 314 270 310 265 310C260 310 256 314 256 319ZM284 316C286.5 320.5 292 322 296 319.5C300.5 317 302 311.5 299.5 307C297 303 291.5 301.5 287 304C283 306.5 281.5 312 284 316ZM306.5 300C311 302.5 316.5 301 319 296.5C321.5 292.5 320 287 315.5 284.5C311.5 282 306 283.5 303.5 287.5C301 292 302.5 297.5 306.5 300ZM318.5 274.5C323.5 274.5 327.5 270.5 327.5 265.5C327.5 260.5 323.5 256.5 318.5 256.5C313.5 256.5 309.5 260.5 309.5 265.5C309.5 270.5 313.5 274.5 318.5 274.5ZM315.5 246.5C320 244 321.5 238.5 319 234C316.5 230 311 228.5 306.5 231C302.5 233.5 301 239 303.5 243C306 247.5 311.5 249 315.5 246.5ZM299.5 223.5C302 219.5 300.5 214 296 211.5C292 209 286.5 210.5 284 214.5C281.5 219 283 224.5 287 227C291.5 229.5 297 228 299.5 223.5ZM274 238.5C274 233.5 270 229.5 265 229.5C260 229.5 256 233.5 256 238.5C256 243.5 260 247.5 265 247.5C270 247.5 274 243.5 274 238.5ZM246.5 244C242 241.5 236.5 243 234 247.5C231.5 252 233 257.5 237.5 260C241.5 262.5 247 261 249.5 256.5C252 252 250.5 246.5 246.5 244ZM237.5 271C233 273.5 231.5 279 234 283C236.5 287.5 242 289 246.5 286.5C250.5 284 252 278.5 249.5 274C247 270 241.5 268.5 237.5 271ZM256 292C256 297 260 301 265 301C270 301 274 297 274 292C274 287 270 283 265 283C260 283 256 287 256 292ZM283.5 286.5C288 289 293.5 287.5 296 283C298.5 279 297 273.5 292.5 271C288.5 268.5 283 270 280.5 274C278 278.5 279.5 284 283.5 286.5ZM292.5 260C297 257.5 298.5 252 296 247.5C293.5 243 288 241.5 283.5 244C279.5 246.5 278 252 280.5 256.5C283 261 288.5 262.5 292.5 260ZM274 265.5C274 260.5 270 256.5 265 256.5C260 256.5 256 260.5 256 265.5C256 270.5 260 274.5 265 274.5C270 274.5 274 270.5 274 265.5Z" fill="#041822"/>
<path d="M265 166C260 166 256 162 256 157C256 152 260 148 265 148C270 148 274 152 274 157C274 162 270 166 265 166ZM274 185C274 180 270 176 265 176C260 176 256 180 256 185C256 190 260 194 265 194C270 194 274 190 274 185ZM246 187C244.5 182.5 239 180 234.5 181.5C230 183.5 227.5 188.5 229 193C231 198 236 200 240.5 198.5C245.5 197 248 191.5 246 187ZM220.5 198C217 194.5 211.5 194 208 197C204 200.5 203.5 206 206.5 209.5C210 213.5 215.5 214 219.5 211C223 207.5 223.5 202 220.5 198ZM200 217.5C196 215 190.5 216.5 188 221C185.5 225 187 230.5 191 233C195.5 235.5 201 234 203.5 230C206 225.5 204.5 220 200 217.5ZM187.5 242.5C183 241.5 178 245 177.5 250C176.5 255 179.5 259.5 184.5 260.5C189.5 261 194 258 195 253C196 248 192.5 243.5 187.5 242.5ZM184.5 270.5C179.5 271.5 176.5 276 177.5 281C178 285.5 183 289 187.5 288C192.5 287.5 196 282.5 195 277.5C194 273 189.5 269.5 184.5 270.5ZM191 297.5C187 300 185.5 305.5 188 310C190.5 314.5 196 315.5 200 313.5C204.5 311 206 305.5 203.5 301C201 296.5 195.5 295 191 297.5ZM206.5 321C203.5 325 204 330.5 208 333.5C211.5 337 217 336.5 220.5 332.5C223.5 329 223 323 219.5 320C215.5 316.5 210 317 206.5 321ZM229 337.5C227.5 342.5 230 347.5 234.5 349C239 351 244.5 348.5 246 344C248 339 245.5 334 240.5 332C236 330.5 231 333 229 337.5ZM256 345.5C256 350.5 260 354.5 265 354.5C270 354.5 274 350.5 274 345.5C274 340.5 270 336.5 265 336.5C260 336.5 256 340.5 256 345.5ZM284 344C285.5 348.5 291 351 295.5 349C300 347.5 302.5 342.5 301 337.5C299 333 294 330.5 289.5 332C284.5 334 282 339 284 344ZM309.5 332.5C313 336.5 318.5 337 322 333.5C326 330.5 326.5 325 323.5 321C320 317 314.5 316.5 310.5 320C307 323 306.5 329 309.5 332.5ZM330 313C334 315.5 339.5 314.5 342 310C344.5 305.5 343 300 339 297.5C334.5 295 329 296.5 326.5 301C324 305 325.5 311 330 313ZM342.5 288C347 289 352 286 352.5 281C353.5 276 350.5 271.5 345.5 270.5C340.5 269.5 336 273 335 277.5C334 282.5 337.5 287.5 342.5 288ZM345.5 260.5C350.5 259.5 353.5 255 352.5 250C352 245 347 241.5 342.5 242.5C337.5 243.5 334 248 335 253C336 258 340.5 261 345.5 260.5ZM339 233C343 230.5 344.5 225 342 221C339.5 216.5 334 215 330 217.5C325.5 220 324 225.5 326.5 230C329 234 334.5 235.5 339 233ZM323.5 209.5C326.5 206 326 200.5 322 197C318.5 194 313 194.5 309.5 198C306.5 202 307 207.5 310.5 211C314.5 214 320 213.5 323.5 209.5ZM301 193C302.5 188.5 300 183.5 295.5 181.5C291 180 285.5 182.5 284 187C282 191.5 284.5 197 289.5 198.5C294 200 299 198 301 193ZM274 212C274 207 270 203 265 203C260 203 256 207 256 212C256 217 260 221 265 221C270 221 274 217 274 212ZM246 214.5C243.5 210.5 238 209 234 211.5C229.5 213.5 228 219.5 230.5 223.5C233 228 238.5 229.5 243 227C247 224.5 248.5 219 246 214.5ZM223.5 231C219 228.5 213.5 230 211 234C208.5 238.5 210 244 214.5 246.5C218.5 249 224 247.5 226.5 243C229 239 227.5 233.5 223.5 231ZM211.5 256.5C206.5 256.5 202.5 260.5 202.5 265.5C202.5 270.5 206.5 274.5 211.5 274.5C216.5 274.5 220.5 270.5 220.5 265.5C220.5 260.5 216.5 256.5 211.5 256.5ZM214.5 284.5C210 287 208.5 292.5 211 296.5C213.5 301 219 302.5 223.5 300C227.5 297.5 229 292 226.5 287.5C224 283.5 218.5 282 214.5 284.5ZM230.5 307C228 311.5 229.5 317 234 319.5C238 322 243.5 320.5 246 316C248.5 312 247 306.5 243 304C238.5 301.5 233 303 230.5 307ZM256 319C256 324 260 328 265 328C270 328 274 324 274 319C274 314 270 310 265 310C260 310 256 314 256 319ZM284 316C286.5 320.5 292 322 296 319.5C300.5 317 302 311.5 299.5 307C297 303 291.5 301.5 287 304C283 306.5 281.5 312 284 316ZM306.5 300C311 302.5 316.5 301 319 296.5C321.5 292.5 320 287 315.5 284.5C311.5 282 306 283.5 303.5 287.5C301 292 302.5 297.5 306.5 300ZM318.5 274.5C323.5 274.5 327.5 270.5 327.5 265.5C327.5 260.5 323.5 256.5 318.5 256.5C313.5 256.5 309.5 260.5 309.5 265.5C309.5 270.5 313.5 274.5 318.5 274.5ZM315.5 246.5C320 244 321.5 238.5 319 234C316.5 230 311 228.5 306.5 231C302.5 233.5 301 239 303.5 243C306 247.5 311.5 249 315.5 246.5ZM299.5 223.5C302 219.5 300.5 214 296 211.5C292 209 286.5 210.5 284 214.5C281.5 219 283 224.5 287 227C291.5 229.5 297 228 299.5 223.5ZM274 238.5C274 233.5 270 229.5 265 229.5C260 229.5 256 233.5 256 238.5C256 243.5 260 247.5 265 247.5C270 247.5 274 243.5 274 238.5ZM246.5 244C242 241.5 236.5 243 234 247.5C231.5 252 233 257.5 237.5 260C241.5 262.5 247 261 249.5 256.5C252 252 250.5 246.5 246.5 244ZM237.5 271C233 273.5 231.5 279 234 283C236.5 287.5 242 289 246.5 286.5C250.5 284 252 278.5 249.5 274C247 270 241.5 268.5 237.5 271ZM256 292C256 297 260 301 265 301C270 301 274 297 274 292C274 287 270 283 265 283C260 283 256 287 256 292ZM283.5 286.5C288 289 293.5 287.5 296 283C298.5 279 297 273.5 292.5 271C288.5 268.5 283 270 280.5 274C278 278.5 279.5 284 283.5 286.5ZM292.5 260C297 257.5 298.5 252 296 247.5C293.5 243 288 241.5 283.5 244C279.5 246.5 278 252 280.5 256.5C283 261 288.5 262.5 292.5 260ZM274 265.5C274 260.5 270 256.5 265 256.5C260 256.5 256 260.5 256 265.5C256 270.5 260 274.5 265 274.5C270 274.5 274 270.5 274 265.5ZM242 168.5C237.5 170 232.5 167 231.5 162C230 157 233 152.5 238 151C243 150 247.5 153 249 158C250 162.5 247 167.5 242 168.5ZM220.5 176.5C216 179 210.5 177 208.5 172.5C206 168 208 162.5 212.5 160.5C217 158.5 222.5 160 224.5 164.5C226.5 169 225 174.5 220.5 176.5ZM201 189.5C197.5 192.5 192 192 188.5 188C185.5 184.5 186 178.5 189.5 175.5C193.5 172.5 199 173 202.5 176.5C205.5 180.5 205 186 201 189.5ZM185.5 206C182.5 210 177 211 173 208C169 205 168 199.5 171 195.5C174 191.5 179.5 190.5 183.5 193.5C187.5 196.5 188.5 202 185.5 206ZM174 226C172 230.5 166.5 232.5 162 230.5C157.5 228.5 155.5 223.5 157.5 219C159.5 214.5 164.5 212 169 214C174 216 176 221.5 174 226ZM167.5 248C166.5 253 162 256.5 157 255.5C152 254.5 148.5 250 149.5 245C150.5 240 155 237 160 237.5C165 238.5 168 243 167.5 248ZM166 271C166.5 276 162.5 280.5 157.5 280.5C152.5 281 148.5 277 148 272C147.5 267 151.5 263 156.5 262.5C161.5 262.5 165.5 266 166 271ZM170 294C171.5 298.5 168.5 303.5 164 305C159 306.5 154 304 152.5 299C151.5 294.5 154 289.5 159 288C163.5 286.5 168.5 289 170 294ZM179 315C181.5 319.5 180 325 176 327.5C171.5 330 166 328.5 163.5 324C161 320 162.5 314 167 312C171 309.5 176.5 310.5 179 315ZM193 333.5C196 337 196 343 192.5 346.5C189 349.5 183 349.5 179.5 346C176.5 342.5 176.5 336.5 180 333C183.5 330 189.5 330 193 333.5ZM210.5 348.5C214.5 351 216 356.5 213 361C210.5 365 205 366 200.5 363.5C196.5 360.5 195.5 355 198 351C201 347 206.5 345.5 210.5 348.5ZM231 358.5C235.5 360.5 238 365.5 236.5 370.5C234.5 375 229.5 377.5 225 375.5C220.5 374 218 369 219.5 364C221 359.5 226.5 357 231 358.5ZM253.5 364C258.5 364.5 262 369 261.5 374C261 379 256.5 382.5 251.5 382C246.5 381.5 243 377 243.5 372C244 367 248.5 363.5 253.5 364ZM276.5 364C281.5 363.5 286 367 286.5 372C287 377 283.5 381.5 278.5 382C273.5 382.5 269 379 268.5 374C268 369 271.5 364.5 276.5 364ZM299 358.5C303.5 357 309 359.5 310.5 364C312 369 310 374 305 375.5C300.5 377.5 295.5 375 293.5 370.5C292 365.5 294.5 360.5 299 358.5ZM319.5 348.5C323.5 345.5 329 347 332 351C334.5 355 333.5 360.5 329.5 363.5C325 366 319.5 365 317 361C314 356.5 315.5 351 319.5 348.5ZM337 333.5C340.5 330 346 330 350 333C353.5 336.5 353.5 342.5 350 346C347 349.5 341 349.5 337.5 346.5C334 343 333.5 337 337 333.5ZM351 315C353.5 311 359 309.5 363 312C367.5 314 369 319.5 366.5 324C364 328.5 358.5 330 354 327.5C350 325 348.5 319.5 351 315ZM360 294C361.5 289 366.5 286.5 371 288C376 289.5 378.5 294.5 377 299C376 304 371 306.5 366 305C361.5 303.5 358.5 298.5 360 294ZM364 271C364.5 266 368.5 262.5 373.5 262.5C378.5 263 382.5 267 382 272C381.5 277 377.5 281 372.5 280.5C367.5 280.5 363.5 276 364 271ZM362.5 248C362 243 365 238.5 370 237.5C375 237 379.5 240 380.5 245C381 250 378 254.5 373 255.5C368 256.5 363.5 253 362.5 248ZM356 226C354 221.5 356 216 361 214C365.5 212 370.5 214.5 372.5 219C374.5 223.5 372.5 228.5 368 230.5C363.5 232.5 358 230.5 356 226ZM344.5 206C341.5 202 342.5 196.5 346.5 193.5C350.5 190.5 356 191.5 359 195.5C362 199.5 361 205 357 208C353 211 347.5 210 344.5 206ZM329 189.5C325 186 324.5 180.5 327.5 176.5C331 173 336.5 172.5 340.5 175.5C344 178.5 344.5 184.5 341.5 188C338 192 332.5 192.5 329 189.5ZM309.5 176.5C305 174.5 303.5 169 305.5 164.5C308 160 313 158.5 317.5 160.5C322 162.5 324 168 321.5 172.5C319.5 177 314 179 309.5 176.5ZM288 168.5C283 167.5 280 162.5 281 158C282.5 153 287 150 292 151C297 152.5 300 157 298.5 162C297.5 167 292.5 170 288 168.5Z" stroke="#041822"/>
</svg>
