<svg width="530" height="530" viewBox="0 0 530 530" fill="none" xmlns="http://www.w3.org/2000/svg">
<circle cx="266" cy="264" r="196.5" stroke="#041822" stroke-width="7"/>
<path d="M406 128.5C406 151 343.5 169 266 169C188.5 169 126 151 126 128.5" stroke="#041822" stroke-width="7"/>
<path d="M426 374C426 400.5 354.5 422 266 422C177.5 422 106 400.5 106 374" stroke="#041822" stroke-width="7"/>
<path d="M462 252C462 283.5 374 309 266 309C158 309 70 283.5 70 252" stroke="#041822" stroke-width="7"/>
<path d="M319.5 264C319.5 319 313 368.5 303 404.5C297.5 422.5 291.5 436.5 285 446.5C278.5 456 271.5 460.5 265.5 460.5C259.5 460.5 252.5 456 246 446.5C239.5 436.5 233.5 422.5 228 404.5C218 368.5 211.5 319 211.5 264C211.5 209 218 159.5 228 123.5C233.5 105.5 239.5 91.5 246 81.5C252.5 72 259.5 67.5 265.5 67.5C271.5 67.5 278.5 72 285 81.5C291.5 91.5 297.5 105.5 303 123.5C313 159.5 319.5 209 319.5 264Z" stroke="#041822" stroke-width="7"/>
<path d="M402.5 264C402.5 318.5 387 368 361.5 403.5C336.5 439 302 460.5 264.5 460.5C227 460.5 192.5 439 167.5 403.5C142 368 126.5 318.5 126.5 264C126.5 209.5 142 160 167.5 124.5C192.5 89 227 67.5 264.5 67.5C302 67.5 336.5 89 361.5 124.5C387 160 402.5 209.5 402.5 264Z" stroke="#041822" stroke-width="7"/>
</svg>
