<svg width="530" height="530" viewBox="0 0 530 530" fill="none" xmlns="http://www.w3.org/2000/svg">
<path d="M343 108H186.5C143 108 108 143 108 186.5V343C108 386.5 143 421.5 186.5 421.5H343C386.5 421.5 421.5 386.5 421.5 343V186.5C421.5 143 386.5 108 343 108Z" stroke="#041822" stroke-width="7" stroke-linecap="round" stroke-linejoin="round"/>
<path d="M327.5 255C329.5 268 327 281 321 293C315 304.5 305.5 314 293.5 320C281.5 326 268.5 328 255.5 326C242.5 324 230.5 317.5 221 308.5C211.5 299 205.5 287 203.5 274C201.5 261 203.5 247.5 209.5 236C215.5 224 225 214.5 236.5 208.5C248 202.5 261.5 200 274.5 202C288 204 300 210 309.5 219.5C319 229 325.5 241.5 327.5 255Z" stroke="#041822" stroke-width="7" stroke-linecap="round" stroke-linejoin="round"/>
<circle cx="351" cy="179" r="9.5" stroke="#041822" stroke-width="7"/>
</svg>
