<svg width="530" height="530" viewBox="0 0 530 530" fill="none" xmlns="http://www.w3.org/2000/svg">
<rect x="191.5" y="67.5" width="146" height="249" rx="73" stroke="#041822" stroke-width="7"/>
<path d="M163 257.5C163 313.5 208.5 359 264.5 359C320.5 359 366 313.5 366 257.5" stroke="#041822" stroke-width="4"/>
<path d="M265 361V467.5" stroke="#041822" stroke-width="7"/>
<path d="M433.5 256C436.5 351.5 362 431.5 266.5 434.5M95 212C110.5 159 151.5 116 204.5 98" stroke="#041822" stroke-width="2"/>
<path d="M163.5 442.5C63 387.5 26.5 262 81.5 162M415 121C459.5 170 478.5 238 465 303" stroke="#041822" stroke-width="2"/>
<path d="M338 171C338 182.5 305 192 264.5 192C224 192 191 182.5 191 171" stroke="#041822" stroke-width="4"/>
<path d="M338 211C338 222.5 305 232 264.5 232C224 232 191 222.5 191 211" stroke="#041822" stroke-width="4"/>
<path d="M372 257H360.5C357.5 257 355 248.5 355 238C355 227.5 357.5 219 360.5 219H372" stroke="#041822" stroke-width="4"/>
<path d="M377 228.5C376 223 374 219 372.5 219C369.5 219 367 227.5 367 238C367 248.5 369.5 257 372.5 257C374.5 257 376 252.5 377 246.5" stroke="#041822" stroke-width="4"/>
<path d="M174 228.5C173 223 171 219 169.5 219C166.5 219 164 227.5 164 238C164 248.5 166.5 257 169.5 257C171.5 257 173 252.5 174 246.5" stroke="#041822" stroke-width="4"/>
<ellipse cx="381.5" cy="237.5" rx="2.5" ry="9.5" stroke="#041822" stroke-width="4"/>
<path d="M172.5 247C171 247 170 242.5 170 237.5C170 232.5 171 228 172.5 228" stroke="#041822" stroke-width="4"/>
<path d="M335.5 247C334 247 333 242.5 333 237.5C333 232.5 334 228 335.5 228" stroke="#041822" stroke-width="4"/>
<path d="M372 257H360.5C357.5 257 355 248.5 355 238C355 227.5 357.5 219 360.5 219H372" stroke="#041822" stroke-width="4"/>
<path d="M382 247H376C374.5 247 373 242.5 373 237.5C373 232.5 374.5 228 376 228H382" stroke="#041822" stroke-width="4"/>
<path d="M152 247H146C144.5 247 143 242.5 143 237.5C143 232.5 144.5 228 146 228H152" stroke="#041822" stroke-width="4"/>
<path d="M169 257L157.5 257C154.5 257 152 248.5 152 238C152 227.5 154.5 219 157.5 219L169 219" stroke="#041822" stroke-width="4"/>
<path d="M172 229H191V246H172" stroke="#041822" stroke-width="4"/>
<path d="M357 246L334 246M334 229L357 229" stroke="#041822" stroke-width="4"/>
<path d="M261 466C287 466 310 467.5 327 470C335.5 471.5 342 473 346.5 474.5C349 475.5 350.5 476.5 351.5 477C351.5 477 352 477.5 352 477.5C352 477.5 351.5 478 351.5 478C350.5 478.5 349 479.5 346.5 480.5C342 482 335.5 483.5 327 485C310 487.5 287 489 261 489C235 489 212 487.5 195 485C186.5 483.5 180 482 175.5 480.5C173 479.5 171.5 478.5 170.5 478C170.5 478 170 477.5 170 477.5C170 477.5 170.5 477 170.5 477C171.5 476.5 173 475.5 175.5 474.5C180 473 186.5 471.5 195 470C212 467.5 235 466 261 466Z" stroke="#041822" stroke-width="6"/>
</svg>
