<svg width="530" height="530" viewBox="0 0 530 530" fill="none" xmlns="http://www.w3.org/2000/svg">
<path d="M298.5 274.5C312 274.5 327.5 285 333.5 305.5L333.5 371.5M368 379.5C368 310 346.5 307.5 332.5 302.5M219.5 565C210.5 537.5 177 449.5 187 424.5C197 399.5 200.5 378.5 201 371L201.5 310.5L200.5 246L198 181.5C198 171.5 206 162.5 216.5 162C226.5 161.5 235.5 169.5 236 180L241 241L249 348.5C249.5 349.5 252.5 351.5 262 348.5M301 360.5L297 286C297 261.5 292.5 259 286 253.5C279.5 248 265 242.5 243 258.5M205 524L190.5 502L169 443.5C165 432 157.5 428.5 163.5 411L170.5 388.5L162 357.5C164 356 170 353.5 174.5 353.5C190 352.5 196.5 361 201 374M346 588.5C346 466 385 463 371 400L367.5 378.5M347.5 587C337 594 322.5 600 306 603.5C270 611.5 231.5 605.5 228 589L219 563.5" stroke="#041822" stroke-width="7"/>
<path d="M200.5 244.5C161.5 236.5 136.5 198.5 144.5 159.5C152.5 120.5 190.5 95.5 229.5 103.5C268.5 111.5 293.5 149.5 285.5 188.5C280.5 213.5 263 232.5 241.5 241" stroke="#041822" stroke-width="7"/>
<rect x="366" y="211" width="95" height="95" stroke="#041822" stroke-width="4"/>
<path d="M136 319H75L105.5 266L136 319Z" stroke="#041822" stroke-width="4"/>
<path d="M381.5 67V104L349.5 122.5L317.5 104V67L349.5 48.5L381.5 67Z" stroke="#041822" stroke-width="4"/>
<path d="M273.5 131.5L318.5 104" stroke="#041822" stroke-width="4"/>
<path d="M274 209L365 255" stroke="#041822" stroke-width="4"/>
<path d="M167.5 225L122 291" stroke="#041822" stroke-width="4"/>
</svg>
