<svg width="530" height="530" viewBox="0 0 530 530" fill="none" xmlns="http://www.w3.org/2000/svg">
<circle cx="265" cy="265" r="198" stroke="#041822" stroke-width="4"/>
<path d="M405 129.5C405 152 342.5 170 265 170C187.5 170 125 152 125 129.5" stroke="#041822" stroke-width="4"/>
<path d="M425 375C425 401.5 353.5 423 265 423C176.5 423 105 401.5 105 375" stroke="#041822" stroke-width="4"/>
<path d="M461 253C461 273.5 423 292 366.5 302M69 253C69 273 105 291 159.5 301" stroke="#041822" stroke-width="4"/>
<path d="M315 168.5C305 107 286 65 264.5 65C243 65 224 107 214 168.5M316 353.5C306.5 419.5 287 465 264.5 465C242 465 222.5 419.5 213 353.5" stroke="#041822" stroke-width="4"/>
<path d="M403 265C403 320 387.5 369.5 362 405.5C336.5 441 302 463 263.5 463C225 463 190.5 441 165 405.5C139.5 369.5 124 320 124 265C124 210 139.5 160.5 165 124.5C190.5 89 225 67 263.5 67C302 67 336.5 89 362 124.5C387.5 160.5 403 210 403 265Z" stroke="#041822" stroke-width="4"/>
<path d="M157.5 191.5C174.5 174.5 195.5 166.5 217.5 169L217.5 169L217.5 169V169H217.5C217.5 169 217.5 169 217.5 169C217.5 169 217.5 169 217.5 169C218 169 218 169 218.5 169C219.5 169 220.5 169.5 222.5 169.5C225.5 170 230 171 235.5 173C246 176 253.5 181 261.5 188.5L264 191L266.5 189C296 162 341.5 163 370.5 191.5C399 220.5 400 267 372 296.5L359 308.5L359 308.5L359 308.5L264 404.5L237.5 378L221 361L221 361L221 361L208.5 349L156.5 297.5L155.5 296C128 266.5 129 220.5 157.5 191.5Z" stroke="#041822" stroke-width="7"/>
</svg>
