<svg width="530" height="530" viewBox="0 0 530 530" fill="none" xmlns="http://www.w3.org/2000/svg">
<circle cx="265" cy="183" r="72.5" stroke="#041822" stroke-width="7"/>
<path d="M412 420C412 380.5 396.5 343 368.5 315.5C341 287.5 303.5 272 264 272C224.5 272 187 287.5 159.5 315.5C131.5 343 116 380.5 116 420" stroke="#041822" stroke-width="7"/>
<circle cx="415.5" cy="139" r="40" stroke="#041822" stroke-width="7"/>
<circle cx="112.5" cy="139" r="40" stroke="#041822" stroke-width="7"/>
<path d="M524 286C524 260.5 513.5 236 495.5 218C477 200 452.5 190 426.5 190C400.5 190 376 200 357.5 218C339.5 236 329 260.5 329 286" stroke="#041822" stroke-width="7"/>
<path d="M199 286C199 260.5 188.5 236 170.5 218C152 200 127.5 190 101.5 190C75.5 190 51 200 32.5 218C14.5 236 4 260.5 4 286" stroke="#041822" stroke-width="7"/>
</svg>
