<svg width="530" height="530" viewBox="0 0 530 530" fill="none" xmlns="http://www.w3.org/2000/svg">
<path d="M265 129.5C258 129.5 252.5 124 252.5 117.5C252.5 110.5 258 105 265 105C272 105 277.5 110.5 277.5 117.5C277.5 124 272 129.5 265 129.5ZM277.5 156C277.5 149 272 143.5 265 143.5C258 143.5 252.5 149 252.5 156C252.5 162.5 258 168 265 168C272 168 277.5 162.5 277.5 156ZM239 158.5C237 152 229.5 148.5 223.5 151C217 153 213.5 160.5 216 166.5C218.5 173 225.5 176.5 232 174C238 171.5 241.5 164.5 239 158.5ZM204 173.5C199.5 168.5 192 167.5 186.5 172C181.5 176.5 181 184 185 189.5C189.5 194.5 197.5 195.5 202.5 191C207.5 186.5 208.5 179 204 173.5ZM176.5 200C170.5 196.5 163 198.5 159.5 204.5C156 210.5 158 218 164 221.5C170 225 177.5 222.5 181 217C184.5 211 182 203.5 176.5 200ZM159.5 234.5C152.5 233 146.5 237.5 145 244.5C144 251 148.5 257.5 155 258.5C162 260 168 255.5 169.5 248.5C170.5 242 166 235.5 159.5 234.5ZM155 272.5C148.5 273.5 144 280 145 286.5C146.5 293.5 152.5 298 159.5 296.5C166 295.5 170.5 289 169.5 282.5C168 275.5 161.5 271 155 272.5ZM164 309.5C158 313 156 320.5 159.5 326.5C163 332.5 170.5 334.5 176.5 331C182 327.5 184 320 181 314C177.5 308.5 170 306.5 164 309.5ZM185 341.5C181 347 181.5 354.5 186.5 359C192 363.5 199.5 362.5 204 357.5C208.5 352 207.5 344.5 202.5 340C197.5 335.5 189.5 336.5 185 341.5ZM216 364.5C213.5 370.5 217 378 223.5 380C229.5 382.5 237 379 239 372.5C241.5 366.5 238 359.5 232 357C225.5 354.5 218.5 358 216 364.5ZM252.5 375C252.5 382 258 387.5 265 387.5C272 387.5 277.5 382 277.5 375C277.5 368.5 272 363 265 363C258 363 252.5 368.5 252.5 375ZM291 372.5C293 379 300.5 382.5 306.5 380C313 378 316.5 370.5 314 364.5C311.5 358 304.5 354.5 298 357C292 359.5 288.5 366.5 291 372.5ZM326 357.5C330.5 362.5 338 363.5 343.5 359C348.5 354.5 349 347 345 341.5C340.5 336.5 332.5 335.5 327.5 340C322 344.5 321.5 352 326 357.5ZM353.5 331C359.5 334.5 367 332.5 370.5 326.5C374 320.5 372 313 366 309.5C360 306 352.5 308.5 349 314C346 320 348 327.5 353.5 331ZM370.5 296.5C377.5 298 383.5 293.5 385 286.5C386 280 381.5 273.5 375 272.5C368.5 271.5 362 275.5 360.5 282.5C359.5 289 364 295.5 370.5 296.5ZM375 258.5C381.5 257.5 386 251 385 244.5C383.5 237.5 377.5 233 370.5 234.5C364 235.5 359.5 242 360.5 248.5C362 255.5 368.5 260 375 258.5ZM366 221.5C372 218 374 210.5 370.5 204.5C367 198.5 359.5 196.5 353.5 200C348 203.5 346 211 349 217C352.5 222.5 360 224.5 366 221.5ZM345 189.5C349 184 348.5 176.5 343.5 172C338 167.5 330.5 168.5 326 173.5C321.5 179 322.5 186.5 327.5 191C332.5 195.5 340.5 194.5 345 189.5ZM314 166.5C316.5 160.5 313 153 306.5 151C300 148.5 293 152 291 158.5C288.5 164.5 292 171.5 298 174C304.5 176.5 311.5 173 314 166.5ZM277.5 192.5C277.5 185.5 272 180 265 180C258 180 252.5 185.5 252.5 192.5C252.5 199 258 204.5 265 204.5C272 204.5 277.5 199 277.5 192.5ZM239 196C236 190 228.5 188 222.5 191.5C216.5 195 214.5 202.5 218 208.5C221 214 229 216 234.5 213C240.5 209.5 242.5 202 239 196ZM208 218.5C202 215 194.5 217 191 223C187.5 228.5 190 236 195.5 239.5C201.5 243 209 241 212.5 235C216 229 214 221.5 208 218.5ZM192 253C185 253 179.5 258.5 179.5 265.5C179.5 272.5 185 278 192 278C199 278 204.5 272.5 204.5 265.5C204.5 258.5 199 253 192 253ZM195.5 291.5C190 295 188 302.5 191 308C194.5 314 202 316 208 312.5C214 309.5 216 302 212.5 296C209 290 201.5 288 195.5 291.5ZM218 322.5C214.5 328.5 216.5 336 222.5 339.5C228 343 236 341 239 335C242.5 329 240.5 321.5 234.5 318C229 314.5 221.5 316.5 218 322.5ZM252.5 338.5C252.5 345.5 258 351 265 351C272 351 277.5 345.5 277.5 338.5C277.5 332 272 326.5 265 326.5C258 326.5 252.5 332 252.5 338.5ZM291 335C294 341 301.5 343 307.5 339.5C313.5 336 315.5 328.5 312 322.5C309 317 301 314.5 295.5 318C289.5 321.5 287.5 329 291 335ZM322 312.5C328 316 335.5 314 339 308C342 302.5 340 295 334.5 291.5C328.5 288 321 290 317.5 296C314 302 316 309.5 322 312.5ZM338 278C345 278 350.5 272.5 350.5 265.5C350.5 258.5 345 253 338 253C331 253 325.5 258.5 325.5 265.5C325.5 272.5 331 278 338 278ZM334.5 239.5C340 236 342 228.5 339 223C335.5 217 328 215 322 218.5C316 221.5 314 229 317.5 235C321 241 328.5 243 334.5 239.5ZM312 208.5C315.5 202.5 313.5 195 307.5 191.5C301.5 188 294 190 291 196C287.5 202 289.5 209.5 295.5 213C301 216.5 308.5 214.5 312 208.5ZM277.5 229C277.5 222 272 216.5 265 216.5C258 216.5 252.5 222 252.5 229C252.5 236 258 241.5 265 241.5C272 241.5 277.5 236 277.5 229ZM239.5 236.5C233.5 233 226 235 222.5 241C219.5 247 221.5 254.5 227 258C233 261.5 240.5 259.5 244 253.5C247.5 247.5 245.5 240 239.5 236.5ZM227 273C221.5 276.5 219.5 284 222.5 290C226 296 233.5 298 239.5 294.5C245.5 291 247.5 283.5 244 277.5C240.5 272 233 269.5 227 273ZM252.5 302C252.5 309 258 314.5 265 314.5C272 314.5 277.5 309 277.5 302C277.5 295.5 272 290 265 290C258 290 252.5 295.5 252.5 302ZM290.5 294.5C296.5 298 304 296 307 290C310.5 284 308.5 276.5 302.5 273C297 269.5 289.5 271.5 286 277.5C282.5 283.5 284.5 291 290.5 294.5ZM303 258C308.5 254.5 310.5 247 307.5 241C304 235 296.5 233 290.5 236.5C284.5 240 282.5 247.5 286 253.5C289.5 259.5 297 261.5 303 258ZM277.5 265.5C277.5 258.5 272 253 265 253C258 253 252.5 258.5 252.5 265.5C252.5 272.5 258 278 265 278C272 278 277.5 272.5 277.5 265.5ZM265 129.5C258 129.5 252.5 124 252.5 117.5C252.5 110.5 258 105 265 105C272 105 277.5 110.5 277.5 117.5C277.5 124 272 129.5 265 129.5ZM233.5 133.5C227 135 220.5 131 219 124C217.5 117.5 221.5 111 228 109.5C234.5 108 241 112 243 118.5C244.5 125 240.5 131.5 233.5 133.5ZM233.5 133.5C227 135 220.5 131 219 124C217.5 117.5 221.5 111 228 109.5C234.5 108 241 112 243 118.5C244.5 125 240.5 131.5 233.5 133.5ZM204 144C198 147 190.5 144.5 187.5 138.5C184.5 132.5 187 125 193 122C199 119 206.5 121.5 209.5 127.5C212.5 133.5 210 141 204 144ZM204 144C198 147 190.5 144.5 187.5 138.5C184.5 132.5 187 125 193 122C199 119 206.5 121.5 209.5 127.5C212.5 133.5 210 141 204 144ZM178 161.5C172.5 166 165 165 160.5 160C156 154.5 157 147 162 142.5C167 138 175 139 179.5 144C183.5 149.5 183 157 178 161.5ZM178 161.5C172.5 166 165 165 160.5 160C156 154.5 157 147 162 142.5C167 138 175 139 179.5 144C183.5 149.5 183 157 178 161.5ZM156 184.5C152 190 144.5 191 139 187C133.5 183 132.5 175 136.5 169.5C140.5 164 148 163 153.5 167C159 171 160.5 179 156 184.5ZM156 184.5C152 190 144.5 191 139 187C133.5 183 132.5 175 136.5 169.5C140.5 164 148 163 153.5 167C159 171 160.5 179 156 184.5ZM140.5 211.5C137.5 218 130.5 221 124.5 218C118 215.5 115 208 118 202C120.5 195.5 128 193 134 195.5C140 198 143 205.5 140.5 211.5ZM140.5 211.5C137.5 218 130.5 221 124.5 218C118 215.5 115 208 118 202C120.5 195.5 128 193 134 195.5C140 198 143 205.5 140.5 211.5ZM131.5 242C130 248.5 124 253 117 252C110.5 250.5 106 244.5 107 237.5C108.5 231 115 226.5 121.5 227.5C128 229 132.5 235 131.5 242ZM131.5 242C130 248.5 124 253 117 252C110.5 250.5 106 244.5 107 237.5C108.5 231 115 226.5 121.5 227.5C128 229 132.5 235 131.5 242ZM129.5 273.5C130 280 125 286 118 286.5C111 287 105.5 281.5 105 275C104.5 268 110 262 116.5 262C123.5 261.5 129 266.5 129.5 273.5ZM129.5 273.5C130 280 125 286 118 286.5C111 287 105.5 281.5 105 275C104.5 268 110 262 116.5 262C123.5 261.5 129 266.5 129.5 273.5ZM135 304.5C137 311 133.5 318 127 320C120.5 322 113.5 318 111.5 311.5C109.5 305 113 298 119.5 296C126 294.5 133 298 135 304.5ZM135 304.5C137 311 133.5 318 127 320C120.5 322 113.5 318 111.5 311.5C109.5 305 113 298 119.5 296C126 294.5 133 298 135 304.5ZM147.5 333.5C151 339.5 149 347 143 350.5C137 353.5 129.5 351.5 126 346C123 340 125 332.5 130.5 329C136.5 325.5 144 327.5 147.5 333.5ZM147.5 333.5C151 339.5 149 347 143 350.5C137 353.5 129.5 351.5 126 346C123 340 125 332.5 130.5 329C136.5 325.5 144 327.5 147.5 333.5ZM166.5 358.5C171 363.5 171 371.5 166 376C161 381 153 380.5 148.5 375.5C144 370.5 144 363 149 358C154 353.5 161.5 354 166.5 358.5ZM166.5 358.5C171 363.5 171 371.5 166 376C161 381 153 380.5 148.5 375.5C144 370.5 144 363 149 358C154 353.5 161.5 354 166.5 358.5ZM190.5 379C196 383 197.5 390.5 194 396C190 402 182.5 403.5 177 399.5C171.5 396 169.5 388.5 173.5 382.5C177 377 185 375.5 190.5 379ZM190.5 379C196 383 197.5 390.5 194 396C190 402 182.5 403.5 177 399.5C171.5 396 169.5 388.5 173.5 382.5C177 377 185 375.5 190.5 379ZM218.5 393C225 395.5 228.5 402.5 226 409C223.5 415.5 216.5 418.5 210 416.5C204 414 200.5 407 203 400.5C205 394 212 391 218.5 393ZM218.5 393C225 395.5 228.5 402.5 226 409C223.5 415.5 216.5 418.5 210 416.5C204 414 200.5 407 203 400.5C205 394 212 391 218.5 393ZM249 400.5C256 401.5 261 407.5 260 414C259 421 253 425.5 246.5 425C239.5 424 235 418 235.5 411.5C236.5 404.5 242.5 399.5 249 400.5ZM249 400.5C256 401.5 261 407.5 260 414C259 421 253 425.5 246.5 425C239.5 424 235 418 235.5 411.5C236.5 404.5 242.5 399.5 249 400.5ZM280.5 400.5C287.5 399.5 293.5 404.5 294.5 411.5C295 418 290.5 424 283.5 425C277 425.5 270.5 421 270 414C269 407.5 274 401 280.5 400.5ZM280.5 400.5C287.5 399.5 293.5 404.5 294.5 411.5C295 418 290.5 424 283.5 425C277 425.5 270.5 421 270 414C269 407.5 274 401 280.5 400.5ZM311.5 393C318 391 325 394 327 400.5C329.5 407 326 414 320 416.5C313.5 418.5 306.5 415.5 304 409C301.5 402.5 305 395.5 311.5 393ZM311.5 393C318 391 325 394 327 400.5C329.5 407 326 414 320 416.5C313.5 418.5 306.5 415.5 304 409C301.5 402.5 305 395.5 311.5 393ZM339.5 379C345 375.5 353 377 356.5 382.5C360.5 388 358.5 396 353 399.5C347.5 403.5 340 402 336 396C332.5 390.5 334 383 339.5 379ZM339.5 379C345 375.5 353 377 356.5 382.5C360.5 388 358.5 396 353 399.5C347.5 403.5 340 402 336 396C332.5 390.5 334 383 339.5 379ZM363.5 358.5C368.5 354 376 353.5 381 358C386 363 386 370.5 381.5 375.5C377 380.5 369 381 364 376C359 371.5 359 363.5 363.5 358.5ZM363.5 358.5C368.5 354 376 353.5 381 358C386 363 386 370.5 381.5 375.5C377 380.5 369 381 364 376C359 371.5 359 363.5 363.5 358.5ZM382.5 333.5C386 327.5 393.5 325.5 399.5 329C405 332.5 407 340 404 346C400.5 351.5 393 353.5 387 350.5C381 347 379 339.5 382.5 333.5ZM382.5 333.5C386 327.5 393.5 325.5 399.5 329C405 332.5 407 340 404 346C400.5 351.5 393 353.5 387 350.5C381 347 379 339.5 382.5 333.5ZM395 304.5C397 298 403.5 294.5 410 296C417 298 420.5 305 418.5 311.5C416.5 318 409.5 322 403 320C396.5 318 393 311 395 304.5ZM395 304.5C397 298 403.5 294.5 410 296C417 298 420.5 305 418.5 311.5C416.5 318 409.5 322 403 320C396.5 318 393 311 395 304.5ZM400.5 273.5C401 266.5 406.5 261.5 413.5 262C420 262 425.5 268 425 275C424.5 281.5 419 287 412 286.5C405 286 400 280 400.5 273.5ZM400.5 273.5C401 266.5 406.5 261.5 413.5 262C420 262 425.5 268 425 275C424.5 281.5 419 287 412 286.5C405 286 400 280 400.5 273.5ZM398.5 242C397.5 235 402 229 408.5 227.5C415.5 226.5 421.5 231 423 237.5C424 244.5 419.5 250.5 413 252C406 253 400 248.5 398.5 242ZM398.5 242C397.5 235 402 229 408.5 227.5C415.5 226.5 421.5 231 423 237.5C424 244.5 419.5 250.5 413 252C406 253 400 248.5 398.5 242ZM389.5 211.5C387 205.5 389.5 198 396 195.5C402 193 409.5 195.5 412 202C415 208 412 215.5 405.5 218C399.5 221 392.5 218 389.5 211.5ZM389.5 211.5C387 205.5 389.5 198 396 195.5C402 193 409.5 195.5 412 202C415 208 412 215.5 405.5 218C399.5 221 392.5 218 389.5 211.5ZM374 184.5C370 179 371 171 376.5 167C382 163 389.5 164 393.5 169.5C397.5 175 396.5 183 391 187C385.5 191 378 190 374 184.5ZM374 184.5C370 179 371 171 376.5 167C382 163 389.5 164 393.5 169.5C397.5 175 396.5 183 391 187C385.5 191 378 190 374 184.5ZM352 161.5C347 157 346.5 149.5 350.5 144C355 139 363 138 368 142.5C373 147 374 154.5 369.5 160C365 165 357.5 166 352 161.5ZM352 161.5C347 157 346.5 149.5 350.5 144C355 139 363 138 368 142.5C373 147 374 154.5 369.5 160C365 165 357.5 166 352 161.5ZM326 144C320 141 317.5 133.5 320.5 127.5C323.5 121.5 331 119 337 122C343 125 345.5 132.5 342.5 138.5C339.5 144.5 332 147 326 144ZM326 144C320 141 317.5 133.5 320.5 127.5C323.5 121.5 331 119 337 122C343 125 345.5 132.5 342.5 138.5C339.5 144.5 332 147 326 144ZM296.5 133.5C289.5 131.5 285.5 125 287 118.5C289 112 295.5 108 302 109.5C308.5 111 312.5 117.5 311 124C309.5 131 303 135 296.5 133.5ZM296.5 133.5C289.5 131.5 285.5 125 287 118.5C289 112 295.5 108 302 109.5C308.5 111 312.5 117.5 311 124C309.5 131 303 135 296.5 133.5ZM277.5 156C277.5 149 272 143.5 265 143.5C258 143.5 252.5 149 252.5 156C252.5 162.5 258 168 265 168C272 168 277.5 162.5 277.5 156ZM239 158.5C237 152 229.5 148.5 223.5 151C217 153 213.5 160.5 216 166.5C218.5 173 225.5 176.5 232 174C238 171.5 241.5 164.5 239 158.5ZM204 173.5C199.5 168.5 192 167.5 186.5 172C181.5 176.5 181 184 185 189.5C189.5 194.5 197.5 195.5 202.5 191C207.5 186.5 208.5 179 204 173.5ZM176.5 200C170.5 196.5 163 198.5 159.5 204.5C156 210.5 158 218 164 221.5C170 225 177.5 222.5 181 217C184.5 211 182 203.5 176.5 200ZM159.5 234.5C152.5 233 146.5 237.5 145 244.5C144 251 148.5 257.5 155 258.5C162 260 168 255.5 169.5 248.5C170.5 242 166 235.5 159.5 234.5ZM155 272.5C148.5 273.5 144 280 145 286.5C146.5 293.5 152.5 298 159.5 296.5C166 295.5 170.5 289 169.5 282.5C168 275.5 161.5 271 155 272.5ZM164 309.5C158 313 156 320.5 159.5 326.5C163 332.5 170.5 334.5 176.5 331C182 327.5 184 320 181 314C177.5 308.5 170 306.5 164 309.5ZM185 341.5C181 347 181.5 354.5 186.5 359C192 363.5 199.5 362.5 204 357.5C208.5 352 207.5 344.5 202.5 340C197.5 335.5 189.5 336.5 185 341.5ZM216 364.5C213.5 370.5 217 378 223.5 380C229.5 382.5 237 379 239 372.5C241.5 366.5 238 359.5 232 357C225.5 354.5 218.5 358 216 364.5ZM252.5 375C252.5 382 258 387.5 265 387.5C272 387.5 277.5 382 277.5 375C277.5 368.5 272 363 265 363C258 363 252.5 368.5 252.5 375ZM291 372.5C293 379 300.5 382.5 306.5 380C313 378 316.5 370.5 314 364.5C311.5 358 304.5 354.5 298 357C292 359.5 288.5 366.5 291 372.5ZM326 357.5C330.5 362.5 338 363.5 343.5 359C348.5 354.5 349 347 345 341.5C340.5 336.5 332.5 335.5 327.5 340C322 344.5 321.5 352 326 357.5ZM353.5 331C359.5 334.5 367 332.5 370.5 326.5C374 320.5 372 313 366 309.5C360 306 352.5 308.5 349 314C346 320 348 327.5 353.5 331ZM370.5 296.5C377.5 298 383.5 293.5 385 286.5C386 280 381.5 273.5 375 272.5C368.5 271.5 362 275.5 360.5 282.5C359.5 289 364 295.5 370.5 296.5ZM375 258.5C381.5 257.5 386 251 385 244.5C383.5 237.5 377.5 233 370.5 234.5C364 235.5 359.5 242 360.5 248.5C362 255.5 368.5 260 375 258.5ZM366 221.5C372 218 374 210.5 370.5 204.5C367 198.5 359.5 196.5 353.5 200C348 203.5 346 211 349 217C352.5 222.5 360 224.5 366 221.5ZM345 189.5C349 184 348.5 176.5 343.5 172C338 167.5 330.5 168.5 326 173.5C321.5 179 322.5 186.5 327.5 191C332.5 195.5 340.5 194.5 345 189.5ZM314 166.5C316.5 160.5 313 153 306.5 151C300 148.5 293 152 291 158.5C288.5 164.5 292 171.5 298 174C304.5 176.5 311.5 173 314 166.5ZM277.5 192.5C277.5 185.5 272 180 265 180C258 180 252.5 185.5 252.5 192.5C252.5 199 258 204.5 265 204.5C272 204.5 277.5 199 277.5 192.5ZM239 196C236 190 228.5 188 222.5 191.5C216.5 195 214.5 202.5 218 208.5C221 214 229 216 234.5 213C240.5 209.5 242.5 202 239 196ZM208 218.5C202 215 194.5 217 191 223C187.5 228.5 190 236 195.5 239.5C201.5 243 209 241 212.5 235C216 229 214 221.5 208 218.5ZM192 253C185 253 179.5 258.5 179.5 265.5C179.5 272.5 185 278 192 278C199 278 204.5 272.5 204.5 265.5C204.5 258.5 199 253 192 253ZM195.5 291.5C190 295 188 302.5 191 308C194.5 314 202 316 208 312.5C214 309.5 216 302 212.5 296C209 290 201.5 288 195.5 291.5ZM218 322.5C214.5 328.5 216.5 336 222.5 339.5C228 343 236 341 239 335C242.5 329 240.5 321.5 234.5 318C229 314.5 221.5 316.5 218 322.5ZM252.5 338.5C252.5 345.5 258 351 265 351C272 351 277.5 345.5 277.5 338.5C277.5 332 272 326.5 265 326.5C258 326.5 252.5 332 252.5 338.5ZM291 335C294 341 301.5 343 307.5 339.5C313.5 336 315.5 328.5 312 322.5C309 317 301 314.5 295.5 318C289.5 321.5 287.5 329 291 335ZM322 312.5C328 316 335.5 314 339 308C342 302.5 340 295 334.5 291.5C328.5 288 321 290 317.5 296C314 302 316 309.5 322 312.5ZM338 278C345 278 350.5 272.5 350.5 265.5C350.5 258.5 345 253 338 253C331 253 325.5 258.5 325.5 265.5C325.5 272.5 331 278 338 278ZM334.5 239.5C340 236 342 228.5 339 223C335.5 217 328 215 322 218.5C316 221.5 314 229 317.5 235C321 241 328.5 243 334.5 239.5ZM312 208.5C315.5 202.5 313.5 195 307.5 191.5C301.5 188 294 190 291 196C287.5 202 289.5 209.5 295.5 213C301 216.5 308.5 214.5 312 208.5ZM277.5 229C277.5 222 272 216.5 265 216.5C258 216.5 252.5 222 252.5 229C252.5 236 258 241.5 265 241.5C272 241.5 277.5 236 277.5 229ZM239.5 236.5C233.5 233 226 235 222.5 241C219.5 247 221.5 254.5 227 258C233 261.5 240.5 259.5 244 253.5C247.5 247.5 245.5 240 239.5 236.5ZM227 273C221.5 276.5 219.5 284 222.5 290C226 296 233.5 298 239.5 294.5C245.5 291 247.5 283.5 244 277.5C240.5 272 233 269.5 227 273ZM252.5 302C252.5 309 258 314.5 265 314.5C272 314.5 277.5 309 277.5 302C277.5 295.5 272 290 265 290C258 290 252.5 295.5 252.5 302ZM290.5 294.5C296.5 298 304 296 307 290C310.5 284 308.5 276.5 302.5 273C297 269.5 289.5 271.5 286 277.5C282.5 283.5 284.5 291 290.5 294.5ZM303 258C308.5 254.5 310.5 247 307.5 241C304 235 296.5 233 290.5 236.5C284.5 240 282.5 247.5 286 253.5C289.5 259.5 297 261.5 303 258ZM277.5 265.5C277.5 258.5 272 253 265 253C258 253 252.5 258.5 252.5 265.5C252.5 272.5 258 278 265 278C272 278 277.5 272.5 277.5 265.5Z" fill="#041822"/>
<path d="M265 129.5C258 129.5 252.5 124 252.5 117.5C252.5 110.5 258 105 265 105C272 105 277.5 110.5 277.5 117.5C277.5 124 272 129.5 265 129.5ZM277.5 156C277.5 149 272 143.5 265 143.5C258 143.5 252.5 149 252.5 156C252.5 162.5 258 168 265 168C272 168 277.5 162.5 277.5 156ZM239 158.5C237 152 229.5 148.5 223.5 151C217 153 213.5 160.5 216 166.5C218.5 173 225.5 176.5 232 174C238 171.5 241.5 164.5 239 158.5ZM204 173.5C199.5 168.5 192 167.5 186.5 172C181.5 176.5 181 184 185 189.5C189.5 194.5 197.5 195.5 202.5 191C207.5 186.5 208.5 179 204 173.5ZM176.5 200C170.5 196.5 163 198.5 159.5 204.5C156 210.5 158 218 164 221.5C170 225 177.5 222.5 181 217C184.5 211 182 203.5 176.5 200ZM159.5 234.5C152.5 233 146.5 237.5 145 244.5C144 251 148.5 257.5 155 258.5C162 260 168 255.5 169.5 248.5C170.5 242 166 235.5 159.5 234.5ZM155 272.5C148.5 273.5 144 280 145 286.5C146.5 293.5 152.5 298 159.5 296.5C166 295.5 170.5 289 169.5 282.5C168 275.5 161.5 271 155 272.5ZM164 309.5C158 313 156 320.5 159.5 326.5C163 332.5 170.5 334.5 176.5 331C182 327.5 184 320 181 314C177.5 308.5 170 306.5 164 309.5ZM185 341.5C181 347 181.5 354.5 186.5 359C192 363.5 199.5 362.5 204 357.5C208.5 352 207.5 344.5 202.5 340C197.5 335.5 189.5 336.5 185 341.5ZM216 364.5C213.5 370.5 217 378 223.5 380C229.5 382.5 237 379 239 372.5C241.5 366.5 238 359.5 232 357C225.5 354.5 218.5 358 216 364.5ZM252.5 375C252.5 382 258 387.5 265 387.5C272 387.5 277.5 382 277.5 375C277.5 368.5 272 363 265 363C258 363 252.5 368.5 252.5 375ZM291 372.5C293 379 300.5 382.5 306.5 380C313 378 316.5 370.5 314 364.5C311.5 358 304.5 354.5 298 357C292 359.5 288.5 366.5 291 372.5ZM326 357.5C330.5 362.5 338 363.5 343.5 359C348.5 354.5 349 347 345 341.5C340.5 336.5 332.5 335.5 327.5 340C322 344.5 321.5 352 326 357.5ZM353.5 331C359.5 334.5 367 332.5 370.5 326.5C374 320.5 372 313 366 309.5C360 306 352.5 308.5 349 314C346 320 348 327.5 353.5 331ZM370.5 296.5C377.5 298 383.5 293.5 385 286.5C386 280 381.5 273.5 375 272.5C368.5 271.5 362 275.5 360.5 282.5C359.5 289 364 295.5 370.5 296.5ZM375 258.5C381.5 257.5 386 251 385 244.5C383.5 237.5 377.5 233 370.5 234.5C364 235.5 359.5 242 360.5 248.5C362 255.5 368.5 260 375 258.5ZM366 221.5C372 218 374 210.5 370.5 204.5C367 198.5 359.5 196.5 353.5 200C348 203.5 346 211 349 217C352.5 222.5 360 224.5 366 221.5ZM345 189.5C349 184 348.5 176.5 343.5 172C338 167.5 330.5 168.5 326 173.5C321.5 179 322.5 186.5 327.5 191C332.5 195.5 340.5 194.5 345 189.5ZM314 166.5C316.5 160.5 313 153 306.5 151C300 148.5 293 152 291 158.5C288.5 164.5 292 171.5 298 174C304.5 176.5 311.5 173 314 166.5ZM277.5 192.5C277.5 185.5 272 180 265 180C258 180 252.5 185.5 252.5 192.5C252.5 199 258 204.5 265 204.5C272 204.5 277.5 199 277.5 192.5ZM239 196C236 190 228.5 188 222.5 191.5C216.5 195 214.5 202.5 218 208.5C221 214 229 216 234.5 213C240.5 209.5 242.5 202 239 196ZM208 218.5C202 215 194.5 217 191 223C187.5 228.5 190 236 195.5 239.5C201.5 243 209 241 212.5 235C216 229 214 221.5 208 218.5ZM192 253C185 253 179.5 258.5 179.5 265.5C179.5 272.5 185 278 192 278C199 278 204.5 272.5 204.5 265.5C204.5 258.5 199 253 192 253ZM195.5 291.5C190 295 188 302.5 191 308C194.5 314 202 316 208 312.5C214 309.5 216 302 212.5 296C209 290 201.5 288 195.5 291.5ZM218 322.5C214.5 328.5 216.5 336 222.5 339.5C228 343 236 341 239 335C242.5 329 240.5 321.5 234.5 318C229 314.5 221.5 316.5 218 322.5ZM252.5 338.5C252.5 345.5 258 351 265 351C272 351 277.5 345.5 277.5 338.5C277.5 332 272 326.5 265 326.5C258 326.5 252.5 332 252.5 338.5ZM291 335C294 341 301.5 343 307.5 339.5C313.5 336 315.5 328.5 312 322.5C309 317 301 314.5 295.5 318C289.5 321.5 287.5 329 291 335ZM322 312.5C328 316 335.5 314 339 308C342 302.5 340 295 334.5 291.5C328.5 288 321 290 317.5 296C314 302 316 309.5 322 312.5ZM338 278C345 278 350.5 272.5 350.5 265.5C350.5 258.5 345 253 338 253C331 253 325.5 258.5 325.5 265.5C325.5 272.5 331 278 338 278ZM334.5 239.5C340 236 342 228.5 339 223C335.5 217 328 215 322 218.5C316 221.5 314 229 317.5 235C321 241 328.5 243 334.5 239.5ZM312 208.5C315.5 202.5 313.5 195 307.5 191.5C301.5 188 294 190 291 196C287.5 202 289.5 209.5 295.5 213C301 216.5 308.5 214.5 312 208.5ZM277.5 229C277.5 222 272 216.5 265 216.5C258 216.5 252.5 222 252.5 229C252.5 236 258 241.5 265 241.5C272 241.5 277.5 236 277.5 229ZM239.5 236.5C233.5 233 226 235 222.5 241C219.5 247 221.5 254.5 227 258C233 261.5 240.5 259.5 244 253.5C247.5 247.5 245.5 240 239.5 236.5ZM227 273C221.5 276.5 219.5 284 222.5 290C226 296 233.5 298 239.5 294.5C245.5 291 247.5 283.5 244 277.5C240.5 272 233 269.5 227 273ZM252.5 302C252.5 309 258 314.5 265 314.5C272 314.5 277.5 309 277.5 302C277.5 295.5 272 290 265 290C258 290 252.5 295.5 252.5 302ZM290.5 294.5C296.5 298 304 296 307 290C310.5 284 308.5 276.5 302.5 273C297 269.5 289.5 271.5 286 277.5C282.5 283.5 284.5 291 290.5 294.5ZM303 258C308.5 254.5 310.5 247 307.5 241C304 235 296.5 233 290.5 236.5C284.5 240 282.5 247.5 286 253.5C289.5 259.5 297 261.5 303 258ZM277.5 265.5C277.5 258.5 272 253 265 253C258 253 252.5 258.5 252.5 265.5C252.5 272.5 258 278 265 278C272 278 277.5 272.5 277.5 265.5ZM233.5 133.5C227 135 220.5 131 219 124C217.5 117.5 221.5 111 228 109.5C234.5 108 241 112 243 118.5C244.5 125 240.5 131.5 233.5 133.5ZM204 144C198 147 190.5 144.5 187.5 138.5C184.5 132.5 187 125 193 122C199 119 206.5 121.5 209.5 127.5C212.5 133.5 210 141 204 144ZM178 161.5C172.5 166 165 165 160.5 160C156 154.5 157 147 162 142.5C167 138 175 139 179.5 144C183.5 149.5 183 157 178 161.5ZM156 184.5C152 190 144.5 191 139 187C133.5 183 132.5 175 136.5 169.5C140.5 164 148 163 153.5 167C159 171 160.5 179 156 184.5ZM140.5 211.5C137.5 218 130.5 221 124.5 218C118 215.5 115 208 118 202C120.5 195.5 128 193 134 195.5C140 198 143 205.5 140.5 211.5ZM131.5 242C130 248.5 124 253 117 252C110.5 250.5 106 244.5 107 237.5C108.5 231 115 226.5 121.5 227.5C128 229 132.5 235 131.5 242ZM129.5 273.5C130 280 125 286 118 286.5C111 287 105.5 281.5 105 275C104.5 268 110 262 116.5 262C123.5 261.5 129 266.5 129.5 273.5ZM135 304.5C137 311 133.5 318 127 320C120.5 322 113.5 318 111.5 311.5C109.5 305 113 298 119.5 296C126 294.5 133 298 135 304.5ZM147.5 333.5C151 339.5 149 347 143 350.5C137 353.5 129.5 351.5 126 346C123 340 125 332.5 130.5 329C136.5 325.5 144 327.5 147.5 333.5ZM166.5 358.5C171 363.5 171 371.5 166 376C161 381 153 380.5 148.5 375.5C144 370.5 144 363 149 358C154 353.5 161.5 354 166.5 358.5ZM190.5 379C196 383 197.5 390.5 194 396C190 402 182.5 403.5 177 399.5C171.5 396 169.5 388.5 173.5 382.5C177 377 185 375.5 190.5 379ZM218.5 393C225 395.5 228.5 402.5 226 409C223.5 415.5 216.5 418.5 210 416.5C204 414 200.5 407 203 400.5C205 394 212 391 218.5 393ZM249 400.5C256 401.5 261 407.5 260 414C259 421 253 425.5 246.5 425C239.5 424 235 418 235.5 411.5C236.5 404.5 242.5 399.5 249 400.5ZM280.5 400.5C287.5 399.5 293.5 404.5 294.5 411.5C295 418 290.5 424 283.5 425C277 425.5 270.5 421 270 414C269 407.5 274 401 280.5 400.5ZM311.5 393C318 391 325 394 327 400.5C329.5 407 326 414 320 416.5C313.5 418.5 306.5 415.5 304 409C301.5 402.5 305 395.5 311.5 393ZM339.5 379C345 375.5 353 377 356.5 382.5C360.5 388 358.5 396 353 399.5C347.5 403.5 340 402 336 396C332.5 390.5 334 383 339.5 379ZM363.5 358.5C368.5 354 376 353.5 381 358C386 363 386 370.5 381.5 375.5C377 380.5 369 381 364 376C359 371.5 359 363.5 363.5 358.5ZM382.5 333.5C386 327.5 393.5 325.5 399.5 329C405 332.5 407 340 404 346C400.5 351.5 393 353.5 387 350.5C381 347 379 339.5 382.5 333.5ZM395 304.5C397 298 403.5 294.5 410 296C417 298 420.5 305 418.5 311.5C416.5 318 409.5 322 403 320C396.5 318 393 311 395 304.5ZM400.5 273.5C401 266.5 406.5 261.5 413.5 262C420 262 425.5 268 425 275C424.5 281.5 419 287 412 286.5C405 286 400 280 400.5 273.5ZM398.5 242C397.5 235 402 229 408.5 227.5C415.5 226.5 421.5 231 423 237.5C424 244.5 419.5 250.5 413 252C406 253 400 248.5 398.5 242ZM389.5 211.5C387 205.5 389.5 198 396 195.5C402 193 409.5 195.5 412 202C415 208 412 215.5 405.5 218C399.5 221 392.5 218 389.5 211.5ZM374 184.5C370 179 371 171 376.5 167C382 163 389.5 164 393.5 169.5C397.5 175 396.5 183 391 187C385.5 191 378 190 374 184.5ZM352 161.5C347 157 346.5 149.5 350.5 144C355 139 363 138 368 142.5C373 147 374 154.5 369.5 160C365 165 357.5 166 352 161.5ZM326 144C320 141 317.5 133.5 320.5 127.5C323.5 121.5 331 119 337 122C343 125 345.5 132.5 342.5 138.5C339.5 144.5 332 147 326 144ZM296.5 133.5C289.5 131.5 285.5 125 287 118.5C289 112 295.5 108 302 109.5C308.5 111 312.5 117.5 311 124C309.5 131 303 135 296.5 133.5Z" stroke="#041822"/>
</svg>
