<svg width="530" height="530" viewBox="0 0 530 530" fill="none" xmlns="http://www.w3.org/2000/svg">
<path d="M262 178C273.5 162.5 278.5 155 284.5 147.5C289 140 286 142 286 142C276.5 150 267 160 257.5 171.5M247.5 198C242 206.5 215.5 245.5 209.5 254C206.5 258.5 203.5 263 201 267.5L196.5 274.5L192.5 281.5C187 291 181.5 300 176 309.5C171 318.5 166 327.5 161 336.5C158.5 340.5 156 345 153.5 349.5C151 353.5 149 358 147 362C142.5 370 138.5 378 135 385C120.5 414 111 433 111 433C110 435 110 437 110.5 437.5C111.5 438.5 113.5 437 114.5 435C114.5 435 123 420.5 135.5 398C179 388.5 223.5 373.5 246 335.5C253.5 322.5 252.5 313 252.5 313C252.5 313 242 313.5 235.5 313.5C254 294 271 273 287 251M301 231.5C328.5 191.5 351.5 149 371 104.5C377.5 89 383 71 375 57H375C366 41 343.5 37.5 327 44.5C310.5 51.5 298 66 287 80C270.5 101.5 254.5 123.5 239 146M242 191C194 254.5 148 343 124.5 388.5C121.5 345 137 300.5 166 268C183.5 234 203 200.5 224 168.5" stroke="#041822" stroke-width="4"/>
<path d="M8 229.5C41 239.5 135.5 271.5 101 273C93 273.5 45 267.5 64.5 285.5C67 288 79.5 293.5 135 316M412.5 429.5C410.5 428 406 425.5 404.5 424.5C403 423.5 402 423 346 400.5C316 388.5 273 371.5 231 354.5" stroke="#041822" stroke-width="2" stroke-linecap="round"/>
<path d="M522 236.5C489 246.5 384.5 281 419 283C427 283 475 277.5 455.5 295C453 297.5 428.5 305.5 373 328M110.5 438.5C112.5 437 114 435.5 115.5 434.5C117 433 118 432.5 174 410.5C204 398 307 355 349 338" stroke="#041822" stroke-width="2" stroke-linecap="round"/>
<path d="M392.5 367C398 371.5 409 389 410 423.5L403 418.5C402 412 396 396.5 383.5 388C371 379 373 362.5 375.5 355.5" stroke="#041822" stroke-width="7"/>
<path d="M176.5 54.5C175.5 53.5 173.5 52.5 170 52.5C166.5 52.5 162.5 54 158.5 56.5C155 59.5 152 62.5 150.5 65.5C149.5 68.5 149.5 71 150.5 72.5C151 73 151 73 151.5 73.5L152 74L152.5 74.5L360 345.5L361.5 347L360.5 349C360 350.5 360 352 360.5 352.5C361 353.5 362 354 363.5 354L368 355L366.5 358.5C367 358.5 367.5 358.5 368 358.5C370 358 373 356.5 376 355C379 353 381 350.5 382.5 349C382.5 348.5 383 348 383 347.5L379.5 347L380.5 343C381 341.5 380.5 340.5 380.5 339.5L380.5 339.5C380 339 379 338.5 377 338L375.5 338L374.5 336.5L177.5 58L177 57.5L177 56.5C177 56 176.5 55 176.5 54.5Z" stroke="#041822" stroke-width="7"/>
</svg>
