<svg width="530" height="530" viewBox="0 0 530 530" fill="none" xmlns="http://www.w3.org/2000/svg">
<circle cx="264" cy="173" r="10" fill="#041822"/>
<circle cx="264" cy="144.5" r="7" fill="#041822"/>
<circle cx="264" cy="120.5" r="5" fill="#041822"/>
<circle cx="264" cy="356.5" r="10" fill="#041822"/>
<circle cx="264" cy="385" r="7" fill="#041822"/>
<circle cx="264" cy="409" r="5" fill="#041822"/>
<path d="M381 130.5C434.5 179 479 217 479 274.5C479 331.5 432.5 378 375.5 378C360 378 345.5 374.5 332 368.5C300.5 354 265.5 309.5 265.5 309.5C237 273.5 211.5 220 165.5 210C99.5 195 56 279.5 103.5 327.5C131.5 355 176 355 203.5 327.5L239.5 297.5M148 415C94.5 366.5 50 328.5 50 271C50 214 96.5 167.5 153.5 167.5C169 167.5 183.5 171 197 177C228.5 191.5 263.5 236 263.5 236C292 272 317.5 325.5 363.5 335.5C429.5 350 473 266 425.5 218C397.5 190.5 353 190.5 325.5 218L290 248" stroke="#041822" stroke-width="11"/>
</svg>
