<svg width="530" height="530" viewBox="0 0 530 530" fill="none" xmlns="http://www.w3.org/2000/svg">
<path d="M333 259C309 290.5 302.5 329.5 311.5 364.5" stroke="#041822" stroke-width="7"/>
<path d="M356 189.5C356 172.5 342 159 325 159C308 159 294.5 172.5 294.5 189.5" stroke="#041822" stroke-width="7"/>
<path d="M251 243L254 182.5L256.5 66C256.5 55.5 265 47 275.5 47C286 47 294.5 55.5 294.5 66L297.5 175.5" stroke="#041822" stroke-width="7"/>
<path d="M289 247.5L294.5 188" stroke="#041822" stroke-width="7"/>
<path d="M220 250L227 80C227 69.5 235.5 61 246 61C249.5 60.5 256.5 62.5 256.5 71.5" stroke="#041822" stroke-width="7"/>
<path d="M241 384C241 412.5 264.5 436 293 436C311 436 327 426.5 336.5 412.5L381 343L382.5 334.5V272C382.5 260 388 254.5 376.5 240L362 221L359.5 189C357 188.5 350.5 188 346 189.5C331.5 194 325 215 325 229C325 250 337.5 268 355.5 276" stroke="#041822" stroke-width="7"/>
<path d="M330 205.5C319.5 205.5 308.5 196.5 308.5 186" stroke="#041822" stroke-width="7"/>
<path d="M215.5 475C177 420.5 161.5 351 175.5 288.5L179 266.5L196.5 129.5C196.5 121 203.5 114 212 114C214.5 114 221.5 116 224.5 126" stroke="#041822" stroke-width="7"/>
<path d="M212.5 473C224.5 477.5 240 479.5 257 479C293.5 477.5 322.5 462.5 322 445.5L319.5 429" stroke="#041822" stroke-width="7"/>
<path d="M292 94C386.5 109 451 198 436 292M94 238C82 313 120.5 384.5 184.5 418" stroke="#041822" stroke-width="7"/>
</svg>
