<svg width="530" height="530" viewBox="0 0 530 530" fill="none" xmlns="http://www.w3.org/2000/svg">
<g>
<path d="M125 235.5C127 234.5 129.5 233.5 131.5 232C147.5 247.5 176 248 198 234L201.5 240C177.5 255.5 144.5 255.5 125.5 236.5L125.5 236L125.5 236C125.5 236 125 236 125 235.5Z" fill="#041822"/>
<path d="M119.5 228.5C121.5 227 124 226 125.5 225C127 227 128.5 229 130 230.5C128 232 126 233 123.5 234C122 232 121 230.5 119.5 228.5Z" fill="#041822"/>
<path d="M159.5 90C184.5 65 215 57 247 57L247 64C216 64 188 72 164.5 95C149 111 132 136 123 161.5C115.5 184 114.5 206 124.5 223.5C122.5 224.5 120.5 225.5 118.5 226.5C107 207 109 182.5 116.5 159.5C125.5 132.5 143 106.5 159.5 90Z" fill="#041822"/>
<path d="M199.5 232C200 232 200 232 200 232C200 232 200 232 200 232C200 232 200.5 231.5 201 231.5C201.5 231 202.5 230 203.5 229C206 227 209.5 224 213.5 220C218 216 223 211 227.5 205.5C229 206.5 230.5 207.5 231.5 209C232 209.5 232.5 210 232.5 210C228 216 223 221 218.5 225.5C214.5 229 211 232 208 234.5C207 235.5 206 236 205 237C205 237 204.5 237.5 204.5 237.5C204 237.5 204 237.5 204 237.5C204 237.5 204 237.5 204 237.5C204 237.5 204 237.5 204 237.5C204 237.5 204 237.5 204 237.5L204 237.5L199.5 232L199.5 232C199.5 232 199.5 232 199.5 232ZM233 198C235 199.5 236.5 201 238 202.5C238 202.5 238 203 238.5 203C237 205 235.5 207 234 208.5C233.5 208.5 233.5 208 233 207.5C231.5 206 230.5 205 229 204C230.5 202 232 200 233 198ZM144 124C148.5 122 153 120.5 157 119C184 110 213 109 234 127.5L234 127.5L234 128C253 146.5 256 175.5 242.5 197C241.5 198.5 240.5 200 239.5 201.5C239.5 201.5 239.5 201 239.5 201C237.5 199.5 236 198 234.5 196.5C235 195.5 236 194.5 236.5 193.5C248 174.5 245.5 149.5 229 133C211 116.5 185.5 117 159.5 125.5C152 128 144.5 131 137.5 135C139.5 131 142 127.5 144 124ZM88 162C98 152 111 142 126 133C124 137 122 141 120 145C109.5 152 100 159.5 93 167C70.5 189.5 62.5 216.5 61.5 246C61.5 246 61.5 246 61.5 246C61.5 247 61.5 248 61.5 248C61.5 248.5 61.5 249 61.5 249.5L54.5 249.5L54.5 247.5C55 216 63.5 186.5 88 162ZM129 131.5C133 129.5 137 127.5 141 125.5C138.5 129 136.5 132.5 134.5 136.5C130.5 138.5 127 141 123 143C125 139 127 135 129 131.5Z" fill="#041822"/>
<path d="M254 265.5C256.5 265.5 259 265.5 261 265.5C261 266.5 261 267 261 268L254 267C254 266.5 254 266 254 265.5ZM254.5 256.5C256.5 256.5 259 256.5 261.5 256.5C261.5 259 261.5 261 261.5 263.5C259 263.5 256.5 263.5 254.5 263.5C254.5 261.5 254.5 259 254.5 256.5ZM194 183.5C196 183.5 199 183 201.5 183.5C206 183.5 210.5 184.5 214.5 186.5C223 190.5 231 195.5 238 202.5C252.5 217 260 235.5 261.5 254.5C259 254.5 256.5 254.5 254 254.5C253 237.5 246 220.5 233 207.5C226.5 201 219.5 196.5 212 193L211.5 192.5L211.5 192.5C208.5 191.5 205 190.5 201.5 190.5C198 190 194.5 190.5 193 190.5C192.5 191 192 191 191.5 191C192 188.5 193 186 194 183.5ZM183.5 186C185.5 185 188 184.5 190 184L191.5 184L191.5 184L191.5 184C190.5 186.5 190 189 189 191.5C186.5 192 184 193 181.5 194L181.5 194L181.5 193.5L182 192.5C182.5 190 183 188 183.5 186ZM54.5 249.5C67 247.5 85 243 102 236.5C119 229.5 135 221 144.5 211.5L150 206C159 197 170 190.5 181 186.5C181 188 180.5 189 180 190.5L180 192L180 192L180 192L179.5 193.5L179.5 193.5L179.5 193.5L179.5 193.5L179.5 193.5L179.5 194C179.5 194 179.5 194.5 179.5 194.5C170.5 198 162 203.5 155 211L149.5 216.5C139 227 122 236 104.5 243C87 249.5 69 254.5 55.5 256.5L54.5 249.5Z" fill="#041822"/>
<path d="M221.5 129.5C223.5 131 225.5 132.5 227.5 134C223.5 141 219 147 214 151.5L208.5 157C198 168 191 181 188.5 195C188 197 188 200 188 203.5C188.5 207 189 211 190.5 214L190.5 214L190.5 214C193 219.5 196 224.5 200 229.5C202 232 204 233.5 207.5 237.5C223.5 252 244.5 258.5 265 256L265.5 263C242.5 265.5 218 258 200.5 240C193.5 233 188 225.5 184 217C182 213 181.5 208 181 204C181 200 181 196 181.5 194L181.5 194L181.5 193.5L182 192.5C185 177.5 192 163.5 203.5 152L209 146.5C213.5 142 218 136.5 221.5 129.5Z" fill="#041822"/>
<path d="M199.5 232C199.5 232 199.5 232 199.5 232L200 232L200 232L201 231.5L201.5 231C202.5 232.5 204 234 205.5 235C205.5 235.5 206 236 206 236C206 236.5 205.5 236.5 205 237C205 237 204.5 237.5 204.5 237.5C204 237.5 204 237.5 204 237.5C204 237.5 204 237.5 204 237.5C204 237.5 204 237.5 204 237.5L204 237.5L204 237.5L199.5 232L199.5 232Z" fill="#041822"/>
<path d="M226 122C228 123 230 124.5 232 126C230.5 128 229.5 130 228.5 132C226.5 130.5 224.5 129 222.5 128C224 126 225 124 226 122Z" fill="#041822"/>
<path d="M254 58C252 71 247.5 89.5 240.5 106.5C238 112.5 235.5 118.5 233 124C231 122.5 229 121.5 227 120C229.5 115 232 109.5 234 104C240.5 87 245.5 69.5 247 57L254 58Z" fill="#041822"/>
</g>
<g transform="translate(529 2.5) rotate(90)">
<path d="M125 235.5C127 234.5 129.5 233.5 131.5 232C147.5 247.5 176 248 198 234L201.5 240C177.5 255.5 144.5 255.5 125.5 236.5L125.5 236L125.5 236C125.5 236 125 236 125 235.5Z" fill="#041822"/>
<path d="M119.5 228.5C121.5 227 124 226 125.5 225C127 227 128.5 229 130 230.5C128 232 126 233 123.5 234C122 232 121 230.5 119.5 228.5Z" fill="#041822"/>
<path d="M159.5 90C184.5 65 215 57 247 57L247 64C216 64 188 72 164.5 95C149 111 132 136 123 161.5C115.5 184 114.5 206 124.5 223.5C122.5 224.5 120.5 225.5 118.5 226.5C107 207 109 182.5 116.5 159.5C125.5 132.5 143 106.5 159.5 90Z" fill="#041822"/>
<path d="M199.5 232C200 232 200 232 200 232C200 232 200 232 200 232C200 232 200.5 231.5 201 231.5C201.5 231 202.5 230 203.5 229C206 227 209.5 224 213.5 220C218 216 223 211 227.5 205.5C229 206.5 230.5 207.5 231.5 209C232 209.5 232.5 210 232.5 210C228 216 223 221 218.5 225.5C214.5 229 211 232 208 234.5C207 235.5 206 236 205 237C205 237 204.5 237.5 204.5 237.5C204 237.5 204 237.5 204 237.5C204 237.5 204 237.5 204 237.5C204 237.5 204 237.5 204 237.5C204 237.5 204 237.5 204 237.5L204 237.5L199.5 232L199.5 232C199.5 232 199.5 232 199.5 232ZM233 198C235 199.5 236.5 201 238 202.5C238 202.5 238 203 238.5 203C237 205 235.5 207 234 208.5C233.5 208.5 233.5 208 233 207.5C231.5 206 230.5 205 229 204C230.5 202 232 200 233 198ZM144 124C148.5 122 153 120.5 157 119C184 110 213 109 234 127.5L234 127.5L234 128C253 146.5 256 175.5 242.5 197C241.5 198.5 240.5 200 239.5 201.5C239.5 201.5 239.5 201 239.5 201C237.5 199.5 236 198 234.5 196.5C235 195.5 236 194.5 236.5 193.5C248 174.5 245.5 149.5 229 133C211 116.5 185.5 117 159.5 125.5C152 128 144.5 131 137.5 135C139.5 131 142 127.5 144 124ZM88 162C98 152 111 142 126 133C124 137 122 141 120 145C109.5 152 100 159.5 93 167C70.5 189.5 62.5 216.5 61.5 246C61.5 246 61.5 246 61.5 246C61.5 247 61.5 248 61.5 248C61.5 248.5 61.5 249 61.5 249.5L54.5 249.5L54.5 247.5C55 216 63.5 186.5 88 162ZM129 131.5C133 129.5 137 127.5 141 125.5C138.5 129 136.5 132.5 134.5 136.5C130.5 138.5 127 141 123 143C125 139 127 135 129 131.5Z" fill="#041822"/>
<path d="M254 265.5C256.5 265.5 259 265.5 261 265.5C261 266.5 261 267 261 268L254 267C254 266.5 254 266 254 265.5ZM254.5 256.5C256.5 256.5 259 256.5 261.5 256.5C261.5 259 261.5 261 261.5 263.5C259 263.5 256.5 263.5 254.5 263.5C254.5 261.5 254.5 259 254.5 256.5ZM194 183.5C196 183.5 199 183 201.5 183.5C206 183.5 210.5 184.5 214.5 186.5C223 190.5 231 195.5 238 202.5C252.5 217 260 235.5 261.5 254.5C259 254.5 256.5 254.5 254 254.5C253 237.5 246 220.5 233 207.5C226.5 201 219.5 196.5 212 193L211.5 192.5L211.5 192.5C208.5 191.5 205 190.5 201.5 190.5C198 190 194.5 190.5 193 190.5C192.5 191 192 191 191.5 191C192 188.5 193 186 194 183.5ZM183.5 186C185.5 185 188 184.5 190 184L191.5 184L191.5 184L191.5 184C190.5 186.5 190 189 189 191.5C186.5 192 184 193 181.5 194L181.5 194L181.5 193.5L182 192.5C182.5 190 183 188 183.5 186ZM54.5 249.5C67 247.5 85 243 102 236.5C119 229.5 135 221 144.5 211.5L150 206C159 197 170 190.5 181 186.5C181 188 180.5 189 180 190.5L180 192L180 192L180 192L179.5 193.5L179.5 193.5L179.5 193.5L179.5 193.5L179.5 193.5L179.5 194C179.5 194 179.5 194.5 179.5 194.5C170.5 198 162 203.5 155 211L149.5 216.5C139 227 122 236 104.5 243C87 249.5 69 254.5 55.5 256.5L54.5 249.5Z" fill="#041822"/>
<path d="M221.5 129.5C223.5 131 225.5 132.5 227.5 134C223.5 141 219 147 214 151.5L208.5 157C198 168 191 181 188.5 195C188 197 188 200 188 203.5C188.5 207 189 211 190.5 214L190.5 214L190.5 214C193 219.5 196 224.5 200 229.5C202 232 204 233.5 207.5 237.5C223.5 252 244.5 258.5 265 256L265.5 263C242.5 265.5 218 258 200.5 240C193.5 233 188 225.5 184 217C182 213 181.5 208 181 204C181 200 181 196 181.5 194L181.5 194L181.5 193.5L182 192.5C185 177.5 192 163.5 203.5 152L209 146.5C213.5 142 218 136.5 221.5 129.5Z" fill="#041822"/>
<path d="M199.5 232C199.5 232 199.5 232 199.5 232L200 232L200 232L201 231.5L201.5 231C202.5 232.5 204 234 205.5 235C205.5 235.5 206 236 206 236C206 236.5 205.5 236.5 205 237C205 237 204.5 237.5 204.5 237.5C204 237.5 204 237.5 204 237.5C204 237.5 204 237.5 204 237.5C204 237.5 204 237.5 204 237.5L204 237.5L204 237.5L199.5 232L199.5 232Z" fill="#041822"/>
<path d="M226 122C228 123 230 124.5 232 126C230.5 128 229.5 130 228.5 132C226.5 130.5 224.5 129 222.5 128C224 126 225 124 226 122Z" fill="#041822"/>
<path d="M254 58C252 71 247.5 89.5 240.5 106.5C238 112.5 235.5 118.5 233 124C231 122.5 229 121.5 227 120C229.5 115 232 109.5 234 104C240.5 87 245.5 69.5 247 57L254 58Z" fill="#041822"/>
</g>
<g transform="translate(526.5 531) rotate(-180)">
<path d="M125 235.5C127 234.5 129.5 233.5 131.5 232C147.5 247.5 176 248 198 234L201.5 240C177.5 255.5 144.5 255.5 125.5 236.5L125.5 236L125.5 236C125.5 236 125 236 125 235.5Z" fill="#041822"/>
<path d="M119.5 228.5C121.5 227 124 226 125.5 225C127 227 128.5 229 130 230.5C128 232 126 233 123.5 234C122 232 121 230.5 119.5 228.5Z" fill="#041822"/>
<path d="M159.5 90C184.5 65 215 57 247 57L247 64C216 64 188 72 164.5 95C149 111 132 136 123 161.5C115.5 184 114.5 206 124.5 223.5C122.5 224.5 120.5 225.5 118.5 226.5C107 207 109 182.5 116.5 159.5C125.5 132.5 143 106.5 159.5 90Z" fill="#041822"/>
<path d="M199.5 232C200 232 200 232 200 232C200 232 200 232 200 232C200 232 200.5 231.5 201 231.5C201.5 231 202.5 230 203.5 229C206 227 209.5 224 213.5 220C218 216 223 211 227.5 205.5C229 206.5 230.5 207.5 231.5 209C232 209.5 232.5 210 232.5 210C228 216 223 221 218.5 225.5C214.5 229 211 232 208 234.5C207 235.5 206 236 205 237C205 237 204.5 237.5 204.5 237.5C204 237.5 204 237.5 204 237.5C204 237.5 204 237.5 204 237.5C204 237.5 204 237.5 204 237.5C204 237.5 204 237.5 204 237.5L204 237.5L199.5 232L199.5 232C199.5 232 199.5 232 199.5 232ZM233 198C235 199.5 236.5 201 238 202.5C238 202.5 238 203 238.5 203C237 205 235.5 207 234 208.5C233.5 208.5 233.5 208 233 207.5C231.5 206 230.5 205 229 204C230.5 202 232 200 233 198ZM144 124C148.5 122 153 120.5 157 119C184 110 213 109 234 127.5L234 127.5L234 128C253 146.5 256 175.5 242.5 197C241.5 198.5 240.5 200 239.5 201.5C239.5 201.5 239.5 201 239.5 201C237.5 199.5 236 198 234.5 196.5C235 195.5 236 194.5 236.5 193.5C248 174.5 245.5 149.5 229 133C211 116.5 185.5 117 159.5 125.5C152 128 144.5 131 137.5 135C139.5 131 142 127.5 144 124ZM88 162C98 152 111 142 126 133C124 137 122 141 120 145C109.5 152 100 159.5 93 167C70.5 189.5 62.5 216.5 61.5 246C61.5 246 61.5 246 61.5 246C61.5 247 61.5 248 61.5 248C61.5 248.5 61.5 249 61.5 249.5L54.5 249.5L54.5 247.5C55 216 63.5 186.5 88 162ZM129 131.5C133 129.5 137 127.5 141 125.5C138.5 129 136.5 132.5 134.5 136.5C130.5 138.5 127 141 123 143C125 139 127 135 129 131.5Z" fill="#041822"/>
<path d="M254 265.5C256.5 265.5 259 265.5 261 265.5C261 266.5 261 267 261 268L254 267C254 266.5 254 266 254 265.5ZM254.5 256.5C256.5 256.5 259 256.5 261.5 256.5C261.5 259 261.5 261 261.5 263.5C259 263.5 256.5 263.5 254.5 263.5C254.5 261.5 254.5 259 254.5 256.5ZM194 183.5C196 183.5 199 183 201.5 183.5C206 183.5 210.5 184.5 214.5 186.5C223 190.5 231 195.5 238 202.5C252.5 217 260 235.5 261.5 254.5C259 254.5 256.5 254.5 254 254.5C253 237.5 246 220.5 233 207.5C226.5 201 219.5 196.5 212 193L211.5 192.5L211.5 192.5C208.5 191.5 205 190.5 201.5 190.5C198 190 194.5 190.5 193 190.5C192.5 191 192 191 191.5 191C192 188.5 193 186 194 183.5ZM183.5 186C185.5 185 188 184.5 190 184L191.5 184L191.5 184L191.5 184C190.5 186.5 190 189 189 191.5C186.5 192 184 193 181.5 194L181.5 194L181.5 193.5L182 192.5C182.5 190 183 188 183.5 186ZM54.5 249.5C67 247.5 85 243 102 236.5C119 229.5 135 221 144.5 211.5L150 206C159 197 170 190.5 181 186.5C181 188 180.5 189 180 190.5L180 192L180 192L180 192L179.5 193.5L179.5 193.5L179.5 193.5L179.5 193.5L179.5 193.5L179.5 194C179.5 194 179.5 194.5 179.5 194.5C170.5 198 162 203.5 155 211L149.5 216.5C139 227 122 236 104.5 243C87 249.5 69 254.5 55.5 256.5L54.5 249.5Z" fill="#041822"/>
<path d="M221.5 129.5C223.5 131 225.5 132.5 227.5 134C223.5 141 219 147 214 151.5L208.5 157C198 168 191 181 188.5 195C188 197 188 200 188 203.5C188.5 207 189 211 190.5 214L190.5 214L190.5 214C193 219.5 196 224.5 200 229.5C202 232 204 233.5 207.5 237.5C223.5 252 244.5 258.5 265 256L265.5 263C242.5 265.5 218 258 200.5 240C193.5 233 188 225.5 184 217C182 213 181.5 208 181 204C181 200 181 196 181.5 194L181.5 194L181.5 193.5L182 192.5C185 177.5 192 163.5 203.5 152L209 146.5C213.5 142 218 136.5 221.5 129.5Z" fill="#041822"/>
<path d="M199.5 232C199.5 232 199.5 232 199.5 232L200 232L200 232L201 231.5L201.5 231C202.5 232.5 204 234 205.5 235C205.5 235.5 206 236 206 236C206 236.5 205.5 236.5 205 237C205 237 204.5 237.5 204.5 237.5C204 237.5 204 237.5 204 237.5C204 237.5 204 237.5 204 237.5C204 237.5 204 237.5 204 237.5L204 237.5L204 237.5L199.5 232L199.5 232Z" fill="#041822"/>
<path d="M226 122C228 123 230 124.5 232 126C230.5 128 229.5 130 228.5 132C226.5 130.5 224.5 129 222.5 128C224 126 225 124 226 122Z" fill="#041822"/>
<path d="M254 58C252 71 247.5 89.5 240.5 106.5C238 112.5 235.5 118.5 233 124C231 122.5 229 121.5 227 120C229.5 115 232 109.5 234 104C240.5 87 245.5 69.5 247 57L254 58Z" fill="#041822"/>
</g>
<g transform="translate(-2.5 529) rotate(-90)">
<path d="M125 235.5C127 234.5 129.5 233.5 131.5 232C147.5 247.5 176 248 198 234L201.5 240C177.5 255.5 144.5 255.5 125.5 236.5L125.5 236L125.5 236C125.5 236 125 236 125 235.5Z" fill="#041822"/>
<path d="M119.5 228.5C121.5 227 124 226 125.5 225C127 227 128.5 229 130 230.5C128 232 126 233 123.5 234C122 232 121 230.5 119.5 228.5Z" fill="#041822"/>
<path d="M159.5 90C184.5 65 215 57 247 57L247 64C216 64 188 72 164.5 95C149 111 132 136 123 161.5C115.5 184 114.5 206 124.5 223.5C122.5 224.5 120.5 225.5 118.5 226.5C107 207 109 182.5 116.5 159.5C125.5 132.5 143 106.5 159.5 90Z" fill="#041822"/>
<path d="M199.5 232C200 232 200 232 200 232C200 232 200 232 200 232C200 232 200.5 231.5 201 231.5C201.5 231 202.5 230 203.5 229C206 227 209.5 224 213.5 220C218 216 223 211 227.5 205.5C229 206.5 230.5 207.5 231.5 209C232 209.5 232.5 210 232.5 210C228 216 223 221 218.5 225.5C214.5 229 211 232 208 234.5C207 235.5 206 236 205 237C205 237 204.5 237.5 204.5 237.5C204 237.5 204 237.5 204 237.5C204 237.5 204 237.5 204 237.5C204 237.5 204 237.5 204 237.5C204 237.5 204 237.5 204 237.5L204 237.5L199.5 232L199.5 232C199.5 232 199.5 232 199.5 232ZM233 198C235 199.5 236.5 201 238 202.5C238 202.5 238 203 238.5 203C237 205 235.5 207 234 208.5C233.5 208.5 233.5 208 233 207.5C231.5 206 230.5 205 229 204C230.5 202 232 200 233 198ZM144 124C148.5 122 153 120.5 157 119C184 110 213 109 234 127.5L234 127.5L234 128C253 146.5 256 175.5 242.5 197C241.5 198.5 240.5 200 239.5 201.5C239.5 201.5 239.5 201 239.5 201C237.5 199.5 236 198 234.5 196.5C235 195.5 236 194.5 236.5 193.5C248 174.5 245.5 149.5 229 133C211 116.5 185.5 117 159.5 125.5C152 128 144.5 131 137.5 135C139.5 131 142 127.5 144 124ZM88 162C98 152 111 142 126 133C124 137 122 141 120 145C109.5 152 100 159.5 93 167C70.5 189.5 62.5 216.5 61.5 246C61.5 246 61.5 246 61.5 246C61.5 247 61.5 248 61.5 248C61.5 248.5 61.5 249 61.5 249.5L54.5 249.5L54.5 247.5C55 216 63.5 186.5 88 162ZM129 131.5C133 129.5 137 127.5 141 125.5C138.5 129 136.5 132.5 134.5 136.5C130.5 138.5 127 141 123 143C125 139 127 135 129 131.5Z" fill="#041822"/>
<path d="M254 265.5C256.5 265.5 259 265.5 261 265.5C261 266.5 261 267 261 268L254 267C254 266.5 254 266 254 265.5ZM254.5 256.5C256.5 256.5 259 256.5 261.5 256.5C261.5 259 261.5 261 261.5 263.5C259 263.5 256.5 263.5 254.5 263.5C254.5 261.5 254.5 259 254.5 256.5ZM194 183.5C196 183.5 199 183 201.5 183.5C206 183.5 210.5 184.5 214.5 186.5C223 190.5 231 195.5 238 202.5C252.5 217 260 235.5 261.5 254.5C259 254.5 256.5 254.5 254 254.5C253 237.5 246 220.5 233 207.5C226.5 201 219.5 196.5 212 193L211.5 192.5L211.5 192.5C208.5 191.5 205 190.5 201.5 190.5C198 190 194.5 190.5 193 190.5C192.5 191 192 191 191.5 191C192 188.5 193 186 194 183.5ZM183.5 186C185.5 185 188 184.5 190 184L191.5 184L191.5 184L191.5 184C190.5 186.5 190 189 189 191.5C186.5 192 184 193 181.5 194L181.5 194L181.5 193.5L182 192.5C182.5 190 183 188 183.5 186ZM54.5 249.5C67 247.5 85 243 102 236.5C119 229.5 135 221 144.5 211.5L150 206C159 197 170 190.5 181 186.5C181 188 180.5 189 180 190.5L180 192L180 192L180 192L179.5 193.5L179.5 193.5L179.5 193.5L179.5 193.5L179.5 193.5L179.5 194C179.5 194 179.5 194.5 179.5 194.5C170.5 198 162 203.5 155 211L149.5 216.5C139 227 122 236 104.5 243C87 249.5 69 254.5 55.5 256.5L54.5 249.5Z" fill="#041822"/>
<path d="M221.5 129.5C223.5 131 225.5 132.5 227.5 134C223.5 141 219 147 214 151.5L208.5 157C198 168 191 181 188.5 195C188 197 188 200 188 203.5C188.5 207 189 211 190.5 214L190.5 214L190.5 214C193 219.5 196 224.5 200 229.5C202 232 204 233.5 207.5 237.5C223.5 252 244.5 258.5 265 256L265.5 263C242.5 265.5 218 258 200.5 240C193.5 233 188 225.5 184 217C182 213 181.5 208 181 204C181 200 181 196 181.5 194L181.5 194L181.5 193.5L182 192.5C185 177.5 192 163.5 203.5 152L209 146.5C213.5 142 218 136.5 221.5 129.5Z" fill="#041822"/>
<path d="M199.5 232C199.5 232 199.5 232 199.5 232L200 232L200 232L201 231.5L201.5 231C202.5 232.5 204 234 205.5 235C205.5 235.5 206 236 206 236C206 236.5 205.5 236.5 205 237C205 237 204.5 237.5 204.5 237.5C204 237.5 204 237.5 204 237.5C204 237.5 204 237.5 204 237.5C204 237.5 204 237.5 204 237.5L204 237.5L204 237.5L199.5 232L199.5 232Z" fill="#041822"/>
<path d="M226 122C228 123 230 124.5 232 126C230.5 128 229.5 130 228.5 132C226.5 130.5 224.5 129 222.5 128C224 126 225 124 226 122Z" fill="#041822"/>
<path d="M254 58C252 71 247.5 89.5 240.5 106.5C238 112.5 235.5 118.5 233 124C231 122.5 229 121.5 227 120C229.5 115 232 109.5 234 104C240.5 87 245.5 69.5 247 57L254 58Z" fill="#041822"/>
</g>
</svg>
