<svg width="530" height="530" viewBox="0 0 530 530" fill="none" xmlns="http://www.w3.org/2000/svg">
<circle cx="265" cy="265" r="159" stroke="#041822" stroke-width="2"/>
<path d="M133.5 257.5C135.5 224.5 149 195 170.5 173M133.5 272.5C135.5 305.5 149 335 170.5 357M396.5 273C394.5 305.5 380.5 335 359.5 357M396.5 257C394.5 224.5 380.5 195 359.5 173M273.5 133.5C305.5 135.5 335 149.5 357 170.5M257.5 133.5C224.5 135.5 195 149 173 170.5M273 396.5C305.5 394.5 335 380.5 357 359.5M257.5 396.5C224.5 394.5 195 381 173 359.5" stroke="#041822" stroke-width="7"/>
<path d="M178 275.5L164 274.5L135 273L21 265L135 257L164 255.5L171 255M253 199.5L253.5 192.5L257 135L265 21L273 135L276.5 192.5L277 199.5M359 255L366 255.5L395 257L509 265L395 273L366 274.5L352 275.5M254.5 356L255 359L255.5 366L257 395L265 509L273 395L274.5 366L275 359L275.5 355" stroke="#041822" stroke-width="7"/>
<path d="M203.5 197.5L196.5 191.5L183 179.5L155.5 155.5L179.5 183L191.5 196.5L195.5 201.5M335.5 200L338.5 196.5L350.5 183L374.5 155.5L347 179.5L333.5 191.5L326.5 197.5M209.5 313L203.5 320L155.5 374.5L210.5 326.5L217 320.5M313 320.5L319.5 326.5L374.5 374.5L326.5 320L320.5 313" stroke="#041822" stroke-width="2"/>
<path fill-rule="evenodd" clip-rule="evenodd" d="M183.5 207C206 184.5 242 184.5 264.5 206.5C287 184.5 323.5 184.5 346 207C368.5 229.5 368.5 266 346 288.5C346 288.5 345.5 288.5 345.5 289L345.5 289L264.5 370L264.5 370L264.5 370L183.5 289L183.5 289C183.5 288.5 183.5 288.5 183.5 288.5C161 266 161 229.5 183.5 207Z" fill="#041822"/>
<path d="M225.5 247.5L303.5 247.5L264.5 299.5L225.5 247.5Z" stroke="#041822" stroke-width="4"/>
</svg>
