<svg width="530" height="530" viewBox="0 0 530 530" fill="none" xmlns="http://www.w3.org/2000/svg">
<path d="M123.5 382.5L121 380L82 416.5L85 419L123.5 382.5Z" fill="#041822"/>
<path d="M119.5 388L116.5 317.5L112.5 317.5L115.5 388L119.5 388Z" fill="#041822"/>
<circle cx="117.5" cy="382" r="19.5" fill="#041822"/>
<circle cx="89.5" cy="415.5" r="14.5" fill="#041822"/>
<path d="M176.5 161L172.5 160.5L168 211L172 211.5L176.5 161Z" fill="#041822"/>
<circle cx="175" cy="165" r="14.5" fill="#041822"/>
<path d="M183 253L175 219.5L171 220.5L179 254L183 253Z" fill="#041822"/>
<circle cx="182" cy="258.5" r="14.5" fill="#041822"/>
<path d="M241.5 236L238 238L275.5 302L279 300L241.5 236Z" fill="#041822"/>
<path d="M229.5 243L226 245L263.5 309L266.5 307L229.5 243Z" fill="#041822"/>
<path d="M420 244L416.5 242L380.5 306.5L384 308.5L420 244Z" fill="#041822"/>
<path d="M407.5 237L404 235L368.5 300L372 301.5L407.5 237Z" fill="#041822"/>
<path d="M274 160.5L271 158.5L233.5 222.5L237 224.5L274 160.5Z" fill="#041822"/>
<path d="M365.5 317L365.5 313L291.5 314L291.5 318L365.5 317Z" fill="#041822"/>
<path d="M413.5 227.5L416.5 225.5L379 162L375.5 164L413.5 227.5Z" fill="#041822"/>
<path d="M365.5 165L365.5 161L291.5 161.5L291.5 165.5L365.5 165Z" fill="#041822"/>
<path d="M363 149.5L363 145.5L289 146L289 150L363 149.5Z" fill="#041822"/>
<path d="M279.5 312L276.5 309.5L248.5 355L252 357L279.5 312Z" fill="#041822"/>
<circle cx="253.5" cy="353" r="15.5" fill="#041822"/>
<circle cx="277.5" cy="315" r="21.5" fill="#041822"/>
<path d="M228 226.5L176 214.5L175 218L227 230.5L228 226.5Z" fill="#041822"/>
<circle cx="230.5" cy="232.5" r="21.5" fill="#041822"/>
<path d="M280 156.5L250.5 112L247 114L276.5 158.5L280 156.5Z" fill="#041822"/>
<circle cx="252" cy="117.5" r="15.5" fill="#041822"/>
<circle cx="276" cy="155" r="21.5" fill="#041822"/>
<path d="M392 108.5L388 107L366 155L369.5 157L392 108.5Z" fill="#041822"/>
<circle cx="388" cy="114" r="15.5" fill="#041822"/>
<circle cx="369" cy="154" r="21.5" fill="#041822"/>
<path d="M392 355.5L368 308L364.5 310L388.5 357.5L392 355.5Z" fill="#041822"/>
<circle cx="389.5" cy="355" r="15.5" fill="#041822"/>
<circle cx="370" cy="314.5" r="21.5" fill="#041822"/>
<path d="M520.5 280L488.5 234.5L485 237L517 282.5L520.5 280Z" fill="#041822"/>
<path d="M489.5 233L416 232L416 236L489.5 237L489.5 233Z" fill="#041822"/>
<circle cx="415.5" cy="234" r="21.5" fill="#041822"/>
<circle cx="485" cy="237.5" r="20.5" fill="#041822"/>
<circle cx="514.5" cy="278" r="15.5" fill="#041822"/>
<path d="M116.5 247L110 176.5L106 177L112.5 247.5L116.5 247Z" fill="#041822"/>
<path d="M172 215.5L170.5 212L105.5 239.5L107 243L172 215.5Z" fill="#041822"/>
<path d="M117.5 313.5L114 243.5L110 243.5L113.5 314L117.5 313.5Z" fill="#041822"/>
<path d="M106.5 241L106.5 237L55.5 240.5L56 244.5L106.5 241Z" fill="#041822"/>
<circle cx="60" cy="240.5" r="14.5" fill="#041822"/>
<circle cx="114.5" cy="239.5" r="20.5" fill="#041822"/>
<circle cx="115.5" cy="324" r="20.5" fill="#041822"/>
<path d="M99.5 317.5C99.5 316 97.5 315.5 95.5 315.5L58 315C58 315 58 315 58 315C56 315 54 316 54 317C54 317 54 317 54 317C54.5 318 56.5 319 58.5 319L95.5 319C96 319 96 319 96 319C98 319 99.5 318.5 99.5 317.5C99.5 317.5 99.5 317.5 99.5 317.5Z" fill="#041822"/>
<path d="M100 327C100 325.5 98 325 95.5 325L58.5 324.5C58.5 324.5 58.5 324.5 58.5 324.5C56.5 324.5 54.5 325.5 54.5 326.5C54.5 326.5 54.5 326.5 54.5 326.5C55 327.5 56.5 328.5 59 328.5L96 328.5C96 328.5 96 328.5 96 328.5C98 328.5 100 328 100 327C100 327 100 327 100 327Z" fill="#041822"/>
<circle cx="62.5" cy="324" r="19.5" fill="#041822"/>
<path d="M102.5 163.5L56 135L53.5 138.5L100.5 167L102.5 163.5Z" fill="#041822"/>
<circle cx="59.5" cy="137" r="15" fill="#041822"/>
<path d="M144 117.5L140.5 115.5L110.5 161.5L114 163.5L144 117.5Z" fill="#041822"/>
<circle cx="139.5" cy="122" r="15" fill="#041822"/>
<circle cx="107.5" cy="167" r="22.5" fill="#041822"/>
<circle cx="172.5" cy="215" r="20.5" fill="#041822"/>
</svg>
