<svg width="530" height="530" viewBox="0 0 530 530" fill="none" xmlns="http://www.w3.org/2000/svg">
<path opacity="0.5" d="M240 254L103 254" stroke="#041822" stroke-width="3.5" stroke-miterlimit="10" stroke-linejoin="round"/>
<path opacity="0.5" d="M437 254L291 254" stroke="#041822" stroke-width="3.5" stroke-miterlimit="10" stroke-linejoin="round"/>
<circle cx="464" cy="254" r="26" fill="#041822" stroke="#041822" stroke-width="6.5" stroke-miterlimit="10" stroke-linejoin="round"/>
<circle cx="347" cy="212" r="26" fill="#041822" stroke="#041822" stroke-width="6.5" stroke-miterlimit="10" stroke-linejoin="round"/>
<circle cx="266" cy="68" r="26" fill="#041822" stroke="#041822" stroke-width="6.5" stroke-miterlimit="10" stroke-linejoin="round"/>
<circle cx="266" cy="166" r="26" fill="#041822" stroke="#041822" stroke-width="6.5" stroke-miterlimit="10" stroke-linejoin="round"/>
<circle cx="186" cy="212" r="26" fill="#041822" stroke="#041822" stroke-width="6.5" stroke-miterlimit="10" stroke-linejoin="round"/>
<path d="M89 270L253 436" stroke="#041822" stroke-width="3.5" stroke-miterlimit="10" stroke-linejoin="round"/>
<path d="M285 86L449 238" stroke="#041822" stroke-width="3.5" stroke-miterlimit="10" stroke-linejoin="round"/>
<path d="M207.5 212.5L324 212" stroke="#041822" stroke-width="3.5" stroke-miterlimit="10" stroke-linejoin="round"/>
<path d="M251 89L223 140.5L195 192" stroke="#041822" stroke-width="3.5" stroke-miterlimit="10" stroke-linejoin="round"/>
<path d="M278 90L336 192" stroke="#041822" stroke-width="3.5" stroke-miterlimit="10" stroke-linejoin="round"/>
<path opacity="0.5" d="M267 96L266 141" stroke="#041822" stroke-width="3.5" stroke-miterlimit="10" stroke-linejoin="round"/>
<path opacity="0.5" d="M204 201L246 176" stroke="#041822" stroke-width="3.5" stroke-miterlimit="10" stroke-linejoin="round"/>
<path opacity="0.5" d="M329 202L285 176" stroke="#041822" stroke-width="3.5" stroke-miterlimit="10" stroke-linejoin="round"/>
<circle cx="266" cy="254" r="26" fill="#041822" stroke="#041822" stroke-width="6.5" stroke-miterlimit="10" stroke-linejoin="round"/>
<circle cx="266" cy="353" r="26" fill="#041822" stroke="#041822" stroke-width="6.5" stroke-miterlimit="10" stroke-linejoin="round"/>
<circle cx="350" cy="307" r="26" fill="#041822" stroke="#041822" stroke-width="6.5" stroke-miterlimit="10" stroke-linejoin="round"/>
<circle cx="77" cy="254" r="26" fill="#041822" stroke="#041822" stroke-width="6.5" stroke-miterlimit="10" stroke-linejoin="round"/>
<circle cx="186" cy="307" r="26" fill="#041822" stroke="#041822" stroke-width="6.5" stroke-miterlimit="10" stroke-linejoin="round"/>
<circle cx="266" cy="447" r="26" fill="#041822" stroke="#041822" stroke-width="6.5" stroke-miterlimit="10" stroke-linejoin="round"/>
<path d="M201 305H331" stroke="#041822" stroke-width="3.5" stroke-miterlimit="10" stroke-linejoin="round"/>
<path d="M246 342L204 318" stroke="#041822" stroke-width="3.5" stroke-miterlimit="10" stroke-linejoin="round"/>
<path d="M331 298L206 222" stroke="#041822" stroke-width="3.5" stroke-miterlimit="10" stroke-linejoin="round"/>
<path d="M266 377L266 421" stroke="#041822" stroke-width="3.5" stroke-miterlimit="10" stroke-linejoin="round"/>
</svg>
