<svg width="530" height="530" viewBox="0 0 530 530" fill="none" xmlns="http://www.w3.org/2000/svg">
<path d="M255.5 71C289.5 117.5 301.5 149 303 171C304.5 194.5 294.5 208 286.5 220.5C283 226.5 277 234 270.5 242.5C263.5 251.5 256 261 248.5 271.5C233 293 217.5 318 209.5 344.5C201 371.5 212 400 224 420.5C230 431 236.5 439.5 241.5 445.5C187 421 151 392.5 147.5 344C147 331 150.5 315.5 157 299C163.5 282.5 172.5 265.5 182.5 249C202.5 216 224.5 187.5 233 175C241.5 162.5 250 150.5 254.5 133C258.5 117.5 259.5 98 255.5 71Z" stroke="#041822" stroke-width="6" stroke-linejoin="round"/>
<path d="M269.5 418.5C269.5 418.5 253.5 388.5 283.5 351C314 313 329.5 299 338.5 269C348 239 340 204 323 187" stroke="#041822" stroke-width="3.5" stroke-linejoin="round"/>
<path d="M366 257.5C367 259.5 368 261 369.5 263C374.5 272.5 380 285 382 296.5C386 320.5 377 342 364.5 360C351.5 378 334.5 392.5 322.5 402.5C309.5 413.5 301.5 424.5 296.5 432.5C295 434.5 294.5 436 293.5 437.5C291.5 414.5 299.5 396.5 311 377.5C318 367 325.5 356.5 334 344.5C342 333 350 320.5 357 306.5C364 292 366 276.5 366 265C366 262 366 260 366 257.5Z" stroke="#041822" stroke-width="6" stroke-linejoin="round"/>
<path d="M438 265C438 188 388 123 318.5 100.5M92 265C92 188 142 123 211.5 100.5" stroke="#041822" stroke-width="4"/>
<path d="M92 265C92 342 142 407 211.5 429.5M438 265C438 342 388 407 318.5 429.5" stroke="#041822" stroke-width="4"/>
</svg>
