<svg width="530" height="530" viewBox="0 0 530 530" fill="none" xmlns="http://www.w3.org/2000/svg">
<circle cx="265.5" cy="287" r="29.5" stroke="#041822" stroke-width="4"/>
<circle cx="265.5" cy="208" r="7.5" stroke="#041822" stroke-width="4"/>
<circle cx="265.5" cy="175.5" r="7.5" stroke="#041822" stroke-width="4"/>
<circle cx="265.5" cy="139" r="7.5" stroke="#041822" stroke-width="4"/>
<circle cx="265.5" cy="109" r="7.5" stroke="#041822" stroke-width="4"/>
<path d="M227 80.5C324.5 60 422 119.5 448 216.5C475 317.5 415 421 314.5 448C213.5 475 110 415 83 314.5C72.5 276 75 237.5 87.5 202.5C80 229.5 79.5 258.5 87.5 287.5C111 375.5 202 428 290 404.5C378.5 381 430.5 290 407 202C385.5 121 308 70.5 227 80.5Z" fill="#041822"/>
</svg>
