<svg width="530" height="530" viewBox="0 0 530 530" fill="none" xmlns="http://www.w3.org/2000/svg">
<path opacity="0.5" d="M234 261L97 261" stroke="#041822" stroke-width="3.5" stroke-miterlimit="10" stroke-linejoin="round"/>
<path opacity="0.5" d="M431 261L285 261" stroke="#041822" stroke-width="3.5" stroke-miterlimit="10" stroke-linejoin="round"/>
<circle cx="458" cy="261" r="26" fill="#041822" stroke="#041822" stroke-width="6.5" stroke-miterlimit="10" stroke-linejoin="round"/>
<circle cx="341" cy="219" r="26" fill="#041822" stroke="#041822" stroke-width="6.5" stroke-miterlimit="10" stroke-linejoin="round"/>
<circle cx="260" cy="75" r="26" fill="#041822" stroke="#041822" stroke-width="6.5" stroke-miterlimit="10" stroke-linejoin="round"/>
<circle cx="260" cy="173" r="26" fill="#041822" stroke="#041822" stroke-width="6.5" stroke-miterlimit="10" stroke-linejoin="round"/>
<circle cx="180" cy="219" r="26" fill="#041822" stroke="#041822" stroke-width="6.5" stroke-miterlimit="10" stroke-linejoin="round"/>
<path d="M83 277L247 443" stroke="#041822" stroke-width="3.5" stroke-miterlimit="10" stroke-linejoin="round"/>
<path d="M279 93L443 245" stroke="#041822" stroke-width="3.5" stroke-miterlimit="10" stroke-linejoin="round"/>
<path d="M201.5 219.5L318 219" stroke="#041822" stroke-width="3.5" stroke-miterlimit="10" stroke-linejoin="round"/>
<path d="M245 96L217 147.5L189 199" stroke="#041822" stroke-width="3.5" stroke-miterlimit="10" stroke-linejoin="round"/>
<path d="M272 97L330 199" stroke="#041822" stroke-width="3.5" stroke-miterlimit="10" stroke-linejoin="round"/>
<path opacity="0.5" d="M261 103L260 148" stroke="#041822" stroke-width="3.5" stroke-miterlimit="10" stroke-linejoin="round"/>
<path opacity="0.5" d="M198 208L240 183" stroke="#041822" stroke-width="3.5" stroke-miterlimit="10" stroke-linejoin="round"/>
<path opacity="0.5" d="M323 209L279 183" stroke="#041822" stroke-width="3.5" stroke-miterlimit="10" stroke-linejoin="round"/>
<path d="M272 97L330 199" stroke="#041822" stroke-width="3.5" stroke-miterlimit="10" stroke-linejoin="round"/>
<circle cx="261" cy="261" r="26" fill="#041822" stroke="#041822" stroke-width="6.5" stroke-miterlimit="10" stroke-linejoin="round"/>
<circle cx="180" cy="117" r="26" fill="#041822" stroke="#041822" stroke-width="6.5" stroke-miterlimit="10" stroke-linejoin="round"/>
<circle cx="341" cy="117" r="26" fill="#041822" stroke="#041822" stroke-width="6.5" stroke-miterlimit="10" stroke-linejoin="round"/>
<path d="M319.5 116.5L203 117" stroke="#041822" stroke-width="3.5" stroke-miterlimit="10" stroke-linejoin="round"/>
<path d="M276 240L304 188.5L332 137" stroke="#041822" stroke-width="3.5" stroke-miterlimit="10" stroke-linejoin="round"/>
<path d="M249 239L191 137" stroke="#041822" stroke-width="3.5" stroke-miterlimit="10" stroke-linejoin="round"/>
<path opacity="0.5" d="M260 233L261 188" stroke="#041822" stroke-width="3.5" stroke-miterlimit="10" stroke-linejoin="round"/>
<path opacity="0.5" d="M323 128L281 153" stroke="#041822" stroke-width="3.5" stroke-miterlimit="10" stroke-linejoin="round"/>
<path opacity="0.5" d="M198 127L242 153" stroke="#041822" stroke-width="3.5" stroke-miterlimit="10" stroke-linejoin="round"/>
<circle cx="260" cy="360" r="26" fill="#041822" stroke="#041822" stroke-width="6.5" stroke-miterlimit="10" stroke-linejoin="round"/>
<circle cx="344" cy="314" r="26" fill="#041822" stroke="#041822" stroke-width="6.5" stroke-miterlimit="10" stroke-linejoin="round"/>
<circle cx="71" cy="261" r="26" fill="#041822" stroke="#041822" stroke-width="6.5" stroke-miterlimit="10" stroke-linejoin="round"/>
<circle cx="180" cy="314" r="26" fill="#041822" stroke="#041822" stroke-width="6.5" stroke-miterlimit="10" stroke-linejoin="round"/>
<circle cx="260" cy="454" r="26" fill="#041822" stroke="#041822" stroke-width="6.5" stroke-miterlimit="10" stroke-linejoin="round"/>
<path d="M195 312H325" stroke="#041822" stroke-width="3.5" stroke-miterlimit="10" stroke-linejoin="round"/>
<path d="M240 349L198 325" stroke="#041822" stroke-width="3.5" stroke-miterlimit="10" stroke-linejoin="round"/>
<path d="M325 305L200 229" stroke="#041822" stroke-width="3.5" stroke-miterlimit="10" stroke-linejoin="round"/>
<path d="M260 384L260 428" stroke="#041822" stroke-width="3.5" stroke-miterlimit="10" stroke-linejoin="round"/>
</svg>
