<svg width="530" height="530" viewBox="0 0 530 530" fill="none" xmlns="http://www.w3.org/2000/svg">
<path d="M165 409C132 407.5 120.5 381 119 368L203 363.5M373.5 400C387.5 389.5 403 370 411 334.5L310.5 358.5L224.5 362.5M203 363.5L197.5 64H203L224.5 362.5M203 363.5L224.5 362.5M228.5 354.5C232 313.5 253 214.5 205.5 99.5C260 111 362.5 146 411 280.5C374 281 280 304.5 228.5 354.5Z" stroke="#041822" stroke-width="7"/>
<path d="M69 408.5C80.5 418.5 92.5 428 118 428C167 428 167 389 215.5 389C266.5 389 262.5 428 313.5 428C362 428 362 389 411 389C436.5 389 448.5 399 460 408.5" stroke="#041822" stroke-width="7" stroke-linejoin="round"/>
<path d="M472 189L467 193L470.5 187.5L460 186L470.5 184.5L467 179L472 182.5L474 172L475.5 182.5L481 179L477 184L488 186L477.5 188L481 193L476 189.5L474 200L472 189Z" fill="#041822"/>
<path d="M53 300L48 304L51.5 298.5L41 297L51.5 295L48 290L53 293.5L55 283L56.5 293.5L62 290L58 295L69 297L58.5 299L62 304L57 300.5L55 311L53 300Z" fill="#041822"/>
<path d="M103 67.5L84.5 80L97 62L60 56L97 50L84.5 31.5L103 44L109 7L115 44L133 31.5L120.5 50L158 56L120.5 62L133 80L115 67.5L109 105L103 67.5Z" fill="#041822"/>
<circle cx="375" cy="147" r="4" transform="rotate(-180 375 147)" fill="#041822"/>
<circle cx="158" cy="200" r="4" transform="rotate(-180 158 200)" fill="#041822"/>
<circle cx="50.5" cy="143.5" r="9.5" transform="rotate(-180 50.5 143.5)" fill="#041822"/>
<circle cx="275.5" cy="16.5" r="9.5" transform="rotate(-180 275.5 16.5)" fill="#041822"/>
<circle cx="318" cy="94" r="4" transform="rotate(-180 318 94)" fill="#041822"/>
<circle cx="477" cy="337" r="4" transform="rotate(-180 477 337)" fill="#041822"/>
</svg>
