<svg width="530" height="530" viewBox="0 0 530 530" fill="none" xmlns="http://www.w3.org/2000/svg">
<path d="M109 347C97.5 293 97.5 237 109 183C110.5 177.5 113.5 172.5 117.5 168.5C121.5 164.5 126.5 161.5 132 160C220 145.5 310 145.5 398 160C403.5 161.5 408.5 164.5 412.5 168.5C416.5 172.5 419.5 177.5 421 183C432.5 237 432.5 293 421 347C419.5 352.5 416.5 357.5 412.5 361.5C408.5 365.5 403.5 368.5 398 370C310 384.5 220 384.5 132 370C126.5 368.5 121.5 365.5 117.5 361.5C113.5 357.5 110.5 352.5 109 347Z" stroke="#041822" stroke-width="7" stroke-linecap="round" stroke-linejoin="round"/>
<path d="M232 314L314.5 265L232 215.5V314Z" stroke="#041822" stroke-width="7" stroke-linecap="round" stroke-linejoin="round"/>
</svg>
