<svg width="530" height="530" viewBox="0 0 530 530" fill="none" xmlns="http://www.w3.org/2000/svg">
<circle cx="268.5" cy="264.5" r="82.0" stroke="#041822" stroke-width="7"/>
<path d="M354.5 372.0C379.5 352.5 397.5 324.0 404.0 290.0C418.0 215.5 369.0 143.0 294.0 129.0C219.0 114.5 147.0 163.5 132.5 238.5C118.5 313.5 167.5 386.0 242.5 400.0C266.5 404.5 290.0 402.5 312.0 395.5" stroke="#041822" stroke-width="2"/>
<circle cx="272.0" cy="66.5" r="5.5" transform="rotate(1.0 272.0 66.5)" fill="#041822"/>
<circle cx="327.5" cy="75.5" r="5.5" transform="rotate(17.0 327.5 75.5)" fill="#041822"/>
<circle cx="378.5" cy="99.5" r="5.5" transform="rotate(33.5 378.5 99.5)" fill="#041822"/>
<circle cx="421.0" cy="137.0" r="5.5" transform="rotate(50.0 421.0 137.0)" fill="#041822"/>
<circle cx="451.0" cy="185.0" r="5.5" transform="rotate(66.0 451.0 185.0)" fill="#041822"/>
<circle cx="466.0" cy="239.5" r="5.5" transform="rotate(82.5 466.0 239.5)" fill="#041822"/>
<circle cx="465.5" cy="296.0" r="5.5" transform="rotate(99.0 465.5 296.0)" fill="#041822"/>
<circle cx="448.5" cy="350.0" r="5.5" transform="rotate(115.5 448.5 350.0)" fill="#041822"/>
<circle cx="417.5" cy="397.0" r="5.5" transform="rotate(131.5 417.5 397.0)" fill="#041822"/>
<circle cx="374.5" cy="433.5" r="5.5" transform="rotate(148.0 374.5 433.5)" fill="#041822"/>
<circle cx="322.5" cy="456.5" r="5.5" transform="rotate(164.5 322.5 456.5)" fill="#041822"/>
<circle cx="266.5" cy="463.5" r="5.5" transform="rotate(-179.0 266.5 463.5)" fill="#041822"/>
<circle cx="210.5" cy="455.0" r="5.5" transform="rotate(-163.0 210.5 455.0)" fill="#041822"/>
<circle cx="159.5" cy="431.0" r="5.5" transform="rotate(-146.5 159.5 431.0)" fill="#041822"/>
<circle cx="117.5" cy="393.0" r="5.5" transform="rotate(-130.0 117.5 393.0)" fill="#041822"/>
<circle cx="87.5" cy="345.5" r="5.5" transform="rotate(-114.0 87.5 345.5)" fill="#041822"/>
<circle cx="72.5" cy="291.0" r="5.5" transform="rotate(-97.5 72.5 291.0)" fill="#041822"/>
<circle cx="73.0" cy="234.5" r="5.5" transform="rotate(-81.0 73.0 234.5)" fill="#041822"/>
<circle cx="89.5" cy="180.5" r="5.5" transform="rotate(-64.5 89.5 180.5)" fill="#041822"/>
<circle cx="121.0" cy="133.0" r="5.5" transform="rotate(-48.5 121.0 133.0)" fill="#041822"/>
<circle cx="216.0" cy="74.0" r="5.5" transform="rotate(-15.5 216.0 74.0)" fill="#041822"/>
<path d="M337.5 357.5C351.5 360.5 360.5 374.0 358.0 388.0C355.5 401.5 342.0 411.0 328.0 408.0C314.0 405.5 305.0 392.0 307.5 378.0C310.0 364.0 323.5 355.0 337.5 357.5Z" stroke="#041822" stroke-width="7"/>
<path d="M165.0 64.0C181.0 64.5 193.5 77.5 193.5 94.0C193.0 110.0 180.0 123.0 164.5 123.0C148.5 122.5 136.0 109.5 136.0 93.0C136.5 77.0 149.5 64.0 165.0 64.0Z" stroke="#041822" stroke-width="7"/>
<path d="M326.0 207.5C418.5 171.5 488.0 153.0 493.0 164.5C499.5 179.5 402.5 236.5 276.0 292.0C150.0 347.5 42.0 380.0 35.5 365.5C30.5 353.0 94.5 313.0 187.0 268.0" stroke="#041822" stroke-width="2"/>
</svg>
