<svg width="530" height="530" viewBox="0 0 530 530" fill="none" xmlns="http://www.w3.org/2000/svg">
<g clip-path="url(#clip0_15751_855)">
<path d="M398 265L265.0 36L198.5 150.5M145.5 241.5L132 265L265.0 494L331.5 379.5" stroke="#041822"/>
<path d="M398 265L265.0 36L198.5 150.5M145.5 241.5L132 265L265.0 494L331.5 379.5" stroke="#041822"/>
<path d="M398 265L265.0 36L198.5 150.5M145.5 241.5L132 265L265.0 494L331.5 379.5" stroke="#041822"/>
<path d="M265 132L279.5 140.5M265 398L36 265.0L93.0 232.0L122.0 215.0L139.5 205M322.0 165.0L379.5 198.5L494 265.0L379.5 331.5" stroke="#041822"/>
<path d="M265 132L279.5 140.5M265 398L36 265.0L93.0 232.0L122.0 215.0L139.5 205M322.0 165.0L379.5 198.5L494 265.0L379.5 331.5" stroke="#041822"/>
<path d="M265 132L279.5 140.5M265 398L36 265.0L93.0 232.0L122.0 215.0L139.5 205M322.0 165.0L379.5 198.5L494 265.0L379.5 331.5" stroke="#041822"/>
<path d="M265.0 132.5L379.5 66.5L380.0 199.0L380.0 232.0L380.0 248.5M150.0 265.0L150.0 331.0L150.5 463.5L265.0 397.5" stroke="#041822"/>
<path d="M265.0 132.5L379.5 66.5L380.0 199.0L380.0 232.0L380.0 248.5M150.0 265.0L150.0 331.0L150.5 463.5L265.0 397.5" stroke="#041822"/>
<path d="M265.0 132.5L379.5 66.5L380.0 199.0L380.0 232.0L380.0 248.5M150.0 265.0L150.0 331.0L150.5 463.5L265.0 397.5" stroke="#041822"/>
<path d="M146.0 240.5L132.5 264.5L66.5 379.5L199.0 379.5L232.0 379.5L241.5 379.5M184.0 174.5L198.5 149.5L211.5 149.5M309.5 150.0L463.5 150.0L397.5 265.0" stroke="#041822"/>
<path d="M146.0 240.5L132.5 264.5L66.5 379.5L199.0 379.5L232.0 379.5L241.5 379.5M184.0 174.5L198.5 149.5L211.5 149.5M309.5 150.0L463.5 150.0L397.5 265.0" stroke="#041822"/>
<path d="M146.0 240.5L132.5 264.5L66.5 379.5L199.0 379.5L232.0 379.5L241.5 379.5M184.0 174.5L198.5 149.5L211.5 149.5M309.5 150.0L463.5 150.0L397.5 265.0" stroke="#041822"/>
<path d="M150.0 265.0L150.0 331.5L265.0 397.5M150.0 166.0L150.0 132.5L150.5 66.5L265.0 132.5M322.5 165.5L380.0 198.5L380.0 231.5L380.0 248.5M380.0 331.0L379.5 463.5L322.5 430.5L293.5 414.0" stroke="#041822"/>
<path d="M150.0 265.0L150.0 331.5L265.0 397.5M150.0 166.0L150.0 132.5L150.5 66.5L265.0 132.5M322.5 165.5L380.0 198.5L380.0 231.5L380.0 248.5M380.0 331.0L379.5 463.5L322.5 430.5L293.5 414.0" stroke="#041822"/>
<path d="M150.0 265.0L150.0 331.5L265.0 397.5M150.0 166.0L150.0 132.5L150.5 66.5L265.0 132.5M322.5 165.5L380.0 198.5L380.0 231.5L380.0 248.5M380.0 331.0L379.5 463.5L322.5 430.5L293.5 414.0" stroke="#041822"/>
<path d="M211 150.0L199.0 150.0L66.5 150.5L198.5 380.0L240.5 380.0M310 150.0L331.5 150.0L463.5 379.5L331.0 380.0" stroke="#041822"/>
<path d="M211 150.0L199.0 150.0L66.5 150.5L198.5 380.0L240.5 380.0M310 150.0L331.5 150.0L463.5 379.5L331.0 380.0" stroke="#041822"/>
<path d="M211 150.0L199.0 150.0L66.5 150.5L198.5 380.0L240.5 380.0M310 150.0L331.5 150.0L463.5 379.5L331.0 380.0" stroke="#041822"/>
<rect x="265.0" y="52.5" width="17" height="17" rx="8.5" transform="rotate(45 265.0 52.5)" fill="#041822"/>
<rect x="415.5" y="114.5" width="17" height="17" transform="rotate(90 415.5 114.5)" fill="#041822"/>
<rect x="478.0" y="265.0" width="17" height="17" rx="8.5" transform="rotate(135 478.0 265.0)" fill="#041822"/>
<rect x="415.5" y="415.5" width="17" height="17" transform="rotate(-180 415.5 415.5)" fill="#041822"/>
<rect x="265.0" y="478.0" width="17" height="17" rx="8.5" transform="rotate(-135 265.0 478.0)" fill="#041822"/>
<rect x="114.5" y="415.5" width="17" height="17" transform="rotate(-90 114.5 415.5)" fill="#041822"/>
<rect x="52.5" y="265.0" width="17" height="17" rx="8.5" transform="rotate(-45 52.5 265.0)" fill="#041822"/>
<rect x="114.5" y="114.5" width="17" height="17" fill="#041822"/>
<path fill-rule="evenodd" clip-rule="evenodd" d="M229.0 128.5C230.5 127.5 232.5 128.0 233.5 129.5L241.5 141.5C241.5 141.5 242.5 142.0 243.0 141.5C248.5 137.5 254.5 134.5 261.0 131.5L261.0 131.0C262.5 130.5 264.0 131.0 265.0 132.5L271.0 142.5C271.0 143.0 272.0 143.0 272.5 143.0C276.5 140.5 281.0 138.5 285.0 136.5C286.5 136.0 288.0 136.5 288.5 137.5L293.0 142.0C293.0 142.0 293.0 142.0 293.5 142.0C294.0 142.0 294.0 142.0 294.5 142.0L298.0 137.5L298.5 137.5C299.0 136.5 300.0 136.5 300.5 136.5C301.5 136.5 302.5 137.0 303.0 137.5L413.5 288.0C414.0 289.0 414.0 290.5 413.5 291.5L317.0 405.5C309.5 414.5 299.0 417 291.0 417C282.5 417 276.0 414.5 275.5 414.5C275.5 414.5 275.0 414.0 274.5 413.5L274.5 413.5L252.5 391.0C252.5 391.0 252.0 390.5 252.0 390.5L252.0 390.5C251.5 390.5 251.5 390.5 251.5 390.5C249.5 390.5 247.0 390.0 245.5 388.5L245.5 388.0L226.5 367.5C226.5 367.5 226.5 367.5 226.5 367.5C225.5 367.0 225.5 366.5 225.0 366.0C224.5 365.5 224.5 364.5 225.0 363.5C225.5 363.0 225.0 362.5 225.0 362.5L200.0 336.5C199.5 336.0 199.5 336.0 199.0 336.0L199.0 336.0C198.5 336.0 198.5 336.0 198.5 336.5C198.0 336.5 197.5 336.5 197.0 336.5C195.0 336.5 192.5 335.5 191.0 333.5L172.0 313.5L172.0 313.5L172.0 313.0C171.5 312.5 171.0 312.0 171.0 312.0C170.0 310.5 170.5 309.0 171.5 308.0C171.5 308.0 171.5 307.0 171.5 307.0L152.5 287.0C152.5 287.0 152.5 287.0 152.5 287.0C147.5 283.0 147.0 277.5 147.0 276.5L147.0 276.5L129.0 155.0C129.0 154.0 129.5 153.0 130.0 152.0C131.0 151.5 132.5 151.5 133.5 152.0L143.0 156.0C143.5 156.5 144.0 156.0 144.0 156.0C144.5 156.0 144.5 155.5 144.5 155.0L144.0 151.5C143.5 150.0 144.0 149.0 145.0 148.5C146.0 147.5 147.0 147.5 148.5 148.0L149.5 148.5C155.0 151.5 174.0 162.0 189.5 176.0C189.5 176.5 190.0 176.5 190.5 176.5C190.5 176.5 191.0 176.0 191.0 176.0C193.0 172.0 195.0 168.0 197.0 164.5C206.0 148.0 217.0 136.0 229.0 128.5ZM284.5 374.0C284.0 374.0 283.5 373.5 283.0 374.0L283.0 374.0C279.5 377.0 275.5 379.5 270.0 381.0C264.0 383.5 261.0 385.5 259.0 387.0C258.5 387.0 258.5 387.5 258.5 387.5C258.5 388.0 258.5 388.0 258.5 388.5L278.5 408.5C278.5 409.0 278.5 409.0 279.0 409.0C280.5 409.5 285.5 411.0 291.5 411.0C297.0 410.5 304.0 409.0 310.0 404.0C310.0 403.5 310.0 403.0 310.0 402.5L284.5 374.0ZM300.5 145.0C300.0 145.0 300.0 145.0 299.5 145.5L299.5 145.5L195.0 263.5C194.5 264.0 194.5 264.5 195.0 265.0L218.0 291.0C218.5 291.0 218.5 291.0 219.0 291.0C219.5 291.0 219.5 291.0 220.0 290.5C224.5 283.5 226.0 276.5 226.0 276.5C226.0 275.0 227.0 274.5 228.0 274.0L228.0 274.0C229.5 273.5 230.5 274.0 231.0 275.0L231.0 275.0L244.5 289.5L244.5 289.5C245.0 290.5 245.5 291.0 245.5 292.0L245.5 292.0C245.0 293.0 243.5 301.5 237.0 311.0C237.0 311.0 237.0 311.5 237.0 312.0L270.0 348.5C270.0 349.0 270.5 349.0 271.0 349.0C271.0 349.0 271.5 349.0 271.5 348.5C278.5 340.5 280.0 331.5 280.0 330.5C280.5 329.5 281.0 328.5 282.5 328.5C283.5 328.0 284.5 328.5 285.5 329.0L299.0 344.0L299.0 344.0C299.5 344.5 300.0 345.5 299.5 346.5C299.5 347.0 297.5 358.5 289.0 368.5C288.5 369.0 288.5 369.5 289.0 370.0L314.0 398.0L314.0 398.0C314.0 398.0 314.0 398.0 314.0 398.0L314.0 398.0C314.5 398.0 315.0 398.0 315.5 398.0C315.5 398.0 315.5 397.5 315.5 397.5L406.5 290.0C406.5 289.5 406.5 289.0 406.5 289.0L301.0 145.5C301.0 145.0 300.5 145.0 300.5 145.0ZM285.0 338.5C284.5 338.5 284.5 338.5 284.0 339.0L284.0 339.0C281.0 347.5 273.5 360.5 256.5 366.5C250.0 369.0 244.5 370.0 240.0 370.5C239.5 370.5 239.0 371.0 239.0 371.0C239.0 371.5 239.0 372.0 239.0 372.5L250.0 384.0L250.0 384.0C250.5 384.5 251.0 384.5 251.5 384.5C252.0 384.5 252.0 384.5 252.0 384.5C252.0 384.0 252.5 384.0 252.5 384.0C252.5 384.0 252.5 384.0 252.5 384.0C253.0 383.5 253.0 383.5 253.5 383.5C255.5 381.5 258.5 378.5 268.0 375.5C286.0 369.0 291.5 353.0 293.0 347.5C293.0 347.0 293.0 346.5 293.0 346.5L286.0 338.5C285.5 338.5 285.0 338.5 285.0 338.5ZM232.5 316.5C232.5 316.5 232.0 317.0 232.0 317.0C228.0 320.5 223.0 324.0 216.5 326.5L216.0 327.0C210.5 328.5 207.5 330.5 205.5 331.5C205.5 332.0 205.0 332.0 205.0 332.5C205.0 333.0 205.5 333.0 205.5 333.5L235.5 364.0C235.5 364.5 236.0 364.5 236.0 364.5C240.0 364.5 246.0 364.0 254.5 360.5L254.5 360.5C259.0 359.0 262.5 357.0 265.5 354.5C265.5 354.5 266.0 354.0 266.0 354.0C266.0 353.5 266.0 353.5 265.5 353.0L233.5 317.0C233.0 317.0 233.0 316.5 232.5 316.5ZM230.5 284.0C230.0 284.0 230.0 284.5 230.0 284.5L230.0 284.5C226.5 293.0 219.0 306.5 202.5 312.0C196.0 314.5 190.0 316.0 185.5 316.5C185.0 316.5 185.0 316.5 184.5 317.0C184.5 317.5 184.5 317.5 185.0 318.0L195.5 329.5L195.5 329.5C196.0 330.0 197.0 330.0 197.5 330.0C197.5 330.0 197.5 330.0 197.5 330.0C198.0 330.0 198.0 330.0 198.0 330.0C198.0 330.0 198.0 329.5 198.5 329.5C198.5 329.5 199.0 329.0 199.0 329.0C199.0 329.0 199.0 329.0 199.0 329.0C201.0 327.5 204.5 324.5 214.0 321.0C221.0 318.5 226.0 314.5 230.0 310.0C230.0 310.0 230.0 310.0 230.0 310.0C230.0 309.5 230.0 309.5 230.5 309.5C230.5 309.5 230.5 309.5 230.5 309.0C235.5 303.0 238.0 296.5 238.5 293.0C239.0 293.0 238.5 292.5 238.5 292.0L231.5 284.5C231.0 284.0 231.0 284.0 230.5 284.0ZM193.0 272.0C193.0 272.0 192.5 272.0 192.0 272.0C192.0 272.0 191.5 272.0 191.5 272.5L191.5 272.5C188.5 280.5 182.5 289.0 170.5 291.0L170.0 291.0C169.0 291.0 168.0 291.5 167.5 291.5C167.0 291.5 166.5 292.0 166.5 292.5C166.5 292.5 166.5 293.0 166.5 293.0L183.0 310.0C183.0 310.0 183.5 310.0 183.5 310.0C187.5 310.0 193.0 309.0 200.0 306.5C206.0 304.0 211.0 301.0 214.5 297.5C215.0 297.0 215.0 296.5 214.5 296.0L193.0 272.0ZM180.5 276.5C176.0 276.5 167.5 277.0 159.0 282.5C158.5 282.5 158.5 283.0 158.5 283.0V283.0C158.5 283.5 158.5 284.0 159.0 284.0C161.5 285.5 165.0 285.5 169.0 285.0C175.0 284.0 178.5 281.5 181.5 278.0C181.5 278.0 181.5 277.5 181.5 277.0C181.5 277.0 181.0 276.5 180.5 276.5ZM137.5 160.5C137.5 160.5 137.0 160.5 136.5 160.5C136.5 161.0 136.0 161.0 136.5 161.5L153.0 275.5C153.0 276.0 153.0 276.0 153.0 276.0C153.0 276.0 153.0 276.0 153.0 276.0L153.0 276.0V276.0C153.0 276.0 153.0 276.0 153.0 276.0C153.0 276.0 153.0 276.0 153.0 276.0C153.0 276.0 153.0 276.0 153.0 276.5C153.0 276.5 153.0 276.5 153.0 277.0C153.5 277.5 153.5 277.5 154.0 277.5C154.0 278.0 154.5 278.0 155.0 277.5C158.5 275.5 161.5 273.5 165.0 272.5C165.5 272.5 166.0 272.0 165.5 271.5L146.5 165.0C146.0 164.5 146.0 164.0 145.5 164.0L137.5 160.5ZM285.5 143.5C285.0 143.5 285.0 143.5 285.0 143.5C260.5 154.5 234.0 179.5 208.5 216.5C192.5 239.5 181.5 260.5 177.0 269.0C177.0 269.0 177.0 269.5 177.0 270.0C177.5 270.0 177.5 270.5 178.0 270.5C181.0 270.5 183.0 270.5 184.5 270.5C185.0 271.0 185.5 270.5 186.0 270.0C187.0 267.0 187.0 264.5 187.0 264.0C187.0 264.0 187.0 264.0 187.0 264.0C187.0 263.5 187.5 262.5 188.0 262.0L289.0 148.0C289.0 147.5 289.0 147.0 289.0 146.5L286.0 143.5C286.0 143.5 285.5 143.5 285.5 143.5H285.5ZM153.0 157.5C152.5 157.5 152.0 157.5 152.0 158.0C151.5 158.0 151.5 158.5 151.5 159.0L168.0 250.5C168.5 251.0 168.5 251.5 169.0 251.5C169.5 251.5 170.0 251.0 170.0 250.5C171.5 240.0 174.0 226.0 178.5 210.5C181.0 201.0 184.0 192.0 187.5 183.5C187.5 183.5 187.5 183.0 187.0 182.5C187.0 182.5 187.0 182.5 187.0 182.5C187.0 182.5 187.0 182.5 187.0 182.5C187.0 182.5 187.0 182.5 187.0 182.5L187.0 182.5C175.5 171.5 161.5 162.5 153.0 157.5ZM260.5 138.5C260.5 138.5 260.5 138.5 260.0 138.5C221.0 158.5 200.0 193.5 188.5 219.5C184.0 230.0 181.0 240.5 178.5 249.0C178.5 249.5 178.5 250.0 179.0 250.0C179.5 250.5 180.0 250.5 180.5 250.0C186.0 239.5 194.0 226.5 203.0 213.0C224.0 183.0 245.0 161.0 265.5 147.0C266.0 147.0 266.0 146.5 265.5 146.0L261.5 139.0C261.5 138.5 261.0 138.5 260.5 138.5ZM230.5 136.0C230.0 135.5 229.5 135.5 229.0 136.0C208.0 150.5 195.0 177.5 187.0 203.5C187.0 204.0 187.0 204.5 187.5 204.5C188.0 204.5 188.5 204.5 189.0 204.0C195.5 191.5 202.5 180.0 211.0 170.0L211.0 170.0C218.5 161.0 227.0 153.0 236.0 146.5C236.5 146.0 236.5 145.5 236.5 145.0L230.5 136.0C230.5 136.0 230.5 136.0 230.5 136.0L230.5 136.0L230.5 136.0Z" fill="#041822"/>
</g>
<defs>
<clipPath id="clip0_15751_855">
<rect width="530" height="530" rx="265" fill="white"/>
</clipPath>
</defs>
</svg>
