<svg width="530" height="530" viewBox="0 0 530 530" fill="none" xmlns="http://www.w3.org/2000/svg">
<g clip-path="url(#clip0_15751_804)">
<path d="M196.5 141.0C159.0 147.0 133.0 186.0 124.0 221.0C114.5 257.0 108.5 294.0 123.5 330.0C141.5 372.5 193.0 353.5 225.0 344.5C244.0 339.0 257.5 326.5 275.0 319.0C287.5 313.5 249.0 332.0 241.0 343.0C224.5 364.0 224.5 390.0 217.5 414.5C216.0 420.5 210.5 430.0 203.0 441.5C196.5 452.5 195.5 462.0 208 468C209.5 468.5 214 469 214.5 471M304.5 473.5C306.5 467.5 306.0 461.0 303.0 458.0C300.5 455.0 294.5 456.5 287.0 455.0C275.5 453.5 268.5 448.5 261.0 441.5C247.5 427.5 258.5 418.5 268.0 408.0C278.0 396.5 288.0 385.5 298.5 375.0C309.5 363.5 319.0 351.0 326.5 337.0C336.0 319.0 344.0 291.5 321.5 279.5C314.5 275.5 310.0 276.0 293.5 274.0C279.5 272.0 251.0 271.5 229.0 274.0C208.0 276.5 176.0 286.5 177.5 285.5C193.5 276.5 214.0 266.0 225.0 252" stroke="#041822" stroke-width="6"/>
<path d="M154.0 254.5C204.5 225.5 179.0 212.0 229.5 249.0C245.5 261.0 298.5 284.0 315.0 269C325.5 259.5 333.5 245.0 336.5 231.0C340.5 211.5 338.5 188 334.5 169.0C332.5 160.0 312.5 150.5 302.0 149.0C295.0 148.0 290.0 154.5 285.5 157.5C282.0 160.0 267.5 175.5 276.0 180.0C284.5 185.0 293.5 172.0 302.5 175.5C305.5 176.5 310.5 180.5 315.0 184.5C327.5 195.5 296.5 240.0 288.0 226.0C276.0 206.5 243.5 159.5 227.0 147.5C216.0 141.5 206.5 139.0 194.5 141.0" stroke="#041822" stroke-width="6"/>
<path d="M335.5 311.5C334.5 326 329.0 350.5 322.5 363.0C313.0 381.0 299.5 399.0 293.0 418.0C287.0 435.5 318.0 441.5 327.0 442.5C351.0 445.0 337.0 467.0 304.0 460.5" stroke="#041822" stroke-width="4"/>
<path d="M177.0 356.0C145.5 356.5 121.0 378.5 106.5 406.5" stroke="#041822" stroke-width="6"/>
<path d="M325.0 255.0C330.5 257.0 359.0 263.5 360.0 269.0C363.0 283.0 362.5 297.0 359.5 306.0C357.0 313.0 324.5 338.0 335 317.5" stroke="#041822" stroke-width="4"/>
<path d="M258.5 138.5C260.0 146.0 272.0 157.5 277.5 160.5C275.5 161.5 270.5 156 263 151C255.0 153.0 253.0 168.5 258.5 180M189.0 144.0C201.5 139.5 213.0 134.5 223.0 126.0C234.0 116.5 245.0 107.5 252.0 94.5C256.5 86.5 261.0 79.0 265.0 75.0C280.5 58.5 302.0 58.5 321.5 69.5C333.5 76.5 339.0 94.5 337.5 107.0C336.5 118.0 328.0 128.0 322.5 137.0C318.0 144.0 322.0 145.5 315.5 153.0" stroke="#041822" stroke-width="4"/>
<path d="M109.0 408.5C50.0 344.5 34.5 247.0 77.5 165.5C132.5 62.0 261.0 23.0 364.5 77.5C468.0 132.5 507.0 261.0 452.5 364.5C405.0 453.5 303.0 495.0 209.5 469.5" stroke="#041822" stroke-width="4"/>
<line x1="266.5" y1="54" x2="266.5" y2="74" stroke="#041822"/>
<path d="M321.0 61.0L319.0 68" stroke="#041822"/>
<path d="M372.0 82.0L326.0 161" stroke="#041822"/>
<path d="M415.5 115.5L340.5 190.5" stroke="#041822"/>
<path d="M449.0 159.5L341 222.0" stroke="#041822"/>
<path d="M470.0 210.5L329.0 248.5" stroke="#041822"/>
<line x1="477" y1="265.0" x2="356.5" y2="265.0" stroke="#041822"/>
<path d="M469.5 320.0L361.5 291.0" stroke="#041822"/>
<path d="M448.5 371.0L351.5 315.0" stroke="#041822"/>
<line x1="415.0" y1="414.5" x2="329.5" y2="329.0" stroke="#041822"/>
<path d="M371.0 448.0L322.5 364" stroke="#041822"/>
<path d="M320.0 469.0L318.0 461.5M301.0 399L312.0 438.5" stroke="#041822"/>
<path d="M82.5 370.0L130.0 342.5" stroke="#041822"/>
<path d="M61.5 319.0L116 304.5" stroke="#041822"/>
<path d="M54.5 264.0L115.0 264.0" stroke="#041822"/>
<path d="M62.0 209.5L122 226" stroke="#041822"/>
<path d="M83.0 158.5L135.5 189.0" stroke="#041822"/>
<path d="M116.5 115.0L159.5 157.5" stroke="#041822"/>
<path d="M160.5 81.5L193.5 140" stroke="#041822"/>
<path d="M211.5 60.5L227.5 122.5" stroke="#041822"/>
<path d="M240.5 55.5L246.0 103.0" stroke="#041822"/>
<path d="M295.5 55.5L294.5 63.0" stroke="#041822"/>
<path d="M348.5 70.0L336.5 97" stroke="#041822"/>
<path d="M396.0 98.0L336.0 175" stroke="#041822"/>
<path d="M435.0 137.5L340.5 208.5" stroke="#041822"/>
<path d="M462.0 185.5L333.0 238" stroke="#041822"/>
<path d="M476.0 239.0L331.5 256" stroke="#041822"/>
<path d="M475.5 294.0L362.0 278.5" stroke="#041822"/>
<path d="M460.5 347.0L359.0 305" stroke="#041822"/>
<path d="M433.0 394.5L340.5 323.0" stroke="#041822"/>
<path d="M393.5 433.5L329 346.5" stroke="#041822"/>
<path d="M345.5 460.5L342.5 453.0L313.5 380.5" stroke="#041822"/>
<path d="M97.5 392.0L144.0 356.0" stroke="#041822"/>
<path d="M70.5 344.0L122.5 323.0" stroke="#041822"/>
<path d="M56.5 290.5L116.5 283.0" stroke="#041822"/>
<path d="M57.0 235.5L118.5 244.5" stroke="#041822"/>
<path d="M71.5 182.5L127.5 206.0" stroke="#041822"/>
<path d="M99.5 135.0L147.5 172.0" stroke="#041822"/>
<path d="M139.0 96.0L179.0 150.0" stroke="#041822"/>
<path d="M187.0 69.0L212 132.5" stroke="#041822"/>
</g>
<defs>
<clipPath id="clip0_15751_804">
<rect width="530" height="530" rx="265" fill="white"/>
</clipPath>
</defs>
</svg>
