<svg width="530" height="530" viewBox="0 0 530 530" fill="none" xmlns="http://www.w3.org/2000/svg">
<path d="M335.5 305.0H195.5L265.5 184.0L335.5 305.0Z" stroke="#041822" stroke-width="7"/>
<path d="M335.5 305.0H195.5L265.5 184.0L335.5 305.0Z" stroke="#041822" stroke-width="7"/>
<path d="M335.5 305.0H195.5L265.5 184.0L335.5 305.0Z" stroke="#041822" stroke-width="7"/>
<path d="M335.5 305.0H195.5L265.5 184.0L335.5 305.0Z" stroke="#041822" stroke-width="7"/>
<path d="M391.5 337.0H139.5L265.5 119.0L391.5 337.0Z" stroke="#041822" stroke-width="7"/>
<path d="M391.5 337.0H139.5L265.5 119.0L391.5 337.0Z" stroke="#041822" stroke-width="7"/>
<path d="M391.5 337.0H139.5L265.5 119.0L391.5 337.0Z" stroke="#041822" stroke-width="7"/>
<path d="M391.5 337.0H139.5L265.5 119.0L391.5 337.0Z" stroke="#041822" stroke-width="7"/>
<path d="M391.5 337.0H139.5L265.5 119.0L391.5 337.0Z" stroke="#041822" stroke-width="7"/>
<path d="M445.0 368.0H86.0L265.5 57L445.0 368.0Z" stroke="#041822" stroke-width="7"/>
<path d="M445.0 368.0H86.0L265.5 57L445.0 368.0Z" stroke="#041822" stroke-width="7"/>
<path d="M445.0 368.0H86.0L265.5 57L445.0 368.0Z" stroke="#041822" stroke-width="7"/>
<path d="M445.0 368.0H86.0L265.5 57L445.0 368.0Z" stroke="#041822" stroke-width="7"/>
<path d="M445.0 368.0H86.0L265.5 57L445.0 368.0Z" stroke="#041822" stroke-width="7"/>
<path d="M443.5 368.5L265.5 264.0L87.5 368.5" stroke="#041822" stroke-width="7"/>
<path d="M443.5 368.5L265.5 264.0L87.5 368.5" stroke="#041822" stroke-width="7"/>
<path d="M443.5 368.5L265.5 264.0L87.5 368.5" stroke="#041822" stroke-width="7"/>
<path d="M443.5 368.5L265.5 264.0L87.5 368.5" stroke="#041822" stroke-width="7"/>
<path d="M443.5 368.5L265.5 264.0L87.5 368.5" stroke="#041822" stroke-width="7"/>
<path d="M265.5 265.0L265.5 57.0" stroke="#041822" stroke-width="7"/>
<path d="M265.5 265.0L265.5 57.0" stroke="#041822" stroke-width="7"/>
<path d="M265.5 265.0L265.5 57.0" stroke="#041822" stroke-width="7"/>
<path d="M265.5 265.0L265.5 57.0" stroke="#041822" stroke-width="7"/>
<path d="M265.5 265.0L265.5 57.0" stroke="#041822" stroke-width="7"/>
</svg>
