<svg width="530" height="530" viewBox="0 0 530 530" fill="none" xmlns="http://www.w3.org/2000/svg">
<path opacity="0.5" d="M240 262L103 262" stroke="#041822" stroke-width="3.5" stroke-miterlimit="10" stroke-linejoin="round"/>
<path opacity="0.5" d="M437 262L291 262" stroke="#041822" stroke-width="3.5" stroke-miterlimit="10" stroke-linejoin="round"/>
<path d="M438.0 262C438.0 276.5 449.5 288 464.0 288C478.5 288 490.0 276.5 490.0 262C490.0 247.5 478.5 236 464.0 236C449.5 236 438.0 247.5 438.0 262Z" stroke="#041822" stroke-width="6.5" stroke-miterlimit="10" stroke-linejoin="round"/>
<path d="M321.0 220C321.0 234.5 332.5 246 347.0 246C361.5 246 373.0 234.5 373.0 220C373.0 205.5 361.5 194 347.0 194C332.5 194 321.0 205.5 321.0 220Z" stroke="#041822" stroke-width="6.5" stroke-miterlimit="10" stroke-linejoin="round"/>
<path d="M240.0 76C240.0 90.5 251.5 102 266.0 102C280.5 102 292.0 90.5 292.0 76C292.0 61.5 280.5 50 266.0 50C251.5 50 240.0 61.5 240.0 76Z" stroke="#041822" stroke-width="6.5" stroke-miterlimit="10" stroke-linejoin="round"/>
<path d="M240.0 174C240.0 188.5 251.5 200 266.0 200C280.5 200 292.0 188.5 292.0 174C292.0 159.5 280.5 148 266.0 148C251.5 148 240.0 159.5 240.0 174Z" stroke="#041822" stroke-width="6.5" stroke-miterlimit="10" stroke-linejoin="round"/>
<path d="M160.0 220C160.0 234.5 171.5 246 186.0 246C200.5 246 212.0 234.5 212.0 220C212.0 205.5 200.5 194 186.0 194C171.5 194 160.0 205.5 160.0 220Z" stroke="#041822" stroke-width="6.5" stroke-miterlimit="10" stroke-linejoin="round"/>
<path d="M93 282.5L245 439.5" stroke="#041822" stroke-width="3.5" stroke-miterlimit="10" stroke-linejoin="round"/>
<path d="M285 94L447.5 243" stroke="#041822" stroke-width="3.5" stroke-miterlimit="10" stroke-linejoin="round"/>
<path d="M212 220L322 220" stroke="#041822" stroke-width="3.5" stroke-miterlimit="10" stroke-linejoin="round"/>
<path d="M251 97L223.0 148.5L196 196.5" stroke="#041822" stroke-width="3.5" stroke-miterlimit="10" stroke-linejoin="round"/>
<path d="M278 98L336 200" stroke="#041822" stroke-width="3.5" stroke-miterlimit="10" stroke-linejoin="round"/>
<path opacity="0.5" d="M267 104L266.0 149" stroke="#041822" stroke-width="3.5" stroke-miterlimit="10" stroke-linejoin="round"/>
<path opacity="0.5" d="M208 206.5L244 185.5" stroke="#041822" stroke-width="3.5" stroke-miterlimit="10" stroke-linejoin="round"/>
<path opacity="0.5" d="M325.5 207L289 185.5" stroke="#041822" stroke-width="3.5" stroke-miterlimit="10" stroke-linejoin="round"/>
<path d="M266 288C280.5 288 292 276.5 292 262C292 247.5 280.5 236 266 236C251.5 236 240 247.5 240 262C240 276.5 251.5 288 266 288Z" stroke="#041822" stroke-width="6.5" stroke-miterlimit="10" stroke-linejoin="round"/>
<path d="M266 387C280.5 387 292 375.5 292 361C292 346.5 280.5 335 266 335C251.5 335 240 346.5 240 361C240 375.5 251.5 387 266 387Z" stroke="#041822" stroke-width="6.5" stroke-miterlimit="10" stroke-linejoin="round"/>
<path d="M350 341C364.5 341 376 329.5 376 315C376 300.5 364.5 289 350 289C335.5 289 324 300.5 324 315C324 329.5 335.5 341 350 341Z" stroke="#041822" stroke-width="6.5" stroke-miterlimit="10" stroke-linejoin="round"/>
<path d="M77 288C91.5 288 103 276.5 103 262C103 247.5 91.5 236 77 236C62.5 236 51 247.5 51 262C51 276.5 62.5 288 77 288Z" stroke="#041822" stroke-width="6.5" stroke-miterlimit="10" stroke-linejoin="round"/>
<path d="M186 341C200.5 341 212 329.5 212 315C212 300.5 200.5 289 186 289C171.5 289 160 300.5 160 315C160 329.5 171.5 341 186 341Z" stroke="#041822" stroke-width="6.5" stroke-miterlimit="10" stroke-linejoin="round"/>
<path d="M266 481C280.5 481 292 469.5 292 455C292 440.5 280.5 429 266 429C251.5 429 240 440.5 240 455C240 469.5 251.5 481 266 481Z" stroke="#041822" stroke-width="6.5" stroke-miterlimit="10" stroke-linejoin="round"/>
<path d="M212 313H324" stroke="#041822" stroke-width="3.5" stroke-miterlimit="10" stroke-linejoin="round"/>
<path d="M243.5 349L206.5 328" stroke="#041822" stroke-width="3.5" stroke-miterlimit="10" stroke-linejoin="round"/>
<path d="M328.5 303L287.5 278.5M207.5 231L241.5 252" stroke="#041822" stroke-width="3.5" stroke-miterlimit="10" stroke-linejoin="round"/>
<path d="M266 385L266 429" stroke="#041822" stroke-width="3.5" stroke-miterlimit="10" stroke-linejoin="round"/>
</svg>
