<svg width="530" height="530" viewBox="0 0 530 530" fill="none" xmlns="http://www.w3.org/2000/svg">
<path d="M278.0 100H400.0L420.0 205.0C396.5 202.0 372.0 200 347.5 200C323.5 200 289.5 201.5 268.0 206.5M213.0 278.5C213.0 241.5 240.0 211.0 275.0 205.0M392.0 430C302.0 430 214.0 361 213 278.5" stroke="#041822" stroke-width="7"/>
<path d="M252.0 100H130.0L110.0 205.0C133.5 202.0 158.0 200 182.5 200C206.5 200 240.5 201.5 262.0 206.5M317.0 278.5C317.0 241.5 290.0 211.0 255.0 205.0M138.0 430C228.0 430 316.0 361 317.0 278.5" stroke="#041822" stroke-width="7"/>
</svg>
