<svg width="530" height="530" viewBox="0 0 530 530" fill="none" xmlns="http://www.w3.org/2000/svg">
<path d="M283.5 224.5L284.5 230.0L289.0 227.0L338.5 192.5L305.5 240.5L302.5 245.0L308.0 246.0L419.5 264.5L306.5 283.0L301.0 284.0L304.0 288.5L338.5 338.5L288.5 304.0L284.0 301.0L283.0 306.5L264.5 419.5L246.0 308.0L245.0 302.5L240.5 305.5L192.5 338.5L227.0 289.0L230.0 284.5L224.5 283.5L109.5 264.5L223.0 246.0L228.5 245.0L225.5 240.5L192.5 192.5L240.5 225.5L245.0 228.5L246.0 223.0L264.5 109.5L283.5 224.5Z" stroke="#041822" stroke-width="7"/>
<path d="M418.0 153.5L427.5 146.5L421.0 156.0L441 159.5L421.0 163.0L427.5 172.5L418.0 166.0L414.5 186L411.0 166.0L401.5 172.5L408.5 163.0L388 159.5L408.0 156.0L401.5 146.5L411.0 153.0L414.5 133L418.0 153.5Z" fill="#041822"/>
<path d="M48.0 330.0L53.0 326.0L49.5 331.5L60 333L49.5 335.0L53.0 340.0L48.0 336.5L46 347L44.5 336.5L39.0 340.0L43.0 335.0L32 333L42.5 331.0L39.0 326.0L44.0 329.5L46 319L48.0 330.0Z" fill="#041822"/>
<path d="M417.0 451.5L435.5 439.0L423.0 457.0L460 463L423.0 469.0L435.5 487.5L417.0 475.0L411 512L405.0 475.0L387.0 487.5L399.5 469.0L362 463L399.5 457.0L387.0 439.0L405.0 451.5L411 414L417.0 451.5Z" fill="#041822"/>
<path d="M146.0 104.5L155.5 97.5L149.0 107.0L169 110.5L149.0 114.0L155.5 123.5L146.0 117.0L142.5 137L139.0 117.0L129.5 123.5L136.5 114.0L116 110.5L136.0 107.0L129.5 97.5L139.0 104.0L142.5 84L146.0 104.5Z" fill="#041822"/>
<circle cx="145" cy="372" r="4" fill="#041822"/>
<circle cx="159" cy="213" r="4" fill="#041822"/>
<circle cx="377" cy="190" r="4" fill="#041822"/>
<circle cx="317" cy="88" r="4" fill="#041822"/>
<circle cx="362" cy="319" r="4" fill="#041822"/>
<circle cx="469.5" cy="375.5" r="9.5" fill="#041822"/>
<circle cx="244.5" cy="502.5" r="9.5" fill="#041822"/>
<circle cx="215.5" cy="16.5" r="9.5" fill="#041822"/>
<circle cx="202" cy="425" r="4" fill="#041822"/>
<circle cx="43" cy="182" r="4" fill="#041822"/>
</svg>
