<svg width="530" height="530" viewBox="0 0 530 530" fill="none" xmlns="http://www.w3.org/2000/svg">
<path d="M277.0 236.0L278.0 241.5L282.5 238.5L313.5 217.0L293.0 247.0L289.5 251.5L295.0 252.5L368.5 264.5L294.0 276.5L288.5 277.5L292.0 282.0L313.5 313.5L282.0 292.0L277.5 288.5L276.5 294.0L264.5 368.5L252.5 295.0L251.5 289.5L247.0 293.0L217.0 313.5L238.5 282.5L241.5 278.0L236.0 277.0L160.5 264.5L235.5 252.0L240.5 251.5L237.5 247.0L217.0 217.0L247.0 237.5L251.5 240.5L252.0 235.5L264.5 160.5L277.0 236.0Z" stroke="#041822" stroke-width="7"/>
<path d="M161.0 99.0L161.0 160.5L100.0 160.5" stroke="#041822" stroke-width="4"/>
<path d="M430.0 160.0L369.0 160.0L369.0 99.0" stroke="#041822" stroke-width="4"/>
<path d="M369.0 430.5L369.0 369L430.0 369" stroke="#041822" stroke-width="4"/>
<path d="M100 369.0L161.5 369.0L161.5 430.0" stroke="#041822" stroke-width="4"/>
<path d="M74.5 221.0L117.5 264.5L74.5 307.5" stroke="#041822" stroke-width="4"/>
<path d="M308.0 74.0L264.5 117.5L221.5 74.0" stroke="#041822" stroke-width="4"/>
<path d="M456.0 308.0L412.5 265.0L455.5 221.5" stroke="#041822" stroke-width="4"/>
<path d="M222.0 455.0L265.5 412.0L308.5 455.0" stroke="#041822" stroke-width="4"/>
</svg>
