<svg width="530" height="530" viewBox="0 0 530 530" fill="none" xmlns="http://www.w3.org/2000/svg">
<g clip-path="url(#clip0_15751_375)">
<path d="M222.5 203.5C222.5 203.5 223.0 203.5 223.0 203.5C223.0 203.5 223.5 204.0 223.5 204C224.0 205.5 224.5 206.5 225.5 208.0C228.0 213.0 230.0 218.5 230.5 224.0C231.0 229.0 232.0 233.0 233.0 237.5L233.0 237.5L233.0 237.5C234.0 244.0 235.5 250.0 235.0 256.0C234.5 261.5 234.5 265.0 234.0 268.0L234.0 268.5C234.0 272.0 234.0 275.5 233.0 279.5V279.5C233.0 282.0 232.0 283.5 231.5 285.0L231.5 285.0C231.0 286.5 230.5 287.5 230.0 290.0C229.5 291.5 229.5 292.5 229.0 293.5L229.0 293.5L229.0 293.5C227.0 300.5 225.0 308.5 225.0 332.5L225.0 333.5C225.0 336.0 225.0 339.0 225.0 341.5L225.0 341.5V341.5C225.0 350.0 224.5 359.0 226.5 370.5C227.0 373.5 227.0 376.0 227.0 378.0V378.0C227.0 379.5 227.0 381.0 227.0 382.0C227.5 384.5 227.5 386.0 227.5 387.0C227.0 388.5 227.0 389.5 226.5 390.5L226.5 390.5V390.5L226.5 390.5C226.5 392.0 226.0 394.0 225.5 397.5V397.5C225.5 398.5 225.5 400.5 225.5 402.5L225.5 402.5C225.5 405.5 225.0 409.0 225.0 411.0V411.0C222.0 431.5 227.5 446.5 232.0 459.0V459.0L232.0 459.0L232.0 459.0L233.0 461.0C234.5 465.5 236 469.5 236.5 473.5C237.0 475.5 237.5 477.5 237.5 479.0L237.5 479.0C238.0 481.0 238.5 483.0 238.5 484.0C238.5 485.5 238.0 487.0 237.0 488.0C237.0 488.0 237.0 488.5 237.0 488.5C237.0 488.5 237.0 488.5 237.0 488.5C237.0 488.5 237.0 489.0 237.0 489.0C237.0 489.5 237.0 490.0 236.5 490.5V490.5C236.5 492.0 236.0 494.5 235.0 496.0L234.5 496.5C234.0 497.5 233.0 498.5 233.0 499.5C232.5 500.0 232.5 500.5 232.0 500.5C232.0 501.0 232.0 501.0 232.0 501.0L232.0 501.0C232.0 501.5 232.0 502.0 232.0 502.0L232.0 502.0C232.0 502.5 232.0 503.0 232.0 503.0C232.0 503.5 232.0 503.5 232.0 503.5L232.0 503.5C232.0 504.0 233.0 504.5 235.5 504.5C238.0 504.5 239.5 504.5 241.0 504.5L241.5 504.5H241.5C243.0 504.5 243.5 504.5 244.5 504.5C245.0 504.5 245.0 504.5 245.0 504.0C246.5 503.5 248.0 503.5 249.0 504.5C249.0 504.5 249.0 504.5 249.0 504.5C249.5 504.5 249.5 504.5 250.0 504.5C250.5 504.5 251.5 504.5 252.0 504.5H252.0C252.0 504.5 252.5 504.0 252.5 503.5C253.0 503.0 253.0 502.0 253.0 501.0C253.0 501.0 253.0 501.0 253.0 500.5C253.0 500.5 253.0 500.0 252.5 499.5V499.5L252.5 499.0C252.0 498.0 252.0 496.5 252.0 494.5C252.0 494.0 252.0 493.5 252.0 493.0C252.0 492.5 251.5 491.5 251.5 491.0H251.5C251.0 489.0 250.0 486.5 250.5 484.0L250.5 483.5C251.0 482.0 250.5 481.0 250.0 478.5V478.5C249.5 476.0 248.5 472.0 248.0 464.5L248.0 463.0C247.5 457.0 248.0 451.0 248.0 446.0L248.5 444.0L248.5 444.0C249.0 438.0 249.0 433.0 248.5 429.0V429.0C247.0 420.5 246.5 416.0 247.0 407.0C247.0 404.0 248.0 401.0 249.0 397.5L249.0 397.5C250.5 391.0 252.5 383.5 252.0 370.0L252.0 369.5C252.0 367.5 252.0 365.0 253.0 362.0C253.5 359.0 254.5 355.0 255.0 351.0L255.5 351.0V351.0L255.5 351.0C258.0 339.5 261.5 325.0 262.0 308.0C262.0 307.0 263.0 306.0 264.0 306.0L264.5 306.0C265.5 306.0 266.0 307.0 266.0 308.0L266.0 308.0C266.0 325.5 262.0 341.0 259.0 352.0C258.5 356.0 257.5 359.5 257.0 362.5C256.5 365.5 256.0 368.0 256.0 370.0V370.0C256.5 384.0 254.5 392.0 253.0 398.5C252.0 402.0 251.5 404.5 251.0 407.5V407.5C251.0 416.5 251.0 420.5 252.5 428.0C253.5 432.5 253.0 438.0 252.5 444.0L252.5 444.5L252.5 444.5C252.0 450.0 251.5 456.0 252.0 462.5C252.5 471.0 253.5 475.0 254.0 477.5L254.0 477.5V477.5C254.5 480.0 255.0 482.0 254.5 484.5V484.5C254.5 486.0 254.5 487.5 255.0 489.0L255.5 490.0V490.0L255.5 490.0C256.0 491.5 256.5 493.0 256.0 495.0C256.0 496.0 256.5 497.5 256.5 498.5V498.5C257.0 499.0 257.0 500.0 257.0 500.5L257.0 501.0L257.0 501.5C257.0 502.5 257.0 504.0 256.5 505.5C255.5 507.0 254.5 508.0 253.0 508.5L253.0 508.5C252.0 508.5 251.5 508.5 251.0 508.5C251.0 508.5 250.5 508.5 250.5 508.5C250.0 508.5 249.0 508.5 248.0 508.5C247.5 508.5 247.0 508.0 247.0 508.0C245.5 508.5 244.5 508.5 242.5 508.5L241.0 508.5H241.0C240.0 508.5 238.0 508.5 235.5 508.5C232.5 508.5 230.0 508.0 228.5 506.0V506.0C227.0 504.5 227.5 502.5 228.0 501.5V501.5L228.0 501.5L228.0 501.0H228.0C228.0 501.0 228.0 501.0 228.0 501.0L228.0 501.0C228.0 500.5 228.0 500.0 228.5 499.5C228.5 499.0 228.5 498.5 229.0 498.0C229.5 496.5 230.5 495.5 231.5 494.0L231.5 494.0C231.5 493.5 232.0 493.0 232.0 492.0C232.5 491.5 232.5 490.5 232.5 489.5V489.5L232.5 489.5C233.0 489.0 233.0 488.5 233.0 488.0C233.0 487.5 233.5 487.0 233.5 486.5L233.5 486.0C234.0 485.5 234.0 485.0 234.0 484.0C234.0 483.0 234.0 482.0 233.5 480.0C233.5 478.5 233.0 476.5 232.5 474.0V474.0C232.0 470.5 230.5 466.0 228.5 460.5L228.5 460.5C224.0 448.5 217.5 432.0 221.0 410.5V410.5C221.0 408.5 221.0 405.5 221.5 402.5V402.5C221.5 400.5 221.5 398.5 221.5 397.0V397.0C222.0 393.5 222.5 391.5 222.5 390.0L223.0 389.0C223.0 388.5 223.0 387.5 223.0 387.0C223.5 386.0 223.0 384.5 223.0 382.5L223.0 382.0C223.0 380.5 223.0 379.5 223.0 378.0L223.0 378.0L223.0 378.0C223.0 376.0 223.0 374.0 222.5 371.5L222.5 370.0C220.5 359.0 220.5 350.0 221.0 341.5L221.0 341.5C221.0 338.5 221.0 335.5 221.0 332.5C221.0 308.0 223.0 300.0 225.0 292.5V292.5C225.5 291.5 225.5 290.5 226.0 289.0L226.0 288.0C226.5 286.0 227.5 284.5 228.0 283.5L228.0 283.5V283.5C228.5 282.0 229.0 281.0 229.0 279.0L229.5 278.0C230.0 274.5 230.0 272.0 230.0 268.0L230.0 268.0L230.0 268.0C230.0 265.0 230.5 261.5 231.0 256.0L231.0 255.5C231.0 250.0 230.0 244.5 229.0 238.5C228.0 234.0 227.0 229.5 226.5 224.5V224.5C226.0 219.5 224.5 214.5 221.5 210.0V210.0C221.0 208.5 220.5 207.0 219.5 205.5L219.5 205.5C219.5 205.5 219.5 205.0 219.5 205.0C220.0 204.5 220.0 204.5 220.5 204.5L222.0 203.5L222.5 203.5Z" fill="#041822" stroke="#041822" stroke-width="2" stroke-linejoin="round"/>
<path d="M246.5 119.5L246.5 119.5C247.5 120.0 248.5 120.5 248.5 122.0L248.5 122.0C248.5 124.5 248.5 127.0 248.5 129.0C248.5 130.0 248.5 131.0 248.5 131.5L248.5 132.0L248.5 132.0C248.5 132.5 248.5 132.5 248.5 133.0L248.5 133.0C248.5 133.0 248.5 133.5 248.0 134.0C247.5 134.5 247.0 134.5 246.0 134.5C246.0 135.0 246.0 135.0 246.0 135.5C246.5 136.0 246.5 137.0 247.0 138.5L247.0 138.5C247.0 139.0 247.0 139.5 247.0 139.5L247.0 140.5C247.0 141.0 247.5 141.0 247.5 141.5C247.5 141.5 247.5 141.5 248.5 142.0L248.5 142.0C248.5 142.5 248.5 142.5 249.0 142.5C249.0 142.5 249.5 143.0 250.0 143.5C250.5 144.0 251.0 145.0 251.0 145.5C251.5 146.0 251.5 147.0 251.5 147.5V147.5C251.5 148.0 252.0 148.5 252.0 149.0C252.5 151.5 254.0 153.5 256.0 154.5C256.5 155.5 257.0 156.5 256.0 157.5C255.5 158.0 255.0 158.5 254.5 158.5C254.5 158.5 254.5 158.5 254.5 158.5C254.0 158.5 253.5 158.0 253.0 158.0C251.0 156.0 249.0 153.5 248.0 150.0L248.0 150.0C248.0 149.5 247.5 149.0 247.5 148.5C247.5 148.0 247.5 147.5 247.5 147.0C247.5 147.0 247.0 146.5 247.0 146.5C247.0 146.5 247.0 146.5 247.0 146.5C247.0 146.5 247.0 146.0 246.5 146.0V146.0C246.5 146.0 246.0 145.5 246.0 145.5C245.0 144.5 244.0 144.0 243.5 143.0C243.5 142.5 243.0 142.0 243.0 141.0L243.0 140.5C243.0 140.0 243.0 140.0 243.0 139.5L243.0 139.5C242.5 138.0 242.0 136.5 242.0 135.5C242.0 134 242.0 132.5 243.0 131.5V131.5C243.5 131.0 244.0 131.0 244.5 131.0C244.5 129.0 244.0 125.5 244.0 122.0V122.0C244.0 120.5 245.0 119.5 246.5 119.5H246.5Z" fill="#041822" stroke="#041822" stroke-width="2" stroke-linejoin="round"/>
<path d="M253.0 155.0C253.5 154.0 255.0 154.0 256.0 154.5L256.0 154.5C256.0 155.0 256.5 155.0 256.5 155.5H256.5C257.0 155.5 257.5 156.0 258.0 156.5L258.0 156.5C259.0 157.0 260.0 157.5 261.0 158.0C263.5 159.5 266.5 159.5 269.0 158.0C270.0 157.5 271.0 157.0 272.0 156.5L272.0 156.5C272.5 156.0 273.0 155.5 273.5 155.5C273.5 155.0 274.0 155.0 274.0 154.5V154.5C275.0 154.0 276.5 154.0 277.0 155.0L277.0 155.0L277.0 155.0C278.0 156.0 277.5 157.5 277.0 158.0L277.0 158.0C276.5 158.0 276.0 158.5 276.0 158.5L275.5 159.0L274.0 160.0C273.0 160.5 272.0 161.0 271.0 161.5C269.0 162.5 267.0 163.0 265.0 163.0C265.0 163.0 265.0 163.0 265.0 163.0C263.0 163.0 261.0 162.5 259.0 161.5C258.0 161.0 257.0 160.5 256.0 160.0V160.0C255.5 159.5 255.0 159.0 254.5 159.0V159.0C254.0 158.5 253.5 158.5 253.0 158.0L253.0 158.0C252.5 157.0 252.0 156.0 253.0 155.0Z" fill="#041822" stroke="#041822" stroke-width="2" stroke-linejoin="round"/>
<path d="M220.5 203.0C220.0 203.0 219.5 203.0 219.5 202.5C216.0 193.5 214.0 191.0 212.0 188.0C211.5 187.5 211.0 186.5 210.5 185.5C209.0 183.5 203.0 181.5 197.5 179.0C193.5 177.5 189.5 176.5 187.0 175.0C184.5 173.5 183.0 172.5 181.0 172.0C180.0 171.5 179.0 171.0 177.5 170.5C176.0 169.5 174.5 169.0 173.0 168.0C170.5 166.5 168.0 165.0 165.0 164.5C156.5 163.0 146.0 158.5 136.5 152.0C128.0 146.5 121.0 143.0 116.0 140.5C114.5 139.5 113.0 139.0 111.5 138.0C110.5 137.5 109.0 137.0 108.0 137.0C107.0 136.5 105.5 136.5 104.5 136.0C97.5 133.0 96.0 131.5 94.0 129.5C93.0 128.5 92.5 127.5 91.5 127.0C85.5 121.5 84.0 120.0 84.0 118.0C84.5 117.0 84.5 117.0 85.0 116.5C84.0 116.0 83.5 115.5 83.0 115.0C81.0 113.0 81.5 111.5 81.5 111.0C82.0 111.0 82.0 110.5 82.5 110.0C82.0 110.0 82.0 109.5 81.5 109.0C81.5 108.0 81.5 107.0 82.0 106.5C82.5 105.5 83.5 105.0 84.0 105.0C85.0 105.0 86.0 105.5 86.5 106.0C87.0 106.0 87.0 105.5 87.5 105.5C89.0 104.5 91.5 105.5 93.5 106.5C93.5 106.5 94.0 107.0 94.0 107.0C95.5 107.5 98.0 109.0 100.5 110.0C100.5 110.0 100.5 110.0 100.5 109.5C100.5 108.5 101.0 108.0 102.0 107.5C103.5 106.5 106.0 108.0 110.0 111.0C111.5 112.0 112.5 112.5 113.5 113.0C116 114.5 118.5 118.5 120.0 122.0C120.0 123.0 120.0 123.5 120.5 123.5C120.5 125.0 120.5 125.5 125.5 127.0C129.0 127.5 132.5 128.5 136.0 129.0C142.0 130.5 148.0 131.5 153.5 133.5C162.0 136.5 167.5 141.0 171.5 144.0C173.5 145.5 175.0 147.0 176.5 147.5C178.0 148.5 180.0 148.5 182.5 149.0C187.5 150.0 194.5 151.5 203.0 156.5C205.5 158.0 205.5 158.0 207.5 157.5C222.5 154.0 233.5 160.5 239.0 164.0L239.5 164C239.5 164.0 239.5 164.5 240.0 164.5C240.5 165.0 242.0 165.5 242.0 165.5H242.0C243.0 165.5 243.5 165.5 243.5 166.5C244.0 167.0 243.5 167.5 243.0 167.5C241.5 168.0 240.5 167.5 239.0 166.0C238.5 166.0 238.5 166.0 238.0 166.0L238.0 165.5C232.5 162.5 222.0 156.5 208.0 159.5C205.5 160.0 204.5 160.0 202.0 158.5C193.5 153.5 187.0 152.0 182.0 151.0C179.5 151.0 177.5 150.5 175.5 149.5C174.0 149.0 172.0 147.5 170.0 145.5C166.0 142.5 160.5 138.5 152.5 135.5C147.0 133.5 141.5 132.5 135.5 131.5C132.0 130.5 128.5 129.5 125.0 129.0C119.5 127.0 119.0 126.5 118.0 124.0C118.0 124.0 118.0 123.5 118.0 123.0C116.0 118.5 114.0 115.5 112.5 115.0C111.5 114.5 110.5 113.5 109.0 112.5C107.5 111.5 104.0 109.0 103.0 109.0C102.5 109.5 102.5 109.5 102.5 110.0C102.5 110.0 102.5 111.0 103.5 112.0C104.0 112.5 104.0 113.0 103.5 113.5C103.5 114.0 103.0 114.0 102.5 113.5C102.5 113.5 95.0 109.5 93.5 109.0C93.0 109.0 93.0 108.5 92.5 108.5C91.5 108.0 89.0 107.0 88.5 107.0C88.5 107.5 88.5 107.5 88.5 108.0C88.5 108.5 88.0 109.0 87.5 109.0C87.0 109.0 87.0 109.0 86.5 108.5C86.0 108.0 84.5 107.0 84.0 107.0C84.0 107.0 84.0 107.0 84.0 107.5C83.5 108.0 83.5 108.0 83.5 108.0C84.0 109.0 85.0 109.5 85.5 109.5C86.0 110.0 86.0 110.5 86.0 111.0C86.0 111.5 85.0 111.5 84.5 111.5C84.5 111.5 83.5 112.0 83.5 112.0C83.5 112.5 84.0 113.0 84.0 113.0C87.0 115.5 88.0 116.5 88.0 116.5C88.5 117.0 88.5 117.5 88.5 118.0C88.0 118.5 87.5 118.5 87.0 118.5C86.5 118.5 86.5 118.0 86.5 118.0C86.0 119.5 87.5 120.5 92.5 125.0C94.0 126.0 95.0 127.0 95.5 128.0C97.5 130.0 98.5 131.5 105.5 134.0C106.5 134.5 107.5 134.5 108.5 134.5C109.5 135.0 111.0 135.5 113.0 136.5C114.0 137.0 115.5 137.5 117.0 138.5C122.0 141.0 129.0 144.5 137.5 150.5C147.0 156.5 157.0 161.0 165.5 162.5C168.5 163.0 171.5 164.5 174.0 166.0C175.5 167.0 177.0 168.0 178.0 168.5C179.5 169.0 181.0 169.5 182.0 170.0C183.5 170.5 185.0 171.5 188.0 173.0C190.5 174.5 194.5 176.0 198.0 177.0C204.5 179.5 210.5 182.0 212.5 184.5C213.0 185.5 213.5 186.0 214.0 187.0C216.0 189.5 218.0 192.5 221.5 201.5C221.5 202.5 221.5 203.0 221.0 203.0C220.5 203.0 220.5 203.0 220.5 203.0L220.5 203.0Z" fill="#041822"/>
<path d="M109.0 118.0C108.5 118.0 108.5 118.0 108.0 117.5C105.5 115.0 102.5 114.0 102.5 114.0C102.0 113.5 101.5 113.0 102.0 112.5C102.0 112.0 102.5 111.5 103.5 112.0C103.5 112.0 106.5 113.5 109.5 116.0C110.0 116.5 110.0 117.5 109.5 117.5C109.5 118.0 109.0 118.0 109.0 118.0L109.0 118.0Z" fill="#041822"/>
<path d="M99.0 117.0C99.0 117.0 99.0 116.5 98.5 116.5C92.0 112.0 87.0 109.0 86.5 109.0C86.0 108.5 86.0 108.0 86.5 107.5C86.5 107.0 87.5 107.0 88.0 107.0C88.0 107.0 93.0 110.0 100.0 115.0C100.5 115.0 100.5 116.0 100.0 116.5C100.0 116.5 99.5 117.0 99.0 117.0L99.0 117.0Z" fill="#041822"/>
<path d="M97.0 120.0C96.5 120.0 96.5 120.0 96.0 120.0C89.5 115.5 84.5 111.5 84.5 111.5C84.0 111.0 83.5 110.5 84.0 110.0C84.5 109.5 85.0 109.5 85.5 109.5C85.5 109.5 91.0 113.5 97.5 118.0C98.0 118.5 98.0 119.0 97.5 119.5C97.5 120.0 97.0 120.0 97.0 120.0H97.0Z" fill="#041822"/>
<path d="M96.0 124.5C95.5 124.5 95.5 124.0 95.0 124.0C89.0 119.0 87.0 118.5 87.0 118.5C86.5 118.5 86.5 118.0 86.5 117.0C86.5 116.5 87.0 116.5 88.0 116.5C88.0 116.5 90.0 117.5 96.5 122.5C97.0 122.5 97.0 123.5 96.5 124.0C96.5 124.0 96.0 124.5 96.0 124.5Z" fill="#041822"/>
<path d="M312.0 200.5C311.5 200.5 311.5 200.5 311.5 200.5C311.0 200.0 310.5 199.5 311.0 199.0C311.0 198.5 315.0 186.0 320.5 183.0C323.0 181.5 326.5 180.0 330.5 178.5C335.0 177.0 339.5 175.0 343.0 173.0C346.0 171.0 347.5 170.5 349.5 169.5C350.5 169.5 351.0 169.0 352.0 168.5C353.5 168.0 355.0 167.0 356.0 166.0C359.0 164.5 361.5 163.0 365.0 162.5C373.5 161.0 383.5 157.0 393.0 150.5C401.5 144.5 408.5 141.0 413.0 138.5C415.0 137.5 416.5 137.0 417.5 136.5C419.0 135.5 420.5 135.0 422.0 134.5C423.0 134.5 424.0 134.5 425.0 134.0C431.5 131.5 433.0 130.0 435.0 128.0C435.5 127.0 436.5 126.0 437.5 125.0C443.0 120.0 444.0 119.0 444.0 118.0C444.0 118.0 443.5 118.5 443.5 118.5C443.0 118.5 442.5 118.5 442.0 118.0C441.5 117.5 441.5 117.0 442.0 117.0C442.0 117.0 443.5 115.5 446.0 113.0C446.5 113.0 447.0 112.5 447.0 112.0C446.5 112.0 446.0 111.5 445.5 111.5C445.0 111.5 444.5 111.5 444.5 111.0C444.0 110.5 444.5 110.0 445.0 109.5C445.5 109.5 446.5 109.0 446.5 108.0C446.5 108.0 446.5 108.0 446.5 107.5C446.5 107.0 446.0 107.0 446.0 107.0C445.5 107.0 444.5 108.0 444.0 108.5C443.5 109.0 443.0 109.0 442.5 109.0C442.5 109.0 442.0 108.5 442.0 108.0C442.0 107.5 442.0 107.5 442.0 107.0C441.0 107.0 439.0 108.0 438.0 108.5C437.5 108.5 437.0 109.0 437.0 109.0C435.0 109.5 428.0 113.5 428.0 113.5C427.5 114.0 427.0 114.0 426.5 113.5C426.5 113.0 426.5 112.5 426.5 112.0C428.0 111.0 428.0 110.0 428.0 110.0C428.0 110.0 428.0 109.5 427.5 109.0C426.5 109.0 423.0 111.5 421.5 112.5C420.0 113.5 418.5 114.5 418.0 115.0C416.5 115.5 414.5 118.5 412.5 123.0C412.5 123.5 412.0 124.0 412.0 124.0C411.5 126.5 411.0 127.0 405.0 129.0C402.0 129.5 398.5 130.5 394.5 131.5C389.0 132.5 383.0 134.0 377.5 135.5C369.5 138.5 364.0 142.5 360.5 145.5C358.0 147.5 356.5 149.0 354.5 149.5C353.0 150.5 351.0 151.0 348.5 151.0C343.5 152.0 337.0 153.5 328.5 158.5C325.5 160.0 325.0 160.0 322.5 159.5C308.5 156.5 297.5 162.5 292.5 165.5L292.0 166.0C291.0 166.5 287.0 167.0 285.5 166.5C285.0 166.5 284.5 165.5 285.0 165.0C285.0 164.5 285.5 164.5 286.0 164.5C287.0 164.5 290.5 164.5 291.0 164.0L291.5 164.0C297.0 160.5 308.0 154.0 323.0 157.5C325.0 158.0 325.0 158.0 327.0 157.0C336.0 151.5 343.0 150.0 348.0 149.0C350.5 148.5 352.5 148.5 354.0 147.5C355.5 147.0 357.0 146.0 359.0 144.0C363.0 141.0 368.5 136.5 377.0 133.5C382.5 131.5 388.5 130.5 394.5 129.0C398.0 128.5 401.5 127.5 404.5 127.0C409.5 125.5 410.0 125.0 410.0 123.5C410.0 123.5 410.5 123.0 410.5 122.0C412.0 118.5 414.5 114.5 417.0 113.0C417.5 112.5 419.0 112.0 420.0 111.0C424.0 108.0 427.0 106.5 428.5 107.5C429.5 108.0 430.0 108.5 430.0 109.5C430.0 110.0 430.0 110.0 430 110.0C432.0 109.0 435.0 107.5 436.0 107.0C436.5 107.0 436.5 106.5 437.0 106.5C439.0 105.5 441.5 104.5 443.0 105.5C443.0 105.5 443.5 106.0 443.5 106.0C444.5 105.5 445.5 105.0 446.5 105.0C447.0 105.0 447.5 105.5 448.5 106.5C449.0 107.0 449.0 108.0 448.5 109.0C448.5 109.5 448.0 110.0 448.0 110.0C448.0 110.5 448.5 111.0 448.5 111.0C449.0 111.5 449.5 113.0 447.5 115.0C447.0 115.5 446.0 116.0 445.5 116.5C446.0 117.0 446.0 117.0 446.0 118.0C446.5 120.0 445.0 121.5 439.0 127.0C438.0 127.5 437.0 128.5 436.5 129.5C434.5 131.5 433.0 133.0 426.0 136.0C424.5 136.5 423.5 136.5 422.5 137.0C421.0 137.0 420.0 137.5 418.5 138.0C417.5 139.0 416.0 139.5 414.0 140.5C409.5 143.0 402.5 146.5 394.0 152.0C384.5 158.5 374.0 163.0 365.0 164.5C362.5 165.0 360.0 166.5 357.0 168.0C356.0 169.0 354.5 169.5 353.0 170.5C352.0 171.0 351.0 171.0 350.5 171.5C348.0 172.5 347.0 173.0 344.0 175.0C340.5 177.0 335.5 178.5 331.0 180.5C327.5 182.0 324.0 183.5 321.5 184.5C318.0 187.0 314.0 196.5 313.0 199.5C312.5 200.0 312.5 200.5 312.0 200.5L312.0 200.5Z" fill="#041822"/>
<path d="M421.5 118.0C421.0 118.0 421.0 118.0 420.5 117.5C420.5 117.5 420.5 116.5 420.5 116.0C423.5 113.5 427.0 112.0 427.0 112.0C427.5 111.5 428.0 112.0 428.5 112.5C428.5 113.0 428.5 113.5 428.0 114.0C428.0 114.0 425.0 115.0 422.0 117.5C422.0 118.0 421.5 118.0 421.5 118.0V118.0Z" fill="#041822"/>
<path d="M431.0 117.0C431.0 117.0 430.5 116.5 430.0 116.5C430.0 116.0 430.0 115.0 430.5 115.0C437.0 110.0 442.5 107.0 442.5 107.0C443.0 107.0 443.5 107.0 444.0 107.5C444.5 108.0 444.0 108.5 443.5 109.0C443.5 109.0 438.5 112.0 431.5 116.5C431.5 116.5 431.5 117.0 431.0 117.0L431.0 117.0Z" fill="#041822"/>
<path d="M433.5 120.0C433.0 120.0 433.0 120.0 432.5 119.5C432.5 119.0 432.5 118.5 433.0 118.0C439.5 113.5 445.0 109.5 445.0 109.5C445.5 109.5 446.0 109.5 446.0 110.0C446.5 110.5 446.5 111.0 446.0 111.5C446.0 111.5 440.5 115.5 434.0 120.0C434.0 120.0 434.0 120.0 433.5 120.0H433.5Z" fill="#041822"/>
<path d="M434.5 124.5C434.0 124.5 434.0 124.0 433.5 124.0C433.5 123.5 433.5 122.5 434.0 122.5C440.5 117.5 442.0 116.5 442.5 116.5C443.0 116.5 443.5 116.5 444.0 117.0C444.0 118.0 443.5 118.5 443.0 118.5C443.0 118.5 441.5 119.5 435.0 124.0C435.0 124.0 434.5 124.5 434.5 124.5Z" fill="#041822"/>
<path d="M147.5 476.0C147.0 476.0 146.5 476.0 146.0 476.0C144.0 475.0 143.0 474.0 142.5 473.0C141.0 473.0 140.0 472.5 137.5 470.5C136.0 470.0 134.5 469.0 132.5 467.5C129.5 466.0 128.0 464.5 128.0 463.0C127.5 461.5 128.5 461.0 129.0 460.5C129.5 460.0 129.5 460.0 129.5 460.0C130.5 458.5 138.0 453.0 141.0 451.5C143.5 450.5 145.0 448.5 148.5 440.0C150.0 436.0 151.0 430.5 152.5 424.0C154.0 417.5 155.5 409.5 158.0 402.5C162.0 390.5 167.5 384.5 173.0 377.5C174 376.5 175.0 375.5 176.0 374.5C178.0 372.0 179.5 369.0 181.0 366.5C182.0 364.5 183.0 362.5 184.5 360.5C185.5 359.0 186.5 357.5 187.5 356.5C189.5 354.0 192.0 351.5 193.0 348.0C197.5 331.5 202.5 320.0 208.0 310.5C213.0 303.0 216.0 300.0 219.0 296.5C220.0 295.5 221.0 294.5 222.5 293.0C227.5 287.0 230.0 279.0 230.0 279.0C230.5 278.5 231.0 278.0 231.5 278.5C232.0 278.5 232.5 279.0 232.0 279.5C232.0 280.0 229.0 288.0 224.0 294.0C222.5 295.5 221.5 297.0 220.5 298.0C217.5 301.5 214.5 304.5 210.0 311.5C204.5 320.5 199.5 332.0 195.0 348.5C193.5 352.5 191.5 355.0 189.0 358.0C188.0 359.0 187.0 360.5 186.5 361.5C185.0 363.5 184.0 365.5 183.0 367.5C181.5 370.0 179.5 373.0 177.5 376.0C176.5 377.0 175.5 378.0 174.5 379.0C169.0 385.5 164.0 391.5 160.0 403.0C157.5 410.0 156.0 418.0 154.5 424.5C153.0 431.0 152.0 436.5 150.5 440.5C147.0 449.0 145.0 452.0 142.0 453.5C139.0 455.0 132.0 460.0 131.5 461.0C131.0 461.5 131.0 461.5 130.5 462.0C130.0 462.0 130.0 462.5 130.0 462.5C130.0 463.0 130.5 464.0 133.5 466.0C135.5 467.0 137.5 468.0 138.5 469.0C141.0 470.5 141.5 471.0 142.5 471.0C143.5 471.0 144.5 471.5 144.5 472.5C144.5 472.5 145.0 473.0 146.5 474.0C147.5 474.0 148.5 474.0 150.0 472.0C150.5 471.0 152.0 469.0 153.5 467.0C154.0 466.0 154.5 464.5 155.5 463.0C156.0 461.5 157.0 459.5 158.5 457.5C159.5 456.0 159.5 455.0 160.0 453.5C161.0 451.0 162.0 447.5 167.5 439.0C170.5 434.0 174.5 429.5 178.0 425.5C182.5 420.0 186.5 415.0 188.0 411.0L189.0 408.5C192.0 400.5 195.5 390.5 199.0 385.5C200.0 384.5 201.0 383.0 202.5 381.0C205.5 378.0 208.5 374.0 212.5 368.5C213.5 367.0 214.5 366.0 216.0 364.5C218.0 362.5 219.5 361.0 221.0 358.5C223.5 353.0 228.0 347.0 234.0 339.5C239.5 332.0 246.5 323.5 254.0 312.0C258.0 306.5 264.0 307.0 264.5 307C265.0 307.0 265.5 307.5 265.0 308.0C265.0 308.5 264.5 309.0 264.0 309.0C264.0 309.0 259.0 308.5 256.0 313.5C248.0 325.0 241.0 333.5 236.0 340.5C229.5 348.5 225.5 354.0 222.5 359.5C221.5 362.0 219.5 364.0 217.5 366.0C216.0 367.0 215.0 368.5 214.0 369.5C210.5 375.0 207.0 379.0 204.0 382.5C203.0 384.0 201.5 385.5 200.5 387.0C197.5 391.5 193.5 401.5 191.0 409.0L190.0 411.5C188.5 416.5 184.0 421.5 179.5 427.0C176.0 431.0 172.5 435.5 169.0 440.5C164.0 448.0 163.0 452.0 162.0 454.0C161.5 456.0 161.5 457.0 160.0 459.0C158.5 460.5 158.0 462.0 157.0 464.0C156.5 465.5 156.0 467.0 155.0 468.0C153.5 470.0 152.5 472.0 151.5 473.0C150.5 475.5 149.0 476.0 147.5 476.0H147.5Z" fill="#041822"/>
<path d="M248.5 122.0C248.5 123.0 247.5 124.0 246.5 124.0H246.5C245.0 124.0 244.0 123.0 244.0 122.0V122.0C244.0 117.0 245.5 112.5 249.0 109.5C253.5 105.0 261.0 104.0 265.0 104.0C269.5 104.0 274.0 105.5 278.0 108.5C282.0 111.0 285.0 115.0 285.0 119.5C285.5 124.0 285.5 128.5 285.5 131.0C286.0 131.0 286.5 131.0 287.0 131.5H287.0C288.0 132.5 288.0 134.0 288.0 135.5C288.0 136.5 287.5 138.0 287.0 139.5V139.5C287.0 140.0 287.0 140.0 287.0 140.5C287.0 141.5 287.0 142.5 286.5 143.0C286.0 144.0 285.5 144.5 284.0 145.5L284.0 145.5C284.0 145.5 283.5 146.0 283.5 146.0L283.5 146.0C283.0 146.0 283.0 146.5 283.0 146.5C283.0 146.5 283.0 146.5 283.0 146.5C283.0 146.5 282.5 147.0 282.5 147.0C282.5 147.5 282.5 148.0 282.5 148.5C282.5 149.0 282.0 149.5 282.0 149.5L282.0 149.5C282.0 150.0 282.0 150.0 282.0 150.0L282.0 150.0C281.5 151.0 281.5 152.0 281.0 152.5C281.0 152.5 281.0 152.5 281.0 152.5C281.0 152.5 281.0 152.5 281.0 152.5L281.0 152.5C280.0 155.0 278.5 156.5 277.0 158.0L277.0 158.0C276.5 158.0 276.0 158.5 275.5 158.5C275.5 158.5 275.5 158.5 275.5 158.5C275.0 158.5 274.5 158.0 274.0 157.5C273.0 156.5 273.5 155.5 274.0 154.5L274.0 154.5C275.5 153.5 276.5 152.5 277.5 151.0C277.5 151.0 277.5 151.0 277.5 151.0C277.5 151.0 277.5 151.0 277.5 151.0C277.5 150.0 278.0 149.5 278.0 149.0L278.0 149.0C278.0 149.0 278.0 149.0 278.0 149.0C278.0 149.0 278.0 149.0 278.0 149.0C278.0 149.0 278.0 149.0 278.0 149.0C278.0 149.0 278.0 149.0 278.0 149.0C278.0 148.5 278.5 148.0 278.5 147.5L278.5 147.5C278.5 147.0 278.5 146.0 279.0 145.5C279.0 145.0 279.5 144.0 280.0 143.5L280.0 143.5C280.5 143.0 281.0 143.0 281.0 142.5L281.5 142.5C281.5 142.5 281.5 142.5 282.0 142.0C282.5 141.5 282.5 141.5 282.5 141.5C283.0 141.0 283.0 141.0 283.0 140.0C283.0 139.5 283.0 139.0 283.0 138.5C283.5 137.0 283.5 136.0 284.0 135.5C284.0 135.0 284.0 135.0 284.0 134.5C283.0 134.5 282.5 134.5 282.0 134.0C281.5 133.5 281.5 133.0 281.5 133.0C281.5 133.0 281.5 133.0 281.5 133.0C281.5 132.5 281.5 132.5 281.5 132.5L281.5 132.5C281.5 132.5 281.5 132.0 281.5 131.0C281.5 130.5 281.5 129.5 281.5 128.5C281.5 126.0 281.5 123.0 281.0 119.5V119.5C281.0 116.5 278.5 114.0 275.5 111.5C272.5 109.5 268.5 108.0 265.0 108.0C263.5 108.0 261.0 108.5 258.5 109.0C256.0 109.5 253.5 110.5 251.5 112.5C249.5 114.5 248.5 118.0 248.5 122.0V122.0Z" fill="#041822" stroke="#041822" stroke-width="2" stroke-linejoin="round"/>
<path d="M302.5 222.0H302.5C303.5 222.0 304.5 223.0 304.5 224.5V224.5C304.0 228.0 303.0 231.5 302.5 235.0L301.5 238.0C300.0 244.5 298.5 250.5 299.0 256.0L299.0 256.0C300.0 262.0 299.5 265.5 299.5 269.0V269.0C299.5 272.5 299.5 275.0 300.0 279.0V279.0C302.0 290.0 301.5 294.0 301.0 297.5C300.5 300.0 300.5 302.0 300.5 306.0H300.5L301.0 307.0C302.0 317.0 304.0 336.5 298.0 359.5C295.0 369.5 294.0 375.0 293.0 379.0C292.5 382.5 292.5 384.5 293.0 388.0C294.0 391.5 294.0 394.0 293.5 396.5C293.0 398.5 292.5 400.5 291.5 402.0L290.5 404.0L290.0 405.5L290.0 405.5L289.5 407.0C288.5 409.5 287.5 411.0 287.5 413.5C287.0 415.5 287.5 419.0 288.5 424.5L288.5 426.0C289.5 433.0 289.0 436.5 288.5 442.5C288.0 446.0 287.5 451.0 287.0 458.0C287.0 459.0 287.0 460.5 287.0 461.5L286.5 465.0C286.0 472.0 286.0 476.5 286.0 479.5C286.5 481.0 286.5 482.5 287.0 483.0C287.5 484.0 288.5 485.0 289.0 485.5C290.5 486.0 292.0 487.0 293.0 488.0L294.0 489.0L294.0 489.0C298.0 491.5 301.5 494.0 307.0 494.5H307.0C310.5 495.0 313.5 495.5 315.5 496.0C317.5 496.5 319.0 497.0 319.5 498.5C320.5 499.5 320.5 500.5 320.5 502.0C320.0 504.5 318.0 506.0 315.5 506.5C313.0 507.5 309.5 507.5 305.5 507.5L305.5 507.5C302.5 507.5 299.5 507.0 297.0 506.5L295.5 506.5C290.5 505.5 285.5 505.0 280.5 506.0L280.5 506.0C276.5 507.0 272.5 508.0 269.5 508.0C269.5 508.0 269.5 508.0 269.5 508.0C267.5 508.0 265.5 507.5 264.0 506.5L264.0 506.5C262.5 505.0 261.5 503.0 261.5 501.0V501.0C261.5 498.5 262.5 496.0 263.0 494.0L263.5 492.0C263.5 490.5 264.0 488.5 264.0 487.5V487.5C263.0 473.5 260.5 464.0 258.5 455.5C255.5 443.0 253.0 433.0 257.0 416.0L257.0 415.5L257.0 415.5C258.5 410.0 260.5 402.0 260.5 396.5C260.5 394.5 260.0 393.0 260.0 391.5C259.5 389.5 259.0 387.5 259.0 385.0L259.0 384.5C259.5 382.5 259.5 380.5 260.0 379.0C260.5 377.0 261.0 375.5 261.0 373.5C261.0 368.0 260.0 362.5 259.5 357.0V357.0C258.5 352.0 258.0 347.0 258.0 341.0V341.0C258.0 340.0 258.5 339.0 260.0 339.0H260.0C261.0 339.0 262.0 339.5 262.0 340.5L262.0 341.0V341.0C262.0 346.5 262.5 351.5 263.5 356.5C264.0 362.0 265.0 367.5 265.0 373.5C265.0 375.5 264.5 377.0 264.5 378.5L264.0 380.0C263.5 381.5 263.5 383.5 263.5 385.0C263.5 387.0 263.5 388.0 263.5 389.5L264.0 390.5C264.0 392.0 264.5 394.0 264.5 396.5C264.5 402.5 262.5 411.0 261.0 416.5L261.0 417.0L261.0 417.0C257.0 433.0 259.5 442.5 262.5 454.5L263.5 458.0C265.0 465.5 267.0 474.0 268.0 486.0L268.0 487.0C268.0 489.5 267.5 491.5 267.0 494.0L267.0 495.0C266.5 497.0 265.5 499.0 265.5 501.0C265.5 502.0 266.0 503.0 266.5 503.0L266.5 503.0C267.0 503.5 267.5 503.5 268.5 504.0C269.0 504.0 270.0 504.0 271.0 504.0C273.5 503.5 276.5 503.0 279.5 502.0C285.5 500.5 291.0 501.5 296.5 502.5C299.5 503.0 302.5 503.5 305.5 503.5C309.5 503.5 312.5 503.0 314.0 503.0C316.0 502.5 316.5 501.5 316.5 501.0C316.5 501.0 316.5 501.0 316.5 501.0C316.5 501.0 316.5 501.0 316.5 501.0L316.5 501.0C316.5 500.5 316.0 500.5 315.0 500.0C314.5 500.0 313.5 499.5 312.5 499.5C310.0 499.0 308.0 499.0 307.0 499.0C300.0 498.5 296.0 495.0 292.0 492.0L290.5 491.0C289.5 490.5 288.5 489.5 287.0 489.0C285.5 488.0 284.5 487.0 283.5 485.5C283.0 484.0 282.5 482.5 282.0 480.5C281.5 477.0 282.0 471.5 282.5 465.0C282.5 462.5 282.5 460.0 283.0 457.5C283.5 450.5 284.0 446.0 284.5 442.0C285.0 436.0 285.5 432.5 284.5 425.0C283.5 419.0 283.0 415.5 283.5 413.0C283.5 410.0 284.5 408.0 285.5 405.5C286.0 405.0 286.0 404.5 286.5 404.0H286.5L287.0 402.5V402.5C288.0 400.0 289.0 398.0 289.5 396.0C289.5 394.0 289.5 392.0 289.0 388.5L289.0 387.5C288.5 384.5 288.5 382.0 289.0 378.5C289.5 374.5 291.0 368.5 294.0 358.5C300.0 336.0 298.0 318.0 297.0 307.5L296.5 306.5C296.0 302.0 296.5 299.5 297.0 297.0C297.5 293.5 298.0 290.0 296.0 279.5L296.0 279.0C295.5 275.0 295.5 272.0 295.5 269.0C295.5 265.5 295.5 262.0 295.0 256.0C294.5 250.0 296.0 243.5 297.5 237.5L298.5 234.0C299.0 230.5 300.0 227.5 300.5 224.0V224.0C300.5 222.5 301.5 222.0 302.5 222.0Z" fill="#041822" stroke="#041822" stroke-width="2" stroke-linejoin="round"/>
<path d="M357.0 489.0C356.5 489.0 356.0 489.0 356.0 489.0C354.0 488.5 352.0 487.0 351.0 485.0C350.0 483.0 349.5 480.5 349.5 478.5C349.0 476.0 348.5 473.5 347.5 472.0C341.0 460.0 334.5 452.5 329.0 445.5C320.5 435.0 313.5 427.0 310.0 409.5L310.0 409.0C308.5 403.5 306.5 395.5 304.0 390.5C303.0 388.5 302.5 387.0 301.5 385.5C300.5 384.5 299.5 383.0 298.0 380.5C297.5 378.5 297.0 376.0 296.5 373.5C296.0 371.0 295.5 368.0 294.5 366.5C292.0 361.0 289.0 357.5 286.0 353.5C283.0 350.0 280.0 346.5 277.5 341.5C274.5 336.0 272.5 329.0 270.5 323.0C268.5 316.0 266.5 309.0 264.0 309.0C263.5 309.0 263.0 308.5 263.0 308.0C263.0 307.5 263.5 307.0 264.0 307.0C268.0 307.0 270.0 313.5 272.5 322.0C274.5 328.5 276.5 335.0 279.5 340.5C282.0 345.5 285.0 349.0 287.5 352.5C290.5 356.0 294.0 360.0 296.5 365.5C297.5 367.5 298.0 370.5 298.5 373.0C299.0 375.5 299.5 378.0 300.0 379.5C301.0 382.0 302.0 383.0 303.0 384.5C304.0 386.0 305.0 387.0 306.0 389.5C308.5 395.0 310.5 403.0 312.0 408.5L312.0 409.0C315.5 426.0 322.5 434.0 330.5 444.0C336.5 451.0 342.5 459.0 349.5 471.0C350.5 473.0 351.0 475.5 351.5 478.0C351.5 480.0 352.0 482.5 353.0 484.0C353.5 485.5 355.0 486.5 356.0 487.0C359.0 487.0 362.5 485.0 366.5 480.5C370.0 476.5 373.0 476.0 376.5 475.5C380.0 474.5 384.5 474.0 392.0 469.5C397.5 466.0 397.5 465.5 397.0 464.0C396.5 463.5 396.5 463.5 396.5 463.0C396.5 462.0 394.0 462.5 391.5 463.0C390.0 463.5 388.5 463.5 386.5 464.0C381.0 464.0 377.5 463.5 374.5 463.0C372.5 463.0 370.5 462.5 368.5 462.5C362.0 462.0 359.5 456.5 354.5 444.0C353.5 441.5 352.5 439.5 351.5 437.0C348.5 430.0 347.0 425.0 346.0 421.5C344.0 415.5 342.5 411.5 338.0 405.0C331.0 395.0 330.5 391.0 330.0 383.5L330.0 382.0C329.5 376.5 329.5 373.5 325.5 368.5C322.0 363.0 321.5 362.5 319.0 349.5C319.0 347.0 318.5 344.5 317.5 342.0C315.0 328.0 310.5 316.5 305.0 308.0C300.0 300.5 298.5 293.5 298.0 289.0C298.0 288.5 298.5 288.0 299.0 288.0C300.0 288.0 300.5 288.0 300.5 289.0C300.5 292.0 302.0 299.0 307.0 306.5C312.5 315.5 317.0 327.5 320.0 341.5C320.5 344.5 321.0 347.0 321.5 349C323.5 362.0 324.0 362.0 327.5 367.0C331.5 372.5 331.5 376.0 332.0 382.0L332.0 383.5C332.5 390.0 332.5 393.5 340.0 404.0C344.5 410.5 346.0 414.5 348.0 420.5C349.0 424.5 350.5 429.5 353.5 436.0C354.5 438.5 355.5 441.0 356.5 443.0C361.5 455.0 363.5 460.0 368.5 460.5C371.0 460.5 372.5 461.0 374.5 461.0C378.0 461.5 381.0 462.0 386.5 461.5C388.0 461.5 389.5 461.5 391.5 461.0C394.5 460.5 398.0 459.5 398.5 462.5C398.5 463.0 398.5 463.0 399.0 463.5C399.5 466.0 399.5 467.5 393.0 471.0C385.5 476.0 380.5 477.0 377.0 477.5C373.5 478.0 371.0 478.5 368.5 482.0C364.0 486.5 360.0 489.0 357.0 489.0L357.0 489.0Z" fill="#041822"/>
<path d="M229.5 200.0C230.5 200.0 231.5 200.5 231.5 201.5L231.5 201.5C232.0 204.5 234.5 207.5 238.0 209.0H238.0C241.0 210.5 244.5 211.0 249.0 210.0C252.5 209.5 256.5 208.0 260.0 206.5L260.0 206.5C260.5 206.0 261.5 206.5 262.0 207.5C262.5 208.0 262.0 209.0 261.0 209.5C257.5 210.5 254.0 212.0 250.0 213.0L249.5 213.0C248.0 213.5 246.0 213.5 244.5 213.5L244.5 213.5H244.5C241.5 213.5 239.0 213.0 236.5 212.0C232.0 210.0 229.0 206.5 228.5 202.0C228.5 201.0 229.0 200.5 229.5 200.0Z" fill="#041822" stroke="#041822"/>
<path d="M298.5 201.5C298.5 200.5 299.5 200.0 300.5 200.0L300.5 200.0C301.0 200.5 301.5 201.0 301.5 202.0V202.0C301.0 206.5 298.0 210.0 293.5 212.0C291.0 213.0 288.5 213.5 285.5 213.5H285.0V213.5C283.5 213.5 282.0 213.5 280.5 213.0H280.5C276.5 212.5 272.5 211.0 269.0 209.5C268.0 209.0 267.5 208.0 268.0 207.5H268.0C268.5 206.5 269.5 206.0 270.0 206.5H270.0C273.5 208.0 277.5 209.5 281.0 210.0H281.0C285.5 211.0 289.0 210.5 292.0 209.0L292.5 209.0C295.5 207.5 298.0 204.5 298.5 201.5Z" fill="#041822" stroke="#041822"/>
<path d="M264.0 274.0C265.0 274.0 265.5 275.0 265.5 276.0V280.5C265.5 281.0 265.0 282.0 264.0 282.0C263.0 282.0 262.5 281.0 262.5 280.5V276.0C262.5 275.0 263.0 274.0 264.0 274.0Z" fill="#041822" stroke="#041822"/>
<path d="M265.0 508C260.5 508 256.5 508.0 252.0 507.5C251.5 507.5 251.0 507.0 251.0 506.5C251.0 506.0 251.5 505.5 252.0 505.5C267.0 506.5 282.5 505.5 297.5 503.5C298.0 503.5 298.5 504.0 298.5 504.5C298.5 505.0 298.5 505.5 297.5 506.0C287.0 507.5 276.0 508.0 265.0 508.0V508ZM229.5 505.5C229.5 505.5 229.5 505.5 229.5 505.5C172.5 497.0 120.0 468.5 81.5 424.5C43.0 380.5 22 323.5 22 265.0C22 131.0 131.0 22 265.0 22C399.0 22 508 131.0 508 265.0C508 320.5 489.0 374.5 454.0 418.0C419.5 460.0 371.5 490.0 318.5 502.0C318.0 502.0 317.5 502.0 317.5 501.0C317.5 500.5 317.5 500.0 318.5 500.0C427.0 475.5 506.0 376.5 506.0 265.0C506.0 132.0 398.0 24.0 265.0 24.0C132.0 24.0 24.0 132.0 24.0 265.0C24.0 383.5 112.5 486.0 230.0 503.5C230.5 503.5 231.0 504.0 230.5 504.5C230.5 505.0 230.0 505.5 229.5 505.5V505.5Z" fill="#041822"/>
<path d="M277.5 154.0C278.5 154.0 279.5 154.5 280.0 155.5L280.0 156.0L280.0 156.0C281.5 160.5 282.5 163.5 286.0 165.5L286.5 166.0C291.5 169 295.5 169.0 299.5 169.0H299.5C301.0 169.0 303.0 169.0 304.5 169.5C306.0 169.5 306.5 170.0 307.5 170.0L307.5 170.0C308.0 170.5 308.5 170.5 309.0 170.5C310.0 170.5 311.5 170.5 314.5 170.5C322.0 170.5 330.0 172.0 337.5 173.0L337.5 173.0H337.5L337.5 173.5C339.0 173.5 340.5 174.0 342.0 174.0L343.5 174.5C350.0 175.5 354.5 176.0 358.0 176.0C362.0 176.0 364.5 175.0 367.5 174.5L367.5 174.5C369.0 174.5 371.0 174.0 373.0 173.5C382.0 172.5 385.0 172.5 391.0 173.5L393.0 173.5C398.0 174.0 404.5 174.5 416.0 175.0C417.5 175.0 419.0 174.5 421.0 174.0L421.0 174.0H421.0C422.5 173.5 423.5 173.0 424.5 172.0C425.5 171.0 426.5 170.0 427.0 169.0L427.5 168.5V168.5L427.5 168.5V168.5C428.5 166.5 429.5 164.5 432.5 163.5C434.0 163.0 435.5 161.5 437.0 160.5H437.0C438.0 159.5 439.0 159.0 439.5 158.5C440.5 158.0 441.5 157.5 442.5 158.0H442.5C444.0 158.5 444.5 159.5 445.0 160.5L445.0 161.0C445.5 162.5 445.0 163.5 444.5 165.0C444.0 166.0 443.0 167.5 441.5 168.5L441.5 168.5L441.0 168.5L441.0 169.0C440.5 169.0 440.0 169.5 439.5 169.5C439.5 169.5 440.0 170.0 440.0 170.0H440.0C444.5 170.5 446.5 170.5 449.0 170.0H449.0L450.0 170.0C450.5 169.5 451.0 169.5 451.5 169.5L451.5 169.5C454.5 169.0 457.5 169.0 460.0 169.0C461.0 169.0 462.0 169.5 463.0 169.5C464.0 170.0 464.5 171.0 465.0 172.0H465.0L466.0 175.0C466.0 175.0 466.0 175.0 466.0 175.0C466.5 175.0 467.0 175.5 467.0 176.0C467.5 176.0 468.0 176.5 468.5 177.0C469.0 177.0 469.0 177.5 469.5 178.0C469.5 178.5 469.5 179.0 469.5 179.0C469.5 179.5 469.5 179.5 469.5 180.0C469.5 180.5 469 181.5 468.5 182.0C468.5 182.5 468.0 183.5 467.5 184.0C467.5 184.0 467.0 184.5 467.0 184.5C466.5 185.0 466.0 185 465.5 185H464.5C464.5 185.5 464.0 186.0 464.0 186.5C463.0 187.5 462.5 188.5 461 188.5C460.5 188.5 460.5 188.5 460.0 188.5C460.0 188.5 460.0 188.5 460.0 189.0C459.5 189.0 459.5 189.0 459.0 189.5C458.5 190.0 458.5 190.0 457.5 190.5C457.0 191.0 456.5 191.5 455.5 191.5C455.0 191.5 454.0 192.0 452.5 192.0C450.5 192.5 448.0 192.5 445.0 192.5C442.0 192.5 439.5 192.5 437.0 192.5C434.5 192.0 432.5 192.0 431.0 191.5C428.0 190.5 424.5 190.5 423.5 191.0C423.5 191.0 423.5 191.0 423.5 191.0C418.0 191.5 413.5 193.0 409.0 194.5C399.0 198.0 387.5 201.5 363.5 200.0C356.5 199.5 349.5 200.0 340.5 201.0C330.5 202.5 326.5 201.5 323.5 200.5H323.5L323.5 200.5C321.5 200.0 320.0 200.0 318.5 200.0H318.5C316.5 200.0 315.0 201.0 314.0 202.5C313.0 204.0 312.0 206.0 311.0 208.0V208.0L311.0 208.0C310.5 209.5 310.0 211.0 309.0 212.5V212.5C306.5 217.0 305.0 222.0 304.5 227.0C304.0 228.0 303.5 228.5 302.5 228.5C302.0 228.5 302.0 228.5 302.0 228.5C302.0 228.5 302.0 228.5 302.0 228.5V228.5C302.0 228.5 302.0 228.5 302.0 228.5C302.0 228.5 302.0 228.5 302.0 228.5V228.5C301.0 228.5 300.0 227.5 300.5 226.5V226.5C301.0 221.0 302.5 215.5 305.5 210.5C306.0 209.5 306.5 208.0 307.0 206.5C308.0 204.5 309.0 201.5 311.0 199.5C312.5 197.5 315.0 196.0 318.0 196.0L318.5 196.0C321.0 196.0 322.5 196.0 324.0 196.5L324.5 196.5H324.5L324.5 196.5H324.5C327.0 197.5 331.0 198.0 340.0 197.0C349.0 195.5 356.5 195.5 363.5 196.0C387.0 197.5 398.0 194.0 407.5 190.5L407.5 190.5L409.5 190.0C413.5 188.5 418.0 187.5 423.0 187.0L423.0 187.0C424.0 186.5 425.5 186.5 427.0 186.5C428.5 186.5 430.0 186.5 431.5 187.0C431.5 187.0 432.0 187.0 433.0 187.0C433.5 187.0 434.5 187.5 436.0 187.5C438.0 187.5 441.0 187.5 444.0 187.5C447.0 188.0 449.5 188.0 452.0 187.5C453.0 187.5 454.0 187.5 455.0 187.5C455.0 187.5 455.5 187.5 455.5 187.5C456.0 187.0 456.0 187.0 456.0 187.0C457.0 186.5 457.0 186.0 457.5 185.5C458.0 185.5 458.0 185.0 458.5 185.0C459.0 184.5 459.5 184.5 460 184.5C460.5 184.5 460.5 184.5 460.5 184.0C461.0 183.5 461.0 183.0 461.0 183.0C461.0 182.5 461.0 182.5 461.5 182.0C462.0 182.0 462.5 181.5 463.0 181.5C463.5 181.0 464.0 181.0 465.0 181.0C465.0 181.0 465.0 181.0 465.0 181.0C465.0 180.5 465.5 180.5 465.5 180.0C465.5 179.5 465.5 179.0 465.5 179.0C465.0 179.0 464.0 178.5 463.5 178.0C463.0 178.0 462.5 178.0 462.0 177.5C462.0 177.0 461.5 176.5 461.5 176.0C461.5 175.5 461.5 175.0 461.5 174.5C461.0 174.0 461.0 173.5 461.0 173.5C461.0 173.0 460.5 173.0 460.0 173.0C458.5 173.0 456.0 173.0 452.0 173.5L452.0 173.5L452.0 173.5L452.0 173.5C451.0 174.0 450.5 174.0 450.0 174.0H450.0C447.0 174.5 444.5 175.0 440.0 174.0L439.0 174.0C438.5 173.5 437.5 173.5 436.5 173.0C436.0 172.5 435.0 172.0 435.0 170.5C434.5 169.0 435.0 168.0 436.0 167.5C437.0 166.5 438.0 166.0 438.5 165.5L439.0 165.0C440.5 164.0 441.0 163.5 441.0 163.0C441.0 163.0 441.0 162.5 441.0 162.5C440.5 162.5 440.0 163.0 439.5 163.5L439.5 163.5C438.0 165.0 436.0 166.5 434.0 167.0H434.0C432.5 167.5 432.0 168.5 431.0 170.5L431.0 170.5C431.0 170.5 431.0 171.0 430.5 171.0C430.0 172.5 428.5 174.0 427.0 175.0C426.0 176.5 424.0 177.5 422.5 178.0L422.5 178.0L422.0 178.0H422.0C420.0 178.5 418.0 179.0 415.5 179.0H415.5C402.5 179.0 395.5 178.0 390.5 177.5L390.5 177.5H390.5C385.0 177.0 382.0 176.5 373.5 177.5H373.5C371.5 178.0 370.0 178.5 368.5 178.5L368.0 178.5C365.0 179.5 362.0 180.0 358.0 180.0C354.5 180.0 349.5 179.5 342.5 178.5L341.5 178.0C339.5 178.0 338.0 177.5 336.5 177.5L336.5 177.5C329.5 176.0 322.5 174.5 315.5 174.5L314.5 174.5C311.5 174.5 310.0 174.5 309.0 174.5C307.5 174.5 307.0 174.0 306.0 174.0V174.0C305.5 173.5 305.0 173.5 304.0 173.5H304.0C302.5 173.0 301.0 173.0 299.5 173.0H299.5C295.5 173.0 290.0 173.0 283.5 169.0H283.5C279.0 166.0 277.5 161.5 276.0 157.0L276.0 157.0V157.0L276.0 156.5L276.0 156.5C276.0 155.5 276.5 154.5 277.5 154.0V154.0Z" fill="#041822" stroke="#041822" stroke-width="2" stroke-linejoin="round"/>
<path d="M253.0 153.0C252.0 153.0 251.0 153.5 250.5 154.5L250.5 155.0L250.5 155.0C249.0 159.5 248.0 162.5 244.5 164.5L244.0 165.0C239.0 168 235.0 168.0 231.5 168.0H231.5C229.5 168.0 227.5 168.0 226.0 168.5C224.5 168.5 224.0 169.0 223.5 169.0L223.5 169.0C222.5 169.5 222.5 169.5 221.5 169.5C220.5 169.5 219.0 169.5 216.0 169.5C208.5 169.5 200.5 171.0 193.5 172.0L193.0 172.0H193.0L193.0 172.5C191.5 172.5 190.0 173.0 188.5 173.0L187.0 173.5C180.5 174.5 176.0 175.0 172.5 175.0C169.0 175.0 166.0 174.0 163.0 173.5L163.0 173.5C161.5 173.5 160.0 173.0 157.5 172.5C149.0 171.5 145.5 171.5 139.5 172.5L137.5 172.5C133.0 173.0 126.5 173.5 115.0 174.0C113.5 174.0 111.5 173.5 110.0 173.0L109.5 173.0H109.5C108.5 172.5 107.0 172.0 106.0 171.0C105.0 170.0 104.0 169.0 103.5 168.0L103.0 167.5V167.5L103.0 167.5V167.5C102.0 165.5 101.0 163.5 98.0 162.5C96.5 162.0 95.0 160.5 93.5 159.5H93.5C92.5 158.5 92.0 158.0 91.0 157.5C90.0 157.0 89.0 156.5 88.0 157.0H88.0C87.0 157.5 86.0 158.5 85.5 159.5L85.5 160.0C85.5 161.5 85.5 162.5 86.0 164.0C86.5 165.0 87.5 166.5 89.0 167.5L89.0 167.5L89.5 167.5L89.5 168.0C90.0 168.0 90.5 168.5 91.0 168.5C91.0 168.5 90.5 169.0 90.5 169.0H90.5C86.5 169.5 84.0 169.5 81.5 169.0H81.5L80.5 169.0C80.0 168.5 79.5 168.5 79.5 168.5L79.0 168.5C76.0 168.0 73.0 168.0 70.5 168.0C69.5 168.0 68.5 168.5 67.5 168.5C67.0 169.0 66.0 170.0 66.0 171.0H66.0L64.5 174.0C64.5 174.0 64.5 174.0 64.5 174.0C64.0 174.0 64.0 174.5 63.5 175.0C63.0 175.0 62.5 175.5 62.0 176.0C62.0 176.0 61.5 176.5 61.0 177.0C61.0 177.5 61.0 178.0 61.0 178.0C61.0 178.5 61.0 178.5 61.0 179.0C61.5 179.5 61.5 180.5 62.0 181.0C62.0 181.5 62.5 182.5 63.0 183.0C63.5 183.0 63.5 183.5 64.0 183.5C64.0 184.0 64.5 184 65.0 184H66.0C66.0 184.5 66.5 185.0 67.0 185.5C67.5 186.5 68.5 187.5 69.5 187.5C70.0 187.5 70.5 187.5 70.5 187.5C70.5 187.5 70.5 187.5 71.0 188.0C71.0 188.0 71.0 188.0 71.5 188.5C72.0 189.0 72.5 189.0 73.0 189.5C73.5 190.0 74.0 190.5 75.0 190.5C76.0 190.5 77.0 191.0 78.0 191.0C80.0 191.5 83.0 191.5 85.5 191.5C88.5 191.5 91.0 191.5 93.5 191.5C96.0 191.0 98.0 191.0 99.5 190.5C103.0 189.5 106.0 189.5 107.0 190.0C107.0 190.0 107.0 190.0 107.0 190.0C112.5 190.5 117.0 192.0 121.5 193.5C131.5 197.0 143.0 200.5 167.0 199.0C174.0 198.5 181.5 199.0 190.0 200.0C200.0 201.5 204.0 200.5 207.5 199.5H207.5L207.5 199.5C209.0 199.0 210.5 199.0 212.5 199.0H212.5C214.0 199.0 215.5 200.0 216.5 201.5C218.0 203.0 218.5 205.0 219.5 207.0V207.0L219.5 207.0C220.0 208.5 221.0 210.0 221.5 211.5V211.5C224.0 216.0 226.0 221.0 226.0 226.0C226.5 227.0 227.0 227.5 228.5 227.5C228.5 227.5 228.5 227.5 228.5 227.5C228.5 227.5 228.5 227.5 228.5 227.5V227.5C228.5 227.5 228.5 227.5 228.5 227.5C228.5 227.5 228.5 227.5 228.5 227.5V227.5C229.5 227.5 230.5 226.5 230.5 225.5V225.5C230.0 220.0 228.0 214.5 225.0 209.5C224.5 208.5 224.0 207.0 223.5 205.5C222.5 203.5 221.5 200.5 219.5 198.5C218.0 196.5 216.0 195.0 212.5 195.0L212.0 195.0C209.5 195.0 208.0 195.0 206.5 195.5L206.5 195.5H206.5L206.5 195.5H206.5C203.5 196.5 200.0 197.0 190.5 196.0C181.5 194.5 174.0 194.5 167.0 195.0C143.5 196.5 132.5 193.0 123.0 189.5L123.0 189.5L121.0 189.0C117.0 187.5 112.5 186.5 107.5 186.0L107.5 186.0C106.5 185.5 105.0 185.5 103.5 185.5C102.0 185.5 100.5 185.5 99.5 186.0C99.0 186.0 98.5 186.0 97.5 186.0C97.0 186.0 96.0 186.5 94.5 186.5C92.5 186.5 89.5 186.5 86.5 186.5C83.5 187.0 81.0 187.0 78.5 186.5C77.5 186.5 76.5 186.5 76.0 186.5C75.5 186.5 75.0 186.5 75.0 186.5C74.5 186.0 74.5 186.0 74.5 186.0C74.0 185.5 73.5 185.0 73.0 184.5C73.0 184.5 72.5 184.0 72.0 184.0C71.5 183.5 71.0 183.5 70.5 183.5C70.5 183.5 70.0 183.5 70.0 183.0C69.5 182.5 69.5 182.0 69.5 182.0C69.5 181.5 69.5 181.5 69.0 181.0C69.0 181.0 68.5 180.5 67.5 180.5C67.0 180.0 66.5 180.0 65.5 180.0C65.5 180.0 65.5 180.0 65.5 180.0C65.5 179.5 65.0 179.5 65.0 179.0C65.0 178.5 65.0 178.0 65.0 178.0C65.5 178.0 66.5 177.5 67.0 177.0C67.5 177.0 68.0 177.0 68.5 176.5C68.5 176.0 69.0 175.5 69.0 175.0C69.0 174.5 69.0 174.0 69.5 173.5C69.5 173.0 69.5 172.5 69.5 172.5C70.0 172.0 70.0 172.0 70.5 172.0C72.0 172.0 74.5 172.0 78.5 172.5L78.5 172.5L79.0 172.5L79.0 172.5C79.5 173.0 80.0 173.0 80.5 173.0H80.5C83.5 173.5 86.0 174.0 90.5 173.0L91.5 173.0C92.0 172.5 93.0 172.5 94.0 172.0C95.0 171.5 95.5 171.0 96.0 169.5C96.0 168.0 95.5 167.0 94.5 166.5C94.0 165.5 93.0 165.0 92.0 164.5L91.5 164.0C90.5 163.0 90.0 162.5 89.5 162.0C89.5 162.0 89.5 161.5 89.5 161.5C90.0 161.5 90.5 162.0 91.0 162.5L91.0 162.5C92.5 164.0 94.5 165.5 96.5 166.0H96.5C98.0 166.5 98.5 167.5 99.5 169.5L99.5 169.5C99.5 169.5 99.5 170.0 100.0 170.0C100.5 171.5 102.0 173.0 103.5 174.0C105.0 175.5 106.5 176.5 108.5 177.0L108.5 177.0L108.5 177.0H108.5C110.5 177.5 112.5 178.0 115.0 178.0H115.0C128.0 178.0 135.0 177.0 140.0 176.5L140.0 176.5H140.0C145.5 176.0 148.5 175.5 157.0 176.5H157.0C159.0 177.0 160.5 177.5 162.0 177.5L162.5 177.5C165.5 178.5 168.5 179.0 172.5 179.0C176.0 179.0 181.0 178.5 188.0 177.5L189.5 177.0C191.0 177.0 192.5 176.5 194.0 176.5L194.0 176.5C201.0 175.0 208.0 173.5 215.5 173.5L216.0 173.5C219.0 173.5 220.5 173.5 222.0 173.5C223.0 173.5 224.0 173.0 224.5 173.0V173.0C225.0 172.5 226.0 172.5 227.0 172.5H227.0C228.0 172.0 229.5 172.0 231.0 172.0H231.5C235.5 172.0 240.5 172.0 247.0 168.0H247.0C252.0 165.0 253.0 160.5 254.5 156.0L254.5 156.0V156.0L254.5 155.5L254.5 155.5C255.0 154.5 254.0 153.5 253.0 153.0V153.0Z" fill="#041822" stroke="#041822" stroke-width="2" stroke-linejoin="round"/>
<path d="M467 425V105H64V425" stroke="#041822" stroke-width="2"/>
<path opacity="0.5" d="M399.0 463.5H127.5L264.5 60.5L399.0 463.5Z" stroke="#041822"/>
</g>
<defs>
<clipPath id="clip0_15751_375">
<rect width="486" height="486" fill="white" transform="translate(22 22)"/>
</clipPath>
</defs>
</svg>
