<svg width="530" height="530" viewBox="0 0 530 530" fill="none" xmlns="http://www.w3.org/2000/svg">
<path d="M147 208C147 187.0 167.5 169.5 188.5 169.5" stroke="#041822" stroke-width="7"/>
<path d="M252.0 228.5C233.0 219.0 203.5 224.5 194.5 243.5C185.0 262.5 175.0 272.0 159.0 290" stroke="#041822" stroke-width="7"/>
<path d="M249.5 227.0C244.0 247.5 223.0 259.5 203.0 254.0" stroke="#041822" stroke-width="7"/>
<path d="M272 206C272 218.0 262.5 228 251 228" stroke="#041822" stroke-width="7"/>
<path d="M132.5 369C111.0 369 94.0 352.0 94.0 331.0C94.0 324.5 98.0 307.0 116.5 286.0C135.0 265.5 150 252.5 147.5 225" stroke="#041822" stroke-width="7"/>
<path d="M438 122C438 99.0 419.0 80 395.5 80C372.0 80 353 99.0 353 122" stroke="#041822" stroke-width="7"/>
<path d="M307 99C302.0 84.5 283.0 68 269.0 68C255.0 68 244 79.5 244 93.0" stroke="#041822" stroke-width="7"/>
<path d="M364 94C290.0 94 234.0 121.5 186 170.5" stroke="#041822" stroke-width="7"/>
<path d="M97.0 326C97.0 329.5 104.5 348 140.5 332.0M150.0 332.0C146 335.5 101.0 373 172.0 401.5" stroke="#041822" stroke-width="7"/>
<path d="M239 231C239 240.5 231.5 248 222 248C212.5 248 205 240.5 205 231" stroke="#041822" stroke-width="7"/>
<path d="M438 265C438 360.5 360.5 438 265 438M92 265C92 169.5 169.5 92 265 92" stroke="#041822" stroke-width="7"/>
<path d="M126 383C126 411.5 149.0 435 177 435C226 437.5 270.5 368 369 347C406.5 339.0 387.5 289.5 393.5 247" stroke="#041822" stroke-width="7"/>
</svg>
