<svg width="530" height="530" viewBox="0 0 530 530" fill="none" xmlns="http://www.w3.org/2000/svg">
<g clip-path="url(#clip0_15751_542)">
<path d="M270.5 123.5L270.5 212.5" stroke="#041822" stroke-width="7"/>
<path d="M385.5 68L296.5 221.5" stroke="#041822" stroke-width="7"/>
<path d="M598.0 95.0C593.5 85.5 582.0 82.0 573.0 87.0C563.5 91.5 560.0 103.0 565.0 112.0C569.5 121.5 581.0 125.0 590.0 120.0C599.0 115.5 603.0 104.0 598.0 95.0ZM581.5 103.5L580.0 100.5L313.0 239.0L315.0 242.0L316.5 245.5L583.0 106.5L581.5 103.5Z" fill="#041822"/>
<path d="M479 269L320.5 269.0" stroke="#041822" stroke-width="7"/>
<path d="M348.0 314.5L311.5 295.5" stroke="#041822" stroke-width="7"/>
<path d="M379.5 467.0L290.5 313.5" stroke="#041822" stroke-width="7"/>
<path d="M264 469L264 319" stroke="#041822" stroke-width="7"/>
<path d="M-5.0 648.5C3.5 654.5 15.0 652.5 21.0 644.0C27.0 636.0 25.0 624.0 17.0 618.0C8.5 612.0 -3.0 614.0 -9.0 622.5C-15.0 631.0 -13.0 642.5 -5.0 648.5ZM6 633.5L9.0 635.5L240.5 311.5L237.5 309.5L235.0 307.5L3.0 631.5L6 633.5Z" fill="#041822"/>
<path d="M113.5 339.0L220.0 289.0" stroke="#041822" stroke-width="7"/>
<path d="M37.0 262.0L214 262.0" stroke="#041822" stroke-width="7"/>
<path d="M14.0 122.5C9.0 131.5 12.5 143.0 21.5 147.5C30.5 152.5 42.0 149.5 47.0 140.5C52.0 131.0 48.5 120.0 39.5 115.0C30.5 110.0 19.0 113.5 14.0 122.5ZM30.5 131.5L29.0 134.5L221.0 239.0L223.0 236.0L224.5 233.0L32.0 128.0L30.5 131.5Z" fill="#041822"/>
<path d="M171.0 81.5L243.5 218.0" stroke="#041822" stroke-width="7"/>
<path d="M267.0 233.0C265.0 233.0 264.0 232.0 264.0 230.5C264.0 228.5 265.0 227.5 267.0 227.5C268.5 227.5 270.0 228.5 270.0 230.5C270.0 232.0 268.5 233.0 267.0 233.0ZM270.0 239.5C270.0 238.0 268.5 236.5 267.0 236.5C265.0 236.5 264.0 238.0 264.0 239.5C264.0 241.0 265.0 242.5 267.0 242.5C268.5 242.5 270.0 241.0 270.0 239.5ZM260.5 240.0C260.0 238.5 258.5 237.5 257.0 238.5C255.5 239.0 254.5 240.5 255.0 242.0C256.0 243.5 257.5 244.5 259.0 244.0C260.5 243.0 261.0 241.5 260.5 240.0ZM252.5 243.5C251.5 242.5 249.5 242.5 248.5 243.5C247.0 244.5 247.0 246.0 248.0 247.5C249.0 248.5 251.0 249.0 252.0 248.0C253.0 247.0 253.5 245.0 252.5 243.5ZM246.0 250.0C244.5 249.0 242.5 249.5 242.0 251.0C241.0 252.5 241.5 254.0 243.0 255.0C244.5 256.0 246.0 255.5 247.0 254.0C247.5 252.5 247.0 251.0 246.0 250.0ZM242.0 258.0C240.0 258.0 238.5 259.0 238.5 260.5C238.0 262.0 239.0 263.5 240.5 264.0C242.5 264.0 244.0 263.0 244.0 261.5C244.5 260.0 243.5 258.5 242.0 258.0ZM240.5 267.0C239.0 267.5 238.0 269.0 238.5 270.5C238.5 272.0 240.0 273.0 242.0 273.0C243.5 272.5 244.5 271.0 244.0 269.5C244.0 268.0 242.5 267.0 240.5 267.0ZM243.0 276.0C241.5 277.0 241.0 278.5 242.0 280.0C242.5 281.5 244.5 282.0 246.0 281.0C247.0 280.5 247.5 278.5 247.0 277.0C246.0 275.5 244.5 275.0 243.0 276.0ZM248.0 283.5C247.0 285.0 247.0 286.5 248.5 287.5C249.5 288.5 251.5 288.5 252.5 287.5C253.5 286.0 253.0 284.5 252.0 283.0C251.0 282.0 249.0 282.5 248.0 283.5ZM255.0 289.0C254.5 290.5 255.5 292.0 257.0 292.5C258.5 293.5 260.0 292.5 260.5 291.0C261.0 289.5 260.5 288.0 259.0 287.0C257.5 286.5 256.0 287.5 255.0 289.0ZM264.0 291.5C264.0 293.0 265.0 294.5 267.0 294.5C268.5 294.5 270.0 293.0 270.0 291.5C270.0 290.0 268.5 288.5 267.0 288.5C265.0 288.5 264.0 290.0 264.0 291.5ZM273.0 291.0C273.5 292.5 275.0 293.5 276.5 292.5C278.5 292.0 279.0 290.5 278.5 289.0C278.0 287.5 276.5 286.5 274.5 287.0C273.0 288.0 272.5 289.5 273.0 291.0ZM281.5 287.5C282.5 288.5 284.0 288.5 285.5 287.5C286.5 286.5 287.0 285.0 286.0 283.5C285.0 282.5 283.0 282.0 281.5 283.0C280.5 284.5 280.5 286.0 281.5 287.5ZM288.0 281.0C289.5 282.0 291.0 281.5 292.0 280.0C292.5 278.5 292.0 277.0 291.0 276.0C289.5 275.0 287.5 275.5 287.0 277.0C286.0 278.5 286.5 280.5 288.0 281.0ZM292.0 273.0C293.5 273.0 295.0 272.0 295.5 270.5C295.5 269.0 294.5 267.5 293.0 267.0C291.5 267.0 290.0 268.0 289.5 269.5C289.5 271.0 290.5 272.5 292.0 273.0ZM293.0 264.0C294.5 263.5 295.5 262.0 295.5 260.5C295.0 259.0 293.5 258.0 292.0 258.0C290.5 258.5 289.5 260.0 289.5 261.5C290.0 263.0 291.5 264.0 293.0 264.0ZM291.0 255.0C292.0 254.0 292.5 252.5 292.0 251.0C291.0 249.5 289.5 249.0 288.0 250.0C286.5 251.0 286.0 252.5 287.0 254.0C287.5 255.5 289.5 256.0 291.0 255.0ZM286.0 247.5C287.0 246.0 286.5 244.5 285.5 243.5C284.0 242.5 282.5 242.5 281.5 243.5C280.5 245.0 280.5 247.0 281.5 248.0C283.0 249.0 285.0 248.5 286.0 247.5ZM278.5 242.0C279.0 240.5 278.0 239.0 276.5 238.5C275.0 237.5 273.5 238.5 273.0 240.0C272.5 241.5 273.0 243.0 274.5 244.0C276.5 244.5 278.0 243.5 278.5 242.0ZM270.0 248.0C270.0 246.5 268.5 245.0 267.0 245.0C265.0 245.0 264.0 246.5 264.0 248.0C264.0 250.0 265.0 251.0 267.0 251.0C268.5 251.0 270.0 250.0 270.0 248.0ZM260.5 249.0C260.0 247.5 258.0 247.0 256.5 248.0C255.5 248.5 255.0 250.5 255.5 252.0C256.5 253.5 258.0 254.0 259.5 253.0C261.0 252.0 261.5 250.5 260.5 249.0ZM253.5 254.5C252.0 253.5 250.0 254.0 249.5 255.5C248.5 257.0 249.0 258.5 250.5 259.5C252.0 260.0 253.5 259.5 254.5 258.5C255.0 257.0 254.5 255.0 253.5 254.5ZM249.5 262.5C248.0 262.5 246.5 264.0 246.5 265.5C246.5 267.0 248.0 268.5 249.5 268.5C251.0 268.5 252.5 267.0 252.5 265.5C252.5 264.0 251.0 262.5 249.5 262.5ZM250.5 271.5C249.0 272.5 248.5 274.5 249.5 275.5C250.0 277.0 252.0 277.5 253.5 276.5C254.5 276.0 255.0 274.0 254.5 272.5C253.5 271.5 252.0 271.0 250.5 271.5ZM255.5 279.0C255.0 280.5 255.5 282.5 256.5 283.0C258.0 284.0 260.0 283.5 260.5 282.0C261.5 280.5 261.0 279.0 259.5 278.0C258.0 277.0 256.5 277.5 255.5 279.0ZM264.0 283.0C264.0 284.5 265.0 286.0 267.0 286.0C268.5 286.0 270.0 284.5 270.0 283.0C270.0 281.5 268.5 280.0 267.0 280.0C265.0 280.0 264.0 281.5 264.0 283.0ZM273.0 282.0C274.0 283.5 275.5 284.0 277.0 283.0C278.5 282.5 279.0 280.5 278.0 279.0C277.0 277.5 275.5 277.0 274.0 278.0C272.5 279.0 272.0 280.5 273.0 282.0ZM280.5 276.5C282.0 277.5 283.5 277.0 284.5 275.5C285.0 274.5 284.5 272.5 283.5 271.5C282.0 271.0 280.0 271.5 279.5 272.5C278.5 274.0 279.0 276.0 280.5 276.5ZM284.0 268.5C286.0 268.5 287.0 267.0 287.0 265.5C287.0 264.0 286.0 262.5 284.0 262.5C282.5 262.5 281.5 264.0 281.5 265.5C281.5 267.0 282.5 268.5 284.0 268.5ZM283.5 259.5C284.5 258.5 285.0 257.0 284.5 255.5C283.5 254.0 282.0 253.5 280.5 254.5C279.0 255.0 278.5 257.0 279.5 258.5C280.0 259.5 282.0 260.0 283.5 259.5ZM278.0 252.0C279.0 250.5 278.5 249.0 277.0 248.0C275.5 247.0 274.0 247.5 273.0 249.0C272.0 250.5 272.5 252.0 274.0 253.0C275.5 254.0 277.0 253.5 278.0 252.0ZM270.0 257.0C270.0 255.0 268.5 254.0 267.0 254.0C265.0 254.0 264.0 255.0 264.0 257.0C264.0 258.5 265.0 260.0 267.0 260.0C268.5 260.0 270.0 258.5 270.0 257.0ZM261.0 258.5C259.5 258.0 257.5 258.5 257.0 259.5C256.0 261.0 256.5 263.0 258.0 263.5C259.5 264.5 261.0 264.0 262.0 262.5C262.5 261.0 262.0 259.5 261.0 258.5ZM258.0 267.5C256.5 268.0 256.0 270.0 257.0 271.5C257.5 272.5 259.5 273.0 261.0 272.5C262.0 271.5 262.5 270.0 262.0 268.5C261.0 267.0 259.5 266.5 258.0 267.5ZM264.0 274.0C264.0 276.0 265.0 277.0 267.0 277.0C268.5 277.0 270.0 276.0 270.0 274.0C270.0 272.5 268.5 271.5 267.0 271.5C265.0 271.5 264.0 272.5 264.0 274.0ZM273.0 272.5C274.5 273.0 276.0 272.5 277.0 271.5C277.5 270.0 277.0 268.0 276.0 267.5C274.5 266.5 272.5 267.0 272.0 268.5C271.0 270.0 271.5 271.5 273.0 272.5ZM276.0 263.5C277.0 263.0 277.5 261.0 277.0 259.5C276.0 258.5 274.5 258.0 273.0 258.5C271.5 259.5 271.0 261.0 272.0 262.5C272.5 264.0 274.5 264.5 276.0 263.5ZM270.0 265.5C270.0 264.0 268.5 262.5 267.0 262.5C265.0 262.5 264.0 264.0 264.0 265.5C264.0 267.0 265.0 268.5 267.0 268.5C268.5 268.5 270.0 267.0 270.0 265.5ZM267.0 233.0C265.0 233.0 264.0 232.0 264.0 230.5C264.0 228.5 265.0 227.5 267.0 227.5C268.5 227.5 270.0 228.5 270.0 230.5C270.0 232.0 268.5 233.0 267.0 233.0ZM259.5 234.0C258.0 234.5 256.5 233.5 256.0 232.0C255.5 230.5 256.5 229.0 258.0 228.5C259.5 228.0 261.0 229.0 261.5 230.5C262.0 232.0 261.0 233.5 259.5 234.0ZM259.5 234.0C258.0 234.5 256.5 233.5 256.0 232.0C255.5 230.5 256.5 229.0 258.0 228.5C259.5 228.0 261.0 229.0 261.5 230.5C262.0 232.0 261.0 233.5 259.5 234.0ZM252.5 236.5C251.0 237.5 249.0 237.0 248.5 235.5C247.5 234.0 248.5 232.0 250.0 231.5C251.0 230.5 253.0 231.5 253.5 233.0C254.5 234.0 254.0 236.0 252.5 236.5ZM252.5 236.5C251.0 237.5 249.0 237.0 248.5 235.5C247.5 234.0 248.5 232.0 250.0 231.5C251.0 230.5 253.0 231.5 253.5 233.0C254.5 234.0 254.0 236.0 252.5 236.5ZM246.0 241.0C245.0 242.0 243.0 241.5 242.0 240.5C241.0 239.0 241.0 237.5 242.5 236.5C243.5 235.5 245.5 235.5 246.5 236.5C247.5 238.0 247.5 240.0 246.0 241.0ZM246.0 241.0C245.0 242.0 243.0 241.5 242.0 240.5C241.0 239.0 241.0 237.5 242.5 236.5C243.5 235.5 245.5 235.5 246.5 236.5C247.5 238.0 247.5 240.0 246.0 241.0ZM241.0 246.0C240.0 247.5 238.0 248.0 237.0 247.0C235.5 246.0 235.5 244.0 236.5 243.0C237.5 241.5 239.0 241.0 240.5 242.0C241.5 243.0 242.0 245.0 241.0 246.0ZM241.0 246.0C240.0 247.5 238.0 248.0 237.0 247.0C235.5 246.0 235.5 244.0 236.5 243.0C237.5 241.5 239.0 241.0 240.5 242.0C241.5 243.0 242.0 245.0 241.0 246.0ZM237.5 252.5C236.5 254.0 235.0 255.0 233.5 254.5C232.0 253.5 231.5 252.0 232.0 250.5C232.5 249.0 234.5 248.0 235.5 249.0C237.0 249.5 238.0 251.0 237.5 252.5ZM237.5 252.5C236.5 254.0 235.0 255.0 233.5 254.5C232.0 253.5 231.5 252.0 232.0 250.5C232.5 249.0 234.5 248.0 235.5 249.0C237.0 249.5 238.0 251.0 237.5 252.5ZM235.0 260.0C235.0 261.5 233.5 262.5 231.5 262.5C230.0 262.0 229.0 260.5 229.5 259.0C229.5 257.5 231.0 256.0 233.0 256.5C234.5 257.0 235.5 258.5 235.0 260.0ZM235.0 260.0C235.0 261.5 233.5 262.5 231.5 262.5C230.0 262.0 229.0 260.5 229.5 259.0C229.5 257.5 231.0 256.0 233.0 256.5C234.5 257.0 235.5 258.5 235.0 260.0ZM234.5 267.5C235.0 269 233.5 270.5 232.0 270.5C230.5 270.5 229.0 269.5 229.0 267.5C229.0 266.0 230.0 264.5 231.5 264.5C233.0 264.5 234.5 266.0 234.5 267.5ZM234.5 267.5C235.0 269 233.5 270.5 232.0 270.5C230.5 270.5 229.0 269.5 229.0 267.5C229.0 266.0 230.0 264.5 231.5 264.5C233.0 264.5 234.5 266.0 234.5 267.5ZM236.0 275.0C236.5 276.5 235.5 278.0 234.0 278.5C232.5 279.0 231.0 278.0 230.5 276.5C230.0 275.0 231.0 273.5 232.5 273.0C234.0 272.5 235.5 273.0 236.0 275.0ZM236.0 275.0C236.5 276.5 235.5 278.0 234.0 278.5C232.5 279.0 231.0 278.0 230.5 276.5C230.0 275.0 231.0 273.5 232.5 273.0C234.0 272.5 235.5 273.0 236.0 275.0ZM239.0 281.5C239.5 283.0 239.5 285.0 238.0 285.5C236.5 286.5 234.5 286.0 234.0 284.5C233.0 283.0 233.5 281.5 235.0 280.5C236.5 280.0 238.0 280.0 239.0 281.5ZM239.0 281.5C239.5 283.0 239.5 285.0 238.0 285.5C236.5 286.5 234.5 286.0 234.0 284.5C233.0 283.0 233.5 281.5 235.0 280.5C236.5 280.0 238.0 280.0 239.0 281.5ZM243.5 287.5C244.5 289.0 244.5 290.5 243.5 292.0C242.0 293.0 240.5 293.0 239.0 291.5C238.0 290.5 238.0 288.5 239.5 287.5C240.5 286.5 242.5 286.5 243.5 287.5ZM243.5 287.5C244.5 289.0 244.5 290.5 243.5 292.0C242.0 293.0 240.5 293.0 239.0 291.5C238.0 290.5 238.0 288.5 239.5 287.5C240.5 286.5 242.5 286.5 243.5 287.5ZM249.0 292.5C250.5 293.5 251.0 295.0 250.0 296.5C249.0 298.0 247.5 298.0 246.0 297.5C244.5 296.5 244.0 294.5 245.0 293.5C246.0 292.0 248.0 291.5 249.0 292.5ZM249.0 292.5C250.5 293.5 251.0 295.0 250.0 296.5C249.0 298.0 247.5 298.0 246.0 297.5C244.5 296.5 244.0 294.5 245.0 293.5C246.0 292.0 248.0 291.5 249.0 292.5ZM256.0 296.0C257.5 296.5 258.0 298.0 257.5 299.5C257.0 301.0 255.5 302.0 254.0 301.5C252.5 301.0 251.5 299.0 252.0 297.5C252.5 296.0 254.5 295.5 256.0 296.0ZM256.0 296.0C257.5 296.5 258.0 298.0 257.5 299.5C257.0 301.0 255.5 302.0 254.0 301.5C252.5 301.0 251.5 299.0 252.0 297.5C252.5 296.0 254.5 295.5 256.0 296.0ZM263.0 297.5C264.5 298.0 266.0 299.0 265.5 301.0C265.5 302.5 264.0 303.5 262.5 303.5C261.0 303.0 259.5 301.5 260.0 300.0C260.0 298.5 261.5 297.5 263.0 297.5ZM263.0 297.5C264.5 298.0 266.0 299.0 265.5 301.0C265.5 302.5 264.0 303.5 262.5 303.5C261.0 303.0 259.5 301.5 260.0 300.0C260.0 298.5 261.5 297.5 263.0 297.5ZM270.5 297.5C272.0 297.5 273.5 298.5 274.0 300.0C274.0 301.5 273.0 303.0 271.5 303.5C269.5 303.5 268.0 302.5 268.0 301.0C268.0 299.0 269.0 298.0 270.5 297.5ZM270.5 297.5C272.0 297.5 273.5 298.5 274.0 300.0C274.0 301.5 273.0 303.0 271.5 303.5C269.5 303.5 268.0 302.5 268.0 301.0C268.0 299.0 269.0 298.0 270.5 297.5ZM278.0 296.0C279.5 295.5 281.0 296.0 281.5 297.5C282.0 299.0 281.5 301.0 280.0 301.5C278.5 302.0 276.5 301.0 276.0 299.5C275.5 298.0 276.5 296.5 278.0 296.0ZM278.0 296.0C279.5 295.5 281.0 296.0 281.5 297.5C282.0 299.0 281.5 301.0 280.0 301.5C278.5 302.0 276.5 301.0 276.0 299.5C275.5 298.0 276.5 296.5 278.0 296.0ZM284.5 292.5C286.0 291.5 287.5 292.0 288.5 293.5C289.5 294.5 289.0 296.5 288.0 297.5C286.5 298.5 284.5 298.0 283.5 296.5C283.0 295.0 283.0 293.5 284.5 292.5ZM284.5 292.5C286.0 291.5 287.5 292.0 288.5 293.5C289.5 294.5 289.0 296.5 288.0 297.5C286.5 298.5 284.5 298.0 283.5 296.5C283.0 295.0 283.0 293.5 284.5 292.5ZM290.5 287.5C291.5 286.5 293.0 286.5 294.5 287.5C295.5 288.5 295.5 290.5 294.5 291.5C293.5 293.0 291.5 293.0 290.5 292.0C289.0 290.5 289.0 289.0 290.5 287.5ZM290.5 287.5C291.5 286.5 293.0 286.5 294.5 287.5C295.5 288.5 295.5 290.5 294.5 291.5C293.5 293.0 291.5 293.0 290.5 292.0C289.0 290.5 289.0 289.0 290.5 287.5ZM294.5 281.5C295.5 280.5 297.5 280.0 298.5 280.5C300.0 281.5 300.5 283.0 300.0 284.5C299.0 286.0 297.0 286.5 296.0 285.5C294.5 285.0 294.0 283.0 294.5 281.5ZM294.5 281.5C295.5 280.5 297.5 280.0 298.5 280.5C300.0 281.5 300.5 283.0 300.0 284.5C299.0 286.0 297.0 286.5 296.0 285.5C294.5 285.0 294.0 283.0 294.5 281.5ZM297.5 275.0C298.0 273.0 300.0 272.5 301.5 273.0C303.0 273.5 304.0 275.0 303.5 276.5C303.0 278.0 301.0 279.0 299.5 278.5C298.0 278.0 297.0 276.5 297.5 275.0ZM297.5 275.0C298.0 273.0 300.0 272.5 301.5 273.0C303.0 273.5 304.0 275.0 303.5 276.5C303.0 278.0 301.0 279.0 299.5 278.5C298.0 278.0 297.0 276.5 297.5 275.0ZM299.0 267.5C299.0 266.0 300.5 264.5 302.0 264.5C303.5 264.5 305.0 266.0 305.0 267.5C304.5 269.5 303.5 270.5 302.0 270.5C300.0 270.5 299.0 269.0 299.0 267.5ZM299.0 267.5C299.0 266.0 300.5 264.5 302.0 264.5C303.5 264.5 305.0 266.0 305.0 267.5C304.5 269.5 303.5 270.5 302.0 270.5C300.0 270.5 299.0 269.0 299.0 267.5ZM298.5 260.0C298.5 258.5 299.5 257.0 301.0 256.5C302.5 256.0 304.0 257.5 304.5 259.0C304.5 260.5 303.5 262.0 302.0 262.5C300.5 262.5 299.0 261.5 298.5 260.0ZM298.5 260.0C298.5 258.5 299.5 257.0 301.0 256.5C302.5 256.0 304.0 257.5 304.5 259.0C304.5 260.5 303.5 262.0 302.0 262.5C300.5 262.5 299.0 261.5 298.5 260.0ZM296.5 252.5C296.0 251.5 296.5 249.5 298.0 249.0C299.5 248.0 301.0 249.0 302.0 250.5C302.5 252.0 301.5 253.5 300.5 254.5C299.0 255.0 297.0 254.0 296.5 252.5ZM296.5 252.5C296.0 251.5 296.5 249.5 298.0 249.0C299.5 248.0 301.0 249.0 302.0 250.5C302.5 252.0 301.5 253.5 300.5 254.5C299.0 255.0 297.0 254.0 296.5 252.5ZM292.5 246.0C291.5 245.0 292.0 243.0 293.5 242.0C294.5 241.0 296.5 241.5 297.5 243.0C298.5 244.0 298.0 246.0 297.0 247.0C295.5 248.0 293.5 247.5 292.5 246.0ZM292.5 246.0C291.5 245.0 292.0 243.0 293.5 242.0C294.5 241.0 296.5 241.5 297.5 243.0C298.5 244.0 298.0 246.0 297.0 247.0C295.5 248.0 293.5 247.5 292.5 246.0ZM287.5 241.0C286.5 240.0 286.0 238.0 287.0 236.5C288.0 235.5 290.0 235.5 291.5 236.5C292.5 237.5 292.5 239.0 291.5 240.5C290.5 241.5 289.0 242.0 287.5 241.0ZM287.5 241.0C286.5 240.0 286.0 238.0 287.0 236.5C288.0 235.5 290.0 235.5 291.5 236.5C292.5 237.5 292.5 239.0 291.5 240.5C290.5 241.5 289.0 242.0 287.5 241.0ZM281.5 236.5C280.0 236.0 279.5 234.0 280.0 233.0C280.5 231.5 282.5 230.5 284.0 231.5C285.5 232.0 286.0 234.0 285.0 235.5C284.5 237.0 282.5 237.5 281.5 236.5ZM281.5 236.5C280.0 236.0 279.5 234.0 280.0 233.0C280.5 231.5 282.5 230.5 284.0 231.5C285.5 232.0 286.0 234.0 285.0 235.5C284.5 237.0 282.5 237.5 281.5 236.5ZM274.5 234.0C272.5 233.5 271.5 232.0 272.0 230.5C272.5 229.0 274.0 228.0 275.5 228.5C277.0 229.0 278.0 230.5 278.0 232.0C277.5 233.5 276.0 234.5 274.5 234.0ZM274.5 234.0C272.5 233.5 271.5 232.0 272.0 230.5C272.5 229.0 274.0 228.0 275.5 228.5C277.0 229.0 278.0 230.5 278.0 232.0C277.5 233.5 276.0 234.5 274.5 234.0ZM270.0 239.5C270.0 238.0 268.5 236.5 267.0 236.5C265.0 236.5 264.0 238.0 264.0 239.5C264.0 241.0 265.0 242.5 267.0 242.5C268.5 242.5 270.0 241.0 270.0 239.5ZM260.5 240.0C260.0 238.5 258.5 237.5 257.0 238.5C255.5 239.0 254.5 240.5 255.0 242.0C256.0 243.5 257.5 244.5 259.0 244.0C260.5 243.0 261.0 241.5 260.5 240.0ZM252.5 243.5C251.5 242.5 249.5 242.5 248.5 243.5C247.0 244.5 247.0 246.0 248.0 247.5C249.0 248.5 251.0 249.0 252.0 248.0C253.0 247.0 253.5 245.0 252.5 243.5ZM246.0 250.0C244.5 249.0 242.5 249.5 242.0 251.0C241.0 252.5 241.5 254.0 243.0 255.0C244.5 256.0 246.0 255.5 247.0 254.0C247.5 252.5 247.0 251.0 246.0 250.0ZM242.0 258.0C240.0 258.0 238.5 259.0 238.5 260.5C238.0 262.0 239.0 263.5 240.5 264.0C242.5 264.0 244.0 263.0 244.0 261.5C244.5 260.0 243.5 258.5 242.0 258.0ZM240.5 267.0C239.0 267.5 238.0 269.0 238.5 270.5C238.5 272.0 240.0 273.0 242.0 273.0C243.5 272.5 244.5 271.0 244.0 269.5C244.0 268.0 242.5 267.0 240.5 267.0ZM243.0 276.0C241.5 277.0 241.0 278.5 242.0 280.0C242.5 281.5 244.5 282.0 246.0 281.0C247.0 280.5 247.5 278.5 247.0 277.0C246.0 275.5 244.5 275.0 243.0 276.0ZM248.0 283.5C247.0 285.0 247.0 286.5 248.5 287.5C249.5 288.5 251.5 288.5 252.5 287.5C253.5 286.0 253.0 284.5 252.0 283.0C251.0 282.0 249.0 282.5 248.0 283.5ZM255.0 289.0C254.5 290.5 255.5 292.0 257.0 292.5C258.5 293.5 260.0 292.5 260.5 291.0C261.0 289.5 260.5 288.0 259.0 287.0C257.5 286.5 256.0 287.5 255.0 289.0ZM264.0 291.5C264.0 293.0 265.0 294.5 267.0 294.5C268.5 294.5 270.0 293.0 270.0 291.5C270.0 290.0 268.5 288.5 267.0 288.5C265.0 288.5 264.0 290.0 264.0 291.5ZM273.0 291.0C273.5 292.5 275.0 293.5 276.5 292.5C278.5 292.0 279.0 290.5 278.5 289.0C278.0 287.5 276.5 286.5 274.5 287.0C273.0 288.0 272.5 289.5 273.0 291.0ZM281.5 287.5C282.5 288.5 284.0 288.5 285.5 287.5C286.5 286.5 287.0 285.0 286.0 283.5C285.0 282.5 283.0 282.0 281.5 283.0C280.5 284.5 280.5 286.0 281.5 287.5ZM288.0 281.0C289.5 282.0 291.0 281.5 292.0 280.0C292.5 278.5 292.0 277.0 291.0 276.0C289.5 275.0 287.5 275.5 287.0 277.0C286.0 278.5 286.5 280.5 288.0 281.0ZM292.0 273.0C293.5 273.0 295.0 272.0 295.5 270.5C295.5 269.0 294.5 267.5 293.0 267.0C291.5 267.0 290.0 268.0 289.5 269.5C289.5 271.0 290.5 272.5 292.0 273.0ZM293.0 264.0C294.5 263.5 295.5 262.0 295.5 260.5C295.0 259.0 293.5 258.0 292.0 258.0C290.5 258.5 289.5 260.0 289.5 261.5C290.0 263.0 291.5 264.0 293.0 264.0ZM291.0 255.0C292.0 254.0 292.5 252.5 292.0 251.0C291.0 249.5 289.5 249.0 288.0 250.0C286.5 251.0 286.0 252.5 287.0 254.0C287.5 255.5 289.5 256.0 291.0 255.0ZM286.0 247.5C287.0 246.0 286.5 244.5 285.5 243.5C284.0 242.5 282.5 242.5 281.5 243.5C280.5 245.0 280.5 247.0 281.5 248.0C283.0 249.0 285.0 248.5 286.0 247.5ZM278.5 242.0C279.0 240.5 278.0 239.0 276.5 238.5C275.0 237.5 273.5 238.5 273.0 240.0C272.5 241.5 273.0 243.0 274.5 244.0C276.5 244.5 278.0 243.5 278.5 242.0ZM270.0 248.0C270.0 246.5 268.5 245.0 267.0 245.0C265.0 245.0 264.0 246.5 264.0 248.0C264.0 250.0 265.0 251.0 267.0 251.0C268.5 251.0 270.0 250.0 270.0 248.0ZM260.5 249.0C260.0 247.5 258.0 247.0 256.5 248.0C255.5 248.5 255.0 250.5 255.5 252.0C256.5 253.5 258.0 254.0 259.5 253.0C261.0 252.0 261.5 250.5 260.5 249.0ZM253.5 254.5C252.0 253.5 250.0 254.0 249.5 255.5C248.5 257.0 249.0 258.5 250.5 259.5C252.0 260.0 253.5 259.5 254.5 258.5C255.0 257.0 254.5 255.0 253.5 254.5ZM249.5 262.5C248.0 262.5 246.5 264.0 246.5 265.5C246.5 267.0 248.0 268.5 249.5 268.5C251.0 268.5 252.5 267.0 252.5 265.5C252.5 264.0 251.0 262.5 249.5 262.5ZM250.5 271.5C249.0 272.5 248.5 274.5 249.5 275.5C250.0 277.0 252.0 277.5 253.5 276.5C254.5 276.0 255.0 274.0 254.5 272.5C253.5 271.5 252.0 271.0 250.5 271.5ZM255.5 279.0C255.0 280.5 255.5 282.5 256.5 283.0C258.0 284.0 260.0 283.5 260.5 282.0C261.5 280.5 261.0 279.0 259.5 278.0C258.0 277.0 256.5 277.5 255.5 279.0ZM264.0 283.0C264.0 284.5 265.0 286.0 267.0 286.0C268.5 286.0 270.0 284.5 270.0 283.0C270.0 281.5 268.5 280.0 267.0 280.0C265.0 280.0 264.0 281.5 264.0 283.0ZM273.0 282.0C274.0 283.5 275.5 284.0 277.0 283.0C278.5 282.5 279.0 280.5 278.0 279.0C277.0 277.5 275.5 277.0 274.0 278.0C272.5 279.0 272.0 280.5 273.0 282.0ZM280.5 276.5C282.0 277.5 283.5 277.0 284.5 275.5C285.0 274.5 284.5 272.5 283.5 271.5C282.0 271.0 280.0 271.5 279.5 272.5C278.5 274.0 279.0 276.0 280.5 276.5ZM284.0 268.5C286.0 268.5 287.0 267.0 287.0 265.5C287.0 264.0 286.0 262.5 284.0 262.5C282.5 262.5 281.5 264.0 281.5 265.5C281.5 267.0 282.5 268.5 284.0 268.5ZM283.5 259.5C284.5 258.5 285.0 257.0 284.5 255.5C283.5 254.0 282.0 253.5 280.5 254.5C279.0 255.0 278.5 257.0 279.5 258.5C280.0 259.5 282.0 260.0 283.5 259.5ZM278.0 252.0C279.0 250.5 278.5 249.0 277.0 248.0C275.5 247.0 274.0 247.5 273.0 249.0C272.0 250.5 272.5 252.0 274.0 253.0C275.5 254.0 277.0 253.5 278.0 252.0ZM270.0 257.0C270.0 255.0 268.5 254.0 267.0 254.0C265.0 254.0 264.0 255.0 264.0 257.0C264.0 258.5 265.0 260.0 267.0 260.0C268.5 260.0 270.0 258.5 270.0 257.0ZM261.0 258.5C259.5 258.0 257.5 258.5 257.0 259.5C256.0 261.0 256.5 263.0 258.0 263.5C259.5 264.5 261.0 264.0 262.0 262.5C262.5 261.0 262.0 259.5 261.0 258.5ZM258.0 267.5C256.5 268.0 256.0 270.0 257.0 271.5C257.5 272.5 259.5 273.0 261.0 272.5C262.0 271.5 262.5 270.0 262.0 268.5C261.0 267.0 259.5 266.5 258.0 267.5ZM264.0 274.0C264.0 276.0 265.0 277.0 267.0 277.0C268.5 277.0 270.0 276.0 270.0 274.0C270.0 272.5 268.5 271.5 267.0 271.5C265.0 271.5 264.0 272.5 264.0 274.0ZM273.0 272.5C274.5 273.0 276.0 272.5 277.0 271.5C277.5 270.0 277.0 268.0 276.0 267.5C274.5 266.5 272.5 267.0 272.0 268.5C271.0 270.0 271.5 271.5 273.0 272.5ZM276.0 263.5C277.0 263.0 277.5 261.0 277.0 259.5C276.0 258.5 274.5 258.0 273.0 258.5C271.5 259.5 271.0 261.0 272.0 262.5C272.5 264.0 274.5 264.5 276.0 263.5ZM270.0 265.5C270.0 264.0 268.5 262.5 267.0 262.5C265.0 262.5 264.0 264.0 264.0 265.5C264.0 267.0 265.0 268.5 267.0 268.5C268.5 268.5 270.0 267.0 270.0 265.5Z" fill="#041822"/>
<path d="M308.0 114.5L288.0 188.5M376.5 154.5L322.5 209.0M415.5 223.5L341.5 243.5M487.5 322.5L341.0 283.0M376.5 373.0L321.0 317.5M295.5 373.0L286.0 336.5M229.5 394L246.5 336.0M94.5 422.5L212.5 316.0M137 295.5L193.0 281.0M85.5 215.5L193.5 241.5M185.5 180.5L214.0 207.5M214.0 38.5L248.5 188.0" stroke="#041822" stroke-width="2"/>
<circle cx="493" cy="269" r="14.5" stroke="#041822" stroke-width="7"/>
<circle cx="360" cy="321" r="14.5" stroke="#041822" stroke-width="7"/>
<circle cx="386" cy="478" r="14.5" stroke="#041822" stroke-width="7"/>
<circle cx="264" cy="482" r="14.5" stroke="#041822" stroke-width="7"/>
<circle cx="101" cy="345" r="14.5" stroke="#041822" stroke-width="7"/>
<circle cx="25" cy="262" r="14.5" stroke="#041822" stroke-width="7"/>
<circle cx="166" cy="72" r="14.5" stroke="#041822" stroke-width="7"/>
<circle cx="270" cy="111" r="14.5" stroke="#041822" stroke-width="7"/>
<circle cx="390" cy="58" r="14.5" stroke="#041822" stroke-width="7"/>
</g>
<defs>
<clipPath id="clip0_15751_542">
<rect width="530" height="530" rx="265" fill="white"/>
</clipPath>
</defs>
</svg>
