<svg width="530" height="530" viewBox="0 0 530 530" fill="none" xmlns="http://www.w3.org/2000/svg">
<g clip-path="url(#clip0_15751_953)">
<path d="M426.5 215.5C418.5 190.0 416.0 185.0 408.0 160.0C405.5 152.5 403.5 144.5 399.5 137.5C386.5 113.5 373.0 89.5 359.5 65.0C357.5 62.0 356.0 58.5 353.5 55.5C350.5 51.0 345.5 50.0 340.5 52.0C334.0 55.0 330.5 61.5 331.0 69.0C331.5 78.0 335.0 85.5 340.0 92.5C346.5 102.5 352.0 113.5 357.5 124.0C362.5 135.5 369.0 146.0 372.5 158.0C374.0 165.0 374.0 162.0 376.0 168.5C379.0 176.5 383.5 190.5 376.5 184.0C376.0 182.0 376.0 181.0 375.5 179.5C369.5 164.5 367.0 159.0 361.5 144.0C360.0 140.0 358.5 135.5 356.0 132.0C341.0 110.5 325.0 90.0 306.0 71.5C304.5 70.0 302.5 68.0 300.0 66.5C296.0 64.0 292.0 64.5 288.0 67.0C281.0 72.5 279.0 81.5 283.5 90.0C286.5 95.5 290.0 101.0 294.5 105.5H294.5C302.0 112.5 308.0 120.5 313.5 129.0C315.5 132.5 318.0 135.5 320.0 139.0C323.5 143.5 326.5 147.5 329.0 152.5C333.0 159.5 335.5 167.0 338.5 174.0M413.5 223.5C409.0 221.0 404.5 218.0 400.0 215.0C384.0 203.5 367.5 192.5 351.5 181.0C350.0 180.0 348.5 179.5 346.0 180.0C330.0 183.0 313.5 186.5 297.5 190.0C296.0 190.0 295.0 191.0 294.5 191.5C285.0 204.0 276.0 216.0 267.0 228.5C263.0 234.5 265.5 240.5 272.5 242.5C280.5 244.5 288.0 242.5 294.0 237.0C298.0 233.5 302.0 229.5 305.0 225.0C308.0 220.5 311.0 217.5 316.5 218.5C317.0 218.5 317.5 218.5 318.0 218.5C324.5 217.5 331.0 216.5 337.5 215.5C343.0 224.5 351.0 231.5 360.5 237.5C365.5 240.5 368.5 244.5 370.0 250.5C372.5 262.0 378.5 271.5 385.5 280.5C387.0 282.5 387.5 284.5 387.5 287.5C387.5 295.5 386.0 303.5 382.0 311.0C377.5 318.5 373.5 326.5 369.0 334.0C367.5 336.5 365.5 339.0 364.0 342.0C358.5 352.0 350.0 358.0 340.0 361.5L338.5 362.0C328.5 365.5 318.5 368.5 309.0 372.5C296.0 378.0 285.0 385.5 276.5 396.5C270.5 404.0 266.5 412.0 265.5 422.0C265.0 427.0 265.5 431.5 269.0 436.0C272.0 439.5 276.0 440.0 280.0 437.0C282.5 434.5 284.5 432.5 287.0 430.0C295.0 421.0 304.5 414.0 316.0 409.5C332.0 403.0 348.0 398.5 365.0 395.0C368.0 394.0 371.5 393.5 374.0 394.0C391.0 398.5 407.5 401.0 425.0 402.0L439.0 409.5M439.0 409.5L450.5 408.5C447.0 409.0 443.0 409.5 439.0 409.5ZM439.0 409.5C451.0 422.0 462.5 434.5 474.5 446.5C482.0 454.5 490.0 454.5 497.5 447.0C515.5 430.0 530.0 411.0 539.5 387.5V379.0C538.0 372.5 533.5 367.5 529.0 363L529.0 363.0C523.0 357.5 517.5 352.0 512.0 346.5L511.5 346.0C501.0 336.0 490.5 326.0 483.0 314.0C467.5 289.5 451.5 268.0 438.5 242.5C436.0 238.0 436.5 228.5 436.5 224.5C437.5 210.5 440.0 196.0 440.5 181.5C441.0 173.5 442.5 165.0 439.5 156.5C438.5 153.5 438.0 149.5 437.0 146.5C434.0 136.0 431.0 125.5 427.0 115.5C423.5 107.0 421.0 98.5 418.5 89.5C417.0 86.0 415.0 84.5 411.0 84.5C404.0 84.5 398.5 90.0 398.0 97.5C397.5 104.5 399.0 111.5 401.5 117.5C406.0 127.0 409 135.5 412.5 145.5" stroke="#041822" stroke-width="7"/>
<path d="M104.0 215.5C112.0 190.0 114.0 185.0 122.5 160.0C125.0 152.5 127.0 144.5 131.0 137.5C144.0 113.5 157.5 89.5 171.0 65.0C173.0 62.0 174.5 58.5 176.5 55.5C180.0 51.0 185.0 50.0 190.0 52.0C196.5 55.0 200.0 61.5 199.5 69.0C199.0 78.0 195.5 85.5 190.5 92.5C184.0 102.5 178.5 113.5 173.0 124.0C168.0 135.5 161.5 146.0 158.0 158.0C156.0 165.0 156.5 162.0 154.5 168.5C151.5 176.5 147.0 190.5 154.0 184.0C154.5 182.0 154.5 181.0 155.0 179.5C161.0 164.5 163.5 159.0 169.0 144.0C170.5 140.0 172.0 135.5 174.5 132.0C189.5 110.5 205.5 90.0 224.5 71.5C226.0 70.0 228.0 68.0 230.5 66.5C234.5 64.0 238.5 64.5 242.5 67.0C249.5 72.5 251.5 81.5 247.0 90.0C244.0 95.5 240.5 101.0 236.0 105.5H236.0C228.5 112.5 222.5 120.5 217.0 129.0C215.0 132.5 212.5 135.5 210.0 139.0C207.0 143.5 203.5 147.5 201.5 152.5C197.5 159.5 195.0 167.0 192.0 174.0M117.0 223.5C121.5 221.0 126.0 218.0 130.5 215.0C146.5 203.5 163.0 192.5 179.0 181.0C180.5 180.0 182.0 179.5 184.5 180.0C200.5 183.0 217.0 186.5 233.0 190.0C234.5 190.0 235.5 191.0 236.0 191.5C245.5 204.0 254.5 216.0 263.5 228.5C267.5 234.5 265.0 240.5 258.0 242.5C250.0 244.5 242.5 242.5 236.5 237.0C232.5 233.5 228.5 229.5 225.5 225.0C222.5 220.5 219.5 217.5 214.0 218.5C213.5 218.5 213.0 218.5 212.5 218.5C206.0 217.5 199.5 216.5 193.0 215.5C187.5 224.5 179.5 231.5 170.0 237.5C165.0 240.5 162.0 244.5 160.5 250.5C158.0 262.0 152.0 271.5 145.0 280.5C143.5 282.5 143.0 284.5 143.0 287.5C143.0 295.5 144.5 303.5 148.5 311.0C153.0 318.5 157.0 326.5 161.5 334.0C163.0 336.5 165.0 339.0 166.5 342.0C172.0 352.0 180.5 358.0 190.5 361.5L192.0 362.0C202.0 365.5 212.0 368.5 221.5 372.5C234.5 378.0 245.5 385.5 254.0 396.5C260.0 404.0 264.0 412.0 265.0 422.0C265.5 427.0 265.0 431.5 261.5 436.0C258.0 439.5 254.5 440.0 250.5 437.0C248.0 434.5 246.0 432.5 243.5 430.0C235.5 421.0 226.0 414.0 214.5 409.5C198.5 403.0 182.5 398.5 165.5 395.0C162.5 394.0 159.0 393.5 156.5 394.0C139.5 398.5 122.5 401.0 105.5 402.0L91.5 409.5M91.5 409.5L80.0 408.5C83.5 409.0 87.5 409.5 91.5 409.5ZM91.5 409.5C79.5 422.0 68.0 434.5 56.0 446.5C48.5 454.5 40.5 454.5 33.0 447.0C15.0 430.0 0.5 411.0 -9.0 387.5V379.0C-7.5 372.5 -3.0 367.5 1.5 363L1.5 363.0C7.5 357.5 13.0 352.0 18.5 346.5L19.0 346.0C29.5 336.0 40.0 326.0 47.5 314.0C63.0 289.5 79.0 268.0 92.0 242.5C94.5 238.0 94.0 228.5 94.0 224.5C93.0 210.5 90.5 196.0 90.0 181.5C89.5 173.5 88.0 165.0 91.0 156.5C92.0 153.5 92.5 149.5 93.5 146.5C96.5 136.0 99.5 125.5 103.5 115.5C107.0 107.0 109.5 98.5 112.0 89.5C113.5 86.0 115.5 84.5 119.5 84.5C126.5 84.5 132.0 90.0 132.5 97.5C133.0 104.5 131.5 111.5 129.0 117.5C124.5 127.0 121.5 135.5 118.0 145.5" stroke="#041822" stroke-width="7"/>
<circle cx="264.5" cy="45.0" r="8.0" fill="#041822"/>
<circle cx="473.5" cy="197.0" r="8.0" transform="rotate(72 473.5 197.0)" fill="#041822"/>
<circle cx="484.5" cy="264.5" r="8.0" transform="rotate(90 484.5 264.5)" fill="#041822"/>
<circle cx="394.0" cy="442.5" r="8.0" transform="rotate(144 394.0 442.5)" fill="#041822"/>
<circle cx="332.5" cy="473.5" r="8.0" transform="rotate(162 332.5 473.5)" fill="#041822"/>
<circle cx="264.5" cy="484.5" r="8.0" transform="rotate(-180 264.5 484.5)" fill="#041822"/>
<circle cx="197.0" cy="473.5" r="8.0" transform="rotate(-162 197.0 473.5)" fill="#041822"/>
<circle cx="135.5" cy="442.5" r="8.0" transform="rotate(-144 135.5 442.5)" fill="#041822"/>
<circle cx="45.0" cy="264.5" r="8.0" transform="rotate(-90 45.0 264.5)" fill="#041822"/>
<circle cx="56.0" cy="197.0" r="8.0" transform="rotate(-72 56.0 197.0)" fill="#041822"/>
</g>
<defs>
<clipPath id="clip0_15751_953">
<rect width="530" height="530" rx="265" fill="white"/>
</clipPath>
</defs>
</svg>
