<svg width="530" height="530" viewBox="0 0 530 530" fill="none" xmlns="http://www.w3.org/2000/svg">
<path d="M299.5 472.5C299.0 472.5 298.5 472.5 298.0 472.5C299.0 472.5 300.0 472.5 301.0 472.0L299.5 472.5ZM215.0 67.5C245.5 59.5 277.0 59.0 307.5 65.0L310.5 65.5L310.5 65.5L318.5 67.5L318.5 67.5L321.5 68.5C351.5 76.5 379.5 92.0 402.5 112.5L405.0 114.5L405.0 114.5L411.0 120.5L411.0 120.5L413.0 122.5C435.0 144.5 451.5 171.5 461.5 201.0L462.5 204.0L462.5 204.0L465.0 213.0L465.0 213.5L465.5 215.0C473.5 245.0 474.0 277.0 468.0 307.5L467.5 310.0L467.5 310.0L465.5 318.5L465.5 318.5L464.5 321.5C456.5 351.5 441.0 379.0 420.5 402.5L418.5 404.5L418.5 405.0L412.5 411.0L412.5 411.0L410.5 413.0C388.5 435.0 361.5 451.5 332.0 461.5L329.0 462.5L329.0 462.5L321.0 464.5L321.0 464.5L318.0 465.5C287.0 473.5 255.5 474.0 225.5 468.0L223.0 467.5L223.0 467.5L214.5 465.5L214.5 465.5L211.5 464.5C181.5 456.0 154.0 441.0 130.5 420.5L128.5 418.5L128.5 418.5L122.0 412.5L122.0 412.5L120.0 410.5C98.0 388.5 81.5 361.5 72.0 332.0L71.0 329.0L71.0 329.0L68.5 321.0L68.5 321.0L67.5 318.0C57.5 279.5 60.0 247.5 68.0 214.5L76.0 216.5C58.5 293.5 81.0 358.5 126.0 404.0L128.0 406.5L168.0 364.0L166.5 362.0C148.0 342.5 139.5 324.0 132.5 301.5L141.0 299.5C146.0 316.0 151.5 327.5 158.0 337.5C164.0 347.0 171.5 355.0 180.5 363.5L134.5 412.5L136.5 414.5C185.5 457.5 252.5 473.5 315.5 457.0L318.5 456.5L302.0 400.5L299.0 401.0C273.0 407.5 252.5 405.5 230.0 400.0L232.0 391.5C253.0 396.5 271.5 398.5 296.5 393.0L299.5 392.0L282.5 336.0L280.0 336.5C259.0 340.5 238.5 335.0 223.0 323.0L220.5 321.0L220.5 321.0L214.5 315.5L214.5 315.0L212.5 313.0C199.5 297.5 193.0 277.0 196.0 256.5L196.5 254.0L131.0 238.5L133.0 230.0L133.0 230.0L134.0 227.5C139.5 208.5 148.5 191.5 161.5 176.5L163.0 174.5L163.0 174.5L169.0 168.0L169.0 168.0L171.0 166.0C185.5 153.0 202.0 142.5 220.5 136.0L223.0 135.0L223.0 135.0L231.5 132.5L231.5 132.5L234.0 132.0C260.0 125.5 280.5 127.5 303.0 133.0L301.0 141.0C280.0 136.5 261.5 134.5 237.0 140.0L234.0 141.0L250.5 197.0L253.0 196.5C273.0 192.5 294.0 197.5 310.5 210.0L312.5 212.0L312.5 211.5L319.0 217.5L318.5 217.5L320.5 220.0C334.0 235.5 340.0 256.0 337.5 276.0L337.0 279.0L394.0 292.5L394.5 289.5C399.0 264.5 395.5 246.0 390.0 225.5L398.0 223.0C404.5 246.0 407.5 265.5 402.5 291.5L402.0 294.5L402.0 294.5L400.0 303.0L326.5 285.5C329.0 273.5 330.0 262.5 327.5 252.0C325.5 240.5 319.5 230.0 310.0 221.0L310.0 221.0C300.0 211.5 289.5 206.5 278.0 205.0C267.5 203.0 256.5 204.5 244.5 207.5L225.5 143.5L222.5 144.5C183.0 158.5 154.0 190.5 142.5 229.0L141.5 232.0L206.5 247.5C200.5 276.5 208.5 299.5 224.5 313.5C240.5 327.0 264.0 332.0 288.5 325.5L326.5 454.0L329.5 453.0C357.5 443.5 383.0 428.0 404.5 407.0L406.5 405.0L358.0 359.0L364.0 352.5L412.5 399.0L414.5 396.5C482.5 319.0 479.5 202.5 407.5 129.0L405.0 126.5L359.0 175.0L353.0 169.5L399.0 120.5L396.5 118.5C322.0 53.0 204.0 48.5 121.0 134.0L114.5 128.0C138.5 103.0 164.0 84.0 201.5 71.5L204.0 70.5L204.0 70.5L212.5 68.0L212.5 68.0L215.0 67.5ZM308.5 470.5C307.5 471.0 307.0 471.0 306.0 471.0C306.5 471.0 306.5 471.0 307.0 471.0L308.5 470.5ZM206.5 466.0C207.0 466.5 207.5 466.5 208.0 466.5L209.5 467.0C208.5 466.5 207.5 466.5 206.5 466.0ZM262.0 460.5C263.0 460.5 264.0 460.5 265.0 460.5L263.5 460.5C263.0 460.5 262.5 460.5 262.0 460.5ZM240.0 458.5C245.5 459.5 250.5 460.0 256.0 460.0C254.5 460.0 253.0 460.0 251.5 460.0C251.0 460.0 250.5 459.5 250.0 459.5C247.5 459.5 244.5 459.0 241.5 458.5L240.0 458.5ZM310.5 455.5C301.0 457.5 292.0 459.0 282.5 459.5C291.5 459.0 300.0 457.5 309.0 455.5L310.5 455.5ZM228.5 456.5C229.0 456.5 229.5 457.0 230.0 457.0L231.5 457.0C231.0 457.0 230.5 457.0 230.0 457.0L228.5 456.5ZM356.0 455.0C355.5 455.0 355.0 455.5 354.5 455.5C354.5 455.5 354.5 455.5 355.0 455.5L356.0 455.0ZM328.5 450.0C331.0 449.5 333.0 448.5 335.0 448.0L336.5 447.5C334.5 448.0 333.0 448.5 331.5 449.5C331.0 449.5 330.5 449.5 330.0 449.5C329.5 450.0 329.0 450.0 328.5 450.0ZM357.5 438.0C354.5 439.5 351.5 440.5 349.0 442.0C348.5 442.0 348.0 442.5 347.5 442.5C345.0 444.0 342.0 445.0 339.0 446.5L337.5 447.0C344.0 444.5 350.0 441.5 356.0 438.5L357.5 438.0ZM373.5 428.0C372.0 429.5 370.0 430.5 368.0 431.5C367.5 432.0 367.0 432.0 367.0 432.5C365.0 433.5 363.0 435.0 361.0 436.0C365.0 433.5 369.0 431.5 372.5 429.0L373.5 428.0ZM397.5 429.0C397.0 429.0 396.5 429.5 396.0 430.0L395.0 431.0C396.0 430.0 396.5 429.5 397.5 429.0ZM383.5 421.0C383.0 421.5 382.0 422.0 381.5 422.5C380.5 423.5 379.5 424.5 378.0 425.0C377.5 425.5 376.5 426.0 376.0 426.5L375.0 427.5C377.5 425.5 380.0 424.0 382.5 422.0L383.5 421.0ZM389.0 417.0C388.0 417.5 387.0 418.5 386.0 419.5L384.5 420.0C386.0 419.0 387.5 418.0 389.0 417.0ZM398.0 409.0C397.5 409.5 397.0 410.0 396.0 410.5C396.0 411.0 395.5 411.5 395.0 411.5C394.0 412.5 393.0 413.5 392.0 414.5L391.0 415.0C393.0 413.5 395.0 411.5 397.0 410.0L398.0 409.0ZM401.0 406.0C401.0 406.5 400.5 406.5 400.0 407.0L399.0 408.0C399.5 407.5 400.0 407.5 400.0 407.0L401.0 406.0ZM286.0 406.5C285.5 406.5 285.0 406.5 285.0 407.0L283.5 407.0C284.5 407.0 285.0 406.5 286.0 406.5ZM122.0 395.5C124.0 397.5 126.0 400.0 128.0 402.0C126.0 400.5 124.5 398.5 123.0 396.5L122.0 395.5ZM110.5 381.5C113.0 385.5 116.0 389.0 119.0 392.0L120.0 393.5C118.0 391.0 116.0 388.5 114.0 386.5C113.5 385.5 113.0 385.0 112.5 384.0C112.0 383.5 112.0 383.5 111.5 383.0L110.5 381.5ZM101.5 368.0C103.5 372.0 106.0 375.5 109.0 379.5L109.5 380.5C107.0 377.0 104.5 373.0 102.0 369.5L101.5 368.0ZM88.5 343.0C88.5 343.5 88.5 344.0 89.0 344.5L89.5 345.5C89.0 345.0 88.5 344.0 88.5 343.0ZM448.0 335.5C447.5 336.5 447.0 337.0 447.0 337.5L446.0 340.0C446.5 338.5 447.0 337.0 448.0 335.5ZM261.5 325.0C263.0 325.0 264.5 325.0 265.5 325.0L264.5 325.0C264.0 325.0 263.0 325.0 262.5 325.0L261.5 325.0ZM274.5 325.0C274.0 325.0 273.0 325.0 272.5 325.0C271.0 325.0 270.0 325.0 269.0 325.0C271.0 325.0 272.5 325.0 274.5 325.0ZM254.0 324.0C255.0 324.0 255.5 324.5 256.0 324.5C256.0 324.5 255.5 324.5 255.0 324.0L254.0 324.0ZM289.5 322.0C286.5 323.0 283.5 323.5 280.5 324.0C283.0 323.5 285.5 323.0 288.5 322.5L289.5 322.0ZM246.0 322.0C248.0 322.5 250.0 323.0 252.0 323.5C251.5 323.5 251.0 323.5 250.0 323.0C250.0 323.0 249.5 323.0 249.0 323.0C248.0 322.5 247.0 322.5 246.0 322.0ZM393.0 278.5C393.0 279.5 392.5 280.0 392.5 281.0C392.5 280.5 392.5 280.0 392.5 279.5L393.0 278.5ZM326.0 270.5C325.5 271.0 325.5 271.0 325.5 271.5C325.5 272.0 325.5 272.0 325.5 272.5C325.5 273.0 325.5 273.5 325.5 273.5L325.5 275.0C325.5 273.5 325.5 272.0 326.0 270.5ZM325.5 259.5C326.0 261.0 326.0 262.5 326.0 264.0L326.0 265.0C326.0 263.5 326.0 262.0 326.0 260.5L325.5 259.5ZM336.5 241.5C337.0 243.0 337.5 244.0 338.0 245.5L338.0 246.5C338.0 245.5 337.5 245.0 337.5 244.5C337.5 244.0 337.5 244.0 337.0 243.5C337.0 243.0 337.0 242.0 336.5 241.5ZM60 240.0C60.5 236.5 61.0 233.5 61.5 230.0C61.5 231.5 61.0 232.5 61.0 233.5C61.0 234.5 60.5 235.5 60.5 236.5C60.5 237.5 60.0 239.0 60 240.0ZM333.0 233.5C333.5 234.5 334.0 235.0 334.5 236.0C334.0 235.5 334.0 235.0 333.5 234.5L333.0 233.5ZM323.0 218.0C326.5 222.0 329.5 226.0 332.0 231.0L332.5 231.5C330.0 227.0 327.0 222.5 323.5 218.5L323.0 218.0ZM296.0 198.0C299.0 199.5 302.0 201.0 305.0 202.5C304.0 202.0 303.0 201.5 302.0 201.0C301.5 201.0 301.0 200.5 300.5 200.5C300.0 200.0 299.5 199.5 298.5 199.5C298.5 199.5 298.0 199.0 298.0 199.0C297.0 199.0 296.5 198.5 296.0 198.0ZM463.0 196.0C463.0 197.0 463.5 198.0 464.0 199.0L463.5 197.5C463.0 197.0 463.0 196.5 463.0 196.0ZM459.5 187.5C460.0 189.0 461.0 190.5 461.5 192.0C461.0 191.0 460.5 190.0 460.0 189.0L459.5 187.5ZM273.5 192.5C274.0 192.5 274.5 192.5 275.0 192.5C275.0 192.5 274.5 192.5 274.0 192.5L273.5 192.5ZM267.5 192.0C268.5 192.0 270.0 192.0 271.5 192.5C270.5 192.5 270.0 192.0 269.5 192.0C268.5 192.0 268.0 192.0 267.5 192.0ZM457.5 182.5C457.5 182.5 457.5 183.0 458.0 183.5L458.5 185.0C458.0 184.0 457.5 183.0 457.5 182.5ZM450.0 167.5C452.0 170.5 453.5 174.0 455.0 177.0C454.0 175.5 453.5 174.0 453.0 173.0C452.0 171.0 451.0 169.5 450.0 167.5ZM420.5 148.5C421.5 150.0 422.5 151.0 423.5 152.5C424.5 154.0 426.0 156.0 427.5 158.0C428.0 158.5 428.0 159.5 428.5 160.0L430.0 162.0C427.0 157.5 424.0 153.0 420.5 148.5ZM202.5 140.5C202.0 141.0 201.5 141.0 200.5 141.5C199.0 142.0 197.5 143.0 196.0 144.0C195.5 144.5 195.0 144.5 194.0 145.0C193.0 145.5 192.0 146.0 191.0 147.0C194.5 144.5 198.5 142.5 202.5 140.5ZM218.0 149.5C216.5 150.0 214.5 151.0 213.0 151.5L211.0 152.5C213.5 151.5 216.0 150.0 218.0 149.5ZM252.0 140.5C248.5 141.0 244.0 141.5 240.0 142.5C241.5 142.0 243.0 142.0 244.5 141.5C246.5 141.0 248.0 141.0 250.0 140.5C251.0 140.5 251.5 140.5 252.0 140.5ZM284.5 126.5C287.5 126.5 290.5 127.0 293.5 127.5L295.5 128.0C294.0 128.0 292.5 127.5 291.0 127.5C290.5 127.0 289.5 127.0 289.0 127.0C287.5 126.5 286.0 126.5 284.5 126.5ZM198.5 69.5C197.5 70.0 196.0 70.0 195.0 70.5C191.5 72.0 188.0 73.5 184.5 74.5C184.0 75.0 183.5 75.0 183.0 75.5C179.0 77.0 175.5 79.0 172.0 80.5C171.0 81.0 170.0 81.5 169.0 82.0C168.0 82.5 167.0 83.5 166.0 84.0L164.5 84.5C174.5 79.0 186.0 73.5 198.5 69.5ZM270.0 58C272.0 58.0 274.0 58.0 276.0 58.0C275.0 58.0 274.0 58.0 273.0 58.0C272.0 58.0 271.0 58.0 270.0 58Z" fill="#041822"/>
</svg>
