<svg width="530" height="530" viewBox="0 0 530 530" fill="none" xmlns="http://www.w3.org/2000/svg">
<path d="M387.5 387.5C320.0 455.0 210.0 455.0 142.5 387.5M387.5 142.5C347.5 102.5 292.5 86.5 240.5 93.5" stroke="#041822" stroke-width="7"/>
<path d="M345.5 224.0C373.0 170.0 249.0 141.5 236.5 85.0C223.5 91.0 201.0 110.5 213.5 143.0" stroke="#041822" stroke-width="7"/>
<path d="M199.5 258.0C140.5 258.0 92.0 210.0 92.0 150.5L92 133.5C111.0 151.5 137.0 162.5 165.5 162.5H199.5C259.0 162.5 307.0 211.0 307.0 270.0" stroke="#041822" stroke-width="7"/>
<path d="M95.0 287.5C127.5 287.5 156.0 301.0 176.0 323.5C194.5 341.5 226 378.5 278 378.5H279.5C339.0 378.5 387.0 330.5 387.0 271.0C387.0 235.5 424.0 254.5 436.5 239.5C428.0 239.0 417.5 234.5 411.5 224.0C404.0 213.5 392.0 207 378.5 207C356.0 207 338 225.0 338 247.5" stroke="#041822" stroke-width="7"/>
</svg>
