<svg width="530" height="530" viewBox="0 0 530 530" fill="none" xmlns="http://www.w3.org/2000/svg">
<path d="M265 437C265 423.5 270.5 410.5 280.0 401.0C289.5 391.5 302.5 386 316 386H418C422.5 386 427.0 384.0 430.0 381.0C433.0 378.0 435 373.5 435 369V148C435 143.5 433.0 139.0 430.0 136.0C427.0 133.0 422.5 131 418 131H375.5H354.0H343.5M265 437C265 423.5 259.5 410.5 250.0 401.0C240.5 391.5 227.5 386 214 386H112C107.5 386 103.0 384.0 100.0 381.0C97.0 378.0 95 373.5 95 369V148C95 143.5 97.0 139.0 100.0 136.0C103.0 133.0 107.5 131 112 131H197C213.0 131 228.5 136.5 240.5 146.5M265 437V318V263" stroke="#041822" stroke-width="7" stroke-linejoin="round"/>
<path d="M318.5 118.0V144.5M331.5 131.5H305.0M259.0 123.5C259.0 122.0 260.0 120.5 261.0 119.5C262.0 118.5 263.5 118 265.5 118C267.0 118 268.5 118.5 269.5 119.5C270.5 120.5 271.5 122.0 272.0 123.5L278.5 160.0C279.0 163.0 280.5 165.5 282.5 167.0C284.5 169.0 286.5 170.5 289.5 171.0L326.0 178.0C327.5 178.0 329.0 179.0 330.0 180.0C331.0 181.0 331.5 182.5 331.5 184.5C331.5 186.0 331.0 187.5 330.0 188.5C329.0 189.5 327.5 190.5 326.0 191.0L289.5 197.5C286.5 198.0 284.5 199.5 282.5 201.5C280.5 203.5 279.0 205.5 278.5 208.5L272.0 245.0C271.5 246.5 270.5 248.0 269.5 249.0C268.5 250.0 267.0 250.5 265.5 250.5C263.5 250.5 262.0 250.0 261.0 249.0C260.0 248.0 259.0 246.5 259.0 245.0L252.0 208.5C251.5 205.5 250.0 203.5 248.0 201.5C246.5 199.5 244.0 198.0 241.0 197.5L204.5 191.0C203.0 190.5 201.5 189.5 200.5 188.5C199.5 187.5 199 186.0 199 184.5C199 182.5 199.5 181.0 200.5 180.0C201.5 179.0 203.0 178.0 204.5 178.0L241.0 171.0C244.0 170.5 246.5 169.0 248.0 167.0C250.0 165.5 251.5 163.0 252.0 160.0L259.0 123.5ZM225.5 237.5C225.5 244.5 219.5 250.5 212.5 250.5C205.0 250.5 199.0 244.5 199.0 237.5C199.0 230.0 205.0 224.0 212.5 224.0C219.5 224.0 225.5 230.0 225.5 237.5Z" stroke="#041822" stroke-width="7" stroke-linejoin="round"/>
</svg>
