<svg width="530" height="530" viewBox="0 0 530 530" fill="none" xmlns="http://www.w3.org/2000/svg">
<g clip-path="url(#clip0_15751_315)">
<path d="M391 140C391 205.0 329.5 268.0 264.5 268.0C199.5 268.0 139.5 205.0 139.5 140" stroke="#041822" stroke-width="7"/>
<path d="M258.5 313.5C258.5 340.5 244.0 362.5 225.5 380" stroke="#041822" stroke-width="7"/>
<path d="M337.5 391.0C339.5 391.5 340.5 393.5 340.0 395.5C339.5 397.5 337.5 398.5 335.5 398.0L336.5 394.5L337.5 391.0ZM272.5 311.5L276 311.5C276 332.5 282.0 349.5 292.5 362.5C303.0 376.0 318.5 385.5 337.5 391.0L336.5 394.5L335.5 398.0C315.5 392.0 298.5 381.5 287.0 367.0C275.5 352.5 269 334.0 269 311.5L272.5 311.5Z" fill="#041822"/>
<path d="M302.5 262.0C308.0 283.0 295.5 305.0 274.5 310.5C253.5 316.0 231.5 303.5 226 282.5" stroke="#041822" stroke-width="7"/>
<path d="M224 120.0C174.0 122.5 138 129.5 138 138C138 148.5 194.5 157 264.5 157C334.5 157 391 148.5 391 138C391 129.5 355.0 122.5 305 120.0" stroke="#041822" stroke-width="7"/>
<path d="M337.0 394.5C361.5 397.5 377.0 402.5 377.0 407.5C377.0 417.0 326.5 424.5 264.5 424.5C202.5 424.5 152.0 417.0 152.0 407.5C152.0 402.0 170.5 397.0 199.0 393.5" stroke="#041822" stroke-width="7"/>
<circle cx="265.0" cy="194.0" r="23.5" stroke="#041822" stroke-width="4"/>
<circle cx="247.5" cy="225.0" r="23.5" stroke="#041822" stroke-width="4"/>
<circle cx="282.5" cy="225.0" r="23.5" stroke="#041822" stroke-width="4"/>
<mask id="mask0_15751_315" style="mask-type:alpha" maskUnits="userSpaceOnUse" x="-46" y="41" width="622" height="447">
<path d="M109.5 41.5C152.0 41.5 191.0 66.5 219.0 106.5C247.0 147.0 264.5 203.0 264.5 264.5C264.5 326.0 247.0 382.0 219.0 422.5C191.0 462.5 152.0 487.5 109.5 487.5C67.0 487.5 28.0 462.5 -0.0 422.5C-28.0 382.0 -45.5 326.0 -45.5 264.5C-45.5 203.0 -28.0 147.0 -0.0 106.5C28.0 66.5 67.0 41.5 109.5 41.5Z" stroke="#F9C192" stroke-opacity="0.5"/>
<path d="M255 41.5C255.0 41.5 255.0 41.5 255.0 41.5C255.5 42.0 255.5 42.0 255.5 42.5C256.0 43.0 256.0 44.0 256.5 45.5C257.0 48.5 258.0 53.0 258.5 58.5C259.5 70.0 260.5 86.5 261.5 106.5C263.5 147.0 264.5 203.0 264.5 264.5C264.5 326.0 263.5 382.0 261.5 422.5C260.5 442.5 259.5 459.0 258.5 470.5C258.0 476.0 257.0 480.5 256.5 483.5C256.0 485.0 256.0 486.0 255.5 486.5C255.5 487.0 255.5 487.0 255.0 487.5C255.0 487.5 255.0 487.5 255 487.5C255.0 487.5 255.0 487.5 255.0 487.5C254.5 487.0 254.5 487.0 254.5 486.5C254.0 486.0 254.0 485.0 253.5 483.5C253.0 480.5 252.0 476.0 251.5 470.5C250.5 459.0 249.5 442.5 248.5 422.5C246.5 382.0 245.5 326.0 245.5 264.5C245.5 203.0 246.5 147.0 248.5 106.5C249.5 86.5 250.5 70.0 251.5 58.5C252.0 53.0 253.0 48.5 253.5 45.5C254.0 44.0 254.0 43.0 254.5 42.5C254.5 42.0 254.5 42.0 255.0 41.5C255.0 41.5 255.0 41.5 255 41.5Z" stroke="#F9C192" stroke-opacity="0.5"/>
<path d="M236 41.5C237.5 41.5 239.5 43.0 241.5 46.0C243.5 48.5 245.0 53.0 247.0 58.5C250.5 70.0 253.5 86.5 256.0 106.5C261.5 147.0 264.5 203.0 264.5 264.5C264.5 326.0 261.5 382.0 256.0 422.5C253.5 442.5 250.5 459.0 247.0 470.5C245.0 476.0 243.5 480.5 241.5 483.0C239.5 486.0 237.5 487.5 236 487.5C234.5 487.5 232.5 486.0 230.5 483.0C228.5 480.5 227.0 476.0 225.0 470.5C221.5 459.0 218.5 442.5 216.0 422.5C210.5 382.0 207.5 326.0 207.5 264.5C207.5 203.0 210.5 147.0 216.0 106.5C218.5 86.5 221.5 70.0 225.0 58.5C227.0 53.0 228.5 48.5 230.5 46.0C232.5 43.0 234.5 41.5 236 41.5Z" stroke="#F9C192" stroke-opacity="0.5"/>
<path d="M219.5 41.5C222.5 41.5 225.5 43.0 228.5 46.0C231.0 49.0 234.0 53.0 237.0 59.0C242.0 70.0 247.0 86.5 251.0 106.5C259.5 147.0 264.5 203.0 264.5 264.5C264.5 326.0 259.5 382.0 251.0 422.5C247.0 442.5 242.0 459.0 237.0 470.0C234.0 476.0 231.0 480.0 228.5 483.0C225.5 486.0 222.5 487.5 219.5 487.5C216.5 487.5 213.5 486.0 210.5 483.0C208.0 480.0 205.0 476.0 202.0 470.0C197.0 459.0 192.0 442.5 188.0 422.5C179.5 382.0 174.5 326.0 174.5 264.5C174.5 203.0 179.5 147.0 188.0 106.5C192.0 86.5 197.0 70.0 202.0 59.0C205.0 53.0 208.0 49.0 210.5 46.0C213.5 43.0 216.5 41.5 219.5 41.5Z" stroke="#F9C192" stroke-opacity="0.5"/>
<path d="M203 41.5C211.5 41.5 219.5 47.5 226.5 59.0C234.0 70.0 241.0 86.5 246.5 106.5C257.5 147.0 264.5 203.0 264.5 264.5C264.5 326.0 257.5 382.0 246.5 422.5C241.0 442.5 234.0 459.0 226.5 470.0C219.5 481.5 211.5 487.5 203 487.5C194.5 487.5 186.5 481.5 179.5 470.0C172.0 459.0 165.0 442.5 159.5 422.5C148.5 382.0 141.5 326.0 141.5 264.5C141.5 203.0 148.5 147.0 159.5 106.5C165.0 86.5 172.0 70.0 179.5 59.0C186.5 47.5 194.5 41.5 203 41.5Z" stroke="#F9C192" stroke-opacity="0.5"/>
<path d="M185 41.5C196.0 41.5 206.0 47.5 216.0 59.0C225.5 70.0 234.0 86.5 241.0 106.5C255.5 147.0 264.5 203.0 264.5 264.5C264.5 326.0 255.5 382.0 241.0 422.5C234.0 442.5 225.5 459.0 216.0 470.0C206.0 481.5 196.0 487.5 185 487.5C174.0 487.5 164.0 481.5 154.0 470.0C144.5 459.0 136.0 442.5 129.0 422.5C114.5 382.0 105.5 326.0 105.5 264.5C105.5 203.0 114.5 147.0 129.0 106.5C136.0 86.5 144.5 70.0 154.0 59.0C164.0 47.5 174.0 41.5 185 41.5Z" stroke="#F9C192" stroke-opacity="0.5"/>
<path d="M167 41.5C180.5 41.5 193.0 47.5 205.0 59.0C216.5 70.0 227.0 86.5 236.0 106.5C253.5 147.0 264.5 203.0 264.5 264.5C264.5 326.0 253.5 382.0 236.0 422.5C227.0 442.5 216.5 459.0 205.0 470.0C193.0 481.5 180.5 487.5 167 487.5C153.5 487.5 141.0 481.5 129.0 470.0C117.5 459.0 107.0 442.5 98.0 422.5C80.5 382.0 69.5 326.0 69.5 264.5C69.5 203.0 80.5 147.0 98.0 106.5C107.0 86.5 117.5 70.0 129.0 59.0C141.0 47.5 153.5 41.5 167 41.5Z" stroke="#F9C192" stroke-opacity="0.5"/>
<path d="M147.5 41.5C179.5 41.5 209.0 66.5 230.0 106.5C251.5 147.0 264.5 203.0 264.5 264.5C264.5 326.0 251.5 382.0 230.0 422.5C209.0 462.5 179.5 487.5 147.5 487.5C115.5 487.5 86.0 462.5 65.0 422.5C43.5 382.0 30.5 326.0 30.5 264.5C30.5 203.0 43.5 147.0 65.0 106.5C86.0 66.5 115.5 41.5 147.5 41.5Z" stroke="#F9C192" stroke-opacity="0.5"/>
<path d="M127 41.5C165.0 41.5 199.0 66.5 224.0 106.5C249.0 147.0 264.5 203.0 264.5 264.5C264.5 326.0 249.0 382.0 224.0 422.5C199.0 462.5 165.0 487.5 127 487.5C89.0 487.5 55.0 462.5 30.0 422.5C5.0 382.0 -10.5 326.0 -10.5 264.5C-10.5 203.0 5.0 147.0 30.0 106.5C55.0 66.5 89.0 41.5 127 41.5Z" stroke="#F9C192" stroke-opacity="0.5"/>
<path d="M420.5 41.5C378.0 41.5 339.0 66.5 311.0 106.5C283.0 147.0 265.5 203.0 265.5 264.5C265.5 326.0 283.0 382.0 311.0 422.5C339.0 462.5 378.0 487.5 420.5 487.5C463.0 487.5 502.0 462.5 530.0 422.5C558.0 382.0 575.5 326.0 575.5 264.5C575.5 203.0 558.0 147.0 530.0 106.5C502.0 66.5 463.0 41.5 420.5 41.5Z" stroke="#F9C192" stroke-opacity="0.5"/>
<path d="M275 41.5C275.0 41.5 275.0 41.5 275.0 41.5C274.5 42.0 274.5 42.0 274.5 42.5C274.0 43.0 274.0 44.0 273.5 45.5C273.0 48.5 272.0 53.0 271.5 58.5C270.5 70.0 269.5 86.5 268.5 106.5C266.5 147.0 265.5 203.0 265.5 264.5C265.5 326.0 266.5 382.0 268.5 422.5C269.5 442.5 270.5 459.0 271.5 470.5C272.0 476.0 273.0 480.5 273.5 483.5C274.0 485.0 274.0 486.0 274.5 486.5C274.5 487.0 274.5 487.0 275.0 487.5C275.0 487.5 275.0 487.5 275 487.5C275.0 487.5 275.0 487.5 275.0 487.5C275.5 487.0 275.5 487.0 275.5 486.5C276.0 486.0 276.0 485.0 276.5 483.5C277.0 480.5 278.0 476.0 278.5 470.5C279.5 459.0 280.5 442.5 281.5 422.5C283.5 382.0 284.5 326.0 284.5 264.5C284.5 203.0 283.5 147.0 281.5 106.5C280.5 86.5 279.5 70.0 278.5 58.5C278.0 53.0 277.0 48.5 276.5 45.5C276.0 44.0 276.0 43.0 275.5 42.5C275.5 42.0 275.5 42.0 275.0 41.5C275.0 41.5 275.0 41.5 275 41.5Z" stroke="#F9C192" stroke-opacity="0.5"/>
<path d="M294 41.5C292.5 41.5 290.5 43.0 288.5 46.0C286.5 48.5 285.0 53.0 283.0 58.5C279.5 70.0 276.5 86.5 274.0 106.5C268.5 147.0 265.5 203.0 265.5 264.5C265.5 326.0 268.5 382.0 274.0 422.5C276.5 442.5 279.5 459.0 283.0 470.5C285.0 476.0 286.5 480.5 288.5 483.0C290.5 486.0 292.5 487.5 294 487.5C295.5 487.5 297.5 486.0 299.5 483.0C301.5 480.5 303.0 476.0 305.0 470.5C308.5 459.0 311.5 442.5 314.0 422.5C319.5 382.0 322.5 326.0 322.5 264.5C322.5 203.0 319.5 147.0 314.0 106.5C311.5 86.5 308.5 70.0 305.0 58.5C303.0 53.0 301.5 48.5 299.5 46.0C297.5 43.0 295.5 41.5 294 41.5Z" stroke="#F9C192" stroke-opacity="0.5"/>
<path d="M310.5 41.5C307.5 41.5 304.5 43.0 301.5 46.0C299.0 49.0 296.0 53.0 293.0 59.0C288.0 70.0 283.0 86.5 279.0 106.5C270.5 147.0 265.5 203.0 265.5 264.5C265.5 326.0 270.5 382.0 279.0 422.5C283.0 442.5 288.0 459.0 293.0 470.0C296.0 476.0 299.0 480.0 301.5 483.0C304.5 486.0 307.5 487.5 310.5 487.5C313.5 487.5 316.5 486.0 319.5 483.0C322.0 480.0 325.0 476.0 328.0 470.0C333.0 459.0 338.0 442.5 342.0 422.5C350.5 382.0 355.5 326.0 355.5 264.5C355.5 203.0 350.5 147.0 342.0 106.5C338.0 86.5 333.0 70.0 328.0 59.0C325.0 53.0 322.0 49.0 319.5 46.0C316.5 43.0 313.5 41.5 310.5 41.5Z" stroke="#F9C192" stroke-opacity="0.5"/>
<path d="M327 41.5C318.5 41.5 310.5 47.5 303.5 59.0C296.0 70.0 289.0 86.5 283.5 106.5C272.5 147.0 265.5 203.0 265.5 264.5C265.5 326.0 272.5 382.0 283.5 422.5C289.0 442.5 296.0 459.0 303.5 470.0C310.5 481.5 318.5 487.5 327 487.5C335.5 487.5 343.5 481.5 350.5 470.0C358.0 459.0 365.0 442.5 370.5 422.5C381.5 382.0 388.5 326.0 388.5 264.5C388.5 203.0 381.5 147.0 370.5 106.5C365.0 86.5 358.0 70.0 350.5 59.0C343.5 47.5 335.5 41.5 327 41.5Z" stroke="#F9C192" stroke-opacity="0.5"/>
<path d="M345 41.5C334.0 41.5 324.0 47.5 314.0 59.0C304.5 70.0 296.0 86.5 289.0 106.5C274.5 147.0 265.5 203.0 265.5 264.5C265.5 326.0 274.5 382.0 289.0 422.5C296.0 442.5 304.5 459.0 314.0 470.0C324.0 481.5 334.0 487.5 345 487.5C356.0 487.5 366.0 481.5 376.0 470.0C385.5 459.0 394.0 442.5 401.0 422.5C415.5 382.0 424.5 326.0 424.5 264.5C424.5 203.0 415.5 147.0 401.0 106.5C394.0 86.5 385.5 70.0 376.0 59.0C366.0 47.5 356.0 41.5 345 41.5Z" stroke="#F9C192" stroke-opacity="0.5"/>
<path d="M363 41.5C349.5 41.5 337.0 47.5 325.0 59.0C313.5 70.0 303.0 86.5 294.0 106.5C276.5 147.0 265.5 203.0 265.5 264.5C265.5 326.0 276.5 382.0 294.0 422.5C303.0 442.5 313.5 459.0 325.0 470.0C337.0 481.5 349.5 487.5 363 487.5C376.5 487.5 389.0 481.5 401.0 470.0C412.5 459.0 423.0 442.5 432.0 422.5C449.5 382.0 460.5 326.0 460.5 264.5C460.5 203.0 449.5 147.0 432.0 106.5C423.0 86.5 412.5 70.0 401.0 59.0C389.0 47.5 376.5 41.5 363 41.5Z" stroke="#F9C192" stroke-opacity="0.5"/>
<path d="M382.5 41.5C350.5 41.5 321.0 66.5 300.0 106.5C278.5 147.0 265.5 203.0 265.5 264.5C265.5 326.0 278.5 382.0 300.0 422.5C321.0 462.5 350.5 487.5 382.5 487.5C414.5 487.5 444.0 462.5 465.0 422.5C486.5 382.0 499.5 326.0 499.5 264.5C499.5 203.0 486.5 147.0 465.0 106.5C444.0 66.5 414.5 41.5 382.5 41.5Z" stroke="#F9C192" stroke-opacity="0.5"/>
<path d="M403 41.5C365.0 41.5 331.0 66.5 306.0 106.5C281.0 147.0 265.5 203.0 265.5 264.5C265.5 326.0 281.0 382.0 306.0 422.5C331.0 462.5 365.0 487.5 403 487.5C441.0 487.5 475.0 462.5 500.0 422.5C525.0 382.0 540.5 326.0 540.5 264.5C540.5 203.0 525.0 147.0 500.0 106.5C475.0 66.5 441.0 41.5 403 41.5Z" stroke="#F9C192" stroke-opacity="0.5"/>
</mask>
<g mask="url(#mask0_15751_315)">
<path d="M248 -45C453.0 -45 619 95.5 619 268.5C619 441.5 453.0 582 248 582C43.0 582 -123 441.5 -123 268.5C-123 95.5 43.0 -45 248 -45ZM364 150.5L278.5 158.5L186 154L140 141.5L149.5 186L175 226L208.5 254L254 268.5L301.5 263.5L358 226L386.5 169.5L390.5 138L364 150.5Z" fill="#041822"/>
</g>
</g>
<defs>
<clipPath id="clip0_15751_315">
<rect width="530" height="530" rx="265" fill="white"/>
</clipPath>
</defs>
</svg>
