<svg width="530" height="530" viewBox="0 0 530 530" fill="none" xmlns="http://www.w3.org/2000/svg">
<path d="M448.5 265.5C448.5 184.0 395.5 115.0 322 91.0M82 265.5C82 184.0 135.0 115.0 208.5 91.0M173.5 424.0C200.5 439.5 232.0 448.5 265.5 448.5C298.5 448.5 330.0 439.5 357.0 424.0" stroke="#041822" stroke-width="4"/>
<path d="M208.5 169.5L249.5 101M320.5 169.5L280 101" stroke="#041822" stroke-width="7"/>
<path d="M292.0 100.0H236.5L264.0 52.0L292.0 100.0Z" stroke="#041822" stroke-width="8.0"/>
<path d="M229.5 209.5H174.0L202.0 162.0L229.5 209.5Z" stroke="#041822" stroke-width="8.0"/>
<path d="M181 293.0H126.0L153.5 245.5L181 293.0Z" stroke="#041822" stroke-width="8.0"/>
<path d="M125.5 390.0H70.5L98.0 342.0L125.5 390.0Z" stroke="#041822" stroke-width="8.0"/>
<path d="M459.0 390.0H404.0L431.5 342.0L459.0 390.0Z" stroke="#041822" stroke-width="8.0"/>
<path d="M403.5 293.0H348.5L376.0 245.5L403.5 293.0Z" stroke="#041822" stroke-width="8.0"/>
<path d="M355.5 209.5H300.5L328.0 162.0L355.5 209.5Z" stroke="#041822" stroke-width="8.0"/>
<path d="M226 204.5L412 369.5" stroke="#041822" stroke-width="7"/>
<path d="M303.5 207.5L171 274" stroke="#041822" stroke-width="7"/>
<path d="M171.5 274.5L358 274.5" stroke="#041822" stroke-width="7"/>
<path d="M357.5 275L114.5 368.5" stroke="#041822" stroke-width="7"/>
<path d="M116.0 369.5H413.0" stroke="#041822" stroke-width="7"/>
</svg>
