<svg width="530" height="530" viewBox="0 0 530 530" fill="none" xmlns="http://www.w3.org/2000/svg">
<path d="M358.0 374.0L328.0 344.0L320.5 336.5L315.5 331.5M266.0 466.0L146.5 346.5L131.5 331.5M120.5 320.5L116.5 316.5L86.5 287.0L73.0 273.0C47.5 247.5 47.5 206.5 73.0 181.0C98.5 155.5 139.5 155.5 165.0 181.0L178.5 195.0L208.5 224.5L212.5 228.5M305.0 321.0L298.0 314.0L238.5 254.5L223.5 239.5" stroke="#041822" stroke-width="7"/>
<path d="M395.0 321.5L325.5 252.5L317.0 243.5L312.5 239.5M263.0 373.5L227.0 337.5L221.5 332.0M210.5 321.0L164.5 275.0C140.0 250.5 139.0 212.0 161.0 186.5M170.5 177.5C196.0 157.5 233.0 159.5 256.5 183.0L291.0 217.5L299.5 226.5L304.0 230.5" stroke="#041822" stroke-width="7"/>
<path d="M263.5 463.5L323.0 404.0L351.0 376.5M177.0 366.0L179.0 364.5L186.5 357.0L201.5 342.0L231.0 312.0L259.5 284M360.5 366.5L368.0 359.5L383.0 344.5L456.0 271.0C481.5 245.5 481.5 204.5 456.0 179.0L454.5 177.5C430.0 153.0 390.5 153.0 365.5 177.5M268.5 275.0L276.0 267.5L291.0 252.5L350.5 192.5L356.5 187" stroke="#041822" stroke-width="7"/>
<path d="M260.5 376.0L333.5 302.5L350.0 286M124.5 328L148.5 304.0L160.0 292.0L166.0 286.0M177.0 275.5L184.0 268.5L196.0 256.5L220.0 232.5L243.5 208.5L255.5 196.5L258.5 193.5M267.5 185.0L269.5 183.0C294.5 157.5 336.0 157.5 361.0 183.0C386.5 208.5 386.5 249.5 361.0 275.0L359.0 277.0" stroke="#041822" stroke-width="7"/>
<path d="M355.0 371L366.5 383.0L375.5 392.5C386.0 402.5 402.0 402.5 412.0 392.5L420.5 384.0C431.0 373.5 431.0 357.5 420.5 347.5L411.5 338.0L407.0 333.5L406.0 332.5" stroke="#041822" stroke-width="7"/>
<path d="M131.5 321L105.5 347.5C95.5 357.5 95.5 373.5 105.5 383.5L114.0 392.5C124.5 402.5 140.5 402.5 150.5 392.5L160.0 383.0L164.5 378.5L166.5 376.5" stroke="#041822" stroke-width="7"/>
<path d="M331.5 118.0L262.0 49.0L193.0 118.0" stroke="#041822" stroke-width="7"/>
</svg>
