<svg width="530" height="530" viewBox="0 0 530 530" fill="none" xmlns="http://www.w3.org/2000/svg">
<path d="M258.5 163.0C220.0 162.0 210 150.5 210 144.5C210 114.5 234.5 90 264.5 90C294.5 90 319 114.5 319 144.5C319 150.5 309.0 162.0 270.5 163.0" stroke="#041822" stroke-width="7"/>
<path d="M264.5 100.0C242.0 100.0 223.5 117.5 223.5 139.5C223.5 144.0 231.0 152.0 258.5 153.0C260.5 153.0 262.5 129.5 264.5 129.5C267.0 129.5 268.0 153.0 270.5 153.0C297.0 152.0 305.5 145.5 305.5 139.5C305.5 117.5 287.0 100.0 264.5 100.0Z" stroke="#041822" stroke-width="4"/>
<path d="M270.0 159.5V450.5C270.0 461.5 258.5 461.5 258.5 450.5V159.5" stroke="#041822" stroke-width="7"/>
<path d="M270.5 405.0H311.5M311.5 405.0V376.0H293.5V390.0M311.5 405.0V434.5H293.5V422.0" stroke="#041822" stroke-width="7"/>
<path d="M427.5 220.5C454.0 216.5 467.0 180.0 470.5 162.5L460 148H439L285 220.5L287 227.5M427.5 220.5L434.5 227.5C420.0 245.0 380.0 275.0 337 257.5M427.5 220.5L383.5 214.5M337 257.5L410 292.5L420.5 309.5M337 257.5L290.5 239M420.5 309.5L288.0 244.5M420.5 309.5C413.0 315.5 393.5 324.5 366.5 323.5M346.5 321C309.0 313 290.0 270.5 285 250L288.0 244.5M346.5 321C353.5 322.5 360.0 323.5 366.5 323.5M346.5 321L327.0 284.0M290.5 239L427.5 227.5M290.5 239L288.0 244.5M287 227.5L377.5 183L410 176.0M287 227.5L290.5 230.5L383.5 214.5M466.5 164.5L410 176.0M383.5 214.5L410 176.0M288.0 244.5L327.0 284.0M366.5 323.5L327.0 284.0" stroke="#041822" stroke-width="2"/>
<path d="M102 220.5C75.5 216.5 62.5 180.0 59 162.5L69.5 148H90.5L244.5 220.5L242.5 227.5M102 220.5L95 227.5C109.5 245.0 149.5 275.0 192.5 257.5M102 220.5L146 214.5M192.5 257.5L119.5 292.5L109 309.5M192.5 257.5L239 239M109 309.5L242.0 244.5M109 309.5C116.5 315.5 136.0 324.5 163 323.5M183 321C220.5 313 239.5 270.5 244.5 250L242.0 244.5M183 321C176.0 322.5 169.5 323.5 163 323.5M183 321L202.5 284.0M239 239L102 227.5M239 239L242.0 244.5M242.5 227.5L152 183L119.5 176.0M242.5 227.5L239 230.5L146 214.5M63 164.5L119.5 176.0M146 214.5L119.5 176.0M242.0 244.5L202.5 284.0M163 323.5L202.5 284.0" stroke="#041822" stroke-width="2"/>
</svg>
