<svg width="530" height="530" viewBox="0 0 530 530" fill="none" xmlns="http://www.w3.org/2000/svg">
<mask id="path-2-outside-1_15751_517" maskUnits="userSpaceOnUse" x="51.0" y="51.0" width="428" height="428" fill="black">
<rect fill="white" x="51.0" y="51.0" width="428" height="428"/>
<path d="M256.5 475.0L189.5 476.0L192.0 469.5L256.5 468.5V475.0ZM345.5 474.0L275.5 475.0V468.0L342.5 467.5L345.5 474.0ZM175.0 461.0L172.0 467.5L120.5 417.5L125.5 413.0L175.0 461.0ZM469.5 356.0L362.5 466.0L359.5 459.0L462.5 353.5L469.5 356.0ZM256.5 435.5L206.0 436.5L208.5 429.5L256.5 429.0V435.5ZM328.0 434.5L275.5 435.5V428.5L325.0 428.0L328.0 434.5ZM191.0 421.5L188.5 428.5L148.5 389.5L153.5 385.0L191.0 421.5ZM381.0 390.0L345.5 426.5L342.5 420.0L376.5 385.5L381.0 390.0ZM111.5 399.5L107.0 404.0L63.5 361.5L70.0 359.0L111.5 399.5ZM256.5 389.5L225.0 390.0L228.0 383.0L256.5 383.0V389.5ZM308.0 389.0L275.5 389.0V382.5L305.0 382.0L308.0 389.0ZM210.0 376.0L207.5 382.5L149.0 325.5L155.5 322.5L210.0 376.0ZM347.5 358.5L325.5 381.0L322.5 374.5L342.5 354.0L347.5 358.5ZM429.5 340.5L394.5 376.5L389.5 372.0L422.5 338.0L429.5 340.5ZM139.5 371.5L135.0 376.5L103.0 345.0L109.5 342.0L139.5 371.5ZM383.0 322.5L361.0 345.0L356.0 340.5L376.0 319.5L383.0 322.5ZM60.5 191.5L62.5 341.5L56 344.0L54.0 189.0L60.5 191.5ZM476.0 338.0L469.0 335.5L468.5 273.5H475.0L476.0 338.0ZM102.0 324.5L95.5 327.5L94.5 275.5H101.5L102.0 324.5ZM436.5 322.5L429.5 320.0L428.0 205.0L434.5 202.0L436.5 322.5ZM147.0 227.5L148.0 305.0L141.0 308.0L140.0 225.0L147.0 227.5ZM390.0 304.5L383.0 302.0L383.0 273.5H389.5L390.0 304.5ZM100.5 208.0L101.0 256.5H94.5L93.5 205.5L100.5 208.0ZM475.0 254.5H468.0L467.5 187.5L474.0 184.5L475.0 254.5ZM389.0 254.5H382.5L382.0 225.0L389.0 222.0L389.0 254.5ZM207.5 155.0L154.5 210.0L147.5 207.0L205.0 148.5L207.5 155.0ZM381.0 204.5L374.5 207.5L356.0 189.5L360.5 184.5L381.0 204.5ZM188.0 109.0L108.5 191.0L102.0 188.0L185.5 102.5L188.0 109.0ZM427.0 184.5L420.0 187.5L338.5 108.0L341.5 101.5L427.0 184.5ZM347.0 171.5L342.0 176.0L320.0 154.5L322.5 147.5L347.0 171.5ZM112.5 130.0L69.5 174.5L62.5 171.5L108.0 125.5L112.5 130.0ZM465.5 167.5L459.0 170.5L354.5 68.5L357.5 62.0L465.5 167.5ZM302.5 147.0L225.5 148.0L222.5 141.0L305.0 140.0L302.5 147.0ZM171.5 69.5L126.0 116.5L121.5 111.5L168.5 63.0L171.5 69.5ZM321.0 100.5L206.0 102.0L203.0 95.5L324.0 93.5L321.0 100.5ZM337.0 60.5L189.5 62.5L186.5 56.0L340.0 54.0L337.0 60.5Z"/>
</mask>
<path d="M256.5 475.0L189.5 476.0L192.0 469.5L256.5 468.5V475.0ZM345.5 474.0L275.5 475.0V468.0L342.5 467.5L345.5 474.0ZM175.0 461.0L172.0 467.5L120.5 417.5L125.5 413.0L175.0 461.0ZM469.5 356.0L362.5 466.0L359.5 459.0L462.5 353.5L469.5 356.0ZM256.5 435.5L206.0 436.5L208.5 429.5L256.5 429.0V435.5ZM328.0 434.5L275.5 435.5V428.5L325.0 428.0L328.0 434.5ZM191.0 421.5L188.5 428.5L148.5 389.5L153.5 385.0L191.0 421.5ZM381.0 390.0L345.5 426.5L342.5 420.0L376.5 385.5L381.0 390.0ZM111.5 399.5L107.0 404.0L63.5 361.5L70.0 359.0L111.5 399.5ZM256.5 389.5L225.0 390.0L228.0 383.0L256.5 383.0V389.5ZM308.0 389.0L275.5 389.0V382.5L305.0 382.0L308.0 389.0ZM210.0 376.0L207.5 382.5L149.0 325.5L155.5 322.5L210.0 376.0ZM347.5 358.5L325.5 381.0L322.5 374.5L342.5 354.0L347.5 358.5ZM429.5 340.5L394.5 376.5L389.5 372.0L422.5 338.0L429.5 340.5ZM139.5 371.5L135.0 376.5L103.0 345.0L109.5 342.0L139.5 371.5ZM383.0 322.5L361.0 345.0L356.0 340.5L376.0 319.5L383.0 322.5ZM60.5 191.5L62.5 341.5L56 344.0L54.0 189.0L60.5 191.5ZM476.0 338.0L469.0 335.5L468.5 273.5H475.0L476.0 338.0ZM102.0 324.5L95.5 327.5L94.5 275.5H101.5L102.0 324.5ZM436.5 322.5L429.5 320.0L428.0 205.0L434.5 202.0L436.5 322.5ZM147.0 227.5L148.0 305.0L141.0 308.0L140.0 225.0L147.0 227.5ZM390.0 304.5L383.0 302.0L383.0 273.5H389.5L390.0 304.5ZM100.5 208.0L101.0 256.5H94.5L93.5 205.5L100.5 208.0ZM475.0 254.5H468.0L467.5 187.5L474.0 184.5L475.0 254.5ZM389.0 254.5H382.5L382.0 225.0L389.0 222.0L389.0 254.5ZM207.5 155.0L154.5 210.0L147.5 207.0L205.0 148.5L207.5 155.0ZM381.0 204.5L374.5 207.5L356.0 189.5L360.5 184.5L381.0 204.5ZM188.0 109.0L108.5 191.0L102.0 188.0L185.5 102.5L188.0 109.0ZM427.0 184.5L420.0 187.5L338.5 108.0L341.5 101.5L427.0 184.5ZM347.0 171.5L342.0 176.0L320.0 154.5L322.5 147.5L347.0 171.5ZM112.5 130.0L69.5 174.5L62.5 171.5L108.0 125.5L112.5 130.0ZM465.5 167.5L459.0 170.5L354.5 68.5L357.5 62.0L465.5 167.5ZM302.5 147.0L225.5 148.0L222.5 141.0L305.0 140.0L302.5 147.0ZM171.5 69.5L126.0 116.5L121.5 111.5L168.5 63.0L171.5 69.5ZM321.0 100.5L206.0 102.0L203.0 95.5L324.0 93.5L321.0 100.5ZM337.0 60.5L189.5 62.5L186.5 56.0L340.0 54.0L337.0 60.5Z" fill="#041822"/>
<path d="M256.5 475.0L256.5 477.0L258.5 477.0V475.0H256.5ZM189.5 476.0L187.5 475.0L186.5 478.0L189.5 478.0L189.5 476.0ZM192.0 469.5L192.0 467.5L191.0 467.5L190.5 468.5L192.0 469.5ZM256.5 468.5H258.5V466.5L256.5 466.5L256.5 468.5ZM345.5 474.0L345.5 476.0L348.5 476.0L347.0 473.0L345.5 474.0ZM275.5 475.0H273.5V477.0L275.5 477.0L275.5 475.0ZM275.5 468.0L275.5 466.0L273.5 466.0V468.0H275.5ZM342.5 467.5L344.0 466.5L343.5 465.5L342.5 465.5L342.5 467.5ZM175.0 461.0L176.5 462.0L177.0 460.5L176.0 459.5L175.0 461.0ZM172.0 467.5L170.5 469.0L173.0 471.0L174.0 468.5L172.0 467.5ZM120.5 417.5L119.5 416.0L118.0 417.5L119.5 419.0L120.5 417.5ZM125.5 413.0L127.0 411.5L125.5 410.0L124.0 411.5L125.5 413.0ZM469.5 356.0L471.0 357.5L473.0 355.5L470.0 354.5L469.5 356.0ZM362.5 466.0L360.5 466.5L362.0 469.5L364.0 467.0L362.5 466.0ZM359.5 459.0L358.5 457.5L357.5 458.5L358.0 460.0L359.5 459.0ZM462.5 353.5L463.5 351.5L462.0 351.0L461.0 352.0L462.5 353.5ZM256.5 435.5L256.5 437.5L258.5 437.5V435.5H256.5ZM206.0 436.5L204.0 435.5L203.0 438.5L206.0 438.5L206.0 436.5ZM208.5 429.5L208.5 427.5L207.0 427.5L206.5 429.0L208.5 429.5ZM256.5 429.0H258.5V427.0L256.5 427.0L256.5 429.0ZM328.0 434.5L328.0 436.5L331.0 436.5L330.0 434.0L328.0 434.5ZM275.5 435.5H273.5V437.5L275.5 437.5L275.5 435.5ZM275.5 428.5L275.5 426.5L273.5 426.5V428.5H275.5ZM325.0 428.0L327.0 427.5L326.5 426.0L325.0 426.0L325.0 428.0ZM191.0 421.5L193.0 422.5L193.5 421.5L192.5 420.5L191.0 421.5ZM188.5 428.5L187.0 430.0L189.0 432.0L190.0 429.0L188.5 428.5ZM148.5 389.5L147.0 388.5L145.5 389.5L147.0 391.0L148.5 389.5ZM153.5 385.0L154.5 383.5L153.5 382.0L152.0 383.5L153.5 385.0ZM381.0 390.0L382.5 391.5L384.0 390.0L382.5 388.5L381.0 390.0ZM345.5 426.5L343.5 427.5L345.0 430.0L347.0 428.0L345.5 426.5ZM342.5 420.0L341.0 418.5L340.5 419.5L341.0 421.0L342.5 420.0ZM376.5 385.5L377.5 384.0L376.0 382.5L375.0 384.0L376.5 385.5ZM111.5 399.5L113.0 401.0L114.5 399.5L113.0 398.0L111.5 399.5ZM107.0 404.0L105.5 405.5L107.0 407.0L108.5 405.5L107.0 404.0ZM63.5 361.5L62.5 360.0L60.0 361.0L62.0 363.0L63.5 361.5ZM70.0 359.0L71.5 357.5L70.5 356.5L69.5 357.0L70.0 359.0ZM256.5 389.5L256.5 391.5L258.5 391.5V389.5H256.5ZM225.0 390.0L223.0 389.0L222.0 392.0L225.0 392.0L225.0 390.0ZM228.0 383.0L228.0 381.0L226.5 381.0L226.0 382.5L228.0 383.0ZM256.5 383.0H258.5V380.5L256.5 381.0L256.5 383.0ZM308.0 389.0L308.0 391.0L311.0 391.0L310.0 388L308.0 389.0ZM275.5 389.0H273.5V391.0L275.5 391.0L275.5 389.0ZM275.5 382.5L275.5 380.5L273.5 380.5V382.5H275.5ZM305.0 382.0L307.0 381.5L306.5 380.0L305.0 380.0L305.0 382.0ZM210.0 376.0L212.0 376.5L212.5 375.5L211.5 374.5L210.0 376.0ZM207.5 382.5L206.0 384.0L208.0 386.0L209.0 383.0L207.5 382.5ZM149.0 325.5L148.0 323.5L145.5 325.0L147.5 327.0L149.0 325.5ZM155.5 322.5L157.0 321.0L156.0 320.5L155.0 321.0L155.5 322.5ZM347.5 358.5L349.0 360.0L350.5 358.5L349.0 357.0L347.5 358.5ZM325.5 381.0L323.5 382.0L325.0 384.5L327.0 382.5L325.5 381.0ZM322.5 374.5L321.5 373.0L320.5 374.0L321.0 375.0L322.5 374.5ZM342.5 354.0L344.0 352.5L342.5 351.5L341.0 352.5L342.5 354.0ZM429.5 340.5L431.0 342.0L433.0 340.0L430.0 338.5L429.5 340.5ZM394.5 376.5L393.0 378.0L394.5 379.0L396.0 378.0L394.5 376.5ZM389.5 372.0L388.0 370.5L387.0 372.0L388.5 373.5L389.5 372.0ZM422.5 338.0L423.5 336.0L422.0 335.5L421.5 336.5L422.5 338.0ZM139.5 371.5L141.0 373.0L142.5 371.5L141.0 370.0L139.5 371.5ZM135.0 376.5L133.5 377.5L135.0 379.0L136.5 377.5L135.0 376.5ZM103.0 345.0L102 343.0L99.0 344.5L101.5 346.5L103.0 345.0ZM109.5 342.0L111.0 341.0L110.0 340.0L108.5 340.5L109.5 342.0ZM383.0 322.5L384.0 323.5L386.5 321.5L383.5 320.5L383.0 322.5ZM361.0 345.0L359.5 346.5L361.0 347.5L362.0 346.5L361.0 345.0ZM356.0 340.5L354.5 339.0L353.0 340.5L354.5 342.0L356.0 340.5ZM376.0 319.5L377.0 318.0L375.5 317.5L374.5 318.0L376.0 319.5ZM60.5 191.5L62.5 191.5L62.5 190.5L61.5 190.0L60.5 191.5ZM62.5 341.5L63.5 343.0L64.5 342.5L64.5 341.0L62.5 341.5ZM56 344.0L54.0 344.0L54.0 347.0L57.0 346.0L56 344.0ZM54.0 189.0L55.0 187.0L52.0 186.0L52.0 189.0L54.0 189.0ZM476.0 338.0L475.0 340.0L478.0 341.0L478.0 338.0L476.0 338.0ZM469.0 335.5L467.0 335.5L467.5 337.0L468.5 337.5L469.0 335.5ZM468.5 273.5V271.5H466.5L466.5 273.5L468.5 273.5ZM475.0 273.5L477.0 273.5L477.0 271.5H475.0V273.5ZM102.0 324.5L102.5 326.5L104.0 326.0L104.0 324.5L102.0 324.5ZM95.5 327.5L93.5 327.5L93.5 330.5L96.0 329.5L95.5 327.5ZM94.5 275.5V273.5H92.5L92.5 275.5L94.5 275.5ZM101.5 275.5L103.5 275.5L103.5 273.5H101.5V275.5ZM436.5 322.5L435.5 324.5L438.5 325.5L438.5 322.5L436.5 322.5ZM429.5 320.0L427.5 320.0L427.5 321.5L429.0 322.0L429.5 320.0ZM428.0 205.0L427.5 203.0L426.0 203.5L426.0 205.0L428.0 205.0ZM434.5 202.0L436.5 202.0L436.5 199.0L434.0 200.0L434.5 202.0ZM147.0 227.5L149.0 227.5L149.0 226.5L147.5 226.0L147.0 227.5ZM148.0 305.0L148.5 307.0L150.0 306.5L150.0 305.0L148.0 305.0ZM141.0 308.0L139.0 308.0L139.0 311.0L142.0 310.0L141.0 308.0ZM140.0 225.0L141.0 223.0L138.0 222.0L138.0 225.0L140.0 225.0ZM390.0 304.5L389.0 306.5L392.0 307.5L392.0 304.5L390.0 304.5ZM383.0 302.0L381.0 302.0L381.0 303.0L382.5 303.5L383.0 302.0ZM383.0 273.5V271.5H380.5L381.0 273.5L383.0 273.5ZM389.5 273.5L391.5 273.5L391.5 271.5H389.5V273.5ZM100.5 208.0L102.5 208.0L102.5 207.0L101.0 206.5L100.5 208.0ZM101.0 256.5V258.5H103.0L103.0 256.5L101.0 256.5ZM94.5 256.5L92.5 256.5L92.5 258.5H94.5V256.5ZM93.5 205.5L94.5 203.5L91.5 202.5L91.5 205.5L93.5 205.5ZM475.0 254.5V256.5H477.0L477.0 254.5L475.0 254.5ZM468.0 254.5L466.0 254.5L466.0 256.5H468.0V254.5ZM467.5 187.5L466.5 186.0L465.5 186.5L465.5 187.5L467.5 187.5ZM474.0 184.5L476.0 184.5L476.0 181.5L473.0 183.0L474.0 184.5ZM389.0 254.5V256.5H391.0L391.0 254.5L389.0 254.5ZM382.5 254.5L380.5 254.5L380.5 256.5H382.5V254.5ZM382.0 225.0L381.5 223.5L380.0 224.0L380.0 225.0L382.0 225.0ZM389.0 222.0L391.0 222.0L391.0 219.0L388.0 220.5L389.0 222.0ZM207.5 155.0L209.0 156.5L210.0 155.5L209.5 154.5L207.5 155.0ZM154.5 210.0L153.5 212.0L155.0 212.5L155.5 211.5L154.5 210.0ZM147.5 207.0L146.0 206.0L144.0 208.0L147.0 209.0L147.5 207.0ZM205.0 148.5L206.5 148.0L205.5 145.0L203.5 147.0L205.0 148.5ZM381.0 204.5L382.0 206.5L384.5 205.0L382.5 203.0L381.0 204.5ZM374.5 207.5L373.0 209.0L374.0 210.0L375.5 209.5L374.5 207.5ZM356.0 189.5L354.5 188.0L353.0 189.5L354.5 191.0L356.0 189.5ZM360.5 184.5L362.0 183.0L360.5 182.0L359.5 183.0L360.5 184.5ZM188.0 109.0L189.5 110.5L190.5 109.5L190.0 108.5L188.0 109.0ZM108.5 191.0L107.5 192.5L109.0 193.0L110.0 192.5L108.5 191.0ZM102.0 188.0L100.5 186.5L98.5 189.0L101.0 190.0L102.0 188.0ZM185.5 102.5L187.0 101.5L186.0 99.0L184.0 101.0L185.5 102.5ZM427.0 184.5L427.5 186.5L430.5 185.0L428.0 183.0L427.0 184.5ZM420.0 187.5L419.0 189.0L419.5 190.0L421.0 189.5L420.0 187.5ZM338.5 108.0L337.0 107.5L336.5 108.5L337.5 109.5L338.5 108.0ZM341.5 101.5L343.0 100.0L340.5 98.0L339.5 100.5L341.5 101.5ZM347.0 171.5L348.5 172.5L350.0 171.0L348.5 170.0L347.0 171.5ZM342.0 176.0L341.0 177.5L342.5 179.0L343.5 177.5L342.0 176.0ZM320.0 154.5L318.0 153.5L317.5 155.0L318.5 156.0L320.0 154.5ZM322.5 147.5L324.0 146.0L322.0 144.0L321.0 147.0L322.5 147.5ZM112.5 130.0L114.0 131.5L115.5 130.0L114.0 128.5L112.5 130.0ZM69.5 174.5L68.5 176.5L70.0 177.0L71.0 176.0L69.5 174.5ZM62.5 171.5L61.5 170.5L59.0 172.5L62.0 173.5L62.5 171.5ZM108.0 125.5L109.5 124.0L108.0 122.5L106.5 124.0L108.0 125.5ZM465.5 167.5L466.5 169.0L469.0 168.0L467.0 166.0L465.5 167.5ZM459.0 170.5L457.5 171.5L458.5 172.5L460.0 172.0L459.0 170.5ZM354.5 68.5L353.0 68.0L352.5 69.0L353.5 70.0L354.5 68.5ZM357.5 62.0L359.0 60.5L356.5 58.5L355.5 61.0L357.5 62.0ZM302.5 147.0L302.5 149.0L304.0 149.0L304.5 147.5L302.5 147.0ZM225.5 148.0L223.5 148.5L224.0 150.0L225.5 150.0L225.5 148.0ZM222.5 141.0L222.5 139.0L219.5 139.0L220.5 142.0L222.5 141.0ZM305.0 140.0L307.0 141.0L308.0 138.0L305.0 138.0L305.0 140.0ZM171.5 69.5L173.0 71.0L174.0 70.0L173.5 69.0L171.5 69.5ZM126.0 116.5L124.5 117.5L126.0 119.0L127.5 117.5L126.0 116.5ZM121.5 111.5L120.0 110.0L118.5 111.5L120.0 113.0L121.5 111.5ZM168.5 63.0L170.5 62.0L169.5 59.5L167.0 61.5L168.5 63.0ZM321.0 100.5L321.0 102.5L322.5 102.5L323.0 101.0L321.0 100.5ZM206.0 102.0L204.0 102.5L204.5 104.0L206.0 104.0L206.0 102.0ZM203.0 95.5L203.0 93.5L200.0 93.5L201.0 96.0L203.0 95.5ZM324.0 93.5L326.0 94.5L327.0 91.5L324.0 91.5L324.0 93.5ZM337.0 60.5L337.5 62.5L338.5 62.5L339.0 61.5L337.0 60.5ZM189.5 62.5L187.5 63.5L188.0 64.5L189.5 64.5L189.5 62.5ZM186.5 56.0L186.5 54.0L183.5 54.0L184.5 57.0L186.5 56.0ZM340.0 54.0L342.0 55.0L343.0 52.0L340.0 52.0L340.0 54.0ZM256.5 475.0L256.5 473.0L189.5 474.0L189.5 476.0L189.5 478.0L256.5 477.0L256.5 475.0ZM189.5 476.0L191.0 477.0L194.0 470.0L192.0 469.5L190.5 468.5L187.5 475.0L189.5 476.0ZM192.0 469.5L192.0 471.5L256.5 470.5L256.5 468.5L256.5 466.5L192.0 467.5L192.0 469.5ZM256.5 468.5H254.5V475.0H256.5H258.5V468.5H256.5ZM345.5 474.0L345.5 472.0L275.5 473.0L275.5 475.0L275.5 477.0L345.5 476.0L345.5 474.0ZM275.5 475.0H277.5V468.0H275.5H273.5V475.0H275.5ZM275.5 468.0L275.5 470.0L342.5 469.5L342.5 467.5L342.5 465.5L275.5 466.0L275.5 468.0ZM342.5 467.5L340.5 468.0L343.5 475.0L345.5 474.0L347.0 473.0L344.0 466.5L342.5 467.5ZM175.0 461.0L173.0 460.0L170.0 467.0L172.0 467.5L174.0 468.5L176.5 462.0L175.0 461.0ZM172.0 467.5L173.5 466.0L122.0 416.0L120.5 417.5L119.5 419.0L170.5 469.0L172.0 467.5ZM120.5 417.5L122.0 419.0L127.0 414.5L125.5 413.0L124.0 411.5L119.5 416.0L120.5 417.5ZM125.5 413.0L124.0 414.5L173.5 462.5L175.0 461.0L176.0 459.5L127.0 411.5L125.5 413.0ZM469.5 356.0L468.0 355.0L361.0 464.5L362.5 466.0L364.0 467.0L471.0 357.5L469.5 356.0ZM362.5 466.0L364.5 465.0L361.5 458.5L359.5 459.0L358.0 460.0L360.5 466.5L362.5 466.0ZM359.5 459.0L361.0 460.5L464.0 355.0L462.5 353.5L461.0 352.0L358.5 457.5L359.5 459.0ZM462.5 353.5L462.0 355.5L468.5 358.0L469.5 356.0L470.0 354.5L463.5 351.5L462.5 353.5ZM256.5 435.5L256.5 433.5L206.0 434.5L206.0 436.5L206.0 438.5L256.5 437.5L256.5 435.5ZM206.0 436.5L207.5 437.0L210.5 430.5L208.5 429.5L206.5 429.0L204.0 435.5L206.0 436.5ZM208.5 429.5L208.5 431.5L256.5 431.0L256.5 429.0L256.5 427.0L208.5 427.5L208.5 429.5ZM256.5 429.0H254.5V435.5H256.5H258.5V429.0H256.5ZM328.0 434.5L328.0 432.5L275.5 433.5L275.5 435.5L275.5 437.5L328.0 436.5L328.0 434.5ZM275.5 435.5H277.5V428.5H275.5H273.5V435.5H275.5ZM275.5 428.5L275.5 430.5L325.5 430.0L325.0 428.0L325.0 426.0L275.5 426.5L275.5 428.5ZM325.0 428.0L323.5 429.0L326.5 435.5L328.0 434.5L330.0 434.0L327.0 427.5L325.0 428.0ZM191.0 421.5L189.5 421.0L186.5 427.5L188.5 428.5L190.0 429.0L193.0 422.5L191.0 421.5ZM188.5 428.5L189.5 427.0L150.0 388.0L148.5 389.5L147.0 391.0L187.0 430.0L188.5 428.5ZM148.5 389.5L150 391.0L154.5 386.5L153.5 385.0L152.0 383.5L147.0 388.5L148.5 389.5ZM153.5 385.0L152.0 386.5L189.5 423.0L191.0 421.5L192.5 420.5L154.5 383.5L153.5 385.0ZM381.0 390.0L380.0 388.5L344.0 425.5L345.5 426.5L347.0 428.0L382.5 391.5L381.0 390.0ZM345.5 426.5L347.5 426.0L344.5 419.5L342.5 420.0L341.0 421.0L343.5 427.5L345.5 426.5ZM342.5 420.0L344.0 421.5L378.0 387.0L376.5 385.5L375.0 384.0L341.0 418.5L342.5 420.0ZM376.5 385.5L375.0 387.0L380.0 391.5L381.0 390.0L382.5 388.5L377.5 384.0L376.5 385.5ZM111.5 399.5L110.5 398.0L105.5 403.0L107.0 404.0L108.5 405.5L113.0 401.0L111.5 399.5ZM107.0 404.0L108.5 403.0L65.0 360.5L63.5 361.5L62.0 363.0L105.5 405.5L107.0 404.0ZM63.5 361.5L64.0 363.5L71.0 361.0L70.0 359.0L69.5 357.0L62.5 360.0L63.5 361.5ZM70.0 359.0L68.5 360.5L110.5 401.0L111.5 399.5L113.0 398.0L71.5 357.5L70.0 359.0ZM256.5 389.5L256.5 387.5L225.0 388.0L225.0 390.0L225.0 392.0L256.5 391.5L256.5 389.5ZM225.0 390.0L227.0 390.5L229.5 384.0L228.0 383.0L226.0 382.5L223.0 389.0L225.0 390.0ZM228.0 383.0L228.0 385.0L256.5 385.0L256.5 383.0L256.5 381.0L228.0 381.0L228.0 383.0ZM256.5 383.0H254.5V389.5H256.5H258.5V383.0H256.5ZM308.0 389.0L308.0 387.0L275.5 387.0L275.5 389.0L275.5 391.0L308.0 391.0L308.0 389.0ZM275.5 389.0H277.5V382.5H275.5H273.5V389.0H275.5ZM275.5 382.5L275.5 384.5L305.0 384.0L305.0 382.0L305.0 380.0L275.5 380.5L275.5 382.5ZM305.0 382.0L303.5 383.0L306.5 389.5L308.0 389.0L310.0 388L307.0 381.5L305.0 382.0ZM210.0 376.0L208.5 375.0L205.5 381.5L207.5 382.5L209.0 383.0L212.0 376.5L210.0 376.0ZM207.5 382.5L209.0 381.0L150.5 324.0L149.0 325.5L147.5 327.0L206.0 384.0L207.5 382.5ZM149.0 325.5L149.5 327.5L156.5 324.5L155.5 322.5L155.0 321.0L148.0 323.5L149.0 325.5ZM155.5 322.5L154.0 324.0L208.5 377.0L210.0 376.0L211.5 374.5L157.0 321.0L155.5 322.5ZM347.5 358.5L346.0 357.0L324.0 379.5L325.5 381.0L327.0 382.5L349.0 360.0L347.5 358.5ZM325.5 381.0L327.5 380.0L324.5 373.5L322.5 374.5L321.0 375.0L323.5 382.0L325.5 381.0ZM322.5 374.5L324.0 376.0L344.0 355.5L342.5 354.0L341.0 352.5L321.5 373.0L322.5 374.5ZM342.5 354.0L341.0 355.5L346.0 360.0L347.5 358.5L349.0 357.0L344.0 352.5L342.5 354.0ZM429.5 340.5L428.0 339.0L393.0 375.0L394.5 376.5L396.0 378.0L431.0 342.0L429.5 340.5ZM394.5 376.5L396.0 375.0L391.0 370.5L389.5 372.0L388.5 373.5L393.0 378.0L394.5 376.5ZM389.5 372.0L391.0 373.0L424.0 339.5L422.5 338.0L421.5 336.5L388.0 370.5L389.5 372.0ZM422.5 338.0L422.0 340.0L428.5 342.5L429.5 340.5L430.0 338.5L423.5 336.0L422.5 338.0ZM139.5 371.5L138.0 370.0L133.5 375.0L135.0 376.5L136.5 377.5L141.0 373.0L139.5 371.5ZM135.0 376.5L136.5 375.0L104.0 343.5L103.0 345.0L101.5 346.5L133.5 377.5L135.0 376.5ZM103.0 345.0L103.5 347.0L110.5 344.0L109.5 342.0L108.5 340.5L102 343.0L103.0 345.0ZM109.5 342.0L108.0 343.5L138.0 373.0L139.5 371.5L141.0 370.0L111.0 341.0L109.5 342.0ZM383.0 322.5L381.5 321.0L359.5 343.5L361.0 345.0L362.0 346.5L384.0 323.5L383.0 322.5ZM361.0 345.0L362.0 343.5L357.0 339.0L356.0 340.5L354.5 342.0L359.5 346.5L361.0 345.0ZM356.0 340.5L357.5 341.5L377.5 321.0L376.0 319.5L374.5 318.0L354.5 339.0L356.0 340.5ZM376.0 319.5L375.5 321.5L382.0 324.0L383.0 322.5L383.5 320.5L377.0 318.0L376.0 319.5ZM60.5 191.5L58.5 191.5L60.5 341.5L62.5 341.5L64.5 341.0L62.5 191.5L60.5 191.5ZM62.5 341.5L62.0 339.5L55.0 342.0L56 344.0L57.0 346.0L63.5 343.0L62.5 341.5ZM56 344.0L58.0 344.0L56.0 189.0L54.0 189.0L52.0 189.0L54.0 344.0L56 344.0ZM54.0 189.0L53.0 190.5L60.0 193.5L60.5 191.5L61.5 190.0L55.0 187.0L54.0 189.0ZM476.0 338.0L476.5 336.5L470.0 333.5L469.0 335.5L468.5 337.5L475.0 340.0L476.0 338.0ZM469.0 335.5L471.0 335.5L470.5 273.5L468.5 273.5L466.5 273.5L467.0 335.5L469.0 335.5ZM468.5 273.5V275.5H475.0V273.5V271.5H468.5V273.5ZM475.0 273.5L473.0 273.5L474.0 338.5L476.0 338.0L478.0 338.0L477.0 273.5L475.0 273.5ZM102.0 324.5L101.0 323.0L94.5 325.5L95.5 327.5L96.0 329.5L102.5 326.5L102.0 324.5ZM95.5 327.5L97.5 327.5L96.5 275.5L94.5 275.5L92.5 275.5L93.5 327.5L95.5 327.5ZM94.5 275.5V277.5H101.5V275.5V273.5H94.5V275.5ZM101.5 275.5L99.5 275.5L100.0 324.5L102.0 324.5L104.0 324.5L103.5 275.5L101.5 275.5ZM436.5 322.5L437.0 321.0L430.5 318.0L429.5 320.0L429.0 322.0L435.5 324.5L436.5 322.5ZM429.5 320.0L431.5 320.0L430.0 205.0L428.0 205.0L426.0 205.0L427.5 320.0L429.5 320.0ZM428.0 205.0L429.0 206.5L435.5 204.0L434.5 202.0L434.0 200.0L427.5 203.0L428.0 205.0ZM434.5 202.0L432.5 202.0L434.5 322.5L436.5 322.5L438.5 322.5L436.5 202.0L434.5 202.0ZM147.0 227.5L145.0 227.5L146.0 305.0L148.0 305.0L150.0 305.0L149.0 227.5L147.0 227.5ZM148.0 305.0L147.0 303.5L140.5 306.0L141.0 308.0L142.0 310.0L148.5 307.0L148.0 305.0ZM141.0 308.0L143.0 308.0L142.0 225.0L140.0 225.0L138.0 225.0L139.0 308.0L141.0 308.0ZM140.0 225.0L139.5 226.5L146.0 229.5L147.0 227.5L147.5 226.0L141.0 223.0L140.0 225.0ZM390.0 304.5L390.5 302.5L384.0 300.0L383.0 302.0L382.5 303.5L389.0 306.5L390.0 304.5ZM383.0 302.0L385.0 302.0L385.0 273.5L383.0 273.5L381.0 273.5L381.0 302.0L383.0 302.0ZM383.0 273.5V275.5H389.5V273.5V271.5H383.0V273.5ZM389.5 273.5L387.5 273.5L388.0 304.5L390.0 304.5L392.0 304.5L391.5 273.5L389.5 273.5ZM100.5 208.0L98.5 208.5L99.0 256.5L101.0 256.5L103.0 256.5L102.5 208.0L100.5 208.0ZM101.0 256.5V254.5H94.5V256.5V258.5H101.0V256.5ZM94.5 256.5L96.5 256.5L95.5 205.5L93.5 205.5L91.5 205.5L92.5 256.5L94.5 256.5ZM93.5 205.5L93.0 207.5L99.5 210.0L100.5 208.0L101.0 206.5L94.5 203.5L93.5 205.5ZM475.0 254.5V252.5H468.0V254.5V256.5H475.0V254.5ZM468.0 254.5L470.0 254.5L469.5 187.5L467.5 187.5L465.5 187.5L466.0 254.5L468.0 254.5ZM467.5 187.5L468.0 189.5L475.0 186.5L474.0 184.5L473.0 183.0L466.5 186.0L467.5 187.5ZM474.0 184.5L472.0 184.5L473.0 254.5L475.0 254.5L477.0 254.5L476.0 184.5L474.0 184.5ZM389.0 254.5V252.5H382.5V254.5V256.5H389.0V254.5ZM382.5 254.5L384.5 254.5L384.0 225.0L382.0 225.0L380.0 225.0L380.5 254.5L382.5 254.5ZM382.0 225.0L383.0 227.0L389.5 224.0L389.0 222.0L388.0 220.5L381.5 223.5L382.0 225.0ZM389.0 222.0L387.0 222.0L387.0 254.5L389.0 254.5L391.0 254.5L391.0 222.0L389.0 222.0ZM207.5 155.0L206.5 154.0L153.0 208.5L154.5 210.0L155.5 211.5L209.0 156.5L207.5 155.0ZM154.5 210.0L155.0 208.0L148.5 205.5L147.5 207.0L147.0 209.0L153.5 212.0L154.5 210.0ZM147.5 207.0L149.0 208.5L206.5 150.0L205.0 148.5L203.5 147.0L146.0 206.0L147.5 207.0ZM205.0 148.5L203.0 149.5L206.0 156.0L207.5 155.0L209.5 154.5L206.5 148.0L205.0 148.5ZM381.0 204.5L380.5 203.0L374.0 205.5L374.5 207.5L375.5 209.5L382.0 206.5L381.0 204.5ZM374.5 207.5L376.0 206.0L357.5 188.0L356.0 189.5L354.5 191.0L373.0 209.0L374.5 207.5ZM356.0 189.5L357.5 191.0L362.0 186.0L360.5 184.5L359.5 183.0L354.5 188.0L356.0 189.5ZM360.5 184.5L359.5 186.0L380.0 206.0L381.0 204.5L382.5 203.0L362.0 183.0L360.5 184.5ZM188.0 109.0L186.5 107.5L107.0 189.5L108.5 191.0L110.0 192.5L189.5 110.5L188.0 109.0ZM108.5 191.0L109.5 189.0L102.5 186.0L102.0 188.0L101.0 190.0L107.5 192.5L108.5 191.0ZM102.0 188.0L103.5 189.5L186.5 104.0L185.5 102.5L184.0 101.0L100.5 186.5L102.0 188.0ZM185.5 102.5L183.5 103.0L186.5 110.0L188.0 109.0L190.0 108.5L187.0 101.5L185.5 102.5ZM427.0 184.5L426.0 182.5L419.5 185.5L420.0 187.5L421.0 189.5L427.5 186.5L427.0 184.5ZM420.0 187.5L421.5 186.0L340.0 106.5L338.5 108.0L337.5 109.5L419.0 189.0L420.0 187.5ZM338.5 108.0L340.5 109.0L343.5 102.0L341.5 101.5L339.5 100.5L337.0 107.5L338.5 108.0ZM341.5 101.5L340.0 103.0L425.5 186.0L427.0 184.5L428.0 183.0L343.0 100.0L341.5 101.5ZM347.0 171.5L345.5 170.0L341.0 174.5L342.0 176.0L343.5 177.5L348.5 172.5L347.0 171.5ZM342.0 176.0L343.5 174.5L321.5 153.0L320.0 154.5L318.5 156.0L341.0 177.5L342.0 176.0ZM320.0 154.5L322.0 155.0L324.5 148.5L322.5 147.5L321.0 147.0L318.0 153.5L320.0 154.5ZM322.5 147.5L321.5 149.0L345.5 172.5L347.0 171.5L348.5 170.0L324.0 146.0L322.5 147.5ZM112.5 130.0L111.0 128.5L68.0 173.0L69.5 174.5L71.0 176.0L114.0 131.5L112.5 130.0ZM69.5 174.5L70.0 172.5L63.5 170.0L62.5 171.5L62.0 173.5L68.5 176.5L69.5 174.5ZM62.5 171.5L64.0 173.0L109.5 126.5L108.0 125.5L106.5 124.0L61.5 170.5L62.5 171.5ZM108.0 125.5L106.5 126.5L111.0 131.5L112.5 130.0L114.0 128.5L109.5 124.0L108.0 125.5ZM465.5 167.5L465.0 165.5L458.5 168.5L459.0 170.5L460.0 172.0L466.5 169.0L465.5 167.5ZM459.0 170.5L460.5 169.0L356.0 67.0L354.5 68.5L353.5 70.0L457.5 171.5L459.0 170.5ZM354.5 68.5L356.5 69.5L359.5 62.5L357.5 62.0L355.5 61.0L353.0 68.0L354.5 68.5ZM357.5 62.0L356.0 63.5L464.5 169.0L465.5 167.5L467.0 166.0L359.0 60.5L357.5 62.0ZM302.5 147.0L302.5 145.0L225.5 146.0L225.5 148.0L225.5 150.0L302.5 149.0L302.5 147.0ZM225.5 148.0L227.0 147.0L224.5 140.5L222.5 141.0L220.5 142.0L223.5 148.5L225.5 148.0ZM222.5 141.0L222.5 143.0L305.0 142.0L305.0 140.0L305.0 138.0L222.5 139.0L222.5 141.0ZM305.0 140.0L303.5 139.5L300.5 146.0L302.5 147.0L304.5 147.5L307.0 141.0L305.0 140.0ZM171.5 69.5L170.0 68.5L124.5 115.0L126.0 116.5L127.5 117.5L173.0 71.0L171.5 69.5ZM126.0 116.5L127.5 115.0L122.5 110.0L121.5 111.5L120.0 113.0L124.5 117.5L126.0 116.5ZM121.5 111.5L122.5 113.0L170.0 64.5L168.5 63.0L167.0 61.5L120.0 110.0L121.5 111.5ZM168.5 63.0L167.0 64.0L169.5 70.5L171.5 69.5L173.5 69.0L170.5 62.0L168.5 63.0ZM321.0 100.5L321.0 98.5L206.0 100.0L206.0 102.0L206.0 104.0L321.0 102.5L321.0 100.5ZM206.0 102.0L207.5 101.0L205.0 94.5L203.0 95.5L201.0 96.0L204.0 102.5L206.0 102.0ZM203.0 95.5L203.0 97.5L324.0 95.5L324.0 93.5L324.0 91.5L203.0 93.5L203.0 95.5ZM324.0 93.5L322.0 93.0L319.5 99.5L321.0 100.5L323.0 101.0L326.0 94.5L324.0 93.5ZM337.0 60.5L337.0 58.5L189.0 60.5L189.5 62.5L189.5 64.5L337.5 62.5L337.0 60.5ZM189.5 62.5L191.0 62.0L188.5 55.0L186.5 56.0L184.5 57.0L187.5 63.5L189.5 62.5ZM186.5 56.0L186.5 58.0L340.0 56.0L340.0 54.0L340.0 52.0L186.5 54.0L186.5 56.0ZM340.0 54.0L338.0 53.5L335.5 60.0L337.0 60.5L339.0 61.5L342.0 55.0L340.0 54.0Z" fill="#041822" mask="url(#path-2-outside-1_15751_517)"/>
<path d="M264.0 187.0L264.0 187.0C269.0 187.0 274.5 187.5 279.5 188.5C284.5 189.5 289.0 191.0 293.5 193.0C298.5 195.0 302.5 197.5 306.5 200.0C311.0 203.0 314.5 206.0 318.0 209.5C321.5 213.0 324.5 217.0 327.5 221.0C330.0 225.0 332.5 229.5 334.5 234.0C336.5 238.5 338.0 243.0 339.0 247.5H339.0L339.0 248.0C340.0 253.5 340.5 258.5 340.5 263.5C340.5 269.0 340.0 274.0 339.0 279.0C338.0 284.0 336.5 289.0 334.5 293.5C332.5 298.0 330.0 302.5 327.5 306.5C324.5 310.5 321.5 314.5 318.0 318.0C314.5 321.5 311.0 324.5 306.5 327.0C302.5 330.0 298.5 332.5 293.5 334.5C289.0 336.5 284.5 338.0 279.5 339.0C274.5 340.0 269.0 340.5 264.0 340.5L264.0 340.5C264.0 340.5 264.0 340.5 263.5 340.5C263.5 340.5 263.5 340.5 263.5 340.5V340.5C258.0 340.5 253.0 340.0 248.0 339.0C243.0 338.0 238.5 336.5 233.5 334.5C229.0 332.5 224.5 330.0 220.5 327.0C216.5 324.5 213.0 321.5 209.5 318.0C206.0 314.5 202.5 310.5 200.0 306.5C197.0 302.5 195.0 298.0 193.0 293.5C191 289.0 189.5 284.0 188.5 279.0C187.5 274.0 187.0 269.0 187.0 263.5C187.0 258.5 187.5 253.5 188.5 248.5L188.5 247.5C189.5 242.5 191.0 238.0 193.0 234.0C195.0 229.5 197.0 225.0 200.0 221.0C202.5 217.0 206.0 213.0 209.5 209.5C213.0 206.0 216.5 203.0 220.5 200.0C224.5 197.5 229.0 195.0 233.5 193.0C238.5 191.0 243.0 189.5 248.0 188.5C253.0 187.5 258.0 187.0 263.5 187.0V187.0C263.5 187.0 264.0 187.0 264.0 187.0ZM282.5 192.0C283.5 192.5 284.0 192.5 285.0 193.0C287.0 194.5 289.5 196.5 291.5 198.5C292.0 199.5 293.0 200.5 294.0 201.0C295.5 203.0 296.5 205.0 297.5 207.0L298.0 207.5L298.5 208.5C299.0 209.0 299.5 210.0 299.5 211.0C300.5 212.5 301.0 214.5 301.5 216.5H301.5L301.5 217.0V217.0C301.5 217.0 301.5 217.5 302.0 217.5L302.0 218.0L302.0 218.5C302.0 219.0 302.0 219.5 302.0 220.0C302.5 221.0 302.5 222.0 302.5 223.0C302.5 224.0 302.5 225.0 302.5 226.0C302.5 231.0 301.5 236.5 299.5 241.0C297.5 245.5 295.0 250.0 291.5 253.5C287.5 257.0 283.5 260.0 279.0 262.0C278.5 262.0 278.0 262.5 277.5 262.5C273.0 264.0 268.5 265.0 263.5 265.0C258.0 265.0 252.5 266.0 248.0 268.5V268.5C247.5 268.5 247.5 268.5 247.5 269.0L247.5 269.0C247.0 269.0 247.0 269.0 247.0 269.0V269.0C235.5 275.0 227.5 287.0 227.0 300.5C227.0 301.0 227.0 301.0 227.0 301.5C227.0 301.5 227.0 302.0 227.0 302.0C227.0 304.0 227.5 305.5 227.5 307.5L228.0 308.5C228.5 310.5 229.0 312.5 229.5 314.5L230.0 315.5V315.5L230.0 315.5V315.5C230.0 316.0 230.0 316.0 230.5 316.5L230.5 316.5L230.5 316.5C230.5 316.5 230.5 317.0 230.5 317.0L231.0 317.5L231.0 317.5C236.0 328.5 246.5 336.0 259.0 337.5H259.0L259.0 337.5C259.0 337.5 259.0 337.5 259.0 337.5H259.0C260.0 338.0 261.0 338.0 262.0 338.0H262.0C262.0 338.0 262.0 338.0 262.0 338.0H262.0C262.5 338.0 262.5 338.0 263.0 338.0C263.0 338.0 263.5 338.0 263.5 338.0H264.0L264.5 338.0L264.5 338.0C305.0 337.5 338.0 304.5 338.0 263.5C338.0 229.5 314.5 200.0 282.5 192.0ZM263.5 216.0C258.5 216.0 254.0 220.5 254.0 226.0C254.0 231.5 258.5 235.5 263.5 235.5C269.0 235.5 273.5 231.5 273.5 226.0C273.5 220.5 269.0 216.0 263.5 216.0Z" fill="#041822" stroke="#041822" stroke-width="1.5"/>
<path d="M256.5 294.5C260.5 290.0 267.0 290.0 271.5 294.5C275.5 298.5 275.5 305.0 271.5 309.5C267.0 313.5 260.5 313.5 256.5 309.5C252.0 305.0 252.0 298.5 256.5 294.5Z" fill="#041822" stroke="#041822" stroke-width="0.0"/>
</svg>
