<svg width="530" height="530" viewBox="0 0 530 530" fill="none" xmlns="http://www.w3.org/2000/svg" xmlns:xlink="http://www.w3.org/1999/xlink">
<circle cx="265.0" cy="265.0" r="39.5" transform="rotate(90 265.0 265.0)" fill="#041822" stroke="#041822" stroke-width="7"/>
<g id="Repeat group 3_inner" data-figma-trr="r12u1.5-0f">
<line x1="269.0" y1="35" x2="269.0" y2="212.0" stroke="#041822" stroke-width="7"/>
</g>
<use xlink:href="#Repeat%20group%203_inner" transform="translate(168.0 -97.0) rotate(30)"/>
<use xlink:href="#Repeat%20group%203_inner" transform="translate(362.5 -97.0) rotate(60)"/>
<use xlink:href="#Repeat%20group%203_inner" transform="translate(530.5 -10.0e-06) rotate(90)"/>
<use xlink:href="#Repeat%20group%203_inner" transform="translate(627.5 168.0) rotate(120)"/>
<use xlink:href="#Repeat%20group%203_inner" transform="translate(627.5 362.5) rotate(150)"/>
<use xlink:href="#Repeat%20group%203_inner" transform="translate(530.5 530.5) rotate(-180)"/>
<use xlink:href="#Repeat%20group%203_inner" transform="translate(362.5 627.5) rotate(-150)"/>
<use xlink:href="#Repeat%20group%203_inner" transform="translate(168.0 627.5) rotate(-120)"/>
<use xlink:href="#Repeat%20group%203_inner" transform="translate(2.0e-05 530.5) rotate(-90)"/>
<use xlink:href="#Repeat%20group%203_inner" transform="translate(-97.0 362.5) rotate(-60)"/>
<use xlink:href="#Repeat%20group%203_inner" transform="translate(-97.0 168.0) rotate(-30)"/>
<path d="M306.0 117.5L286.0 191.5M374.5 157.5L320.5 212.0M413.5 226.5L339.5 246.5M413.0 306.0L339.0 286.0M373.0 374.5L319.0 320.5M304.0 413.5L284.0 339.5M225.0 413.0L244.5 339.0M156.5 373.0L210.5 319.0M117 304.0L191.0 284.0M117.5 225.0L191.5 244.5M157.5 156.5L212.0 210.5M226.5 117L246.5 191.0" stroke="#041822" stroke-width="2"/>
</svg>
