<svg width="530" height="530" viewBox="0 0 530 530" fill="none" xmlns="http://www.w3.org/2000/svg">
<path d="M280.5 237.0C290.5 254.5 285.0 277.0 267.5 287.5C250.5 297.5 228.0 292.0 217.5 275.0C207.0 257.5 213.5 236.5 231.0 226.0M280.5 237.0L243.5 177.0M280.5 237.0L281.0 238.0M243.5 177.0C237.5 167.0 241.0 154.0 251.0 148.0C261.0 142.0 274.0 145.0 280.0 155.5C286.0 165.5 282.5 178.0 272.5 184.0" stroke="#041822" stroke-width="7"/>
<path d="M230.0 279.0C240.5 261.5 263.5 256.5 280.5 267.5C297.5 278.0 303.0 300.5 292.0 318.0C281.5 335.0 259.5 338.5 242.5 328.0M230.0 279.0L193.0 339.0M230.0 279.0L230.5 278.0M193.0 339.0C187.0 348.5 174.0 351.5 164.0 345.5C154.0 339.5 151.0 326.0 157.0 316.5C163.5 306.5 176.5 304.0 186.0 310.0" stroke="#041822" stroke-width="7"/>
<path d="M290.0 303.5C269.5 302.5 254.0 285.0 255.0 265.0C256.0 245.0 273.5 229.0 293.5 230.5C313.5 231.5 327.5 248.5 326.5 268.5M290.0 303.5L360.0 306.5M290.0 303.5L288.5 303.5M360.0 306.5C371.5 307.0 380.5 317.0 380.0 328.5C379.5 340.5 369.5 349.5 358.0 349.0C346.0 348.0 337.5 338.0 338.0 326.5" stroke="#041822" stroke-width="7"/>
<path d="M68.0 105.0H461.0L373.5 501.5L18.0 320.5L264.5 10L515.5 320.5L148.0 496.0L68.0 105.0Z" stroke="#041822" stroke-width="4"/>
<circle cx="265" cy="265" r="147.5" stroke="#041822" stroke-width="7"/>
</svg>
