<svg width="530" height="530" viewBox="0 0 530 530" fill="none" xmlns="http://www.w3.org/2000/svg">
<g clip-path="url(#clip0_15751_138)">
<path d="M162 314V266.5V242.5V216.5M162 76.0V28.0V-67H543V314H448.0H400.0H376.5H371" stroke="#041822" stroke-width="3" stroke-linecap="round" stroke-linejoin="round"/>
<path d="M262 377H162V568H262V377Z" stroke="#041822" stroke-width="3" stroke-linecap="round" stroke-linejoin="round"/>
<path d="M224.0 314.5H161.5V376.5H224.0V314.5Z" stroke="#041822" stroke-width="3" stroke-linecap="round" stroke-linejoin="round"/>
<path d="M261.5 314.5H224.0V352.0H261.5V314.5Z" stroke="#041822" stroke-width="3" stroke-linecap="round" stroke-linejoin="round"/>
<path d="M261.5 352.0H237.0V377.0H261.5V352.0Z" stroke="#041822" stroke-width="3" stroke-linecap="round" stroke-linejoin="round"/>
<path d="M237.0 364H224.0V376.5H237.0V364Z" stroke="#041822" stroke-width="3" stroke-linecap="round" stroke-linejoin="round"/>
<path d="M-262.5 477.0C-262.5 242.0 -72.5 52.0 162.5 52.0H161.5C306.5 52.0 423.5 169.0 423.5 314.0C423.5 404.0 350.5 477.0 260.5 477.0H261.5C206.0 477.0 161.5 432.5 161.5 377.0C161.5 342.0 189.5 314.0 224.5 314.0H223.5C244.5 314.0 261.5 331.0 261.5 352.0C261.5 366.0 250.5 377.0 236.5 377.0C230.0 377.0 224.5 371.0 224.5 364.0" stroke="#041822" stroke-width="3" stroke-linecap="round" stroke-linejoin="round"/>
<path d="M416 363.5L393.5 338.0L392.5 337.0C381.0 324.5 369.5 312.0 358.0 299.0C351.5 292.0 345.0 284.5 338.5 277.0C342.5 277.5 350.0 279.0 353.5 277.5C354.5 277.5 355.5 276.5 356.0 275.5C356.5 274.0 355.5 271.5 355.0 270.0C351.5 264.5 346.0 257.5 342.0 252.5C330.5 237.0 318.0 222.5 305.5 207.5C297.5 198.5 290.0 189.0 282.0 179.5C270.5 166.5 259.0 153.0 248.0 139.0C245.5 136.0 240.0 130.5 238.5 127.5C236.5 124.0 236.0 119.5 235.0 115.5C234.5 112.5 233.0 109.5 232.0 106.0C227.0 93.5 218.5 82.5 205.5 76.5C192.0 70.5 175.0 71.5 161.5 77.0C153.0 80.5 148.0 98.0 144.5 106.0C137.0 109.5 111.5 113 111.5 115.5C124 117 138.5 115.5 147.5 122.5C152.5 132.0 156.5 143.5 156.5 155.0C156.5 158.0 155.0 161.0 154.5 164.0C154.0 166.5 153.5 168.5 153.0 171.0C149.5 190.0 155.0 206.5 175.0 226.5C194.5 246.5 248.0 277.5 255.5 286.5C249.0 291.5 231.5 298.0 224.5 302.0C222.0 303.5 220.0 305.5 217.0 306.5C213.0 306.0 209.0 306.0 205.0 306.5C200.0 307.5 196.5 309.5 193.5 313.5H302.5C302.5 313.5 320.5 317 349.5 348.5H349.5C356 356.5 362.5 364.0 369.5 372C371.0 373.5 375 377.0 379 376.5C383 376.0 383 373.5 382.5 372L402.5 392" stroke="#041822" stroke-width="7"/>
<path d="M382.5 373L323.5 302.5" stroke="#041822" stroke-width="2"/>
<path d="M338.5 274.5C316 271 263.5 260.5 228.5 234.5C188.5 205 185.5 152 218.0 140" stroke="#041822" stroke-width="2"/>
</g>
<defs>
<clipPath id="clip0_15751_138">
<rect width="530" height="530" rx="265" fill="white"/>
</clipPath>
</defs>
</svg>
