<svg width="530" height="530" viewBox="0 0 530 530" fill="none" xmlns="http://www.w3.org/2000/svg">
<path d="M197.0 417.0L266.0 486.5L335.5 417.0" stroke="#041822" stroke-width="7"/>
<path d="M362.5 299.0L264.5 397.5L235.5 368.5L235.5 368.5L219.0 351.0L224.5 346.5L240.5 363.5L264.5 387.5L356.0 295.5L362.5 299.0ZM156.0 177.0C173.5 159.5 195.5 152.0 218.5 154.0L218.0 161.0C197.5 159.0 177.0 166.0 161.0 182.0C132.5 210.0 132.5 255.5 161.0 283.5C161.0 284.0 161.0 284.0 161.0 284.0L163.5 286.5L163.5 286.5L212.0 334.5L206.5 339.0L153.5 286.5L153.5 286.5C125.0 255.5 125.5 207.0 156.0 177.0ZM264.5 174.0C296.0 146.0 343.5 147.0 373.5 177.0C404.0 207.0 404.5 256.0 375.0 287.0L368.5 283.0C395.0 255.0 396.0 209.5 368.5 182.0C340.5 154.0 295.5 153.5 267.0 181.5L264.5 183.5L262.5 181.5C253.5 172.5 247.5 167.0 236.5 164.0L237.0 157.0C248.5 160.5 256.5 166.0 264.5 174.0Z" fill="#041822"/>
<path d="M261.5 42.0L264.5 38L267.5 42.0L264.5 44.0L261.5 42.0ZM231.0 165.5C231.0 204.5 243.5 240.0 254.5 261.5L246.5 262.0C235.5 240.0 224.0 206.0 224.0 165.5C224.0 131.5 233.5 100.5 242.5 78.5C247.5 67.5 252.0 58.0 255.5 52.0C257.5 49.0 259.0 46.5 260.0 45.0C260.5 44.0 261.0 43.5 261.0 43.0C261.5 42.5 261.5 42.5 261.5 42.5C261.5 42.5 261.5 42.5 261.5 42.5C261.5 42.0 261.5 42.0 261.5 42.0C261.5 42.0 261.5 42.0 261.5 42.0L261.5 42.0C261.5 42.0 261.5 42.0 264.5 44.0C267.5 42.0 267.5 42.0 267.5 42.0L267.5 42.0C267.5 42.0 267.5 42.0 267.5 42.0C267.5 42.0 267.5 42.0 267.5 42.5C267.5 42.5 267.5 42.5 267.5 42.5C267.5 42.5 267.5 42.5 268.0 43.0C268.0 43.0 268.5 43.5 269.0 44.5C270.0 46.0 271.0 48.0 272.5 50.5C276.0 56.0 280.0 64.0 284.5 73.5C293.0 93.0 302.0 119.0 304.5 149.5L298.0 151.5C295.5 122.0 286.5 95.5 278.0 76.5C273.5 67.0 269.5 59.5 266.5 54.0C266.0 53.0 265.0 51.5 264.5 50.5C264.0 52.0 263.0 53.5 262.0 55.5C258.5 61.5 254.0 70.5 249.0 81.0C240.0 103.0 231.0 132.5 231.0 165.5ZM267.5 276.0C277.0 260.0 297.5 220.5 298.5 169.5L305.5 168.0C304.5 221.0 282.0 266.0 271.5 282.0L267.5 276.0ZM262.0 290.0L262.0 290.0C262.0 290.0 262.0 290.0 262.0 290.0C262.0 290.0 262.0 290.0 262.0 290.0C262.0 290.0 262.0 290.0 262.0 290.0C262.0 289.5 261.5 289.5 261.5 289.0C261.0 288.5 260.5 287.5 259.5 286.0C258.0 283.5 256.0 280.0 254.0 276.0L261.5 275.5C264.0 279.5 264.0 280.0 265.5 282.5C266.5 283.5 267.0 284.5 267.5 285.5C267.5 285.5 268.0 286.0 268.0 286.0C268.0 286.0 268.0 286.0 268.0 286.0C268.0 286.5 268.0 286.5 268.0 286.5C268.0 286.5 268.0 286.5 268.0 286.5L268.0 286.5C268.0 286.5 268.0 286.5 265.0 288.0L262.0 290.0L262.0 290.0Z" fill="#041822"/>
<path d="M467.5 389.0L470.0 393.5L464.5 394.0L464.5 390.5L467.5 389.0ZM339.0 365.0C338.0 364.5 337.5 364.0 337.0 363.5C329.5 359.5 323.0 355.0 316.5 350.0L321.5 344.5C327.5 349.5 333.5 353.5 340.5 357.5C341.0 358.0 341.5 358.5 342.5 359.0C346.5 361.5 351.0 363.5 355.0 365.5C382.0 378.5 409.0 383.5 430.0 386.0C440.0 387.0 448.5 387.0 455.0 387.0C456.5 387.0 457.5 387.0 459.0 387.0C458.0 385.5 457.0 384.0 456.0 382.5C452.5 376.5 447.0 368.0 440.0 358.5C426.0 339.5 404.5 317.0 376.0 300.5C343.0 281.0 306.5 275.0 282.0 273.0L285.0 266.0C310.0 268.0 345.5 274.5 379.5 294.5C409.0 311.5 431.0 335.0 445.5 354.5C453.0 364.0 458.5 372.5 462.0 378.5C464.0 382.0 465.5 384.5 466.0 386.0C466.5 387.0 467.0 387.5 467.0 388.0C467.5 388.5 467.5 388.5 467.5 388.5C467.5 388.5 467.5 388.5 467.5 389.0C467.5 389.0 467.5 389.0 467.5 389.0C467.5 389.0 467.5 389.0 467.5 389.0L467.5 389.0L464.5 390.5L464.5 394.0L464.5 394.0C464.5 394.0 464.5 394.0 464.5 394.0C464.5 394.0 464.5 394.0 464.5 394.0C464.5 394.0 464.5 394.0 464.5 394.0C464.5 394.0 464.0 394.0 464.0 394.0C463.5 394.0 463.0 394.0 462.0 394.0C460.5 394.0 458.0 394.0 455.0 394.0C448.5 394.0 439.5 394.0 429.0 392.5C408.0 390.5 379.5 385.0 352.0 372.0C347.5 369.5 343.0 367.5 339.0 365.0ZM267.0 285.0C275.5 298.0 290.5 317.5 310.0 335.0L304.5 340.0C284.5 322.0 270.0 302.5 261.5 289.0L267.0 285.0Z" fill="#041822"/>
<path d="M64.5 394.0L59.5 393.5L61.5 389.0L64.5 390.5L64.5 394.0ZM149.5 294.5C150.0 294.0 152.0 293.0 152.5 292.5L157.5 297.5C157.0 298.0 153.5 300.0 153.0 300.5C149.0 303.0 145.0 305.5 141.0 308.0C116.5 325.0 98.0 346.0 86.0 362.5C80.0 371.0 75.5 378.5 72.5 383.5C71.5 385.0 71.0 386.0 70.5 387.0C72.0 387.0 74.0 387.0 76.0 387.0C83.0 387.0 93.0 386.5 104.5 385.0C128.0 382.5 158.5 375.5 187.0 359.0C220.0 339.5 243.5 311.5 257.5 291.5L261.5 297.0C247.5 317.5 225.0 345.0 190.5 365.0C160.5 382.0 129.5 389.0 105.5 392.0C93.5 393.5 83.0 394.0 76.0 394.0C72.5 394.0 69.5 394.0 67.5 394.0C66.5 394.0 66.0 394.0 65.5 394.0C65.0 394.0 65.0 394.0 64.5 394.0C64.5 394.0 64.5 394.0 64.5 394.0C64.5 394.0 64.5 394.0 64.5 394.0C64.5 394.0 64.5 394.0 64.5 394.0L64.5 394.0L64.5 390.5L61.5 389.0L61.5 389.0C61.5 389.0 61.5 389.0 61.5 389.0C61.5 389.0 61.5 389.0 61.5 389.0C61.5 388.5 61.5 388.5 61.5 388.5C61.5 388.5 62.0 388.5 62.0 388.0C62.0 388.0 62.5 387.0 63.0 386.5C63.5 385.0 64.5 383.0 66.5 380.0C69.5 374.5 74.0 367.0 80.5 358.5C93.0 341.0 111.5 319.5 137.0 302.0C141.0 299.5 145.0 297.0 149.5 294.5ZM264.5 271.5C249.0 271.5 214.0 272.0 173.0 290.0L168.0 284.5C210.0 265.0 242.5 265.0 268.5 265.0L264.5 271.5Z" fill="#041822"/>
</svg>
